<?xml version="1.0" encoding="UTF-8" standalone="no"?>
<!DOCTYPE svg PUBLIC "-//W3C//DTD SVG 1.1//EN"
 "http://www.w3.org/Graphics/SVG/1.1/DTD/svg11.dtd">
<!-- Generated by graphviz version 2.43.0 (0)
 -->
<!-- Title: inheritance9bbaf0b9f8 Pages: 1 -->
<svg width="576pt" height="40pt"
 viewBox="0.00 0.00 576.00 39.82" xmlns="http://www.w3.org/2000/svg" xmlns:xlink="http://www.w3.org/1999/xlink">
<g id="graph0" class="graph" transform="scale(2.06 2.06) rotate(0) translate(4 78)">
<title>inheritance9bbaf0b9f8</title>
<polygon fill="white" stroke="transparent" points="-4,4 -4,-78 1182,-78 1182,4 -4,4"/>
<!-- pyGHDL.dom.DOMMixin -->
<g id="node1" class="node">
<title>pyGHDL.dom.DOMMixin</title>
<g id="a_node1"><a xlink:href="../pyGHDL.dom.html#pyGHDL.dom.DOMMixin" xlink:title="pyGHDL.dom.DOMMixin" target="_top">
<polygon fill="none" stroke="black" stroke-width="0.5" points="883.5,-74 748.5,-74 748.5,-55 883.5,-55 883.5,-74"/>
<text text-anchor="middle" x="816" y="-62" font-family="Vera Sans, DejaVu Sans, Liberation Sans, Arial, Helvetica, sans" font-size="10.00">pyGHDL.dom.DOMMixin</text>
</a>
</g>
</g>
<!-- pyGHDL.dom.Object.DeferredConstant -->
<g id="node2" class="node">
<title>pyGHDL.dom.Object.DeferredConstant</title>
<g id="a_node2"><a xlink:href="../pyGHDL/pyGHDL.dom.Object.html#pyGHDL.dom.Object.DeferredConstant" xlink:title="pyGHDL.dom.Object.DeferredConstant" target="_top">
<polygon fill="none" stroke="black" stroke-width="0.5" points="1178,-55 973,-55 973,-36 1178,-36 1178,-55"/>
<text text-anchor="middle" x="1075.5" y="-43" font-family="Vera Sans, DejaVu Sans, Liberation Sans, Arial, Helvetica, sans" font-size="10.00">pyGHDL.dom.Object.DeferredConstant</text>
</a>
</g>
</g>
<!-- pyGHDL.dom.DOMMixin&#45;&gt;pyGHDL.dom.Object.DeferredConstant -->
<g id="edge2" class="edge">
<title>pyGHDL.dom.DOMMixin&#45;&gt;pyGHDL.dom.Object.DeferredConstant</title>
<path fill="none" stroke="black" stroke-width="0.5" d="M883.65,-59.58C909.18,-57.7 939,-55.5 967.37,-53.4"/>
<polygon fill="black" stroke="black" stroke-width="0.5" points="967.79,-55.13 972.65,-53.02 967.53,-51.64 967.79,-55.13"/>
</g>
<!-- pyVHDLModel.SyntaxModel.DeferredConstant -->
<g id="node3" class="node">
<title>pyVHDLModel.SyntaxModel.DeferredConstant</title>
<polygon fill="none" stroke="black" stroke-width="0.5" points="937,-37 695,-37 695,-18 937,-18 937,-37"/>
<text text-anchor="middle" x="816" y="-25" font-family="Vera Sans, DejaVu Sans, Liberation Sans, Arial, Helvetica, sans" font-size="10.00">pyVHDLModel.SyntaxModel.DeferredConstant</text>
</g>
<!-- pyVHDLModel.SyntaxModel.DeferredConstant&#45;&gt;pyGHDL.dom.Object.DeferredConstant -->
<g id="edge1" class="edge">
<title>pyVHDLModel.SyntaxModel.DeferredConstant&#45;&gt;pyGHDL.dom.Object.DeferredConstant</title>
<path fill="none" stroke="black" stroke-width="0.5" d="M937.08,-35.89C947.24,-36.6 957.47,-37.32 967.52,-38.02"/>
<polygon fill="black" stroke="black" stroke-width="0.5" points="967.65,-39.79 972.76,-38.39 967.9,-36.29 967.65,-39.79"/>
</g>
<!-- pyVHDLModel.ModelEntity -->
<g id="node4" class="node">
<title>pyVHDLModel.ModelEntity</title>
<g id="a_node4"><a xlink:title="``ModelEntity`` is the base class for all classes in the VHDL language model,">
<polygon fill="none" stroke="black" stroke-width="0.5" points="169.5,-56 22.5,-56 22.5,-37 169.5,-37 169.5,-56"/>
<text text-anchor="middle" x="96" y="-44" font-family="Vera Sans, DejaVu Sans, Liberation Sans, Arial, Helvetica, sans" font-size="10.00">pyVHDLModel.ModelEntity</text>
</a>
</g>
</g>
<!-- pyVHDLModel.SyntaxModel.Obj -->
<g id="node7" class="node">
<title>pyVHDLModel.SyntaxModel.Obj</title>
<polygon fill="none" stroke="black" stroke-width="0.5" points="400,-37 228,-37 228,-18 400,-18 400,-37"/>
<text text-anchor="middle" x="314" y="-25" font-family="Vera Sans, DejaVu Sans, Liberation Sans, Arial, Helvetica, sans" font-size="10.00">pyVHDLModel.SyntaxModel.Obj</text>
</g>
<!-- pyVHDLModel.ModelEntity&#45;&gt;pyVHDLModel.SyntaxModel.Obj -->
<g id="edge5" class="edge">
<title>pyVHDLModel.ModelEntity&#45;&gt;pyVHDLModel.SyntaxModel.Obj</title>
<path fill="none" stroke="black" stroke-width="0.5" d="M169.53,-40.12C186.67,-38.61 205.15,-36.99 222.96,-35.42"/>
<polygon fill="black" stroke="black" stroke-width="0.5" points="223.13,-37.16 227.96,-34.98 222.83,-33.68 223.13,-37.16"/>
</g>
<!-- pyVHDLModel.MultipleNamedEntity -->
<g id="node5" class="node">
<title>pyVHDLModel.MultipleNamedEntity</title>
<g id="a_node5"><a xlink:title="A ``MultipleNamedEntity`` is a mixin class for all VHDL entities that declare">
<polygon fill="none" stroke="black" stroke-width="0.5" points="192,-19 0,-19 0,0 192,0 192,-19"/>
<text text-anchor="middle" x="96" y="-7" font-family="Vera Sans, DejaVu Sans, Liberation Sans, Arial, Helvetica, sans" font-size="10.00">pyVHDLModel.MultipleNamedEntity</text>
</a>
</g>
</g>
<!-- pyVHDLModel.MultipleNamedEntity&#45;&gt;pyVHDLModel.SyntaxModel.Obj -->
<g id="edge6" class="edge">
<title>pyVHDLModel.MultipleNamedEntity&#45;&gt;pyVHDLModel.SyntaxModel.Obj</title>
<path fill="none" stroke="black" stroke-width="0.5" d="M192.06,-17.42C202.18,-18.26 212.45,-19.12 222.51,-19.96"/>
<polygon fill="black" stroke="black" stroke-width="0.5" points="222.63,-21.73 227.76,-20.4 222.92,-18.24 222.63,-21.73"/>
</g>
<!-- pyVHDLModel.SyntaxModel.BaseConstant -->
<g id="node6" class="node">
<title>pyVHDLModel.SyntaxModel.BaseConstant</title>
<polygon fill="none" stroke="black" stroke-width="0.5" points="659,-37 436,-37 436,-18 659,-18 659,-37"/>
<text text-anchor="middle" x="547.5" y="-25" font-family="Vera Sans, DejaVu Sans, Liberation Sans, Arial, Helvetica, sans" font-size="10.00">pyVHDLModel.SyntaxModel.BaseConstant</text>
</g>
<!-- pyVHDLModel.SyntaxModel.BaseConstant&#45;&gt;pyVHDLModel.SyntaxModel.DeferredConstant -->
<g id="edge4" class="edge">
<title>pyVHDLModel.SyntaxModel.BaseConstant&#45;&gt;pyVHDLModel.SyntaxModel.DeferredConstant</title>
<path fill="none" stroke="black" stroke-width="0.5" d="M659.2,-27.5C669.19,-27.5 679.35,-27.5 689.45,-27.5"/>
<polygon fill="black" stroke="black" stroke-width="0.5" points="689.73,-29.25 694.73,-27.5 689.73,-25.75 689.73,-29.25"/>
</g>
<!-- pyVHDLModel.SyntaxModel.Obj&#45;&gt;pyVHDLModel.SyntaxModel.BaseConstant -->
<g id="edge3" class="edge">
<title>pyVHDLModel.SyntaxModel.Obj&#45;&gt;pyVHDLModel.SyntaxModel.BaseConstant</title>
<path fill="none" stroke="black" stroke-width="0.5" d="M400.22,-27.5C410.19,-27.5 420.48,-27.5 430.78,-27.5"/>
<polygon fill="black" stroke="black" stroke-width="0.5" points="430.83,-29.25 435.83,-27.5 430.83,-25.75 430.83,-29.25"/>
</g>
</g>
</svg>
