<?xml version="1.0" encoding="UTF-8" standalone="no"?>
<!DOCTYPE svg PUBLIC "-//W3C//DTD SVG 1.1//EN"
 "http://www.w3.org/Graphics/SVG/1.1/DTD/svg11.dtd">
<!-- Generated by graphviz version 2.43.0 (0)
 -->
<!-- Title: inheritanceb9f039974e Pages: 1 -->
<svg width="576pt" height="32pt"
 viewBox="0.00 0.00 576.00 31.85" xmlns="http://www.w3.org/2000/svg" xmlns:xlink="http://www.w3.org/1999/xlink">
<g id="graph0" class="graph" transform="scale(2.61 2.61) rotate(0) translate(4 79)">
<title>inheritanceb9f039974e</title>
<polygon fill="white" stroke="transparent" points="-4,4 -4,-79 1497,-79 1497,4 -4,4"/>
<!-- pyGHDL.dom.Concurrent.EntityInstantiation -->
<g id="node1" class="node">
<title>pyGHDL.dom.Concurrent.EntityInstantiation</title>
<g id="a_node1"><a xlink:href="../pyGHDL/pyGHDL.dom.Concurrent.html#pyGHDL.dom.Concurrent.EntityInstantiation" xlink:title="pyGHDL.dom.Concurrent.EntityInstantiation" target="_top">
<polygon fill="none" stroke="black" stroke-width="0.5" points="1493,-37 1263,-37 1263,-18 1493,-18 1493,-37"/>
<text text-anchor="middle" x="1378" y="-25" font-family="Vera Sans, DejaVu Sans, Liberation Sans, Arial, Helvetica, sans" font-size="10.00">pyGHDL.dom.Concurrent.EntityInstantiation</text>
</a>
</g>
</g>
<!-- pyVHDLModel.SyntaxModel.EntityInstantiation -->
<g id="node2" class="node">
<title>pyVHDLModel.SyntaxModel.EntityInstantiation</title>
<polygon fill="none" stroke="black" stroke-width="0.5" points="1227,-56 982,-56 982,-37 1227,-37 1227,-56"/>
<text text-anchor="middle" x="1104.5" y="-44" font-family="Vera Sans, DejaVu Sans, Liberation Sans, Arial, Helvetica, sans" font-size="10.00">pyVHDLModel.SyntaxModel.EntityInstantiation</text>
</g>
<!-- pyVHDLModel.SyntaxModel.EntityInstantiation&#45;&gt;pyGHDL.dom.Concurrent.EntityInstantiation -->
<g id="edge1" class="edge">
<title>pyVHDLModel.SyntaxModel.EntityInstantiation&#45;&gt;pyGHDL.dom.Concurrent.EntityInstantiation</title>
<path fill="none" stroke="black" stroke-width="0.5" d="M1227.35,-37.97C1237.44,-37.27 1247.62,-36.55 1257.69,-35.85"/>
<polygon fill="black" stroke="black" stroke-width="0.5" points="1258.07,-37.58 1262.94,-35.48 1257.83,-34.09 1258.07,-37.58"/>
</g>
<!-- pyGHDL.dom.DOMMixin -->
<g id="node3" class="node">
<title>pyGHDL.dom.DOMMixin</title>
<g id="a_node3"><a xlink:href="../pyGHDL.dom.html#pyGHDL.dom.DOMMixin" xlink:title="pyGHDL.dom.DOMMixin" target="_top">
<polygon fill="none" stroke="black" stroke-width="0.5" points="1172,-19 1037,-19 1037,0 1172,0 1172,-19"/>
<text text-anchor="middle" x="1104.5" y="-7" font-family="Vera Sans, DejaVu Sans, Liberation Sans, Arial, Helvetica, sans" font-size="10.00">pyGHDL.dom.DOMMixin</text>
</a>
</g>
</g>
<!-- pyGHDL.dom.DOMMixin&#45;&gt;pyGHDL.dom.Concurrent.EntityInstantiation -->
<g id="edge2" class="edge">
<title>pyGHDL.dom.DOMMixin&#45;&gt;pyGHDL.dom.Concurrent.EntityInstantiation</title>
<path fill="none" stroke="black" stroke-width="0.5" d="M1172.26,-13.93C1198.09,-15.64 1228.45,-17.65 1257.77,-19.6"/>
<polygon fill="black" stroke="black" stroke-width="0.5" points="1257.74,-21.35 1262.85,-19.93 1257.97,-17.85 1257.74,-21.35"/>
</g>
<!-- pyVHDLModel.LabeledEntity -->
<g id="node4" class="node">
<title>pyVHDLModel.LabeledEntity</title>
<g id="a_node4"><a xlink:title="A ``LabeledEntity`` is a mixin class for all VHDL entities that can have">
<polygon fill="none" stroke="black" stroke-width="0.5" points="155,-75 0,-75 0,-56 155,-56 155,-75"/>
<text text-anchor="middle" x="77.5" y="-63" font-family="Vera Sans, DejaVu Sans, Liberation Sans, Arial, Helvetica, sans" font-size="10.00">pyVHDLModel.LabeledEntity</text>
</a>
</g>
</g>
<!-- pyVHDLModel.SyntaxModel.Statement -->
<g id="node7" class="node">
<title>pyVHDLModel.SyntaxModel.Statement</title>
<polygon fill="none" stroke="black" stroke-width="0.5" points="397,-56 191,-56 191,-37 397,-37 397,-56"/>
<text text-anchor="middle" x="294" y="-44" font-family="Vera Sans, DejaVu Sans, Liberation Sans, Arial, Helvetica, sans" font-size="10.00">pyVHDLModel.SyntaxModel.Statement</text>
</g>
<!-- pyVHDLModel.LabeledEntity&#45;&gt;pyVHDLModel.SyntaxModel.Statement -->
<g id="edge7" class="edge">
<title>pyVHDLModel.LabeledEntity&#45;&gt;pyVHDLModel.SyntaxModel.Statement</title>
<path fill="none" stroke="black" stroke-width="0.5" d="M155.03,-58.72C164.96,-57.84 175.27,-56.93 185.58,-56.02"/>
<polygon fill="black" stroke="black" stroke-width="0.5" points="185.81,-57.75 190.64,-55.57 185.5,-54.27 185.81,-57.75"/>
</g>
<!-- pyVHDLModel.ModelEntity -->
<g id="node5" class="node">
<title>pyVHDLModel.ModelEntity</title>
<g id="a_node5"><a xlink:title="``ModelEntity`` is the base class for all classes in the VHDL language model,">
<polygon fill="none" stroke="black" stroke-width="0.5" points="151,-38 4,-38 4,-19 151,-19 151,-38"/>
<text text-anchor="middle" x="77.5" y="-26" font-family="Vera Sans, DejaVu Sans, Liberation Sans, Arial, Helvetica, sans" font-size="10.00">pyVHDLModel.ModelEntity</text>
</a>
</g>
</g>
<!-- pyVHDLModel.ModelEntity&#45;&gt;pyVHDLModel.SyntaxModel.Statement -->
<g id="edge6" class="edge">
<title>pyVHDLModel.ModelEntity&#45;&gt;pyVHDLModel.SyntaxModel.Statement</title>
<path fill="none" stroke="black" stroke-width="0.5" d="M151.12,-34.59C162.29,-35.53 174.01,-36.52 185.74,-37.5"/>
<polygon fill="black" stroke="black" stroke-width="0.5" points="185.64,-39.25 190.77,-37.92 185.93,-35.76 185.64,-39.25"/>
</g>
<!-- pyVHDLModel.SyntaxModel.ConcurrentStatement -->
<g id="node6" class="node">
<title>pyVHDLModel.SyntaxModel.ConcurrentStatement</title>
<g id="a_node6"><a xlink:title="A ``ConcurrentStatement`` is a base&#45;class for all concurrent statements.">
<polygon fill="none" stroke="black" stroke-width="0.5" points="693,-56 433,-56 433,-37 693,-37 693,-56"/>
<text text-anchor="middle" x="563" y="-44" font-family="Vera Sans, DejaVu Sans, Liberation Sans, Arial, Helvetica, sans" font-size="10.00">pyVHDLModel.SyntaxModel.ConcurrentStatement</text>
</a>
</g>
</g>
<!-- pyVHDLModel.SyntaxModel.Instantiation -->
<g id="node8" class="node">
<title>pyVHDLModel.SyntaxModel.Instantiation</title>
<polygon fill="none" stroke="black" stroke-width="0.5" points="946,-56 729,-56 729,-37 946,-37 946,-56"/>
<text text-anchor="middle" x="837.5" y="-44" font-family="Vera Sans, DejaVu Sans, Liberation Sans, Arial, Helvetica, sans" font-size="10.00">pyVHDLModel.SyntaxModel.Instantiation</text>
</g>
<!-- pyVHDLModel.SyntaxModel.ConcurrentStatement&#45;&gt;pyVHDLModel.SyntaxModel.Instantiation -->
<g id="edge5" class="edge">
<title>pyVHDLModel.SyntaxModel.ConcurrentStatement&#45;&gt;pyVHDLModel.SyntaxModel.Instantiation</title>
<path fill="none" stroke="black" stroke-width="0.5" d="M693.07,-46.5C703.26,-46.5 713.5,-46.5 723.57,-46.5"/>
<polygon fill="black" stroke="black" stroke-width="0.5" points="723.82,-48.25 728.82,-46.5 723.82,-44.75 723.82,-48.25"/>
</g>
<!-- pyVHDLModel.SyntaxModel.Statement&#45;&gt;pyVHDLModel.SyntaxModel.ConcurrentStatement -->
<g id="edge3" class="edge">
<title>pyVHDLModel.SyntaxModel.Statement&#45;&gt;pyVHDLModel.SyntaxModel.ConcurrentStatement</title>
<path fill="none" stroke="black" stroke-width="0.5" d="M397.08,-46.5C407.08,-46.5 417.32,-46.5 427.57,-46.5"/>
<polygon fill="black" stroke="black" stroke-width="0.5" points="427.61,-48.25 432.61,-46.5 427.61,-44.75 427.61,-48.25"/>
</g>
<!-- pyVHDLModel.SyntaxModel.Instantiation&#45;&gt;pyVHDLModel.SyntaxModel.EntityInstantiation -->
<g id="edge4" class="edge">
<title>pyVHDLModel.SyntaxModel.Instantiation&#45;&gt;pyVHDLModel.SyntaxModel.EntityInstantiation</title>
<path fill="none" stroke="black" stroke-width="0.5" d="M946.29,-46.5C956.38,-46.5 966.68,-46.5 976.93,-46.5"/>
<polygon fill="black" stroke="black" stroke-width="0.5" points="976.96,-48.25 981.96,-46.5 976.96,-44.75 976.96,-48.25"/>
</g>
</g>
</svg>
