<?xml version="1.0" encoding="UTF-8" standalone="no"?>
<!DOCTYPE svg PUBLIC "-//W3C//DTD SVG 1.1//EN"
 "http://www.w3.org/Graphics/SVG/1.1/DTD/svg11.dtd">
<!-- Generated by graphviz version 2.43.0 (0)
 -->
<!-- Title: inheritancea1ad23801a Pages: 1 -->
<svg width="576pt" height="57pt"
 viewBox="0.00 0.00 576.00 57.20" xmlns="http://www.w3.org/2000/svg" xmlns:xlink="http://www.w3.org/1999/xlink">
<g id="graph0" class="graph" transform="scale(1.77 1.77) rotate(0) translate(4 97)">
<title>inheritancea1ad23801a</title>
<polygon fill="white" stroke="transparent" points="-4,4 -4,-97 1013,-97 1013,4 -4,4"/>
<!-- pyGHDL.dom.Sequential.ElseBranch -->
<g id="node1" class="node">
<title>pyGHDL.dom.Sequential.ElseBranch</title>
<g id="a_node1"><a xlink:href="../pyGHDL/pyGHDL.dom.Sequential.html#pyGHDL.dom.Sequential.ElseBranch" xlink:title="pyGHDL.dom.Sequential.ElseBranch" target="_top">
<polygon fill="none" stroke="black" stroke-width="0.5" points="1009,-37 816,-37 816,-18 1009,-18 1009,-37"/>
<text text-anchor="middle" x="912.5" y="-25" font-family="Vera Sans, DejaVu Sans, Liberation Sans, Arial, Helvetica, sans" font-size="10.00">pyGHDL.dom.Sequential.ElseBranch</text>
</a>
</g>
</g>
<!-- pyVHDLModel.SyntaxModel.ElseBranch -->
<g id="node2" class="node">
<title>pyVHDLModel.SyntaxModel.ElseBranch</title>
<polygon fill="none" stroke="black" stroke-width="0.5" points="780,-37 571,-37 571,-18 780,-18 780,-37"/>
<text text-anchor="middle" x="675.5" y="-25" font-family="Vera Sans, DejaVu Sans, Liberation Sans, Arial, Helvetica, sans" font-size="10.00">pyVHDLModel.SyntaxModel.ElseBranch</text>
</g>
<!-- pyVHDLModel.SyntaxModel.ElseBranch&#45;&gt;pyGHDL.dom.Sequential.ElseBranch -->
<g id="edge1" class="edge">
<title>pyVHDLModel.SyntaxModel.ElseBranch&#45;&gt;pyGHDL.dom.Sequential.ElseBranch</title>
<path fill="none" stroke="black" stroke-width="0.5" d="M780.26,-27.5C790.31,-27.5 800.5,-27.5 810.52,-27.5"/>
<polygon fill="black" stroke="black" stroke-width="0.5" points="810.75,-29.25 815.75,-27.5 810.75,-25.75 810.75,-29.25"/>
</g>
<!-- pyVHDLModel.ModelEntity -->
<g id="node3" class="node">
<title>pyVHDLModel.ModelEntity</title>
<g id="a_node3"><a xlink:title="``ModelEntity`` is the base class for all classes in the VHDL language model,">
<polygon fill="none" stroke="black" stroke-width="0.5" points="205,-93 58,-93 58,-74 205,-74 205,-93"/>
<text text-anchor="middle" x="131.5" y="-81" font-family="Vera Sans, DejaVu Sans, Liberation Sans, Arial, Helvetica, sans" font-size="10.00">pyVHDLModel.ModelEntity</text>
</a>
</g>
</g>
<!-- pyVHDLModel.SyntaxModel.Branch -->
<g id="node4" class="node">
<title>pyVHDLModel.SyntaxModel.Branch</title>
<g id="a_node4"><a xlink:title="A ``Branch`` is a base&#45;class for all branches in a if statement.">
<polygon fill="none" stroke="black" stroke-width="0.5" points="511.5,-56 322.5,-56 322.5,-37 511.5,-37 511.5,-56"/>
<text text-anchor="middle" x="417" y="-44" font-family="Vera Sans, DejaVu Sans, Liberation Sans, Arial, Helvetica, sans" font-size="10.00">pyVHDLModel.SyntaxModel.Branch</text>
</a>
</g>
</g>
<!-- pyVHDLModel.ModelEntity&#45;&gt;pyVHDLModel.SyntaxModel.Branch -->
<g id="edge2" class="edge">
<title>pyVHDLModel.ModelEntity&#45;&gt;pyVHDLModel.SyntaxModel.Branch</title>
<path fill="none" stroke="black" stroke-width="0.5" d="M205.14,-74.02C245.81,-68.71 296.54,-62.09 338.04,-56.67"/>
<polygon fill="black" stroke="black" stroke-width="0.5" points="338.33,-58.4 343.06,-56.02 337.87,-54.93 338.33,-58.4"/>
</g>
<!-- pyVHDLModel.SyntaxModel.Branch&#45;&gt;pyVHDLModel.SyntaxModel.ElseBranch -->
<g id="edge4" class="edge">
<title>pyVHDLModel.SyntaxModel.Branch&#45;&gt;pyVHDLModel.SyntaxModel.ElseBranch</title>
<path fill="none" stroke="black" stroke-width="0.5" d="M511.69,-39.56C529.22,-38.26 547.68,-36.89 565.62,-35.57"/>
<polygon fill="black" stroke="black" stroke-width="0.5" points="565.81,-37.31 570.67,-35.19 565.55,-33.82 565.81,-37.31"/>
</g>
<!-- pyVHDLModel.SyntaxModel.SequentialStatements -->
<g id="node5" class="node">
<title>pyVHDLModel.SyntaxModel.SequentialStatements</title>
<polygon fill="none" stroke="black" stroke-width="0.5" points="263,-56 0,-56 0,-37 263,-37 263,-56"/>
<text text-anchor="middle" x="131.5" y="-44" font-family="Vera Sans, DejaVu Sans, Liberation Sans, Arial, Helvetica, sans" font-size="10.00">pyVHDLModel.SyntaxModel.SequentialStatements</text>
</g>
<!-- pyVHDLModel.SyntaxModel.SequentialStatements&#45;&gt;pyVHDLModel.SyntaxModel.Branch -->
<g id="edge3" class="edge">
<title>pyVHDLModel.SyntaxModel.SequentialStatements&#45;&gt;pyVHDLModel.SyntaxModel.Branch</title>
<path fill="none" stroke="black" stroke-width="0.5" d="M263.05,-46.5C281.22,-46.5 299.64,-46.5 317.11,-46.5"/>
<polygon fill="black" stroke="black" stroke-width="0.5" points="317.49,-48.25 322.49,-46.5 317.49,-44.75 317.49,-48.25"/>
</g>
<!-- pyVHDLModel.SyntaxModel.MixinElseBranch -->
<g id="node6" class="node">
<title>pyVHDLModel.SyntaxModel.MixinElseBranch</title>
<g id="a_node6"><a xlink:title="A ``BaseElseBranch`` is a mixin&#45;class for all else&#45;branches.">
<polygon fill="none" stroke="black" stroke-width="0.5" points="535,-19 299,-19 299,0 535,0 535,-19"/>
<text text-anchor="middle" x="417" y="-7" font-family="Vera Sans, DejaVu Sans, Liberation Sans, Arial, Helvetica, sans" font-size="10.00">pyVHDLModel.SyntaxModel.MixinElseBranch</text>
</a>
</g>
</g>
<!-- pyVHDLModel.SyntaxModel.MixinElseBranch&#45;&gt;pyVHDLModel.SyntaxModel.ElseBranch -->
<g id="edge5" class="edge">
<title>pyVHDLModel.SyntaxModel.MixinElseBranch&#45;&gt;pyVHDLModel.SyntaxModel.ElseBranch</title>
<path fill="none" stroke="black" stroke-width="0.5" d="M535.37,-17.74C545.48,-18.45 555.68,-19.16 565.71,-19.87"/>
<polygon fill="black" stroke="black" stroke-width="0.5" points="565.84,-21.63 570.95,-20.23 566.08,-18.14 565.84,-21.63"/>
</g>
<!-- pyVHDLModel.SyntaxModel.MixinBranch -->
<g id="node7" class="node">
<title>pyVHDLModel.SyntaxModel.MixinBranch</title>
<g id="a_node7"><a xlink:title="A ``BaseBranch`` is a mixin&#45;class for all statements with branches.">
<polygon fill="none" stroke="black" stroke-width="0.5" points="239.5,-19 23.5,-19 23.5,0 239.5,0 239.5,-19"/>
<text text-anchor="middle" x="131.5" y="-7" font-family="Vera Sans, DejaVu Sans, Liberation Sans, Arial, Helvetica, sans" font-size="10.00">pyVHDLModel.SyntaxModel.MixinBranch</text>
</a>
</g>
</g>
<!-- pyVHDLModel.SyntaxModel.MixinBranch&#45;&gt;pyVHDLModel.SyntaxModel.MixinElseBranch -->
<g id="edge6" class="edge">
<title>pyVHDLModel.SyntaxModel.MixinBranch&#45;&gt;pyVHDLModel.SyntaxModel.MixinElseBranch</title>
<path fill="none" stroke="black" stroke-width="0.5" d="M239.68,-9.5C257.31,-9.5 275.7,-9.5 293.66,-9.5"/>
<polygon fill="black" stroke="black" stroke-width="0.5" points="293.72,-11.25 298.72,-9.5 293.72,-7.75 293.72,-11.25"/>
</g>
</g>
</svg>
