<?xml version="1.0" encoding="UTF-8" standalone="no"?>
<!DOCTYPE svg PUBLIC "-//W3C//DTD SVG 1.1//EN"
 "http://www.w3.org/Graphics/SVG/1.1/DTD/svg11.dtd">
<!-- Generated by graphviz version 2.43.0 (0)
 -->
<!-- Title: inheritancea34f92a824 Pages: 1 -->
<svg width="576pt" height="43pt"
 viewBox="0.00 0.00 576.00 42.62" xmlns="http://www.w3.org/2000/svg" xmlns:xlink="http://www.w3.org/1999/xlink">
<g id="graph0" class="graph" transform="scale(1.5 1.5) rotate(0) translate(4 60)">
<title>inheritancea34f92a824</title>
<polygon fill="white" stroke="transparent" points="-4,4 -4,-60 861,-60 861,4 -4,4"/>
<!-- pyGHDL.dom.DOMMixin -->
<g id="node1" class="node">
<title>pyGHDL.dom.DOMMixin</title>
<g id="a_node1"><a xlink:href="../pyGHDL.dom.html#pyGHDL.dom.DOMMixin" xlink:title="pyGHDL.dom.DOMMixin" target="_top">
<polygon fill="none" stroke="black" stroke-width="0.5" points="589,-56 454,-56 454,-37 589,-37 589,-56"/>
<text text-anchor="middle" x="521.5" y="-44" font-family="Vera Sans, DejaVu Sans, Liberation Sans, Arial, Helvetica, sans" font-size="10.00">pyGHDL.dom.DOMMixin</text>
</a>
</g>
</g>
<!-- pyGHDL.dom.Symbol.EntitySymbol -->
<g id="node2" class="node">
<title>pyGHDL.dom.Symbol.EntitySymbol</title>
<g id="a_node2"><a xlink:href="../pyGHDL/pyGHDL.dom.Symbol.html#pyGHDL.dom.Symbol.EntitySymbol" xlink:title="pyGHDL.dom.Symbol.EntitySymbol" target="_top">
<polygon fill="none" stroke="black" stroke-width="0.5" points="857,-37 668,-37 668,-18 857,-18 857,-37"/>
<text text-anchor="middle" x="762.5" y="-25" font-family="Vera Sans, DejaVu Sans, Liberation Sans, Arial, Helvetica, sans" font-size="10.00">pyGHDL.dom.Symbol.EntitySymbol</text>
</a>
</g>
</g>
<!-- pyGHDL.dom.DOMMixin&#45;&gt;pyGHDL.dom.Symbol.EntitySymbol -->
<g id="edge2" class="edge">
<title>pyGHDL.dom.DOMMixin&#45;&gt;pyGHDL.dom.Symbol.EntitySymbol</title>
<path fill="none" stroke="black" stroke-width="0.5" d="M589.07,-41.21C611.77,-39.4 637.66,-37.35 662.35,-35.38"/>
<polygon fill="black" stroke="black" stroke-width="0.5" points="662.75,-37.11 667.6,-34.96 662.48,-33.62 662.75,-37.11"/>
</g>
<!-- pyVHDLModel.SyntaxModel.EntitySymbol -->
<g id="node3" class="node">
<title>pyVHDLModel.SyntaxModel.EntitySymbol</title>
<polygon fill="none" stroke="black" stroke-width="0.5" points="632,-19 411,-19 411,0 632,0 632,-19"/>
<text text-anchor="middle" x="521.5" y="-7" font-family="Vera Sans, DejaVu Sans, Liberation Sans, Arial, Helvetica, sans" font-size="10.00">pyVHDLModel.SyntaxModel.EntitySymbol</text>
</g>
<!-- pyVHDLModel.SyntaxModel.EntitySymbol&#45;&gt;pyGHDL.dom.Symbol.EntitySymbol -->
<g id="edge1" class="edge">
<title>pyVHDLModel.SyntaxModel.EntitySymbol&#45;&gt;pyGHDL.dom.Symbol.EntitySymbol</title>
<path fill="none" stroke="black" stroke-width="0.5" d="M632.21,-17.76C642.34,-18.53 652.57,-19.3 662.61,-20.05"/>
<polygon fill="black" stroke="black" stroke-width="0.5" points="662.71,-21.81 667.83,-20.45 662.98,-18.32 662.71,-21.81"/>
</g>
<!-- pyVHDLModel.ModelEntity -->
<g id="node4" class="node">
<title>pyVHDLModel.ModelEntity</title>
<g id="a_node4"><a xlink:title="``ModelEntity`` is the base class for all classes in the VHDL language model,">
<polygon fill="none" stroke="black" stroke-width="0.5" points="147,-19 0,-19 0,0 147,0 147,-19"/>
<text text-anchor="middle" x="73.5" y="-7" font-family="Vera Sans, DejaVu Sans, Liberation Sans, Arial, Helvetica, sans" font-size="10.00">pyVHDLModel.ModelEntity</text>
</a>
</g>
</g>
<!-- pyVHDLModel.SyntaxModel.Symbol -->
<g id="node5" class="node">
<title>pyVHDLModel.SyntaxModel.Symbol</title>
<polygon fill="none" stroke="black" stroke-width="0.5" points="375,-19 183,-19 183,0 375,0 375,-19"/>
<text text-anchor="middle" x="279" y="-7" font-family="Vera Sans, DejaVu Sans, Liberation Sans, Arial, Helvetica, sans" font-size="10.00">pyVHDLModel.SyntaxModel.Symbol</text>
</g>
<!-- pyVHDLModel.ModelEntity&#45;&gt;pyVHDLModel.SyntaxModel.Symbol -->
<g id="edge4" class="edge">
<title>pyVHDLModel.ModelEntity&#45;&gt;pyVHDLModel.SyntaxModel.Symbol</title>
<path fill="none" stroke="black" stroke-width="0.5" d="M147.11,-9.5C157.01,-9.5 167.32,-9.5 177.62,-9.5"/>
<polygon fill="black" stroke="black" stroke-width="0.5" points="177.66,-11.25 182.66,-9.5 177.66,-7.75 177.66,-11.25"/>
</g>
<!-- pyVHDLModel.SyntaxModel.Symbol&#45;&gt;pyVHDLModel.SyntaxModel.EntitySymbol -->
<g id="edge3" class="edge">
<title>pyVHDLModel.SyntaxModel.Symbol&#45;&gt;pyVHDLModel.SyntaxModel.EntitySymbol</title>
<path fill="none" stroke="black" stroke-width="0.5" d="M375.05,-9.5C385.09,-9.5 395.38,-9.5 405.62,-9.5"/>
<polygon fill="black" stroke="black" stroke-width="0.5" points="405.64,-11.25 410.64,-9.5 405.64,-7.75 405.64,-11.25"/>
</g>
</g>
</svg>
