<?xml version="1.0" encoding="UTF-8" standalone="no"?>
<!DOCTYPE svg PUBLIC "-//W3C//DTD SVG 1.1//EN"
 "http://www.w3.org/Graphics/SVG/1.1/DTD/svg11.dtd">
<!-- Generated by graphviz version 2.43.0 (0)
 -->
<!-- Title: inheritancec35a4f900e Pages: 1 -->
<svg width="576pt" height="24pt"
 viewBox="0.00 0.00 576.00 23.59" xmlns="http://www.w3.org/2000/svg" xmlns:xlink="http://www.w3.org/1999/xlink">
<g id="graph0" class="graph" transform="scale(2.71 2.71) rotate(0) translate(4 60)">
<title>inheritancec35a4f900e</title>
<polygon fill="white" stroke="transparent" points="-4,4 -4,-60 1559,-60 1559,4 -4,4"/>
<!-- pyGHDL.dom.DOMMixin -->
<g id="node1" class="node">
<title>pyGHDL.dom.DOMMixin</title>
<g id="a_node1"><a xlink:href="../pyGHDL.dom.html#pyGHDL.dom.DOMMixin" xlink:title="pyGHDL.dom.DOMMixin" target="_top">
<polygon fill="none" stroke="black" stroke-width="0.5" points="1205.5,-56 1070.5,-56 1070.5,-37 1205.5,-37 1205.5,-56"/>
<text text-anchor="middle" x="1138" y="-44" font-family="Vera Sans, DejaVu Sans, Liberation Sans, Arial, Helvetica, sans" font-size="10.00">pyGHDL.dom.DOMMixin</text>
</a>
</g>
</g>
<!-- pyGHDL.dom.Expression.SubtractionExpression -->
<g id="node2" class="node">
<title>pyGHDL.dom.Expression.SubtractionExpression</title>
<g id="a_node2"><a xlink:href="../pyGHDL/pyGHDL.dom.Expression.html#pyGHDL.dom.Expression.SubtractionExpression" xlink:title="pyGHDL.dom.Expression.SubtractionExpression" target="_top">
<polygon fill="none" stroke="black" stroke-width="0.5" points="1555,-37 1306,-37 1306,-18 1555,-18 1555,-37"/>
<text text-anchor="middle" x="1430.5" y="-25" font-family="Vera Sans, DejaVu Sans, Liberation Sans, Arial, Helvetica, sans" font-size="10.00">pyGHDL.dom.Expression.SubtractionExpression</text>
</a>
</g>
</g>
<!-- pyGHDL.dom.DOMMixin&#45;&gt;pyGHDL.dom.Expression.SubtractionExpression -->
<g id="edge2" class="edge">
<title>pyGHDL.dom.DOMMixin&#45;&gt;pyGHDL.dom.Expression.SubtractionExpression</title>
<path fill="none" stroke="black" stroke-width="0.5" d="M1205.65,-42.14C1233.87,-40.3 1267.76,-38.08 1300.53,-35.94"/>
<polygon fill="black" stroke="black" stroke-width="0.5" points="1300.9,-37.66 1305.78,-35.59 1300.67,-34.17 1300.9,-37.66"/>
</g>
<!-- pyVHDLModel.SyntaxModel.SubtractionExpression -->
<g id="node3" class="node">
<title>pyVHDLModel.SyntaxModel.SubtractionExpression</title>
<polygon fill="none" stroke="black" stroke-width="0.5" points="1270,-19 1006,-19 1006,0 1270,0 1270,-19"/>
<text text-anchor="middle" x="1138" y="-7" font-family="Vera Sans, DejaVu Sans, Liberation Sans, Arial, Helvetica, sans" font-size="10.00">pyVHDLModel.SyntaxModel.SubtractionExpression</text>
</g>
<!-- pyVHDLModel.SyntaxModel.SubtractionExpression&#45;&gt;pyGHDL.dom.Expression.SubtractionExpression -->
<g id="edge1" class="edge">
<title>pyVHDLModel.SyntaxModel.SubtractionExpression&#45;&gt;pyGHDL.dom.Expression.SubtractionExpression</title>
<path fill="none" stroke="black" stroke-width="0.5" d="M1270.23,-17.63C1280.43,-18.26 1290.74,-18.9 1300.93,-19.53"/>
<polygon fill="black" stroke="black" stroke-width="0.5" points="1300.82,-21.28 1305.92,-19.84 1301.04,-17.79 1300.82,-21.28"/>
</g>
<!-- pyVHDLModel.ModelEntity -->
<g id="node4" class="node">
<title>pyVHDLModel.ModelEntity</title>
<g id="a_node4"><a xlink:title="``ModelEntity`` is the base class for all classes in the VHDL language model,">
<polygon fill="none" stroke="black" stroke-width="0.5" points="147,-19 0,-19 0,0 147,0 147,-19"/>
<text text-anchor="middle" x="73.5" y="-7" font-family="Vera Sans, DejaVu Sans, Liberation Sans, Arial, Helvetica, sans" font-size="10.00">pyVHDLModel.ModelEntity</text>
</a>
</g>
</g>
<!-- pyVHDLModel.SyntaxModel.BaseExpression -->
<g id="node7" class="node">
<title>pyVHDLModel.SyntaxModel.BaseExpression</title>
<g id="a_node7"><a xlink:title="A ``BaseExpression`` is a base&#45;class for all expressions.">
<polygon fill="none" stroke="black" stroke-width="0.5" points="416,-19 183,-19 183,0 416,0 416,-19"/>
<text text-anchor="middle" x="299.5" y="-7" font-family="Vera Sans, DejaVu Sans, Liberation Sans, Arial, Helvetica, sans" font-size="10.00">pyVHDLModel.SyntaxModel.BaseExpression</text>
</a>
</g>
</g>
<!-- pyVHDLModel.ModelEntity&#45;&gt;pyVHDLModel.SyntaxModel.BaseExpression -->
<g id="edge4" class="edge">
<title>pyVHDLModel.ModelEntity&#45;&gt;pyVHDLModel.SyntaxModel.BaseExpression</title>
<path fill="none" stroke="black" stroke-width="0.5" d="M147.23,-9.5C157,-9.5 167.22,-9.5 177.55,-9.5"/>
<polygon fill="black" stroke="black" stroke-width="0.5" points="177.63,-11.25 182.63,-9.5 177.63,-7.75 177.63,-11.25"/>
</g>
<!-- pyVHDLModel.SyntaxModel.AddingExpression -->
<g id="node5" class="node">
<title>pyVHDLModel.SyntaxModel.AddingExpression</title>
<g id="a_node5"><a xlink:title="A ``AddingExpression`` is a base&#45;class for all adding expressions.">
<polygon fill="none" stroke="black" stroke-width="0.5" points="970,-19 728,-19 728,0 970,0 970,-19"/>
<text text-anchor="middle" x="849" y="-7" font-family="Vera Sans, DejaVu Sans, Liberation Sans, Arial, Helvetica, sans" font-size="10.00">pyVHDLModel.SyntaxModel.AddingExpression</text>
</a>
</g>
</g>
<!-- pyVHDLModel.SyntaxModel.AddingExpression&#45;&gt;pyVHDLModel.SyntaxModel.SubtractionExpression -->
<g id="edge6" class="edge">
<title>pyVHDLModel.SyntaxModel.AddingExpression&#45;&gt;pyVHDLModel.SyntaxModel.SubtractionExpression</title>
<path fill="none" stroke="black" stroke-width="0.5" d="M970.05,-9.5C980.22,-9.5 990.54,-9.5 1000.82,-9.5"/>
<polygon fill="black" stroke="black" stroke-width="0.5" points="1000.86,-11.25 1005.86,-9.5 1000.86,-7.75 1000.86,-11.25"/>
</g>
<!-- pyVHDLModel.SyntaxModel.BinaryExpression -->
<g id="node6" class="node">
<title>pyVHDLModel.SyntaxModel.BinaryExpression</title>
<g id="a_node6"><a xlink:title="A ``BinaryExpression`` is a base&#45;class for all binary expressions.">
<polygon fill="none" stroke="black" stroke-width="0.5" points="692,-19 452,-19 452,0 692,0 692,-19"/>
<text text-anchor="middle" x="572" y="-7" font-family="Vera Sans, DejaVu Sans, Liberation Sans, Arial, Helvetica, sans" font-size="10.00">pyVHDLModel.SyntaxModel.BinaryExpression</text>
</a>
</g>
</g>
<!-- pyVHDLModel.SyntaxModel.BinaryExpression&#45;&gt;pyVHDLModel.SyntaxModel.AddingExpression -->
<g id="edge3" class="edge">
<title>pyVHDLModel.SyntaxModel.BinaryExpression&#45;&gt;pyVHDLModel.SyntaxModel.AddingExpression</title>
<path fill="none" stroke="black" stroke-width="0.5" d="M692.02,-9.5C702.25,-9.5 712.62,-9.5 722.89,-9.5"/>
<polygon fill="black" stroke="black" stroke-width="0.5" points="722.93,-11.25 727.93,-9.5 722.93,-7.75 722.93,-11.25"/>
</g>
<!-- pyVHDLModel.SyntaxModel.BaseExpression&#45;&gt;pyVHDLModel.SyntaxModel.BinaryExpression -->
<g id="edge5" class="edge">
<title>pyVHDLModel.SyntaxModel.BaseExpression&#45;&gt;pyVHDLModel.SyntaxModel.BinaryExpression</title>
<path fill="none" stroke="black" stroke-width="0.5" d="M416,-9.5C426.03,-9.5 436.2,-9.5 446.3,-9.5"/>
<polygon fill="black" stroke="black" stroke-width="0.5" points="446.57,-11.25 451.57,-9.5 446.57,-7.75 446.57,-11.25"/>
</g>
</g>
</svg>
