<?xml version="1.0" encoding="UTF-8" standalone="no"?>
<!DOCTYPE svg PUBLIC "-//W3C//DTD SVG 1.1//EN"
 "http://www.w3.org/Graphics/SVG/1.1/DTD/svg11.dtd">
<!-- Generated by graphviz version 2.43.0 (0)
 -->
<!-- Title: inheritance1f24d9df94 Pages: 1 -->
<svg width="576pt" height="37pt"
 viewBox="0.00 0.00 576.00 37.24" xmlns="http://www.w3.org/2000/svg" xmlns:xlink="http://www.w3.org/1999/xlink">
<g id="graph0" class="graph" transform="scale(1.72 1.72) rotate(0) translate(4 60)">
<title>inheritance1f24d9df94</title>
<polygon fill="white" stroke="transparent" points="-4,4 -4,-60 986,-60 986,4 -4,4"/>
<!-- pyGHDL.dom.Concurrent.PortAssociationItem -->
<g id="node1" class="node">
<title>pyGHDL.dom.Concurrent.PortAssociationItem</title>
<g id="a_node1"><a xlink:href="../pyGHDL/pyGHDL.dom.Concurrent.html#pyGHDL.dom.Concurrent.PortAssociationItem" xlink:title="pyGHDL.dom.Concurrent.PortAssociationItem" target="_top">
<polygon fill="none" stroke="black" stroke-width="0.5" points="982,-37 743,-37 743,-18 982,-18 982,-37"/>
<text text-anchor="middle" x="862.5" y="-25" font-family="Vera Sans, DejaVu Sans, Liberation Sans, Arial, Helvetica, sans" font-size="10.00">pyGHDL.dom.Concurrent.PortAssociationItem</text>
</a>
</g>
</g>
<!-- pyVHDLModel.SyntaxModel.PortAssociationItem -->
<g id="node2" class="node">
<title>pyVHDLModel.SyntaxModel.PortAssociationItem</title>
<polygon fill="none" stroke="black" stroke-width="0.5" points="707,-56 453,-56 453,-37 707,-37 707,-56"/>
<text text-anchor="middle" x="580" y="-44" font-family="Vera Sans, DejaVu Sans, Liberation Sans, Arial, Helvetica, sans" font-size="10.00">pyVHDLModel.SyntaxModel.PortAssociationItem</text>
</g>
<!-- pyVHDLModel.SyntaxModel.PortAssociationItem&#45;&gt;pyGHDL.dom.Concurrent.PortAssociationItem -->
<g id="edge1" class="edge">
<title>pyVHDLModel.SyntaxModel.PortAssociationItem&#45;&gt;pyGHDL.dom.Concurrent.PortAssociationItem</title>
<path fill="none" stroke="black" stroke-width="0.5" d="M707.3,-37.94C717.33,-37.27 727.46,-36.58 737.47,-35.9"/>
<polygon fill="black" stroke="black" stroke-width="0.5" points="737.83,-37.63 742.7,-35.55 737.59,-34.14 737.83,-37.63"/>
</g>
<!-- pyGHDL.dom.DOMMixin -->
<g id="node3" class="node">
<title>pyGHDL.dom.DOMMixin</title>
<g id="a_node3"><a xlink:href="../pyGHDL.dom.html#pyGHDL.dom.DOMMixin" xlink:title="pyGHDL.dom.DOMMixin" target="_top">
<polygon fill="none" stroke="black" stroke-width="0.5" points="647.5,-19 512.5,-19 512.5,0 647.5,0 647.5,-19"/>
<text text-anchor="middle" x="580" y="-7" font-family="Vera Sans, DejaVu Sans, Liberation Sans, Arial, Helvetica, sans" font-size="10.00">pyGHDL.dom.DOMMixin</text>
</a>
</g>
</g>
<!-- pyGHDL.dom.DOMMixin&#45;&gt;pyGHDL.dom.Concurrent.PortAssociationItem -->
<g id="edge2" class="edge">
<title>pyGHDL.dom.DOMMixin&#45;&gt;pyGHDL.dom.Concurrent.PortAssociationItem</title>
<path fill="none" stroke="black" stroke-width="0.5" d="M647.83,-13.79C674.71,-15.51 706.61,-17.56 737.45,-19.54"/>
<polygon fill="black" stroke="black" stroke-width="0.5" points="737.68,-21.31 742.79,-19.88 737.91,-17.82 737.68,-21.31"/>
</g>
<!-- pyVHDLModel.ModelEntity -->
<g id="node4" class="node">
<title>pyVHDLModel.ModelEntity</title>
<g id="a_node4"><a xlink:title="``ModelEntity`` is the base class for all classes in the VHDL language model,">
<polygon fill="none" stroke="black" stroke-width="0.5" points="147,-56 0,-56 0,-37 147,-37 147,-56"/>
<text text-anchor="middle" x="73.5" y="-44" font-family="Vera Sans, DejaVu Sans, Liberation Sans, Arial, Helvetica, sans" font-size="10.00">pyVHDLModel.ModelEntity</text>
</a>
</g>
</g>
<!-- pyVHDLModel.SyntaxModel.AssociationItem -->
<g id="node5" class="node">
<title>pyVHDLModel.SyntaxModel.AssociationItem</title>
<polygon fill="none" stroke="black" stroke-width="0.5" points="417,-56 183,-56 183,-37 417,-37 417,-56"/>
<text text-anchor="middle" x="300" y="-44" font-family="Vera Sans, DejaVu Sans, Liberation Sans, Arial, Helvetica, sans" font-size="10.00">pyVHDLModel.SyntaxModel.AssociationItem</text>
</g>
<!-- pyVHDLModel.ModelEntity&#45;&gt;pyVHDLModel.SyntaxModel.AssociationItem -->
<g id="edge3" class="edge">
<title>pyVHDLModel.ModelEntity&#45;&gt;pyVHDLModel.SyntaxModel.AssociationItem</title>
<path fill="none" stroke="black" stroke-width="0.5" d="M147.08,-46.5C156.88,-46.5 167.14,-46.5 177.5,-46.5"/>
<polygon fill="black" stroke="black" stroke-width="0.5" points="177.6,-48.25 182.6,-46.5 177.6,-44.75 177.6,-48.25"/>
</g>
<!-- pyVHDLModel.SyntaxModel.AssociationItem&#45;&gt;pyVHDLModel.SyntaxModel.PortAssociationItem -->
<g id="edge4" class="edge">
<title>pyVHDLModel.SyntaxModel.AssociationItem&#45;&gt;pyVHDLModel.SyntaxModel.PortAssociationItem</title>
<path fill="none" stroke="black" stroke-width="0.5" d="M417.29,-46.5C427.39,-46.5 437.65,-46.5 447.86,-46.5"/>
<polygon fill="black" stroke="black" stroke-width="0.5" points="447.87,-48.25 452.87,-46.5 447.87,-44.75 447.87,-48.25"/>
</g>
</g>
</svg>
