<?xml version="1.0" encoding="UTF-8" standalone="no"?>
<!DOCTYPE svg PUBLIC "-//W3C//DTD SVG 1.1//EN"
 "http://www.w3.org/Graphics/SVG/1.1/DTD/svg11.dtd">
<!-- Generated by graphviz version 2.43.0 (0)
 -->
<!-- Title: inheritance1472ae11f6 Pages: 1 -->
<svg width="576pt" height="57pt"
 viewBox="0.00 0.00 576.00 56.63" xmlns="http://www.w3.org/2000/svg" xmlns:xlink="http://www.w3.org/1999/xlink">
<g id="graph0" class="graph" transform="scale(1.13 1.13) rotate(0) translate(4 60)">
<title>inheritance1472ae11f6</title>
<polygon fill="white" stroke="transparent" points="-4,4 -4,-60 647,-60 647,4 -4,4"/>
<!-- pyGHDL.dom.DOMMixin -->
<g id="node1" class="node">
<title>pyGHDL.dom.DOMMixin</title>
<g id="a_node1"><a xlink:href="../pyGHDL.dom.html#pyGHDL.dom.DOMMixin" xlink:title="pyGHDL.dom.DOMMixin" target="_top">
<polygon fill="none" stroke="black" stroke-width="0.5" points="393.5,-56 258.5,-56 258.5,-37 393.5,-37 393.5,-56"/>
<text text-anchor="middle" x="326" y="-44" font-family="Vera Sans, DejaVu Sans, Liberation Sans, Arial, Helvetica, sans" font-size="10.00">pyGHDL.dom.DOMMixin</text>
</a>
</g>
</g>
<!-- pyGHDL.dom.Names.OpenName -->
<g id="node2" class="node">
<title>pyGHDL.dom.Names.OpenName</title>
<g id="a_node2"><a xlink:href="../pyGHDL/pyGHDL.dom.Names.html#pyGHDL.dom.Names.OpenName" xlink:title="pyGHDL.dom.Names.OpenName" target="_top">
<polygon fill="none" stroke="black" stroke-width="0.5" points="643,-37 467,-37 467,-18 643,-18 643,-37"/>
<text text-anchor="middle" x="555" y="-25" font-family="Vera Sans, DejaVu Sans, Liberation Sans, Arial, Helvetica, sans" font-size="10.00">pyGHDL.dom.Names.OpenName</text>
</a>
</g>
</g>
<!-- pyGHDL.dom.DOMMixin&#45;&gt;pyGHDL.dom.Names.OpenName -->
<g id="edge2" class="edge">
<title>pyGHDL.dom.DOMMixin&#45;&gt;pyGHDL.dom.Names.OpenName</title>
<path fill="none" stroke="black" stroke-width="0.5" d="M393.57,-40.93C414.86,-39.15 438.81,-37.14 461.6,-35.23"/>
<polygon fill="black" stroke="black" stroke-width="0.5" points="461.91,-36.96 466.74,-34.8 461.61,-33.48 461.91,-36.96"/>
</g>
<!-- pyVHDLModel.SyntaxModel.OpenName -->
<g id="node3" class="node">
<title>pyVHDLModel.SyntaxModel.OpenName</title>
<polygon fill="none" stroke="black" stroke-width="0.5" points="431,-19 221,-19 221,0 431,0 431,-19"/>
<text text-anchor="middle" x="326" y="-7" font-family="Vera Sans, DejaVu Sans, Liberation Sans, Arial, Helvetica, sans" font-size="10.00">pyVHDLModel.SyntaxModel.OpenName</text>
</g>
<!-- pyVHDLModel.SyntaxModel.OpenName&#45;&gt;pyGHDL.dom.Names.OpenName -->
<g id="edge1" class="edge">
<title>pyVHDLModel.SyntaxModel.OpenName&#45;&gt;pyGHDL.dom.Names.OpenName</title>
<path fill="none" stroke="black" stroke-width="0.5" d="M431.2,-17.76C441.32,-18.57 451.55,-19.38 461.54,-20.17"/>
<polygon fill="black" stroke="black" stroke-width="0.5" points="461.63,-21.93 466.75,-20.58 461.9,-18.44 461.63,-21.93"/>
</g>
<!-- pyVHDLModel.SyntaxModel.Name -->
<g id="node4" class="node">
<title>pyVHDLModel.SyntaxModel.Name</title>
<g id="a_node4"><a xlink:title="``Name`` is the base class for all *names* in the VHDL language model.">
<polygon fill="none" stroke="black" stroke-width="0.5" points="185,-19 0,-19 0,0 185,0 185,-19"/>
<text text-anchor="middle" x="92.5" y="-7" font-family="Vera Sans, DejaVu Sans, Liberation Sans, Arial, Helvetica, sans" font-size="10.00">pyVHDLModel.SyntaxModel.Name</text>
</a>
</g>
</g>
<!-- pyVHDLModel.SyntaxModel.Name&#45;&gt;pyVHDLModel.SyntaxModel.OpenName -->
<g id="edge3" class="edge">
<title>pyVHDLModel.SyntaxModel.Name&#45;&gt;pyVHDLModel.SyntaxModel.OpenName</title>
<path fill="none" stroke="black" stroke-width="0.5" d="M185.33,-9.5C195.22,-9.5 205.35,-9.5 215.42,-9.5"/>
<polygon fill="black" stroke="black" stroke-width="0.5" points="215.68,-11.25 220.68,-9.5 215.68,-7.75 215.68,-11.25"/>
</g>
</g>
</svg>
