<?xml version="1.0" encoding="UTF-8" standalone="no"?>
<!DOCTYPE svg PUBLIC "-//W3C//DTD SVG 1.1//EN"
 "http://www.w3.org/Graphics/SVG/1.1/DTD/svg11.dtd">
<!-- Generated by graphviz version 2.43.0 (0)
 -->
<!-- Title: inheritancea747b28ffd Pages: 1 -->
<svg width="576pt" height="60pt"
 viewBox="0.00 0.00 576.00 59.86" xmlns="http://www.w3.org/2000/svg" xmlns:xlink="http://www.w3.org/1999/xlink">
<g id="graph0" class="graph" transform="scale(1.37 1.37) rotate(0) translate(4 78)">
<title>inheritancea747b28ffd</title>
<polygon fill="white" stroke="transparent" points="-4,4 -4,-78 785,-78 785,4 -4,4"/>
<!-- pyGHDL.dom.DOMMixin -->
<g id="node1" class="node">
<title>pyGHDL.dom.DOMMixin</title>
<g id="a_node1"><a xlink:href="../pyGHDL.dom.html#pyGHDL.dom.DOMMixin" xlink:title="pyGHDL.dom.DOMMixin" target="_top">
<polygon fill="none" stroke="black" stroke-width="0.5" points="590,-74 455,-74 455,-55 590,-55 590,-74"/>
<text text-anchor="middle" x="522.5" y="-62" font-family="Vera Sans, DejaVu Sans, Liberation Sans, Arial, Helvetica, sans" font-size="10.00">pyGHDL.dom.DOMMixin</text>
</a>
</g>
</g>
<!-- pyGHDL.dom.Object.File -->
<g id="node2" class="node">
<title>pyGHDL.dom.Object.File</title>
<g id="a_node2"><a xlink:href="../pyGHDL/pyGHDL.dom.Object.html#pyGHDL.dom.Object.File" xlink:title="pyGHDL.dom.Object.File" target="_top">
<polygon fill="none" stroke="black" stroke-width="0.5" points="781,-55 645,-55 645,-36 781,-36 781,-55"/>
<text text-anchor="middle" x="713" y="-43" font-family="Vera Sans, DejaVu Sans, Liberation Sans, Arial, Helvetica, sans" font-size="10.00">pyGHDL.dom.Object.File</text>
</a>
</g>
</g>
<!-- pyGHDL.dom.DOMMixin&#45;&gt;pyGHDL.dom.Object.File -->
<g id="edge2" class="edge">
<title>pyGHDL.dom.DOMMixin&#45;&gt;pyGHDL.dom.Object.File</title>
<path fill="none" stroke="black" stroke-width="0.5" d="M590.22,-57.77C606.25,-56.16 623.45,-54.43 639.71,-52.79"/>
<polygon fill="black" stroke="black" stroke-width="0.5" points="639.93,-54.52 644.73,-52.28 639.58,-51.04 639.93,-54.52"/>
</g>
<!-- pyVHDLModel.SyntaxModel.File -->
<g id="node3" class="node">
<title>pyVHDLModel.SyntaxModel.File</title>
<polygon fill="none" stroke="black" stroke-width="0.5" points="609,-37 436,-37 436,-18 609,-18 609,-37"/>
<text text-anchor="middle" x="522.5" y="-25" font-family="Vera Sans, DejaVu Sans, Liberation Sans, Arial, Helvetica, sans" font-size="10.00">pyVHDLModel.SyntaxModel.File</text>
</g>
<!-- pyVHDLModel.SyntaxModel.File&#45;&gt;pyGHDL.dom.Object.File -->
<g id="edge1" class="edge">
<title>pyVHDLModel.SyntaxModel.File&#45;&gt;pyGHDL.dom.Object.File</title>
<path fill="none" stroke="black" stroke-width="0.5" d="M609.2,-35.68C619.39,-36.66 629.71,-37.64 639.68,-38.59"/>
<polygon fill="black" stroke="black" stroke-width="0.5" points="639.72,-40.36 644.86,-39.09 640.05,-36.87 639.72,-40.36"/>
</g>
<!-- pyVHDLModel.ModelEntity -->
<g id="node4" class="node">
<title>pyVHDLModel.ModelEntity</title>
<g id="a_node4"><a xlink:title="``ModelEntity`` is the base class for all classes in the VHDL language model,">
<polygon fill="none" stroke="black" stroke-width="0.5" points="169.5,-56 22.5,-56 22.5,-37 169.5,-37 169.5,-56"/>
<text text-anchor="middle" x="96" y="-44" font-family="Vera Sans, DejaVu Sans, Liberation Sans, Arial, Helvetica, sans" font-size="10.00">pyVHDLModel.ModelEntity</text>
</a>
</g>
</g>
<!-- pyVHDLModel.SyntaxModel.Obj -->
<g id="node6" class="node">
<title>pyVHDLModel.SyntaxModel.Obj</title>
<polygon fill="none" stroke="black" stroke-width="0.5" points="400,-37 228,-37 228,-18 400,-18 400,-37"/>
<text text-anchor="middle" x="314" y="-25" font-family="Vera Sans, DejaVu Sans, Liberation Sans, Arial, Helvetica, sans" font-size="10.00">pyVHDLModel.SyntaxModel.Obj</text>
</g>
<!-- pyVHDLModel.ModelEntity&#45;&gt;pyVHDLModel.SyntaxModel.Obj -->
<g id="edge4" class="edge">
<title>pyVHDLModel.ModelEntity&#45;&gt;pyVHDLModel.SyntaxModel.Obj</title>
<path fill="none" stroke="black" stroke-width="0.5" d="M169.53,-40.12C186.67,-38.61 205.15,-36.99 222.96,-35.42"/>
<polygon fill="black" stroke="black" stroke-width="0.5" points="223.13,-37.16 227.96,-34.98 222.83,-33.68 223.13,-37.16"/>
</g>
<!-- pyVHDLModel.MultipleNamedEntity -->
<g id="node5" class="node">
<title>pyVHDLModel.MultipleNamedEntity</title>
<g id="a_node5"><a xlink:title="A ``MultipleNamedEntity`` is a mixin class for all VHDL entities that declare">
<polygon fill="none" stroke="black" stroke-width="0.5" points="192,-19 0,-19 0,0 192,0 192,-19"/>
<text text-anchor="middle" x="96" y="-7" font-family="Vera Sans, DejaVu Sans, Liberation Sans, Arial, Helvetica, sans" font-size="10.00">pyVHDLModel.MultipleNamedEntity</text>
</a>
</g>
</g>
<!-- pyVHDLModel.MultipleNamedEntity&#45;&gt;pyVHDLModel.SyntaxModel.Obj -->
<g id="edge5" class="edge">
<title>pyVHDLModel.MultipleNamedEntity&#45;&gt;pyVHDLModel.SyntaxModel.Obj</title>
<path fill="none" stroke="black" stroke-width="0.5" d="M192.06,-17.42C202.18,-18.26 212.45,-19.12 222.51,-19.96"/>
<polygon fill="black" stroke="black" stroke-width="0.5" points="222.63,-21.73 227.76,-20.4 222.92,-18.24 222.63,-21.73"/>
</g>
<!-- pyVHDLModel.SyntaxModel.Obj&#45;&gt;pyVHDLModel.SyntaxModel.File -->
<g id="edge3" class="edge">
<title>pyVHDLModel.SyntaxModel.Obj&#45;&gt;pyVHDLModel.SyntaxModel.File</title>
<path fill="none" stroke="black" stroke-width="0.5" d="M400.18,-27.5C410.21,-27.5 420.48,-27.5 430.58,-27.5"/>
<polygon fill="black" stroke="black" stroke-width="0.5" points="430.85,-29.25 435.85,-27.5 430.85,-25.75 430.85,-29.25"/>
</g>
</g>
</svg>
