<?xml version="1.0" encoding="UTF-8" standalone="no"?>
<!DOCTYPE svg PUBLIC "-//W3C//DTD SVG 1.1//EN"
 "http://www.w3.org/Graphics/SVG/1.1/DTD/svg11.dtd">
<!-- Generated by graphviz version 2.43.0 (0)
 -->
<!-- Title: inheritancef3ee9220c6 Pages: 1 -->
<svg width="576pt" height="78pt"
 viewBox="0.00 0.00 576.00 78.33" xmlns="http://www.w3.org/2000/svg" xmlns:xlink="http://www.w3.org/1999/xlink">
<g id="graph0" class="graph" transform="scale(1.05 1.05) rotate(0) translate(4 78)">
<title>inheritancef3ee9220c6</title>
<polygon fill="white" stroke="transparent" points="-4,4 -4,-78 599,-78 599,4 -4,4"/>
<!-- pyGHDL.dom.Attribute.Attribute -->
<g id="node1" class="node">
<title>pyGHDL.dom.Attribute.Attribute</title>
<g id="a_node1"><a xlink:href="../pyGHDL/pyGHDL.dom.Attribute.html#pyGHDL.dom.Attribute.Attribute" xlink:title="pyGHDL.dom.Attribute.Attribute" target="_top">
<polygon fill="none" stroke="black" stroke-width="0.5" points="595,-37 422,-37 422,-18 595,-18 595,-37"/>
<text text-anchor="middle" x="508.5" y="-25" font-family="Vera Sans, DejaVu Sans, Liberation Sans, Arial, Helvetica, sans" font-size="10.00">pyGHDL.dom.Attribute.Attribute</text>
</a>
</g>
</g>
<!-- pyVHDLModel.SyntaxModel.Attribute -->
<g id="node2" class="node">
<title>pyVHDLModel.SyntaxModel.Attribute</title>
<polygon fill="none" stroke="black" stroke-width="0.5" points="386,-56 188,-56 188,-37 386,-37 386,-56"/>
<text text-anchor="middle" x="287" y="-44" font-family="Vera Sans, DejaVu Sans, Liberation Sans, Arial, Helvetica, sans" font-size="10.00">pyVHDLModel.SyntaxModel.Attribute</text>
</g>
<!-- pyVHDLModel.SyntaxModel.Attribute&#45;&gt;pyGHDL.dom.Attribute.Attribute -->
<g id="edge1" class="edge">
<title>pyVHDLModel.SyntaxModel.Attribute&#45;&gt;pyGHDL.dom.Attribute.Attribute</title>
<path fill="none" stroke="black" stroke-width="0.5" d="M386.19,-38C396.3,-37.13 406.54,-36.24 416.57,-35.37"/>
<polygon fill="black" stroke="black" stroke-width="0.5" points="416.96,-37.09 421.79,-34.92 416.66,-33.61 416.96,-37.09"/>
</g>
<!-- pyGHDL.dom.DOMMixin -->
<g id="node3" class="node">
<title>pyGHDL.dom.DOMMixin</title>
<g id="a_node3"><a xlink:href="../pyGHDL.dom.html#pyGHDL.dom.DOMMixin" xlink:title="pyGHDL.dom.DOMMixin" target="_top">
<polygon fill="none" stroke="black" stroke-width="0.5" points="354.5,-19 219.5,-19 219.5,0 354.5,0 354.5,-19"/>
<text text-anchor="middle" x="287" y="-7" font-family="Vera Sans, DejaVu Sans, Liberation Sans, Arial, Helvetica, sans" font-size="10.00">pyGHDL.dom.DOMMixin</text>
</a>
</g>
</g>
<!-- pyGHDL.dom.DOMMixin&#45;&gt;pyGHDL.dom.Attribute.Attribute -->
<g id="edge2" class="edge">
<title>pyGHDL.dom.DOMMixin&#45;&gt;pyGHDL.dom.Attribute.Attribute</title>
<path fill="none" stroke="black" stroke-width="0.5" d="M354.75,-14.97C374.37,-16.58 396.16,-18.37 417,-20.08"/>
<polygon fill="black" stroke="black" stroke-width="0.5" points="416.87,-21.82 421.99,-20.49 417.15,-18.34 416.87,-21.82"/>
</g>
<!-- pyVHDLModel.ModelEntity -->
<g id="node4" class="node">
<title>pyVHDLModel.ModelEntity</title>
<g id="a_node4"><a xlink:title="``ModelEntity`` is the base class for all classes in the VHDL language model,">
<polygon fill="none" stroke="black" stroke-width="0.5" points="149.5,-74 2.5,-74 2.5,-55 149.5,-55 149.5,-74"/>
<text text-anchor="middle" x="76" y="-62" font-family="Vera Sans, DejaVu Sans, Liberation Sans, Arial, Helvetica, sans" font-size="10.00">pyVHDLModel.ModelEntity</text>
</a>
</g>
</g>
<!-- pyVHDLModel.ModelEntity&#45;&gt;pyVHDLModel.SyntaxModel.Attribute -->
<g id="edge3" class="edge">
<title>pyVHDLModel.ModelEntity&#45;&gt;pyVHDLModel.SyntaxModel.Attribute</title>
<path fill="none" stroke="black" stroke-width="0.5" d="M149.51,-58.25C160.25,-57.33 171.48,-56.36 182.7,-55.4"/>
<polygon fill="black" stroke="black" stroke-width="0.5" points="183.01,-57.13 187.85,-54.95 182.71,-53.64 183.01,-57.13"/>
</g>
<!-- pyVHDLModel.NamedEntity -->
<g id="node5" class="node">
<title>pyVHDLModel.NamedEntity</title>
<g id="a_node5"><a xlink:title="A ``NamedEntity`` is a mixin class for all VHDL entities that have identifiers.">
<polygon fill="none" stroke="black" stroke-width="0.5" points="152,-37 0,-37 0,-18 152,-18 152,-37"/>
<text text-anchor="middle" x="76" y="-25" font-family="Vera Sans, DejaVu Sans, Liberation Sans, Arial, Helvetica, sans" font-size="10.00">pyVHDLModel.NamedEntity</text>
</a>
</g>
</g>
<!-- pyVHDLModel.NamedEntity&#45;&gt;pyVHDLModel.SyntaxModel.Attribute -->
<g id="edge4" class="edge">
<title>pyVHDLModel.NamedEntity&#45;&gt;pyVHDLModel.SyntaxModel.Attribute</title>
<path fill="none" stroke="black" stroke-width="0.5" d="M152.16,-34.33C162.12,-35.24 172.46,-36.18 182.78,-37.12"/>
<polygon fill="black" stroke="black" stroke-width="0.5" points="182.71,-38.87 187.85,-37.58 183.03,-35.38 182.71,-38.87"/>
</g>
</g>
</svg>
