<?xml version="1.0" encoding="UTF-8" standalone="no"?>
<!DOCTYPE svg PUBLIC "-//W3C//DTD SVG 1.1//EN"
 "http://www.w3.org/Graphics/SVG/1.1/DTD/svg11.dtd">
<!-- Generated by graphviz version 2.43.0 (0)
 -->
<!-- Title: inheritancead6e118d80 Pages: 1 -->
<svg width="576pt" height="46pt"
 viewBox="0.00 0.00 576.00 45.53" xmlns="http://www.w3.org/2000/svg" xmlns:xlink="http://www.w3.org/1999/xlink">
<g id="graph0" class="graph" transform="scale(3.03 3.03) rotate(0) translate(4 134)">
<title>inheritancead6e118d80</title>
<polygon fill="white" stroke="transparent" points="-4,4 -4,-134 1742,-134 1742,4 -4,4"/>
<!-- pyGHDL.dom.DOMMixin -->
<g id="node1" class="node">
<title>pyGHDL.dom.DOMMixin</title>
<g id="a_node1"><a xlink:href="../pyGHDL.dom.html#pyGHDL.dom.DOMMixin" xlink:title="pyGHDL.dom.DOMMixin" target="_top">
<polygon fill="none" stroke="black" stroke-width="0.5" points="1299,-93 1164,-93 1164,-74 1299,-74 1299,-93"/>
<text text-anchor="middle" x="1231.5" y="-81" font-family="Vera Sans, DejaVu Sans, Liberation Sans, Arial, Helvetica, sans" font-size="10.00">pyGHDL.dom.DOMMixin</text>
</a>
</g>
</g>
<!-- pyGHDL.dom.InterfaceItem.ParameterConstantInterfaceItem -->
<g id="node2" class="node">
<title>pyGHDL.dom.InterfaceItem.ParameterConstantInterfaceItem</title>
<g id="a_node2"><a xlink:href="../pyGHDL/pyGHDL.dom.InterfaceItem.html#pyGHDL.dom.InterfaceItem.ParameterConstantInterfaceItem" xlink:title="pyGHDL.dom.InterfaceItem.ParameterConstantInterfaceItem" target="_top">
<polygon fill="none" stroke="black" stroke-width="0.5" points="1738,-74 1425,-74 1425,-55 1738,-55 1738,-74"/>
<text text-anchor="middle" x="1581.5" y="-62" font-family="Vera Sans, DejaVu Sans, Liberation Sans, Arial, Helvetica, sans" font-size="10.00">pyGHDL.dom.InterfaceItem.ParameterConstantInterfaceItem</text>
</a>
</g>
</g>
<!-- pyGHDL.dom.DOMMixin&#45;&gt;pyGHDL.dom.InterfaceItem.ParameterConstantInterfaceItem -->
<g id="edge2" class="edge">
<title>pyGHDL.dom.DOMMixin&#45;&gt;pyGHDL.dom.InterfaceItem.ParameterConstantInterfaceItem</title>
<path fill="none" stroke="black" stroke-width="0.5" d="M1299.19,-79.86C1333.61,-77.98 1377.22,-75.6 1419.77,-73.28"/>
<polygon fill="black" stroke="black" stroke-width="0.5" points="1420.06,-75.01 1424.95,-72.99 1419.87,-71.52 1420.06,-75.01"/>
</g>
<!-- pyVHDLModel.SyntaxModel.ParameterConstantInterfaceItem -->
<g id="node3" class="node">
<title>pyVHDLModel.SyntaxModel.ParameterConstantInterfaceItem</title>
<polygon fill="none" stroke="black" stroke-width="0.5" points="1389,-56 1074,-56 1074,-37 1389,-37 1389,-56"/>
<text text-anchor="middle" x="1231.5" y="-44" font-family="Vera Sans, DejaVu Sans, Liberation Sans, Arial, Helvetica, sans" font-size="10.00">pyVHDLModel.SyntaxModel.ParameterConstantInterfaceItem</text>
</g>
<!-- pyVHDLModel.SyntaxModel.ParameterConstantInterfaceItem&#45;&gt;pyGHDL.dom.InterfaceItem.ParameterConstantInterfaceItem -->
<g id="edge1" class="edge">
<title>pyVHDLModel.SyntaxModel.ParameterConstantInterfaceItem&#45;&gt;pyGHDL.dom.InterfaceItem.ParameterConstantInterfaceItem</title>
<path fill="none" stroke="black" stroke-width="0.5" d="M1389.19,-54.6C1399.26,-55.13 1409.4,-55.65 1419.48,-56.17"/>
<polygon fill="black" stroke="black" stroke-width="0.5" points="1419.66,-57.93 1424.75,-56.44 1419.84,-54.44 1419.66,-57.93"/>
</g>
<!-- pyVHDLModel.ModelEntity -->
<g id="node4" class="node">
<title>pyVHDLModel.ModelEntity</title>
<g id="a_node4"><a xlink:title="``ModelEntity`` is the base class for all classes in the VHDL language model,">
<polygon fill="none" stroke="black" stroke-width="0.5" points="169.5,-130 22.5,-130 22.5,-111 169.5,-111 169.5,-130"/>
<text text-anchor="middle" x="96" y="-118" font-family="Vera Sans, DejaVu Sans, Liberation Sans, Arial, Helvetica, sans" font-size="10.00">pyVHDLModel.ModelEntity</text>
</a>
</g>
</g>
<!-- pyVHDLModel.SyntaxModel.Obj -->
<g id="node7" class="node">
<title>pyVHDLModel.SyntaxModel.Obj</title>
<polygon fill="none" stroke="black" stroke-width="0.5" points="400,-111 228,-111 228,-92 400,-92 400,-111"/>
<text text-anchor="middle" x="314" y="-99" font-family="Vera Sans, DejaVu Sans, Liberation Sans, Arial, Helvetica, sans" font-size="10.00">pyVHDLModel.SyntaxModel.Obj</text>
</g>
<!-- pyVHDLModel.ModelEntity&#45;&gt;pyVHDLModel.SyntaxModel.Obj -->
<g id="edge6" class="edge">
<title>pyVHDLModel.ModelEntity&#45;&gt;pyVHDLModel.SyntaxModel.Obj</title>
<path fill="none" stroke="black" stroke-width="0.5" d="M169.53,-114.12C186.67,-112.61 205.15,-110.99 222.96,-109.42"/>
<polygon fill="black" stroke="black" stroke-width="0.5" points="223.13,-111.16 227.96,-108.98 222.83,-107.68 223.13,-111.16"/>
</g>
<!-- pyVHDLModel.MultipleNamedEntity -->
<g id="node5" class="node">
<title>pyVHDLModel.MultipleNamedEntity</title>
<g id="a_node5"><a xlink:title="A ``MultipleNamedEntity`` is a mixin class for all VHDL entities that declare">
<polygon fill="none" stroke="black" stroke-width="0.5" points="192,-93 0,-93 0,-74 192,-74 192,-93"/>
<text text-anchor="middle" x="96" y="-81" font-family="Vera Sans, DejaVu Sans, Liberation Sans, Arial, Helvetica, sans" font-size="10.00">pyVHDLModel.MultipleNamedEntity</text>
</a>
</g>
</g>
<!-- pyVHDLModel.MultipleNamedEntity&#45;&gt;pyVHDLModel.SyntaxModel.Obj -->
<g id="edge7" class="edge">
<title>pyVHDLModel.MultipleNamedEntity&#45;&gt;pyVHDLModel.SyntaxModel.Obj</title>
<path fill="none" stroke="black" stroke-width="0.5" d="M192.06,-91.42C202.18,-92.26 212.45,-93.12 222.51,-93.96"/>
<polygon fill="black" stroke="black" stroke-width="0.5" points="222.63,-95.73 227.76,-94.4 222.92,-92.24 222.63,-95.73"/>
</g>
<!-- pyVHDLModel.SyntaxModel.BaseConstant -->
<g id="node6" class="node">
<title>pyVHDLModel.SyntaxModel.BaseConstant</title>
<polygon fill="none" stroke="black" stroke-width="0.5" points="694.5,-111 471.5,-111 471.5,-92 694.5,-92 694.5,-111"/>
<text text-anchor="middle" x="583" y="-99" font-family="Vera Sans, DejaVu Sans, Liberation Sans, Arial, Helvetica, sans" font-size="10.00">pyVHDLModel.SyntaxModel.BaseConstant</text>
</g>
<!-- pyVHDLModel.SyntaxModel.Constant -->
<g id="node8" class="node">
<title>pyVHDLModel.SyntaxModel.Constant</title>
<polygon fill="none" stroke="black" stroke-width="0.5" points="1001.5,-93 802.5,-93 802.5,-74 1001.5,-74 1001.5,-93"/>
<text text-anchor="middle" x="902" y="-81" font-family="Vera Sans, DejaVu Sans, Liberation Sans, Arial, Helvetica, sans" font-size="10.00">pyVHDLModel.SyntaxModel.Constant</text>
</g>
<!-- pyVHDLModel.SyntaxModel.BaseConstant&#45;&gt;pyVHDLModel.SyntaxModel.Constant -->
<g id="edge4" class="edge">
<title>pyVHDLModel.SyntaxModel.BaseConstant&#45;&gt;pyVHDLModel.SyntaxModel.Constant</title>
<path fill="none" stroke="black" stroke-width="0.5" d="M694.87,-95.2C728.09,-93.32 764.38,-91.26 797.13,-89.4"/>
<polygon fill="black" stroke="black" stroke-width="0.5" points="797.46,-91.13 802.36,-89.1 797.26,-87.64 797.46,-91.13"/>
</g>
<!-- pyVHDLModel.SyntaxModel.Obj&#45;&gt;pyVHDLModel.SyntaxModel.BaseConstant -->
<g id="edge3" class="edge">
<title>pyVHDLModel.SyntaxModel.Obj&#45;&gt;pyVHDLModel.SyntaxModel.BaseConstant</title>
<path fill="none" stroke="black" stroke-width="0.5" d="M400.21,-101.5C421.21,-101.5 444.05,-101.5 466.23,-101.5"/>
<polygon fill="black" stroke="black" stroke-width="0.5" points="466.25,-103.25 471.25,-101.5 466.25,-99.75 466.25,-103.25"/>
</g>
<!-- pyVHDLModel.SyntaxModel.Constant&#45;&gt;pyVHDLModel.SyntaxModel.ParameterConstantInterfaceItem -->
<g id="edge8" class="edge">
<title>pyVHDLModel.SyntaxModel.Constant&#45;&gt;pyVHDLModel.SyntaxModel.ParameterConstantInterfaceItem</title>
<path fill="none" stroke="black" stroke-width="0.5" d="M987.34,-73.97C1034.43,-68.65 1093.07,-62.03 1140.97,-56.61"/>
<polygon fill="black" stroke="black" stroke-width="0.5" points="1141.39,-58.33 1146.16,-56.03 1141,-54.85 1141.39,-58.33"/>
</g>
<!-- pyVHDLModel.SyntaxModel.WithDefaultExpressionMixin -->
<g id="node9" class="node">
<title>pyVHDLModel.SyntaxModel.WithDefaultExpressionMixin</title>
<g id="a_node9"><a xlink:title="A ``WithDefaultExpression`` is a mixin class for all objects declarations">
<polygon fill="none" stroke="black" stroke-width="0.5" points="730,-74 436,-74 436,-55 730,-55 730,-74"/>
<text text-anchor="middle" x="583" y="-62" font-family="Vera Sans, DejaVu Sans, Liberation Sans, Arial, Helvetica, sans" font-size="10.00">pyVHDLModel.SyntaxModel.WithDefaultExpressionMixin</text>
</a>
</g>
</g>
<!-- pyVHDLModel.SyntaxModel.WithDefaultExpressionMixin&#45;&gt;pyVHDLModel.SyntaxModel.Constant -->
<g id="edge5" class="edge">
<title>pyVHDLModel.SyntaxModel.WithDefaultExpressionMixin&#45;&gt;pyVHDLModel.SyntaxModel.Constant</title>
<path fill="none" stroke="black" stroke-width="0.5" d="M730.44,-73.28C752.96,-74.63 775.82,-76 797.17,-77.28"/>
<polygon fill="black" stroke="black" stroke-width="0.5" points="797.18,-79.03 802.27,-77.58 797.38,-75.54 797.18,-79.03"/>
</g>
<!-- pyVHDLModel.SyntaxModel.InterfaceItem -->
<g id="node10" class="node">
<title>pyVHDLModel.SyntaxModel.InterfaceItem</title>
<g id="a_node10"><a xlink:title="An ``InterfaceItem`` is a base&#45;class for all mixin&#45;classes for all interface">
<polygon fill="none" stroke="black" stroke-width="0.5" points="693.5,-19 472.5,-19 472.5,0 693.5,0 693.5,-19"/>
<text text-anchor="middle" x="583" y="-7" font-family="Vera Sans, DejaVu Sans, Liberation Sans, Arial, Helvetica, sans" font-size="10.00">pyVHDLModel.SyntaxModel.InterfaceItem</text>
</a>
</g>
</g>
<!-- pyVHDLModel.SyntaxModel.ParameterInterfaceItem -->
<g id="node12" class="node">
<title>pyVHDLModel.SyntaxModel.ParameterInterfaceItem</title>
<g id="a_node12"><a xlink:title="A ``ParameterInterfaceItem`` is a mixin class for all parameter interface items.">
<polygon fill="none" stroke="black" stroke-width="0.5" points="1038,-19 766,-19 766,0 1038,0 1038,-19"/>
<text text-anchor="middle" x="902" y="-7" font-family="Vera Sans, DejaVu Sans, Liberation Sans, Arial, Helvetica, sans" font-size="10.00">pyVHDLModel.SyntaxModel.ParameterInterfaceItem</text>
</a>
</g>
</g>
<!-- pyVHDLModel.SyntaxModel.InterfaceItem&#45;&gt;pyVHDLModel.SyntaxModel.ParameterInterfaceItem -->
<g id="edge11" class="edge">
<title>pyVHDLModel.SyntaxModel.InterfaceItem&#45;&gt;pyVHDLModel.SyntaxModel.ParameterInterfaceItem</title>
<path fill="none" stroke="black" stroke-width="0.5" d="M693.54,-9.5C715.25,-9.5 738.32,-9.5 760.89,-9.5"/>
<polygon fill="black" stroke="black" stroke-width="0.5" points="761,-11.25 766,-9.5 761,-7.75 761,-11.25"/>
</g>
<!-- pyVHDLModel.SyntaxModel.InterfaceItemWithMode -->
<g id="node11" class="node">
<title>pyVHDLModel.SyntaxModel.InterfaceItemWithMode</title>
<g id="a_node11"><a xlink:title="An ``InterfaceItemWithMode`` is a mixin&#45;class to provide a ``Mode`` to">
<polygon fill="none" stroke="black" stroke-width="0.5" points="1037.5,-56 766.5,-56 766.5,-37 1037.5,-37 1037.5,-56"/>
<text text-anchor="middle" x="902" y="-44" font-family="Vera Sans, DejaVu Sans, Liberation Sans, Arial, Helvetica, sans" font-size="10.00">pyVHDLModel.SyntaxModel.InterfaceItemWithMode</text>
</a>
</g>
</g>
<!-- pyVHDLModel.SyntaxModel.InterfaceItemWithMode&#45;&gt;pyVHDLModel.SyntaxModel.ParameterConstantInterfaceItem -->
<g id="edge10" class="edge">
<title>pyVHDLModel.SyntaxModel.InterfaceItemWithMode&#45;&gt;pyVHDLModel.SyntaxModel.ParameterConstantInterfaceItem</title>
<path fill="none" stroke="black" stroke-width="0.5" d="M1037.62,-46.5C1047.93,-46.5 1058.4,-46.5 1068.86,-46.5"/>
<polygon fill="black" stroke="black" stroke-width="0.5" points="1068.99,-48.25 1073.99,-46.5 1068.99,-44.75 1068.99,-48.25"/>
</g>
<!-- pyVHDLModel.SyntaxModel.ParameterInterfaceItem&#45;&gt;pyVHDLModel.SyntaxModel.ParameterConstantInterfaceItem -->
<g id="edge9" class="edge">
<title>pyVHDLModel.SyntaxModel.ParameterInterfaceItem&#45;&gt;pyVHDLModel.SyntaxModel.ParameterConstantInterfaceItem</title>
<path fill="none" stroke="black" stroke-width="0.5" d="M987.34,-19.03C1034.43,-24.35 1093.07,-30.97 1140.97,-36.39"/>
<polygon fill="black" stroke="black" stroke-width="0.5" points="1141,-38.15 1146.16,-36.97 1141.39,-34.67 1141,-38.15"/>
</g>
</g>
</svg>
