<?xml version="1.0" encoding="UTF-8" standalone="no"?>
<!DOCTYPE svg PUBLIC "-//W3C//DTD SVG 1.1//EN"
 "http://www.w3.org/Graphics/SVG/1.1/DTD/svg11.dtd">
<!-- Generated by graphviz version 2.43.0 (0)
 -->
<!-- Title: inheritancea27ca74e42 Pages: 1 -->
<svg width="576pt" height="54pt"
 viewBox="0.00 0.00 576.00 54.40" xmlns="http://www.w3.org/2000/svg" xmlns:xlink="http://www.w3.org/1999/xlink">
<g id="graph0" class="graph" transform="scale(2.19 2.19) rotate(0) translate(4 115)">
<title>inheritancea27ca74e42</title>
<polygon fill="white" stroke="transparent" points="-4,4 -4,-115 1256,-115 1256,4 -4,4"/>
<!-- pyGHDL.dom.Sequential.IfBranch -->
<g id="node1" class="node">
<title>pyGHDL.dom.Sequential.IfBranch</title>
<g id="a_node1"><a xlink:href="../pyGHDL/pyGHDL.dom.Sequential.html#pyGHDL.dom.Sequential.IfBranch" xlink:title="pyGHDL.dom.Sequential.IfBranch" target="_top">
<polygon fill="none" stroke="black" stroke-width="0.5" points="1252,-55 1073,-55 1073,-36 1252,-36 1252,-55"/>
<text text-anchor="middle" x="1162.5" y="-43" font-family="Vera Sans, DejaVu Sans, Liberation Sans, Arial, Helvetica, sans" font-size="10.00">pyGHDL.dom.Sequential.IfBranch</text>
</a>
</g>
</g>
<!-- pyVHDLModel.SyntaxModel.IfBranch -->
<g id="node2" class="node">
<title>pyVHDLModel.SyntaxModel.IfBranch</title>
<polygon fill="none" stroke="black" stroke-width="0.5" points="1037,-55 841,-55 841,-36 1037,-36 1037,-55"/>
<text text-anchor="middle" x="939" y="-43" font-family="Vera Sans, DejaVu Sans, Liberation Sans, Arial, Helvetica, sans" font-size="10.00">pyVHDLModel.SyntaxModel.IfBranch</text>
</g>
<!-- pyVHDLModel.SyntaxModel.IfBranch&#45;&gt;pyGHDL.dom.Sequential.IfBranch -->
<g id="edge1" class="edge">
<title>pyVHDLModel.SyntaxModel.IfBranch&#45;&gt;pyGHDL.dom.Sequential.IfBranch</title>
<path fill="none" stroke="black" stroke-width="0.5" d="M1037.15,-45.5C1047.25,-45.5 1057.5,-45.5 1067.56,-45.5"/>
<polygon fill="black" stroke="black" stroke-width="0.5" points="1067.8,-47.25 1072.8,-45.5 1067.8,-43.75 1067.8,-47.25"/>
</g>
<!-- pyVHDLModel.ModelEntity -->
<g id="node3" class="node">
<title>pyVHDLModel.ModelEntity</title>
<g id="a_node3"><a xlink:title="``ModelEntity`` is the base class for all classes in the VHDL language model,">
<polygon fill="none" stroke="black" stroke-width="0.5" points="483.5,-111 336.5,-111 336.5,-92 483.5,-92 483.5,-111"/>
<text text-anchor="middle" x="410" y="-99" font-family="Vera Sans, DejaVu Sans, Liberation Sans, Arial, Helvetica, sans" font-size="10.00">pyVHDLModel.ModelEntity</text>
</a>
</g>
</g>
<!-- pyVHDLModel.SyntaxModel.Branch -->
<g id="node4" class="node">
<title>pyVHDLModel.SyntaxModel.Branch</title>
<g id="a_node4"><a xlink:title="A ``Branch`` is a base&#45;class for all branches in a if statement.">
<polygon fill="none" stroke="black" stroke-width="0.5" points="788,-74 599,-74 599,-55 788,-55 788,-74"/>
<text text-anchor="middle" x="693.5" y="-62" font-family="Vera Sans, DejaVu Sans, Liberation Sans, Arial, Helvetica, sans" font-size="10.00">pyVHDLModel.SyntaxModel.Branch</text>
</a>
</g>
</g>
<!-- pyVHDLModel.ModelEntity&#45;&gt;pyVHDLModel.SyntaxModel.Branch -->
<g id="edge2" class="edge">
<title>pyVHDLModel.ModelEntity&#45;&gt;pyVHDLModel.SyntaxModel.Branch</title>
<path fill="none" stroke="black" stroke-width="0.5" d="M483.49,-91.97C523.72,-86.68 573.77,-80.11 614.81,-74.71"/>
<polygon fill="black" stroke="black" stroke-width="0.5" points="615.03,-76.45 619.76,-74.06 614.58,-72.98 615.03,-76.45"/>
</g>
<!-- pyVHDLModel.SyntaxModel.Branch&#45;&gt;pyVHDLModel.SyntaxModel.IfBranch -->
<g id="edge4" class="edge">
<title>pyVHDLModel.SyntaxModel.Branch&#45;&gt;pyVHDLModel.SyntaxModel.IfBranch</title>
<path fill="none" stroke="black" stroke-width="0.5" d="M788.3,-57.18C803.7,-55.98 819.74,-54.73 835.35,-53.51"/>
<polygon fill="black" stroke="black" stroke-width="0.5" points="835.78,-55.23 840.63,-53.1 835.5,-51.74 835.78,-55.23"/>
</g>
<!-- pyVHDLModel.SyntaxModel.SequentialStatements -->
<g id="node5" class="node">
<title>pyVHDLModel.SyntaxModel.SequentialStatements</title>
<polygon fill="none" stroke="black" stroke-width="0.5" points="541.5,-74 278.5,-74 278.5,-55 541.5,-55 541.5,-74"/>
<text text-anchor="middle" x="410" y="-62" font-family="Vera Sans, DejaVu Sans, Liberation Sans, Arial, Helvetica, sans" font-size="10.00">pyVHDLModel.SyntaxModel.SequentialStatements</text>
</g>
<!-- pyVHDLModel.SyntaxModel.SequentialStatements&#45;&gt;pyVHDLModel.SyntaxModel.Branch -->
<g id="edge3" class="edge">
<title>pyVHDLModel.SyntaxModel.SequentialStatements&#45;&gt;pyVHDLModel.SyntaxModel.Branch</title>
<path fill="none" stroke="black" stroke-width="0.5" d="M541.86,-64.5C559.3,-64.5 576.94,-64.5 593.7,-64.5"/>
<polygon fill="black" stroke="black" stroke-width="0.5" points="593.87,-66.25 598.87,-64.5 593.87,-62.75 593.87,-66.25"/>
</g>
<!-- pyVHDLModel.SyntaxModel.MixinIfBranch -->
<g id="node6" class="node">
<title>pyVHDLModel.SyntaxModel.MixinIfBranch</title>
<g id="a_node6"><a xlink:title="A ``BaseIfBranch`` is a mixin&#45;class for all if&#45;branches.">
<polygon fill="none" stroke="black" stroke-width="0.5" points="805,-37 582,-37 582,-18 805,-18 805,-37"/>
<text text-anchor="middle" x="693.5" y="-25" font-family="Vera Sans, DejaVu Sans, Liberation Sans, Arial, Helvetica, sans" font-size="10.00">pyVHDLModel.SyntaxModel.MixinIfBranch</text>
</a>
</g>
</g>
<!-- pyVHDLModel.SyntaxModel.MixinIfBranch&#45;&gt;pyVHDLModel.SyntaxModel.IfBranch -->
<g id="edge5" class="edge">
<title>pyVHDLModel.SyntaxModel.MixinIfBranch&#45;&gt;pyVHDLModel.SyntaxModel.IfBranch</title>
<path fill="none" stroke="black" stroke-width="0.5" d="M805.21,-35.68C815.37,-36.43 825.64,-37.19 835.72,-37.94"/>
<polygon fill="black" stroke="black" stroke-width="0.5" points="835.86,-39.7 840.98,-38.33 836.12,-36.21 835.86,-39.7"/>
</g>
<!-- pyVHDLModel.SyntaxModel.MixinBranch -->
<g id="node7" class="node">
<title>pyVHDLModel.SyntaxModel.MixinBranch</title>
<g id="a_node7"><a xlink:title="A ``BaseBranch`` is a mixin&#45;class for all statements with branches.">
<polygon fill="none" stroke="black" stroke-width="0.5" points="227,-56 11,-56 11,-37 227,-37 227,-56"/>
<text text-anchor="middle" x="119" y="-44" font-family="Vera Sans, DejaVu Sans, Liberation Sans, Arial, Helvetica, sans" font-size="10.00">pyVHDLModel.SyntaxModel.MixinBranch</text>
</a>
</g>
</g>
<!-- pyVHDLModel.SyntaxModel.MixinConditionalBranch -->
<g id="node9" class="node">
<title>pyVHDLModel.SyntaxModel.MixinConditionalBranch</title>
<g id="a_node9"><a xlink:title="A ``BaseBranch`` is a mixin&#45;class for all branch statements with a condition.">
<polygon fill="none" stroke="black" stroke-width="0.5" points="546,-37 274,-37 274,-18 546,-18 546,-37"/>
<text text-anchor="middle" x="410" y="-25" font-family="Vera Sans, DejaVu Sans, Liberation Sans, Arial, Helvetica, sans" font-size="10.00">pyVHDLModel.SyntaxModel.MixinConditionalBranch</text>
</a>
</g>
</g>
<!-- pyVHDLModel.SyntaxModel.MixinBranch&#45;&gt;pyVHDLModel.SyntaxModel.MixinConditionalBranch -->
<g id="edge6" class="edge">
<title>pyVHDLModel.SyntaxModel.MixinBranch&#45;&gt;pyVHDLModel.SyntaxModel.MixinConditionalBranch</title>
<path fill="none" stroke="black" stroke-width="0.5" d="M227.2,-39.45C240.65,-38.57 254.56,-37.65 268.42,-36.74"/>
<polygon fill="black" stroke="black" stroke-width="0.5" points="268.65,-38.48 273.53,-36.41 268.42,-34.99 268.65,-38.48"/>
</g>
<!-- pyVHDLModel.SyntaxModel.MixinConditional -->
<g id="node8" class="node">
<title>pyVHDLModel.SyntaxModel.MixinConditional</title>
<g id="a_node8"><a xlink:title="A ``BaseConditional`` is a mixin&#45;class for all statements with a condition.">
<polygon fill="none" stroke="black" stroke-width="0.5" points="238,-19 0,-19 0,0 238,0 238,-19"/>
<text text-anchor="middle" x="119" y="-7" font-family="Vera Sans, DejaVu Sans, Liberation Sans, Arial, Helvetica, sans" font-size="10.00">pyVHDLModel.SyntaxModel.MixinConditional</text>
</a>
</g>
</g>
<!-- pyVHDLModel.SyntaxModel.MixinConditional&#45;&gt;pyVHDLModel.SyntaxModel.MixinConditionalBranch -->
<g id="edge7" class="edge">
<title>pyVHDLModel.SyntaxModel.MixinConditional&#45;&gt;pyVHDLModel.SyntaxModel.MixinConditionalBranch</title>
<path fill="none" stroke="black" stroke-width="0.5" d="M238.38,-16.87C248.43,-17.5 258.65,-18.14 268.84,-18.77"/>
<polygon fill="black" stroke="black" stroke-width="0.5" points="268.74,-20.52 273.84,-19.08 268.96,-17.02 268.74,-20.52"/>
</g>
<!-- pyVHDLModel.SyntaxModel.MixinConditionalBranch&#45;&gt;pyVHDLModel.SyntaxModel.MixinIfBranch -->
<g id="edge8" class="edge">
<title>pyVHDLModel.SyntaxModel.MixinConditionalBranch&#45;&gt;pyVHDLModel.SyntaxModel.MixinIfBranch</title>
<path fill="none" stroke="black" stroke-width="0.5" d="M546.39,-27.5C556.47,-27.5 566.58,-27.5 576.52,-27.5"/>
<polygon fill="black" stroke="black" stroke-width="0.5" points="576.7,-29.25 581.7,-27.5 576.7,-25.75 576.7,-29.25"/>
</g>
</g>
</svg>
