<?xml version="1.0" encoding="UTF-8" standalone="no"?>
<!DOCTYPE svg PUBLIC "-//W3C//DTD SVG 1.1//EN"
 "http://www.w3.org/Graphics/SVG/1.1/DTD/svg11.dtd">
<!-- Generated by graphviz version 2.43.0 (0)
 -->
<!-- Title: inheritance7467f46b52 Pages: 1 -->
<svg width="576pt" height="27pt"
 viewBox="0.00 0.00 576.00 27.49" xmlns="http://www.w3.org/2000/svg" xmlns:xlink="http://www.w3.org/1999/xlink">
<g id="graph0" class="graph" transform="scale(2.33 2.33) rotate(0) translate(4 60)">
<title>inheritance7467f46b52</title>
<polygon fill="white" stroke="transparent" points="-4,4 -4,-60 1337,-60 1337,4 -4,4"/>
<!-- pyGHDL.dom.DOMMixin -->
<g id="node1" class="node">
<title>pyGHDL.dom.DOMMixin</title>
<g id="a_node1"><a xlink:href="../pyGHDL.dom.html#pyGHDL.dom.DOMMixin" xlink:title="pyGHDL.dom.DOMMixin" target="_top">
<polygon fill="none" stroke="black" stroke-width="0.5" points="903,-56 768,-56 768,-37 903,-37 903,-56"/>
<text text-anchor="middle" x="835.5" y="-44" font-family="Vera Sans, DejaVu Sans, Liberation Sans, Arial, Helvetica, sans" font-size="10.00">pyGHDL.dom.DOMMixin</text>
</a>
</g>
</g>
<!-- pyGHDL.dom.Symbol.SimpleObjectOrFunctionCallSymbol -->
<g id="node2" class="node">
<title>pyGHDL.dom.Symbol.SimpleObjectOrFunctionCallSymbol</title>
<g id="a_node2"><a xlink:href="../pyGHDL/pyGHDL.dom.Symbol.html#pyGHDL.dom.Symbol.SimpleObjectOrFunctionCallSymbol" xlink:title="pyGHDL.dom.Symbol.SimpleObjectOrFunctionCallSymbol" target="_top">
<polygon fill="none" stroke="black" stroke-width="0.5" points="1333,-37 1036,-37 1036,-18 1333,-18 1333,-37"/>
<text text-anchor="middle" x="1184.5" y="-25" font-family="Vera Sans, DejaVu Sans, Liberation Sans, Arial, Helvetica, sans" font-size="10.00">pyGHDL.dom.Symbol.SimpleObjectOrFunctionCallSymbol</text>
</a>
</g>
</g>
<!-- pyGHDL.dom.DOMMixin&#45;&gt;pyGHDL.dom.Symbol.SimpleObjectOrFunctionCallSymbol -->
<g id="edge2" class="edge">
<title>pyGHDL.dom.DOMMixin&#45;&gt;pyGHDL.dom.Symbol.SimpleObjectOrFunctionCallSymbol</title>
<path fill="none" stroke="black" stroke-width="0.5" d="M903.41,-42.84C939.72,-40.85 986.21,-38.3 1030.83,-35.86"/>
<polygon fill="black" stroke="black" stroke-width="0.5" points="1031.08,-37.6 1035.98,-35.58 1030.89,-34.1 1031.08,-37.6"/>
</g>
<!-- pyVHDLModel.SyntaxModel.SimpleObjectOrFunctionCallSymbol -->
<g id="node3" class="node">
<title>pyVHDLModel.SyntaxModel.SimpleObjectOrFunctionCallSymbol</title>
<polygon fill="none" stroke="black" stroke-width="0.5" points="1000,-19 671,-19 671,0 1000,0 1000,-19"/>
<text text-anchor="middle" x="835.5" y="-7" font-family="Vera Sans, DejaVu Sans, Liberation Sans, Arial, Helvetica, sans" font-size="10.00">pyVHDLModel.SyntaxModel.SimpleObjectOrFunctionCallSymbol</text>
</g>
<!-- pyVHDLModel.SyntaxModel.SimpleObjectOrFunctionCallSymbol&#45;&gt;pyGHDL.dom.Symbol.SimpleObjectOrFunctionCallSymbol -->
<g id="edge1" class="edge">
<title>pyVHDLModel.SyntaxModel.SimpleObjectOrFunctionCallSymbol&#45;&gt;pyGHDL.dom.Symbol.SimpleObjectOrFunctionCallSymbol</title>
<path fill="none" stroke="black" stroke-width="0.5" d="M1000.09,-17.99C1010.36,-18.52 1020.67,-19.05 1030.88,-19.58"/>
<polygon fill="black" stroke="black" stroke-width="0.5" points="1030.8,-21.33 1035.88,-19.84 1030.98,-17.84 1030.8,-21.33"/>
</g>
<!-- pyVHDLModel.ModelEntity -->
<g id="node4" class="node">
<title>pyVHDLModel.ModelEntity</title>
<g id="a_node4"><a xlink:title="``ModelEntity`` is the base class for all classes in the VHDL language model,">
<polygon fill="none" stroke="black" stroke-width="0.5" points="147,-19 0,-19 0,0 147,0 147,-19"/>
<text text-anchor="middle" x="73.5" y="-7" font-family="Vera Sans, DejaVu Sans, Liberation Sans, Arial, Helvetica, sans" font-size="10.00">pyVHDLModel.ModelEntity</text>
</a>
</g>
</g>
<!-- pyVHDLModel.SyntaxModel.Symbol -->
<g id="node6" class="node">
<title>pyVHDLModel.SyntaxModel.Symbol</title>
<polygon fill="none" stroke="black" stroke-width="0.5" points="375,-19 183,-19 183,0 375,0 375,-19"/>
<text text-anchor="middle" x="279" y="-7" font-family="Vera Sans, DejaVu Sans, Liberation Sans, Arial, Helvetica, sans" font-size="10.00">pyVHDLModel.SyntaxModel.Symbol</text>
</g>
<!-- pyVHDLModel.ModelEntity&#45;&gt;pyVHDLModel.SyntaxModel.Symbol -->
<g id="edge5" class="edge">
<title>pyVHDLModel.ModelEntity&#45;&gt;pyVHDLModel.SyntaxModel.Symbol</title>
<path fill="none" stroke="black" stroke-width="0.5" d="M147.11,-9.5C157.01,-9.5 167.32,-9.5 177.62,-9.5"/>
<polygon fill="black" stroke="black" stroke-width="0.5" points="177.66,-11.25 182.66,-9.5 177.66,-7.75 177.66,-11.25"/>
</g>
<!-- pyVHDLModel.SyntaxModel.ObjectSymbol -->
<g id="node5" class="node">
<title>pyVHDLModel.SyntaxModel.ObjectSymbol</title>
<polygon fill="none" stroke="black" stroke-width="0.5" points="635,-19 411,-19 411,0 635,0 635,-19"/>
<text text-anchor="middle" x="523" y="-7" font-family="Vera Sans, DejaVu Sans, Liberation Sans, Arial, Helvetica, sans" font-size="10.00">pyVHDLModel.SyntaxModel.ObjectSymbol</text>
</g>
<!-- pyVHDLModel.SyntaxModel.ObjectSymbol&#45;&gt;pyVHDLModel.SyntaxModel.SimpleObjectOrFunctionCallSymbol -->
<g id="edge4" class="edge">
<title>pyVHDLModel.SyntaxModel.ObjectSymbol&#45;&gt;pyVHDLModel.SyntaxModel.SimpleObjectOrFunctionCallSymbol</title>
<path fill="none" stroke="black" stroke-width="0.5" d="M635.22,-9.5C645.24,-9.5 655.53,-9.5 665.89,-9.5"/>
<polygon fill="black" stroke="black" stroke-width="0.5" points="665.99,-11.25 670.99,-9.5 665.99,-7.75 665.99,-11.25"/>
</g>
<!-- pyVHDLModel.SyntaxModel.Symbol&#45;&gt;pyVHDLModel.SyntaxModel.ObjectSymbol -->
<g id="edge3" class="edge">
<title>pyVHDLModel.SyntaxModel.Symbol&#45;&gt;pyVHDLModel.SyntaxModel.ObjectSymbol</title>
<path fill="none" stroke="black" stroke-width="0.5" d="M375.3,-9.5C385.3,-9.5 395.55,-9.5 405.75,-9.5"/>
<polygon fill="black" stroke="black" stroke-width="0.5" points="405.76,-11.25 410.76,-9.5 405.76,-7.75 405.76,-11.25"/>
</g>
</g>
</svg>
