<?xml version="1.0" encoding="UTF-8" standalone="no"?>
<!DOCTYPE svg PUBLIC "-//W3C//DTD SVG 1.1//EN"
 "http://www.w3.org/Graphics/SVG/1.1/DTD/svg11.dtd">
<!-- Generated by graphviz version 2.43.0 (0)
 -->
<!-- Title: inheritance5d44514f2b Pages: 1 -->
<svg width="576pt" height="42pt"
 viewBox="0.00 0.00 576.00 42.47" xmlns="http://www.w3.org/2000/svg" xmlns:xlink="http://www.w3.org/1999/xlink">
<g id="graph0" class="graph" transform="scale(1.51 1.51) rotate(0) translate(4 60)">
<title>inheritance5d44514f2b</title>
<polygon fill="white" stroke="transparent" points="-4,4 -4,-60 864,-60 864,4 -4,4"/>
<!-- pyGHDL.dom.DOMMixin -->
<g id="node1" class="node">
<title>pyGHDL.dom.DOMMixin</title>
<g id="a_node1"><a xlink:href="../pyGHDL.dom.html#pyGHDL.dom.DOMMixin" xlink:title="pyGHDL.dom.DOMMixin" target="_top">
<polygon fill="none" stroke="black" stroke-width="0.5" points="595,-56 460,-56 460,-37 595,-37 595,-56"/>
<text text-anchor="middle" x="527.5" y="-44" font-family="Vera Sans, DejaVu Sans, Liberation Sans, Arial, Helvetica, sans" font-size="10.00">pyGHDL.dom.DOMMixin</text>
</a>
</g>
</g>
<!-- pyGHDL.dom.DesignUnit.UseClause -->
<g id="node2" class="node">
<title>pyGHDL.dom.DesignUnit.UseClause</title>
<g id="a_node2"><a xlink:href="../pyGHDL/pyGHDL.dom.DesignUnit.html#pyGHDL.dom.DesignUnit.UseClause" xlink:title="pyGHDL.dom.DesignUnit.UseClause" target="_top">
<polygon fill="none" stroke="black" stroke-width="0.5" points="860,-37 667,-37 667,-18 860,-18 860,-37"/>
<text text-anchor="middle" x="763.5" y="-25" font-family="Vera Sans, DejaVu Sans, Liberation Sans, Arial, Helvetica, sans" font-size="10.00">pyGHDL.dom.DesignUnit.UseClause</text>
</a>
</g>
</g>
<!-- pyGHDL.dom.DOMMixin&#45;&gt;pyGHDL.dom.DesignUnit.UseClause -->
<g id="edge2" class="edge">
<title>pyGHDL.dom.DOMMixin&#45;&gt;pyGHDL.dom.DesignUnit.UseClause</title>
<path fill="none" stroke="black" stroke-width="0.5" d="M595.24,-41.08C615.96,-39.4 639.28,-37.5 661.78,-35.68"/>
<polygon fill="black" stroke="black" stroke-width="0.5" points="662.03,-37.41 666.87,-35.26 661.75,-33.93 662.03,-37.41"/>
</g>
<!-- pyVHDLModel.SyntaxModel.UseClause -->
<g id="node3" class="node">
<title>pyVHDLModel.SyntaxModel.UseClause</title>
<polygon fill="none" stroke="black" stroke-width="0.5" points="631,-19 424,-19 424,0 631,0 631,-19"/>
<text text-anchor="middle" x="527.5" y="-7" font-family="Vera Sans, DejaVu Sans, Liberation Sans, Arial, Helvetica, sans" font-size="10.00">pyVHDLModel.SyntaxModel.UseClause</text>
</g>
<!-- pyVHDLModel.SyntaxModel.UseClause&#45;&gt;pyGHDL.dom.DesignUnit.UseClause -->
<g id="edge1" class="edge">
<title>pyVHDLModel.SyntaxModel.UseClause&#45;&gt;pyGHDL.dom.DesignUnit.UseClause</title>
<path fill="none" stroke="black" stroke-width="0.5" d="M631.14,-17.4C641.37,-18.18 651.76,-18.98 661.97,-19.77"/>
<polygon fill="black" stroke="black" stroke-width="0.5" points="661.85,-21.51 666.97,-20.15 662.12,-18.02 661.85,-21.51"/>
</g>
<!-- pyVHDLModel.ModelEntity -->
<g id="node4" class="node">
<title>pyVHDLModel.ModelEntity</title>
<g id="a_node4"><a xlink:title="``ModelEntity`` is the base class for all classes in the VHDL language model,">
<polygon fill="none" stroke="black" stroke-width="0.5" points="147,-19 0,-19 0,0 147,0 147,-19"/>
<text text-anchor="middle" x="73.5" y="-7" font-family="Vera Sans, DejaVu Sans, Liberation Sans, Arial, Helvetica, sans" font-size="10.00">pyVHDLModel.ModelEntity</text>
</a>
</g>
</g>
<!-- pyVHDLModel.SyntaxModel.Reference -->
<g id="node5" class="node">
<title>pyVHDLModel.SyntaxModel.Reference</title>
<polygon fill="none" stroke="black" stroke-width="0.5" points="388,-19 183,-19 183,0 388,0 388,-19"/>
<text text-anchor="middle" x="285.5" y="-7" font-family="Vera Sans, DejaVu Sans, Liberation Sans, Arial, Helvetica, sans" font-size="10.00">pyVHDLModel.SyntaxModel.Reference</text>
</g>
<!-- pyVHDLModel.ModelEntity&#45;&gt;pyVHDLModel.SyntaxModel.Reference -->
<g id="edge3" class="edge">
<title>pyVHDLModel.ModelEntity&#45;&gt;pyVHDLModel.SyntaxModel.Reference</title>
<path fill="none" stroke="black" stroke-width="0.5" d="M147.06,-9.5C156.95,-9.5 167.25,-9.5 177.59,-9.5"/>
<polygon fill="black" stroke="black" stroke-width="0.5" points="177.66,-11.25 182.66,-9.5 177.66,-7.75 177.66,-11.25"/>
</g>
<!-- pyVHDLModel.SyntaxModel.Reference&#45;&gt;pyVHDLModel.SyntaxModel.UseClause -->
<g id="edge4" class="edge">
<title>pyVHDLModel.SyntaxModel.Reference&#45;&gt;pyVHDLModel.SyntaxModel.UseClause</title>
<path fill="none" stroke="black" stroke-width="0.5" d="M388.28,-9.5C398.29,-9.5 408.47,-9.5 418.54,-9.5"/>
<polygon fill="black" stroke="black" stroke-width="0.5" points="418.79,-11.25 423.79,-9.5 418.79,-7.75 418.79,-11.25"/>
</g>
</g>
</svg>
