<?xml version="1.0" encoding="UTF-8" standalone="no"?>
<!DOCTYPE svg PUBLIC "-//W3C//DTD SVG 1.1//EN"
 "http://www.w3.org/Graphics/SVG/1.1/DTD/svg11.dtd">
<!-- Generated by graphviz version 2.43.0 (0)
 -->
<!-- Title: inheritance3ddbbd5ddc Pages: 1 -->
<svg width="576pt" height="49pt"
 viewBox="0.00 0.00 576.00 49.46" xmlns="http://www.w3.org/2000/svg" xmlns:xlink="http://www.w3.org/1999/xlink">
<g id="graph0" class="graph" transform="scale(1.66 1.66) rotate(0) translate(4 78)">
<title>inheritance3ddbbd5ddc</title>
<polygon fill="white" stroke="transparent" points="-4,4 -4,-78 951,-78 951,4 -4,4"/>
<!-- pyGHDL.dom.DOMMixin -->
<g id="node1" class="node">
<title>pyGHDL.dom.DOMMixin</title>
<g id="a_node1"><a xlink:href="../pyGHDL.dom.html#pyGHDL.dom.DOMMixin" xlink:title="pyGHDL.dom.DOMMixin" target="_top">
<polygon fill="none" stroke="black" stroke-width="0.5" points="723,-74 588,-74 588,-55 723,-55 723,-74"/>
<text text-anchor="middle" x="655.5" y="-62" font-family="Vera Sans, DejaVu Sans, Liberation Sans, Arial, Helvetica, sans" font-size="10.00">pyGHDL.dom.DOMMixin</text>
</a>
</g>
</g>
<!-- pyGHDL.dom.Object.Variable -->
<g id="node2" class="node">
<title>pyGHDL.dom.Object.Variable</title>
<g id="a_node2"><a xlink:href="../pyGHDL/pyGHDL.dom.Object.html#pyGHDL.dom.Object.Variable" xlink:title="pyGHDL.dom.Object.Variable" target="_top">
<polygon fill="none" stroke="black" stroke-width="0.5" points="947,-55 789,-55 789,-36 947,-36 947,-55"/>
<text text-anchor="middle" x="868" y="-43" font-family="Vera Sans, DejaVu Sans, Liberation Sans, Arial, Helvetica, sans" font-size="10.00">pyGHDL.dom.Object.Variable</text>
</a>
</g>
</g>
<!-- pyGHDL.dom.DOMMixin&#45;&gt;pyGHDL.dom.Object.Variable -->
<g id="edge2" class="edge">
<title>pyGHDL.dom.DOMMixin&#45;&gt;pyGHDL.dom.Object.Variable</title>
<path fill="none" stroke="black" stroke-width="0.5" d="M723.1,-58.49C742.31,-56.75 763.52,-54.84 783.61,-53.03"/>
<polygon fill="black" stroke="black" stroke-width="0.5" points="783.87,-54.76 788.69,-52.57 783.56,-51.27 783.87,-54.76"/>
</g>
<!-- pyVHDLModel.SyntaxModel.Variable -->
<g id="node3" class="node">
<title>pyVHDLModel.SyntaxModel.Variable</title>
<polygon fill="none" stroke="black" stroke-width="0.5" points="753,-37 558,-37 558,-18 753,-18 753,-37"/>
<text text-anchor="middle" x="655.5" y="-25" font-family="Vera Sans, DejaVu Sans, Liberation Sans, Arial, Helvetica, sans" font-size="10.00">pyVHDLModel.SyntaxModel.Variable</text>
</g>
<!-- pyVHDLModel.SyntaxModel.Variable&#45;&gt;pyGHDL.dom.Object.Variable -->
<g id="edge1" class="edge">
<title>pyVHDLModel.SyntaxModel.Variable&#45;&gt;pyGHDL.dom.Object.Variable</title>
<path fill="none" stroke="black" stroke-width="0.5" d="M753.12,-35.76C763.34,-36.64 773.67,-37.52 783.71,-38.38"/>
<polygon fill="black" stroke="black" stroke-width="0.5" points="783.81,-40.14 788.94,-38.82 784.11,-36.66 783.81,-40.14"/>
</g>
<!-- pyVHDLModel.ModelEntity -->
<g id="node4" class="node">
<title>pyVHDLModel.ModelEntity</title>
<g id="a_node4"><a xlink:title="``ModelEntity`` is the base class for all classes in the VHDL language model,">
<polygon fill="none" stroke="black" stroke-width="0.5" points="169.5,-74 22.5,-74 22.5,-55 169.5,-55 169.5,-74"/>
<text text-anchor="middle" x="96" y="-62" font-family="Vera Sans, DejaVu Sans, Liberation Sans, Arial, Helvetica, sans" font-size="10.00">pyVHDLModel.ModelEntity</text>
</a>
</g>
</g>
<!-- pyVHDLModel.SyntaxModel.Obj -->
<g id="node6" class="node">
<title>pyVHDLModel.SyntaxModel.Obj</title>
<polygon fill="none" stroke="black" stroke-width="0.5" points="461,-56 289,-56 289,-37 461,-37 461,-56"/>
<text text-anchor="middle" x="375" y="-44" font-family="Vera Sans, DejaVu Sans, Liberation Sans, Arial, Helvetica, sans" font-size="10.00">pyVHDLModel.SyntaxModel.Obj</text>
</g>
<!-- pyVHDLModel.ModelEntity&#45;&gt;pyVHDLModel.SyntaxModel.Obj -->
<g id="edge3" class="edge">
<title>pyVHDLModel.ModelEntity&#45;&gt;pyVHDLModel.SyntaxModel.Obj</title>
<path fill="none" stroke="black" stroke-width="0.5" d="M169.78,-59.77C204.61,-57.51 246.67,-54.77 283.54,-52.38"/>
<polygon fill="black" stroke="black" stroke-width="0.5" points="284.06,-54.1 288.94,-52.03 283.83,-50.61 284.06,-54.1"/>
</g>
<!-- pyVHDLModel.MultipleNamedEntity -->
<g id="node5" class="node">
<title>pyVHDLModel.MultipleNamedEntity</title>
<g id="a_node5"><a xlink:title="A ``MultipleNamedEntity`` is a mixin class for all VHDL entities that declare">
<polygon fill="none" stroke="black" stroke-width="0.5" points="192,-37 0,-37 0,-18 192,-18 192,-37"/>
<text text-anchor="middle" x="96" y="-25" font-family="Vera Sans, DejaVu Sans, Liberation Sans, Arial, Helvetica, sans" font-size="10.00">pyVHDLModel.MultipleNamedEntity</text>
</a>
</g>
</g>
<!-- pyVHDLModel.MultipleNamedEntity&#45;&gt;pyVHDLModel.SyntaxModel.Obj -->
<g id="edge4" class="edge">
<title>pyVHDLModel.MultipleNamedEntity&#45;&gt;pyVHDLModel.SyntaxModel.Obj</title>
<path fill="none" stroke="black" stroke-width="0.5" d="M192.33,-34.04C221.92,-36.07 254.42,-38.3 283.66,-40.3"/>
<polygon fill="black" stroke="black" stroke-width="0.5" points="283.59,-42.05 288.7,-40.65 283.83,-38.56 283.59,-42.05"/>
</g>
<!-- pyVHDLModel.SyntaxModel.Obj&#45;&gt;pyVHDLModel.SyntaxModel.Variable -->
<g id="edge5" class="edge">
<title>pyVHDLModel.SyntaxModel.Obj&#45;&gt;pyVHDLModel.SyntaxModel.Variable</title>
<path fill="none" stroke="black" stroke-width="0.5" d="M461.07,-40.7C489.95,-38.73 522.52,-36.5 552.58,-34.45"/>
<polygon fill="black" stroke="black" stroke-width="0.5" points="552.9,-36.19 557.77,-34.1 552.66,-32.69 552.9,-36.19"/>
</g>
<!-- pyVHDLModel.SyntaxModel.WithDefaultExpressionMixin -->
<g id="node7" class="node">
<title>pyVHDLModel.SyntaxModel.WithDefaultExpressionMixin</title>
<g id="a_node7"><a xlink:title="A ``WithDefaultExpression`` is a mixin class for all objects declarations">
<polygon fill="none" stroke="black" stroke-width="0.5" points="522,-19 228,-19 228,0 522,0 522,-19"/>
<text text-anchor="middle" x="375" y="-7" font-family="Vera Sans, DejaVu Sans, Liberation Sans, Arial, Helvetica, sans" font-size="10.00">pyVHDLModel.SyntaxModel.WithDefaultExpressionMixin</text>
</a>
</g>
</g>
<!-- pyVHDLModel.SyntaxModel.WithDefaultExpressionMixin&#45;&gt;pyVHDLModel.SyntaxModel.Variable -->
<g id="edge6" class="edge">
<title>pyVHDLModel.SyntaxModel.WithDefaultExpressionMixin&#45;&gt;pyVHDLModel.SyntaxModel.Variable</title>
<path fill="none" stroke="black" stroke-width="0.5" d="M522.18,-18.95C532.47,-19.61 542.71,-20.27 552.67,-20.92"/>
<polygon fill="black" stroke="black" stroke-width="0.5" points="552.75,-22.68 557.85,-21.25 552.98,-19.18 552.75,-22.68"/>
</g>
</g>
</svg>
