<?xml version="1.0" encoding="UTF-8" standalone="no"?>
<!DOCTYPE svg PUBLIC "-//W3C//DTD SVG 1.1//EN"
 "http://www.w3.org/Graphics/SVG/1.1/DTD/svg11.dtd">
<!-- Generated by graphviz version 2.43.0 (0)
 -->
<!-- Title: inheritance8a9ff27274 Pages: 1 -->
<svg width="576pt" height="35pt"
 viewBox="0.00 0.00 576.00 34.81" xmlns="http://www.w3.org/2000/svg" xmlns:xlink="http://www.w3.org/1999/xlink">
<g id="graph0" class="graph" transform="scale(1.84 1.84) rotate(0) translate(4 60)">
<title>inheritance8a9ff27274</title>
<polygon fill="white" stroke="transparent" points="-4,4 -4,-60 1055,-60 1055,4 -4,4"/>
<!-- pyGHDL.dom.Aggregates.NamedAggregateElement -->
<g id="node1" class="node">
<title>pyGHDL.dom.Aggregates.NamedAggregateElement</title>
<g id="a_node1"><a xlink:href="../pyGHDL/pyGHDL.dom.Aggregates.html#pyGHDL.dom.Aggregates.NamedAggregateElement" xlink:title="pyGHDL.dom.Aggregates.NamedAggregateElement" target="_top">
<polygon fill="none" stroke="black" stroke-width="0.5" points="1051,-37 782,-37 782,-18 1051,-18 1051,-37"/>
<text text-anchor="middle" x="916.5" y="-25" font-family="Vera Sans, DejaVu Sans, Liberation Sans, Arial, Helvetica, sans" font-size="10.00">pyGHDL.dom.Aggregates.NamedAggregateElement</text>
</a>
</g>
</g>
<!-- pyVHDLModel.SyntaxModel.NamedAggregateElement -->
<g id="node2" class="node">
<title>pyVHDLModel.SyntaxModel.NamedAggregateElement</title>
<polygon fill="none" stroke="black" stroke-width="0.5" points="746,-56 465,-56 465,-37 746,-37 746,-56"/>
<text text-anchor="middle" x="605.5" y="-44" font-family="Vera Sans, DejaVu Sans, Liberation Sans, Arial, Helvetica, sans" font-size="10.00">pyVHDLModel.SyntaxModel.NamedAggregateElement</text>
</g>
<!-- pyVHDLModel.SyntaxModel.NamedAggregateElement&#45;&gt;pyGHDL.dom.Aggregates.NamedAggregateElement -->
<g id="edge1" class="edge">
<title>pyVHDLModel.SyntaxModel.NamedAggregateElement&#45;&gt;pyGHDL.dom.Aggregates.NamedAggregateElement</title>
<path fill="none" stroke="black" stroke-width="0.5" d="M746.08,-37.92C756.16,-37.3 766.33,-36.67 776.4,-36.05"/>
<polygon fill="black" stroke="black" stroke-width="0.5" points="776.78,-37.78 781.66,-35.73 776.56,-34.29 776.78,-37.78"/>
</g>
<!-- pyGHDL.dom.DOMMixin -->
<g id="node3" class="node">
<title>pyGHDL.dom.DOMMixin</title>
<g id="a_node3"><a xlink:href="../pyGHDL.dom.html#pyGHDL.dom.DOMMixin" xlink:title="pyGHDL.dom.DOMMixin" target="_top">
<polygon fill="none" stroke="black" stroke-width="0.5" points="673,-19 538,-19 538,0 673,0 673,-19"/>
<text text-anchor="middle" x="605.5" y="-7" font-family="Vera Sans, DejaVu Sans, Liberation Sans, Arial, Helvetica, sans" font-size="10.00">pyGHDL.dom.DOMMixin</text>
</a>
</g>
</g>
<!-- pyGHDL.dom.DOMMixin&#45;&gt;pyGHDL.dom.Aggregates.NamedAggregateElement -->
<g id="edge2" class="edge">
<title>pyGHDL.dom.DOMMixin&#45;&gt;pyGHDL.dom.Aggregates.NamedAggregateElement</title>
<path fill="none" stroke="black" stroke-width="0.5" d="M673.17,-13.38C703.52,-15.15 740.65,-17.31 776.63,-19.41"/>
<polygon fill="black" stroke="black" stroke-width="0.5" points="776.84,-21.18 781.93,-19.72 777.04,-17.68 776.84,-21.18"/>
</g>
<!-- pyVHDLModel.ModelEntity -->
<g id="node4" class="node">
<title>pyVHDLModel.ModelEntity</title>
<g id="a_node4"><a xlink:title="``ModelEntity`` is the base class for all classes in the VHDL language model,">
<polygon fill="none" stroke="black" stroke-width="0.5" points="147,-56 0,-56 0,-37 147,-37 147,-56"/>
<text text-anchor="middle" x="73.5" y="-44" font-family="Vera Sans, DejaVu Sans, Liberation Sans, Arial, Helvetica, sans" font-size="10.00">pyVHDLModel.ModelEntity</text>
</a>
</g>
</g>
<!-- pyVHDLModel.SyntaxModel.AggregateElement -->
<g id="node5" class="node">
<title>pyVHDLModel.SyntaxModel.AggregateElement</title>
<g id="a_node5"><a xlink:title="A ``AggregateElement`` is a base&#45;class for all aggregate elements.">
<polygon fill="none" stroke="black" stroke-width="0.5" points="429,-56 183,-56 183,-37 429,-37 429,-56"/>
<text text-anchor="middle" x="306" y="-44" font-family="Vera Sans, DejaVu Sans, Liberation Sans, Arial, Helvetica, sans" font-size="10.00">pyVHDLModel.SyntaxModel.AggregateElement</text>
</a>
</g>
</g>
<!-- pyVHDLModel.ModelEntity&#45;&gt;pyVHDLModel.SyntaxModel.AggregateElement -->
<g id="edge3" class="edge">
<title>pyVHDLModel.ModelEntity&#45;&gt;pyVHDLModel.SyntaxModel.AggregateElement</title>
<path fill="none" stroke="black" stroke-width="0.5" d="M147.12,-46.5C156.98,-46.5 167.33,-46.5 177.82,-46.5"/>
<polygon fill="black" stroke="black" stroke-width="0.5" points="177.97,-48.25 182.97,-46.5 177.97,-44.75 177.97,-48.25"/>
</g>
<!-- pyVHDLModel.SyntaxModel.AggregateElement&#45;&gt;pyVHDLModel.SyntaxModel.NamedAggregateElement -->
<g id="edge4" class="edge">
<title>pyVHDLModel.SyntaxModel.AggregateElement&#45;&gt;pyVHDLModel.SyntaxModel.NamedAggregateElement</title>
<path fill="none" stroke="black" stroke-width="0.5" d="M429.29,-46.5C439.35,-46.5 449.57,-46.5 459.76,-46.5"/>
<polygon fill="black" stroke="black" stroke-width="0.5" points="459.76,-48.25 464.76,-46.5 459.76,-44.75 459.76,-48.25"/>
</g>
</g>
</svg>
