<?xml version="1.0" encoding="UTF-8" standalone="no"?>
<!DOCTYPE svg PUBLIC "-//W3C//DTD SVG 1.1//EN"
 "http://www.w3.org/Graphics/SVG/1.1/DTD/svg11.dtd">
<!-- Generated by graphviz version 2.43.0 (0)
 -->
<!-- Title: inheritance098d0f4b4c Pages: 1 -->
<svg width="576pt" height="61pt"
 viewBox="0.00 0.00 576.00 60.93" xmlns="http://www.w3.org/2000/svg" xmlns:xlink="http://www.w3.org/1999/xlink">
<g id="graph0" class="graph" transform="scale(1.05 1.05) rotate(0) translate(4 60)">
<title>inheritance098d0f4b4c</title>
<polygon fill="white" stroke="transparent" points="-4,4 -4,-60 601,-60 601,4 -4,4"/>
<!-- pyGHDL.dom.NonStandard.Library -->
<g id="node1" class="node">
<title>pyGHDL.dom.NonStandard.Library</title>
<g id="a_node1"><a xlink:href="../pyGHDL/pyGHDL.dom.NonStandard.html#pyGHDL.dom.NonStandard.Library" xlink:title="pyGHDL.dom.NonStandard.Library" target="_top">
<polygon fill="none" stroke="black" stroke-width="0.5" points="597,-37 413,-37 413,-18 597,-18 597,-37"/>
<text text-anchor="middle" x="505" y="-25" font-family="Vera Sans, DejaVu Sans, Liberation Sans, Arial, Helvetica, sans" font-size="10.00">pyGHDL.dom.NonStandard.Library</text>
</a>
</g>
</g>
<!-- pyVHDLModel.SyntaxModel.Library -->
<g id="node2" class="node">
<title>pyVHDLModel.SyntaxModel.Library</title>
<g id="a_node2"><a xlink:title="A ``Library`` represents a VHDL library. It contains all *primary* design">
<polygon fill="none" stroke="black" stroke-width="0.5" points="377,-37 188,-37 188,-18 377,-18 377,-37"/>
<text text-anchor="middle" x="282.5" y="-25" font-family="Vera Sans, DejaVu Sans, Liberation Sans, Arial, Helvetica, sans" font-size="10.00">pyVHDLModel.SyntaxModel.Library</text>
</a>
</g>
</g>
<!-- pyVHDLModel.SyntaxModel.Library&#45;&gt;pyGHDL.dom.NonStandard.Library -->
<g id="edge1" class="edge">
<title>pyVHDLModel.SyntaxModel.Library&#45;&gt;pyGHDL.dom.NonStandard.Library</title>
<path fill="none" stroke="black" stroke-width="0.5" d="M377.01,-27.5C387.2,-27.5 397.58,-27.5 407.8,-27.5"/>
<polygon fill="black" stroke="black" stroke-width="0.5" points="407.8,-29.25 412.8,-27.5 407.8,-25.75 407.8,-29.25"/>
</g>
<!-- pyVHDLModel.ModelEntity -->
<g id="node3" class="node">
<title>pyVHDLModel.ModelEntity</title>
<g id="a_node3"><a xlink:title="``ModelEntity`` is the base class for all classes in the VHDL language model,">
<polygon fill="none" stroke="black" stroke-width="0.5" points="149.5,-56 2.5,-56 2.5,-37 149.5,-37 149.5,-56"/>
<text text-anchor="middle" x="76" y="-44" font-family="Vera Sans, DejaVu Sans, Liberation Sans, Arial, Helvetica, sans" font-size="10.00">pyVHDLModel.ModelEntity</text>
</a>
</g>
</g>
<!-- pyVHDLModel.ModelEntity&#45;&gt;pyVHDLModel.SyntaxModel.Library -->
<g id="edge2" class="edge">
<title>pyVHDLModel.ModelEntity&#45;&gt;pyVHDLModel.SyntaxModel.Library</title>
<path fill="none" stroke="black" stroke-width="0.5" d="M149.67,-39.75C160.43,-38.75 171.66,-37.71 182.83,-36.67"/>
<polygon fill="black" stroke="black" stroke-width="0.5" points="183.14,-38.4 187.96,-36.19 182.82,-34.91 183.14,-38.4"/>
</g>
<!-- pyVHDLModel.NamedEntity -->
<g id="node4" class="node">
<title>pyVHDLModel.NamedEntity</title>
<g id="a_node4"><a xlink:title="A ``NamedEntity`` is a mixin class for all VHDL entities that have identifiers.">
<polygon fill="none" stroke="black" stroke-width="0.5" points="152,-19 0,-19 0,0 152,0 152,-19"/>
<text text-anchor="middle" x="76" y="-7" font-family="Vera Sans, DejaVu Sans, Liberation Sans, Arial, Helvetica, sans" font-size="10.00">pyVHDLModel.NamedEntity</text>
</a>
</g>
</g>
<!-- pyVHDLModel.NamedEntity&#45;&gt;pyVHDLModel.SyntaxModel.Library -->
<g id="edge3" class="edge">
<title>pyVHDLModel.NamedEntity&#45;&gt;pyVHDLModel.SyntaxModel.Library</title>
<path fill="none" stroke="black" stroke-width="0.5" d="M152.28,-16.13C162.26,-17 172.61,-17.92 182.91,-18.82"/>
<polygon fill="black" stroke="black" stroke-width="0.5" points="182.83,-20.57 187.97,-19.27 183.14,-17.09 182.83,-20.57"/>
</g>
</g>
</svg>
