<?xml version="1.0" encoding="UTF-8" standalone="no"?>
<!DOCTYPE svg PUBLIC "-//W3C//DTD SVG 1.1//EN"
 "http://www.w3.org/Graphics/SVG/1.1/DTD/svg11.dtd">
<!-- Generated by graphviz version 2.43.0 (0)
 -->
<!-- Title: inheritance189dbf21a2 Pages: 1 -->
<svg width="576pt" height="36pt"
 viewBox="0.00 0.00 576.00 35.93" xmlns="http://www.w3.org/2000/svg" xmlns:xlink="http://www.w3.org/1999/xlink">
<g id="graph0" class="graph" transform="scale(1.78 1.78) rotate(0) translate(4 60)">
<title>inheritance189dbf21a2</title>
<polygon fill="white" stroke="transparent" points="-4,4 -4,-60 1022,-60 1022,4 -4,4"/>
<!-- pyGHDL.dom.Concurrent.GenericAssociationItem -->
<g id="node1" class="node">
<title>pyGHDL.dom.Concurrent.GenericAssociationItem</title>
<g id="a_node1"><a xlink:href="../pyGHDL/pyGHDL.dom.Concurrent.html#pyGHDL.dom.Concurrent.GenericAssociationItem" xlink:title="pyGHDL.dom.Concurrent.GenericAssociationItem" target="_top">
<polygon fill="none" stroke="black" stroke-width="0.5" points="1018,-37 761,-37 761,-18 1018,-18 1018,-37"/>
<text text-anchor="middle" x="889.5" y="-25" font-family="Vera Sans, DejaVu Sans, Liberation Sans, Arial, Helvetica, sans" font-size="10.00">pyGHDL.dom.Concurrent.GenericAssociationItem</text>
</a>
</g>
</g>
<!-- pyVHDLModel.SyntaxModel.GenericAssociationItem -->
<g id="node2" class="node">
<title>pyVHDLModel.SyntaxModel.GenericAssociationItem</title>
<polygon fill="none" stroke="black" stroke-width="0.5" points="725,-56 453,-56 453,-37 725,-37 725,-56"/>
<text text-anchor="middle" x="589" y="-44" font-family="Vera Sans, DejaVu Sans, Liberation Sans, Arial, Helvetica, sans" font-size="10.00">pyVHDLModel.SyntaxModel.GenericAssociationItem</text>
</g>
<!-- pyVHDLModel.SyntaxModel.GenericAssociationItem&#45;&gt;pyGHDL.dom.Concurrent.GenericAssociationItem -->
<g id="edge1" class="edge">
<title>pyVHDLModel.SyntaxModel.GenericAssociationItem&#45;&gt;pyGHDL.dom.Concurrent.GenericAssociationItem</title>
<path fill="none" stroke="black" stroke-width="0.5" d="M725.28,-37.89C735.48,-37.24 745.78,-36.58 755.97,-35.94"/>
<polygon fill="black" stroke="black" stroke-width="0.5" points="756.08,-37.68 760.96,-35.62 755.86,-34.19 756.08,-37.68"/>
</g>
<!-- pyGHDL.dom.DOMMixin -->
<g id="node3" class="node">
<title>pyGHDL.dom.DOMMixin</title>
<g id="a_node3"><a xlink:href="../pyGHDL.dom.html#pyGHDL.dom.DOMMixin" xlink:title="pyGHDL.dom.DOMMixin" target="_top">
<polygon fill="none" stroke="black" stroke-width="0.5" points="656.5,-19 521.5,-19 521.5,0 656.5,0 656.5,-19"/>
<text text-anchor="middle" x="589" y="-7" font-family="Vera Sans, DejaVu Sans, Liberation Sans, Arial, Helvetica, sans" font-size="10.00">pyGHDL.dom.DOMMixin</text>
</a>
</g>
</g>
<!-- pyGHDL.dom.DOMMixin&#45;&gt;pyGHDL.dom.Concurrent.GenericAssociationItem -->
<g id="edge2" class="edge">
<title>pyGHDL.dom.DOMMixin&#45;&gt;pyGHDL.dom.Concurrent.GenericAssociationItem</title>
<path fill="none" stroke="black" stroke-width="0.5" d="M656.62,-13.52C685.93,-15.28 721.46,-17.43 755.8,-19.5"/>
<polygon fill="black" stroke="black" stroke-width="0.5" points="755.76,-21.25 760.86,-19.8 755.97,-17.76 755.76,-21.25"/>
</g>
<!-- pyVHDLModel.ModelEntity -->
<g id="node4" class="node">
<title>pyVHDLModel.ModelEntity</title>
<g id="a_node4"><a xlink:title="``ModelEntity`` is the base class for all classes in the VHDL language model,">
<polygon fill="none" stroke="black" stroke-width="0.5" points="147,-56 0,-56 0,-37 147,-37 147,-56"/>
<text text-anchor="middle" x="73.5" y="-44" font-family="Vera Sans, DejaVu Sans, Liberation Sans, Arial, Helvetica, sans" font-size="10.00">pyVHDLModel.ModelEntity</text>
</a>
</g>
</g>
<!-- pyVHDLModel.SyntaxModel.AssociationItem -->
<g id="node5" class="node">
<title>pyVHDLModel.SyntaxModel.AssociationItem</title>
<polygon fill="none" stroke="black" stroke-width="0.5" points="417,-56 183,-56 183,-37 417,-37 417,-56"/>
<text text-anchor="middle" x="300" y="-44" font-family="Vera Sans, DejaVu Sans, Liberation Sans, Arial, Helvetica, sans" font-size="10.00">pyVHDLModel.SyntaxModel.AssociationItem</text>
</g>
<!-- pyVHDLModel.ModelEntity&#45;&gt;pyVHDLModel.SyntaxModel.AssociationItem -->
<g id="edge3" class="edge">
<title>pyVHDLModel.ModelEntity&#45;&gt;pyVHDLModel.SyntaxModel.AssociationItem</title>
<path fill="none" stroke="black" stroke-width="0.5" d="M147.08,-46.5C156.88,-46.5 167.14,-46.5 177.5,-46.5"/>
<polygon fill="black" stroke="black" stroke-width="0.5" points="177.6,-48.25 182.6,-46.5 177.6,-44.75 177.6,-48.25"/>
</g>
<!-- pyVHDLModel.SyntaxModel.AssociationItem&#45;&gt;pyVHDLModel.SyntaxModel.GenericAssociationItem -->
<g id="edge4" class="edge">
<title>pyVHDLModel.SyntaxModel.AssociationItem&#45;&gt;pyVHDLModel.SyntaxModel.GenericAssociationItem</title>
<path fill="none" stroke="black" stroke-width="0.5" d="M417.32,-46.5C427.24,-46.5 437.35,-46.5 447.43,-46.5"/>
<polygon fill="black" stroke="black" stroke-width="0.5" points="447.7,-48.25 452.7,-46.5 447.7,-44.75 447.7,-48.25"/>
</g>
</g>
</svg>
