<?xml version="1.0" encoding="UTF-8" standalone="no"?>
<!DOCTYPE svg PUBLIC "-//W3C//DTD SVG 1.1//EN"
 "http://www.w3.org/Graphics/SVG/1.1/DTD/svg11.dtd">
<!-- Generated by graphviz version 2.43.0 (0)
 -->
<!-- Title: inheritance09b2fe0686 Pages: 1 -->
<svg width="576pt" height="50pt"
 viewBox="0.00 0.00 576.00 50.46" xmlns="http://www.w3.org/2000/svg" xmlns:xlink="http://www.w3.org/1999/xlink">
<g id="graph0" class="graph" transform="scale(1.63 1.63) rotate(0) translate(4 78)">
<title>inheritance09b2fe0686</title>
<polygon fill="white" stroke="transparent" points="-4,4 -4,-78 932,-78 932,4 -4,4"/>
<!-- pyGHDL.dom.DOMMixin -->
<g id="node1" class="node">
<title>pyGHDL.dom.DOMMixin</title>
<g id="a_node1"><a xlink:href="../pyGHDL.dom.html#pyGHDL.dom.DOMMixin" xlink:title="pyGHDL.dom.DOMMixin" target="_top">
<polygon fill="none" stroke="black" stroke-width="0.5" points="718,-74 583,-74 583,-55 718,-55 718,-74"/>
<text text-anchor="middle" x="650.5" y="-62" font-family="Vera Sans, DejaVu Sans, Liberation Sans, Arial, Helvetica, sans" font-size="10.00">pyGHDL.dom.DOMMixin</text>
</a>
</g>
</g>
<!-- pyGHDL.dom.Object.Signal -->
<g id="node2" class="node">
<title>pyGHDL.dom.Object.Signal</title>
<g id="a_node2"><a xlink:href="../pyGHDL/pyGHDL.dom.Object.html#pyGHDL.dom.Object.Signal" xlink:title="pyGHDL.dom.Object.Signal" target="_top">
<polygon fill="none" stroke="black" stroke-width="0.5" points="928,-55 779,-55 779,-36 928,-36 928,-55"/>
<text text-anchor="middle" x="853.5" y="-43" font-family="Vera Sans, DejaVu Sans, Liberation Sans, Arial, Helvetica, sans" font-size="10.00">pyGHDL.dom.Object.Signal</text>
</a>
</g>
</g>
<!-- pyGHDL.dom.DOMMixin&#45;&gt;pyGHDL.dom.Object.Signal -->
<g id="edge2" class="edge">
<title>pyGHDL.dom.DOMMixin&#45;&gt;pyGHDL.dom.Object.Signal</title>
<path fill="none" stroke="black" stroke-width="0.5" d="M718.15,-58.2C735.91,-56.52 755.26,-54.69 773.61,-52.96"/>
<polygon fill="black" stroke="black" stroke-width="0.5" points="773.94,-54.68 778.75,-52.47 773.61,-51.2 773.94,-54.68"/>
</g>
<!-- pyVHDLModel.SyntaxModel.Signal -->
<g id="node3" class="node">
<title>pyVHDLModel.SyntaxModel.Signal</title>
<polygon fill="none" stroke="black" stroke-width="0.5" points="743,-37 558,-37 558,-18 743,-18 743,-37"/>
<text text-anchor="middle" x="650.5" y="-25" font-family="Vera Sans, DejaVu Sans, Liberation Sans, Arial, Helvetica, sans" font-size="10.00">pyVHDLModel.SyntaxModel.Signal</text>
</g>
<!-- pyVHDLModel.SyntaxModel.Signal&#45;&gt;pyGHDL.dom.Object.Signal -->
<g id="edge1" class="edge">
<title>pyVHDLModel.SyntaxModel.Signal&#45;&gt;pyGHDL.dom.Object.Signal</title>
<path fill="none" stroke="black" stroke-width="0.5" d="M743.18,-35.71C753.32,-36.62 763.58,-37.54 773.54,-38.43"/>
<polygon fill="black" stroke="black" stroke-width="0.5" points="773.59,-40.19 778.72,-38.89 773.9,-36.7 773.59,-40.19"/>
</g>
<!-- pyVHDLModel.ModelEntity -->
<g id="node4" class="node">
<title>pyVHDLModel.ModelEntity</title>
<g id="a_node4"><a xlink:title="``ModelEntity`` is the base class for all classes in the VHDL language model,">
<polygon fill="none" stroke="black" stroke-width="0.5" points="169.5,-74 22.5,-74 22.5,-55 169.5,-55 169.5,-74"/>
<text text-anchor="middle" x="96" y="-62" font-family="Vera Sans, DejaVu Sans, Liberation Sans, Arial, Helvetica, sans" font-size="10.00">pyVHDLModel.ModelEntity</text>
</a>
</g>
</g>
<!-- pyVHDLModel.SyntaxModel.Obj -->
<g id="node6" class="node">
<title>pyVHDLModel.SyntaxModel.Obj</title>
<polygon fill="none" stroke="black" stroke-width="0.5" points="461,-56 289,-56 289,-37 461,-37 461,-56"/>
<text text-anchor="middle" x="375" y="-44" font-family="Vera Sans, DejaVu Sans, Liberation Sans, Arial, Helvetica, sans" font-size="10.00">pyVHDLModel.SyntaxModel.Obj</text>
</g>
<!-- pyVHDLModel.ModelEntity&#45;&gt;pyVHDLModel.SyntaxModel.Obj -->
<g id="edge3" class="edge">
<title>pyVHDLModel.ModelEntity&#45;&gt;pyVHDLModel.SyntaxModel.Obj</title>
<path fill="none" stroke="black" stroke-width="0.5" d="M169.78,-59.77C204.61,-57.51 246.67,-54.77 283.54,-52.38"/>
<polygon fill="black" stroke="black" stroke-width="0.5" points="284.06,-54.1 288.94,-52.03 283.83,-50.61 284.06,-54.1"/>
</g>
<!-- pyVHDLModel.MultipleNamedEntity -->
<g id="node5" class="node">
<title>pyVHDLModel.MultipleNamedEntity</title>
<g id="a_node5"><a xlink:title="A ``MultipleNamedEntity`` is a mixin class for all VHDL entities that declare">
<polygon fill="none" stroke="black" stroke-width="0.5" points="192,-37 0,-37 0,-18 192,-18 192,-37"/>
<text text-anchor="middle" x="96" y="-25" font-family="Vera Sans, DejaVu Sans, Liberation Sans, Arial, Helvetica, sans" font-size="10.00">pyVHDLModel.MultipleNamedEntity</text>
</a>
</g>
</g>
<!-- pyVHDLModel.MultipleNamedEntity&#45;&gt;pyVHDLModel.SyntaxModel.Obj -->
<g id="edge4" class="edge">
<title>pyVHDLModel.MultipleNamedEntity&#45;&gt;pyVHDLModel.SyntaxModel.Obj</title>
<path fill="none" stroke="black" stroke-width="0.5" d="M192.33,-34.04C221.92,-36.07 254.42,-38.3 283.66,-40.3"/>
<polygon fill="black" stroke="black" stroke-width="0.5" points="283.59,-42.05 288.7,-40.65 283.83,-38.56 283.59,-42.05"/>
</g>
<!-- pyVHDLModel.SyntaxModel.Obj&#45;&gt;pyVHDLModel.SyntaxModel.Signal -->
<g id="edge5" class="edge">
<title>pyVHDLModel.SyntaxModel.Obj&#45;&gt;pyVHDLModel.SyntaxModel.Signal</title>
<path fill="none" stroke="black" stroke-width="0.5" d="M461.04,-40.59C490.09,-38.57 522.8,-36.3 552.71,-34.22"/>
<polygon fill="black" stroke="black" stroke-width="0.5" points="553,-35.96 557.87,-33.87 552.76,-32.47 553,-35.96"/>
</g>
<!-- pyVHDLModel.SyntaxModel.WithDefaultExpressionMixin -->
<g id="node7" class="node">
<title>pyVHDLModel.SyntaxModel.WithDefaultExpressionMixin</title>
<g id="a_node7"><a xlink:title="A ``WithDefaultExpression`` is a mixin class for all objects declarations">
<polygon fill="none" stroke="black" stroke-width="0.5" points="522,-19 228,-19 228,0 522,0 522,-19"/>
<text text-anchor="middle" x="375" y="-7" font-family="Vera Sans, DejaVu Sans, Liberation Sans, Arial, Helvetica, sans" font-size="10.00">pyVHDLModel.SyntaxModel.WithDefaultExpressionMixin</text>
</a>
</g>
</g>
<!-- pyVHDLModel.SyntaxModel.WithDefaultExpressionMixin&#45;&gt;pyVHDLModel.SyntaxModel.Signal -->
<g id="edge6" class="edge">
<title>pyVHDLModel.SyntaxModel.WithDefaultExpressionMixin&#45;&gt;pyVHDLModel.SyntaxModel.Signal</title>
<path fill="none" stroke="black" stroke-width="0.5" d="M520.36,-19C531.28,-19.72 542.14,-20.43 552.66,-21.13"/>
<polygon fill="black" stroke="black" stroke-width="0.5" points="552.69,-22.88 557.79,-21.46 552.92,-19.39 552.69,-22.88"/>
</g>
</g>
</svg>
