<?xml version="1.0" encoding="UTF-8" standalone="no"?>
<!DOCTYPE svg PUBLIC "-//W3C//DTD SVG 1.1//EN"
 "http://www.w3.org/Graphics/SVG/1.1/DTD/svg11.dtd">
<!-- Generated by graphviz version 2.43.0 (0)
 -->
<!-- Title: inheritancecc0aae58a9 Pages: 1 -->
<svg width="576pt" height="44pt"
 viewBox="0.00 0.00 576.00 44.17" xmlns="http://www.w3.org/2000/svg" xmlns:xlink="http://www.w3.org/1999/xlink">
<g id="graph0" class="graph" transform="scale(2.26 2.26) rotate(0) translate(4 96)">
<title>inheritancecc0aae58a9</title>
<polygon fill="white" stroke="transparent" points="-4,4 -4,-96 1300,-96 1300,4 -4,4"/>
<!-- pyGHDL.dom.DOMMixin -->
<g id="node1" class="node">
<title>pyGHDL.dom.DOMMixin</title>
<g id="a_node1"><a xlink:href="../pyGHDL.dom.html#pyGHDL.dom.DOMMixin" xlink:title="pyGHDL.dom.DOMMixin" target="_top">
<polygon fill="none" stroke="black" stroke-width="0.5" points="932,-92 797,-92 797,-73 932,-73 932,-92"/>
<text text-anchor="middle" x="864.5" y="-80" font-family="Vera Sans, DejaVu Sans, Liberation Sans, Arial, Helvetica, sans" font-size="10.00">pyGHDL.dom.DOMMixin</text>
</a>
</g>
</g>
<!-- pyGHDL.dom.Sequential.SequentialProcedureCall -->
<g id="node2" class="node">
<title>pyGHDL.dom.Sequential.SequentialProcedureCall</title>
<g id="a_node2"><a xlink:href="../pyGHDL/pyGHDL.dom.Sequential.html#pyGHDL.dom.Sequential.SequentialProcedureCall" xlink:title="pyGHDL.dom.Sequential.SequentialProcedureCall" target="_top">
<polygon fill="none" stroke="black" stroke-width="0.5" points="1296,-73 1038,-73 1038,-54 1296,-54 1296,-73"/>
<text text-anchor="middle" x="1167" y="-61" font-family="Vera Sans, DejaVu Sans, Liberation Sans, Arial, Helvetica, sans" font-size="10.00">pyGHDL.dom.Sequential.SequentialProcedureCall</text>
</a>
</g>
</g>
<!-- pyGHDL.dom.DOMMixin&#45;&gt;pyGHDL.dom.Sequential.SequentialProcedureCall -->
<g id="edge2" class="edge">
<title>pyGHDL.dom.DOMMixin&#45;&gt;pyGHDL.dom.Sequential.SequentialProcedureCall</title>
<path fill="none" stroke="black" stroke-width="0.5" d="M932.19,-78.28C961.86,-76.41 997.89,-74.13 1032.7,-71.93"/>
<polygon fill="black" stroke="black" stroke-width="0.5" points="1032.95,-73.67 1037.83,-71.6 1032.73,-70.17 1032.95,-73.67"/>
</g>
<!-- pyVHDLModel.SyntaxModel.SequentialProcedureCall -->
<g id="node3" class="node">
<title>pyVHDLModel.SyntaxModel.SequentialProcedureCall</title>
<polygon fill="none" stroke="black" stroke-width="0.5" points="1002,-55 727,-55 727,-36 1002,-36 1002,-55"/>
<text text-anchor="middle" x="864.5" y="-43" font-family="Vera Sans, DejaVu Sans, Liberation Sans, Arial, Helvetica, sans" font-size="10.00">pyVHDLModel.SyntaxModel.SequentialProcedureCall</text>
</g>
<!-- pyVHDLModel.SyntaxModel.SequentialProcedureCall&#45;&gt;pyGHDL.dom.Sequential.SequentialProcedureCall -->
<g id="edge1" class="edge">
<title>pyVHDLModel.SyntaxModel.SequentialProcedureCall&#45;&gt;pyGHDL.dom.Sequential.SequentialProcedureCall</title>
<path fill="none" stroke="black" stroke-width="0.5" d="M1002.12,-53.68C1012.38,-54.3 1022.73,-54.92 1032.96,-55.53"/>
<polygon fill="black" stroke="black" stroke-width="0.5" points="1032.88,-57.28 1037.98,-55.83 1033.09,-53.79 1032.88,-57.28"/>
</g>
<!-- pyVHDLModel.LabeledEntity -->
<g id="node4" class="node">
<title>pyVHDLModel.LabeledEntity</title>
<g id="a_node4"><a xlink:title="A ``LabeledEntity`` is a mixin class for all VHDL entities that can have">
<polygon fill="none" stroke="black" stroke-width="0.5" points="155,-56 0,-56 0,-37 155,-37 155,-56"/>
<text text-anchor="middle" x="77.5" y="-44" font-family="Vera Sans, DejaVu Sans, Liberation Sans, Arial, Helvetica, sans" font-size="10.00">pyVHDLModel.LabeledEntity</text>
</a>
</g>
</g>
<!-- pyVHDLModel.SyntaxModel.Statement -->
<g id="node8" class="node">
<title>pyVHDLModel.SyntaxModel.Statement</title>
<polygon fill="none" stroke="black" stroke-width="0.5" points="397,-37 191,-37 191,-18 397,-18 397,-37"/>
<text text-anchor="middle" x="294" y="-25" font-family="Vera Sans, DejaVu Sans, Liberation Sans, Arial, Helvetica, sans" font-size="10.00">pyVHDLModel.SyntaxModel.Statement</text>
</g>
<!-- pyVHDLModel.LabeledEntity&#45;&gt;pyVHDLModel.SyntaxModel.Statement -->
<g id="edge7" class="edge">
<title>pyVHDLModel.LabeledEntity&#45;&gt;pyVHDLModel.SyntaxModel.Statement</title>
<path fill="none" stroke="black" stroke-width="0.5" d="M155.03,-39.72C164.96,-38.84 175.27,-37.93 185.58,-37.02"/>
<polygon fill="black" stroke="black" stroke-width="0.5" points="185.81,-38.75 190.64,-36.57 185.5,-35.27 185.81,-38.75"/>
</g>
<!-- pyVHDLModel.ModelEntity -->
<g id="node5" class="node">
<title>pyVHDLModel.ModelEntity</title>
<g id="a_node5"><a xlink:title="``ModelEntity`` is the base class for all classes in the VHDL language model,">
<polygon fill="none" stroke="black" stroke-width="0.5" points="151,-19 4,-19 4,0 151,0 151,-19"/>
<text text-anchor="middle" x="77.5" y="-7" font-family="Vera Sans, DejaVu Sans, Liberation Sans, Arial, Helvetica, sans" font-size="10.00">pyVHDLModel.ModelEntity</text>
</a>
</g>
</g>
<!-- pyVHDLModel.ModelEntity&#45;&gt;pyVHDLModel.SyntaxModel.Statement -->
<g id="edge6" class="edge">
<title>pyVHDLModel.ModelEntity&#45;&gt;pyVHDLModel.SyntaxModel.Statement</title>
<path fill="none" stroke="black" stroke-width="0.5" d="M151.12,-15.59C162.29,-16.53 174.01,-17.52 185.74,-18.5"/>
<polygon fill="black" stroke="black" stroke-width="0.5" points="185.64,-20.25 190.77,-18.92 185.93,-16.76 185.64,-20.25"/>
</g>
<!-- pyVHDLModel.SyntaxModel.ProcedureCall -->
<g id="node6" class="node">
<title>pyVHDLModel.SyntaxModel.ProcedureCall</title>
<polygon fill="none" stroke="black" stroke-width="0.5" points="673.5,-74 450.5,-74 450.5,-55 673.5,-55 673.5,-74"/>
<text text-anchor="middle" x="562" y="-62" font-family="Vera Sans, DejaVu Sans, Liberation Sans, Arial, Helvetica, sans" font-size="10.00">pyVHDLModel.SyntaxModel.ProcedureCall</text>
</g>
<!-- pyVHDLModel.SyntaxModel.ProcedureCall&#45;&gt;pyVHDLModel.SyntaxModel.SequentialProcedureCall -->
<g id="edge4" class="edge">
<title>pyVHDLModel.SyntaxModel.ProcedureCall&#45;&gt;pyVHDLModel.SyntaxModel.SequentialProcedureCall</title>
<path fill="none" stroke="black" stroke-width="0.5" d="M673.61,-57.51C689.31,-56.51 705.63,-55.48 721.82,-54.46"/>
<polygon fill="black" stroke="black" stroke-width="0.5" points="721.95,-56.2 726.83,-54.14 721.73,-52.71 721.95,-56.2"/>
</g>
<!-- pyVHDLModel.SyntaxModel.SequentialStatement -->
<g id="node7" class="node">
<title>pyVHDLModel.SyntaxModel.SequentialStatement</title>
<g id="a_node7"><a xlink:title="A ``SequentialStatement`` is a base&#45;class for all sequential statements.">
<polygon fill="none" stroke="black" stroke-width="0.5" points="691,-37 433,-37 433,-18 691,-18 691,-37"/>
<text text-anchor="middle" x="562" y="-25" font-family="Vera Sans, DejaVu Sans, Liberation Sans, Arial, Helvetica, sans" font-size="10.00">pyVHDLModel.SyntaxModel.SequentialStatement</text>
</a>
</g>
</g>
<!-- pyVHDLModel.SyntaxModel.SequentialStatement&#45;&gt;pyVHDLModel.SyntaxModel.SequentialProcedureCall -->
<g id="edge3" class="edge">
<title>pyVHDLModel.SyntaxModel.SequentialStatement&#45;&gt;pyVHDLModel.SyntaxModel.SequentialProcedureCall</title>
<path fill="none" stroke="black" stroke-width="0.5" d="M691.31,-35.19C701.46,-35.79 711.74,-36.41 721.96,-37.02"/>
<polygon fill="black" stroke="black" stroke-width="0.5" points="721.88,-38.77 726.98,-37.32 722.09,-35.28 721.88,-38.77"/>
</g>
<!-- pyVHDLModel.SyntaxModel.Statement&#45;&gt;pyVHDLModel.SyntaxModel.SequentialStatement -->
<g id="edge5" class="edge">
<title>pyVHDLModel.SyntaxModel.Statement&#45;&gt;pyVHDLModel.SyntaxModel.SequentialStatement</title>
<path fill="none" stroke="black" stroke-width="0.5" d="M397.08,-27.5C407.15,-27.5 417.48,-27.5 427.8,-27.5"/>
<polygon fill="black" stroke="black" stroke-width="0.5" points="427.87,-29.25 432.87,-27.5 427.87,-25.75 427.87,-29.25"/>
</g>
</g>
</svg>
