<?xml version="1.0" encoding="UTF-8" standalone="no"?>
<!DOCTYPE svg PUBLIC "-//W3C//DTD SVG 1.1//EN"
 "http://www.w3.org/Graphics/SVG/1.1/DTD/svg11.dtd">
<!-- Generated by graphviz version 2.43.0 (0)
 -->
<!-- Title: inheritance603f005e44 Pages: 1 -->
<svg width="576pt" height="25pt"
 viewBox="0.00 0.00 576.00 24.57" xmlns="http://www.w3.org/2000/svg" xmlns:xlink="http://www.w3.org/1999/xlink">
<g id="graph0" class="graph" transform="scale(1.1 1.1) rotate(0) translate(4 23)">
<title>inheritance603f005e44</title>
<polygon fill="white" stroke="transparent" points="-4,4 -4,-23 629,-23 629,4 -4,4"/>
<!-- pyGHDL.dom.NonStandard.Document -->
<g id="node1" class="node">
<title>pyGHDL.dom.NonStandard.Document</title>
<g id="a_node1"><a xlink:href="../pyGHDL/pyGHDL.dom.NonStandard.html#pyGHDL.dom.NonStandard.Document" xlink:title="pyGHDL.dom.NonStandard.Document" target="_top">
<polygon fill="none" stroke="black" stroke-width="0.5" points="625,-19 425,-19 425,0 625,0 625,-19"/>
<text text-anchor="middle" x="525" y="-7" font-family="Vera Sans, DejaVu Sans, Liberation Sans, Arial, Helvetica, sans" font-size="10.00">pyGHDL.dom.NonStandard.Document</text>
</a>
</g>
</g>
<!-- pyVHDLModel.SyntaxModel.Document -->
<g id="node2" class="node">
<title>pyVHDLModel.SyntaxModel.Document</title>
<g id="a_node2"><a xlink:title="A ``Document`` represents a sourcefile. It contains primary and secondary">
<polygon fill="none" stroke="black" stroke-width="0.5" points="389,-19 183,-19 183,0 389,0 389,-19"/>
<text text-anchor="middle" x="286" y="-7" font-family="Vera Sans, DejaVu Sans, Liberation Sans, Arial, Helvetica, sans" font-size="10.00">pyVHDLModel.SyntaxModel.Document</text>
</a>
</g>
</g>
<!-- pyVHDLModel.SyntaxModel.Document&#45;&gt;pyGHDL.dom.NonStandard.Document -->
<g id="edge1" class="edge">
<title>pyVHDLModel.SyntaxModel.Document&#45;&gt;pyGHDL.dom.NonStandard.Document</title>
<path fill="none" stroke="black" stroke-width="0.5" d="M389.23,-9.5C399.26,-9.5 409.44,-9.5 419.49,-9.5"/>
<polygon fill="black" stroke="black" stroke-width="0.5" points="419.74,-11.25 424.74,-9.5 419.74,-7.75 419.74,-11.25"/>
</g>
<!-- pyVHDLModel.ModelEntity -->
<g id="node3" class="node">
<title>pyVHDLModel.ModelEntity</title>
<g id="a_node3"><a xlink:title="``ModelEntity`` is the base class for all classes in the VHDL language model,">
<polygon fill="none" stroke="black" stroke-width="0.5" points="147,-19 0,-19 0,0 147,0 147,-19"/>
<text text-anchor="middle" x="73.5" y="-7" font-family="Vera Sans, DejaVu Sans, Liberation Sans, Arial, Helvetica, sans" font-size="10.00">pyVHDLModel.ModelEntity</text>
</a>
</g>
</g>
<!-- pyVHDLModel.ModelEntity&#45;&gt;pyVHDLModel.SyntaxModel.Document -->
<g id="edge2" class="edge">
<title>pyVHDLModel.ModelEntity&#45;&gt;pyVHDLModel.SyntaxModel.Document</title>
<path fill="none" stroke="black" stroke-width="0.5" d="M147.24,-9.5C157.14,-9.5 167.48,-9.5 177.83,-9.5"/>
<polygon fill="black" stroke="black" stroke-width="0.5" points="177.92,-11.25 182.92,-9.5 177.92,-7.75 177.92,-11.25"/>
</g>
</g>
</svg>
