<?xml version="1.0" encoding="UTF-8" standalone="no"?>
<!DOCTYPE svg PUBLIC "-//W3C//DTD SVG 1.1//EN"
 "http://www.w3.org/Graphics/SVG/1.1/DTD/svg11.dtd">
<!-- Generated by graphviz version 2.43.0 (0)
 -->
<!-- Title: inheritanceed1c6525ec Pages: 1 -->
<svg width="576pt" height="53pt"
 viewBox="0.00 0.00 576.00 53.01" xmlns="http://www.w3.org/2000/svg" xmlns:xlink="http://www.w3.org/1999/xlink">
<g id="graph0" class="graph" transform="scale(1.55 1.55) rotate(0) translate(4 78)">
<title>inheritanceed1c6525ec</title>
<polygon fill="white" stroke="transparent" points="-4,4 -4,-78 887,-78 887,4 -4,4"/>
<!-- pyGHDL.dom.DOMMixin -->
<g id="node1" class="node">
<title>pyGHDL.dom.DOMMixin</title>
<g id="a_node1"><a xlink:href="../pyGHDL.dom.html#pyGHDL.dom.DOMMixin" xlink:title="pyGHDL.dom.DOMMixin" target="_top">
<polygon fill="none" stroke="black" stroke-width="0.5" points="617.5,-74 482.5,-74 482.5,-55 617.5,-55 617.5,-74"/>
<text text-anchor="middle" x="550" y="-62" font-family="Vera Sans, DejaVu Sans, Liberation Sans, Arial, Helvetica, sans" font-size="10.00">pyGHDL.dom.DOMMixin</text>
</a>
</g>
</g>
<!-- pyGHDL.dom.Subprogram.Procedure -->
<g id="node2" class="node">
<title>pyGHDL.dom.Subprogram.Procedure</title>
<g id="a_node2"><a xlink:href="../pyGHDL/pyGHDL.dom.Subprogram.html#pyGHDL.dom.Subprogram.Procedure" xlink:title="pyGHDL.dom.Subprogram.Procedure" target="_top">
<polygon fill="none" stroke="black" stroke-width="0.5" points="883,-55 688,-55 688,-36 883,-36 883,-55"/>
<text text-anchor="middle" x="785.5" y="-43" font-family="Vera Sans, DejaVu Sans, Liberation Sans, Arial, Helvetica, sans" font-size="10.00">pyGHDL.dom.Subprogram.Procedure</text>
</a>
</g>
</g>
<!-- pyGHDL.dom.DOMMixin&#45;&gt;pyGHDL.dom.Subprogram.Procedure -->
<g id="edge2" class="edge">
<title>pyGHDL.dom.DOMMixin&#45;&gt;pyGHDL.dom.Subprogram.Procedure</title>
<path fill="none" stroke="black" stroke-width="0.5" d="M617.6,-59.08C637.9,-57.43 660.7,-55.57 682.77,-53.78"/>
<polygon fill="black" stroke="black" stroke-width="0.5" points="682.92,-55.52 687.77,-53.37 682.64,-52.03 682.92,-55.52"/>
</g>
<!-- pyVHDLModel.SyntaxModel.Procedure -->
<g id="node3" class="node">
<title>pyVHDLModel.SyntaxModel.Procedure</title>
<polygon fill="none" stroke="black" stroke-width="0.5" points="652,-37 448,-37 448,-18 652,-18 652,-37"/>
<text text-anchor="middle" x="550" y="-25" font-family="Vera Sans, DejaVu Sans, Liberation Sans, Arial, Helvetica, sans" font-size="10.00">pyVHDLModel.SyntaxModel.Procedure</text>
</g>
<!-- pyVHDLModel.SyntaxModel.Procedure&#45;&gt;pyGHDL.dom.Subprogram.Procedure -->
<g id="edge1" class="edge">
<title>pyVHDLModel.SyntaxModel.Procedure&#45;&gt;pyGHDL.dom.Subprogram.Procedure</title>
<path fill="none" stroke="black" stroke-width="0.5" d="M652.06,-35.29C662.13,-36.07 672.37,-36.86 682.46,-37.63"/>
<polygon fill="black" stroke="black" stroke-width="0.5" points="682.59,-39.4 687.71,-38.04 682.86,-35.91 682.59,-39.4"/>
</g>
<!-- pyVHDLModel.ModelEntity -->
<g id="node4" class="node">
<title>pyVHDLModel.ModelEntity</title>
<g id="a_node4"><a xlink:title="``ModelEntity`` is the base class for all classes in the VHDL language model,">
<polygon fill="none" stroke="black" stroke-width="0.5" points="149.5,-56 2.5,-56 2.5,-37 149.5,-37 149.5,-56"/>
<text text-anchor="middle" x="76" y="-44" font-family="Vera Sans, DejaVu Sans, Liberation Sans, Arial, Helvetica, sans" font-size="10.00">pyVHDLModel.ModelEntity</text>
</a>
</g>
</g>
<!-- pyVHDLModel.SyntaxModel.SubProgramm -->
<g id="node6" class="node">
<title>pyVHDLModel.SyntaxModel.SubProgramm</title>
<polygon fill="none" stroke="black" stroke-width="0.5" points="412,-37 188,-37 188,-18 412,-18 412,-37"/>
<text text-anchor="middle" x="300" y="-25" font-family="Vera Sans, DejaVu Sans, Liberation Sans, Arial, Helvetica, sans" font-size="10.00">pyVHDLModel.SyntaxModel.SubProgramm</text>
</g>
<!-- pyVHDLModel.ModelEntity&#45;&gt;pyVHDLModel.SyntaxModel.SubProgramm -->
<g id="edge4" class="edge">
<title>pyVHDLModel.ModelEntity&#45;&gt;pyVHDLModel.SyntaxModel.SubProgramm</title>
<path fill="none" stroke="black" stroke-width="0.5" d="M149.69,-40.28C160.33,-39.37 171.5,-38.41 182.74,-37.45"/>
<polygon fill="black" stroke="black" stroke-width="0.5" points="183.08,-39.18 187.91,-37.01 182.78,-35.69 183.08,-39.18"/>
</g>
<!-- pyVHDLModel.NamedEntity -->
<g id="node5" class="node">
<title>pyVHDLModel.NamedEntity</title>
<g id="a_node5"><a xlink:title="A ``NamedEntity`` is a mixin class for all VHDL entities that have identifiers.">
<polygon fill="none" stroke="black" stroke-width="0.5" points="152,-19 0,-19 0,0 152,0 152,-19"/>
<text text-anchor="middle" x="76" y="-7" font-family="Vera Sans, DejaVu Sans, Liberation Sans, Arial, Helvetica, sans" font-size="10.00">pyVHDLModel.NamedEntity</text>
</a>
</g>
</g>
<!-- pyVHDLModel.NamedEntity&#45;&gt;pyVHDLModel.SyntaxModel.SubProgramm -->
<g id="edge5" class="edge">
<title>pyVHDLModel.NamedEntity&#45;&gt;pyVHDLModel.SyntaxModel.SubProgramm</title>
<path fill="none" stroke="black" stroke-width="0.5" d="M152.16,-15.59C162,-16.39 172.25,-17.22 182.57,-18.06"/>
<polygon fill="black" stroke="black" stroke-width="0.5" points="182.52,-19.81 187.64,-18.47 182.8,-16.32 182.52,-19.81"/>
</g>
<!-- pyVHDLModel.SyntaxModel.SubProgramm&#45;&gt;pyVHDLModel.SyntaxModel.Procedure -->
<g id="edge3" class="edge">
<title>pyVHDLModel.SyntaxModel.SubProgramm&#45;&gt;pyVHDLModel.SyntaxModel.Procedure</title>
<path fill="none" stroke="black" stroke-width="0.5" d="M412.3,-27.5C422.39,-27.5 432.59,-27.5 442.64,-27.5"/>
<polygon fill="black" stroke="black" stroke-width="0.5" points="442.87,-29.25 447.87,-27.5 442.87,-25.75 442.87,-29.25"/>
</g>
</g>
</svg>
