<?xml version="1.0" encoding="UTF-8" standalone="no"?>
<!DOCTYPE svg PUBLIC "-//W3C//DTD SVG 1.1//EN"
 "http://www.w3.org/Graphics/SVG/1.1/DTD/svg11.dtd">
<!-- Generated by graphviz version 2.43.0 (0)
 -->
<!-- Title: inheritance7a8a17389e Pages: 1 -->
<svg width="576pt" height="31pt"
 viewBox="0.00 0.00 576.00 31.32" xmlns="http://www.w3.org/2000/svg" xmlns:xlink="http://www.w3.org/1999/xlink">
<g id="graph0" class="graph" transform="scale(2.04 2.04) rotate(0) translate(4 60)">
<title>inheritance7a8a17389e</title>
<polygon fill="white" stroke="transparent" points="-4,4 -4,-60 1173,-60 1173,4 -4,4"/>
<!-- pyGHDL.dom.DOMMixin -->
<g id="node1" class="node">
<title>pyGHDL.dom.DOMMixin</title>
<g id="a_node1"><a xlink:href="../pyGHDL.dom.html#pyGHDL.dom.DOMMixin" xlink:title="pyGHDL.dom.DOMMixin" target="_top">
<polygon fill="none" stroke="black" stroke-width="0.5" points="865.5,-56 730.5,-56 730.5,-37 865.5,-37 865.5,-56"/>
<text text-anchor="middle" x="798" y="-44" font-family="Vera Sans, DejaVu Sans, Liberation Sans, Arial, Helvetica, sans" font-size="10.00">pyGHDL.dom.DOMMixin</text>
</a>
</g>
</g>
<!-- pyGHDL.dom.Literal.EnumerationLiteral -->
<g id="node2" class="node">
<title>pyGHDL.dom.Literal.EnumerationLiteral</title>
<g id="a_node2"><a xlink:href="../pyGHDL/pyGHDL.dom.Literal.html#pyGHDL.dom.Literal.EnumerationLiteral" xlink:title="pyGHDL.dom.Literal.EnumerationLiteral" target="_top">
<polygon fill="none" stroke="black" stroke-width="0.5" points="1169,-37 958,-37 958,-18 1169,-18 1169,-37"/>
<text text-anchor="middle" x="1063.5" y="-25" font-family="Vera Sans, DejaVu Sans, Liberation Sans, Arial, Helvetica, sans" font-size="10.00">pyGHDL.dom.Literal.EnumerationLiteral</text>
</a>
</g>
</g>
<!-- pyGHDL.dom.DOMMixin&#45;&gt;pyGHDL.dom.Literal.EnumerationLiteral -->
<g id="edge2" class="edge">
<title>pyGHDL.dom.DOMMixin&#45;&gt;pyGHDL.dom.Literal.EnumerationLiteral</title>
<path fill="none" stroke="black" stroke-width="0.5" d="M865.83,-41.68C892.21,-39.78 923.21,-37.54 952.71,-35.42"/>
<polygon fill="black" stroke="black" stroke-width="0.5" points="952.95,-37.15 957.81,-35.05 952.7,-33.66 952.95,-37.15"/>
</g>
<!-- pyVHDLModel.SyntaxModel.EnumerationLiteral -->
<g id="node3" class="node">
<title>pyVHDLModel.SyntaxModel.EnumerationLiteral</title>
<polygon fill="none" stroke="black" stroke-width="0.5" points="922,-19 674,-19 674,0 922,0 922,-19"/>
<text text-anchor="middle" x="798" y="-7" font-family="Vera Sans, DejaVu Sans, Liberation Sans, Arial, Helvetica, sans" font-size="10.00">pyVHDLModel.SyntaxModel.EnumerationLiteral</text>
</g>
<!-- pyVHDLModel.SyntaxModel.EnumerationLiteral&#45;&gt;pyGHDL.dom.Literal.EnumerationLiteral -->
<g id="edge1" class="edge">
<title>pyVHDLModel.SyntaxModel.EnumerationLiteral&#45;&gt;pyGHDL.dom.Literal.EnumerationLiteral</title>
<path fill="none" stroke="black" stroke-width="0.5" d="M922.26,-17.92C932.41,-18.61 942.63,-19.31 952.68,-20"/>
<polygon fill="black" stroke="black" stroke-width="0.5" points="952.81,-21.76 957.91,-20.36 953.04,-18.27 952.81,-21.76"/>
</g>
<!-- pyVHDLModel.ModelEntity -->
<g id="node4" class="node">
<title>pyVHDLModel.ModelEntity</title>
<g id="a_node4"><a xlink:title="``ModelEntity`` is the base class for all classes in the VHDL language model,">
<polygon fill="none" stroke="black" stroke-width="0.5" points="147,-19 0,-19 0,0 147,0 147,-19"/>
<text text-anchor="middle" x="73.5" y="-7" font-family="Vera Sans, DejaVu Sans, Liberation Sans, Arial, Helvetica, sans" font-size="10.00">pyVHDLModel.ModelEntity</text>
</a>
</g>
</g>
<!-- pyVHDLModel.SyntaxModel.BaseExpression -->
<g id="node5" class="node">
<title>pyVHDLModel.SyntaxModel.BaseExpression</title>
<g id="a_node5"><a xlink:title="A ``BaseExpression`` is a base&#45;class for all expressions.">
<polygon fill="none" stroke="black" stroke-width="0.5" points="416,-19 183,-19 183,0 416,0 416,-19"/>
<text text-anchor="middle" x="299.5" y="-7" font-family="Vera Sans, DejaVu Sans, Liberation Sans, Arial, Helvetica, sans" font-size="10.00">pyVHDLModel.SyntaxModel.BaseExpression</text>
</a>
</g>
</g>
<!-- pyVHDLModel.ModelEntity&#45;&gt;pyVHDLModel.SyntaxModel.BaseExpression -->
<g id="edge3" class="edge">
<title>pyVHDLModel.ModelEntity&#45;&gt;pyVHDLModel.SyntaxModel.BaseExpression</title>
<path fill="none" stroke="black" stroke-width="0.5" d="M147.23,-9.5C157,-9.5 167.22,-9.5 177.55,-9.5"/>
<polygon fill="black" stroke="black" stroke-width="0.5" points="177.63,-11.25 182.63,-9.5 177.63,-7.75 177.63,-11.25"/>
</g>
<!-- pyVHDLModel.SyntaxModel.Literal -->
<g id="node6" class="node">
<title>pyVHDLModel.SyntaxModel.Literal</title>
<g id="a_node6"><a xlink:title="A ``Literal`` is a base&#45;class for all literals.">
<polygon fill="none" stroke="black" stroke-width="0.5" points="638,-19 452,-19 452,0 638,0 638,-19"/>
<text text-anchor="middle" x="545" y="-7" font-family="Vera Sans, DejaVu Sans, Liberation Sans, Arial, Helvetica, sans" font-size="10.00">pyVHDLModel.SyntaxModel.Literal</text>
</a>
</g>
</g>
<!-- pyVHDLModel.SyntaxModel.BaseExpression&#45;&gt;pyVHDLModel.SyntaxModel.Literal -->
<g id="edge5" class="edge">
<title>pyVHDLModel.SyntaxModel.BaseExpression&#45;&gt;pyVHDLModel.SyntaxModel.Literal</title>
<path fill="none" stroke="black" stroke-width="0.5" d="M416.19,-9.5C426.32,-9.5 436.52,-9.5 446.48,-9.5"/>
<polygon fill="black" stroke="black" stroke-width="0.5" points="446.67,-11.25 451.67,-9.5 446.67,-7.75 446.67,-11.25"/>
</g>
<!-- pyVHDLModel.SyntaxModel.Literal&#45;&gt;pyVHDLModel.SyntaxModel.EnumerationLiteral -->
<g id="edge4" class="edge">
<title>pyVHDLModel.SyntaxModel.Literal&#45;&gt;pyVHDLModel.SyntaxModel.EnumerationLiteral</title>
<path fill="none" stroke="black" stroke-width="0.5" d="M638.04,-9.5C648.02,-9.5 658.3,-9.5 668.61,-9.5"/>
<polygon fill="black" stroke="black" stroke-width="0.5" points="668.67,-11.25 673.67,-9.5 668.67,-7.75 668.67,-11.25"/>
</g>
</g>
</svg>
