<?xml version="1.0" encoding="UTF-8" standalone="no"?>
<!DOCTYPE svg PUBLIC "-//W3C//DTD SVG 1.1//EN"
 "http://www.w3.org/Graphics/SVG/1.1/DTD/svg11.dtd">
<!-- Generated by graphviz version 2.43.0 (0)
 -->
<!-- Title: inheritance5b6481f739 Pages: 1 -->
<svg width="576pt" height="51pt"
 viewBox="0.00 0.00 576.00 51.06" xmlns="http://www.w3.org/2000/svg" xmlns:xlink="http://www.w3.org/1999/xlink">
<g id="graph0" class="graph" transform="scale(1.25 1.25) rotate(0) translate(4 60)">
<title>inheritance5b6481f739</title>
<polygon fill="white" stroke="transparent" points="-4,4 -4,-60 718,-60 718,4 -4,4"/>
<!-- pyGHDL.dom.Attribute.AttributeSpecification -->
<g id="node1" class="node">
<title>pyGHDL.dom.Attribute.AttributeSpecification</title>
<g id="a_node1"><a xlink:href="../pyGHDL/pyGHDL.dom.Attribute.html#pyGHDL.dom.Attribute.AttributeSpecification" xlink:title="pyGHDL.dom.Attribute.AttributeSpecification" target="_top">
<polygon fill="none" stroke="black" stroke-width="0.5" points="714,-37 479,-37 479,-18 714,-18 714,-37"/>
<text text-anchor="middle" x="596.5" y="-25" font-family="Vera Sans, DejaVu Sans, Liberation Sans, Arial, Helvetica, sans" font-size="10.00">pyGHDL.dom.Attribute.AttributeSpecification</text>
</a>
</g>
</g>
<!-- pyVHDLModel.SyntaxModel.AttributeSpecification -->
<g id="node2" class="node">
<title>pyVHDLModel.SyntaxModel.AttributeSpecification</title>
<polygon fill="none" stroke="black" stroke-width="0.5" points="443,-56 183,-56 183,-37 443,-37 443,-56"/>
<text text-anchor="middle" x="313" y="-44" font-family="Vera Sans, DejaVu Sans, Liberation Sans, Arial, Helvetica, sans" font-size="10.00">pyVHDLModel.SyntaxModel.AttributeSpecification</text>
</g>
<!-- pyVHDLModel.SyntaxModel.AttributeSpecification&#45;&gt;pyGHDL.dom.Attribute.AttributeSpecification -->
<g id="edge1" class="edge">
<title>pyVHDLModel.SyntaxModel.AttributeSpecification&#45;&gt;pyGHDL.dom.Attribute.AttributeSpecification</title>
<path fill="none" stroke="black" stroke-width="0.5" d="M443.22,-37.78C453.31,-37.1 463.48,-36.41 473.52,-35.73"/>
<polygon fill="black" stroke="black" stroke-width="0.5" points="473.89,-37.46 478.76,-35.38 473.65,-33.97 473.89,-37.46"/>
</g>
<!-- pyGHDL.dom.DOMMixin -->
<g id="node3" class="node">
<title>pyGHDL.dom.DOMMixin</title>
<g id="a_node3"><a xlink:href="../pyGHDL.dom.html#pyGHDL.dom.DOMMixin" xlink:title="pyGHDL.dom.DOMMixin" target="_top">
<polygon fill="none" stroke="black" stroke-width="0.5" points="380.5,-19 245.5,-19 245.5,0 380.5,0 380.5,-19"/>
<text text-anchor="middle" x="313" y="-7" font-family="Vera Sans, DejaVu Sans, Liberation Sans, Arial, Helvetica, sans" font-size="10.00">pyGHDL.dom.DOMMixin</text>
</a>
</g>
</g>
<!-- pyGHDL.dom.DOMMixin&#45;&gt;pyGHDL.dom.Attribute.AttributeSpecification -->
<g id="edge2" class="edge">
<title>pyGHDL.dom.DOMMixin&#45;&gt;pyGHDL.dom.Attribute.AttributeSpecification</title>
<path fill="none" stroke="black" stroke-width="0.5" d="M380.71,-13.77C408.57,-15.55 441.83,-17.67 473.77,-19.72"/>
<polygon fill="black" stroke="black" stroke-width="0.5" points="473.78,-21.47 478.88,-20.04 474,-17.98 473.78,-21.47"/>
</g>
<!-- pyVHDLModel.ModelEntity -->
<g id="node4" class="node">
<title>pyVHDLModel.ModelEntity</title>
<g id="a_node4"><a xlink:title="``ModelEntity`` is the base class for all classes in the VHDL language model,">
<polygon fill="none" stroke="black" stroke-width="0.5" points="147,-56 0,-56 0,-37 147,-37 147,-56"/>
<text text-anchor="middle" x="73.5" y="-44" font-family="Vera Sans, DejaVu Sans, Liberation Sans, Arial, Helvetica, sans" font-size="10.00">pyVHDLModel.ModelEntity</text>
</a>
</g>
</g>
<!-- pyVHDLModel.ModelEntity&#45;&gt;pyVHDLModel.SyntaxModel.AttributeSpecification -->
<g id="edge3" class="edge">
<title>pyVHDLModel.ModelEntity&#45;&gt;pyVHDLModel.SyntaxModel.AttributeSpecification</title>
<path fill="none" stroke="black" stroke-width="0.5" d="M147.05,-46.5C156.9,-46.5 167.25,-46.5 177.76,-46.5"/>
<polygon fill="black" stroke="black" stroke-width="0.5" points="177.93,-48.25 182.93,-46.5 177.93,-44.75 177.93,-48.25"/>
</g>
</g>
</svg>
