<?xml version="1.0" encoding="UTF-8" standalone="no"?>
<!DOCTYPE svg PUBLIC "-//W3C//DTD SVG 1.1//EN"
 "http://www.w3.org/Graphics/SVG/1.1/DTD/svg11.dtd">
<!-- Generated by graphviz version 2.43.0 (0)
 -->
<!-- Title: inheritance7768573f95 Pages: 1 -->
<svg width="576pt" height="39pt"
 viewBox="0.00 0.00 576.00 39.16" xmlns="http://www.w3.org/2000/svg" xmlns:xlink="http://www.w3.org/1999/xlink">
<g id="graph0" class="graph" transform="scale(2.09 2.09) rotate(0) translate(4 78)">
<title>inheritance7768573f95</title>
<polygon fill="white" stroke="transparent" points="-4,4 -4,-78 1202,-78 1202,4 -4,4"/>
<!-- pyGHDL.dom.DOMMixin -->
<g id="node1" class="node">
<title>pyGHDL.dom.DOMMixin</title>
<g id="a_node1"><a xlink:href="../pyGHDL.dom.html#pyGHDL.dom.DOMMixin" xlink:title="pyGHDL.dom.DOMMixin" target="_top">
<polygon fill="none" stroke="black" stroke-width="0.5" points="907.5,-74 772.5,-74 772.5,-55 907.5,-55 907.5,-74"/>
<text text-anchor="middle" x="840" y="-62" font-family="Vera Sans, DejaVu Sans, Liberation Sans, Arial, Helvetica, sans" font-size="10.00">pyGHDL.dom.DOMMixin</text>
</a>
</g>
</g>
<!-- pyGHDL.dom.Sequential.NullStatement -->
<g id="node2" class="node">
<title>pyGHDL.dom.Sequential.NullStatement</title>
<g id="a_node2"><a xlink:href="../pyGHDL/pyGHDL.dom.Sequential.html#pyGHDL.dom.Sequential.NullStatement" xlink:title="pyGHDL.dom.Sequential.NullStatement" target="_top">
<polygon fill="none" stroke="black" stroke-width="0.5" points="1198,-55 989,-55 989,-36 1198,-36 1198,-55"/>
<text text-anchor="middle" x="1093.5" y="-43" font-family="Vera Sans, DejaVu Sans, Liberation Sans, Arial, Helvetica, sans" font-size="10.00">pyGHDL.dom.Sequential.NullStatement</text>
</a>
</g>
</g>
<!-- pyGHDL.dom.DOMMixin&#45;&gt;pyGHDL.dom.Sequential.NullStatement -->
<g id="edge2" class="edge">
<title>pyGHDL.dom.DOMMixin&#45;&gt;pyGHDL.dom.Sequential.NullStatement</title>
<path fill="none" stroke="black" stroke-width="0.5" d="M907.74,-59.46C931.07,-57.7 957.9,-55.67 983.76,-53.72"/>
<polygon fill="black" stroke="black" stroke-width="0.5" points="984.06,-55.45 988.91,-53.33 983.8,-51.96 984.06,-55.45"/>
</g>
<!-- pyVHDLModel.SyntaxModel.NullStatement -->
<g id="node3" class="node">
<title>pyVHDLModel.SyntaxModel.NullStatement</title>
<polygon fill="none" stroke="black" stroke-width="0.5" points="953,-37 727,-37 727,-18 953,-18 953,-37"/>
<text text-anchor="middle" x="840" y="-25" font-family="Vera Sans, DejaVu Sans, Liberation Sans, Arial, Helvetica, sans" font-size="10.00">pyVHDLModel.SyntaxModel.NullStatement</text>
</g>
<!-- pyVHDLModel.SyntaxModel.NullStatement&#45;&gt;pyGHDL.dom.Sequential.NullStatement -->
<g id="edge1" class="edge">
<title>pyVHDLModel.SyntaxModel.NullStatement&#45;&gt;pyGHDL.dom.Sequential.NullStatement</title>
<path fill="none" stroke="black" stroke-width="0.5" d="M953.14,-35.53C963.39,-36.26 973.75,-37 983.96,-37.73"/>
<polygon fill="black" stroke="black" stroke-width="0.5" points="983.85,-39.48 988.96,-38.09 984.1,-35.99 983.85,-39.48"/>
</g>
<!-- pyVHDLModel.LabeledEntity -->
<g id="node4" class="node">
<title>pyVHDLModel.LabeledEntity</title>
<g id="a_node4"><a xlink:title="A ``LabeledEntity`` is a mixin class for all VHDL entities that can have">
<polygon fill="none" stroke="black" stroke-width="0.5" points="155,-56 0,-56 0,-37 155,-37 155,-56"/>
<text text-anchor="middle" x="77.5" y="-44" font-family="Vera Sans, DejaVu Sans, Liberation Sans, Arial, Helvetica, sans" font-size="10.00">pyVHDLModel.LabeledEntity</text>
</a>
</g>
</g>
<!-- pyVHDLModel.SyntaxModel.Statement -->
<g id="node7" class="node">
<title>pyVHDLModel.SyntaxModel.Statement</title>
<polygon fill="none" stroke="black" stroke-width="0.5" points="397,-37 191,-37 191,-18 397,-18 397,-37"/>
<text text-anchor="middle" x="294" y="-25" font-family="Vera Sans, DejaVu Sans, Liberation Sans, Arial, Helvetica, sans" font-size="10.00">pyVHDLModel.SyntaxModel.Statement</text>
</g>
<!-- pyVHDLModel.LabeledEntity&#45;&gt;pyVHDLModel.SyntaxModel.Statement -->
<g id="edge6" class="edge">
<title>pyVHDLModel.LabeledEntity&#45;&gt;pyVHDLModel.SyntaxModel.Statement</title>
<path fill="none" stroke="black" stroke-width="0.5" d="M155.03,-39.72C164.96,-38.84 175.27,-37.93 185.58,-37.02"/>
<polygon fill="black" stroke="black" stroke-width="0.5" points="185.81,-38.75 190.64,-36.57 185.5,-35.27 185.81,-38.75"/>
</g>
<!-- pyVHDLModel.ModelEntity -->
<g id="node5" class="node">
<title>pyVHDLModel.ModelEntity</title>
<g id="a_node5"><a xlink:title="``ModelEntity`` is the base class for all classes in the VHDL language model,">
<polygon fill="none" stroke="black" stroke-width="0.5" points="151,-19 4,-19 4,0 151,0 151,-19"/>
<text text-anchor="middle" x="77.5" y="-7" font-family="Vera Sans, DejaVu Sans, Liberation Sans, Arial, Helvetica, sans" font-size="10.00">pyVHDLModel.ModelEntity</text>
</a>
</g>
</g>
<!-- pyVHDLModel.ModelEntity&#45;&gt;pyVHDLModel.SyntaxModel.Statement -->
<g id="edge5" class="edge">
<title>pyVHDLModel.ModelEntity&#45;&gt;pyVHDLModel.SyntaxModel.Statement</title>
<path fill="none" stroke="black" stroke-width="0.5" d="M151.12,-15.59C162.29,-16.53 174.01,-17.52 185.74,-18.5"/>
<polygon fill="black" stroke="black" stroke-width="0.5" points="185.64,-20.25 190.77,-18.92 185.93,-16.76 185.64,-20.25"/>
</g>
<!-- pyVHDLModel.SyntaxModel.SequentialStatement -->
<g id="node6" class="node">
<title>pyVHDLModel.SyntaxModel.SequentialStatement</title>
<g id="a_node6"><a xlink:title="A ``SequentialStatement`` is a base&#45;class for all sequential statements.">
<polygon fill="none" stroke="black" stroke-width="0.5" points="691,-37 433,-37 433,-18 691,-18 691,-37"/>
<text text-anchor="middle" x="562" y="-25" font-family="Vera Sans, DejaVu Sans, Liberation Sans, Arial, Helvetica, sans" font-size="10.00">pyVHDLModel.SyntaxModel.SequentialStatement</text>
</a>
</g>
</g>
<!-- pyVHDLModel.SyntaxModel.SequentialStatement&#45;&gt;pyVHDLModel.SyntaxModel.NullStatement -->
<g id="edge3" class="edge">
<title>pyVHDLModel.SyntaxModel.SequentialStatement&#45;&gt;pyVHDLModel.SyntaxModel.NullStatement</title>
<path fill="none" stroke="black" stroke-width="0.5" d="M691.3,-27.5C701.37,-27.5 711.51,-27.5 721.5,-27.5"/>
<polygon fill="black" stroke="black" stroke-width="0.5" points="721.72,-29.25 726.72,-27.5 721.72,-25.75 721.72,-29.25"/>
</g>
<!-- pyVHDLModel.SyntaxModel.Statement&#45;&gt;pyVHDLModel.SyntaxModel.SequentialStatement -->
<g id="edge4" class="edge">
<title>pyVHDLModel.SyntaxModel.Statement&#45;&gt;pyVHDLModel.SyntaxModel.SequentialStatement</title>
<path fill="none" stroke="black" stroke-width="0.5" d="M397.08,-27.5C407.15,-27.5 417.48,-27.5 427.8,-27.5"/>
<polygon fill="black" stroke="black" stroke-width="0.5" points="427.87,-29.25 432.87,-27.5 427.87,-25.75 427.87,-29.25"/>
</g>
</g>
</svg>
