<?xml version="1.0" encoding="UTF-8" standalone="no"?>
<!DOCTYPE svg PUBLIC "-//W3C//DTD SVG 1.1//EN"
 "http://www.w3.org/Graphics/SVG/1.1/DTD/svg11.dtd">
<!-- Generated by graphviz version 2.43.0 (0)
 -->
<!-- Title: inheritance7fcc0d7335 Pages: 1 -->
<svg width="576pt" height="58pt"
 viewBox="0.00 0.00 576.00 58.02" xmlns="http://www.w3.org/2000/svg" xmlns:xlink="http://www.w3.org/1999/xlink">
<g id="graph0" class="graph" transform="scale(1.41 1.41) rotate(0) translate(4 78)">
<title>inheritance7fcc0d7335</title>
<polygon fill="white" stroke="transparent" points="-4,4 -4,-78 810,-78 810,4 -4,4"/>
<!-- pyGHDL.dom.DOMMixin -->
<g id="node1" class="node">
<title>pyGHDL.dom.DOMMixin</title>
<g id="a_node1"><a xlink:href="../pyGHDL.dom.html#pyGHDL.dom.DOMMixin" xlink:title="pyGHDL.dom.DOMMixin" target="_top">
<polygon fill="none" stroke="black" stroke-width="0.5" points="591,-74 456,-74 456,-55 591,-55 591,-74"/>
<text text-anchor="middle" x="523.5" y="-62" font-family="Vera Sans, DejaVu Sans, Liberation Sans, Arial, Helvetica, sans" font-size="10.00">pyGHDL.dom.DOMMixin</text>
</a>
</g>
</g>
<!-- pyGHDL.dom.Type.Subtype -->
<g id="node2" class="node">
<title>pyGHDL.dom.Type.Subtype</title>
<g id="a_node2"><a xlink:href="../pyGHDL/pyGHDL.dom.Type.html#pyGHDL.dom.Type.Subtype" xlink:title="pyGHDL.dom.Type.Subtype" target="_top">
<polygon fill="none" stroke="black" stroke-width="0.5" points="806,-55 657,-55 657,-36 806,-36 806,-55"/>
<text text-anchor="middle" x="731.5" y="-43" font-family="Vera Sans, DejaVu Sans, Liberation Sans, Arial, Helvetica, sans" font-size="10.00">pyGHDL.dom.Type.Subtype</text>
</a>
</g>
</g>
<!-- pyGHDL.dom.DOMMixin&#45;&gt;pyGHDL.dom.Type.Subtype -->
<g id="edge2" class="edge">
<title>pyGHDL.dom.DOMMixin&#45;&gt;pyGHDL.dom.Type.Subtype</title>
<path fill="none" stroke="black" stroke-width="0.5" d="M591.1,-58.36C610.39,-56.58 631.63,-54.62 651.6,-52.78"/>
<polygon fill="black" stroke="black" stroke-width="0.5" points="651.82,-54.51 656.64,-52.31 651.5,-51.03 651.82,-54.51"/>
</g>
<!-- pyVHDLModel.SyntaxModel.Subtype -->
<g id="node3" class="node">
<title>pyVHDLModel.SyntaxModel.Subtype</title>
<polygon fill="none" stroke="black" stroke-width="0.5" points="621,-37 426,-37 426,-18 621,-18 621,-37"/>
<text text-anchor="middle" x="523.5" y="-25" font-family="Vera Sans, DejaVu Sans, Liberation Sans, Arial, Helvetica, sans" font-size="10.00">pyVHDLModel.SyntaxModel.Subtype</text>
</g>
<!-- pyVHDLModel.SyntaxModel.Subtype&#45;&gt;pyGHDL.dom.Type.Subtype -->
<g id="edge1" class="edge">
<title>pyVHDLModel.SyntaxModel.Subtype&#45;&gt;pyGHDL.dom.Type.Subtype</title>
<path fill="none" stroke="black" stroke-width="0.5" d="M621.17,-35.95C631.4,-36.84 641.72,-37.74 651.72,-38.62"/>
<polygon fill="black" stroke="black" stroke-width="0.5" points="651.79,-40.38 656.92,-39.07 652.09,-36.89 651.79,-40.38"/>
</g>
<!-- pyVHDLModel.ModelEntity -->
<g id="node4" class="node">
<title>pyVHDLModel.ModelEntity</title>
<g id="a_node4"><a xlink:title="``ModelEntity`` is the base class for all classes in the VHDL language model,">
<polygon fill="none" stroke="black" stroke-width="0.5" points="149.5,-56 2.5,-56 2.5,-37 149.5,-37 149.5,-56"/>
<text text-anchor="middle" x="76" y="-44" font-family="Vera Sans, DejaVu Sans, Liberation Sans, Arial, Helvetica, sans" font-size="10.00">pyVHDLModel.ModelEntity</text>
</a>
</g>
</g>
<!-- pyVHDLModel.SyntaxModel.BaseType -->
<g id="node6" class="node">
<title>pyVHDLModel.SyntaxModel.BaseType</title>
<g id="a_node6"><a xlink:title="``BaseType`` is the base class of all type entities in this model.">
<polygon fill="none" stroke="black" stroke-width="0.5" points="390,-37 188,-37 188,-18 390,-18 390,-37"/>
<text text-anchor="middle" x="289" y="-25" font-family="Vera Sans, DejaVu Sans, Liberation Sans, Arial, Helvetica, sans" font-size="10.00">pyVHDLModel.SyntaxModel.BaseType</text>
</a>
</g>
</g>
<!-- pyVHDLModel.ModelEntity&#45;&gt;pyVHDLModel.SyntaxModel.BaseType -->
<g id="edge3" class="edge">
<title>pyVHDLModel.ModelEntity&#45;&gt;pyVHDLModel.SyntaxModel.BaseType</title>
<path fill="none" stroke="black" stroke-width="0.5" d="M149.61,-39.96C160.26,-39 171.41,-38 182.55,-37"/>
<polygon fill="black" stroke="black" stroke-width="0.5" points="182.85,-38.73 187.67,-36.53 182.53,-35.24 182.85,-38.73"/>
</g>
<!-- pyVHDLModel.NamedEntity -->
<g id="node5" class="node">
<title>pyVHDLModel.NamedEntity</title>
<g id="a_node5"><a xlink:title="A ``NamedEntity`` is a mixin class for all VHDL entities that have identifiers.">
<polygon fill="none" stroke="black" stroke-width="0.5" points="152,-19 0,-19 0,0 152,0 152,-19"/>
<text text-anchor="middle" x="76" y="-7" font-family="Vera Sans, DejaVu Sans, Liberation Sans, Arial, Helvetica, sans" font-size="10.00">pyVHDLModel.NamedEntity</text>
</a>
</g>
</g>
<!-- pyVHDLModel.NamedEntity&#45;&gt;pyVHDLModel.SyntaxModel.BaseType -->
<g id="edge4" class="edge">
<title>pyVHDLModel.NamedEntity&#45;&gt;pyVHDLModel.SyntaxModel.BaseType</title>
<path fill="none" stroke="black" stroke-width="0.5" d="M152.28,-15.92C162.15,-16.76 172.4,-17.64 182.65,-18.51"/>
<polygon fill="black" stroke="black" stroke-width="0.5" points="182.55,-20.26 187.68,-18.94 182.84,-16.77 182.55,-20.26"/>
</g>
<!-- pyVHDLModel.SyntaxModel.BaseType&#45;&gt;pyVHDLModel.SyntaxModel.Subtype -->
<g id="edge5" class="edge">
<title>pyVHDLModel.SyntaxModel.BaseType&#45;&gt;pyVHDLModel.SyntaxModel.Subtype</title>
<path fill="none" stroke="black" stroke-width="0.5" d="M390.29,-27.5C400.34,-27.5 410.54,-27.5 420.61,-27.5"/>
<polygon fill="black" stroke="black" stroke-width="0.5" points="420.86,-29.25 425.86,-27.5 420.86,-25.75 420.86,-29.25"/>
</g>
</g>
</svg>
