<?xml version="1.0" encoding="UTF-8" standalone="no"?>
<!DOCTYPE svg PUBLIC "-//W3C//DTD SVG 1.1//EN"
 "http://www.w3.org/Graphics/SVG/1.1/DTD/svg11.dtd">
<!-- Generated by graphviz version 2.43.0 (0)
 -->
<!-- Title: inheritance21f7da1d2b Pages: 1 -->
<svg width="576pt" height="31pt"
 viewBox="0.00 0.00 576.00 30.63" xmlns="http://www.w3.org/2000/svg" xmlns:xlink="http://www.w3.org/1999/xlink">
<g id="graph0" class="graph" transform="scale(2.71 2.71) rotate(0) translate(4 79)">
<title>inheritance21f7da1d2b</title>
<polygon fill="white" stroke="transparent" points="-4,4 -4,-79 1557,-79 1557,4 -4,4"/>
<!-- pyGHDL.dom.Concurrent.IfGenerateStatement -->
<g id="node1" class="node">
<title>pyGHDL.dom.Concurrent.IfGenerateStatement</title>
<g id="a_node1"><a xlink:href="../pyGHDL/pyGHDL.dom.Concurrent.html#pyGHDL.dom.Concurrent.IfGenerateStatement" xlink:title="pyGHDL.dom.Concurrent.IfGenerateStatement" target="_top">
<polygon fill="none" stroke="black" stroke-width="0.5" points="1553,-37 1310,-37 1310,-18 1553,-18 1553,-37"/>
<text text-anchor="middle" x="1431.5" y="-25" font-family="Vera Sans, DejaVu Sans, Liberation Sans, Arial, Helvetica, sans" font-size="10.00">pyGHDL.dom.Concurrent.IfGenerateStatement</text>
</a>
</g>
</g>
<!-- pyVHDLModel.SyntaxModel.IfGenerateStatement -->
<g id="node2" class="node">
<title>pyVHDLModel.SyntaxModel.IfGenerateStatement</title>
<polygon fill="none" stroke="black" stroke-width="0.5" points="1274,-56 1016,-56 1016,-37 1274,-37 1274,-56"/>
<text text-anchor="middle" x="1145" y="-44" font-family="Vera Sans, DejaVu Sans, Liberation Sans, Arial, Helvetica, sans" font-size="10.00">pyVHDLModel.SyntaxModel.IfGenerateStatement</text>
</g>
<!-- pyVHDLModel.SyntaxModel.IfGenerateStatement&#45;&gt;pyGHDL.dom.Concurrent.IfGenerateStatement -->
<g id="edge1" class="edge">
<title>pyVHDLModel.SyntaxModel.IfGenerateStatement&#45;&gt;pyGHDL.dom.Concurrent.IfGenerateStatement</title>
<path fill="none" stroke="black" stroke-width="0.5" d="M1274.1,-37.94C1284.15,-37.27 1294.29,-36.6 1304.33,-35.93"/>
<polygon fill="black" stroke="black" stroke-width="0.5" points="1304.69,-37.66 1309.56,-35.58 1304.46,-34.16 1304.69,-37.66"/>
</g>
<!-- pyGHDL.dom.DOMMixin -->
<g id="node3" class="node">
<title>pyGHDL.dom.DOMMixin</title>
<g id="a_node3"><a xlink:href="../pyGHDL.dom.html#pyGHDL.dom.DOMMixin" xlink:title="pyGHDL.dom.DOMMixin" target="_top">
<polygon fill="none" stroke="black" stroke-width="0.5" points="1212.5,-19 1077.5,-19 1077.5,0 1212.5,0 1212.5,-19"/>
<text text-anchor="middle" x="1145" y="-7" font-family="Vera Sans, DejaVu Sans, Liberation Sans, Arial, Helvetica, sans" font-size="10.00">pyGHDL.dom.DOMMixin</text>
</a>
</g>
</g>
<!-- pyGHDL.dom.DOMMixin&#45;&gt;pyGHDL.dom.Concurrent.IfGenerateStatement -->
<g id="edge2" class="edge">
<title>pyGHDL.dom.DOMMixin&#45;&gt;pyGHDL.dom.Concurrent.IfGenerateStatement</title>
<path fill="none" stroke="black" stroke-width="0.5" d="M1212.7,-13.72C1240.22,-15.46 1273.05,-17.54 1304.77,-19.54"/>
<polygon fill="black" stroke="black" stroke-width="0.5" points="1304.75,-21.3 1309.85,-19.87 1304.97,-17.8 1304.75,-21.3"/>
</g>
<!-- pyVHDLModel.LabeledEntity -->
<g id="node4" class="node">
<title>pyVHDLModel.LabeledEntity</title>
<g id="a_node4"><a xlink:title="A ``LabeledEntity`` is a mixin class for all VHDL entities that can have">
<polygon fill="none" stroke="black" stroke-width="0.5" points="155,-75 0,-75 0,-56 155,-56 155,-75"/>
<text text-anchor="middle" x="77.5" y="-63" font-family="Vera Sans, DejaVu Sans, Liberation Sans, Arial, Helvetica, sans" font-size="10.00">pyVHDLModel.LabeledEntity</text>
</a>
</g>
</g>
<!-- pyVHDLModel.SyntaxModel.Statement -->
<g id="node7" class="node">
<title>pyVHDLModel.SyntaxModel.Statement</title>
<polygon fill="none" stroke="black" stroke-width="0.5" points="397,-56 191,-56 191,-37 397,-37 397,-56"/>
<text text-anchor="middle" x="294" y="-44" font-family="Vera Sans, DejaVu Sans, Liberation Sans, Arial, Helvetica, sans" font-size="10.00">pyVHDLModel.SyntaxModel.Statement</text>
</g>
<!-- pyVHDLModel.LabeledEntity&#45;&gt;pyVHDLModel.SyntaxModel.Statement -->
<g id="edge7" class="edge">
<title>pyVHDLModel.LabeledEntity&#45;&gt;pyVHDLModel.SyntaxModel.Statement</title>
<path fill="none" stroke="black" stroke-width="0.5" d="M155.03,-58.72C164.96,-57.84 175.27,-56.93 185.58,-56.02"/>
<polygon fill="black" stroke="black" stroke-width="0.5" points="185.81,-57.75 190.64,-55.57 185.5,-54.27 185.81,-57.75"/>
</g>
<!-- pyVHDLModel.ModelEntity -->
<g id="node5" class="node">
<title>pyVHDLModel.ModelEntity</title>
<g id="a_node5"><a xlink:title="``ModelEntity`` is the base class for all classes in the VHDL language model,">
<polygon fill="none" stroke="black" stroke-width="0.5" points="151,-38 4,-38 4,-19 151,-19 151,-38"/>
<text text-anchor="middle" x="77.5" y="-26" font-family="Vera Sans, DejaVu Sans, Liberation Sans, Arial, Helvetica, sans" font-size="10.00">pyVHDLModel.ModelEntity</text>
</a>
</g>
</g>
<!-- pyVHDLModel.ModelEntity&#45;&gt;pyVHDLModel.SyntaxModel.Statement -->
<g id="edge6" class="edge">
<title>pyVHDLModel.ModelEntity&#45;&gt;pyVHDLModel.SyntaxModel.Statement</title>
<path fill="none" stroke="black" stroke-width="0.5" d="M151.12,-34.59C162.29,-35.53 174.01,-36.52 185.74,-37.5"/>
<polygon fill="black" stroke="black" stroke-width="0.5" points="185.64,-39.25 190.77,-37.92 185.93,-35.76 185.64,-39.25"/>
</g>
<!-- pyVHDLModel.SyntaxModel.ConcurrentStatement -->
<g id="node6" class="node">
<title>pyVHDLModel.SyntaxModel.ConcurrentStatement</title>
<g id="a_node6"><a xlink:title="A ``ConcurrentStatement`` is a base&#45;class for all concurrent statements.">
<polygon fill="none" stroke="black" stroke-width="0.5" points="693,-56 433,-56 433,-37 693,-37 693,-56"/>
<text text-anchor="middle" x="563" y="-44" font-family="Vera Sans, DejaVu Sans, Liberation Sans, Arial, Helvetica, sans" font-size="10.00">pyVHDLModel.SyntaxModel.ConcurrentStatement</text>
</a>
</g>
</g>
<!-- pyVHDLModel.SyntaxModel.GenerateStatement -->
<g id="node8" class="node">
<title>pyVHDLModel.SyntaxModel.GenerateStatement</title>
<g id="a_node8"><a xlink:title="A ``GenerateStatement`` is a base&#45;class for all generate statements.">
<polygon fill="none" stroke="black" stroke-width="0.5" points="980,-56 729,-56 729,-37 980,-37 980,-56"/>
<text text-anchor="middle" x="854.5" y="-44" font-family="Vera Sans, DejaVu Sans, Liberation Sans, Arial, Helvetica, sans" font-size="10.00">pyVHDLModel.SyntaxModel.GenerateStatement</text>
</a>
</g>
</g>
<!-- pyVHDLModel.SyntaxModel.ConcurrentStatement&#45;&gt;pyVHDLModel.SyntaxModel.GenerateStatement -->
<g id="edge4" class="edge">
<title>pyVHDLModel.SyntaxModel.ConcurrentStatement&#45;&gt;pyVHDLModel.SyntaxModel.GenerateStatement</title>
<path fill="none" stroke="black" stroke-width="0.5" d="M693.09,-46.5C703.32,-46.5 713.67,-46.5 723.91,-46.5"/>
<polygon fill="black" stroke="black" stroke-width="0.5" points="723.92,-48.25 728.92,-46.5 723.92,-44.75 723.92,-48.25"/>
</g>
<!-- pyVHDLModel.SyntaxModel.Statement&#45;&gt;pyVHDLModel.SyntaxModel.ConcurrentStatement -->
<g id="edge3" class="edge">
<title>pyVHDLModel.SyntaxModel.Statement&#45;&gt;pyVHDLModel.SyntaxModel.ConcurrentStatement</title>
<path fill="none" stroke="black" stroke-width="0.5" d="M397.08,-46.5C407.08,-46.5 417.32,-46.5 427.57,-46.5"/>
<polygon fill="black" stroke="black" stroke-width="0.5" points="427.61,-48.25 432.61,-46.5 427.61,-44.75 427.61,-48.25"/>
</g>
<!-- pyVHDLModel.SyntaxModel.GenerateStatement&#45;&gt;pyVHDLModel.SyntaxModel.IfGenerateStatement -->
<g id="edge5" class="edge">
<title>pyVHDLModel.SyntaxModel.GenerateStatement&#45;&gt;pyVHDLModel.SyntaxModel.IfGenerateStatement</title>
<path fill="none" stroke="black" stroke-width="0.5" d="M980.36,-46.5C990.35,-46.5 1000.46,-46.5 1010.5,-46.5"/>
<polygon fill="black" stroke="black" stroke-width="0.5" points="1010.75,-48.25 1015.75,-46.5 1010.75,-44.75 1010.75,-48.25"/>
</g>
</g>
</svg>
