<?xml version="1.0" encoding="UTF-8" standalone="no"?>
<!DOCTYPE svg PUBLIC "-//W3C//DTD SVG 1.1//EN"
 "http://www.w3.org/Graphics/SVG/1.1/DTD/svg11.dtd">
<!-- Generated by graphviz version 2.43.0 (0)
 -->
<!-- Title: inheritance9afd7b41f8 Pages: 1 -->
<svg width="576pt" height="27pt"
 viewBox="0.00 0.00 576.00 26.77" xmlns="http://www.w3.org/2000/svg" xmlns:xlink="http://www.w3.org/1999/xlink">
<g id="graph0" class="graph" transform="scale(2.39 2.39) rotate(0) translate(4 60)">
<title>inheritance9afd7b41f8</title>
<polygon fill="white" stroke="transparent" points="-4,4 -4,-60 1373,-60 1373,4 -4,4"/>
<!-- pyGHDL.dom.DOMMixin -->
<g id="node1" class="node">
<title>pyGHDL.dom.DOMMixin</title>
<g id="a_node1"><a xlink:href="../pyGHDL.dom.html#pyGHDL.dom.DOMMixin" xlink:title="pyGHDL.dom.DOMMixin" target="_top">
<polygon fill="none" stroke="black" stroke-width="0.5" points="918,-56 783,-56 783,-37 918,-37 918,-56"/>
<text text-anchor="middle" x="850.5" y="-44" font-family="Vera Sans, DejaVu Sans, Liberation Sans, Arial, Helvetica, sans" font-size="10.00">pyGHDL.dom.DOMMixin</text>
</a>
</g>
</g>
<!-- pyGHDL.dom.Symbol.ConstrainedCompositeSubtypeSymbol -->
<g id="node2" class="node">
<title>pyGHDL.dom.Symbol.ConstrainedCompositeSubtypeSymbol</title>
<g id="a_node2"><a xlink:href="../pyGHDL/pyGHDL.dom.Symbol.html#pyGHDL.dom.Symbol.ConstrainedCompositeSubtypeSymbol" xlink:title="pyGHDL.dom.Symbol.ConstrainedCompositeSubtypeSymbol" target="_top">
<polygon fill="none" stroke="black" stroke-width="0.5" points="1369,-37 1058,-37 1058,-18 1369,-18 1369,-37"/>
<text text-anchor="middle" x="1213.5" y="-25" font-family="Vera Sans, DejaVu Sans, Liberation Sans, Arial, Helvetica, sans" font-size="10.00">pyGHDL.dom.Symbol.ConstrainedCompositeSubtypeSymbol</text>
</a>
</g>
</g>
<!-- pyGHDL.dom.DOMMixin&#45;&gt;pyGHDL.dom.Symbol.ConstrainedCompositeSubtypeSymbol -->
<g id="edge2" class="edge">
<title>pyGHDL.dom.DOMMixin&#45;&gt;pyGHDL.dom.Symbol.ConstrainedCompositeSubtypeSymbol</title>
<path fill="none" stroke="black" stroke-width="0.5" d="M918.13,-42.99C956.07,-41 1005.35,-38.4 1052.7,-35.91"/>
<polygon fill="black" stroke="black" stroke-width="0.5" points="1052.97,-37.65 1057.87,-35.64 1052.79,-34.15 1052.97,-37.65"/>
</g>
<!-- pyVHDLModel.SyntaxModel.ConstrainedCompositeSubtypeSymbol -->
<g id="node3" class="node">
<title>pyVHDLModel.SyntaxModel.ConstrainedCompositeSubtypeSymbol</title>
<polygon fill="none" stroke="black" stroke-width="0.5" points="1022,-19 679,-19 679,0 1022,0 1022,-19"/>
<text text-anchor="middle" x="850.5" y="-7" font-family="Vera Sans, DejaVu Sans, Liberation Sans, Arial, Helvetica, sans" font-size="10.00">pyVHDLModel.SyntaxModel.ConstrainedCompositeSubtypeSymbol</text>
</g>
<!-- pyVHDLModel.SyntaxModel.ConstrainedCompositeSubtypeSymbol&#45;&gt;pyGHDL.dom.Symbol.ConstrainedCompositeSubtypeSymbol -->
<g id="edge1" class="edge">
<title>pyVHDLModel.SyntaxModel.ConstrainedCompositeSubtypeSymbol&#45;&gt;pyGHDL.dom.Symbol.ConstrainedCompositeSubtypeSymbol</title>
<path fill="none" stroke="black" stroke-width="0.5" d="M1022.22,-18.01C1032.32,-18.52 1042.45,-19.02 1052.51,-19.52"/>
<polygon fill="black" stroke="black" stroke-width="0.5" points="1052.67,-21.28 1057.75,-19.78 1052.85,-17.79 1052.67,-21.28"/>
</g>
<!-- pyVHDLModel.ModelEntity -->
<g id="node4" class="node">
<title>pyVHDLModel.ModelEntity</title>
<g id="a_node4"><a xlink:title="``ModelEntity`` is the base class for all classes in the VHDL language model,">
<polygon fill="none" stroke="black" stroke-width="0.5" points="147,-19 0,-19 0,0 147,0 147,-19"/>
<text text-anchor="middle" x="73.5" y="-7" font-family="Vera Sans, DejaVu Sans, Liberation Sans, Arial, Helvetica, sans" font-size="10.00">pyVHDLModel.ModelEntity</text>
</a>
</g>
</g>
<!-- pyVHDLModel.SyntaxModel.Symbol -->
<g id="node6" class="node">
<title>pyVHDLModel.SyntaxModel.Symbol</title>
<polygon fill="none" stroke="black" stroke-width="0.5" points="375,-19 183,-19 183,0 375,0 375,-19"/>
<text text-anchor="middle" x="279" y="-7" font-family="Vera Sans, DejaVu Sans, Liberation Sans, Arial, Helvetica, sans" font-size="10.00">pyVHDLModel.SyntaxModel.Symbol</text>
</g>
<!-- pyVHDLModel.ModelEntity&#45;&gt;pyVHDLModel.SyntaxModel.Symbol -->
<g id="edge5" class="edge">
<title>pyVHDLModel.ModelEntity&#45;&gt;pyVHDLModel.SyntaxModel.Symbol</title>
<path fill="none" stroke="black" stroke-width="0.5" d="M147.11,-9.5C157.01,-9.5 167.32,-9.5 177.62,-9.5"/>
<polygon fill="black" stroke="black" stroke-width="0.5" points="177.66,-11.25 182.66,-9.5 177.66,-7.75 177.66,-11.25"/>
</g>
<!-- pyVHDLModel.SyntaxModel.SubtypeSymbol -->
<g id="node5" class="node">
<title>pyVHDLModel.SyntaxModel.SubtypeSymbol</title>
<polygon fill="none" stroke="black" stroke-width="0.5" points="643,-19 411,-19 411,0 643,0 643,-19"/>
<text text-anchor="middle" x="527" y="-7" font-family="Vera Sans, DejaVu Sans, Liberation Sans, Arial, Helvetica, sans" font-size="10.00">pyVHDLModel.SyntaxModel.SubtypeSymbol</text>
</g>
<!-- pyVHDLModel.SyntaxModel.SubtypeSymbol&#45;&gt;pyVHDLModel.SyntaxModel.ConstrainedCompositeSubtypeSymbol -->
<g id="edge3" class="edge">
<title>pyVHDLModel.SyntaxModel.SubtypeSymbol&#45;&gt;pyVHDLModel.SyntaxModel.ConstrainedCompositeSubtypeSymbol</title>
<path fill="none" stroke="black" stroke-width="0.5" d="M643.16,-9.5C653.15,-9.5 663.39,-9.5 673.72,-9.5"/>
<polygon fill="black" stroke="black" stroke-width="0.5" points="673.79,-11.25 678.79,-9.5 673.79,-7.75 673.79,-11.25"/>
</g>
<!-- pyVHDLModel.SyntaxModel.Symbol&#45;&gt;pyVHDLModel.SyntaxModel.SubtypeSymbol -->
<g id="edge4" class="edge">
<title>pyVHDLModel.SyntaxModel.Symbol&#45;&gt;pyVHDLModel.SyntaxModel.SubtypeSymbol</title>
<path fill="none" stroke="black" stroke-width="0.5" d="M375.11,-9.5C385.1,-9.5 395.35,-9.5 405.58,-9.5"/>
<polygon fill="black" stroke="black" stroke-width="0.5" points="405.6,-11.25 410.6,-9.5 405.6,-7.75 405.6,-11.25"/>
</g>
</g>
</svg>
