<?xml version="1.0" encoding="UTF-8" standalone="no"?>
<!DOCTYPE svg PUBLIC "-//W3C//DTD SVG 1.1//EN"
 "http://www.w3.org/Graphics/SVG/1.1/DTD/svg11.dtd">
<!-- Generated by graphviz version 2.43.0 (0)
 -->
<!-- Title: inheritance2810648a81 Pages: 1 -->
<svg width="576pt" height="36pt"
 viewBox="0.00 0.00 576.00 35.62" xmlns="http://www.w3.org/2000/svg" xmlns:xlink="http://www.w3.org/1999/xlink">
<g id="graph0" class="graph" transform="scale(2.81 2.81) rotate(0) translate(4 96)">
<title>inheritance2810648a81</title>
<polygon fill="white" stroke="transparent" points="-4,4 -4,-96 1613,-96 1613,4 -4,4"/>
<!-- pyGHDL.dom.DOMMixin -->
<g id="node1" class="node">
<title>pyGHDL.dom.DOMMixin</title>
<g id="a_node1"><a xlink:href="../pyGHDL.dom.html#pyGHDL.dom.DOMMixin" xlink:title="pyGHDL.dom.DOMMixin" target="_top">
<polygon fill="none" stroke="black" stroke-width="0.5" points="1358.5,-92 1223.5,-92 1223.5,-73 1358.5,-73 1358.5,-92"/>
<text text-anchor="middle" x="1291" y="-80" font-family="Vera Sans, DejaVu Sans, Liberation Sans, Arial, Helvetica, sans" font-size="10.00">pyGHDL.dom.DOMMixin</text>
</a>
</g>
</g>
<!-- pyGHDL.dom.Type.PhysicalType -->
<g id="node2" class="node">
<title>pyGHDL.dom.Type.PhysicalType</title>
<g id="a_node2"><a xlink:href="../pyGHDL/pyGHDL.dom.Type.html#pyGHDL.dom.Type.PhysicalType" xlink:title="pyGHDL.dom.Type.PhysicalType" target="_top">
<polygon fill="none" stroke="black" stroke-width="0.5" points="1609,-73 1436,-73 1436,-54 1609,-54 1609,-73"/>
<text text-anchor="middle" x="1522.5" y="-61" font-family="Vera Sans, DejaVu Sans, Liberation Sans, Arial, Helvetica, sans" font-size="10.00">pyGHDL.dom.Type.PhysicalType</text>
</a>
</g>
</g>
<!-- pyGHDL.dom.DOMMixin&#45;&gt;pyGHDL.dom.Type.PhysicalType -->
<g id="edge2" class="edge">
<title>pyGHDL.dom.DOMMixin&#45;&gt;pyGHDL.dom.Type.PhysicalType</title>
<path fill="none" stroke="black" stroke-width="0.5" d="M1358.69,-76.98C1381.18,-75.12 1406.67,-73.01 1430.7,-71.02"/>
<polygon fill="black" stroke="black" stroke-width="0.5" points="1430.96,-72.75 1435.8,-70.6 1430.67,-69.26 1430.96,-72.75"/>
</g>
<!-- pyVHDLModel.SyntaxModel.PhysicalType -->
<g id="node3" class="node">
<title>pyVHDLModel.SyntaxModel.PhysicalType</title>
<polygon fill="none" stroke="black" stroke-width="0.5" points="1400,-55 1182,-55 1182,-36 1400,-36 1400,-55"/>
<text text-anchor="middle" x="1291" y="-43" font-family="Vera Sans, DejaVu Sans, Liberation Sans, Arial, Helvetica, sans" font-size="10.00">pyVHDLModel.SyntaxModel.PhysicalType</text>
</g>
<!-- pyVHDLModel.SyntaxModel.PhysicalType&#45;&gt;pyGHDL.dom.Type.PhysicalType -->
<g id="edge1" class="edge">
<title>pyVHDLModel.SyntaxModel.PhysicalType&#45;&gt;pyGHDL.dom.Type.PhysicalType</title>
<path fill="none" stroke="black" stroke-width="0.5" d="M1400.03,-53.97C1410.23,-54.77 1420.5,-55.58 1430.51,-56.36"/>
<polygon fill="black" stroke="black" stroke-width="0.5" points="1430.6,-58.13 1435.72,-56.77 1430.88,-54.64 1430.6,-58.13"/>
</g>
<!-- pyVHDLModel.ModelEntity -->
<g id="node4" class="node">
<title>pyVHDLModel.ModelEntity</title>
<g id="a_node4"><a xlink:title="``ModelEntity`` is the base class for all classes in the VHDL language model,">
<polygon fill="none" stroke="black" stroke-width="0.5" points="149.5,-56 2.5,-56 2.5,-37 149.5,-37 149.5,-56"/>
<text text-anchor="middle" x="76" y="-44" font-family="Vera Sans, DejaVu Sans, Liberation Sans, Arial, Helvetica, sans" font-size="10.00">pyVHDLModel.ModelEntity</text>
</a>
</g>
</g>
<!-- pyVHDLModel.SyntaxModel.BaseType -->
<g id="node6" class="node">
<title>pyVHDLModel.SyntaxModel.BaseType</title>
<g id="a_node6"><a xlink:title="``BaseType`` is the base class of all type entities in this model.">
<polygon fill="none" stroke="black" stroke-width="0.5" points="390,-37 188,-37 188,-18 390,-18 390,-37"/>
<text text-anchor="middle" x="289" y="-25" font-family="Vera Sans, DejaVu Sans, Liberation Sans, Arial, Helvetica, sans" font-size="10.00">pyVHDLModel.SyntaxModel.BaseType</text>
</a>
</g>
</g>
<!-- pyVHDLModel.ModelEntity&#45;&gt;pyVHDLModel.SyntaxModel.BaseType -->
<g id="edge3" class="edge">
<title>pyVHDLModel.ModelEntity&#45;&gt;pyVHDLModel.SyntaxModel.BaseType</title>
<path fill="none" stroke="black" stroke-width="0.5" d="M149.61,-39.96C160.26,-39 171.41,-38 182.55,-37"/>
<polygon fill="black" stroke="black" stroke-width="0.5" points="182.85,-38.73 187.67,-36.53 182.53,-35.24 182.85,-38.73"/>
</g>
<!-- pyVHDLModel.NamedEntity -->
<g id="node5" class="node">
<title>pyVHDLModel.NamedEntity</title>
<g id="a_node5"><a xlink:title="A ``NamedEntity`` is a mixin class for all VHDL entities that have identifiers.">
<polygon fill="none" stroke="black" stroke-width="0.5" points="152,-19 0,-19 0,0 152,0 152,-19"/>
<text text-anchor="middle" x="76" y="-7" font-family="Vera Sans, DejaVu Sans, Liberation Sans, Arial, Helvetica, sans" font-size="10.00">pyVHDLModel.NamedEntity</text>
</a>
</g>
</g>
<!-- pyVHDLModel.NamedEntity&#45;&gt;pyVHDLModel.SyntaxModel.BaseType -->
<g id="edge4" class="edge">
<title>pyVHDLModel.NamedEntity&#45;&gt;pyVHDLModel.SyntaxModel.BaseType</title>
<path fill="none" stroke="black" stroke-width="0.5" d="M152.28,-15.92C162.15,-16.76 172.4,-17.64 182.65,-18.51"/>
<polygon fill="black" stroke="black" stroke-width="0.5" points="182.55,-20.26 187.68,-18.94 182.84,-16.77 182.55,-20.26"/>
</g>
<!-- pyVHDLModel.SyntaxModel.FullType -->
<g id="node7" class="node">
<title>pyVHDLModel.SyntaxModel.FullType</title>
<polygon fill="none" stroke="black" stroke-width="0.5" points="621,-37 426,-37 426,-18 621,-18 621,-37"/>
<text text-anchor="middle" x="523.5" y="-25" font-family="Vera Sans, DejaVu Sans, Liberation Sans, Arial, Helvetica, sans" font-size="10.00">pyVHDLModel.SyntaxModel.FullType</text>
</g>
<!-- pyVHDLModel.SyntaxModel.BaseType&#45;&gt;pyVHDLModel.SyntaxModel.FullType -->
<g id="edge5" class="edge">
<title>pyVHDLModel.SyntaxModel.BaseType&#45;&gt;pyVHDLModel.SyntaxModel.FullType</title>
<path fill="none" stroke="black" stroke-width="0.5" d="M390.29,-27.5C400.34,-27.5 410.54,-27.5 420.61,-27.5"/>
<polygon fill="black" stroke="black" stroke-width="0.5" points="420.86,-29.25 425.86,-27.5 420.86,-25.75 420.86,-29.25"/>
</g>
<!-- pyVHDLModel.SyntaxModel.ScalarType -->
<g id="node10" class="node">
<title>pyVHDLModel.SyntaxModel.ScalarType</title>
<g id="a_node10"><a xlink:title="A ``ScalarType`` is a base&#45;class for all scalar types.">
<polygon fill="none" stroke="black" stroke-width="0.5" points="865,-37 657,-37 657,-18 865,-18 865,-37"/>
<text text-anchor="middle" x="761" y="-25" font-family="Vera Sans, DejaVu Sans, Liberation Sans, Arial, Helvetica, sans" font-size="10.00">pyVHDLModel.SyntaxModel.ScalarType</text>
</a>
</g>
</g>
<!-- pyVHDLModel.SyntaxModel.FullType&#45;&gt;pyVHDLModel.SyntaxModel.ScalarType -->
<g id="edge9" class="edge">
<title>pyVHDLModel.SyntaxModel.FullType&#45;&gt;pyVHDLModel.SyntaxModel.ScalarType</title>
<path fill="none" stroke="black" stroke-width="0.5" d="M621.31,-27.5C631.25,-27.5 641.39,-27.5 651.44,-27.5"/>
<polygon fill="black" stroke="black" stroke-width="0.5" points="651.69,-29.25 656.69,-27.5 651.69,-25.75 651.69,-29.25"/>
</g>
<!-- pyVHDLModel.SyntaxModel.NumericType -->
<g id="node8" class="node">
<title>pyVHDLModel.SyntaxModel.NumericType</title>
<g id="a_node8"><a xlink:title="A ``NumericType`` is a mixin class for all numeric types.">
<polygon fill="none" stroke="black" stroke-width="0.5" points="1133,-74 914,-74 914,-55 1133,-55 1133,-74"/>
<text text-anchor="middle" x="1023.5" y="-62" font-family="Vera Sans, DejaVu Sans, Liberation Sans, Arial, Helvetica, sans" font-size="10.00">pyVHDLModel.SyntaxModel.NumericType</text>
</a>
</g>
</g>
<!-- pyVHDLModel.SyntaxModel.NumericType&#45;&gt;pyVHDLModel.SyntaxModel.PhysicalType -->
<g id="edge7" class="edge">
<title>pyVHDLModel.SyntaxModel.NumericType&#45;&gt;pyVHDLModel.SyntaxModel.PhysicalType</title>
<path fill="none" stroke="black" stroke-width="0.5" d="M1133.26,-56.72C1147.54,-55.69 1162.21,-54.65 1176.57,-53.62"/>
<polygon fill="black" stroke="black" stroke-width="0.5" points="1176.98,-55.34 1181.84,-53.24 1176.73,-51.85 1176.98,-55.34"/>
</g>
<!-- pyVHDLModel.SyntaxModel.RangedScalarType -->
<g id="node9" class="node">
<title>pyVHDLModel.SyntaxModel.RangedScalarType</title>
<g id="a_node9"><a xlink:title="A ``RangedScalarType`` is a base&#45;class for all scalar types with a range.">
<polygon fill="none" stroke="black" stroke-width="0.5" points="1146,-37 901,-37 901,-18 1146,-18 1146,-37"/>
<text text-anchor="middle" x="1023.5" y="-25" font-family="Vera Sans, DejaVu Sans, Liberation Sans, Arial, Helvetica, sans" font-size="10.00">pyVHDLModel.SyntaxModel.RangedScalarType</text>
</a>
</g>
</g>
<!-- pyVHDLModel.SyntaxModel.RangedScalarType&#45;&gt;pyVHDLModel.SyntaxModel.PhysicalType -->
<g id="edge6" class="edge">
<title>pyVHDLModel.SyntaxModel.RangedScalarType&#45;&gt;pyVHDLModel.SyntaxModel.PhysicalType</title>
<path fill="none" stroke="black" stroke-width="0.5" d="M1146.37,-35.76C1156.47,-36.45 1166.65,-37.14 1176.69,-37.82"/>
<polygon fill="black" stroke="black" stroke-width="0.5" points="1176.81,-39.58 1181.92,-38.17 1177.05,-36.09 1176.81,-39.58"/>
</g>
<!-- pyVHDLModel.SyntaxModel.ScalarType&#45;&gt;pyVHDLModel.SyntaxModel.RangedScalarType -->
<g id="edge8" class="edge">
<title>pyVHDLModel.SyntaxModel.ScalarType&#45;&gt;pyVHDLModel.SyntaxModel.RangedScalarType</title>
<path fill="none" stroke="black" stroke-width="0.5" d="M865.33,-27.5C875.34,-27.5 885.57,-27.5 895.78,-27.5"/>
<polygon fill="black" stroke="black" stroke-width="0.5" points="895.78,-29.25 900.78,-27.5 895.78,-25.75 895.78,-29.25"/>
</g>
</g>
</svg>
