<?xml version="1.0" encoding="UTF-8" standalone="no"?>
<!DOCTYPE svg PUBLIC "-//W3C//DTD SVG 1.1//EN"
 "http://www.w3.org/Graphics/SVG/1.1/DTD/svg11.dtd">
<!-- Generated by graphviz version 2.43.0 (0)
 -->
<!-- Title: inheritance640f5d715c Pages: 1 -->
<svg width="576pt" height="45pt"
 viewBox="0.00 0.00 576.00 45.12" xmlns="http://www.w3.org/2000/svg" xmlns:xlink="http://www.w3.org/1999/xlink">
<g id="graph0" class="graph" transform="scale(1.42 1.42) rotate(0) translate(4 60)">
<title>inheritance640f5d715c</title>
<polygon fill="white" stroke="transparent" points="-4,4 -4,-60 813,-60 813,4 -4,4"/>
<!-- pyGHDL.dom.DOMMixin -->
<g id="node1" class="node">
<title>pyGHDL.dom.DOMMixin</title>
<g id="a_node1"><a xlink:href="../pyGHDL.dom.html#pyGHDL.dom.DOMMixin" xlink:title="pyGHDL.dom.DOMMixin" target="_top">
<polygon fill="none" stroke="black" stroke-width="0.5" points="572.5,-56 437.5,-56 437.5,-37 572.5,-37 572.5,-56"/>
<text text-anchor="middle" x="505" y="-44" font-family="Vera Sans, DejaVu Sans, Liberation Sans, Arial, Helvetica, sans" font-size="10.00">pyGHDL.dom.DOMMixin</text>
</a>
</g>
</g>
<!-- pyGHDL.dom.PSL.DefaultClock -->
<g id="node2" class="node">
<title>pyGHDL.dom.PSL.DefaultClock</title>
<g id="a_node2"><a xlink:href="../pyGHDL/pyGHDL.dom.PSL.html#pyGHDL.dom.PSL.DefaultClock" xlink:title="pyGHDL.dom.PSL.DefaultClock" target="_top">
<polygon fill="none" stroke="black" stroke-width="0.5" points="809,-37 642,-37 642,-18 809,-18 809,-37"/>
<text text-anchor="middle" x="725.5" y="-25" font-family="Vera Sans, DejaVu Sans, Liberation Sans, Arial, Helvetica, sans" font-size="10.00">pyGHDL.dom.PSL.DefaultClock</text>
</a>
</g>
</g>
<!-- pyGHDL.dom.DOMMixin&#45;&gt;pyGHDL.dom.PSL.DefaultClock -->
<g id="edge2" class="edge">
<title>pyGHDL.dom.DOMMixin&#45;&gt;pyGHDL.dom.PSL.DefaultClock</title>
<path fill="none" stroke="black" stroke-width="0.5" d="M572.74,-40.7C592.96,-38.94 615.48,-36.98 636.85,-35.12"/>
<polygon fill="black" stroke="black" stroke-width="0.5" points="637.13,-36.85 641.96,-34.68 636.83,-33.37 637.13,-36.85"/>
</g>
<!-- pyVHDLModel.PSLModel.DefaultClock -->
<g id="node3" class="node">
<title>pyVHDLModel.PSLModel.DefaultClock</title>
<polygon fill="none" stroke="black" stroke-width="0.5" points="606,-19 404,-19 404,0 606,0 606,-19"/>
<text text-anchor="middle" x="505" y="-7" font-family="Vera Sans, DejaVu Sans, Liberation Sans, Arial, Helvetica, sans" font-size="10.00">pyVHDLModel.PSLModel.DefaultClock</text>
</g>
<!-- pyVHDLModel.PSLModel.DefaultClock&#45;&gt;pyGHDL.dom.PSL.DefaultClock -->
<g id="edge1" class="edge">
<title>pyVHDLModel.PSLModel.DefaultClock&#45;&gt;pyGHDL.dom.PSL.DefaultClock</title>
<path fill="none" stroke="black" stroke-width="0.5" d="M606.3,-17.76C616.42,-18.6 626.65,-19.44 636.64,-20.26"/>
<polygon fill="black" stroke="black" stroke-width="0.5" points="636.7,-22.02 641.83,-20.69 636.99,-18.54 636.7,-22.02"/>
</g>
<!-- pyVHDLModel.ModelEntity -->
<g id="node4" class="node">
<title>pyVHDLModel.ModelEntity</title>
<g id="a_node4"><a xlink:title="``ModelEntity`` is the base class for all classes in the VHDL language model,">
<polygon fill="none" stroke="black" stroke-width="0.5" points="147,-19 0,-19 0,0 147,0 147,-19"/>
<text text-anchor="middle" x="73.5" y="-7" font-family="Vera Sans, DejaVu Sans, Liberation Sans, Arial, Helvetica, sans" font-size="10.00">pyVHDLModel.ModelEntity</text>
</a>
</g>
</g>
<!-- pyVHDLModel.PSLModel.PSLEntity -->
<g id="node5" class="node">
<title>pyVHDLModel.PSLModel.PSLEntity</title>
<polygon fill="none" stroke="black" stroke-width="0.5" points="368,-19 183,-19 183,0 368,0 368,-19"/>
<text text-anchor="middle" x="275.5" y="-7" font-family="Vera Sans, DejaVu Sans, Liberation Sans, Arial, Helvetica, sans" font-size="10.00">pyVHDLModel.PSLModel.PSLEntity</text>
</g>
<!-- pyVHDLModel.ModelEntity&#45;&gt;pyVHDLModel.PSLModel.PSLEntity -->
<g id="edge4" class="edge">
<title>pyVHDLModel.ModelEntity&#45;&gt;pyVHDLModel.PSLModel.PSLEntity</title>
<path fill="none" stroke="black" stroke-width="0.5" d="M147.27,-9.5C157.16,-9.5 167.43,-9.5 177.65,-9.5"/>
<polygon fill="black" stroke="black" stroke-width="0.5" points="177.67,-11.25 182.67,-9.5 177.67,-7.75 177.67,-11.25"/>
</g>
<!-- pyVHDLModel.PSLModel.PSLEntity&#45;&gt;pyVHDLModel.PSLModel.DefaultClock -->
<g id="edge3" class="edge">
<title>pyVHDLModel.PSLModel.PSLEntity&#45;&gt;pyVHDLModel.PSLModel.DefaultClock</title>
<path fill="none" stroke="black" stroke-width="0.5" d="M368.05,-9.5C378.13,-9.5 388.45,-9.5 398.68,-9.5"/>
<polygon fill="black" stroke="black" stroke-width="0.5" points="398.7,-11.25 403.7,-9.5 398.7,-7.75 398.7,-11.25"/>
</g>
</g>
</svg>
