<?xml version="1.0" encoding="UTF-8" standalone="no"?>
<!DOCTYPE svg PUBLIC "-//W3C//DTD SVG 1.1//EN"
 "http://www.w3.org/Graphics/SVG/1.1/DTD/svg11.dtd">
<!-- Generated by graphviz version 2.43.0 (0)
 -->
<!-- Title: inheritance746f03ff0b Pages: 1 -->
<svg width="576pt" height="20pt"
 viewBox="0.00 0.00 576.00 20.12" xmlns="http://www.w3.org/2000/svg" xmlns:xlink="http://www.w3.org/1999/xlink">
<g id="graph0" class="graph" transform="scale(3.18 3.18) rotate(0) translate(4 60)">
<title>inheritance746f03ff0b</title>
<polygon fill="white" stroke="transparent" points="-4,4 -4,-60 1828,-60 1828,4 -4,4"/>
<!-- pyGHDL.dom.DOMMixin -->
<g id="node1" class="node">
<title>pyGHDL.dom.DOMMixin</title>
<g id="a_node1"><a xlink:href="../pyGHDL.dom.html#pyGHDL.dom.DOMMixin" xlink:title="pyGHDL.dom.DOMMixin" target="_top">
<polygon fill="none" stroke="black" stroke-width="0.5" points="1471.5,-56 1336.5,-56 1336.5,-37 1471.5,-37 1471.5,-56"/>
<text text-anchor="middle" x="1404" y="-44" font-family="Vera Sans, DejaVu Sans, Liberation Sans, Arial, Helvetica, sans" font-size="10.00">pyGHDL.dom.DOMMixin</text>
</a>
</g>
</g>
<!-- pyGHDL.dom.Expression.RotateRightExpression -->
<g id="node2" class="node">
<title>pyGHDL.dom.Expression.RotateRightExpression</title>
<g id="a_node2"><a xlink:href="../pyGHDL/pyGHDL.dom.Expression.html#pyGHDL.dom.Expression.RotateRightExpression" xlink:title="pyGHDL.dom.Expression.RotateRightExpression" target="_top">
<polygon fill="none" stroke="black" stroke-width="0.5" points="1824,-37 1573,-37 1573,-18 1824,-18 1824,-37"/>
<text text-anchor="middle" x="1698.5" y="-25" font-family="Vera Sans, DejaVu Sans, Liberation Sans, Arial, Helvetica, sans" font-size="10.00">pyGHDL.dom.Expression.RotateRightExpression</text>
</a>
</g>
</g>
<!-- pyGHDL.dom.DOMMixin&#45;&gt;pyGHDL.dom.Expression.RotateRightExpression -->
<g id="edge2" class="edge">
<title>pyGHDL.dom.DOMMixin&#45;&gt;pyGHDL.dom.Expression.RotateRightExpression</title>
<path fill="none" stroke="black" stroke-width="0.5" d="M1471.74,-42.16C1500.23,-40.31 1534.5,-38.09 1567.63,-35.94"/>
<polygon fill="black" stroke="black" stroke-width="0.5" points="1568.07,-37.66 1572.94,-35.59 1567.84,-34.17 1568.07,-37.66"/>
</g>
<!-- pyVHDLModel.SyntaxModel.RotateRightExpression -->
<g id="node3" class="node">
<title>pyVHDLModel.SyntaxModel.RotateRightExpression</title>
<polygon fill="none" stroke="black" stroke-width="0.5" points="1537,-19 1271,-19 1271,0 1537,0 1537,-19"/>
<text text-anchor="middle" x="1404" y="-7" font-family="Vera Sans, DejaVu Sans, Liberation Sans, Arial, Helvetica, sans" font-size="10.00">pyVHDLModel.SyntaxModel.RotateRightExpression</text>
</g>
<!-- pyVHDLModel.SyntaxModel.RotateRightExpression&#45;&gt;pyGHDL.dom.Expression.RotateRightExpression -->
<g id="edge1" class="edge">
<title>pyVHDLModel.SyntaxModel.RotateRightExpression&#45;&gt;pyGHDL.dom.Expression.RotateRightExpression</title>
<path fill="none" stroke="black" stroke-width="0.5" d="M1537.13,-17.63C1547.19,-18.25 1557.33,-18.87 1567.38,-19.49"/>
<polygon fill="black" stroke="black" stroke-width="0.5" points="1567.52,-21.25 1572.62,-19.81 1567.73,-17.76 1567.52,-21.25"/>
</g>
<!-- pyVHDLModel.ModelEntity -->
<g id="node4" class="node">
<title>pyVHDLModel.ModelEntity</title>
<g id="a_node4"><a xlink:title="``ModelEntity`` is the base class for all classes in the VHDL language model,">
<polygon fill="none" stroke="black" stroke-width="0.5" points="147,-19 0,-19 0,0 147,0 147,-19"/>
<text text-anchor="middle" x="73.5" y="-7" font-family="Vera Sans, DejaVu Sans, Liberation Sans, Arial, Helvetica, sans" font-size="10.00">pyVHDLModel.ModelEntity</text>
</a>
</g>
</g>
<!-- pyVHDLModel.SyntaxModel.BaseExpression -->
<g id="node5" class="node">
<title>pyVHDLModel.SyntaxModel.BaseExpression</title>
<g id="a_node5"><a xlink:title="A ``BaseExpression`` is a base&#45;class for all expressions.">
<polygon fill="none" stroke="black" stroke-width="0.5" points="416,-19 183,-19 183,0 416,0 416,-19"/>
<text text-anchor="middle" x="299.5" y="-7" font-family="Vera Sans, DejaVu Sans, Liberation Sans, Arial, Helvetica, sans" font-size="10.00">pyVHDLModel.SyntaxModel.BaseExpression</text>
</a>
</g>
</g>
<!-- pyVHDLModel.ModelEntity&#45;&gt;pyVHDLModel.SyntaxModel.BaseExpression -->
<g id="edge3" class="edge">
<title>pyVHDLModel.ModelEntity&#45;&gt;pyVHDLModel.SyntaxModel.BaseExpression</title>
<path fill="none" stroke="black" stroke-width="0.5" d="M147.23,-9.5C157,-9.5 167.22,-9.5 177.55,-9.5"/>
<polygon fill="black" stroke="black" stroke-width="0.5" points="177.63,-11.25 182.63,-9.5 177.63,-7.75 177.63,-11.25"/>
</g>
<!-- pyVHDLModel.SyntaxModel.BinaryExpression -->
<g id="node6" class="node">
<title>pyVHDLModel.SyntaxModel.BinaryExpression</title>
<g id="a_node6"><a xlink:title="A ``BinaryExpression`` is a base&#45;class for all binary expressions.">
<polygon fill="none" stroke="black" stroke-width="0.5" points="692,-19 452,-19 452,0 692,0 692,-19"/>
<text text-anchor="middle" x="572" y="-7" font-family="Vera Sans, DejaVu Sans, Liberation Sans, Arial, Helvetica, sans" font-size="10.00">pyVHDLModel.SyntaxModel.BinaryExpression</text>
</a>
</g>
</g>
<!-- pyVHDLModel.SyntaxModel.BaseExpression&#45;&gt;pyVHDLModel.SyntaxModel.BinaryExpression -->
<g id="edge4" class="edge">
<title>pyVHDLModel.SyntaxModel.BaseExpression&#45;&gt;pyVHDLModel.SyntaxModel.BinaryExpression</title>
<path fill="none" stroke="black" stroke-width="0.5" d="M416,-9.5C426.03,-9.5 436.2,-9.5 446.3,-9.5"/>
<polygon fill="black" stroke="black" stroke-width="0.5" points="446.57,-11.25 451.57,-9.5 446.57,-7.75 446.57,-11.25"/>
</g>
<!-- pyVHDLModel.SyntaxModel.ShiftExpression -->
<g id="node8" class="node">
<title>pyVHDLModel.SyntaxModel.ShiftExpression</title>
<g id="a_node8"><a xlink:title="A ``ShiftExpression`` is a base&#45;class for all shifting expressions.">
<polygon fill="none" stroke="black" stroke-width="0.5" points="958,-19 728,-19 728,0 958,0 958,-19"/>
<text text-anchor="middle" x="843" y="-7" font-family="Vera Sans, DejaVu Sans, Liberation Sans, Arial, Helvetica, sans" font-size="10.00">pyVHDLModel.SyntaxModel.ShiftExpression</text>
</a>
</g>
</g>
<!-- pyVHDLModel.SyntaxModel.BinaryExpression&#45;&gt;pyVHDLModel.SyntaxModel.ShiftExpression -->
<g id="edge7" class="edge">
<title>pyVHDLModel.SyntaxModel.BinaryExpression&#45;&gt;pyVHDLModel.SyntaxModel.ShiftExpression</title>
<path fill="none" stroke="black" stroke-width="0.5" d="M692.16,-9.5C702.21,-9.5 712.38,-9.5 722.44,-9.5"/>
<polygon fill="black" stroke="black" stroke-width="0.5" points="722.69,-11.25 727.69,-9.5 722.69,-7.75 722.69,-11.25"/>
</g>
<!-- pyVHDLModel.SyntaxModel.RotateExpression -->
<g id="node7" class="node">
<title>pyVHDLModel.SyntaxModel.RotateExpression</title>
<polygon fill="none" stroke="black" stroke-width="0.5" points="1235,-19 994,-19 994,0 1235,0 1235,-19"/>
<text text-anchor="middle" x="1114.5" y="-7" font-family="Vera Sans, DejaVu Sans, Liberation Sans, Arial, Helvetica, sans" font-size="10.00">pyVHDLModel.SyntaxModel.RotateExpression</text>
</g>
<!-- pyVHDLModel.SyntaxModel.RotateExpression&#45;&gt;pyVHDLModel.SyntaxModel.RotateRightExpression -->
<g id="edge6" class="edge">
<title>pyVHDLModel.SyntaxModel.RotateExpression&#45;&gt;pyVHDLModel.SyntaxModel.RotateRightExpression</title>
<path fill="none" stroke="black" stroke-width="0.5" d="M1235.34,-9.5C1245.32,-9.5 1255.45,-9.5 1265.53,-9.5"/>
<polygon fill="black" stroke="black" stroke-width="0.5" points="1265.8,-11.25 1270.8,-9.5 1265.8,-7.75 1265.8,-11.25"/>
</g>
<!-- pyVHDLModel.SyntaxModel.ShiftExpression&#45;&gt;pyVHDLModel.SyntaxModel.RotateExpression -->
<g id="edge5" class="edge">
<title>pyVHDLModel.SyntaxModel.ShiftExpression&#45;&gt;pyVHDLModel.SyntaxModel.RotateExpression</title>
<path fill="none" stroke="black" stroke-width="0.5" d="M958.29,-9.5C968.31,-9.5 978.48,-9.5 988.58,-9.5"/>
<polygon fill="black" stroke="black" stroke-width="0.5" points="988.85,-11.25 993.85,-9.5 988.85,-7.75 988.85,-11.25"/>
</g>
</g>
</svg>
