<?xml version="1.0" encoding="UTF-8" standalone="no"?>
<!DOCTYPE svg PUBLIC "-//W3C//DTD SVG 1.1//EN"
 "http://www.w3.org/Graphics/SVG/1.1/DTD/svg11.dtd">
<!-- Generated by graphviz version 2.43.0 (0)
 -->
<!-- Title: inheritance8d43c99fd2 Pages: 1 -->
<svg width="576pt" height="41pt"
 viewBox="0.00 0.00 576.00 41.40" xmlns="http://www.w3.org/2000/svg" xmlns:xlink="http://www.w3.org/1999/xlink">
<g id="graph0" class="graph" transform="scale(1.98 1.98) rotate(0) translate(4 78)">
<title>inheritance8d43c99fd2</title>
<polygon fill="white" stroke="transparent" points="-4,4 -4,-78 1137,-78 1137,4 -4,4"/>
<!-- pyGHDL.dom.DOMMixin -->
<g id="node1" class="node">
<title>pyGHDL.dom.DOMMixin</title>
<g id="a_node1"><a xlink:href="../pyGHDL.dom.html#pyGHDL.dom.DOMMixin" xlink:title="pyGHDL.dom.DOMMixin" target="_top">
<polygon fill="none" stroke="black" stroke-width="0.5" points="801.5,-74 666.5,-74 666.5,-55 801.5,-55 801.5,-74"/>
<text text-anchor="middle" x="734" y="-62" font-family="Vera Sans, DejaVu Sans, Liberation Sans, Arial, Helvetica, sans" font-size="10.00">pyGHDL.dom.DOMMixin</text>
</a>
</g>
</g>
<!-- pyGHDL.dom.Expression.QualifiedExpression -->
<g id="node2" class="node">
<title>pyGHDL.dom.Expression.QualifiedExpression</title>
<g id="a_node2"><a xlink:href="../pyGHDL/pyGHDL.dom.Expression.html#pyGHDL.dom.Expression.QualifiedExpression" xlink:title="pyGHDL.dom.Expression.QualifiedExpression" target="_top">
<polygon fill="none" stroke="black" stroke-width="0.5" points="1133,-55 896,-55 896,-36 1133,-36 1133,-55"/>
<text text-anchor="middle" x="1014.5" y="-43" font-family="Vera Sans, DejaVu Sans, Liberation Sans, Arial, Helvetica, sans" font-size="10.00">pyGHDL.dom.Expression.QualifiedExpression</text>
</a>
</g>
</g>
<!-- pyGHDL.dom.DOMMixin&#45;&gt;pyGHDL.dom.Expression.QualifiedExpression -->
<g id="edge2" class="edge">
<title>pyGHDL.dom.DOMMixin&#45;&gt;pyGHDL.dom.Expression.QualifiedExpression</title>
<path fill="none" stroke="black" stroke-width="0.5" d="M801.71,-59.95C828.4,-58.13 860.04,-55.97 890.6,-53.88"/>
<polygon fill="black" stroke="black" stroke-width="0.5" points="891.03,-55.61 895.9,-53.52 890.79,-52.12 891.03,-55.61"/>
</g>
<!-- pyVHDLModel.SyntaxModel.QualifiedExpression -->
<g id="node3" class="node">
<title>pyVHDLModel.SyntaxModel.QualifiedExpression</title>
<polygon fill="none" stroke="black" stroke-width="0.5" points="860,-37 608,-37 608,-18 860,-18 860,-37"/>
<text text-anchor="middle" x="734" y="-25" font-family="Vera Sans, DejaVu Sans, Liberation Sans, Arial, Helvetica, sans" font-size="10.00">pyVHDLModel.SyntaxModel.QualifiedExpression</text>
</g>
<!-- pyVHDLModel.SyntaxModel.QualifiedExpression&#45;&gt;pyGHDL.dom.Expression.QualifiedExpression -->
<g id="edge1" class="edge">
<title>pyVHDLModel.SyntaxModel.QualifiedExpression&#45;&gt;pyGHDL.dom.Expression.QualifiedExpression</title>
<path fill="none" stroke="black" stroke-width="0.5" d="M860.4,-35.6C870.48,-36.26 880.66,-36.91 890.72,-37.56"/>
<polygon fill="black" stroke="black" stroke-width="0.5" points="890.87,-39.33 895.97,-37.9 891.1,-35.84 890.87,-39.33"/>
</g>
<!-- pyVHDLModel.ModelEntity -->
<g id="node4" class="node">
<title>pyVHDLModel.ModelEntity</title>
<g id="a_node4"><a xlink:title="``ModelEntity`` is the base class for all classes in the VHDL language model,">
<polygon fill="none" stroke="black" stroke-width="0.5" points="271,-56 124,-56 124,-37 271,-37 271,-56"/>
<text text-anchor="middle" x="197.5" y="-44" font-family="Vera Sans, DejaVu Sans, Liberation Sans, Arial, Helvetica, sans" font-size="10.00">pyVHDLModel.ModelEntity</text>
</a>
</g>
</g>
<!-- pyVHDLModel.SyntaxModel.BaseExpression -->
<g id="node5" class="node">
<title>pyVHDLModel.SyntaxModel.BaseExpression</title>
<g id="a_node5"><a xlink:title="A ``BaseExpression`` is a base&#45;class for all expressions.">
<polygon fill="none" stroke="black" stroke-width="0.5" points="556,-56 323,-56 323,-37 556,-37 556,-56"/>
<text text-anchor="middle" x="439.5" y="-44" font-family="Vera Sans, DejaVu Sans, Liberation Sans, Arial, Helvetica, sans" font-size="10.00">pyVHDLModel.SyntaxModel.BaseExpression</text>
</a>
</g>
</g>
<!-- pyVHDLModel.ModelEntity&#45;&gt;pyVHDLModel.SyntaxModel.BaseExpression -->
<g id="edge3" class="edge">
<title>pyVHDLModel.ModelEntity&#45;&gt;pyVHDLModel.SyntaxModel.BaseExpression</title>
<path fill="none" stroke="black" stroke-width="0.5" d="M271.16,-46.5C285.79,-46.5 301.53,-46.5 317.3,-46.5"/>
<polygon fill="black" stroke="black" stroke-width="0.5" points="317.65,-48.25 322.65,-46.5 317.65,-44.75 317.65,-48.25"/>
</g>
<!-- pyVHDLModel.SyntaxModel.BaseExpression&#45;&gt;pyVHDLModel.SyntaxModel.QualifiedExpression -->
<g id="edge5" class="edge">
<title>pyVHDLModel.SyntaxModel.BaseExpression&#45;&gt;pyVHDLModel.SyntaxModel.QualifiedExpression</title>
<path fill="none" stroke="black" stroke-width="0.5" d="M556.1,-38.99C571.31,-38 586.98,-36.98 602.42,-35.98"/>
<polygon fill="black" stroke="black" stroke-width="0.5" points="602.76,-37.71 607.64,-35.64 602.54,-34.22 602.76,-37.71"/>
</g>
<!-- pyVHDLModel.SyntaxModel.ParenthesisExpression -->
<g id="node6" class="node">
<title>pyVHDLModel.SyntaxModel.ParenthesisExpression</title>
<polygon fill="none" stroke="black" stroke-width="0.5" points="572,-19 307,-19 307,0 572,0 572,-19"/>
<text text-anchor="middle" x="439.5" y="-7" font-family="Vera Sans, DejaVu Sans, Liberation Sans, Arial, Helvetica, sans" font-size="10.00">pyVHDLModel.SyntaxModel.ParenthesisExpression</text>
</g>
<!-- pyVHDLModel.SyntaxModel.ParenthesisExpression&#45;&gt;pyVHDLModel.SyntaxModel.QualifiedExpression -->
<g id="edge6" class="edge">
<title>pyVHDLModel.SyntaxModel.ParenthesisExpression&#45;&gt;pyVHDLModel.SyntaxModel.QualifiedExpression</title>
<path fill="none" stroke="black" stroke-width="0.5" d="M572.2,-17.6C582.28,-18.22 592.44,-18.85 602.5,-19.47"/>
<polygon fill="black" stroke="black" stroke-width="0.5" points="602.66,-21.23 607.76,-19.79 602.87,-17.74 602.66,-21.23"/>
</g>
<!-- typing.Protocol -->
<g id="node7" class="node">
<title>typing.Protocol</title>
<g id="a_node7"><a xlink:title="Base class for protocol classes.">
<polygon fill="none" stroke="black" stroke-width="0.5" points="242.5,-19 152.5,-19 152.5,0 242.5,0 242.5,-19"/>
<text text-anchor="middle" x="197.5" y="-7" font-family="Vera Sans, DejaVu Sans, Liberation Sans, Arial, Helvetica, sans" font-size="10.00">typing.Protocol</text>
</a>
</g>
</g>
<!-- typing.Protocol&#45;&gt;pyVHDLModel.SyntaxModel.ParenthesisExpression -->
<g id="edge4" class="edge">
<title>typing.Protocol&#45;&gt;pyVHDLModel.SyntaxModel.ParenthesisExpression</title>
<path fill="none" stroke="black" stroke-width="0.5" d="M242.52,-9.5C259.68,-9.5 280.37,-9.5 301.78,-9.5"/>
<polygon fill="black" stroke="black" stroke-width="0.5" points="301.94,-11.25 306.94,-9.5 301.94,-7.75 301.94,-11.25"/>
</g>
<!-- typing.Generic -->
<g id="node8" class="node">
<title>typing.Generic</title>
<g id="a_node8"><a xlink:title="Abstract base class for generic types.">
<polygon fill="none" stroke="black" stroke-width="0.5" points="88,-19 0,-19 0,0 88,0 88,-19"/>
<text text-anchor="middle" x="44" y="-7" font-family="Vera Sans, DejaVu Sans, Liberation Sans, Arial, Helvetica, sans" font-size="10.00">typing.Generic</text>
</a>
</g>
</g>
<!-- typing.Generic&#45;&gt;typing.Protocol -->
<g id="edge7" class="edge">
<title>typing.Generic&#45;&gt;typing.Protocol</title>
<path fill="none" stroke="black" stroke-width="0.5" d="M88.01,-9.5C106.4,-9.5 127.98,-9.5 147.03,-9.5"/>
<polygon fill="black" stroke="black" stroke-width="0.5" points="147.33,-11.25 152.33,-9.5 147.33,-7.75 147.33,-11.25"/>
</g>
</g>
</svg>
