<?xml version="1.0" encoding="UTF-8" standalone="no"?>
<!DOCTYPE svg PUBLIC "-//W3C//DTD SVG 1.1//EN"
 "http://www.w3.org/Graphics/SVG/1.1/DTD/svg11.dtd">
<!-- Generated by graphviz version 2.43.0 (0)
 -->
<!-- Title: inheritancea563ad0ac9 Pages: 1 -->
<svg width="576pt" height="55pt"
 viewBox="0.00 0.00 576.00 55.08" xmlns="http://www.w3.org/2000/svg" xmlns:xlink="http://www.w3.org/1999/xlink">
<g id="graph0" class="graph" transform="scale(2.18 2.18) rotate(0) translate(4 116)">
<title>inheritancea563ad0ac9</title>
<polygon fill="white" stroke="transparent" points="-4,4 -4,-116 1251,-116 1251,4 -4,4"/>
<!-- pyGHDL.dom.Concurrent.ProcessStatement -->
<g id="node1" class="node">
<title>pyGHDL.dom.Concurrent.ProcessStatement</title>
<g id="a_node1"><a xlink:href="../pyGHDL/pyGHDL.dom.Concurrent.html#pyGHDL.dom.Concurrent.ProcessStatement" xlink:title="pyGHDL.dom.Concurrent.ProcessStatement" target="_top">
<polygon fill="none" stroke="black" stroke-width="0.5" points="1247,-37 1018,-37 1018,-18 1247,-18 1247,-37"/>
<text text-anchor="middle" x="1132.5" y="-25" font-family="Vera Sans, DejaVu Sans, Liberation Sans, Arial, Helvetica, sans" font-size="10.00">pyGHDL.dom.Concurrent.ProcessStatement</text>
</a>
</g>
</g>
<!-- pyVHDLModel.SyntaxModel.ProcessStatement -->
<g id="node2" class="node">
<title>pyVHDLModel.SyntaxModel.ProcessStatement</title>
<polygon fill="none" stroke="black" stroke-width="0.5" points="982,-56 738,-56 738,-37 982,-37 982,-56"/>
<text text-anchor="middle" x="860" y="-44" font-family="Vera Sans, DejaVu Sans, Liberation Sans, Arial, Helvetica, sans" font-size="10.00">pyVHDLModel.SyntaxModel.ProcessStatement</text>
</g>
<!-- pyVHDLModel.SyntaxModel.ProcessStatement&#45;&gt;pyGHDL.dom.Concurrent.ProcessStatement -->
<g id="edge1" class="edge">
<title>pyVHDLModel.SyntaxModel.ProcessStatement&#45;&gt;pyGHDL.dom.Concurrent.ProcessStatement</title>
<path fill="none" stroke="black" stroke-width="0.5" d="M982.01,-38C992.28,-37.28 1002.67,-36.55 1012.93,-35.83"/>
<polygon fill="black" stroke="black" stroke-width="0.5" points="1013.09,-37.57 1017.95,-35.48 1012.84,-34.08 1013.09,-37.57"/>
</g>
<!-- pyGHDL.dom.DOMMixin -->
<g id="node3" class="node">
<title>pyGHDL.dom.DOMMixin</title>
<g id="a_node3"><a xlink:href="../pyGHDL.dom.html#pyGHDL.dom.DOMMixin" xlink:title="pyGHDL.dom.DOMMixin" target="_top">
<polygon fill="none" stroke="black" stroke-width="0.5" points="927.5,-19 792.5,-19 792.5,0 927.5,0 927.5,-19"/>
<text text-anchor="middle" x="860" y="-7" font-family="Vera Sans, DejaVu Sans, Liberation Sans, Arial, Helvetica, sans" font-size="10.00">pyGHDL.dom.DOMMixin</text>
</a>
</g>
</g>
<!-- pyGHDL.dom.DOMMixin&#45;&gt;pyGHDL.dom.Concurrent.ProcessStatement -->
<g id="edge2" class="edge">
<title>pyGHDL.dom.DOMMixin&#45;&gt;pyGHDL.dom.Concurrent.ProcessStatement</title>
<path fill="none" stroke="black" stroke-width="0.5" d="M927.52,-13.93C953.25,-15.64 983.5,-17.65 1012.71,-19.6"/>
<polygon fill="black" stroke="black" stroke-width="0.5" points="1012.66,-21.35 1017.77,-19.93 1012.9,-17.85 1012.66,-21.35"/>
</g>
<!-- pyVHDLModel.LabeledEntity -->
<g id="node4" class="node">
<title>pyVHDLModel.LabeledEntity</title>
<g id="a_node4"><a xlink:title="A ``LabeledEntity`` is a mixin class for all VHDL entities that can have">
<polygon fill="none" stroke="black" stroke-width="0.5" points="155,-112 0,-112 0,-93 155,-93 155,-112"/>
<text text-anchor="middle" x="77.5" y="-100" font-family="Vera Sans, DejaVu Sans, Liberation Sans, Arial, Helvetica, sans" font-size="10.00">pyVHDLModel.LabeledEntity</text>
</a>
</g>
</g>
<!-- pyVHDLModel.SyntaxModel.Statement -->
<g id="node7" class="node">
<title>pyVHDLModel.SyntaxModel.Statement</title>
<polygon fill="none" stroke="black" stroke-width="0.5" points="397,-93 191,-93 191,-74 397,-74 397,-93"/>
<text text-anchor="middle" x="294" y="-81" font-family="Vera Sans, DejaVu Sans, Liberation Sans, Arial, Helvetica, sans" font-size="10.00">pyVHDLModel.SyntaxModel.Statement</text>
</g>
<!-- pyVHDLModel.LabeledEntity&#45;&gt;pyVHDLModel.SyntaxModel.Statement -->
<g id="edge8" class="edge">
<title>pyVHDLModel.LabeledEntity&#45;&gt;pyVHDLModel.SyntaxModel.Statement</title>
<path fill="none" stroke="black" stroke-width="0.5" d="M155.03,-95.72C164.96,-94.84 175.27,-93.93 185.58,-93.02"/>
<polygon fill="black" stroke="black" stroke-width="0.5" points="185.81,-94.75 190.64,-92.57 185.5,-91.27 185.81,-94.75"/>
</g>
<!-- pyVHDLModel.ModelEntity -->
<g id="node5" class="node">
<title>pyVHDLModel.ModelEntity</title>
<g id="a_node5"><a xlink:title="``ModelEntity`` is the base class for all classes in the VHDL language model,">
<polygon fill="none" stroke="black" stroke-width="0.5" points="151,-75 4,-75 4,-56 151,-56 151,-75"/>
<text text-anchor="middle" x="77.5" y="-63" font-family="Vera Sans, DejaVu Sans, Liberation Sans, Arial, Helvetica, sans" font-size="10.00">pyVHDLModel.ModelEntity</text>
</a>
</g>
</g>
<!-- pyVHDLModel.ModelEntity&#45;&gt;pyVHDLModel.SyntaxModel.Statement -->
<g id="edge7" class="edge">
<title>pyVHDLModel.ModelEntity&#45;&gt;pyVHDLModel.SyntaxModel.Statement</title>
<path fill="none" stroke="black" stroke-width="0.5" d="M151.12,-71.59C162.29,-72.53 174.01,-73.52 185.74,-74.5"/>
<polygon fill="black" stroke="black" stroke-width="0.5" points="185.64,-76.25 190.77,-74.92 185.93,-72.76 185.64,-76.25"/>
</g>
<!-- pyVHDLModel.SyntaxModel.ConcurrentStatement -->
<g id="node6" class="node">
<title>pyVHDLModel.SyntaxModel.ConcurrentStatement</title>
<g id="a_node6"><a xlink:title="A ``ConcurrentStatement`` is a base&#45;class for all concurrent statements.">
<polygon fill="none" stroke="black" stroke-width="0.5" points="697.5,-93 437.5,-93 437.5,-74 697.5,-74 697.5,-93"/>
<text text-anchor="middle" x="567.5" y="-81" font-family="Vera Sans, DejaVu Sans, Liberation Sans, Arial, Helvetica, sans" font-size="10.00">pyVHDLModel.SyntaxModel.ConcurrentStatement</text>
</a>
</g>
</g>
<!-- pyVHDLModel.SyntaxModel.ConcurrentStatement&#45;&gt;pyVHDLModel.SyntaxModel.ProcessStatement -->
<g id="edge4" class="edge">
<title>pyVHDLModel.SyntaxModel.ConcurrentStatement&#45;&gt;pyVHDLModel.SyntaxModel.ProcessStatement</title>
<path fill="none" stroke="black" stroke-width="0.5" d="M643.31,-73.97C684.91,-68.67 736.68,-62.08 779.07,-56.68"/>
<polygon fill="black" stroke="black" stroke-width="0.5" points="779.45,-58.4 784.19,-56.03 779.01,-54.92 779.45,-58.4"/>
</g>
<!-- pyVHDLModel.SyntaxModel.Statement&#45;&gt;pyVHDLModel.SyntaxModel.ConcurrentStatement -->
<g id="edge3" class="edge">
<title>pyVHDLModel.SyntaxModel.Statement&#45;&gt;pyVHDLModel.SyntaxModel.ConcurrentStatement</title>
<path fill="none" stroke="black" stroke-width="0.5" d="M397.26,-83.5C408.7,-83.5 420.48,-83.5 432.25,-83.5"/>
<polygon fill="black" stroke="black" stroke-width="0.5" points="432.29,-85.25 437.29,-83.5 432.29,-81.75 432.29,-85.25"/>
</g>
<!-- pyVHDLModel.SyntaxModel.SequentialDeclarations -->
<g id="node8" class="node">
<title>pyVHDLModel.SyntaxModel.SequentialDeclarations</title>
<polygon fill="none" stroke="black" stroke-width="0.5" points="702,-56 433,-56 433,-37 702,-37 702,-56"/>
<text text-anchor="middle" x="567.5" y="-44" font-family="Vera Sans, DejaVu Sans, Liberation Sans, Arial, Helvetica, sans" font-size="10.00">pyVHDLModel.SyntaxModel.SequentialDeclarations</text>
</g>
<!-- pyVHDLModel.SyntaxModel.SequentialDeclarations&#45;&gt;pyVHDLModel.SyntaxModel.ProcessStatement -->
<g id="edge5" class="edge">
<title>pyVHDLModel.SyntaxModel.SequentialDeclarations&#45;&gt;pyVHDLModel.SyntaxModel.ProcessStatement</title>
<path fill="none" stroke="black" stroke-width="0.5" d="M702.27,-46.5C712.42,-46.5 722.64,-46.5 732.73,-46.5"/>
<polygon fill="black" stroke="black" stroke-width="0.5" points="733,-48.25 738,-46.5 733,-44.75 733,-48.25"/>
</g>
<!-- pyVHDLModel.SyntaxModel.SequentialStatements -->
<g id="node9" class="node">
<title>pyVHDLModel.SyntaxModel.SequentialStatements</title>
<polygon fill="none" stroke="black" stroke-width="0.5" points="699,-19 436,-19 436,0 699,0 699,-19"/>
<text text-anchor="middle" x="567.5" y="-7" font-family="Vera Sans, DejaVu Sans, Liberation Sans, Arial, Helvetica, sans" font-size="10.00">pyVHDLModel.SyntaxModel.SequentialStatements</text>
</g>
<!-- pyVHDLModel.SyntaxModel.SequentialStatements&#45;&gt;pyVHDLModel.SyntaxModel.ProcessStatement -->
<g id="edge6" class="edge">
<title>pyVHDLModel.SyntaxModel.SequentialStatements&#45;&gt;pyVHDLModel.SyntaxModel.ProcessStatement</title>
<path fill="none" stroke="black" stroke-width="0.5" d="M643.31,-19.03C684.91,-24.33 736.68,-30.92 779.07,-36.32"/>
<polygon fill="black" stroke="black" stroke-width="0.5" points="779.01,-38.08 784.19,-36.97 779.45,-34.6 779.01,-38.08"/>
</g>
</g>
</svg>
