<?xml version="1.0" encoding="UTF-8" standalone="no"?>
<!DOCTYPE svg PUBLIC "-//W3C//DTD SVG 1.1//EN"
 "http://www.w3.org/Graphics/SVG/1.1/DTD/svg11.dtd">
<!-- Generated by graphviz version 2.43.0 (0)
 -->
<!-- Title: inheritanceb42b0e7bd0 Pages: 1 -->
<svg width="576pt" height="32pt"
 viewBox="0.00 0.00 576.00 32.14" xmlns="http://www.w3.org/2000/svg" xmlns:xlink="http://www.w3.org/1999/xlink">
<g id="graph0" class="graph" transform="scale(1.99 1.99) rotate(0) translate(4 60)">
<title>inheritanceb42b0e7bd0</title>
<polygon fill="white" stroke="transparent" points="-4,4 -4,-60 1143,-60 1143,4 -4,4"/>
<!-- pyGHDL.dom.DOMMixin -->
<g id="node1" class="node">
<title>pyGHDL.dom.DOMMixin</title>
<g id="a_node1"><a xlink:href="../pyGHDL.dom.html#pyGHDL.dom.DOMMixin" xlink:title="pyGHDL.dom.DOMMixin" target="_top">
<polygon fill="none" stroke="black" stroke-width="0.5" points="858,-56 723,-56 723,-37 858,-37 858,-56"/>
<text text-anchor="middle" x="790.5" y="-44" font-family="Vera Sans, DejaVu Sans, Liberation Sans, Arial, Helvetica, sans" font-size="10.00">pyGHDL.dom.DOMMixin</text>
</a>
</g>
</g>
<!-- pyGHDL.dom.Literal.CharacterLiteral -->
<g id="node2" class="node">
<title>pyGHDL.dom.Literal.CharacterLiteral</title>
<g id="a_node2"><a xlink:href="../pyGHDL/pyGHDL.dom.Literal.html#pyGHDL.dom.Literal.CharacterLiteral" xlink:title="pyGHDL.dom.Literal.CharacterLiteral" target="_top">
<polygon fill="none" stroke="black" stroke-width="0.5" points="1139,-37 943,-37 943,-18 1139,-18 1139,-37"/>
<text text-anchor="middle" x="1041" y="-25" font-family="Vera Sans, DejaVu Sans, Liberation Sans, Arial, Helvetica, sans" font-size="10.00">pyGHDL.dom.Literal.CharacterLiteral</text>
</a>
</g>
</g>
<!-- pyGHDL.dom.DOMMixin&#45;&gt;pyGHDL.dom.Literal.CharacterLiteral -->
<g id="edge2" class="edge">
<title>pyGHDL.dom.DOMMixin&#45;&gt;pyGHDL.dom.Literal.CharacterLiteral</title>
<path fill="none" stroke="black" stroke-width="0.5" d="M858.09,-41.41C882.59,-39.54 910.93,-37.37 937.84,-35.31"/>
<polygon fill="black" stroke="black" stroke-width="0.5" points="938,-37.05 942.85,-34.93 937.73,-33.56 938,-37.05"/>
</g>
<!-- pyVHDLModel.SyntaxModel.CharacterLiteral -->
<g id="node3" class="node">
<title>pyVHDLModel.SyntaxModel.CharacterLiteral</title>
<polygon fill="none" stroke="black" stroke-width="0.5" points="907,-19 674,-19 674,0 907,0 907,-19"/>
<text text-anchor="middle" x="790.5" y="-7" font-family="Vera Sans, DejaVu Sans, Liberation Sans, Arial, Helvetica, sans" font-size="10.00">pyVHDLModel.SyntaxModel.CharacterLiteral</text>
</g>
<!-- pyVHDLModel.SyntaxModel.CharacterLiteral&#45;&gt;pyGHDL.dom.Literal.CharacterLiteral -->
<g id="edge1" class="edge">
<title>pyVHDLModel.SyntaxModel.CharacterLiteral&#45;&gt;pyGHDL.dom.Literal.CharacterLiteral</title>
<path fill="none" stroke="black" stroke-width="0.5" d="M907.02,-17.87C917.17,-18.6 927.39,-19.34 937.42,-20.07"/>
<polygon fill="black" stroke="black" stroke-width="0.5" points="937.53,-21.83 942.64,-20.45 937.78,-18.34 937.53,-21.83"/>
</g>
<!-- pyVHDLModel.ModelEntity -->
<g id="node4" class="node">
<title>pyVHDLModel.ModelEntity</title>
<g id="a_node4"><a xlink:title="``ModelEntity`` is the base class for all classes in the VHDL language model,">
<polygon fill="none" stroke="black" stroke-width="0.5" points="147,-19 0,-19 0,0 147,0 147,-19"/>
<text text-anchor="middle" x="73.5" y="-7" font-family="Vera Sans, DejaVu Sans, Liberation Sans, Arial, Helvetica, sans" font-size="10.00">pyVHDLModel.ModelEntity</text>
</a>
</g>
</g>
<!-- pyVHDLModel.SyntaxModel.BaseExpression -->
<g id="node5" class="node">
<title>pyVHDLModel.SyntaxModel.BaseExpression</title>
<g id="a_node5"><a xlink:title="A ``BaseExpression`` is a base&#45;class for all expressions.">
<polygon fill="none" stroke="black" stroke-width="0.5" points="416,-19 183,-19 183,0 416,0 416,-19"/>
<text text-anchor="middle" x="299.5" y="-7" font-family="Vera Sans, DejaVu Sans, Liberation Sans, Arial, Helvetica, sans" font-size="10.00">pyVHDLModel.SyntaxModel.BaseExpression</text>
</a>
</g>
</g>
<!-- pyVHDLModel.ModelEntity&#45;&gt;pyVHDLModel.SyntaxModel.BaseExpression -->
<g id="edge3" class="edge">
<title>pyVHDLModel.ModelEntity&#45;&gt;pyVHDLModel.SyntaxModel.BaseExpression</title>
<path fill="none" stroke="black" stroke-width="0.5" d="M147.23,-9.5C157,-9.5 167.22,-9.5 177.55,-9.5"/>
<polygon fill="black" stroke="black" stroke-width="0.5" points="177.63,-11.25 182.63,-9.5 177.63,-7.75 177.63,-11.25"/>
</g>
<!-- pyVHDLModel.SyntaxModel.Literal -->
<g id="node6" class="node">
<title>pyVHDLModel.SyntaxModel.Literal</title>
<g id="a_node6"><a xlink:title="A ``Literal`` is a base&#45;class for all literals.">
<polygon fill="none" stroke="black" stroke-width="0.5" points="638,-19 452,-19 452,0 638,0 638,-19"/>
<text text-anchor="middle" x="545" y="-7" font-family="Vera Sans, DejaVu Sans, Liberation Sans, Arial, Helvetica, sans" font-size="10.00">pyVHDLModel.SyntaxModel.Literal</text>
</a>
</g>
</g>
<!-- pyVHDLModel.SyntaxModel.BaseExpression&#45;&gt;pyVHDLModel.SyntaxModel.Literal -->
<g id="edge5" class="edge">
<title>pyVHDLModel.SyntaxModel.BaseExpression&#45;&gt;pyVHDLModel.SyntaxModel.Literal</title>
<path fill="none" stroke="black" stroke-width="0.5" d="M416.19,-9.5C426.32,-9.5 436.52,-9.5 446.48,-9.5"/>
<polygon fill="black" stroke="black" stroke-width="0.5" points="446.67,-11.25 451.67,-9.5 446.67,-7.75 446.67,-11.25"/>
</g>
<!-- pyVHDLModel.SyntaxModel.Literal&#45;&gt;pyVHDLModel.SyntaxModel.CharacterLiteral -->
<g id="edge4" class="edge">
<title>pyVHDLModel.SyntaxModel.Literal&#45;&gt;pyVHDLModel.SyntaxModel.CharacterLiteral</title>
<path fill="none" stroke="black" stroke-width="0.5" d="M638.06,-9.5C648.13,-9.5 658.48,-9.5 668.83,-9.5"/>
<polygon fill="black" stroke="black" stroke-width="0.5" points="668.91,-11.25 673.91,-9.5 668.91,-7.75 668.91,-11.25"/>
</g>
</g>
</svg>
