<?xml version="1.0" encoding="UTF-8" standalone="no"?>
<!DOCTYPE svg PUBLIC "-//W3C//DTD SVG 1.1//EN"
 "http://www.w3.org/Graphics/SVG/1.1/DTD/svg11.dtd">
<!-- Generated by graphviz version 2.43.0 (0)
 -->
<!-- Title: inheritance6041c52f9a Pages: 1 -->
<svg width="576pt" height="43pt"
 viewBox="0.00 0.00 576.00 42.67" xmlns="http://www.w3.org/2000/svg" xmlns:xlink="http://www.w3.org/1999/xlink">
<g id="graph0" class="graph" transform="scale(1.92 1.92) rotate(0) translate(4 78)">
<title>inheritance6041c52f9a</title>
<polygon fill="white" stroke="transparent" points="-4,4 -4,-78 1103,-78 1103,4 -4,4"/>
<!-- pyGHDL.dom.DOMMixin -->
<g id="node1" class="node">
<title>pyGHDL.dom.DOMMixin</title>
<g id="a_node1"><a xlink:href="../pyGHDL.dom.html#pyGHDL.dom.DOMMixin" xlink:title="pyGHDL.dom.DOMMixin" target="_top">
<polygon fill="none" stroke="black" stroke-width="0.5" points="825.5,-74 690.5,-74 690.5,-55 825.5,-55 825.5,-74"/>
<text text-anchor="middle" x="758" y="-62" font-family="Vera Sans, DejaVu Sans, Liberation Sans, Arial, Helvetica, sans" font-size="10.00">pyGHDL.dom.DOMMixin</text>
</a>
</g>
</g>
<!-- pyGHDL.dom.Type.IncompleteType -->
<g id="node2" class="node">
<title>pyGHDL.dom.Type.IncompleteType</title>
<g id="a_node2"><a xlink:href="../pyGHDL/pyGHDL.dom.Type.html#pyGHDL.dom.Type.IncompleteType" xlink:title="pyGHDL.dom.Type.IncompleteType" target="_top">
<polygon fill="none" stroke="black" stroke-width="0.5" points="1099,-55 912,-55 912,-36 1099,-36 1099,-55"/>
<text text-anchor="middle" x="1005.5" y="-43" font-family="Vera Sans, DejaVu Sans, Liberation Sans, Arial, Helvetica, sans" font-size="10.00">pyGHDL.dom.Type.IncompleteType</text>
</a>
</g>
</g>
<!-- pyGHDL.dom.DOMMixin&#45;&gt;pyGHDL.dom.Type.IncompleteType -->
<g id="edge2" class="edge">
<title>pyGHDL.dom.DOMMixin&#45;&gt;pyGHDL.dom.Type.IncompleteType</title>
<path fill="none" stroke="black" stroke-width="0.5" d="M825.76,-59.33C850.76,-57.4 879.69,-55.16 906.91,-53.05"/>
<polygon fill="black" stroke="black" stroke-width="0.5" points="907.12,-54.79 911.97,-52.66 906.85,-51.3 907.12,-54.79"/>
</g>
<!-- pyVHDLModel.SyntaxModel.AnonymousType -->
<g id="node3" class="node">
<title>pyVHDLModel.SyntaxModel.AnonymousType</title>
<polygon fill="none" stroke="black" stroke-width="0.5" points="876,-37 640,-37 640,-18 876,-18 876,-37"/>
<text text-anchor="middle" x="758" y="-25" font-family="Vera Sans, DejaVu Sans, Liberation Sans, Arial, Helvetica, sans" font-size="10.00">pyVHDLModel.SyntaxModel.AnonymousType</text>
</g>
<!-- pyVHDLModel.SyntaxModel.AnonymousType&#45;&gt;pyGHDL.dom.Type.IncompleteType -->
<g id="edge1" class="edge">
<title>pyVHDLModel.SyntaxModel.AnonymousType&#45;&gt;pyGHDL.dom.Type.IncompleteType</title>
<path fill="none" stroke="black" stroke-width="0.5" d="M876.36,-36.1C886.54,-36.85 896.77,-37.6 906.77,-38.33"/>
<polygon fill="black" stroke="black" stroke-width="0.5" points="906.87,-40.1 911.98,-38.72 907.12,-36.61 906.87,-40.1"/>
</g>
<!-- pyVHDLModel.ModelEntity -->
<g id="node4" class="node">
<title>pyVHDLModel.ModelEntity</title>
<g id="a_node4"><a xlink:title="``ModelEntity`` is the base class for all classes in the VHDL language model,">
<polygon fill="none" stroke="black" stroke-width="0.5" points="149.5,-56 2.5,-56 2.5,-37 149.5,-37 149.5,-56"/>
<text text-anchor="middle" x="76" y="-44" font-family="Vera Sans, DejaVu Sans, Liberation Sans, Arial, Helvetica, sans" font-size="10.00">pyVHDLModel.ModelEntity</text>
</a>
</g>
</g>
<!-- pyVHDLModel.SyntaxModel.BaseType -->
<g id="node7" class="node">
<title>pyVHDLModel.SyntaxModel.BaseType</title>
<g id="a_node7"><a xlink:title="``BaseType`` is the base class of all type entities in this model.">
<polygon fill="none" stroke="black" stroke-width="0.5" points="390,-37 188,-37 188,-18 390,-18 390,-37"/>
<text text-anchor="middle" x="289" y="-25" font-family="Vera Sans, DejaVu Sans, Liberation Sans, Arial, Helvetica, sans" font-size="10.00">pyVHDLModel.SyntaxModel.BaseType</text>
</a>
</g>
</g>
<!-- pyVHDLModel.ModelEntity&#45;&gt;pyVHDLModel.SyntaxModel.BaseType -->
<g id="edge4" class="edge">
<title>pyVHDLModel.ModelEntity&#45;&gt;pyVHDLModel.SyntaxModel.BaseType</title>
<path fill="none" stroke="black" stroke-width="0.5" d="M149.61,-39.96C160.26,-39 171.41,-38 182.55,-37"/>
<polygon fill="black" stroke="black" stroke-width="0.5" points="182.85,-38.73 187.67,-36.53 182.53,-35.24 182.85,-38.73"/>
</g>
<!-- pyVHDLModel.NamedEntity -->
<g id="node5" class="node">
<title>pyVHDLModel.NamedEntity</title>
<g id="a_node5"><a xlink:title="A ``NamedEntity`` is a mixin class for all VHDL entities that have identifiers.">
<polygon fill="none" stroke="black" stroke-width="0.5" points="152,-19 0,-19 0,0 152,0 152,-19"/>
<text text-anchor="middle" x="76" y="-7" font-family="Vera Sans, DejaVu Sans, Liberation Sans, Arial, Helvetica, sans" font-size="10.00">pyVHDLModel.NamedEntity</text>
</a>
</g>
</g>
<!-- pyVHDLModel.NamedEntity&#45;&gt;pyVHDLModel.SyntaxModel.BaseType -->
<g id="edge5" class="edge">
<title>pyVHDLModel.NamedEntity&#45;&gt;pyVHDLModel.SyntaxModel.BaseType</title>
<path fill="none" stroke="black" stroke-width="0.5" d="M152.28,-15.92C162.15,-16.76 172.4,-17.64 182.65,-18.51"/>
<polygon fill="black" stroke="black" stroke-width="0.5" points="182.55,-20.26 187.68,-18.94 182.84,-16.77 182.55,-20.26"/>
</g>
<!-- pyVHDLModel.SyntaxModel.Type -->
<g id="node6" class="node">
<title>pyVHDLModel.SyntaxModel.Type</title>
<polygon fill="none" stroke="black" stroke-width="0.5" points="604,-37 426,-37 426,-18 604,-18 604,-37"/>
<text text-anchor="middle" x="515" y="-25" font-family="Vera Sans, DejaVu Sans, Liberation Sans, Arial, Helvetica, sans" font-size="10.00">pyVHDLModel.SyntaxModel.Type</text>
</g>
<!-- pyVHDLModel.SyntaxModel.Type&#45;&gt;pyVHDLModel.SyntaxModel.AnonymousType -->
<g id="edge3" class="edge">
<title>pyVHDLModel.SyntaxModel.Type&#45;&gt;pyVHDLModel.SyntaxModel.AnonymousType</title>
<path fill="none" stroke="black" stroke-width="0.5" d="M604.03,-27.5C614.08,-27.5 624.46,-27.5 634.86,-27.5"/>
<polygon fill="black" stroke="black" stroke-width="0.5" points="634.96,-29.25 639.96,-27.5 634.96,-25.75 634.96,-29.25"/>
</g>
<!-- pyVHDLModel.SyntaxModel.BaseType&#45;&gt;pyVHDLModel.SyntaxModel.Type -->
<g id="edge6" class="edge">
<title>pyVHDLModel.SyntaxModel.BaseType&#45;&gt;pyVHDLModel.SyntaxModel.Type</title>
<path fill="none" stroke="black" stroke-width="0.5" d="M390.21,-27.5C400.32,-27.5 410.57,-27.5 420.62,-27.5"/>
<polygon fill="black" stroke="black" stroke-width="0.5" points="420.85,-29.25 425.85,-27.5 420.85,-25.75 420.85,-29.25"/>
</g>
</g>
</svg>
