<?xml version="1.0" encoding="UTF-8" standalone="no"?>
<!DOCTYPE svg PUBLIC "-//W3C//DTD SVG 1.1//EN"
 "http://www.w3.org/Graphics/SVG/1.1/DTD/svg11.dtd">
<!-- Generated by graphviz version 2.43.0 (0)
 -->
<!-- Title: inheritance0862afb825 Pages: 1 -->
<svg width="576pt" height="53pt"
 viewBox="0.00 0.00 576.00 52.61" xmlns="http://www.w3.org/2000/svg" xmlns:xlink="http://www.w3.org/1999/xlink">
<g id="graph0" class="graph" transform="scale(2.98 2.98) rotate(0) translate(4 153)">
<title>inheritance0862afb825</title>
<polygon fill="white" stroke="transparent" points="-4,4 -4,-153 1715,-153 1715,4 -4,4"/>
<!-- pyGHDL.dom.DOMMixin -->
<g id="node1" class="node">
<title>pyGHDL.dom.DOMMixin</title>
<g id="a_node1"><a xlink:href="../pyGHDL.dom.html#pyGHDL.dom.DOMMixin" xlink:title="pyGHDL.dom.DOMMixin" target="_top">
<polygon fill="none" stroke="black" stroke-width="0.5" points="1291.5,-93 1156.5,-93 1156.5,-74 1291.5,-74 1291.5,-93"/>
<text text-anchor="middle" x="1224" y="-81" font-family="Vera Sans, DejaVu Sans, Liberation Sans, Arial, Helvetica, sans" font-size="10.00">pyGHDL.dom.DOMMixin</text>
</a>
</g>
</g>
<!-- pyGHDL.dom.InterfaceItem.GenericConstantInterfaceItem -->
<g id="node2" class="node">
<title>pyGHDL.dom.InterfaceItem.GenericConstantInterfaceItem</title>
<g id="a_node2"><a xlink:href="../pyGHDL/pyGHDL.dom.InterfaceItem.html#pyGHDL.dom.InterfaceItem.GenericConstantInterfaceItem" xlink:title="pyGHDL.dom.InterfaceItem.GenericConstantInterfaceItem" target="_top">
<polygon fill="none" stroke="black" stroke-width="0.5" points="1711,-74 1411,-74 1411,-55 1711,-55 1711,-74"/>
<text text-anchor="middle" x="1561" y="-62" font-family="Vera Sans, DejaVu Sans, Liberation Sans, Arial, Helvetica, sans" font-size="10.00">pyGHDL.dom.InterfaceItem.GenericConstantInterfaceItem</text>
</a>
</g>
</g>
<!-- pyGHDL.dom.DOMMixin&#45;&gt;pyGHDL.dom.InterfaceItem.GenericConstantInterfaceItem -->
<g id="edge2" class="edge">
<title>pyGHDL.dom.DOMMixin&#45;&gt;pyGHDL.dom.InterfaceItem.GenericConstantInterfaceItem</title>
<path fill="none" stroke="black" stroke-width="0.5" d="M1291.59,-79.72C1324.36,-77.86 1365.36,-75.54 1405.38,-73.27"/>
<polygon fill="black" stroke="black" stroke-width="0.5" points="1405.87,-74.99 1410.76,-72.96 1405.67,-71.5 1405.87,-74.99"/>
</g>
<!-- pyVHDLModel.SyntaxModel.GenericConstantInterfaceItem -->
<g id="node3" class="node">
<title>pyVHDLModel.SyntaxModel.GenericConstantInterfaceItem</title>
<polygon fill="none" stroke="black" stroke-width="0.5" points="1375,-56 1073,-56 1073,-37 1375,-37 1375,-56"/>
<text text-anchor="middle" x="1224" y="-44" font-family="Vera Sans, DejaVu Sans, Liberation Sans, Arial, Helvetica, sans" font-size="10.00">pyVHDLModel.SyntaxModel.GenericConstantInterfaceItem</text>
</g>
<!-- pyVHDLModel.SyntaxModel.GenericConstantInterfaceItem&#45;&gt;pyGHDL.dom.InterfaceItem.GenericConstantInterfaceItem -->
<g id="edge1" class="edge">
<title>pyVHDLModel.SyntaxModel.GenericConstantInterfaceItem&#45;&gt;pyGHDL.dom.InterfaceItem.GenericConstantInterfaceItem</title>
<path fill="none" stroke="black" stroke-width="0.5" d="M1375.35,-54.58C1385.52,-55.12 1395.77,-55.68 1405.95,-56.22"/>
<polygon fill="black" stroke="black" stroke-width="0.5" points="1405.85,-57.97 1410.94,-56.49 1406.04,-54.48 1405.85,-57.97"/>
</g>
<!-- pyVHDLModel.ModelEntity -->
<g id="node4" class="node">
<title>pyVHDLModel.ModelEntity</title>
<g id="a_node4"><a xlink:title="``ModelEntity`` is the base class for all classes in the VHDL language model,">
<polygon fill="none" stroke="black" stroke-width="0.5" points="169.5,-149 22.5,-149 22.5,-130 169.5,-130 169.5,-149"/>
<text text-anchor="middle" x="96" y="-137" font-family="Vera Sans, DejaVu Sans, Liberation Sans, Arial, Helvetica, sans" font-size="10.00">pyVHDLModel.ModelEntity</text>
</a>
</g>
</g>
<!-- pyVHDLModel.SyntaxModel.Obj -->
<g id="node7" class="node">
<title>pyVHDLModel.SyntaxModel.Obj</title>
<polygon fill="none" stroke="black" stroke-width="0.5" points="400,-130 228,-130 228,-111 400,-111 400,-130"/>
<text text-anchor="middle" x="314" y="-118" font-family="Vera Sans, DejaVu Sans, Liberation Sans, Arial, Helvetica, sans" font-size="10.00">pyVHDLModel.SyntaxModel.Obj</text>
</g>
<!-- pyVHDLModel.ModelEntity&#45;&gt;pyVHDLModel.SyntaxModel.Obj -->
<g id="edge10" class="edge">
<title>pyVHDLModel.ModelEntity&#45;&gt;pyVHDLModel.SyntaxModel.Obj</title>
<path fill="none" stroke="black" stroke-width="0.5" d="M169.53,-133.12C186.67,-131.61 205.15,-129.99 222.96,-128.42"/>
<polygon fill="black" stroke="black" stroke-width="0.5" points="223.13,-130.16 227.96,-127.98 222.83,-126.68 223.13,-130.16"/>
</g>
<!-- pyVHDLModel.MultipleNamedEntity -->
<g id="node5" class="node">
<title>pyVHDLModel.MultipleNamedEntity</title>
<g id="a_node5"><a xlink:title="A ``MultipleNamedEntity`` is a mixin class for all VHDL entities that declare">
<polygon fill="none" stroke="black" stroke-width="0.5" points="192,-112 0,-112 0,-93 192,-93 192,-112"/>
<text text-anchor="middle" x="96" y="-100" font-family="Vera Sans, DejaVu Sans, Liberation Sans, Arial, Helvetica, sans" font-size="10.00">pyVHDLModel.MultipleNamedEntity</text>
</a>
</g>
</g>
<!-- pyVHDLModel.MultipleNamedEntity&#45;&gt;pyVHDLModel.SyntaxModel.Obj -->
<g id="edge11" class="edge">
<title>pyVHDLModel.MultipleNamedEntity&#45;&gt;pyVHDLModel.SyntaxModel.Obj</title>
<path fill="none" stroke="black" stroke-width="0.5" d="M192.06,-110.42C202.18,-111.26 212.45,-112.12 222.51,-112.96"/>
<polygon fill="black" stroke="black" stroke-width="0.5" points="222.63,-114.73 227.76,-113.4 222.92,-111.24 222.63,-114.73"/>
</g>
<!-- pyVHDLModel.SyntaxModel.BaseConstant -->
<g id="node6" class="node">
<title>pyVHDLModel.SyntaxModel.BaseConstant</title>
<polygon fill="none" stroke="black" stroke-width="0.5" points="694.5,-130 471.5,-130 471.5,-111 694.5,-111 694.5,-130"/>
<text text-anchor="middle" x="583" y="-118" font-family="Vera Sans, DejaVu Sans, Liberation Sans, Arial, Helvetica, sans" font-size="10.00">pyVHDLModel.SyntaxModel.BaseConstant</text>
</g>
<!-- pyVHDLModel.SyntaxModel.Constant -->
<g id="node8" class="node">
<title>pyVHDLModel.SyntaxModel.Constant</title>
<polygon fill="none" stroke="black" stroke-width="0.5" points="1001,-93 802,-93 802,-74 1001,-74 1001,-93"/>
<text text-anchor="middle" x="901.5" y="-81" font-family="Vera Sans, DejaVu Sans, Liberation Sans, Arial, Helvetica, sans" font-size="10.00">pyVHDLModel.SyntaxModel.Constant</text>
</g>
<!-- pyVHDLModel.SyntaxModel.BaseConstant&#45;&gt;pyVHDLModel.SyntaxModel.Constant -->
<g id="edge4" class="edge">
<title>pyVHDLModel.SyntaxModel.BaseConstant&#45;&gt;pyVHDLModel.SyntaxModel.Constant</title>
<path fill="none" stroke="black" stroke-width="0.5" d="M665.51,-110.97C711.01,-105.65 767.69,-99.03 813.98,-93.61"/>
<polygon fill="black" stroke="black" stroke-width="0.5" points="814.23,-95.35 818.99,-93.03 813.83,-91.87 814.23,-95.35"/>
</g>
<!-- pyVHDLModel.SyntaxModel.Obj&#45;&gt;pyVHDLModel.SyntaxModel.BaseConstant -->
<g id="edge3" class="edge">
<title>pyVHDLModel.SyntaxModel.Obj&#45;&gt;pyVHDLModel.SyntaxModel.BaseConstant</title>
<path fill="none" stroke="black" stroke-width="0.5" d="M400.21,-120.5C421.21,-120.5 444.05,-120.5 466.23,-120.5"/>
<polygon fill="black" stroke="black" stroke-width="0.5" points="466.25,-122.25 471.25,-120.5 466.25,-118.75 466.25,-122.25"/>
</g>
<!-- pyVHDLModel.SyntaxModel.Constant&#45;&gt;pyVHDLModel.SyntaxModel.GenericConstantInterfaceItem -->
<g id="edge6" class="edge">
<title>pyVHDLModel.SyntaxModel.Constant&#45;&gt;pyVHDLModel.SyntaxModel.GenericConstantInterfaceItem</title>
<path fill="none" stroke="black" stroke-width="0.5" d="M985.04,-73.97C1031.12,-68.65 1088.51,-62.03 1135.38,-56.61"/>
<polygon fill="black" stroke="black" stroke-width="0.5" points="1135.7,-58.34 1140.46,-56.03 1135.3,-54.86 1135.7,-58.34"/>
</g>
<!-- pyVHDLModel.SyntaxModel.WithDefaultExpressionMixin -->
<g id="node9" class="node">
<title>pyVHDLModel.SyntaxModel.WithDefaultExpressionMixin</title>
<g id="a_node9"><a xlink:title="A ``WithDefaultExpression`` is a mixin class for all objects declarations">
<polygon fill="none" stroke="black" stroke-width="0.5" points="730,-93 436,-93 436,-74 730,-74 730,-93"/>
<text text-anchor="middle" x="583" y="-81" font-family="Vera Sans, DejaVu Sans, Liberation Sans, Arial, Helvetica, sans" font-size="10.00">pyVHDLModel.SyntaxModel.WithDefaultExpressionMixin</text>
</a>
</g>
</g>
<!-- pyVHDLModel.SyntaxModel.WithDefaultExpressionMixin&#45;&gt;pyVHDLModel.SyntaxModel.Constant -->
<g id="edge5" class="edge">
<title>pyVHDLModel.SyntaxModel.WithDefaultExpressionMixin&#45;&gt;pyVHDLModel.SyntaxModel.Constant</title>
<path fill="none" stroke="black" stroke-width="0.5" d="M730.21,-83.5C752.7,-83.5 775.52,-83.5 796.83,-83.5"/>
<polygon fill="black" stroke="black" stroke-width="0.5" points="796.93,-85.25 801.93,-83.5 796.93,-81.75 796.93,-85.25"/>
</g>
<!-- pyVHDLModel.SyntaxModel.GenericInterfaceItem -->
<g id="node10" class="node">
<title>pyVHDLModel.SyntaxModel.GenericInterfaceItem</title>
<g id="a_node10"><a xlink:title="A ``GenericInterfaceItem`` is a mixin class for all generic interface items.">
<polygon fill="none" stroke="black" stroke-width="0.5" points="1031,-56 772,-56 772,-37 1031,-37 1031,-56"/>
<text text-anchor="middle" x="901.5" y="-44" font-family="Vera Sans, DejaVu Sans, Liberation Sans, Arial, Helvetica, sans" font-size="10.00">pyVHDLModel.SyntaxModel.GenericInterfaceItem</text>
</a>
</g>
</g>
<!-- pyVHDLModel.SyntaxModel.GenericInterfaceItem&#45;&gt;pyVHDLModel.SyntaxModel.GenericConstantInterfaceItem -->
<g id="edge7" class="edge">
<title>pyVHDLModel.SyntaxModel.GenericInterfaceItem&#45;&gt;pyVHDLModel.SyntaxModel.GenericConstantInterfaceItem</title>
<path fill="none" stroke="black" stroke-width="0.5" d="M1031.01,-46.5C1043.05,-46.5 1055.34,-46.5 1067.59,-46.5"/>
<polygon fill="black" stroke="black" stroke-width="0.5" points="1067.83,-48.25 1072.83,-46.5 1067.83,-44.75 1067.83,-48.25"/>
</g>
<!-- pyVHDLModel.SyntaxModel.InterfaceItemWithMode -->
<g id="node11" class="node">
<title>pyVHDLModel.SyntaxModel.InterfaceItemWithMode</title>
<g id="a_node11"><a xlink:title="An ``InterfaceItemWithMode`` is a mixin&#45;class to provide a ``Mode`` to">
<polygon fill="none" stroke="black" stroke-width="0.5" points="1037,-19 766,-19 766,0 1037,0 1037,-19"/>
<text text-anchor="middle" x="901.5" y="-7" font-family="Vera Sans, DejaVu Sans, Liberation Sans, Arial, Helvetica, sans" font-size="10.00">pyVHDLModel.SyntaxModel.InterfaceItemWithMode</text>
</a>
</g>
</g>
<!-- pyVHDLModel.SyntaxModel.InterfaceItemWithMode&#45;&gt;pyVHDLModel.SyntaxModel.GenericConstantInterfaceItem -->
<g id="edge8" class="edge">
<title>pyVHDLModel.SyntaxModel.InterfaceItemWithMode&#45;&gt;pyVHDLModel.SyntaxModel.GenericConstantInterfaceItem</title>
<path fill="none" stroke="black" stroke-width="0.5" d="M985.04,-19.03C1031.12,-24.35 1088.51,-30.97 1135.38,-36.39"/>
<polygon fill="black" stroke="black" stroke-width="0.5" points="1135.3,-38.14 1140.46,-36.97 1135.7,-34.66 1135.3,-38.14"/>
</g>
<!-- pyVHDLModel.SyntaxModel.InterfaceItem -->
<g id="node12" class="node">
<title>pyVHDLModel.SyntaxModel.InterfaceItem</title>
<g id="a_node12"><a xlink:title="An ``InterfaceItem`` is a base&#45;class for all mixin&#45;classes for all interface">
<polygon fill="none" stroke="black" stroke-width="0.5" points="693.5,-56 472.5,-56 472.5,-37 693.5,-37 693.5,-56"/>
<text text-anchor="middle" x="583" y="-44" font-family="Vera Sans, DejaVu Sans, Liberation Sans, Arial, Helvetica, sans" font-size="10.00">pyVHDLModel.SyntaxModel.InterfaceItem</text>
</a>
</g>
</g>
<!-- pyVHDLModel.SyntaxModel.InterfaceItem&#45;&gt;pyVHDLModel.SyntaxModel.GenericInterfaceItem -->
<g id="edge9" class="edge">
<title>pyVHDLModel.SyntaxModel.InterfaceItem&#45;&gt;pyVHDLModel.SyntaxModel.GenericInterfaceItem</title>
<path fill="none" stroke="black" stroke-width="0.5" d="M693.81,-46.5C717.31,-46.5 742.39,-46.5 766.68,-46.5"/>
<polygon fill="black" stroke="black" stroke-width="0.5" points="766.85,-48.25 771.85,-46.5 766.85,-44.75 766.85,-48.25"/>
</g>
</g>
</svg>
