<?xml version="1.0" encoding="UTF-8" standalone="no"?>
<!DOCTYPE svg PUBLIC "-//W3C//DTD SVG 1.1//EN"
 "http://www.w3.org/Graphics/SVG/1.1/DTD/svg11.dtd">
<!-- Generated by graphviz version 2.43.0 (0)
 -->
<!-- Title: inheritanceaf6960959e Pages: 1 -->
<svg width="576pt" height="41pt"
 viewBox="0.00 0.00 576.00 40.96" xmlns="http://www.w3.org/2000/svg" xmlns:xlink="http://www.w3.org/1999/xlink">
<g id="graph0" class="graph" transform="scale(2 2) rotate(0) translate(4 78)">
<title>inheritanceaf6960959e</title>
<polygon fill="white" stroke="transparent" points="-4,4 -4,-78 1149,-78 1149,4 -4,4"/>
<!-- pyGHDL.dom.DOMMixin -->
<g id="node1" class="node">
<title>pyGHDL.dom.DOMMixin</title>
<g id="a_node1"><a xlink:href="../pyGHDL.dom.html#pyGHDL.dom.DOMMixin" xlink:title="pyGHDL.dom.DOMMixin" target="_top">
<polygon fill="none" stroke="black" stroke-width="0.5" points="849,-74 714,-74 714,-55 849,-55 849,-74"/>
<text text-anchor="middle" x="781.5" y="-62" font-family="Vera Sans, DejaVu Sans, Liberation Sans, Arial, Helvetica, sans" font-size="10.00">pyGHDL.dom.DOMMixin</text>
</a>
</g>
</g>
<!-- pyGHDL.dom.Type.ProtectedTypeBody -->
<g id="node2" class="node">
<title>pyGHDL.dom.Type.ProtectedTypeBody</title>
<g id="a_node2"><a xlink:href="../pyGHDL/pyGHDL.dom.Type.html#pyGHDL.dom.Type.ProtectedTypeBody" xlink:title="pyGHDL.dom.Type.ProtectedTypeBody" target="_top">
<polygon fill="none" stroke="black" stroke-width="0.5" points="1145,-55 942,-55 942,-36 1145,-36 1145,-55"/>
<text text-anchor="middle" x="1043.5" y="-43" font-family="Vera Sans, DejaVu Sans, Liberation Sans, Arial, Helvetica, sans" font-size="10.00">pyGHDL.dom.Type.ProtectedTypeBody</text>
</a>
</g>
</g>
<!-- pyGHDL.dom.DOMMixin&#45;&gt;pyGHDL.dom.Type.ProtectedTypeBody -->
<g id="edge2" class="edge">
<title>pyGHDL.dom.DOMMixin&#45;&gt;pyGHDL.dom.Type.ProtectedTypeBody</title>
<path fill="none" stroke="black" stroke-width="0.5" d="M849.12,-59.63C875.72,-57.69 907,-55.4 936.56,-53.24"/>
<polygon fill="black" stroke="black" stroke-width="0.5" points="936.82,-54.98 941.67,-52.87 936.56,-51.49 936.82,-54.98"/>
</g>
<!-- pyVHDLModel.SyntaxModel.ProtectedTypeBody -->
<g id="node3" class="node">
<title>pyVHDLModel.SyntaxModel.ProtectedTypeBody</title>
<polygon fill="none" stroke="black" stroke-width="0.5" points="906,-37 657,-37 657,-18 906,-18 906,-37"/>
<text text-anchor="middle" x="781.5" y="-25" font-family="Vera Sans, DejaVu Sans, Liberation Sans, Arial, Helvetica, sans" font-size="10.00">pyVHDLModel.SyntaxModel.ProtectedTypeBody</text>
</g>
<!-- pyVHDLModel.SyntaxModel.ProtectedTypeBody&#45;&gt;pyGHDL.dom.Type.ProtectedTypeBody -->
<g id="edge1" class="edge">
<title>pyVHDLModel.SyntaxModel.ProtectedTypeBody&#45;&gt;pyGHDL.dom.Type.ProtectedTypeBody</title>
<path fill="none" stroke="black" stroke-width="0.5" d="M906.03,-36.05C916.39,-36.77 926.8,-37.49 937.01,-38.2"/>
<polygon fill="black" stroke="black" stroke-width="0.5" points="936.89,-39.94 942,-38.54 937.13,-36.45 936.89,-39.94"/>
</g>
<!-- pyVHDLModel.ModelEntity -->
<g id="node4" class="node">
<title>pyVHDLModel.ModelEntity</title>
<g id="a_node4"><a xlink:title="``ModelEntity`` is the base class for all classes in the VHDL language model,">
<polygon fill="none" stroke="black" stroke-width="0.5" points="149.5,-56 2.5,-56 2.5,-37 149.5,-37 149.5,-56"/>
<text text-anchor="middle" x="76" y="-44" font-family="Vera Sans, DejaVu Sans, Liberation Sans, Arial, Helvetica, sans" font-size="10.00">pyVHDLModel.ModelEntity</text>
</a>
</g>
</g>
<!-- pyVHDLModel.SyntaxModel.BaseType -->
<g id="node6" class="node">
<title>pyVHDLModel.SyntaxModel.BaseType</title>
<g id="a_node6"><a xlink:title="``BaseType`` is the base class of all type entities in this model.">
<polygon fill="none" stroke="black" stroke-width="0.5" points="390,-37 188,-37 188,-18 390,-18 390,-37"/>
<text text-anchor="middle" x="289" y="-25" font-family="Vera Sans, DejaVu Sans, Liberation Sans, Arial, Helvetica, sans" font-size="10.00">pyVHDLModel.SyntaxModel.BaseType</text>
</a>
</g>
</g>
<!-- pyVHDLModel.ModelEntity&#45;&gt;pyVHDLModel.SyntaxModel.BaseType -->
<g id="edge3" class="edge">
<title>pyVHDLModel.ModelEntity&#45;&gt;pyVHDLModel.SyntaxModel.BaseType</title>
<path fill="none" stroke="black" stroke-width="0.5" d="M149.61,-39.96C160.26,-39 171.41,-38 182.55,-37"/>
<polygon fill="black" stroke="black" stroke-width="0.5" points="182.85,-38.73 187.67,-36.53 182.53,-35.24 182.85,-38.73"/>
</g>
<!-- pyVHDLModel.NamedEntity -->
<g id="node5" class="node">
<title>pyVHDLModel.NamedEntity</title>
<g id="a_node5"><a xlink:title="A ``NamedEntity`` is a mixin class for all VHDL entities that have identifiers.">
<polygon fill="none" stroke="black" stroke-width="0.5" points="152,-19 0,-19 0,0 152,0 152,-19"/>
<text text-anchor="middle" x="76" y="-7" font-family="Vera Sans, DejaVu Sans, Liberation Sans, Arial, Helvetica, sans" font-size="10.00">pyVHDLModel.NamedEntity</text>
</a>
</g>
</g>
<!-- pyVHDLModel.NamedEntity&#45;&gt;pyVHDLModel.SyntaxModel.BaseType -->
<g id="edge4" class="edge">
<title>pyVHDLModel.NamedEntity&#45;&gt;pyVHDLModel.SyntaxModel.BaseType</title>
<path fill="none" stroke="black" stroke-width="0.5" d="M152.28,-15.92C162.15,-16.76 172.4,-17.64 182.65,-18.51"/>
<polygon fill="black" stroke="black" stroke-width="0.5" points="182.55,-20.26 187.68,-18.94 182.84,-16.77 182.55,-20.26"/>
</g>
<!-- pyVHDLModel.SyntaxModel.FullType -->
<g id="node7" class="node">
<title>pyVHDLModel.SyntaxModel.FullType</title>
<polygon fill="none" stroke="black" stroke-width="0.5" points="621,-37 426,-37 426,-18 621,-18 621,-37"/>
<text text-anchor="middle" x="523.5" y="-25" font-family="Vera Sans, DejaVu Sans, Liberation Sans, Arial, Helvetica, sans" font-size="10.00">pyVHDLModel.SyntaxModel.FullType</text>
</g>
<!-- pyVHDLModel.SyntaxModel.BaseType&#45;&gt;pyVHDLModel.SyntaxModel.FullType -->
<g id="edge5" class="edge">
<title>pyVHDLModel.SyntaxModel.BaseType&#45;&gt;pyVHDLModel.SyntaxModel.FullType</title>
<path fill="none" stroke="black" stroke-width="0.5" d="M390.29,-27.5C400.34,-27.5 410.54,-27.5 420.61,-27.5"/>
<polygon fill="black" stroke="black" stroke-width="0.5" points="420.86,-29.25 425.86,-27.5 420.86,-25.75 420.86,-29.25"/>
</g>
<!-- pyVHDLModel.SyntaxModel.FullType&#45;&gt;pyVHDLModel.SyntaxModel.ProtectedTypeBody -->
<g id="edge6" class="edge">
<title>pyVHDLModel.SyntaxModel.FullType&#45;&gt;pyVHDLModel.SyntaxModel.ProtectedTypeBody</title>
<path fill="none" stroke="black" stroke-width="0.5" d="M621.28,-27.5C631.26,-27.5 641.51,-27.5 651.76,-27.5"/>
<polygon fill="black" stroke="black" stroke-width="0.5" points="651.79,-29.25 656.79,-27.5 651.79,-25.75 651.79,-29.25"/>
</g>
</g>
</svg>
