<?xml version="1.0" encoding="UTF-8" standalone="no"?>
<!DOCTYPE svg PUBLIC "-//W3C//DTD SVG 1.1//EN"
 "http://www.w3.org/Graphics/SVG/1.1/DTD/svg11.dtd">
<!-- Generated by graphviz version 2.43.0 (0)
 -->
<!-- Title: inheritanced1c51ecd68 Pages: 1 -->
<svg width="576pt" height="36pt"
 viewBox="0.00 0.00 576.00 36.25" xmlns="http://www.w3.org/2000/svg" xmlns:xlink="http://www.w3.org/1999/xlink">
<g id="graph0" class="graph" transform="scale(2.79 2.79) rotate(0) translate(4 97)">
<title>inheritanced1c51ecd68</title>
<polygon fill="white" stroke="transparent" points="-4,4 -4,-97 1601,-97 1601,4 -4,4"/>
<!-- pyGHDL.dom.DOMMixin -->
<g id="node1" class="node">
<title>pyGHDL.dom.DOMMixin</title>
<g id="a_node1"><a xlink:href="../pyGHDL.dom.html#pyGHDL.dom.DOMMixin" xlink:title="pyGHDL.dom.DOMMixin" target="_top">
<polygon fill="none" stroke="black" stroke-width="0.5" points="1355.5,-93 1220.5,-93 1220.5,-74 1355.5,-74 1355.5,-93"/>
<text text-anchor="middle" x="1288" y="-81" font-family="Vera Sans, DejaVu Sans, Liberation Sans, Arial, Helvetica, sans" font-size="10.00">pyGHDL.dom.DOMMixin</text>
</a>
</g>
</g>
<!-- pyGHDL.dom.Type.IntegerType -->
<g id="node2" class="node">
<title>pyGHDL.dom.Type.IntegerType</title>
<g id="a_node2"><a xlink:href="../pyGHDL/pyGHDL.dom.Type.html#pyGHDL.dom.Type.IntegerType" xlink:title="pyGHDL.dom.Type.IntegerType" target="_top">
<polygon fill="none" stroke="black" stroke-width="0.5" points="1597,-74 1430,-74 1430,-55 1597,-55 1597,-74"/>
<text text-anchor="middle" x="1513.5" y="-62" font-family="Vera Sans, DejaVu Sans, Liberation Sans, Arial, Helvetica, sans" font-size="10.00">pyGHDL.dom.Type.IntegerType</text>
</a>
</g>
</g>
<!-- pyGHDL.dom.DOMMixin&#45;&gt;pyGHDL.dom.Type.IntegerType -->
<g id="edge2" class="edge">
<title>pyGHDL.dom.DOMMixin&#45;&gt;pyGHDL.dom.Type.IntegerType</title>
<path fill="none" stroke="black" stroke-width="0.5" d="M1355.75,-77.83C1377.4,-75.99 1401.75,-73.92 1424.68,-71.97"/>
<polygon fill="black" stroke="black" stroke-width="0.5" points="1425.03,-73.69 1429.86,-71.53 1424.73,-70.2 1425.03,-73.69"/>
</g>
<!-- pyVHDLModel.SyntaxModel.IntegerType -->
<g id="node3" class="node">
<title>pyVHDLModel.SyntaxModel.IntegerType</title>
<polygon fill="none" stroke="black" stroke-width="0.5" points="1394,-56 1182,-56 1182,-37 1394,-37 1394,-56"/>
<text text-anchor="middle" x="1288" y="-44" font-family="Vera Sans, DejaVu Sans, Liberation Sans, Arial, Helvetica, sans" font-size="10.00">pyVHDLModel.SyntaxModel.IntegerType</text>
</g>
<!-- pyVHDLModel.SyntaxModel.IntegerType&#45;&gt;pyGHDL.dom.Type.IntegerType -->
<g id="edge1" class="edge">
<title>pyVHDLModel.SyntaxModel.IntegerType&#45;&gt;pyGHDL.dom.Type.IntegerType</title>
<path fill="none" stroke="black" stroke-width="0.5" d="M1394.21,-54.97C1404.43,-55.8 1414.72,-56.62 1424.74,-57.43"/>
<polygon fill="black" stroke="black" stroke-width="0.5" points="1424.83,-59.2 1429.96,-57.85 1425.11,-55.71 1424.83,-59.2"/>
</g>
<!-- pyVHDLModel.ModelEntity -->
<g id="node4" class="node">
<title>pyVHDLModel.ModelEntity</title>
<g id="a_node4"><a xlink:title="``ModelEntity`` is the base class for all classes in the VHDL language model,">
<polygon fill="none" stroke="black" stroke-width="0.5" points="149.5,-75 2.5,-75 2.5,-56 149.5,-56 149.5,-75"/>
<text text-anchor="middle" x="76" y="-63" font-family="Vera Sans, DejaVu Sans, Liberation Sans, Arial, Helvetica, sans" font-size="10.00">pyVHDLModel.ModelEntity</text>
</a>
</g>
</g>
<!-- pyVHDLModel.SyntaxModel.BaseType -->
<g id="node6" class="node">
<title>pyVHDLModel.SyntaxModel.BaseType</title>
<g id="a_node6"><a xlink:title="``BaseType`` is the base class of all type entities in this model.">
<polygon fill="none" stroke="black" stroke-width="0.5" points="390,-56 188,-56 188,-37 390,-37 390,-56"/>
<text text-anchor="middle" x="289" y="-44" font-family="Vera Sans, DejaVu Sans, Liberation Sans, Arial, Helvetica, sans" font-size="10.00">pyVHDLModel.SyntaxModel.BaseType</text>
</a>
</g>
</g>
<!-- pyVHDLModel.ModelEntity&#45;&gt;pyVHDLModel.SyntaxModel.BaseType -->
<g id="edge3" class="edge">
<title>pyVHDLModel.ModelEntity&#45;&gt;pyVHDLModel.SyntaxModel.BaseType</title>
<path fill="none" stroke="black" stroke-width="0.5" d="M149.61,-58.96C160.26,-58 171.41,-57 182.55,-56"/>
<polygon fill="black" stroke="black" stroke-width="0.5" points="182.85,-57.73 187.67,-55.53 182.53,-54.24 182.85,-57.73"/>
</g>
<!-- pyVHDLModel.NamedEntity -->
<g id="node5" class="node">
<title>pyVHDLModel.NamedEntity</title>
<g id="a_node5"><a xlink:title="A ``NamedEntity`` is a mixin class for all VHDL entities that have identifiers.">
<polygon fill="none" stroke="black" stroke-width="0.5" points="152,-38 0,-38 0,-19 152,-19 152,-38"/>
<text text-anchor="middle" x="76" y="-26" font-family="Vera Sans, DejaVu Sans, Liberation Sans, Arial, Helvetica, sans" font-size="10.00">pyVHDLModel.NamedEntity</text>
</a>
</g>
</g>
<!-- pyVHDLModel.NamedEntity&#45;&gt;pyVHDLModel.SyntaxModel.BaseType -->
<g id="edge4" class="edge">
<title>pyVHDLModel.NamedEntity&#45;&gt;pyVHDLModel.SyntaxModel.BaseType</title>
<path fill="none" stroke="black" stroke-width="0.5" d="M152.28,-34.92C162.15,-35.76 172.4,-36.64 182.65,-37.51"/>
<polygon fill="black" stroke="black" stroke-width="0.5" points="182.55,-39.26 187.68,-37.94 182.84,-35.77 182.55,-39.26"/>
</g>
<!-- pyVHDLModel.SyntaxModel.FullType -->
<g id="node8" class="node">
<title>pyVHDLModel.SyntaxModel.FullType</title>
<polygon fill="none" stroke="black" stroke-width="0.5" points="621,-56 426,-56 426,-37 621,-37 621,-56"/>
<text text-anchor="middle" x="523.5" y="-44" font-family="Vera Sans, DejaVu Sans, Liberation Sans, Arial, Helvetica, sans" font-size="10.00">pyVHDLModel.SyntaxModel.FullType</text>
</g>
<!-- pyVHDLModel.SyntaxModel.BaseType&#45;&gt;pyVHDLModel.SyntaxModel.FullType -->
<g id="edge5" class="edge">
<title>pyVHDLModel.SyntaxModel.BaseType&#45;&gt;pyVHDLModel.SyntaxModel.FullType</title>
<path fill="none" stroke="black" stroke-width="0.5" d="M390.29,-46.5C400.34,-46.5 410.54,-46.5 420.61,-46.5"/>
<polygon fill="black" stroke="black" stroke-width="0.5" points="420.86,-48.25 425.86,-46.5 420.86,-44.75 420.86,-48.25"/>
</g>
<!-- pyVHDLModel.SyntaxModel.DiscreteType -->
<g id="node7" class="node">
<title>pyVHDLModel.SyntaxModel.DiscreteType</title>
<g id="a_node7"><a xlink:title="A ``DiscreteType`` is a mixin class for all discrete types.">
<polygon fill="none" stroke="black" stroke-width="0.5" points="1132.5,-93 914.5,-93 914.5,-74 1132.5,-74 1132.5,-93"/>
<text text-anchor="middle" x="1023.5" y="-81" font-family="Vera Sans, DejaVu Sans, Liberation Sans, Arial, Helvetica, sans" font-size="10.00">pyVHDLModel.SyntaxModel.DiscreteType</text>
</a>
</g>
</g>
<!-- pyVHDLModel.SyntaxModel.DiscreteType&#45;&gt;pyVHDLModel.SyntaxModel.IntegerType -->
<g id="edge8" class="edge">
<title>pyVHDLModel.SyntaxModel.DiscreteType&#45;&gt;pyVHDLModel.SyntaxModel.IntegerType</title>
<path fill="none" stroke="black" stroke-width="0.5" d="M1092.1,-73.97C1129.46,-68.71 1175.91,-62.16 1214.08,-56.78"/>
<polygon fill="black" stroke="black" stroke-width="0.5" points="1214.47,-58.49 1219.17,-56.06 1213.98,-55.03 1214.47,-58.49"/>
</g>
<!-- pyVHDLModel.SyntaxModel.ScalarType -->
<g id="node11" class="node">
<title>pyVHDLModel.SyntaxModel.ScalarType</title>
<g id="a_node11"><a xlink:title="A ``ScalarType`` is a base&#45;class for all scalar types.">
<polygon fill="none" stroke="black" stroke-width="0.5" points="865,-56 657,-56 657,-37 865,-37 865,-56"/>
<text text-anchor="middle" x="761" y="-44" font-family="Vera Sans, DejaVu Sans, Liberation Sans, Arial, Helvetica, sans" font-size="10.00">pyVHDLModel.SyntaxModel.ScalarType</text>
</a>
</g>
</g>
<!-- pyVHDLModel.SyntaxModel.FullType&#45;&gt;pyVHDLModel.SyntaxModel.ScalarType -->
<g id="edge10" class="edge">
<title>pyVHDLModel.SyntaxModel.FullType&#45;&gt;pyVHDLModel.SyntaxModel.ScalarType</title>
<path fill="none" stroke="black" stroke-width="0.5" d="M621.31,-46.5C631.25,-46.5 641.39,-46.5 651.44,-46.5"/>
<polygon fill="black" stroke="black" stroke-width="0.5" points="651.69,-48.25 656.69,-46.5 651.69,-44.75 651.69,-48.25"/>
</g>
<!-- pyVHDLModel.SyntaxModel.RangedScalarType -->
<g id="node9" class="node">
<title>pyVHDLModel.SyntaxModel.RangedScalarType</title>
<g id="a_node9"><a xlink:title="A ``RangedScalarType`` is a base&#45;class for all scalar types with a range.">
<polygon fill="none" stroke="black" stroke-width="0.5" points="1146,-56 901,-56 901,-37 1146,-37 1146,-56"/>
<text text-anchor="middle" x="1023.5" y="-44" font-family="Vera Sans, DejaVu Sans, Liberation Sans, Arial, Helvetica, sans" font-size="10.00">pyVHDLModel.SyntaxModel.RangedScalarType</text>
</a>
</g>
</g>
<!-- pyVHDLModel.SyntaxModel.RangedScalarType&#45;&gt;pyVHDLModel.SyntaxModel.IntegerType -->
<g id="edge6" class="edge">
<title>pyVHDLModel.SyntaxModel.RangedScalarType&#45;&gt;pyVHDLModel.SyntaxModel.IntegerType</title>
<path fill="none" stroke="black" stroke-width="0.5" d="M1146.14,-46.5C1156.31,-46.5 1166.55,-46.5 1176.62,-46.5"/>
<polygon fill="black" stroke="black" stroke-width="0.5" points="1176.87,-48.25 1181.87,-46.5 1176.87,-44.75 1176.87,-48.25"/>
</g>
<!-- pyVHDLModel.SyntaxModel.NumericType -->
<g id="node10" class="node">
<title>pyVHDLModel.SyntaxModel.NumericType</title>
<g id="a_node10"><a xlink:title="A ``NumericType`` is a mixin class for all numeric types.">
<polygon fill="none" stroke="black" stroke-width="0.5" points="1133,-19 914,-19 914,0 1133,0 1133,-19"/>
<text text-anchor="middle" x="1023.5" y="-7" font-family="Vera Sans, DejaVu Sans, Liberation Sans, Arial, Helvetica, sans" font-size="10.00">pyVHDLModel.SyntaxModel.NumericType</text>
</a>
</g>
</g>
<!-- pyVHDLModel.SyntaxModel.NumericType&#45;&gt;pyVHDLModel.SyntaxModel.IntegerType -->
<g id="edge7" class="edge">
<title>pyVHDLModel.SyntaxModel.NumericType&#45;&gt;pyVHDLModel.SyntaxModel.IntegerType</title>
<path fill="none" stroke="black" stroke-width="0.5" d="M1092.1,-19.03C1129.46,-24.29 1175.91,-30.84 1214.08,-36.22"/>
<polygon fill="black" stroke="black" stroke-width="0.5" points="1213.98,-37.97 1219.17,-36.94 1214.47,-34.51 1213.98,-37.97"/>
</g>
<!-- pyVHDLModel.SyntaxModel.ScalarType&#45;&gt;pyVHDLModel.SyntaxModel.RangedScalarType -->
<g id="edge9" class="edge">
<title>pyVHDLModel.SyntaxModel.ScalarType&#45;&gt;pyVHDLModel.SyntaxModel.RangedScalarType</title>
<path fill="none" stroke="black" stroke-width="0.5" d="M865.33,-46.5C875.34,-46.5 885.57,-46.5 895.78,-46.5"/>
<polygon fill="black" stroke="black" stroke-width="0.5" points="895.78,-48.25 900.78,-46.5 895.78,-44.75 895.78,-48.25"/>
</g>
</g>
</svg>
