<?xml version="1.0" encoding="UTF-8" standalone="no"?>
<!DOCTYPE svg PUBLIC "-//W3C//DTD SVG 1.1//EN"
 "http://www.w3.org/Graphics/SVG/1.1/DTD/svg11.dtd">
<!-- Generated by graphviz version 2.43.0 (0)
 -->
<!-- Title: inheritance05f221a044 Pages: 1 -->
<svg width="576pt" height="32pt"
 viewBox="0.00 0.00 576.00 31.67" xmlns="http://www.w3.org/2000/svg" xmlns:xlink="http://www.w3.org/1999/xlink">
<g id="graph0" class="graph" transform="scale(2.02 2.02) rotate(0) translate(4 60)">
<title>inheritance05f221a044</title>
<polygon fill="white" stroke="transparent" points="-4,4 -4,-60 1160,-60 1160,4 -4,4"/>
<!-- pyGHDL.dom.DOMMixin -->
<g id="node1" class="node">
<title>pyGHDL.dom.DOMMixin</title>
<g id="a_node1"><a xlink:href="../pyGHDL.dom.html#pyGHDL.dom.DOMMixin" xlink:title="pyGHDL.dom.DOMMixin" target="_top">
<polygon fill="none" stroke="black" stroke-width="0.5" points="864,-56 729,-56 729,-37 864,-37 864,-56"/>
<text text-anchor="middle" x="796.5" y="-44" font-family="Vera Sans, DejaVu Sans, Liberation Sans, Arial, Helvetica, sans" font-size="10.00">pyGHDL.dom.DOMMixin</text>
</a>
</g>
</g>
<!-- pyGHDL.dom.Sequential.IndexedChoice -->
<g id="node2" class="node">
<title>pyGHDL.dom.Sequential.IndexedChoice</title>
<g id="a_node2"><a xlink:href="../pyGHDL/pyGHDL.dom.Sequential.html#pyGHDL.dom.Sequential.IndexedChoice" xlink:title="pyGHDL.dom.Sequential.IndexedChoice" target="_top">
<polygon fill="none" stroke="black" stroke-width="0.5" points="1156,-37 946,-37 946,-18 1156,-18 1156,-37"/>
<text text-anchor="middle" x="1051" y="-25" font-family="Vera Sans, DejaVu Sans, Liberation Sans, Arial, Helvetica, sans" font-size="10.00">pyGHDL.dom.Sequential.IndexedChoice</text>
</a>
</g>
</g>
<!-- pyGHDL.dom.DOMMixin&#45;&gt;pyGHDL.dom.Sequential.IndexedChoice -->
<g id="edge2" class="edge">
<title>pyGHDL.dom.DOMMixin&#45;&gt;pyGHDL.dom.Sequential.IndexedChoice</title>
<path fill="none" stroke="black" stroke-width="0.5" d="M864.17,-41.48C887.59,-39.72 914.57,-37.69 940.57,-35.73"/>
<polygon fill="black" stroke="black" stroke-width="0.5" points="940.9,-37.46 945.76,-35.34 940.64,-33.97 940.9,-37.46"/>
</g>
<!-- pyVHDLModel.SyntaxModel.IndexedChoice -->
<g id="node3" class="node">
<title>pyVHDLModel.SyntaxModel.IndexedChoice</title>
<polygon fill="none" stroke="black" stroke-width="0.5" points="910,-19 683,-19 683,0 910,0 910,-19"/>
<text text-anchor="middle" x="796.5" y="-7" font-family="Vera Sans, DejaVu Sans, Liberation Sans, Arial, Helvetica, sans" font-size="10.00">pyVHDLModel.SyntaxModel.IndexedChoice</text>
</g>
<!-- pyVHDLModel.SyntaxModel.IndexedChoice&#45;&gt;pyGHDL.dom.Sequential.IndexedChoice -->
<g id="edge1" class="edge">
<title>pyVHDLModel.SyntaxModel.IndexedChoice&#45;&gt;pyGHDL.dom.Sequential.IndexedChoice</title>
<path fill="none" stroke="black" stroke-width="0.5" d="M910.09,-17.53C920.17,-18.24 930.36,-18.97 940.42,-19.69"/>
<polygon fill="black" stroke="black" stroke-width="0.5" points="940.55,-21.45 945.66,-20.06 940.8,-17.96 940.55,-21.45"/>
</g>
<!-- pyVHDLModel.ModelEntity -->
<g id="node4" class="node">
<title>pyVHDLModel.ModelEntity</title>
<g id="a_node4"><a xlink:title="``ModelEntity`` is the base class for all classes in the VHDL language model,">
<polygon fill="none" stroke="black" stroke-width="0.5" points="147,-19 0,-19 0,0 147,0 147,-19"/>
<text text-anchor="middle" x="73.5" y="-7" font-family="Vera Sans, DejaVu Sans, Liberation Sans, Arial, Helvetica, sans" font-size="10.00">pyVHDLModel.ModelEntity</text>
</a>
</g>
</g>
<!-- pyVHDLModel.SyntaxModel.Choice -->
<g id="node5" class="node">
<title>pyVHDLModel.SyntaxModel.Choice</title>
<g id="a_node5"><a xlink:title="A ``Choice`` is a base&#45;class for all choices.">
<polygon fill="none" stroke="black" stroke-width="0.5" points="371,-19 183,-19 183,0 371,0 371,-19"/>
<text text-anchor="middle" x="277" y="-7" font-family="Vera Sans, DejaVu Sans, Liberation Sans, Arial, Helvetica, sans" font-size="10.00">pyVHDLModel.SyntaxModel.Choice</text>
</a>
</g>
</g>
<!-- pyVHDLModel.ModelEntity&#45;&gt;pyVHDLModel.SyntaxModel.Choice -->
<g id="edge3" class="edge">
<title>pyVHDLModel.ModelEntity&#45;&gt;pyVHDLModel.SyntaxModel.Choice</title>
<path fill="none" stroke="black" stroke-width="0.5" d="M147.25,-9.5C157.13,-9.5 167.4,-9.5 177.64,-9.5"/>
<polygon fill="black" stroke="black" stroke-width="0.5" points="177.66,-11.25 182.66,-9.5 177.66,-7.75 177.66,-11.25"/>
</g>
<!-- pyVHDLModel.SyntaxModel.SequentialChoice -->
<g id="node6" class="node">
<title>pyVHDLModel.SyntaxModel.SequentialChoice</title>
<g id="a_node6"><a xlink:title="A ``SequentialChoice`` is a base&#45;class for all sequential choices">
<polygon fill="none" stroke="black" stroke-width="0.5" points="647,-19 407,-19 407,0 647,0 647,-19"/>
<text text-anchor="middle" x="527" y="-7" font-family="Vera Sans, DejaVu Sans, Liberation Sans, Arial, Helvetica, sans" font-size="10.00">pyVHDLModel.SyntaxModel.SequentialChoice</text>
</a>
</g>
</g>
<!-- pyVHDLModel.SyntaxModel.Choice&#45;&gt;pyVHDLModel.SyntaxModel.SequentialChoice -->
<g id="edge5" class="edge">
<title>pyVHDLModel.SyntaxModel.Choice&#45;&gt;pyVHDLModel.SyntaxModel.SequentialChoice</title>
<path fill="none" stroke="black" stroke-width="0.5" d="M371.05,-9.5C381.09,-9.5 391.42,-9.5 401.75,-9.5"/>
<polygon fill="black" stroke="black" stroke-width="0.5" points="401.82,-11.25 406.82,-9.5 401.82,-7.75 401.82,-11.25"/>
</g>
<!-- pyVHDLModel.SyntaxModel.SequentialChoice&#45;&gt;pyVHDLModel.SyntaxModel.IndexedChoice -->
<g id="edge4" class="edge">
<title>pyVHDLModel.SyntaxModel.SequentialChoice&#45;&gt;pyVHDLModel.SyntaxModel.IndexedChoice</title>
<path fill="none" stroke="black" stroke-width="0.5" d="M647.28,-9.5C657.36,-9.5 667.56,-9.5 677.63,-9.5"/>
<polygon fill="black" stroke="black" stroke-width="0.5" points="677.89,-11.25 682.89,-9.5 677.89,-7.75 677.89,-11.25"/>
</g>
</g>
</svg>
