<?xml version="1.0" encoding="UTF-8" standalone="no"?>
<!DOCTYPE svg PUBLIC "-//W3C//DTD SVG 1.1//EN"
 "http://www.w3.org/Graphics/SVG/1.1/DTD/svg11.dtd">
<!-- Generated by graphviz version 2.43.0 (0)
 -->
<!-- Title: inheritance1ea8a38bae Pages: 1 -->
<svg width="576pt" height="71pt"
 viewBox="0.00 0.00 576.00 71.29" xmlns="http://www.w3.org/2000/svg" xmlns:xlink="http://www.w3.org/1999/xlink">
<g id="graph0" class="graph" transform="scale(1.94 1.94) rotate(0) translate(4 134)">
<title>inheritance1ea8a38bae</title>
<polygon fill="white" stroke="transparent" points="-4,4 -4,-134 1111,-134 1111,4 -4,4"/>
<!-- pyGHDL.dom.Concurrent.ElseGenerateBranch -->
<g id="node1" class="node">
<title>pyGHDL.dom.Concurrent.ElseGenerateBranch</title>
<g id="a_node1"><a xlink:href="../pyGHDL/pyGHDL.dom.Concurrent.html#pyGHDL.dom.Concurrent.ElseGenerateBranch" xlink:title="pyGHDL.dom.Concurrent.ElseGenerateBranch" target="_top">
<polygon fill="none" stroke="black" stroke-width="0.5" points="1107,-51 868,-51 868,-32 1107,-32 1107,-51"/>
<text text-anchor="middle" x="987.5" y="-39" font-family="Vera Sans, DejaVu Sans, Liberation Sans, Arial, Helvetica, sans" font-size="10.00">pyGHDL.dom.Concurrent.ElseGenerateBranch</text>
</a>
</g>
</g>
<!-- pyVHDLModel.SyntaxModel.ElseGenerateBranch -->
<g id="node2" class="node">
<title>pyVHDLModel.SyntaxModel.ElseGenerateBranch</title>
<polygon fill="none" stroke="black" stroke-width="0.5" points="832,-51 578,-51 578,-32 832,-32 832,-51"/>
<text text-anchor="middle" x="705" y="-39" font-family="Vera Sans, DejaVu Sans, Liberation Sans, Arial, Helvetica, sans" font-size="10.00">pyVHDLModel.SyntaxModel.ElseGenerateBranch</text>
</g>
<!-- pyVHDLModel.SyntaxModel.ElseGenerateBranch&#45;&gt;pyGHDL.dom.Concurrent.ElseGenerateBranch -->
<g id="edge1" class="edge">
<title>pyVHDLModel.SyntaxModel.ElseGenerateBranch&#45;&gt;pyGHDL.dom.Concurrent.ElseGenerateBranch</title>
<path fill="none" stroke="black" stroke-width="0.5" d="M832.3,-41.5C842.33,-41.5 852.46,-41.5 862.47,-41.5"/>
<polygon fill="black" stroke="black" stroke-width="0.5" points="862.7,-43.25 867.7,-41.5 862.7,-39.75 862.7,-43.25"/>
</g>
<!-- pyVHDLModel.ModelEntity -->
<g id="node3" class="node">
<title>pyVHDLModel.ModelEntity</title>
<g id="a_node3"><a xlink:title="``ModelEntity`` is the base class for all classes in the VHDL language model,">
<polygon fill="none" stroke="black" stroke-width="0.5" points="208.5,-130 61.5,-130 61.5,-111 208.5,-111 208.5,-130"/>
<text text-anchor="middle" x="135" y="-118" font-family="Vera Sans, DejaVu Sans, Liberation Sans, Arial, Helvetica, sans" font-size="10.00">pyVHDLModel.ModelEntity</text>
</a>
</g>
</g>
<!-- pyVHDLModel.SyntaxModel.GenerateBranch -->
<g id="node6" class="node">
<title>pyVHDLModel.SyntaxModel.GenerateBranch</title>
<g id="a_node6"><a xlink:title="A ``GenerateBranch`` is a base&#45;class for all branches in a generate statements.">
<polygon fill="none" stroke="black" stroke-width="0.5" points="541,-74 307,-74 307,-55 541,-55 541,-74"/>
<text text-anchor="middle" x="424" y="-62" font-family="Vera Sans, DejaVu Sans, Liberation Sans, Arial, Helvetica, sans" font-size="10.00">pyVHDLModel.SyntaxModel.GenerateBranch</text>
</a>
</g>
</g>
<!-- pyVHDLModel.ModelEntity&#45;&gt;pyVHDLModel.SyntaxModel.GenerateBranch -->
<g id="edge4" class="edge">
<title>pyVHDLModel.ModelEntity&#45;&gt;pyVHDLModel.SyntaxModel.GenerateBranch</title>
<path fill="none" stroke="black" stroke-width="0.5" d="M208.56,-112.23C228.54,-109.55 250.17,-106.28 270,-102.5 309.14,-95.03 353.24,-83.77 384,-75.44"/>
<polygon fill="black" stroke="black" stroke-width="0.5" points="384.84,-77.03 389.21,-74.03 383.92,-73.65 384.84,-77.03"/>
</g>
<!-- pyVHDLModel.SyntaxModel.ConcurrentDeclarations -->
<g id="node4" class="node">
<title>pyVHDLModel.SyntaxModel.ConcurrentDeclarations</title>
<polygon fill="none" stroke="black" stroke-width="0.5" points="270,-93 0,-93 0,-74 270,-74 270,-93"/>
<text text-anchor="middle" x="135" y="-81" font-family="Vera Sans, DejaVu Sans, Liberation Sans, Arial, Helvetica, sans" font-size="10.00">pyVHDLModel.SyntaxModel.ConcurrentDeclarations</text>
</g>
<!-- pyVHDLModel.SyntaxModel.ConcurrentDeclarations&#45;&gt;pyVHDLModel.SyntaxModel.GenerateBranch -->
<g id="edge5" class="edge">
<title>pyVHDLModel.SyntaxModel.ConcurrentDeclarations&#45;&gt;pyVHDLModel.SyntaxModel.GenerateBranch</title>
<path fill="none" stroke="black" stroke-width="0.5" d="M270.26,-74.61C280.79,-73.91 291.39,-73.21 301.82,-72.52"/>
<polygon fill="black" stroke="black" stroke-width="0.5" points="302.06,-74.26 306.93,-72.18 301.83,-70.77 302.06,-74.26"/>
</g>
<!-- pyVHDLModel.SyntaxModel.ConcurrentStatements -->
<g id="node5" class="node">
<title>pyVHDLModel.SyntaxModel.ConcurrentStatements</title>
<polygon fill="none" stroke="black" stroke-width="0.5" points="267.5,-56 2.5,-56 2.5,-37 267.5,-37 267.5,-56"/>
<text text-anchor="middle" x="135" y="-44" font-family="Vera Sans, DejaVu Sans, Liberation Sans, Arial, Helvetica, sans" font-size="10.00">pyVHDLModel.SyntaxModel.ConcurrentStatements</text>
</g>
<!-- pyVHDLModel.SyntaxModel.ConcurrentStatements&#45;&gt;pyVHDLModel.SyntaxModel.GenerateBranch -->
<g id="edge6" class="edge">
<title>pyVHDLModel.SyntaxModel.ConcurrentStatements&#45;&gt;pyVHDLModel.SyntaxModel.GenerateBranch</title>
<path fill="none" stroke="black" stroke-width="0.5" d="M267.74,-54.76C278.99,-55.47 290.33,-56.18 301.49,-56.88"/>
<polygon fill="black" stroke="black" stroke-width="0.5" points="301.5,-58.63 306.6,-57.2 301.72,-55.14 301.5,-58.63"/>
</g>
<!-- pyVHDLModel.SyntaxModel.GenerateBranch&#45;&gt;pyVHDLModel.SyntaxModel.ElseGenerateBranch -->
<g id="edge2" class="edge">
<title>pyVHDLModel.SyntaxModel.GenerateBranch&#45;&gt;pyVHDLModel.SyntaxModel.ElseGenerateBranch</title>
<path fill="none" stroke="black" stroke-width="0.5" d="M540.49,-54.98C554.65,-53.81 569.14,-52.62 583.36,-51.44"/>
<polygon fill="black" stroke="black" stroke-width="0.5" points="583.75,-53.17 588.59,-51.01 583.47,-49.68 583.75,-53.17"/>
</g>
<!-- pyVHDLModel.SyntaxModel.MixinElseBranch -->
<g id="node7" class="node">
<title>pyVHDLModel.SyntaxModel.MixinElseBranch</title>
<g id="a_node7"><a xlink:title="A ``BaseElseBranch`` is a mixin&#45;class for all else&#45;branches.">
<polygon fill="none" stroke="black" stroke-width="0.5" points="542,-28 306,-28 306,-9 542,-9 542,-28"/>
<text text-anchor="middle" x="424" y="-16" font-family="Vera Sans, DejaVu Sans, Liberation Sans, Arial, Helvetica, sans" font-size="10.00">pyVHDLModel.SyntaxModel.MixinElseBranch</text>
</a>
</g>
</g>
<!-- pyVHDLModel.SyntaxModel.MixinElseBranch&#45;&gt;pyVHDLModel.SyntaxModel.ElseGenerateBranch -->
<g id="edge3" class="edge">
<title>pyVHDLModel.SyntaxModel.MixinElseBranch&#45;&gt;pyVHDLModel.SyntaxModel.ElseGenerateBranch</title>
<path fill="none" stroke="black" stroke-width="0.5" d="M540.49,-28.02C554.65,-29.19 569.14,-30.38 583.36,-31.56"/>
<polygon fill="black" stroke="black" stroke-width="0.5" points="583.47,-33.32 588.59,-31.99 583.75,-29.83 583.47,-33.32"/>
</g>
<!-- pyVHDLModel.SyntaxModel.MixinBranch -->
<g id="node8" class="node">
<title>pyVHDLModel.SyntaxModel.MixinBranch</title>
<g id="a_node8"><a xlink:title="A ``BaseBranch`` is a mixin&#45;class for all statements with branches.">
<polygon fill="none" stroke="black" stroke-width="0.5" points="243,-19 27,-19 27,0 243,0 243,-19"/>
<text text-anchor="middle" x="135" y="-7" font-family="Vera Sans, DejaVu Sans, Liberation Sans, Arial, Helvetica, sans" font-size="10.00">pyVHDLModel.SyntaxModel.MixinBranch</text>
</a>
</g>
</g>
<!-- pyVHDLModel.SyntaxModel.MixinBranch&#45;&gt;pyVHDLModel.SyntaxModel.MixinElseBranch -->
<g id="edge7" class="edge">
<title>pyVHDLModel.SyntaxModel.MixinBranch&#45;&gt;pyVHDLModel.SyntaxModel.MixinElseBranch</title>
<path fill="none" stroke="black" stroke-width="0.5" d="M243.28,-12.86C261.9,-13.45 281.4,-14.06 300.4,-14.66"/>
<polygon fill="black" stroke="black" stroke-width="0.5" points="300.7,-16.42 305.75,-14.82 300.81,-12.92 300.7,-16.42"/>
</g>
</g>
</svg>
