<?xml version="1.0" encoding="UTF-8" standalone="no"?>
<!DOCTYPE svg PUBLIC "-//W3C//DTD SVG 1.1//EN"
 "http://www.w3.org/Graphics/SVG/1.1/DTD/svg11.dtd">
<!-- Generated by graphviz version 2.43.0 (0)
 -->
<!-- Title: inheritance909d742d7b Pages: 1 -->
<svg width="576pt" height="41pt"
 viewBox="0.00 0.00 576.00 41.08" xmlns="http://www.w3.org/2000/svg" xmlns:xlink="http://www.w3.org/1999/xlink">
<g id="graph0" class="graph" transform="scale(2.43 2.43) rotate(0) translate(4 96)">
<title>inheritance909d742d7b</title>
<polygon fill="white" stroke="transparent" points="-4,4 -4,-96 1398,-96 1398,4 -4,4"/>
<!-- pyGHDL.dom.Concurrent.ConcurrentAssertStatement -->
<g id="node1" class="node">
<title>pyGHDL.dom.Concurrent.ConcurrentAssertStatement</title>
<g id="a_node1"><a xlink:href="../pyGHDL/pyGHDL.dom.Concurrent.html#pyGHDL.dom.Concurrent.ConcurrentAssertStatement" xlink:title="pyGHDL.dom.Concurrent.ConcurrentAssertStatement" target="_top">
<polygon fill="none" stroke="black" stroke-width="0.5" points="1394,-37 1119,-37 1119,-18 1394,-18 1394,-37"/>
<text text-anchor="middle" x="1256.5" y="-25" font-family="Vera Sans, DejaVu Sans, Liberation Sans, Arial, Helvetica, sans" font-size="10.00">pyGHDL.dom.Concurrent.ConcurrentAssertStatement</text>
</a>
</g>
</g>
<!-- pyVHDLModel.SyntaxModel.ConcurrentAssertStatement -->
<g id="node2" class="node">
<title>pyVHDLModel.SyntaxModel.ConcurrentAssertStatement</title>
<polygon fill="none" stroke="black" stroke-width="0.5" points="1083,-56 793,-56 793,-37 1083,-37 1083,-56"/>
<text text-anchor="middle" x="938" y="-44" font-family="Vera Sans, DejaVu Sans, Liberation Sans, Arial, Helvetica, sans" font-size="10.00">pyVHDLModel.SyntaxModel.ConcurrentAssertStatement</text>
</g>
<!-- pyVHDLModel.SyntaxModel.ConcurrentAssertStatement&#45;&gt;pyGHDL.dom.Concurrent.ConcurrentAssertStatement -->
<g id="edge1" class="edge">
<title>pyVHDLModel.SyntaxModel.ConcurrentAssertStatement&#45;&gt;pyGHDL.dom.Concurrent.ConcurrentAssertStatement</title>
<path fill="none" stroke="black" stroke-width="0.5" d="M1083.36,-37.83C1093.35,-37.23 1103.42,-36.63 1113.41,-36.03"/>
<polygon fill="black" stroke="black" stroke-width="0.5" points="1113.73,-37.76 1118.62,-35.72 1113.52,-34.27 1113.73,-37.76"/>
</g>
<!-- pyGHDL.dom.DOMMixin -->
<g id="node3" class="node">
<title>pyGHDL.dom.DOMMixin</title>
<g id="a_node3"><a xlink:href="../pyGHDL.dom.html#pyGHDL.dom.DOMMixin" xlink:title="pyGHDL.dom.DOMMixin" target="_top">
<polygon fill="none" stroke="black" stroke-width="0.5" points="1005.5,-19 870.5,-19 870.5,0 1005.5,0 1005.5,-19"/>
<text text-anchor="middle" x="938" y="-7" font-family="Vera Sans, DejaVu Sans, Liberation Sans, Arial, Helvetica, sans" font-size="10.00">pyGHDL.dom.DOMMixin</text>
</a>
</g>
</g>
<!-- pyGHDL.dom.DOMMixin&#45;&gt;pyGHDL.dom.Concurrent.ConcurrentAssertStatement -->
<g id="edge2" class="edge">
<title>pyGHDL.dom.DOMMixin&#45;&gt;pyGHDL.dom.Concurrent.ConcurrentAssertStatement</title>
<path fill="none" stroke="black" stroke-width="0.5" d="M1005.73,-13.3C1037.24,-15.09 1076.11,-17.3 1113.73,-19.44"/>
<polygon fill="black" stroke="black" stroke-width="0.5" points="1113.7,-21.19 1118.79,-19.73 1113.9,-17.69 1113.7,-21.19"/>
</g>
<!-- pyVHDLModel.LabeledEntity -->
<g id="node4" class="node">
<title>pyVHDLModel.LabeledEntity</title>
<g id="a_node4"><a xlink:title="A ``LabeledEntity`` is a mixin class for all VHDL entities that can have">
<polygon fill="none" stroke="black" stroke-width="0.5" points="155,-92 0,-92 0,-73 155,-73 155,-92"/>
<text text-anchor="middle" x="77.5" y="-80" font-family="Vera Sans, DejaVu Sans, Liberation Sans, Arial, Helvetica, sans" font-size="10.00">pyVHDLModel.LabeledEntity</text>
</a>
</g>
</g>
<!-- pyVHDLModel.SyntaxModel.Statement -->
<g id="node8" class="node">
<title>pyVHDLModel.SyntaxModel.Statement</title>
<polygon fill="none" stroke="black" stroke-width="0.5" points="427,-74 221,-74 221,-55 427,-55 427,-74"/>
<text text-anchor="middle" x="324" y="-62" font-family="Vera Sans, DejaVu Sans, Liberation Sans, Arial, Helvetica, sans" font-size="10.00">pyVHDLModel.SyntaxModel.Statement</text>
</g>
<!-- pyVHDLModel.LabeledEntity&#45;&gt;pyVHDLModel.SyntaxModel.Statement -->
<g id="edge8" class="edge">
<title>pyVHDLModel.LabeledEntity&#45;&gt;pyVHDLModel.SyntaxModel.Statement</title>
<path fill="none" stroke="black" stroke-width="0.5" d="M155.19,-76.85C174.3,-75.45 195.14,-73.91 215.43,-72.42"/>
<polygon fill="black" stroke="black" stroke-width="0.5" points="215.72,-74.15 220.58,-72.04 215.46,-70.66 215.72,-74.15"/>
</g>
<!-- pyVHDLModel.ModelEntity -->
<g id="node5" class="node">
<title>pyVHDLModel.ModelEntity</title>
<g id="a_node5"><a xlink:title="``ModelEntity`` is the base class for all classes in the VHDL language model,">
<polygon fill="none" stroke="black" stroke-width="0.5" points="151,-55 4,-55 4,-36 151,-36 151,-55"/>
<text text-anchor="middle" x="77.5" y="-43" font-family="Vera Sans, DejaVu Sans, Liberation Sans, Arial, Helvetica, sans" font-size="10.00">pyVHDLModel.ModelEntity</text>
</a>
</g>
</g>
<!-- pyVHDLModel.ModelEntity&#45;&gt;pyVHDLModel.SyntaxModel.Statement -->
<g id="edge7" class="edge">
<title>pyVHDLModel.ModelEntity&#45;&gt;pyVHDLModel.SyntaxModel.Statement</title>
<path fill="none" stroke="black" stroke-width="0.5" d="M151.2,-51.15C171.4,-52.72 193.77,-54.46 215.51,-56.15"/>
<polygon fill="black" stroke="black" stroke-width="0.5" points="215.6,-57.91 220.72,-56.55 215.87,-54.42 215.6,-57.91"/>
</g>
<!-- pyVHDLModel.SyntaxModel.ConcurrentStatement -->
<g id="node6" class="node">
<title>pyVHDLModel.SyntaxModel.ConcurrentStatement</title>
<g id="a_node6"><a xlink:title="A ``ConcurrentStatement`` is a base&#45;class for all concurrent statements.">
<polygon fill="none" stroke="black" stroke-width="0.5" points="755,-74 495,-74 495,-55 755,-55 755,-74"/>
<text text-anchor="middle" x="625" y="-62" font-family="Vera Sans, DejaVu Sans, Liberation Sans, Arial, Helvetica, sans" font-size="10.00">pyVHDLModel.SyntaxModel.ConcurrentStatement</text>
</a>
</g>
</g>
<!-- pyVHDLModel.SyntaxModel.ConcurrentStatement&#45;&gt;pyVHDLModel.SyntaxModel.ConcurrentAssertStatement -->
<g id="edge3" class="edge">
<title>pyVHDLModel.SyntaxModel.ConcurrentStatement&#45;&gt;pyVHDLModel.SyntaxModel.ConcurrentAssertStatement</title>
<path fill="none" stroke="black" stroke-width="0.5" d="M755.19,-57.02C765.97,-56.4 776.93,-55.76 787.84,-55.13"/>
<polygon fill="black" stroke="black" stroke-width="0.5" points="787.96,-56.88 792.85,-54.84 787.76,-53.38 787.96,-56.88"/>
</g>
<!-- pyVHDLModel.SyntaxModel.MixinAssertStatement -->
<g id="node7" class="node">
<title>pyVHDLModel.SyntaxModel.MixinAssertStatement</title>
<g id="a_node7"><a xlink:title="A ``MixinAssertStatement`` is a mixin&#45;class for all assert statements.">
<polygon fill="none" stroke="black" stroke-width="0.5" points="757,-37 493,-37 493,-18 757,-18 757,-37"/>
<text text-anchor="middle" x="625" y="-25" font-family="Vera Sans, DejaVu Sans, Liberation Sans, Arial, Helvetica, sans" font-size="10.00">pyVHDLModel.SyntaxModel.MixinAssertStatement</text>
</a>
</g>
</g>
<!-- pyVHDLModel.SyntaxModel.MixinAssertStatement&#45;&gt;pyVHDLModel.SyntaxModel.ConcurrentAssertStatement -->
<g id="edge4" class="edge">
<title>pyVHDLModel.SyntaxModel.MixinAssertStatement&#45;&gt;pyVHDLModel.SyntaxModel.ConcurrentAssertStatement</title>
<path fill="none" stroke="black" stroke-width="0.5" d="M757.44,-35.53C767.39,-36.14 777.48,-36.75 787.53,-37.37"/>
<polygon fill="black" stroke="black" stroke-width="0.5" points="787.69,-39.13 792.79,-37.69 787.9,-35.64 787.69,-39.13"/>
</g>
<!-- pyVHDLModel.SyntaxModel.Statement&#45;&gt;pyVHDLModel.SyntaxModel.ConcurrentStatement -->
<g id="edge5" class="edge">
<title>pyVHDLModel.SyntaxModel.Statement&#45;&gt;pyVHDLModel.SyntaxModel.ConcurrentStatement</title>
<path fill="none" stroke="black" stroke-width="0.5" d="M427.06,-64.5C447.27,-64.5 468.76,-64.5 489.84,-64.5"/>
<polygon fill="black" stroke="black" stroke-width="0.5" points="489.9,-66.25 494.9,-64.5 489.9,-62.75 489.9,-66.25"/>
</g>
<!-- pyVHDLModel.SyntaxModel.MixinReportStatement -->
<g id="node9" class="node">
<title>pyVHDLModel.SyntaxModel.MixinReportStatement</title>
<g id="a_node9"><a xlink:title="A ``MixinReportStatement`` is a mixin&#45;class for all report and assert statements.">
<polygon fill="none" stroke="black" stroke-width="0.5" points="457,-37 191,-37 191,-18 457,-18 457,-37"/>
<text text-anchor="middle" x="324" y="-25" font-family="Vera Sans, DejaVu Sans, Liberation Sans, Arial, Helvetica, sans" font-size="10.00">pyVHDLModel.SyntaxModel.MixinReportStatement</text>
</a>
</g>
</g>
<!-- pyVHDLModel.SyntaxModel.MixinReportStatement&#45;&gt;pyVHDLModel.SyntaxModel.MixinAssertStatement -->
<g id="edge6" class="edge">
<title>pyVHDLModel.SyntaxModel.MixinReportStatement&#45;&gt;pyVHDLModel.SyntaxModel.MixinAssertStatement</title>
<path fill="none" stroke="black" stroke-width="0.5" d="M457.02,-27.5C467.23,-27.5 477.56,-27.5 487.81,-27.5"/>
<polygon fill="black" stroke="black" stroke-width="0.5" points="487.83,-29.25 492.83,-27.5 487.83,-25.75 487.83,-29.25"/>
</g>
</g>
</svg>
