<?xml version="1.0" encoding="UTF-8" standalone="no"?>
<!DOCTYPE svg PUBLIC "-//W3C//DTD SVG 1.1//EN"
 "http://www.w3.org/Graphics/SVG/1.1/DTD/svg11.dtd">
<!-- Generated by graphviz version 2.43.0 (0)
 -->
<!-- Title: inheritance6377a6d6a7 Pages: 1 -->
<svg width="576pt" height="35pt"
 viewBox="0.00 0.00 576.00 34.71" xmlns="http://www.w3.org/2000/svg" xmlns:xlink="http://www.w3.org/1999/xlink">
<g id="graph0" class="graph" transform="scale(1.84 1.84) rotate(0) translate(4 60)">
<title>inheritance6377a6d6a7</title>
<polygon fill="white" stroke="transparent" points="-4,4 -4,-60 1058,-60 1058,4 -4,4"/>
<!-- pyGHDL.dom.Aggregates.RangedAggregateElement -->
<g id="node1" class="node">
<title>pyGHDL.dom.Aggregates.RangedAggregateElement</title>
<g id="a_node1"><a xlink:href="../pyGHDL/pyGHDL.dom.Aggregates.html#pyGHDL.dom.Aggregates.RangedAggregateElement" xlink:title="pyGHDL.dom.Aggregates.RangedAggregateElement" target="_top">
<polygon fill="none" stroke="black" stroke-width="0.5" points="1054,-37 784,-37 784,-18 1054,-18 1054,-37"/>
<text text-anchor="middle" x="919" y="-25" font-family="Vera Sans, DejaVu Sans, Liberation Sans, Arial, Helvetica, sans" font-size="10.00">pyGHDL.dom.Aggregates.RangedAggregateElement</text>
</a>
</g>
</g>
<!-- pyVHDLModel.SyntaxModel.RangedAggregateElement -->
<g id="node2" class="node">
<title>pyVHDLModel.SyntaxModel.RangedAggregateElement</title>
<polygon fill="none" stroke="black" stroke-width="0.5" points="748,-56 465,-56 465,-37 748,-37 748,-56"/>
<text text-anchor="middle" x="606.5" y="-44" font-family="Vera Sans, DejaVu Sans, Liberation Sans, Arial, Helvetica, sans" font-size="10.00">pyVHDLModel.SyntaxModel.RangedAggregateElement</text>
</g>
<!-- pyVHDLModel.SyntaxModel.RangedAggregateElement&#45;&gt;pyGHDL.dom.Aggregates.RangedAggregateElement -->
<g id="edge1" class="edge">
<title>pyVHDLModel.SyntaxModel.RangedAggregateElement&#45;&gt;pyGHDL.dom.Aggregates.RangedAggregateElement</title>
<path fill="none" stroke="black" stroke-width="0.5" d="M748.21,-37.89C758.42,-37.27 768.71,-36.64 778.9,-36.01"/>
<polygon fill="black" stroke="black" stroke-width="0.5" points="779.01,-37.76 783.9,-35.71 778.8,-34.26 779.01,-37.76"/>
</g>
<!-- pyGHDL.dom.DOMMixin -->
<g id="node3" class="node">
<title>pyGHDL.dom.DOMMixin</title>
<g id="a_node3"><a xlink:href="../pyGHDL.dom.html#pyGHDL.dom.DOMMixin" xlink:title="pyGHDL.dom.DOMMixin" target="_top">
<polygon fill="none" stroke="black" stroke-width="0.5" points="674,-19 539,-19 539,0 674,0 674,-19"/>
<text text-anchor="middle" x="606.5" y="-7" font-family="Vera Sans, DejaVu Sans, Liberation Sans, Arial, Helvetica, sans" font-size="10.00">pyGHDL.dom.DOMMixin</text>
</a>
</g>
</g>
<!-- pyGHDL.dom.DOMMixin&#45;&gt;pyGHDL.dom.Aggregates.RangedAggregateElement -->
<g id="edge2" class="edge">
<title>pyGHDL.dom.DOMMixin&#45;&gt;pyGHDL.dom.Aggregates.RangedAggregateElement</title>
<path fill="none" stroke="black" stroke-width="0.5" d="M674.11,-13.36C704.68,-15.13 742.15,-17.31 778.46,-19.41"/>
<polygon fill="black" stroke="black" stroke-width="0.5" points="778.71,-21.18 783.81,-19.72 778.92,-17.68 778.71,-21.18"/>
</g>
<!-- pyVHDLModel.ModelEntity -->
<g id="node4" class="node">
<title>pyVHDLModel.ModelEntity</title>
<g id="a_node4"><a xlink:title="``ModelEntity`` is the base class for all classes in the VHDL language model,">
<polygon fill="none" stroke="black" stroke-width="0.5" points="147,-56 0,-56 0,-37 147,-37 147,-56"/>
<text text-anchor="middle" x="73.5" y="-44" font-family="Vera Sans, DejaVu Sans, Liberation Sans, Arial, Helvetica, sans" font-size="10.00">pyVHDLModel.ModelEntity</text>
</a>
</g>
</g>
<!-- pyVHDLModel.SyntaxModel.AggregateElement -->
<g id="node5" class="node">
<title>pyVHDLModel.SyntaxModel.AggregateElement</title>
<g id="a_node5"><a xlink:title="A ``AggregateElement`` is a base&#45;class for all aggregate elements.">
<polygon fill="none" stroke="black" stroke-width="0.5" points="429,-56 183,-56 183,-37 429,-37 429,-56"/>
<text text-anchor="middle" x="306" y="-44" font-family="Vera Sans, DejaVu Sans, Liberation Sans, Arial, Helvetica, sans" font-size="10.00">pyVHDLModel.SyntaxModel.AggregateElement</text>
</a>
</g>
</g>
<!-- pyVHDLModel.ModelEntity&#45;&gt;pyVHDLModel.SyntaxModel.AggregateElement -->
<g id="edge3" class="edge">
<title>pyVHDLModel.ModelEntity&#45;&gt;pyVHDLModel.SyntaxModel.AggregateElement</title>
<path fill="none" stroke="black" stroke-width="0.5" d="M147.12,-46.5C156.98,-46.5 167.33,-46.5 177.82,-46.5"/>
<polygon fill="black" stroke="black" stroke-width="0.5" points="177.97,-48.25 182.97,-46.5 177.97,-44.75 177.97,-48.25"/>
</g>
<!-- pyVHDLModel.SyntaxModel.AggregateElement&#45;&gt;pyVHDLModel.SyntaxModel.RangedAggregateElement -->
<g id="edge4" class="edge">
<title>pyVHDLModel.SyntaxModel.AggregateElement&#45;&gt;pyVHDLModel.SyntaxModel.RangedAggregateElement</title>
<path fill="none" stroke="black" stroke-width="0.5" d="M429.27,-46.5C439.37,-46.5 449.64,-46.5 459.89,-46.5"/>
<polygon fill="black" stroke="black" stroke-width="0.5" points="459.92,-48.25 464.92,-46.5 459.92,-44.75 459.92,-48.25"/>
</g>
</g>
</svg>
