<?xml version="1.0" encoding="UTF-8" standalone="no"?>
<!DOCTYPE svg PUBLIC "-//W3C//DTD SVG 1.1//EN"
 "http://www.w3.org/Graphics/SVG/1.1/DTD/svg11.dtd">
<!-- Generated by graphviz version 2.43.0 (0)
 -->
<!-- Title: inheritancebf1009b5ff Pages: 1 -->
<svg width="576pt" height="42pt"
 viewBox="0.00 0.00 576.00 41.65" xmlns="http://www.w3.org/2000/svg" xmlns:xlink="http://www.w3.org/1999/xlink">
<g id="graph0" class="graph" transform="scale(2.4 2.4) rotate(0) translate(4 96)">
<title>inheritancebf1009b5ff</title>
<polygon fill="white" stroke="transparent" points="-4,4 -4,-96 1379,-96 1379,4 -4,4"/>
<!-- pyGHDL.dom.DOMMixin -->
<g id="node1" class="node">
<title>pyGHDL.dom.DOMMixin</title>
<g id="a_node1"><a xlink:href="../pyGHDL.dom.html#pyGHDL.dom.DOMMixin" xlink:title="pyGHDL.dom.DOMMixin" target="_top">
<polygon fill="none" stroke="black" stroke-width="0.5" points="1097,-92 962,-92 962,-73 1097,-73 1097,-92"/>
<text text-anchor="middle" x="1029.5" y="-80" font-family="Vera Sans, DejaVu Sans, Liberation Sans, Arial, Helvetica, sans" font-size="10.00">pyGHDL.dom.DOMMixin</text>
</a>
</g>
</g>
<!-- pyGHDL.dom.Type.EnumeratedType -->
<g id="node2" class="node">
<title>pyGHDL.dom.Type.EnumeratedType</title>
<g id="a_node2"><a xlink:href="../pyGHDL/pyGHDL.dom.Type.html#pyGHDL.dom.Type.EnumeratedType" xlink:title="pyGHDL.dom.Type.EnumeratedType" target="_top">
<polygon fill="none" stroke="black" stroke-width="0.5" points="1375,-73 1184,-73 1184,-54 1375,-54 1375,-73"/>
<text text-anchor="middle" x="1279.5" y="-61" font-family="Vera Sans, DejaVu Sans, Liberation Sans, Arial, Helvetica, sans" font-size="10.00">pyGHDL.dom.Type.EnumeratedType</text>
</a>
</g>
</g>
<!-- pyGHDL.dom.DOMMixin&#45;&gt;pyGHDL.dom.Type.EnumeratedType -->
<g id="edge2" class="edge">
<title>pyGHDL.dom.DOMMixin&#45;&gt;pyGHDL.dom.Type.EnumeratedType</title>
<path fill="none" stroke="black" stroke-width="0.5" d="M1097.29,-77.38C1122.27,-75.47 1151.23,-73.25 1178.56,-71.16"/>
<polygon fill="black" stroke="black" stroke-width="0.5" points="1178.79,-72.89 1183.64,-70.77 1178.52,-69.4 1178.79,-72.89"/>
</g>
<!-- pyVHDLModel.SyntaxModel.EnumeratedType -->
<g id="node3" class="node">
<title>pyVHDLModel.SyntaxModel.EnumeratedType</title>
<polygon fill="none" stroke="black" stroke-width="0.5" points="1148,-55 911,-55 911,-36 1148,-36 1148,-55"/>
<text text-anchor="middle" x="1029.5" y="-43" font-family="Vera Sans, DejaVu Sans, Liberation Sans, Arial, Helvetica, sans" font-size="10.00">pyVHDLModel.SyntaxModel.EnumeratedType</text>
</g>
<!-- pyVHDLModel.SyntaxModel.EnumeratedType&#45;&gt;pyGHDL.dom.Type.EnumeratedType -->
<g id="edge1" class="edge">
<title>pyVHDLModel.SyntaxModel.EnumeratedType&#45;&gt;pyGHDL.dom.Type.EnumeratedType</title>
<path fill="none" stroke="black" stroke-width="0.5" d="M1148.33,-54.05C1158.44,-54.79 1168.6,-55.52 1178.55,-56.25"/>
<polygon fill="black" stroke="black" stroke-width="0.5" points="1178.62,-58.01 1183.73,-56.62 1178.87,-54.51 1178.62,-58.01"/>
</g>
<!-- pyVHDLModel.ModelEntity -->
<g id="node4" class="node">
<title>pyVHDLModel.ModelEntity</title>
<g id="a_node4"><a xlink:title="``ModelEntity`` is the base class for all classes in the VHDL language model,">
<polygon fill="none" stroke="black" stroke-width="0.5" points="149.5,-56 2.5,-56 2.5,-37 149.5,-37 149.5,-56"/>
<text text-anchor="middle" x="76" y="-44" font-family="Vera Sans, DejaVu Sans, Liberation Sans, Arial, Helvetica, sans" font-size="10.00">pyVHDLModel.ModelEntity</text>
</a>
</g>
</g>
<!-- pyVHDLModel.SyntaxModel.BaseType -->
<g id="node6" class="node">
<title>pyVHDLModel.SyntaxModel.BaseType</title>
<g id="a_node6"><a xlink:title="``BaseType`` is the base class of all type entities in this model.">
<polygon fill="none" stroke="black" stroke-width="0.5" points="390,-37 188,-37 188,-18 390,-18 390,-37"/>
<text text-anchor="middle" x="289" y="-25" font-family="Vera Sans, DejaVu Sans, Liberation Sans, Arial, Helvetica, sans" font-size="10.00">pyVHDLModel.SyntaxModel.BaseType</text>
</a>
</g>
</g>
<!-- pyVHDLModel.ModelEntity&#45;&gt;pyVHDLModel.SyntaxModel.BaseType -->
<g id="edge3" class="edge">
<title>pyVHDLModel.ModelEntity&#45;&gt;pyVHDLModel.SyntaxModel.BaseType</title>
<path fill="none" stroke="black" stroke-width="0.5" d="M149.61,-39.96C160.26,-39 171.41,-38 182.55,-37"/>
<polygon fill="black" stroke="black" stroke-width="0.5" points="182.85,-38.73 187.67,-36.53 182.53,-35.24 182.85,-38.73"/>
</g>
<!-- pyVHDLModel.NamedEntity -->
<g id="node5" class="node">
<title>pyVHDLModel.NamedEntity</title>
<g id="a_node5"><a xlink:title="A ``NamedEntity`` is a mixin class for all VHDL entities that have identifiers.">
<polygon fill="none" stroke="black" stroke-width="0.5" points="152,-19 0,-19 0,0 152,0 152,-19"/>
<text text-anchor="middle" x="76" y="-7" font-family="Vera Sans, DejaVu Sans, Liberation Sans, Arial, Helvetica, sans" font-size="10.00">pyVHDLModel.NamedEntity</text>
</a>
</g>
</g>
<!-- pyVHDLModel.NamedEntity&#45;&gt;pyVHDLModel.SyntaxModel.BaseType -->
<g id="edge4" class="edge">
<title>pyVHDLModel.NamedEntity&#45;&gt;pyVHDLModel.SyntaxModel.BaseType</title>
<path fill="none" stroke="black" stroke-width="0.5" d="M152.28,-15.92C162.15,-16.76 172.4,-17.64 182.65,-18.51"/>
<polygon fill="black" stroke="black" stroke-width="0.5" points="182.55,-20.26 187.68,-18.94 182.84,-16.77 182.55,-20.26"/>
</g>
<!-- pyVHDLModel.SyntaxModel.FullType -->
<g id="node9" class="node">
<title>pyVHDLModel.SyntaxModel.FullType</title>
<polygon fill="none" stroke="black" stroke-width="0.5" points="621,-37 426,-37 426,-18 621,-18 621,-37"/>
<text text-anchor="middle" x="523.5" y="-25" font-family="Vera Sans, DejaVu Sans, Liberation Sans, Arial, Helvetica, sans" font-size="10.00">pyVHDLModel.SyntaxModel.FullType</text>
</g>
<!-- pyVHDLModel.SyntaxModel.BaseType&#45;&gt;pyVHDLModel.SyntaxModel.FullType -->
<g id="edge7" class="edge">
<title>pyVHDLModel.SyntaxModel.BaseType&#45;&gt;pyVHDLModel.SyntaxModel.FullType</title>
<path fill="none" stroke="black" stroke-width="0.5" d="M390.29,-27.5C400.34,-27.5 410.54,-27.5 420.61,-27.5"/>
<polygon fill="black" stroke="black" stroke-width="0.5" points="420.86,-29.25 425.86,-27.5 420.86,-25.75 420.86,-29.25"/>
</g>
<!-- pyVHDLModel.SyntaxModel.DiscreteType -->
<g id="node7" class="node">
<title>pyVHDLModel.SyntaxModel.DiscreteType</title>
<g id="a_node7"><a xlink:title="A ``DiscreteType`` is a mixin class for all discrete types.">
<polygon fill="none" stroke="black" stroke-width="0.5" points="875,-74 657,-74 657,-55 875,-55 875,-74"/>
<text text-anchor="middle" x="766" y="-62" font-family="Vera Sans, DejaVu Sans, Liberation Sans, Arial, Helvetica, sans" font-size="10.00">pyVHDLModel.SyntaxModel.DiscreteType</text>
</a>
</g>
</g>
<!-- pyVHDLModel.SyntaxModel.DiscreteType&#45;&gt;pyVHDLModel.SyntaxModel.EnumeratedType -->
<g id="edge6" class="edge">
<title>pyVHDLModel.SyntaxModel.DiscreteType&#45;&gt;pyVHDLModel.SyntaxModel.EnumeratedType</title>
<path fill="none" stroke="black" stroke-width="0.5" d="M875.25,-56.63C885.18,-55.91 895.29,-55.18 905.34,-54.45"/>
<polygon fill="black" stroke="black" stroke-width="0.5" points="905.73,-56.17 910.59,-54.07 905.47,-52.68 905.73,-56.17"/>
</g>
<!-- pyVHDLModel.SyntaxModel.ScalarType -->
<g id="node8" class="node">
<title>pyVHDLModel.SyntaxModel.ScalarType</title>
<g id="a_node8"><a xlink:title="A ``ScalarType`` is a base&#45;class for all scalar types.">
<polygon fill="none" stroke="black" stroke-width="0.5" points="870,-37 662,-37 662,-18 870,-18 870,-37"/>
<text text-anchor="middle" x="766" y="-25" font-family="Vera Sans, DejaVu Sans, Liberation Sans, Arial, Helvetica, sans" font-size="10.00">pyVHDLModel.SyntaxModel.ScalarType</text>
</a>
</g>
</g>
<!-- pyVHDLModel.SyntaxModel.ScalarType&#45;&gt;pyVHDLModel.SyntaxModel.EnumeratedType -->
<g id="edge5" class="edge">
<title>pyVHDLModel.SyntaxModel.ScalarType&#45;&gt;pyVHDLModel.SyntaxModel.EnumeratedType</title>
<path fill="none" stroke="black" stroke-width="0.5" d="M870.35,-34.61C881.97,-35.41 893.89,-36.23 905.72,-37.05"/>
<polygon fill="black" stroke="black" stroke-width="0.5" points="905.68,-38.8 910.78,-37.4 905.92,-35.31 905.68,-38.8"/>
</g>
<!-- pyVHDLModel.SyntaxModel.FullType&#45;&gt;pyVHDLModel.SyntaxModel.ScalarType -->
<g id="edge8" class="edge">
<title>pyVHDLModel.SyntaxModel.FullType&#45;&gt;pyVHDLModel.SyntaxModel.ScalarType</title>
<path fill="none" stroke="black" stroke-width="0.5" d="M621.28,-27.5C632.93,-27.5 644.89,-27.5 656.69,-27.5"/>
<polygon fill="black" stroke="black" stroke-width="0.5" points="656.73,-29.25 661.73,-27.5 656.73,-25.75 656.73,-29.25"/>
</g>
</g>
</svg>
