<?xml version="1.0" encoding="UTF-8" standalone="no"?>
<!DOCTYPE svg PUBLIC "-//W3C//DTD SVG 1.1//EN"
 "http://www.w3.org/Graphics/SVG/1.1/DTD/svg11.dtd">
<!-- Generated by graphviz version 2.43.0 (0)
 -->
<!-- Title: inheritance38167ced73 Pages: 1 -->
<svg width="576pt" height="28pt"
 viewBox="0.00 0.00 576.00 27.68" xmlns="http://www.w3.org/2000/svg" xmlns:xlink="http://www.w3.org/1999/xlink">
<g id="graph0" class="graph" transform="scale(2.31 2.31) rotate(0) translate(4 60)">
<title>inheritance38167ced73</title>
<polygon fill="white" stroke="transparent" points="-4,4 -4,-60 1328,-60 1328,4 -4,4"/>
<!-- pyGHDL.dom.DOMMixin -->
<g id="node1" class="node">
<title>pyGHDL.dom.DOMMixin</title>
<g id="a_node1"><a xlink:href="../pyGHDL.dom.html#pyGHDL.dom.DOMMixin" xlink:title="pyGHDL.dom.DOMMixin" target="_top">
<polygon fill="none" stroke="black" stroke-width="0.5" points="906.5,-56 771.5,-56 771.5,-37 906.5,-37 906.5,-56"/>
<text text-anchor="middle" x="839" y="-44" font-family="Vera Sans, DejaVu Sans, Liberation Sans, Arial, Helvetica, sans" font-size="10.00">pyGHDL.dom.DOMMixin</text>
</a>
</g>
</g>
<!-- pyGHDL.dom.Symbol.ConstrainedScalarSubtypeSymbol -->
<g id="node2" class="node">
<title>pyGHDL.dom.Symbol.ConstrainedScalarSubtypeSymbol</title>
<g id="a_node2"><a xlink:href="../pyGHDL/pyGHDL.dom.Symbol.html#pyGHDL.dom.Symbol.ConstrainedScalarSubtypeSymbol" xlink:title="pyGHDL.dom.Symbol.ConstrainedScalarSubtypeSymbol" target="_top">
<polygon fill="none" stroke="black" stroke-width="0.5" points="1324,-37 1035,-37 1035,-18 1324,-18 1324,-37"/>
<text text-anchor="middle" x="1179.5" y="-25" font-family="Vera Sans, DejaVu Sans, Liberation Sans, Arial, Helvetica, sans" font-size="10.00">pyGHDL.dom.Symbol.ConstrainedScalarSubtypeSymbol</text>
</a>
</g>
</g>
<!-- pyGHDL.dom.DOMMixin&#45;&gt;pyGHDL.dom.Symbol.ConstrainedScalarSubtypeSymbol -->
<g id="edge2" class="edge">
<title>pyGHDL.dom.DOMMixin&#45;&gt;pyGHDL.dom.Symbol.ConstrainedScalarSubtypeSymbol</title>
<path fill="none" stroke="black" stroke-width="0.5" d="M906.88,-42.75C942.05,-40.77 986.68,-38.27 1029.55,-35.86"/>
<polygon fill="black" stroke="black" stroke-width="0.5" points="1029.88,-37.6 1034.77,-35.57 1029.68,-34.1 1029.88,-37.6"/>
</g>
<!-- pyVHDLModel.SyntaxModel.ConstrainedScalarSubtypeSymbol -->
<g id="node3" class="node">
<title>pyVHDLModel.SyntaxModel.ConstrainedScalarSubtypeSymbol</title>
<polygon fill="none" stroke="black" stroke-width="0.5" points="999,-19 679,-19 679,0 999,0 999,-19"/>
<text text-anchor="middle" x="839" y="-7" font-family="Vera Sans, DejaVu Sans, Liberation Sans, Arial, Helvetica, sans" font-size="10.00">pyVHDLModel.SyntaxModel.ConstrainedScalarSubtypeSymbol</text>
</g>
<!-- pyVHDLModel.SyntaxModel.ConstrainedScalarSubtypeSymbol&#45;&gt;pyGHDL.dom.Symbol.ConstrainedScalarSubtypeSymbol -->
<g id="edge1" class="edge">
<title>pyVHDLModel.SyntaxModel.ConstrainedScalarSubtypeSymbol&#45;&gt;pyGHDL.dom.Symbol.ConstrainedScalarSubtypeSymbol</title>
<path fill="none" stroke="black" stroke-width="0.5" d="M999.34,-17.97C1009.41,-18.51 1019.54,-19.05 1029.56,-19.58"/>
<polygon fill="black" stroke="black" stroke-width="0.5" points="1029.71,-21.34 1034.8,-19.86 1029.9,-17.85 1029.71,-21.34"/>
</g>
<!-- pyVHDLModel.ModelEntity -->
<g id="node4" class="node">
<title>pyVHDLModel.ModelEntity</title>
<g id="a_node4"><a xlink:title="``ModelEntity`` is the base class for all classes in the VHDL language model,">
<polygon fill="none" stroke="black" stroke-width="0.5" points="147,-19 0,-19 0,0 147,0 147,-19"/>
<text text-anchor="middle" x="73.5" y="-7" font-family="Vera Sans, DejaVu Sans, Liberation Sans, Arial, Helvetica, sans" font-size="10.00">pyVHDLModel.ModelEntity</text>
</a>
</g>
</g>
<!-- pyVHDLModel.SyntaxModel.Symbol -->
<g id="node6" class="node">
<title>pyVHDLModel.SyntaxModel.Symbol</title>
<polygon fill="none" stroke="black" stroke-width="0.5" points="375,-19 183,-19 183,0 375,0 375,-19"/>
<text text-anchor="middle" x="279" y="-7" font-family="Vera Sans, DejaVu Sans, Liberation Sans, Arial, Helvetica, sans" font-size="10.00">pyVHDLModel.SyntaxModel.Symbol</text>
</g>
<!-- pyVHDLModel.ModelEntity&#45;&gt;pyVHDLModel.SyntaxModel.Symbol -->
<g id="edge5" class="edge">
<title>pyVHDLModel.ModelEntity&#45;&gt;pyVHDLModel.SyntaxModel.Symbol</title>
<path fill="none" stroke="black" stroke-width="0.5" d="M147.11,-9.5C157.01,-9.5 167.32,-9.5 177.62,-9.5"/>
<polygon fill="black" stroke="black" stroke-width="0.5" points="177.66,-11.25 182.66,-9.5 177.66,-7.75 177.66,-11.25"/>
</g>
<!-- pyVHDLModel.SyntaxModel.SubtypeSymbol -->
<g id="node5" class="node">
<title>pyVHDLModel.SyntaxModel.SubtypeSymbol</title>
<polygon fill="none" stroke="black" stroke-width="0.5" points="643,-19 411,-19 411,0 643,0 643,-19"/>
<text text-anchor="middle" x="527" y="-7" font-family="Vera Sans, DejaVu Sans, Liberation Sans, Arial, Helvetica, sans" font-size="10.00">pyVHDLModel.SyntaxModel.SubtypeSymbol</text>
</g>
<!-- pyVHDLModel.SyntaxModel.SubtypeSymbol&#45;&gt;pyVHDLModel.SyntaxModel.ConstrainedScalarSubtypeSymbol -->
<g id="edge3" class="edge">
<title>pyVHDLModel.SyntaxModel.SubtypeSymbol&#45;&gt;pyVHDLModel.SyntaxModel.ConstrainedScalarSubtypeSymbol</title>
<path fill="none" stroke="black" stroke-width="0.5" d="M643.43,-9.5C653.42,-9.5 663.64,-9.5 673.91,-9.5"/>
<polygon fill="black" stroke="black" stroke-width="0.5" points="673.96,-11.25 678.96,-9.5 673.96,-7.75 673.96,-11.25"/>
</g>
<!-- pyVHDLModel.SyntaxModel.Symbol&#45;&gt;pyVHDLModel.SyntaxModel.SubtypeSymbol -->
<g id="edge4" class="edge">
<title>pyVHDLModel.SyntaxModel.Symbol&#45;&gt;pyVHDLModel.SyntaxModel.SubtypeSymbol</title>
<path fill="none" stroke="black" stroke-width="0.5" d="M375.11,-9.5C385.1,-9.5 395.35,-9.5 405.58,-9.5"/>
<polygon fill="black" stroke="black" stroke-width="0.5" points="405.6,-11.25 410.6,-9.5 405.6,-7.75 405.6,-11.25"/>
</g>
</g>
</svg>
