<?xml version="1.0" encoding="UTF-8" standalone="no"?>
<!DOCTYPE svg PUBLIC "-//W3C//DTD SVG 1.1//EN"
 "http://www.w3.org/Graphics/SVG/1.1/DTD/svg11.dtd">
<!-- Generated by graphviz version 2.43.0 (0)
 -->
<!-- Title: inheritancebf619089f9 Pages: 1 -->
<svg width="576pt" height="41pt"
 viewBox="0.00 0.00 576.00 40.83" xmlns="http://www.w3.org/2000/svg" xmlns:xlink="http://www.w3.org/1999/xlink">
<g id="graph0" class="graph" transform="scale(2.03 2.03) rotate(0) translate(4 79)">
<title>inheritancebf619089f9</title>
<polygon fill="white" stroke="transparent" points="-4,4 -4,-79 1167,-79 1167,4 -4,4"/>
<!-- pyGHDL.dom.DOMMixin -->
<g id="node1" class="node">
<title>pyGHDL.dom.DOMMixin</title>
<g id="a_node1"><a xlink:href="../pyGHDL.dom.html#pyGHDL.dom.DOMMixin" xlink:title="pyGHDL.dom.DOMMixin" target="_top">
<polygon fill="none" stroke="black" stroke-width="0.5" points="933,-74 798,-74 798,-55 933,-55 933,-74"/>
<text text-anchor="middle" x="865.5" y="-62" font-family="Vera Sans, DejaVu Sans, Liberation Sans, Arial, Helvetica, sans" font-size="10.00">pyGHDL.dom.DOMMixin</text>
</a>
</g>
</g>
<!-- pyGHDL.dom.Object.Constant -->
<g id="node2" class="node">
<title>pyGHDL.dom.Object.Constant</title>
<g id="a_node2"><a xlink:href="../pyGHDL/pyGHDL.dom.Object.html#pyGHDL.dom.Object.Constant" xlink:title="pyGHDL.dom.Object.Constant" target="_top">
<polygon fill="none" stroke="black" stroke-width="0.5" points="1163,-55 1001,-55 1001,-36 1163,-36 1163,-55"/>
<text text-anchor="middle" x="1082" y="-43" font-family="Vera Sans, DejaVu Sans, Liberation Sans, Arial, Helvetica, sans" font-size="10.00">pyGHDL.dom.Object.Constant</text>
</a>
</g>
</g>
<!-- pyGHDL.dom.DOMMixin&#45;&gt;pyGHDL.dom.Object.Constant -->
<g id="edge2" class="edge">
<title>pyGHDL.dom.DOMMixin&#45;&gt;pyGHDL.dom.Object.Constant</title>
<path fill="none" stroke="black" stroke-width="0.5" d="M933.19,-58.59C953,-56.84 974.98,-54.89 995.8,-53.05"/>
<polygon fill="black" stroke="black" stroke-width="0.5" points="995.95,-54.79 1000.78,-52.61 995.65,-51.3 995.95,-54.79"/>
</g>
<!-- pyVHDLModel.SyntaxModel.Constant -->
<g id="node3" class="node">
<title>pyVHDLModel.SyntaxModel.Constant</title>
<polygon fill="none" stroke="black" stroke-width="0.5" points="965,-37 766,-37 766,-18 965,-18 965,-37"/>
<text text-anchor="middle" x="865.5" y="-25" font-family="Vera Sans, DejaVu Sans, Liberation Sans, Arial, Helvetica, sans" font-size="10.00">pyVHDLModel.SyntaxModel.Constant</text>
</g>
<!-- pyVHDLModel.SyntaxModel.Constant&#45;&gt;pyGHDL.dom.Object.Constant -->
<g id="edge1" class="edge">
<title>pyVHDLModel.SyntaxModel.Constant&#45;&gt;pyGHDL.dom.Object.Constant</title>
<path fill="none" stroke="black" stroke-width="0.5" d="M965.27,-35.79C975.39,-36.64 985.6,-37.49 995.55,-38.33"/>
<polygon fill="black" stroke="black" stroke-width="0.5" points="995.6,-40.09 1000.73,-38.76 995.89,-36.6 995.6,-40.09"/>
</g>
<!-- pyVHDLModel.ModelEntity -->
<g id="node4" class="node">
<title>pyVHDLModel.ModelEntity</title>
<g id="a_node4"><a xlink:title="``ModelEntity`` is the base class for all classes in the VHDL language model,">
<polygon fill="none" stroke="black" stroke-width="0.5" points="169.5,-75 22.5,-75 22.5,-56 169.5,-56 169.5,-75"/>
<text text-anchor="middle" x="96" y="-63" font-family="Vera Sans, DejaVu Sans, Liberation Sans, Arial, Helvetica, sans" font-size="10.00">pyVHDLModel.ModelEntity</text>
</a>
</g>
</g>
<!-- pyVHDLModel.SyntaxModel.Obj -->
<g id="node7" class="node">
<title>pyVHDLModel.SyntaxModel.Obj</title>
<polygon fill="none" stroke="black" stroke-width="0.5" points="400,-56 228,-56 228,-37 400,-37 400,-56"/>
<text text-anchor="middle" x="314" y="-44" font-family="Vera Sans, DejaVu Sans, Liberation Sans, Arial, Helvetica, sans" font-size="10.00">pyVHDLModel.SyntaxModel.Obj</text>
</g>
<!-- pyVHDLModel.ModelEntity&#45;&gt;pyVHDLModel.SyntaxModel.Obj -->
<g id="edge6" class="edge">
<title>pyVHDLModel.ModelEntity&#45;&gt;pyVHDLModel.SyntaxModel.Obj</title>
<path fill="none" stroke="black" stroke-width="0.5" d="M169.53,-59.12C186.67,-57.61 205.15,-55.99 222.96,-54.42"/>
<polygon fill="black" stroke="black" stroke-width="0.5" points="223.13,-56.16 227.96,-53.98 222.83,-52.68 223.13,-56.16"/>
</g>
<!-- pyVHDLModel.MultipleNamedEntity -->
<g id="node5" class="node">
<title>pyVHDLModel.MultipleNamedEntity</title>
<g id="a_node5"><a xlink:title="A ``MultipleNamedEntity`` is a mixin class for all VHDL entities that declare">
<polygon fill="none" stroke="black" stroke-width="0.5" points="192,-38 0,-38 0,-19 192,-19 192,-38"/>
<text text-anchor="middle" x="96" y="-26" font-family="Vera Sans, DejaVu Sans, Liberation Sans, Arial, Helvetica, sans" font-size="10.00">pyVHDLModel.MultipleNamedEntity</text>
</a>
</g>
</g>
<!-- pyVHDLModel.MultipleNamedEntity&#45;&gt;pyVHDLModel.SyntaxModel.Obj -->
<g id="edge7" class="edge">
<title>pyVHDLModel.MultipleNamedEntity&#45;&gt;pyVHDLModel.SyntaxModel.Obj</title>
<path fill="none" stroke="black" stroke-width="0.5" d="M192.06,-36.42C202.18,-37.26 212.45,-38.12 222.51,-38.96"/>
<polygon fill="black" stroke="black" stroke-width="0.5" points="222.63,-40.73 227.76,-39.4 222.92,-37.24 222.63,-40.73"/>
</g>
<!-- pyVHDLModel.SyntaxModel.BaseConstant -->
<g id="node6" class="node">
<title>pyVHDLModel.SyntaxModel.BaseConstant</title>
<polygon fill="none" stroke="black" stroke-width="0.5" points="694.5,-56 471.5,-56 471.5,-37 694.5,-37 694.5,-56"/>
<text text-anchor="middle" x="583" y="-44" font-family="Vera Sans, DejaVu Sans, Liberation Sans, Arial, Helvetica, sans" font-size="10.00">pyVHDLModel.SyntaxModel.BaseConstant</text>
</g>
<!-- pyVHDLModel.SyntaxModel.BaseConstant&#45;&gt;pyVHDLModel.SyntaxModel.Constant -->
<g id="edge4" class="edge">
<title>pyVHDLModel.SyntaxModel.BaseConstant&#45;&gt;pyVHDLModel.SyntaxModel.Constant</title>
<path fill="none" stroke="black" stroke-width="0.5" d="M694.86,-38.99C716.55,-37.52 739.22,-35.99 760.68,-34.53"/>
<polygon fill="black" stroke="black" stroke-width="0.5" points="760.94,-36.27 765.81,-34.18 760.7,-32.78 760.94,-36.27"/>
</g>
<!-- pyVHDLModel.SyntaxModel.Obj&#45;&gt;pyVHDLModel.SyntaxModel.BaseConstant -->
<g id="edge3" class="edge">
<title>pyVHDLModel.SyntaxModel.Obj&#45;&gt;pyVHDLModel.SyntaxModel.BaseConstant</title>
<path fill="none" stroke="black" stroke-width="0.5" d="M400.21,-46.5C421.21,-46.5 444.05,-46.5 466.23,-46.5"/>
<polygon fill="black" stroke="black" stroke-width="0.5" points="466.25,-48.25 471.25,-46.5 466.25,-44.75 466.25,-48.25"/>
</g>
<!-- pyVHDLModel.SyntaxModel.WithDefaultExpressionMixin -->
<g id="node8" class="node">
<title>pyVHDLModel.SyntaxModel.WithDefaultExpressionMixin</title>
<g id="a_node8"><a xlink:title="A ``WithDefaultExpression`` is a mixin class for all objects declarations">
<polygon fill="none" stroke="black" stroke-width="0.5" points="730,-19 436,-19 436,0 730,0 730,-19"/>
<text text-anchor="middle" x="583" y="-7" font-family="Vera Sans, DejaVu Sans, Liberation Sans, Arial, Helvetica, sans" font-size="10.00">pyVHDLModel.SyntaxModel.WithDefaultExpressionMixin</text>
</a>
</g>
</g>
<!-- pyVHDLModel.SyntaxModel.WithDefaultExpressionMixin&#45;&gt;pyVHDLModel.SyntaxModel.Constant -->
<g id="edge5" class="edge">
<title>pyVHDLModel.SyntaxModel.WithDefaultExpressionMixin&#45;&gt;pyVHDLModel.SyntaxModel.Constant</title>
<path fill="none" stroke="black" stroke-width="0.5" d="M730,-18.87C740.32,-19.53 750.59,-20.19 760.6,-20.83"/>
<polygon fill="black" stroke="black" stroke-width="0.5" points="760.71,-22.59 765.81,-21.17 760.93,-19.1 760.71,-22.59"/>
</g>
</g>
</svg>
