<?xml version="1.0" encoding="UTF-8" standalone="no"?>
<!DOCTYPE svg PUBLIC "-//W3C//DTD SVG 1.1//EN"
 "http://www.w3.org/Graphics/SVG/1.1/DTD/svg11.dtd">
<!-- Generated by graphviz version 2.43.0 (0)
 -->
<!-- Title: inheritancea4c125b1d9 Pages: 1 -->
<svg width="576pt" height="24pt"
 viewBox="0.00 0.00 576.00 24.05" xmlns="http://www.w3.org/2000/svg" xmlns:xlink="http://www.w3.org/1999/xlink">
<g id="graph0" class="graph" transform="scale(2.66 2.66) rotate(0) translate(4 60)">
<title>inheritancea4c125b1d9</title>
<polygon fill="white" stroke="transparent" points="-4,4 -4,-60 1529,-60 1529,4 -4,4"/>
<!-- pyGHDL.dom.DOMMixin -->
<g id="node1" class="node">
<title>pyGHDL.dom.DOMMixin</title>
<g id="a_node1"><a xlink:href="../pyGHDL.dom.html#pyGHDL.dom.DOMMixin" xlink:title="pyGHDL.dom.DOMMixin" target="_top">
<polygon fill="none" stroke="black" stroke-width="0.5" points="1198,-56 1063,-56 1063,-37 1198,-37 1198,-56"/>
<text text-anchor="middle" x="1130.5" y="-44" font-family="Vera Sans, DejaVu Sans, Liberation Sans, Arial, Helvetica, sans" font-size="10.00">pyGHDL.dom.DOMMixin</text>
</a>
</g>
</g>
<!-- pyGHDL.dom.Expression.AdditionExpression -->
<g id="node2" class="node">
<title>pyGHDL.dom.Expression.AdditionExpression</title>
<g id="a_node2"><a xlink:href="../pyGHDL/pyGHDL.dom.Expression.html#pyGHDL.dom.Expression.AdditionExpression" xlink:title="pyGHDL.dom.Expression.AdditionExpression" target="_top">
<polygon fill="none" stroke="black" stroke-width="0.5" points="1525,-37 1291,-37 1291,-18 1525,-18 1525,-37"/>
<text text-anchor="middle" x="1408" y="-25" font-family="Vera Sans, DejaVu Sans, Liberation Sans, Arial, Helvetica, sans" font-size="10.00">pyGHDL.dom.Expression.AdditionExpression</text>
</a>
</g>
</g>
<!-- pyGHDL.dom.DOMMixin&#45;&gt;pyGHDL.dom.Expression.AdditionExpression -->
<g id="edge2" class="edge">
<title>pyGHDL.dom.DOMMixin&#45;&gt;pyGHDL.dom.Expression.AdditionExpression</title>
<path fill="none" stroke="black" stroke-width="0.5" d="M1198.19,-41.9C1224.54,-40.08 1255.65,-37.94 1285.71,-35.86"/>
<polygon fill="black" stroke="black" stroke-width="0.5" points="1286.05,-37.6 1290.92,-35.51 1285.81,-34.1 1286.05,-37.6"/>
</g>
<!-- pyVHDLModel.SyntaxModel.AdditionExpression -->
<g id="node3" class="node">
<title>pyVHDLModel.SyntaxModel.AdditionExpression</title>
<polygon fill="none" stroke="black" stroke-width="0.5" points="1255,-19 1006,-19 1006,0 1255,0 1255,-19"/>
<text text-anchor="middle" x="1130.5" y="-7" font-family="Vera Sans, DejaVu Sans, Liberation Sans, Arial, Helvetica, sans" font-size="10.00">pyVHDLModel.SyntaxModel.AdditionExpression</text>
</g>
<!-- pyVHDLModel.SyntaxModel.AdditionExpression&#45;&gt;pyGHDL.dom.Expression.AdditionExpression -->
<g id="edge1" class="edge">
<title>pyVHDLModel.SyntaxModel.AdditionExpression&#45;&gt;pyGHDL.dom.Expression.AdditionExpression</title>
<path fill="none" stroke="black" stroke-width="0.5" d="M1255.15,-17.58C1265.26,-18.24 1275.47,-18.91 1285.56,-19.57"/>
<polygon fill="black" stroke="black" stroke-width="0.5" points="1285.73,-21.33 1290.83,-19.91 1285.96,-17.84 1285.73,-21.33"/>
</g>
<!-- pyVHDLModel.ModelEntity -->
<g id="node4" class="node">
<title>pyVHDLModel.ModelEntity</title>
<g id="a_node4"><a xlink:title="``ModelEntity`` is the base class for all classes in the VHDL language model,">
<polygon fill="none" stroke="black" stroke-width="0.5" points="147,-19 0,-19 0,0 147,0 147,-19"/>
<text text-anchor="middle" x="73.5" y="-7" font-family="Vera Sans, DejaVu Sans, Liberation Sans, Arial, Helvetica, sans" font-size="10.00">pyVHDLModel.ModelEntity</text>
</a>
</g>
</g>
<!-- pyVHDLModel.SyntaxModel.BaseExpression -->
<g id="node7" class="node">
<title>pyVHDLModel.SyntaxModel.BaseExpression</title>
<g id="a_node7"><a xlink:title="A ``BaseExpression`` is a base&#45;class for all expressions.">
<polygon fill="none" stroke="black" stroke-width="0.5" points="416,-19 183,-19 183,0 416,0 416,-19"/>
<text text-anchor="middle" x="299.5" y="-7" font-family="Vera Sans, DejaVu Sans, Liberation Sans, Arial, Helvetica, sans" font-size="10.00">pyVHDLModel.SyntaxModel.BaseExpression</text>
</a>
</g>
</g>
<!-- pyVHDLModel.ModelEntity&#45;&gt;pyVHDLModel.SyntaxModel.BaseExpression -->
<g id="edge5" class="edge">
<title>pyVHDLModel.ModelEntity&#45;&gt;pyVHDLModel.SyntaxModel.BaseExpression</title>
<path fill="none" stroke="black" stroke-width="0.5" d="M147.23,-9.5C157,-9.5 167.22,-9.5 177.55,-9.5"/>
<polygon fill="black" stroke="black" stroke-width="0.5" points="177.63,-11.25 182.63,-9.5 177.63,-7.75 177.63,-11.25"/>
</g>
<!-- pyVHDLModel.SyntaxModel.AddingExpression -->
<g id="node5" class="node">
<title>pyVHDLModel.SyntaxModel.AddingExpression</title>
<g id="a_node5"><a xlink:title="A ``AddingExpression`` is a base&#45;class for all adding expressions.">
<polygon fill="none" stroke="black" stroke-width="0.5" points="970,-19 728,-19 728,0 970,0 970,-19"/>
<text text-anchor="middle" x="849" y="-7" font-family="Vera Sans, DejaVu Sans, Liberation Sans, Arial, Helvetica, sans" font-size="10.00">pyVHDLModel.SyntaxModel.AddingExpression</text>
</a>
</g>
</g>
<!-- pyVHDLModel.SyntaxModel.AddingExpression&#45;&gt;pyVHDLModel.SyntaxModel.AdditionExpression -->
<g id="edge4" class="edge">
<title>pyVHDLModel.SyntaxModel.AddingExpression&#45;&gt;pyVHDLModel.SyntaxModel.AdditionExpression</title>
<path fill="none" stroke="black" stroke-width="0.5" d="M970.16,-9.5C980.33,-9.5 990.64,-9.5 1000.87,-9.5"/>
<polygon fill="black" stroke="black" stroke-width="0.5" points="1000.89,-11.25 1005.89,-9.5 1000.89,-7.75 1000.89,-11.25"/>
</g>
<!-- pyVHDLModel.SyntaxModel.BinaryExpression -->
<g id="node6" class="node">
<title>pyVHDLModel.SyntaxModel.BinaryExpression</title>
<g id="a_node6"><a xlink:title="A ``BinaryExpression`` is a base&#45;class for all binary expressions.">
<polygon fill="none" stroke="black" stroke-width="0.5" points="692,-19 452,-19 452,0 692,0 692,-19"/>
<text text-anchor="middle" x="572" y="-7" font-family="Vera Sans, DejaVu Sans, Liberation Sans, Arial, Helvetica, sans" font-size="10.00">pyVHDLModel.SyntaxModel.BinaryExpression</text>
</a>
</g>
</g>
<!-- pyVHDLModel.SyntaxModel.BinaryExpression&#45;&gt;pyVHDLModel.SyntaxModel.AddingExpression -->
<g id="edge3" class="edge">
<title>pyVHDLModel.SyntaxModel.BinaryExpression&#45;&gt;pyVHDLModel.SyntaxModel.AddingExpression</title>
<path fill="none" stroke="black" stroke-width="0.5" d="M692.02,-9.5C702.25,-9.5 712.62,-9.5 722.89,-9.5"/>
<polygon fill="black" stroke="black" stroke-width="0.5" points="722.93,-11.25 727.93,-9.5 722.93,-7.75 722.93,-11.25"/>
</g>
<!-- pyVHDLModel.SyntaxModel.BaseExpression&#45;&gt;pyVHDLModel.SyntaxModel.BinaryExpression -->
<g id="edge6" class="edge">
<title>pyVHDLModel.SyntaxModel.BaseExpression&#45;&gt;pyVHDLModel.SyntaxModel.BinaryExpression</title>
<path fill="none" stroke="black" stroke-width="0.5" d="M416,-9.5C426.03,-9.5 436.2,-9.5 446.3,-9.5"/>
<polygon fill="black" stroke="black" stroke-width="0.5" points="446.57,-11.25 451.57,-9.5 446.57,-7.75 446.57,-11.25"/>
</g>
</g>
</svg>
