<?xml version="1.0" encoding="UTF-8" standalone="no"?>
<!DOCTYPE svg PUBLIC "-//W3C//DTD SVG 1.1//EN"
 "http://www.w3.org/Graphics/SVG/1.1/DTD/svg11.dtd">
<!-- Generated by graphviz version 2.43.0 (0)
 -->
<!-- Title: inheritance3a23782444 Pages: 1 -->
<svg width="576pt" height="29pt"
 viewBox="0.00 0.00 576.00 29.40" xmlns="http://www.w3.org/2000/svg" xmlns:xlink="http://www.w3.org/1999/xlink">
<g id="graph0" class="graph" transform="scale(2.18 2.18) rotate(0) translate(4 60)">
<title>inheritance3a23782444</title>
<polygon fill="white" stroke="transparent" points="-4,4 -4,-60 1250,-60 1250,4 -4,4"/>
<!-- pyGHDL.dom.Concurrent.RangedGenerateChoice -->
<g id="node1" class="node">
<title>pyGHDL.dom.Concurrent.RangedGenerateChoice</title>
<g id="a_node1"><a xlink:href="../pyGHDL/pyGHDL.dom.Concurrent.html#pyGHDL.dom.Concurrent.RangedGenerateChoice" xlink:title="pyGHDL.dom.Concurrent.RangedGenerateChoice" target="_top">
<polygon fill="none" stroke="black" stroke-width="0.5" points="1246,-37 991,-37 991,-18 1246,-18 1246,-37"/>
<text text-anchor="middle" x="1118.5" y="-25" font-family="Vera Sans, DejaVu Sans, Liberation Sans, Arial, Helvetica, sans" font-size="10.00">pyGHDL.dom.Concurrent.RangedGenerateChoice</text>
</a>
</g>
</g>
<!-- pyVHDLModel.SyntaxModel.RangedGenerateChoice -->
<g id="node2" class="node">
<title>pyVHDLModel.SyntaxModel.RangedGenerateChoice</title>
<polygon fill="none" stroke="black" stroke-width="0.5" points="955,-56 685,-56 685,-37 955,-37 955,-56"/>
<text text-anchor="middle" x="820" y="-44" font-family="Vera Sans, DejaVu Sans, Liberation Sans, Arial, Helvetica, sans" font-size="10.00">pyVHDLModel.SyntaxModel.RangedGenerateChoice</text>
</g>
<!-- pyVHDLModel.SyntaxModel.RangedGenerateChoice&#45;&gt;pyGHDL.dom.Concurrent.RangedGenerateChoice -->
<g id="edge1" class="edge">
<title>pyVHDLModel.SyntaxModel.RangedGenerateChoice&#45;&gt;pyGHDL.dom.Concurrent.RangedGenerateChoice</title>
<path fill="none" stroke="black" stroke-width="0.5" d="M955.37,-37.89C965.42,-37.25 975.55,-36.6 985.58,-35.95"/>
<polygon fill="black" stroke="black" stroke-width="0.5" points="985.94,-37.68 990.82,-35.62 985.71,-34.19 985.94,-37.68"/>
</g>
<!-- pyGHDL.dom.DOMMixin -->
<g id="node3" class="node">
<title>pyGHDL.dom.DOMMixin</title>
<g id="a_node3"><a xlink:href="../pyGHDL.dom.html#pyGHDL.dom.DOMMixin" xlink:title="pyGHDL.dom.DOMMixin" target="_top">
<polygon fill="none" stroke="black" stroke-width="0.5" points="887.5,-19 752.5,-19 752.5,0 887.5,0 887.5,-19"/>
<text text-anchor="middle" x="820" y="-7" font-family="Vera Sans, DejaVu Sans, Liberation Sans, Arial, Helvetica, sans" font-size="10.00">pyGHDL.dom.DOMMixin</text>
</a>
</g>
</g>
<!-- pyGHDL.dom.DOMMixin&#45;&gt;pyGHDL.dom.Concurrent.RangedGenerateChoice -->
<g id="edge2" class="edge">
<title>pyGHDL.dom.DOMMixin&#45;&gt;pyGHDL.dom.Concurrent.RangedGenerateChoice</title>
<path fill="none" stroke="black" stroke-width="0.5" d="M887.54,-13.54C916.67,-15.31 951.92,-17.45 985.98,-19.52"/>
<polygon fill="black" stroke="black" stroke-width="0.5" points="985.9,-21.26 990.99,-19.82 986.11,-17.77 985.9,-21.26"/>
</g>
<!-- pyVHDLModel.ModelEntity -->
<g id="node4" class="node">
<title>pyVHDLModel.ModelEntity</title>
<g id="a_node4"><a xlink:title="``ModelEntity`` is the base class for all classes in the VHDL language model,">
<polygon fill="none" stroke="black" stroke-width="0.5" points="147,-56 0,-56 0,-37 147,-37 147,-56"/>
<text text-anchor="middle" x="73.5" y="-44" font-family="Vera Sans, DejaVu Sans, Liberation Sans, Arial, Helvetica, sans" font-size="10.00">pyVHDLModel.ModelEntity</text>
</a>
</g>
</g>
<!-- pyVHDLModel.SyntaxModel.Choice -->
<g id="node5" class="node">
<title>pyVHDLModel.SyntaxModel.Choice</title>
<g id="a_node5"><a xlink:title="A ``Choice`` is a base&#45;class for all choices.">
<polygon fill="none" stroke="black" stroke-width="0.5" points="371,-56 183,-56 183,-37 371,-37 371,-56"/>
<text text-anchor="middle" x="277" y="-44" font-family="Vera Sans, DejaVu Sans, Liberation Sans, Arial, Helvetica, sans" font-size="10.00">pyVHDLModel.SyntaxModel.Choice</text>
</a>
</g>
</g>
<!-- pyVHDLModel.ModelEntity&#45;&gt;pyVHDLModel.SyntaxModel.Choice -->
<g id="edge3" class="edge">
<title>pyVHDLModel.ModelEntity&#45;&gt;pyVHDLModel.SyntaxModel.Choice</title>
<path fill="none" stroke="black" stroke-width="0.5" d="M147.25,-46.5C157.13,-46.5 167.4,-46.5 177.64,-46.5"/>
<polygon fill="black" stroke="black" stroke-width="0.5" points="177.66,-48.25 182.66,-46.5 177.66,-44.75 177.66,-48.25"/>
</g>
<!-- pyVHDLModel.SyntaxModel.ConcurrentChoice -->
<g id="node6" class="node">
<title>pyVHDLModel.SyntaxModel.ConcurrentChoice</title>
<g id="a_node6"><a xlink:title="A ``ConcurrentChoice`` is a base&#45;class for all concurrent choices">
<polygon fill="none" stroke="black" stroke-width="0.5" points="649,-56 407,-56 407,-37 649,-37 649,-56"/>
<text text-anchor="middle" x="528" y="-44" font-family="Vera Sans, DejaVu Sans, Liberation Sans, Arial, Helvetica, sans" font-size="10.00">pyVHDLModel.SyntaxModel.ConcurrentChoice</text>
</a>
</g>
</g>
<!-- pyVHDLModel.SyntaxModel.Choice&#45;&gt;pyVHDLModel.SyntaxModel.ConcurrentChoice -->
<g id="edge4" class="edge">
<title>pyVHDLModel.SyntaxModel.Choice&#45;&gt;pyVHDLModel.SyntaxModel.ConcurrentChoice</title>
<path fill="none" stroke="black" stroke-width="0.5" d="M371.07,-46.5C381.04,-46.5 391.3,-46.5 401.57,-46.5"/>
<polygon fill="black" stroke="black" stroke-width="0.5" points="401.61,-48.25 406.61,-46.5 401.61,-44.75 401.61,-48.25"/>
</g>
<!-- pyVHDLModel.SyntaxModel.ConcurrentChoice&#45;&gt;pyVHDLModel.SyntaxModel.RangedGenerateChoice -->
<g id="edge5" class="edge">
<title>pyVHDLModel.SyntaxModel.ConcurrentChoice&#45;&gt;pyVHDLModel.SyntaxModel.RangedGenerateChoice</title>
<path fill="none" stroke="black" stroke-width="0.5" d="M649.05,-46.5C659.22,-46.5 669.57,-46.5 679.88,-46.5"/>
<polygon fill="black" stroke="black" stroke-width="0.5" points="679.93,-48.25 684.93,-46.5 679.93,-44.75 679.93,-48.25"/>
</g>
</g>
</svg>
