<?xml version="1.0" encoding="UTF-8" standalone="no"?>
<!DOCTYPE svg PUBLIC "-//W3C//DTD SVG 1.1//EN"
 "http://www.w3.org/Graphics/SVG/1.1/DTD/svg11.dtd">
<!-- Generated by graphviz version 2.43.0 (0)
 -->
<!-- Title: inheritanceec0550a951 Pages: 1 -->
<svg width="576pt" height="52pt"
 viewBox="0.00 0.00 576.00 52.17" xmlns="http://www.w3.org/2000/svg" xmlns:xlink="http://www.w3.org/1999/xlink">
<g id="graph0" class="graph" transform="scale(1.92 1.92) rotate(0) translate(4 96)">
<title>inheritanceec0550a951</title>
<polygon fill="white" stroke="transparent" points="-4,4 -4,-96 1100,-96 1100,4 -4,4"/>
<!-- pyGHDL.dom.DOMMixin -->
<g id="node1" class="node">
<title>pyGHDL.dom.DOMMixin</title>
<g id="a_node1"><a xlink:href="../pyGHDL.dom.html#pyGHDL.dom.DOMMixin" xlink:title="pyGHDL.dom.DOMMixin" target="_top">
<polygon fill="none" stroke="black" stroke-width="0.5" points="811,-92 676,-92 676,-73 811,-73 811,-92"/>
<text text-anchor="middle" x="743.5" y="-80" font-family="Vera Sans, DejaVu Sans, Liberation Sans, Arial, Helvetica, sans" font-size="10.00">pyGHDL.dom.DOMMixin</text>
</a>
</g>
</g>
<!-- pyGHDL.dom.DesignUnit.Configuration -->
<g id="node2" class="node">
<title>pyGHDL.dom.DesignUnit.Configuration</title>
<g id="a_node2"><a xlink:href="../pyGHDL/pyGHDL.dom.DesignUnit.html#pyGHDL.dom.DesignUnit.Configuration" xlink:title="pyGHDL.dom.DesignUnit.Configuration" target="_top">
<polygon fill="none" stroke="black" stroke-width="0.5" points="1096,-73 890,-73 890,-54 1096,-54 1096,-73"/>
<text text-anchor="middle" x="993" y="-61" font-family="Vera Sans, DejaVu Sans, Liberation Sans, Arial, Helvetica, sans" font-size="10.00">pyGHDL.dom.DesignUnit.Configuration</text>
</a>
</g>
</g>
<!-- pyGHDL.dom.DOMMixin&#45;&gt;pyGHDL.dom.DesignUnit.Configuration -->
<g id="edge2" class="edge">
<title>pyGHDL.dom.DOMMixin&#45;&gt;pyGHDL.dom.DesignUnit.Configuration</title>
<path fill="none" stroke="black" stroke-width="0.5" d="M811.15,-77.38C833.84,-75.64 859.8,-73.65 884.84,-71.73"/>
<polygon fill="black" stroke="black" stroke-width="0.5" points="884.98,-73.47 889.83,-71.34 884.71,-69.98 884.98,-73.47"/>
</g>
<!-- pyVHDLModel.SyntaxModel.Configuration -->
<g id="node3" class="node">
<title>pyVHDLModel.SyntaxModel.Configuration</title>
<polygon fill="none" stroke="black" stroke-width="0.5" points="854,-55 633,-55 633,-36 854,-36 854,-55"/>
<text text-anchor="middle" x="743.5" y="-43" font-family="Vera Sans, DejaVu Sans, Liberation Sans, Arial, Helvetica, sans" font-size="10.00">pyVHDLModel.SyntaxModel.Configuration</text>
</g>
<!-- pyVHDLModel.SyntaxModel.Configuration&#45;&gt;pyGHDL.dom.DesignUnit.Configuration -->
<g id="edge1" class="edge">
<title>pyVHDLModel.SyntaxModel.Configuration&#45;&gt;pyGHDL.dom.DesignUnit.Configuration</title>
<path fill="none" stroke="black" stroke-width="0.5" d="M854.14,-53.47C864.36,-54.22 874.71,-54.97 884.91,-55.71"/>
<polygon fill="black" stroke="black" stroke-width="0.5" points="884.79,-57.46 889.91,-56.07 885.05,-53.97 884.79,-57.46"/>
</g>
<!-- pyVHDLModel.DesignUnit -->
<g id="node4" class="node">
<title>pyVHDLModel.DesignUnit</title>
<g id="a_node4"><a xlink:title="A ``DesignUnit`` is a base&#45;class for all design units.">
<polygon fill="none" stroke="black" stroke-width="0.5" points="331,-37 188,-37 188,-18 331,-18 331,-37"/>
<text text-anchor="middle" x="259.5" y="-25" font-family="Vera Sans, DejaVu Sans, Liberation Sans, Arial, Helvetica, sans" font-size="10.00">pyVHDLModel.DesignUnit</text>
</a>
</g>
</g>
<!-- pyVHDLModel.PrimaryUnit -->
<g id="node8" class="node">
<title>pyVHDLModel.PrimaryUnit</title>
<g id="a_node8"><a xlink:title="A ``PrimaryUnit`` is a base&#45;class for all primary units.">
<polygon fill="none" stroke="black" stroke-width="0.5" points="555.5,-37 408.5,-37 408.5,-18 555.5,-18 555.5,-37"/>
<text text-anchor="middle" x="482" y="-25" font-family="Vera Sans, DejaVu Sans, Liberation Sans, Arial, Helvetica, sans" font-size="10.00">pyVHDLModel.PrimaryUnit</text>
</a>
</g>
</g>
<!-- pyVHDLModel.DesignUnit&#45;&gt;pyVHDLModel.PrimaryUnit -->
<g id="edge5" class="edge">
<title>pyVHDLModel.DesignUnit&#45;&gt;pyVHDLModel.PrimaryUnit</title>
<path fill="none" stroke="black" stroke-width="0.5" d="M331.18,-27.5C354.13,-27.5 379.72,-27.5 403.17,-27.5"/>
<polygon fill="black" stroke="black" stroke-width="0.5" points="403.45,-29.25 408.45,-27.5 403.45,-25.75 403.45,-29.25"/>
</g>
<!-- pyVHDLModel.ModelEntity -->
<g id="node5" class="node">
<title>pyVHDLModel.ModelEntity</title>
<g id="a_node5"><a xlink:title="``ModelEntity`` is the base class for all classes in the VHDL language model,">
<polygon fill="none" stroke="black" stroke-width="0.5" points="149.5,-56 2.5,-56 2.5,-37 149.5,-37 149.5,-56"/>
<text text-anchor="middle" x="76" y="-44" font-family="Vera Sans, DejaVu Sans, Liberation Sans, Arial, Helvetica, sans" font-size="10.00">pyVHDLModel.ModelEntity</text>
</a>
</g>
</g>
<!-- pyVHDLModel.ModelEntity&#45;&gt;pyVHDLModel.DesignUnit -->
<g id="edge3" class="edge">
<title>pyVHDLModel.ModelEntity&#45;&gt;pyVHDLModel.DesignUnit</title>
<path fill="none" stroke="black" stroke-width="0.5" d="M149.52,-38.91C160.48,-37.76 171.81,-36.58 182.83,-35.42"/>
<polygon fill="black" stroke="black" stroke-width="0.5" points="183.08,-37.15 187.87,-34.89 182.72,-33.67 183.08,-37.15"/>
</g>
<!-- pyVHDLModel.NamedEntity -->
<g id="node6" class="node">
<title>pyVHDLModel.NamedEntity</title>
<g id="a_node6"><a xlink:title="A ``NamedEntity`` is a mixin class for all VHDL entities that have identifiers.">
<polygon fill="none" stroke="black" stroke-width="0.5" points="152,-19 0,-19 0,0 152,0 152,-19"/>
<text text-anchor="middle" x="76" y="-7" font-family="Vera Sans, DejaVu Sans, Liberation Sans, Arial, Helvetica, sans" font-size="10.00">pyVHDLModel.NamedEntity</text>
</a>
</g>
</g>
<!-- pyVHDLModel.NamedEntity&#45;&gt;pyVHDLModel.DesignUnit -->
<g id="edge4" class="edge">
<title>pyVHDLModel.NamedEntity&#45;&gt;pyVHDLModel.DesignUnit</title>
<path fill="none" stroke="black" stroke-width="0.5" d="M152.13,-16.95C162.18,-17.95 172.49,-18.97 182.56,-19.97"/>
<polygon fill="black" stroke="black" stroke-width="0.5" points="182.64,-21.74 187.79,-20.49 182.99,-18.25 182.64,-21.74"/>
</g>
<!-- pyVHDLModel.MixinDesignUnitWithContext -->
<g id="node7" class="node">
<title>pyVHDLModel.MixinDesignUnitWithContext</title>
<polygon fill="none" stroke="black" stroke-width="0.5" points="597,-74 367,-74 367,-55 597,-55 597,-74"/>
<text text-anchor="middle" x="482" y="-62" font-family="Vera Sans, DejaVu Sans, Liberation Sans, Arial, Helvetica, sans" font-size="10.00">pyVHDLModel.MixinDesignUnitWithContext</text>
</g>
<!-- pyVHDLModel.MixinDesignUnitWithContext&#45;&gt;pyVHDLModel.SyntaxModel.Configuration -->
<g id="edge7" class="edge">
<title>pyVHDLModel.MixinDesignUnitWithContext&#45;&gt;pyVHDLModel.SyntaxModel.Configuration</title>
<path fill="none" stroke="black" stroke-width="0.5" d="M597.2,-56.14C607.27,-55.4 617.47,-54.65 627.55,-53.92"/>
<polygon fill="black" stroke="black" stroke-width="0.5" points="627.95,-55.64 632.81,-53.53 627.7,-52.15 627.95,-55.64"/>
</g>
<!-- pyVHDLModel.PrimaryUnit&#45;&gt;pyVHDLModel.SyntaxModel.Configuration -->
<g id="edge6" class="edge">
<title>pyVHDLModel.PrimaryUnit&#45;&gt;pyVHDLModel.SyntaxModel.Configuration</title>
<path fill="none" stroke="black" stroke-width="0.5" d="M555.63,-32.54C578.03,-34.09 603.26,-35.84 627.77,-37.54"/>
<polygon fill="black" stroke="black" stroke-width="0.5" points="627.88,-39.3 632.99,-37.9 628.12,-35.81 627.88,-39.3"/>
</g>
</g>
</svg>
