<?xml version="1.0" encoding="UTF-8" standalone="no"?>
<!DOCTYPE svg PUBLIC "-//W3C//DTD SVG 1.1//EN"
 "http://www.w3.org/Graphics/SVG/1.1/DTD/svg11.dtd">
<!-- Generated by graphviz version 2.43.0 (0)
 -->
<!-- Title: inheritancec9368e6409 Pages: 1 -->
<svg width="576pt" height="37pt"
 viewBox="0.00 0.00 576.00 37.07" xmlns="http://www.w3.org/2000/svg" xmlns:xlink="http://www.w3.org/1999/xlink">
<g id="graph0" class="graph" transform="scale(2.21 2.21) rotate(0) translate(4 78)">
<title>inheritancec9368e6409</title>
<polygon fill="white" stroke="transparent" points="-4,4 -4,-78 1270,-78 1270,4 -4,4"/>
<!-- pyGHDL.dom.DOMMixin -->
<g id="node1" class="node">
<title>pyGHDL.dom.DOMMixin</title>
<g id="a_node1"><a xlink:href="../pyGHDL.dom.html#pyGHDL.dom.DOMMixin" xlink:title="pyGHDL.dom.DOMMixin" target="_top">
<polygon fill="none" stroke="black" stroke-width="0.5" points="934,-74 799,-74 799,-55 934,-55 934,-74"/>
<text text-anchor="middle" x="866.5" y="-62" font-family="Vera Sans, DejaVu Sans, Liberation Sans, Arial, Helvetica, sans" font-size="10.00">pyGHDL.dom.DOMMixin</text>
</a>
</g>
</g>
<!-- pyGHDL.dom.Expression.ParenthesisExpression -->
<g id="node2" class="node">
<title>pyGHDL.dom.Expression.ParenthesisExpression</title>
<g id="a_node2"><a xlink:href="../pyGHDL/pyGHDL.dom.Expression.html#pyGHDL.dom.Expression.ParenthesisExpression" xlink:title="pyGHDL.dom.Expression.ParenthesisExpression" target="_top">
<polygon fill="none" stroke="black" stroke-width="0.5" points="1266,-55 1016,-55 1016,-36 1266,-36 1266,-55"/>
<text text-anchor="middle" x="1141" y="-43" font-family="Vera Sans, DejaVu Sans, Liberation Sans, Arial, Helvetica, sans" font-size="10.00">pyGHDL.dom.Expression.ParenthesisExpression</text>
</a>
</g>
</g>
<!-- pyGHDL.dom.DOMMixin&#45;&gt;pyGHDL.dom.Expression.ParenthesisExpression -->
<g id="edge2" class="edge">
<title>pyGHDL.dom.DOMMixin&#45;&gt;pyGHDL.dom.Expression.ParenthesisExpression</title>
<path fill="none" stroke="black" stroke-width="0.5" d="M934.16,-59.85C957.28,-58.24 984.05,-56.37 1010.48,-54.53"/>
<polygon fill="black" stroke="black" stroke-width="0.5" points="1010.9,-56.26 1015.76,-54.16 1010.65,-52.76 1010.9,-56.26"/>
</g>
<!-- pyVHDLModel.SyntaxModel.SubExpression -->
<g id="node3" class="node">
<title>pyVHDLModel.SyntaxModel.SubExpression</title>
<polygon fill="none" stroke="black" stroke-width="0.5" points="980,-37 753,-37 753,-18 980,-18 980,-37"/>
<text text-anchor="middle" x="866.5" y="-25" font-family="Vera Sans, DejaVu Sans, Liberation Sans, Arial, Helvetica, sans" font-size="10.00">pyVHDLModel.SyntaxModel.SubExpression</text>
</g>
<!-- pyVHDLModel.SyntaxModel.SubExpression&#45;&gt;pyGHDL.dom.Expression.ParenthesisExpression -->
<g id="edge1" class="edge">
<title>pyVHDLModel.SyntaxModel.SubExpression&#45;&gt;pyGHDL.dom.Expression.ParenthesisExpression</title>
<path fill="none" stroke="black" stroke-width="0.5" d="M980.3,-34.95C990.37,-35.62 1000.61,-36.29 1010.8,-36.97"/>
<polygon fill="black" stroke="black" stroke-width="0.5" points="1010.69,-38.71 1015.8,-37.3 1010.92,-35.22 1010.69,-38.71"/>
</g>
<!-- pyVHDLModel.ModelEntity -->
<g id="node4" class="node">
<title>pyVHDLModel.ModelEntity</title>
<g id="a_node4"><a xlink:title="``ModelEntity`` is the base class for all classes in the VHDL language model,">
<polygon fill="none" stroke="black" stroke-width="0.5" points="147,-19 0,-19 0,0 147,0 147,-19"/>
<text text-anchor="middle" x="73.5" y="-7" font-family="Vera Sans, DejaVu Sans, Liberation Sans, Arial, Helvetica, sans" font-size="10.00">pyVHDLModel.ModelEntity</text>
</a>
</g>
</g>
<!-- pyVHDLModel.SyntaxModel.BaseExpression -->
<g id="node5" class="node">
<title>pyVHDLModel.SyntaxModel.BaseExpression</title>
<g id="a_node5"><a xlink:title="A ``BaseExpression`` is a base&#45;class for all expressions.">
<polygon fill="none" stroke="black" stroke-width="0.5" points="416,-19 183,-19 183,0 416,0 416,-19"/>
<text text-anchor="middle" x="299.5" y="-7" font-family="Vera Sans, DejaVu Sans, Liberation Sans, Arial, Helvetica, sans" font-size="10.00">pyVHDLModel.SyntaxModel.BaseExpression</text>
</a>
</g>
</g>
<!-- pyVHDLModel.ModelEntity&#45;&gt;pyVHDLModel.SyntaxModel.BaseExpression -->
<g id="edge3" class="edge">
<title>pyVHDLModel.ModelEntity&#45;&gt;pyVHDLModel.SyntaxModel.BaseExpression</title>
<path fill="none" stroke="black" stroke-width="0.5" d="M147.23,-9.5C157,-9.5 167.22,-9.5 177.55,-9.5"/>
<polygon fill="black" stroke="black" stroke-width="0.5" points="177.63,-11.25 182.63,-9.5 177.63,-7.75 177.63,-11.25"/>
</g>
<!-- pyVHDLModel.SyntaxModel.UnaryExpression -->
<g id="node8" class="node">
<title>pyVHDLModel.SyntaxModel.UnaryExpression</title>
<g id="a_node8"><a xlink:title="A ``UnaryExpression`` is a base&#45;class for all unary expressions.">
<polygon fill="none" stroke="black" stroke-width="0.5" points="703.5,-19 465.5,-19 465.5,0 703.5,0 703.5,-19"/>
<text text-anchor="middle" x="584.5" y="-7" font-family="Vera Sans, DejaVu Sans, Liberation Sans, Arial, Helvetica, sans" font-size="10.00">pyVHDLModel.SyntaxModel.UnaryExpression</text>
</a>
</g>
</g>
<!-- pyVHDLModel.SyntaxModel.BaseExpression&#45;&gt;pyVHDLModel.SyntaxModel.UnaryExpression -->
<g id="edge7" class="edge">
<title>pyVHDLModel.SyntaxModel.BaseExpression&#45;&gt;pyVHDLModel.SyntaxModel.UnaryExpression</title>
<path fill="none" stroke="black" stroke-width="0.5" d="M416.02,-9.5C430.44,-9.5 445.25,-9.5 459.79,-9.5"/>
<polygon fill="black" stroke="black" stroke-width="0.5" points="460.14,-11.25 465.14,-9.5 460.14,-7.75 460.14,-11.25"/>
</g>
<!-- pyVHDLModel.SyntaxModel.ParenthesisExpression -->
<g id="node6" class="node">
<title>pyVHDLModel.SyntaxModel.ParenthesisExpression</title>
<polygon fill="none" stroke="black" stroke-width="0.5" points="717,-56 452,-56 452,-37 717,-37 717,-56"/>
<text text-anchor="middle" x="584.5" y="-44" font-family="Vera Sans, DejaVu Sans, Liberation Sans, Arial, Helvetica, sans" font-size="10.00">pyVHDLModel.SyntaxModel.ParenthesisExpression</text>
</g>
<!-- pyVHDLModel.SyntaxModel.ParenthesisExpression&#45;&gt;pyVHDLModel.SyntaxModel.SubExpression -->
<g id="edge6" class="edge">
<title>pyVHDLModel.SyntaxModel.ParenthesisExpression&#45;&gt;pyVHDLModel.SyntaxModel.SubExpression</title>
<path fill="none" stroke="black" stroke-width="0.5" d="M717.3,-37.56C727.45,-36.87 737.65,-36.18 747.7,-35.49"/>
<polygon fill="black" stroke="black" stroke-width="0.5" points="748.07,-37.22 752.94,-35.14 747.83,-33.73 748.07,-37.22"/>
</g>
<!-- typing.Protocol -->
<g id="node7" class="node">
<title>typing.Protocol</title>
<g id="a_node7"><a xlink:title="Base class for protocol classes.">
<polygon fill="none" stroke="black" stroke-width="0.5" points="344.5,-56 254.5,-56 254.5,-37 344.5,-37 344.5,-56"/>
<text text-anchor="middle" x="299.5" y="-44" font-family="Vera Sans, DejaVu Sans, Liberation Sans, Arial, Helvetica, sans" font-size="10.00">typing.Protocol</text>
</a>
</g>
</g>
<!-- typing.Protocol&#45;&gt;pyVHDLModel.SyntaxModel.ParenthesisExpression -->
<g id="edge4" class="edge">
<title>typing.Protocol&#45;&gt;pyVHDLModel.SyntaxModel.ParenthesisExpression</title>
<path fill="none" stroke="black" stroke-width="0.5" d="M344.72,-46.5C372.35,-46.5 409.58,-46.5 446.41,-46.5"/>
<polygon fill="black" stroke="black" stroke-width="0.5" points="446.84,-48.25 451.84,-46.5 446.84,-44.75 446.84,-48.25"/>
</g>
<!-- pyVHDLModel.SyntaxModel.UnaryExpression&#45;&gt;pyVHDLModel.SyntaxModel.SubExpression -->
<g id="edge5" class="edge">
<title>pyVHDLModel.SyntaxModel.UnaryExpression&#45;&gt;pyVHDLModel.SyntaxModel.SubExpression</title>
<path fill="none" stroke="black" stroke-width="0.5" d="M703.84,-17.11C718.33,-18.04 733.14,-18.99 747.62,-19.92"/>
<polygon fill="black" stroke="black" stroke-width="0.5" points="747.84,-21.69 752.94,-20.26 748.06,-18.2 747.84,-21.69"/>
</g>
<!-- typing.Generic -->
<g id="node9" class="node">
<title>typing.Generic</title>
<g id="a_node9"><a xlink:title="Abstract base class for generic types.">
<polygon fill="none" stroke="black" stroke-width="0.5" points="117.5,-56 29.5,-56 29.5,-37 117.5,-37 117.5,-56"/>
<text text-anchor="middle" x="73.5" y="-44" font-family="Vera Sans, DejaVu Sans, Liberation Sans, Arial, Helvetica, sans" font-size="10.00">typing.Generic</text>
</a>
</g>
</g>
<!-- typing.Generic&#45;&gt;typing.Protocol -->
<g id="edge8" class="edge">
<title>typing.Generic&#45;&gt;typing.Protocol</title>
<path fill="none" stroke="black" stroke-width="0.5" d="M117.69,-46.5C155.29,-46.5 209.77,-46.5 249.09,-46.5"/>
<polygon fill="black" stroke="black" stroke-width="0.5" points="249.29,-48.25 254.29,-46.5 249.29,-44.75 249.29,-48.25"/>
</g>
</g>
</svg>
