<?xml version="1.0" encoding="UTF-8" standalone="no"?>
<!DOCTYPE svg PUBLIC "-//W3C//DTD SVG 1.1//EN"
 "http://www.w3.org/Graphics/SVG/1.1/DTD/svg11.dtd">
<!-- Generated by graphviz version 2.43.0 (0)
 -->
<!-- Title: inheritance57e6b79fa7 Pages: 1 -->
<svg width="576pt" height="54pt"
 viewBox="0.00 0.00 576.00 53.86" xmlns="http://www.w3.org/2000/svg" xmlns:xlink="http://www.w3.org/1999/xlink">
<g id="graph0" class="graph" transform="scale(1.52 1.52) rotate(0) translate(4 78)">
<title>inheritance57e6b79fa7</title>
<polygon fill="white" stroke="transparent" points="-4,4 -4,-78 873,-78 873,4 -4,4"/>
<!-- pyGHDL.dom.DOMMixin -->
<g id="node1" class="node">
<title>pyGHDL.dom.DOMMixin</title>
<g id="a_node1"><a xlink:href="../pyGHDL.dom.html#pyGHDL.dom.DOMMixin" xlink:title="pyGHDL.dom.DOMMixin" target="_top">
<polygon fill="none" stroke="black" stroke-width="0.5" points="614,-74 479,-74 479,-55 614,-55 614,-74"/>
<text text-anchor="middle" x="546.5" y="-62" font-family="Vera Sans, DejaVu Sans, Liberation Sans, Arial, Helvetica, sans" font-size="10.00">pyGHDL.dom.DOMMixin</text>
</a>
</g>
</g>
<!-- pyGHDL.dom.Subprogram.Function -->
<g id="node2" class="node">
<title>pyGHDL.dom.Subprogram.Function</title>
<g id="a_node2"><a xlink:href="../pyGHDL/pyGHDL.dom.Subprogram.html#pyGHDL.dom.Subprogram.Function" xlink:title="pyGHDL.dom.Subprogram.Function" target="_top">
<polygon fill="none" stroke="black" stroke-width="0.5" points="869,-55 681,-55 681,-36 869,-36 869,-55"/>
<text text-anchor="middle" x="775" y="-43" font-family="Vera Sans, DejaVu Sans, Liberation Sans, Arial, Helvetica, sans" font-size="10.00">pyGHDL.dom.Subprogram.Function</text>
</a>
</g>
</g>
<!-- pyGHDL.dom.DOMMixin&#45;&gt;pyGHDL.dom.Subprogram.Function -->
<g id="edge2" class="edge">
<title>pyGHDL.dom.DOMMixin&#45;&gt;pyGHDL.dom.Subprogram.Function</title>
<path fill="none" stroke="black" stroke-width="0.5" d="M614.23,-58.9C633.56,-57.28 655.08,-55.48 675.9,-53.73"/>
<polygon fill="black" stroke="black" stroke-width="0.5" points="676.06,-55.47 680.89,-53.31 675.76,-51.98 676.06,-55.47"/>
</g>
<!-- pyVHDLModel.SyntaxModel.Function -->
<g id="node3" class="node">
<title>pyVHDLModel.SyntaxModel.Function</title>
<polygon fill="none" stroke="black" stroke-width="0.5" points="645,-37 448,-37 448,-18 645,-18 645,-37"/>
<text text-anchor="middle" x="546.5" y="-25" font-family="Vera Sans, DejaVu Sans, Liberation Sans, Arial, Helvetica, sans" font-size="10.00">pyVHDLModel.SyntaxModel.Function</text>
</g>
<!-- pyVHDLModel.SyntaxModel.Function&#45;&gt;pyGHDL.dom.Subprogram.Function -->
<g id="edge1" class="edge">
<title>pyVHDLModel.SyntaxModel.Function&#45;&gt;pyGHDL.dom.Subprogram.Function</title>
<path fill="none" stroke="black" stroke-width="0.5" d="M645.2,-35.26C655.39,-36.07 665.74,-36.9 675.93,-37.71"/>
<polygon fill="black" stroke="black" stroke-width="0.5" points="675.8,-39.45 680.92,-38.1 676.08,-35.96 675.8,-39.45"/>
</g>
<!-- pyVHDLModel.ModelEntity -->
<g id="node4" class="node">
<title>pyVHDLModel.ModelEntity</title>
<g id="a_node4"><a xlink:title="``ModelEntity`` is the base class for all classes in the VHDL language model,">
<polygon fill="none" stroke="black" stroke-width="0.5" points="149.5,-56 2.5,-56 2.5,-37 149.5,-37 149.5,-56"/>
<text text-anchor="middle" x="76" y="-44" font-family="Vera Sans, DejaVu Sans, Liberation Sans, Arial, Helvetica, sans" font-size="10.00">pyVHDLModel.ModelEntity</text>
</a>
</g>
</g>
<!-- pyVHDLModel.SyntaxModel.SubProgramm -->
<g id="node6" class="node">
<title>pyVHDLModel.SyntaxModel.SubProgramm</title>
<polygon fill="none" stroke="black" stroke-width="0.5" points="412,-37 188,-37 188,-18 412,-18 412,-37"/>
<text text-anchor="middle" x="300" y="-25" font-family="Vera Sans, DejaVu Sans, Liberation Sans, Arial, Helvetica, sans" font-size="10.00">pyVHDLModel.SyntaxModel.SubProgramm</text>
</g>
<!-- pyVHDLModel.ModelEntity&#45;&gt;pyVHDLModel.SyntaxModel.SubProgramm -->
<g id="edge4" class="edge">
<title>pyVHDLModel.ModelEntity&#45;&gt;pyVHDLModel.SyntaxModel.SubProgramm</title>
<path fill="none" stroke="black" stroke-width="0.5" d="M149.69,-40.28C160.33,-39.37 171.5,-38.41 182.74,-37.45"/>
<polygon fill="black" stroke="black" stroke-width="0.5" points="183.08,-39.18 187.91,-37.01 182.78,-35.69 183.08,-39.18"/>
</g>
<!-- pyVHDLModel.NamedEntity -->
<g id="node5" class="node">
<title>pyVHDLModel.NamedEntity</title>
<g id="a_node5"><a xlink:title="A ``NamedEntity`` is a mixin class for all VHDL entities that have identifiers.">
<polygon fill="none" stroke="black" stroke-width="0.5" points="152,-19 0,-19 0,0 152,0 152,-19"/>
<text text-anchor="middle" x="76" y="-7" font-family="Vera Sans, DejaVu Sans, Liberation Sans, Arial, Helvetica, sans" font-size="10.00">pyVHDLModel.NamedEntity</text>
</a>
</g>
</g>
<!-- pyVHDLModel.NamedEntity&#45;&gt;pyVHDLModel.SyntaxModel.SubProgramm -->
<g id="edge5" class="edge">
<title>pyVHDLModel.NamedEntity&#45;&gt;pyVHDLModel.SyntaxModel.SubProgramm</title>
<path fill="none" stroke="black" stroke-width="0.5" d="M152.16,-15.59C162,-16.39 172.25,-17.22 182.57,-18.06"/>
<polygon fill="black" stroke="black" stroke-width="0.5" points="182.52,-19.81 187.64,-18.47 182.8,-16.32 182.52,-19.81"/>
</g>
<!-- pyVHDLModel.SyntaxModel.SubProgramm&#45;&gt;pyVHDLModel.SyntaxModel.Function -->
<g id="edge3" class="edge">
<title>pyVHDLModel.SyntaxModel.SubProgramm&#45;&gt;pyVHDLModel.SyntaxModel.Function</title>
<path fill="none" stroke="black" stroke-width="0.5" d="M412.16,-27.5C422.26,-27.5 432.46,-27.5 442.48,-27.5"/>
<polygon fill="black" stroke="black" stroke-width="0.5" points="442.7,-29.25 447.7,-27.5 442.7,-25.75 442.7,-29.25"/>
</g>
</g>
</svg>
