<?xml version="1.0" encoding="UTF-8" standalone="no"?>
<!DOCTYPE svg PUBLIC "-//W3C//DTD SVG 1.1//EN"
 "http://www.w3.org/Graphics/SVG/1.1/DTD/svg11.dtd">
<!-- Generated by graphviz version 2.43.0 (0)
 -->
<!-- Title: inheritance7b4b7451c5 Pages: 1 -->
<svg width="576pt" height="74pt"
 viewBox="0.00 0.00 576.00 73.68" xmlns="http://www.w3.org/2000/svg" xmlns:xlink="http://www.w3.org/1999/xlink">
<g id="graph0" class="graph" transform="scale(1.11 1.11) rotate(0) translate(4 78)">
<title>inheritance7b4b7451c5</title>
<polygon fill="white" stroke="transparent" points="-4,4 -4,-78 637,-78 637,4 -4,4"/>
<!-- pyGHDL.dom.DOMMixin -->
<g id="node1" class="node">
<title>pyGHDL.dom.DOMMixin</title>
<g id="a_node1"><a xlink:href="../pyGHDL.dom.html#pyGHDL.dom.DOMMixin" xlink:title="pyGHDL.dom.DOMMixin" target="_top">
<polygon fill="none" stroke="black" stroke-width="0.5" points="361.5,-74 226.5,-74 226.5,-55 361.5,-55 361.5,-74"/>
<text text-anchor="middle" x="294" y="-62" font-family="Vera Sans, DejaVu Sans, Liberation Sans, Arial, Helvetica, sans" font-size="10.00">pyGHDL.dom.DOMMixin</text>
</a>
</g>
</g>
<!-- pyGHDL.dom.DesignUnit.Component -->
<g id="node2" class="node">
<title>pyGHDL.dom.DesignUnit.Component</title>
<g id="a_node2"><a xlink:href="../pyGHDL/pyGHDL.dom.DesignUnit.html#pyGHDL.dom.DesignUnit.Component" xlink:title="pyGHDL.dom.DesignUnit.Component" target="_top">
<polygon fill="none" stroke="black" stroke-width="0.5" points="633,-55 436,-55 436,-36 633,-36 633,-55"/>
<text text-anchor="middle" x="534.5" y="-43" font-family="Vera Sans, DejaVu Sans, Liberation Sans, Arial, Helvetica, sans" font-size="10.00">pyGHDL.dom.DesignUnit.Component</text>
</a>
</g>
</g>
<!-- pyGHDL.dom.DOMMixin&#45;&gt;pyGHDL.dom.DesignUnit.Component -->
<g id="edge2" class="edge">
<title>pyGHDL.dom.DOMMixin&#45;&gt;pyGHDL.dom.DesignUnit.Component</title>
<path fill="none" stroke="black" stroke-width="0.5" d="M361.75,-59.18C383.24,-57.47 407.56,-55.53 431.01,-53.66"/>
<polygon fill="black" stroke="black" stroke-width="0.5" points="431.15,-55.41 436,-53.27 430.87,-51.92 431.15,-55.41"/>
</g>
<!-- pyVHDLModel.SyntaxModel.Component -->
<g id="node3" class="node">
<title>pyVHDLModel.SyntaxModel.Component</title>
<polygon fill="none" stroke="black" stroke-width="0.5" points="400,-37 188,-37 188,-18 400,-18 400,-37"/>
<text text-anchor="middle" x="294" y="-25" font-family="Vera Sans, DejaVu Sans, Liberation Sans, Arial, Helvetica, sans" font-size="10.00">pyVHDLModel.SyntaxModel.Component</text>
</g>
<!-- pyVHDLModel.SyntaxModel.Component&#45;&gt;pyGHDL.dom.DesignUnit.Component -->
<g id="edge1" class="edge">
<title>pyVHDLModel.SyntaxModel.Component&#45;&gt;pyGHDL.dom.DesignUnit.Component</title>
<path fill="none" stroke="black" stroke-width="0.5" d="M400.3,-35.45C410.4,-36.21 420.63,-36.98 430.7,-37.74"/>
<polygon fill="black" stroke="black" stroke-width="0.5" points="430.83,-39.51 435.95,-38.14 431.1,-36.02 430.83,-39.51"/>
</g>
<!-- pyVHDLModel.ModelEntity -->
<g id="node4" class="node">
<title>pyVHDLModel.ModelEntity</title>
<g id="a_node4"><a xlink:title="``ModelEntity`` is the base class for all classes in the VHDL language model,">
<polygon fill="none" stroke="black" stroke-width="0.5" points="149.5,-56 2.5,-56 2.5,-37 149.5,-37 149.5,-56"/>
<text text-anchor="middle" x="76" y="-44" font-family="Vera Sans, DejaVu Sans, Liberation Sans, Arial, Helvetica, sans" font-size="10.00">pyVHDLModel.ModelEntity</text>
</a>
</g>
</g>
<!-- pyVHDLModel.ModelEntity&#45;&gt;pyVHDLModel.SyntaxModel.Component -->
<g id="edge3" class="edge">
<title>pyVHDLModel.ModelEntity&#45;&gt;pyVHDLModel.SyntaxModel.Component</title>
<path fill="none" stroke="black" stroke-width="0.5" d="M149.53,-40.12C160.15,-39.19 171.3,-38.21 182.48,-37.22"/>
<polygon fill="black" stroke="black" stroke-width="0.5" points="182.79,-38.95 187.62,-36.77 182.48,-35.46 182.79,-38.95"/>
</g>
<!-- pyVHDLModel.NamedEntity -->
<g id="node5" class="node">
<title>pyVHDLModel.NamedEntity</title>
<g id="a_node5"><a xlink:title="A ``NamedEntity`` is a mixin class for all VHDL entities that have identifiers.">
<polygon fill="none" stroke="black" stroke-width="0.5" points="152,-19 0,-19 0,0 152,0 152,-19"/>
<text text-anchor="middle" x="76" y="-7" font-family="Vera Sans, DejaVu Sans, Liberation Sans, Arial, Helvetica, sans" font-size="10.00">pyVHDLModel.NamedEntity</text>
</a>
</g>
</g>
<!-- pyVHDLModel.NamedEntity&#45;&gt;pyVHDLModel.SyntaxModel.Component -->
<g id="edge4" class="edge">
<title>pyVHDLModel.NamedEntity&#45;&gt;pyVHDLModel.SyntaxModel.Component</title>
<path fill="none" stroke="black" stroke-width="0.5" d="M152.24,-15.77C162.18,-16.6 172.53,-17.46 182.91,-18.33"/>
<polygon fill="black" stroke="black" stroke-width="0.5" points="182.87,-20.08 188,-18.75 183.16,-16.59 182.87,-20.08"/>
</g>
</g>
</svg>
