<?xml version="1.0" encoding="UTF-8" standalone="no"?>
<!DOCTYPE svg PUBLIC "-//W3C//DTD SVG 1.1//EN"
 "http://www.w3.org/Graphics/SVG/1.1/DTD/svg11.dtd">
<!-- Generated by graphviz version 2.43.0 (0)
 -->
<!-- Title: inheritance72c1710d0b Pages: 1 -->
<svg width="576pt" height="39pt"
 viewBox="0.00 0.00 576.00 38.90" xmlns="http://www.w3.org/2000/svg" xmlns:xlink="http://www.w3.org/1999/xlink">
<g id="graph0" class="graph" transform="scale(2.13 2.13) rotate(0) translate(4 79)">
<title>inheritance72c1710d0b</title>
<polygon fill="white" stroke="transparent" points="-4,4 -4,-79 1225,-79 1225,4 -4,4"/>
<!-- pyGHDL.dom.DOMMixin -->
<g id="node1" class="node">
<title>pyGHDL.dom.DOMMixin</title>
<g id="a_node1"><a xlink:href="../pyGHDL.dom.html#pyGHDL.dom.DOMMixin" xlink:title="pyGHDL.dom.DOMMixin" target="_top">
<polygon fill="none" stroke="black" stroke-width="0.5" points="882,-74 747,-74 747,-55 882,-55 882,-74"/>
<text text-anchor="middle" x="814.5" y="-62" font-family="Vera Sans, DejaVu Sans, Liberation Sans, Arial, Helvetica, sans" font-size="10.00">pyGHDL.dom.DOMMixin</text>
</a>
</g>
</g>
<!-- pyGHDL.dom.DesignUnit.PackageInstantiation -->
<g id="node2" class="node">
<title>pyGHDL.dom.DesignUnit.PackageInstantiation</title>
<g id="a_node2"><a xlink:href="../pyGHDL/pyGHDL.dom.DesignUnit.html#pyGHDL.dom.DesignUnit.PackageInstantiation" xlink:title="pyGHDL.dom.DesignUnit.PackageInstantiation" target="_top">
<polygon fill="none" stroke="black" stroke-width="0.5" points="1221,-55 979,-55 979,-36 1221,-36 1221,-55"/>
<text text-anchor="middle" x="1100" y="-43" font-family="Vera Sans, DejaVu Sans, Liberation Sans, Arial, Helvetica, sans" font-size="10.00">pyGHDL.dom.DesignUnit.PackageInstantiation</text>
</a>
</g>
</g>
<!-- pyGHDL.dom.DOMMixin&#45;&gt;pyGHDL.dom.DesignUnit.PackageInstantiation -->
<g id="edge2" class="edge">
<title>pyGHDL.dom.DOMMixin&#45;&gt;pyGHDL.dom.DesignUnit.PackageInstantiation</title>
<path fill="none" stroke="black" stroke-width="0.5" d="M882.33,-60.02C909.67,-58.19 942.24,-56.01 973.72,-53.9"/>
<polygon fill="black" stroke="black" stroke-width="0.5" points="973.89,-55.64 978.76,-53.56 973.65,-52.15 973.89,-55.64"/>
</g>
<!-- pyVHDLModel.SyntaxModel.PackageInstantiation -->
<g id="node3" class="node">
<title>pyVHDLModel.SyntaxModel.PackageInstantiation</title>
<polygon fill="none" stroke="black" stroke-width="0.5" points="943,-37 686,-37 686,-18 943,-18 943,-37"/>
<text text-anchor="middle" x="814.5" y="-25" font-family="Vera Sans, DejaVu Sans, Liberation Sans, Arial, Helvetica, sans" font-size="10.00">pyVHDLModel.SyntaxModel.PackageInstantiation</text>
</g>
<!-- pyVHDLModel.SyntaxModel.PackageInstantiation&#45;&gt;pyGHDL.dom.DesignUnit.PackageInstantiation -->
<g id="edge1" class="edge">
<title>pyVHDLModel.SyntaxModel.PackageInstantiation&#45;&gt;pyGHDL.dom.DesignUnit.PackageInstantiation</title>
<path fill="none" stroke="black" stroke-width="0.5" d="M943.15,-35.6C953.38,-36.25 963.71,-36.91 973.92,-37.56"/>
<polygon fill="black" stroke="black" stroke-width="0.5" points="973.83,-39.31 978.93,-37.88 974.05,-35.81 973.83,-39.31"/>
</g>
<!-- pyVHDLModel.DesignUnit -->
<g id="node4" class="node">
<title>pyVHDLModel.DesignUnit</title>
<g id="a_node4"><a xlink:title="A ``DesignUnit`` is a base&#45;class for all design units.">
<polygon fill="none" stroke="black" stroke-width="0.5" points="331,-56 188,-56 188,-37 331,-37 331,-56"/>
<text text-anchor="middle" x="259.5" y="-44" font-family="Vera Sans, DejaVu Sans, Liberation Sans, Arial, Helvetica, sans" font-size="10.00">pyVHDLModel.DesignUnit</text>
</a>
</g>
</g>
<!-- pyVHDLModel.PrimaryUnit -->
<g id="node7" class="node">
<title>pyVHDLModel.PrimaryUnit</title>
<g id="a_node7"><a xlink:title="A ``PrimaryUnit`` is a base&#45;class for all primary units.">
<polygon fill="none" stroke="black" stroke-width="0.5" points="582,-56 435,-56 435,-37 582,-37 582,-56"/>
<text text-anchor="middle" x="508.5" y="-44" font-family="Vera Sans, DejaVu Sans, Liberation Sans, Arial, Helvetica, sans" font-size="10.00">pyVHDLModel.PrimaryUnit</text>
</a>
</g>
</g>
<!-- pyVHDLModel.DesignUnit&#45;&gt;pyVHDLModel.PrimaryUnit -->
<g id="edge5" class="edge">
<title>pyVHDLModel.DesignUnit&#45;&gt;pyVHDLModel.PrimaryUnit</title>
<path fill="none" stroke="black" stroke-width="0.5" d="M331.28,-46.5C362.13,-46.5 398.39,-46.5 429.97,-46.5"/>
<polygon fill="black" stroke="black" stroke-width="0.5" points="429.99,-48.25 434.99,-46.5 429.99,-44.75 429.99,-48.25"/>
</g>
<!-- pyVHDLModel.ModelEntity -->
<g id="node5" class="node">
<title>pyVHDLModel.ModelEntity</title>
<g id="a_node5"><a xlink:title="``ModelEntity`` is the base class for all classes in the VHDL language model,">
<polygon fill="none" stroke="black" stroke-width="0.5" points="149.5,-75 2.5,-75 2.5,-56 149.5,-56 149.5,-75"/>
<text text-anchor="middle" x="76" y="-63" font-family="Vera Sans, DejaVu Sans, Liberation Sans, Arial, Helvetica, sans" font-size="10.00">pyVHDLModel.ModelEntity</text>
</a>
</g>
</g>
<!-- pyVHDLModel.ModelEntity&#45;&gt;pyVHDLModel.DesignUnit -->
<g id="edge3" class="edge">
<title>pyVHDLModel.ModelEntity&#45;&gt;pyVHDLModel.DesignUnit</title>
<path fill="none" stroke="black" stroke-width="0.5" d="M149.52,-57.91C160.48,-56.76 171.81,-55.58 182.83,-54.42"/>
<polygon fill="black" stroke="black" stroke-width="0.5" points="183.08,-56.15 187.87,-53.89 182.72,-52.67 183.08,-56.15"/>
</g>
<!-- pyVHDLModel.NamedEntity -->
<g id="node6" class="node">
<title>pyVHDLModel.NamedEntity</title>
<g id="a_node6"><a xlink:title="A ``NamedEntity`` is a mixin class for all VHDL entities that have identifiers.">
<polygon fill="none" stroke="black" stroke-width="0.5" points="152,-38 0,-38 0,-19 152,-19 152,-38"/>
<text text-anchor="middle" x="76" y="-26" font-family="Vera Sans, DejaVu Sans, Liberation Sans, Arial, Helvetica, sans" font-size="10.00">pyVHDLModel.NamedEntity</text>
</a>
</g>
</g>
<!-- pyVHDLModel.NamedEntity&#45;&gt;pyVHDLModel.DesignUnit -->
<g id="edge4" class="edge">
<title>pyVHDLModel.NamedEntity&#45;&gt;pyVHDLModel.DesignUnit</title>
<path fill="none" stroke="black" stroke-width="0.5" d="M152.13,-35.95C162.18,-36.95 172.49,-37.97 182.56,-38.97"/>
<polygon fill="black" stroke="black" stroke-width="0.5" points="182.64,-40.74 187.79,-39.49 182.99,-37.25 182.64,-40.74"/>
</g>
<!-- pyVHDLModel.PrimaryUnit&#45;&gt;pyVHDLModel.SyntaxModel.PackageInstantiation -->
<g id="edge6" class="edge">
<title>pyVHDLModel.PrimaryUnit&#45;&gt;pyVHDLModel.SyntaxModel.PackageInstantiation</title>
<path fill="none" stroke="black" stroke-width="0.5" d="M582.32,-41.95C611.74,-40.11 646.67,-37.93 680.34,-35.82"/>
<polygon fill="black" stroke="black" stroke-width="0.5" points="680.85,-37.54 685.73,-35.49 680.63,-34.05 680.85,-37.54"/>
</g>
<!-- pyVHDLModel.SyntaxModel.GenericEntityInstantiation -->
<g id="node8" class="node">
<title>pyVHDLModel.SyntaxModel.GenericEntityInstantiation</title>
<polygon fill="none" stroke="black" stroke-width="0.5" points="650,-19 367,-19 367,0 650,0 650,-19"/>
<text text-anchor="middle" x="508.5" y="-7" font-family="Vera Sans, DejaVu Sans, Liberation Sans, Arial, Helvetica, sans" font-size="10.00">pyVHDLModel.SyntaxModel.GenericEntityInstantiation</text>
</g>
<!-- pyVHDLModel.SyntaxModel.GenericEntityInstantiation&#45;&gt;pyVHDLModel.SyntaxModel.PackageInstantiation -->
<g id="edge7" class="edge">
<title>pyVHDLModel.SyntaxModel.GenericEntityInstantiation&#45;&gt;pyVHDLModel.SyntaxModel.PackageInstantiation</title>
<path fill="none" stroke="black" stroke-width="0.5" d="M650.38,-17.84C660.43,-18.44 670.54,-19.04 680.55,-19.63"/>
<polygon fill="black" stroke="black" stroke-width="0.5" points="680.68,-21.39 685.77,-19.94 680.88,-17.89 680.68,-21.39"/>
</g>
</g>
</svg>
