<?xml version="1.0" encoding="UTF-8" standalone="no"?>
<!DOCTYPE svg PUBLIC "-//W3C//DTD SVG 1.1//EN"
 "http://www.w3.org/Graphics/SVG/1.1/DTD/svg11.dtd">
<!-- Generated by graphviz version 2.43.0 (0)
 -->
<!-- Title: inheritancef98e2900c4 Pages: 1 -->
<svg width="576pt" height="43pt"
 viewBox="0.00 0.00 576.00 42.95" xmlns="http://www.w3.org/2000/svg" xmlns:xlink="http://www.w3.org/1999/xlink">
<g id="graph0" class="graph" transform="scale(2.77 2.77) rotate(0) translate(4 115)">
<title>inheritancef98e2900c4</title>
<polygon fill="white" stroke="transparent" points="-4,4 -4,-115 1592,-115 1592,4 -4,4"/>
<!-- pyGHDL.dom.Concurrent.ForGenerateStatement -->
<g id="node1" class="node">
<title>pyGHDL.dom.Concurrent.ForGenerateStatement</title>
<g id="a_node1"><a xlink:href="../pyGHDL/pyGHDL.dom.Concurrent.html#pyGHDL.dom.Concurrent.ForGenerateStatement" xlink:title="pyGHDL.dom.Concurrent.ForGenerateStatement" target="_top">
<polygon fill="none" stroke="black" stroke-width="0.5" points="1588,-55 1337,-55 1337,-36 1588,-36 1588,-55"/>
<text text-anchor="middle" x="1462.5" y="-43" font-family="Vera Sans, DejaVu Sans, Liberation Sans, Arial, Helvetica, sans" font-size="10.00">pyGHDL.dom.Concurrent.ForGenerateStatement</text>
</a>
</g>
</g>
<!-- pyVHDLModel.SyntaxModel.ForGenerateStatement -->
<g id="node2" class="node">
<title>pyVHDLModel.SyntaxModel.ForGenerateStatement</title>
<polygon fill="none" stroke="black" stroke-width="0.5" points="1301,-74 1035,-74 1035,-55 1301,-55 1301,-74"/>
<text text-anchor="middle" x="1168" y="-62" font-family="Vera Sans, DejaVu Sans, Liberation Sans, Arial, Helvetica, sans" font-size="10.00">pyVHDLModel.SyntaxModel.ForGenerateStatement</text>
</g>
<!-- pyVHDLModel.SyntaxModel.ForGenerateStatement&#45;&gt;pyGHDL.dom.Concurrent.ForGenerateStatement -->
<g id="edge1" class="edge">
<title>pyVHDLModel.SyntaxModel.ForGenerateStatement&#45;&gt;pyGHDL.dom.Concurrent.ForGenerateStatement</title>
<path fill="none" stroke="black" stroke-width="0.5" d="M1301.13,-55.92C1311.19,-55.26 1321.33,-54.6 1331.38,-53.95"/>
<polygon fill="black" stroke="black" stroke-width="0.5" points="1331.74,-55.68 1336.62,-53.61 1331.51,-52.19 1331.74,-55.68"/>
</g>
<!-- pyGHDL.dom.DOMMixin -->
<g id="node3" class="node">
<title>pyGHDL.dom.DOMMixin</title>
<g id="a_node3"><a xlink:href="../pyGHDL.dom.html#pyGHDL.dom.DOMMixin" xlink:title="pyGHDL.dom.DOMMixin" target="_top">
<polygon fill="none" stroke="black" stroke-width="0.5" points="1235.5,-37 1100.5,-37 1100.5,-18 1235.5,-18 1235.5,-37"/>
<text text-anchor="middle" x="1168" y="-25" font-family="Vera Sans, DejaVu Sans, Liberation Sans, Arial, Helvetica, sans" font-size="10.00">pyGHDL.dom.DOMMixin</text>
</a>
</g>
</g>
<!-- pyGHDL.dom.DOMMixin&#45;&gt;pyGHDL.dom.Concurrent.ForGenerateStatement -->
<g id="edge2" class="edge">
<title>pyGHDL.dom.DOMMixin&#45;&gt;pyGHDL.dom.Concurrent.ForGenerateStatement</title>
<path fill="none" stroke="black" stroke-width="0.5" d="M1235.74,-31.61C1264.23,-33.36 1298.5,-35.47 1331.63,-37.51"/>
<polygon fill="black" stroke="black" stroke-width="0.5" points="1331.84,-39.27 1336.94,-37.83 1332.06,-35.78 1331.84,-39.27"/>
</g>
<!-- pyVHDLModel.LabeledEntity -->
<g id="node4" class="node">
<title>pyVHDLModel.LabeledEntity</title>
<g id="a_node4"><a xlink:title="A ``LabeledEntity`` is a mixin class for all VHDL entities that can have">
<polygon fill="none" stroke="black" stroke-width="0.5" points="155,-56 0,-56 0,-37 155,-37 155,-56"/>
<text text-anchor="middle" x="77.5" y="-44" font-family="Vera Sans, DejaVu Sans, Liberation Sans, Arial, Helvetica, sans" font-size="10.00">pyVHDLModel.LabeledEntity</text>
</a>
</g>
</g>
<!-- pyVHDLModel.SyntaxModel.Statement -->
<g id="node8" class="node">
<title>pyVHDLModel.SyntaxModel.Statement</title>
<polygon fill="none" stroke="black" stroke-width="0.5" points="397,-37 191,-37 191,-18 397,-18 397,-37"/>
<text text-anchor="middle" x="294" y="-25" font-family="Vera Sans, DejaVu Sans, Liberation Sans, Arial, Helvetica, sans" font-size="10.00">pyVHDLModel.SyntaxModel.Statement</text>
</g>
<!-- pyVHDLModel.LabeledEntity&#45;&gt;pyVHDLModel.SyntaxModel.Statement -->
<g id="edge9" class="edge">
<title>pyVHDLModel.LabeledEntity&#45;&gt;pyVHDLModel.SyntaxModel.Statement</title>
<path fill="none" stroke="black" stroke-width="0.5" d="M155.03,-39.72C164.96,-38.84 175.27,-37.93 185.58,-37.02"/>
<polygon fill="black" stroke="black" stroke-width="0.5" points="185.81,-38.75 190.64,-36.57 185.5,-35.27 185.81,-38.75"/>
</g>
<!-- pyVHDLModel.ModelEntity -->
<g id="node5" class="node">
<title>pyVHDLModel.ModelEntity</title>
<g id="a_node5"><a xlink:title="``ModelEntity`` is the base class for all classes in the VHDL language model,">
<polygon fill="none" stroke="black" stroke-width="0.5" points="151,-19 4,-19 4,0 151,0 151,-19"/>
<text text-anchor="middle" x="77.5" y="-7" font-family="Vera Sans, DejaVu Sans, Liberation Sans, Arial, Helvetica, sans" font-size="10.00">pyVHDLModel.ModelEntity</text>
</a>
</g>
</g>
<!-- pyVHDLModel.ModelEntity&#45;&gt;pyVHDLModel.SyntaxModel.Statement -->
<g id="edge8" class="edge">
<title>pyVHDLModel.ModelEntity&#45;&gt;pyVHDLModel.SyntaxModel.Statement</title>
<path fill="none" stroke="black" stroke-width="0.5" d="M151.12,-15.59C162.29,-16.53 174.01,-17.52 185.74,-18.5"/>
<polygon fill="black" stroke="black" stroke-width="0.5" points="185.64,-20.25 190.77,-18.92 185.93,-16.76 185.64,-20.25"/>
</g>
<!-- pyVHDLModel.SyntaxModel.ConcurrentDeclarations -->
<g id="node6" class="node">
<title>pyVHDLModel.SyntaxModel.ConcurrentDeclarations</title>
<polygon fill="none" stroke="black" stroke-width="0.5" points="999,-111 729,-111 729,-92 999,-92 999,-111"/>
<text text-anchor="middle" x="864" y="-99" font-family="Vera Sans, DejaVu Sans, Liberation Sans, Arial, Helvetica, sans" font-size="10.00">pyVHDLModel.SyntaxModel.ConcurrentDeclarations</text>
</g>
<!-- pyVHDLModel.SyntaxModel.ConcurrentDeclarations&#45;&gt;pyVHDLModel.SyntaxModel.ForGenerateStatement -->
<g id="edge5" class="edge">
<title>pyVHDLModel.SyntaxModel.ConcurrentDeclarations&#45;&gt;pyVHDLModel.SyntaxModel.ForGenerateStatement</title>
<path fill="none" stroke="black" stroke-width="0.5" d="M942.77,-91.97C986.1,-86.66 1040.05,-80.05 1084.17,-74.65"/>
<polygon fill="black" stroke="black" stroke-width="0.5" points="1084.48,-76.37 1089.23,-74.03 1084.05,-72.9 1084.48,-76.37"/>
</g>
<!-- pyVHDLModel.SyntaxModel.ConcurrentStatement -->
<g id="node7" class="node">
<title>pyVHDLModel.SyntaxModel.ConcurrentStatement</title>
<g id="a_node7"><a xlink:title="A ``ConcurrentStatement`` is a base&#45;class for all concurrent statements.">
<polygon fill="none" stroke="black" stroke-width="0.5" points="693,-37 433,-37 433,-18 693,-18 693,-37"/>
<text text-anchor="middle" x="563" y="-25" font-family="Vera Sans, DejaVu Sans, Liberation Sans, Arial, Helvetica, sans" font-size="10.00">pyVHDLModel.SyntaxModel.ConcurrentStatement</text>
</a>
</g>
</g>
<!-- pyVHDLModel.SyntaxModel.GenerateStatement -->
<g id="node10" class="node">
<title>pyVHDLModel.SyntaxModel.GenerateStatement</title>
<g id="a_node10"><a xlink:title="A ``GenerateStatement`` is a base&#45;class for all generate statements.">
<polygon fill="none" stroke="black" stroke-width="0.5" points="989.5,-37 738.5,-37 738.5,-18 989.5,-18 989.5,-37"/>
<text text-anchor="middle" x="864" y="-25" font-family="Vera Sans, DejaVu Sans, Liberation Sans, Arial, Helvetica, sans" font-size="10.00">pyVHDLModel.SyntaxModel.GenerateStatement</text>
</a>
</g>
</g>
<!-- pyVHDLModel.SyntaxModel.ConcurrentStatement&#45;&gt;pyVHDLModel.SyntaxModel.GenerateStatement -->
<g id="edge7" class="edge">
<title>pyVHDLModel.SyntaxModel.ConcurrentStatement&#45;&gt;pyVHDLModel.SyntaxModel.GenerateStatement</title>
<path fill="none" stroke="black" stroke-width="0.5" d="M693.41,-27.5C706.5,-27.5 719.81,-27.5 732.92,-27.5"/>
<polygon fill="black" stroke="black" stroke-width="0.5" points="733.12,-29.25 738.12,-27.5 733.12,-25.75 733.12,-29.25"/>
</g>
<!-- pyVHDLModel.SyntaxModel.Statement&#45;&gt;pyVHDLModel.SyntaxModel.ConcurrentStatement -->
<g id="edge3" class="edge">
<title>pyVHDLModel.SyntaxModel.Statement&#45;&gt;pyVHDLModel.SyntaxModel.ConcurrentStatement</title>
<path fill="none" stroke="black" stroke-width="0.5" d="M397.08,-27.5C407.08,-27.5 417.32,-27.5 427.57,-27.5"/>
<polygon fill="black" stroke="black" stroke-width="0.5" points="427.61,-29.25 432.61,-27.5 427.61,-25.75 427.61,-29.25"/>
</g>
<!-- pyVHDLModel.SyntaxModel.ConcurrentStatements -->
<g id="node9" class="node">
<title>pyVHDLModel.SyntaxModel.ConcurrentStatements</title>
<polygon fill="none" stroke="black" stroke-width="0.5" points="996.5,-74 731.5,-74 731.5,-55 996.5,-55 996.5,-74"/>
<text text-anchor="middle" x="864" y="-62" font-family="Vera Sans, DejaVu Sans, Liberation Sans, Arial, Helvetica, sans" font-size="10.00">pyVHDLModel.SyntaxModel.ConcurrentStatements</text>
</g>
<!-- pyVHDLModel.SyntaxModel.ConcurrentStatements&#45;&gt;pyVHDLModel.SyntaxModel.ForGenerateStatement -->
<g id="edge6" class="edge">
<title>pyVHDLModel.SyntaxModel.ConcurrentStatements&#45;&gt;pyVHDLModel.SyntaxModel.ForGenerateStatement</title>
<path fill="none" stroke="black" stroke-width="0.5" d="M996.58,-64.5C1007.61,-64.5 1018.78,-64.5 1029.85,-64.5"/>
<polygon fill="black" stroke="black" stroke-width="0.5" points="1029.92,-66.25 1034.92,-64.5 1029.92,-62.75 1029.92,-66.25"/>
</g>
<!-- pyVHDLModel.SyntaxModel.GenerateStatement&#45;&gt;pyVHDLModel.SyntaxModel.ForGenerateStatement -->
<g id="edge4" class="edge">
<title>pyVHDLModel.SyntaxModel.GenerateStatement&#45;&gt;pyVHDLModel.SyntaxModel.ForGenerateStatement</title>
<path fill="none" stroke="black" stroke-width="0.5" d="M942.77,-37.03C986.1,-42.34 1040.05,-48.95 1084.17,-54.35"/>
<polygon fill="black" stroke="black" stroke-width="0.5" points="1084.05,-56.1 1089.23,-54.97 1084.48,-52.63 1084.05,-56.1"/>
</g>
</g>
</svg>
