<?xml version="1.0" encoding="UTF-8" standalone="no"?>
<!DOCTYPE svg PUBLIC "-//W3C//DTD SVG 1.1//EN"
 "http://www.w3.org/Graphics/SVG/1.1/DTD/svg11.dtd">
<!-- Generated by graphviz version 2.43.0 (0)
 -->
<!-- Title: inheritancef9aede6862 Pages: 1 -->
<svg width="576pt" height="35pt"
 viewBox="0.00 0.00 576.00 34.91" xmlns="http://www.w3.org/2000/svg" xmlns:xlink="http://www.w3.org/1999/xlink">
<g id="graph0" class="graph" transform="scale(1.83 1.83) rotate(0) translate(4 60)">
<title>inheritancef9aede6862</title>
<polygon fill="white" stroke="transparent" points="-4,4 -4,-60 1052,-60 1052,4 -4,4"/>
<!-- pyGHDL.dom.Aggregates.SimpleAggregateElement -->
<g id="node1" class="node">
<title>pyGHDL.dom.Aggregates.SimpleAggregateElement</title>
<g id="a_node1"><a xlink:href="../pyGHDL/pyGHDL.dom.Aggregates.html#pyGHDL.dom.Aggregates.SimpleAggregateElement" xlink:title="pyGHDL.dom.Aggregates.SimpleAggregateElement" target="_top">
<polygon fill="none" stroke="black" stroke-width="0.5" points="1048,-37 781,-37 781,-18 1048,-18 1048,-37"/>
<text text-anchor="middle" x="914.5" y="-25" font-family="Vera Sans, DejaVu Sans, Liberation Sans, Arial, Helvetica, sans" font-size="10.00">pyGHDL.dom.Aggregates.SimpleAggregateElement</text>
</a>
</g>
</g>
<!-- pyVHDLModel.SyntaxModel.SimpleAggregateElement -->
<g id="node2" class="node">
<title>pyVHDLModel.SyntaxModel.SimpleAggregateElement</title>
<polygon fill="none" stroke="black" stroke-width="0.5" points="745,-56 465,-56 465,-37 745,-37 745,-56"/>
<text text-anchor="middle" x="605" y="-44" font-family="Vera Sans, DejaVu Sans, Liberation Sans, Arial, Helvetica, sans" font-size="10.00">pyVHDLModel.SyntaxModel.SimpleAggregateElement</text>
</g>
<!-- pyVHDLModel.SyntaxModel.SimpleAggregateElement&#45;&gt;pyGHDL.dom.Aggregates.SimpleAggregateElement -->
<g id="edge1" class="edge">
<title>pyVHDLModel.SyntaxModel.SimpleAggregateElement&#45;&gt;pyGHDL.dom.Aggregates.SimpleAggregateElement</title>
<path fill="none" stroke="black" stroke-width="0.5" d="M745.35,-37.89C755.37,-37.27 765.46,-36.65 775.47,-36.03"/>
<polygon fill="black" stroke="black" stroke-width="0.5" points="775.81,-37.76 780.69,-35.71 775.6,-34.27 775.81,-37.76"/>
</g>
<!-- pyGHDL.dom.DOMMixin -->
<g id="node3" class="node">
<title>pyGHDL.dom.DOMMixin</title>
<g id="a_node3"><a xlink:href="../pyGHDL.dom.html#pyGHDL.dom.DOMMixin" xlink:title="pyGHDL.dom.DOMMixin" target="_top">
<polygon fill="none" stroke="black" stroke-width="0.5" points="672.5,-19 537.5,-19 537.5,0 672.5,0 672.5,-19"/>
<text text-anchor="middle" x="605" y="-7" font-family="Vera Sans, DejaVu Sans, Liberation Sans, Arial, Helvetica, sans" font-size="10.00">pyGHDL.dom.DOMMixin</text>
</a>
</g>
</g>
<!-- pyGHDL.dom.DOMMixin&#45;&gt;pyGHDL.dom.Aggregates.SimpleAggregateElement -->
<g id="edge2" class="edge">
<title>pyGHDL.dom.DOMMixin&#45;&gt;pyGHDL.dom.Aggregates.SimpleAggregateElement</title>
<path fill="none" stroke="black" stroke-width="0.5" d="M672.72,-13.41C702.94,-15.17 739.85,-17.34 775.6,-19.43"/>
<polygon fill="black" stroke="black" stroke-width="0.5" points="775.78,-21.19 780.87,-19.74 775.98,-17.7 775.78,-21.19"/>
</g>
<!-- pyVHDLModel.ModelEntity -->
<g id="node4" class="node">
<title>pyVHDLModel.ModelEntity</title>
<g id="a_node4"><a xlink:title="``ModelEntity`` is the base class for all classes in the VHDL language model,">
<polygon fill="none" stroke="black" stroke-width="0.5" points="147,-56 0,-56 0,-37 147,-37 147,-56"/>
<text text-anchor="middle" x="73.5" y="-44" font-family="Vera Sans, DejaVu Sans, Liberation Sans, Arial, Helvetica, sans" font-size="10.00">pyVHDLModel.ModelEntity</text>
</a>
</g>
</g>
<!-- pyVHDLModel.SyntaxModel.AggregateElement -->
<g id="node5" class="node">
<title>pyVHDLModel.SyntaxModel.AggregateElement</title>
<g id="a_node5"><a xlink:title="A ``AggregateElement`` is a base&#45;class for all aggregate elements.">
<polygon fill="none" stroke="black" stroke-width="0.5" points="429,-56 183,-56 183,-37 429,-37 429,-56"/>
<text text-anchor="middle" x="306" y="-44" font-family="Vera Sans, DejaVu Sans, Liberation Sans, Arial, Helvetica, sans" font-size="10.00">pyVHDLModel.SyntaxModel.AggregateElement</text>
</a>
</g>
</g>
<!-- pyVHDLModel.ModelEntity&#45;&gt;pyVHDLModel.SyntaxModel.AggregateElement -->
<g id="edge3" class="edge">
<title>pyVHDLModel.ModelEntity&#45;&gt;pyVHDLModel.SyntaxModel.AggregateElement</title>
<path fill="none" stroke="black" stroke-width="0.5" d="M147.12,-46.5C156.98,-46.5 167.33,-46.5 177.82,-46.5"/>
<polygon fill="black" stroke="black" stroke-width="0.5" points="177.97,-48.25 182.97,-46.5 177.97,-44.75 177.97,-48.25"/>
</g>
<!-- pyVHDLModel.SyntaxModel.AggregateElement&#45;&gt;pyVHDLModel.SyntaxModel.SimpleAggregateElement -->
<g id="edge4" class="edge">
<title>pyVHDLModel.SyntaxModel.AggregateElement&#45;&gt;pyVHDLModel.SyntaxModel.SimpleAggregateElement</title>
<path fill="none" stroke="black" stroke-width="0.5" d="M429.09,-46.5C439.26,-46.5 449.61,-46.5 459.92,-46.5"/>
<polygon fill="black" stroke="black" stroke-width="0.5" points="459.99,-48.25 464.99,-46.5 459.99,-44.75 459.99,-48.25"/>
</g>
</g>
</svg>
