<?xml version="1.0" encoding="UTF-8" standalone="no"?>
<!DOCTYPE svg PUBLIC "-//W3C//DTD SVG 1.1//EN"
 "http://www.w3.org/Graphics/SVG/1.1/DTD/svg11.dtd">
<!-- Generated by graphviz version 2.43.0 (0)
 -->
<!-- Title: inheritanceb71cd506a0 Pages: 1 -->
<svg width="576pt" height="19pt"
 viewBox="0.00 0.00 576.00 18.64" xmlns="http://www.w3.org/2000/svg" xmlns:xlink="http://www.w3.org/1999/xlink">
<g id="graph0" class="graph" transform="scale(3.43 3.43) rotate(0) translate(4 60)">
<title>inheritanceb71cd506a0</title>
<polygon fill="white" stroke="transparent" points="-4,4 -4,-60 1974,-60 1974,4 -4,4"/>
<!-- pyGHDL.dom.DOMMixin -->
<g id="node1" class="node">
<title>pyGHDL.dom.DOMMixin</title>
<g id="a_node1"><a xlink:href="../pyGHDL.dom.html#pyGHDL.dom.DOMMixin" xlink:title="pyGHDL.dom.DOMMixin" target="_top">
<polygon fill="none" stroke="black" stroke-width="0.5" points="1575.5,-56 1440.5,-56 1440.5,-37 1575.5,-37 1575.5,-56"/>
<text text-anchor="middle" x="1508" y="-44" font-family="Vera Sans, DejaVu Sans, Liberation Sans, Arial, Helvetica, sans" font-size="10.00">pyGHDL.dom.DOMMixin</text>
</a>
</g>
</g>
<!-- pyGHDL.dom.Expression.MatchingUnequalExpression -->
<g id="node2" class="node">
<title>pyGHDL.dom.Expression.MatchingUnequalExpression</title>
<g id="a_node2"><a xlink:href="../pyGHDL/pyGHDL.dom.Expression.html#pyGHDL.dom.Expression.MatchingUnequalExpression" xlink:title="pyGHDL.dom.Expression.MatchingUnequalExpression" target="_top">
<polygon fill="none" stroke="black" stroke-width="0.5" points="1970,-37 1691,-37 1691,-18 1970,-18 1970,-37"/>
<text text-anchor="middle" x="1830.5" y="-25" font-family="Vera Sans, DejaVu Sans, Liberation Sans, Arial, Helvetica, sans" font-size="10.00">pyGHDL.dom.Expression.MatchingUnequalExpression</text>
</a>
</g>
</g>
<!-- pyGHDL.dom.DOMMixin&#45;&gt;pyGHDL.dom.Expression.MatchingUnequalExpression -->
<g id="edge2" class="edge">
<title>pyGHDL.dom.DOMMixin&#45;&gt;pyGHDL.dom.Expression.MatchingUnequalExpression</title>
<path fill="none" stroke="black" stroke-width="0.5" d="M1575.8,-42.54C1607.75,-40.65 1647.33,-38.3 1685.64,-36.03"/>
<polygon fill="black" stroke="black" stroke-width="0.5" points="1685.9,-37.77 1690.79,-35.72 1685.7,-34.27 1685.9,-37.77"/>
</g>
<!-- pyVHDLModel.SyntaxModel.MatchingUnequalExpression -->
<g id="node3" class="node">
<title>pyVHDLModel.SyntaxModel.MatchingUnequalExpression</title>
<polygon fill="none" stroke="black" stroke-width="0.5" points="1655,-19 1361,-19 1361,0 1655,0 1655,-19"/>
<text text-anchor="middle" x="1508" y="-7" font-family="Vera Sans, DejaVu Sans, Liberation Sans, Arial, Helvetica, sans" font-size="10.00">pyVHDLModel.SyntaxModel.MatchingUnequalExpression</text>
</g>
<!-- pyVHDLModel.SyntaxModel.MatchingUnequalExpression&#45;&gt;pyGHDL.dom.Expression.MatchingUnequalExpression -->
<g id="edge1" class="edge">
<title>pyVHDLModel.SyntaxModel.MatchingUnequalExpression&#45;&gt;pyGHDL.dom.Expression.MatchingUnequalExpression</title>
<path fill="none" stroke="black" stroke-width="0.5" d="M1655.18,-17.71C1665.4,-18.28 1675.69,-18.86 1685.89,-19.43"/>
<polygon fill="black" stroke="black" stroke-width="0.5" points="1685.8,-21.18 1690.89,-19.72 1686,-17.69 1685.8,-21.18"/>
</g>
<!-- pyVHDLModel.ModelEntity -->
<g id="node4" class="node">
<title>pyVHDLModel.ModelEntity</title>
<g id="a_node4"><a xlink:title="``ModelEntity`` is the base class for all classes in the VHDL language model,">
<polygon fill="none" stroke="black" stroke-width="0.5" points="147,-19 0,-19 0,0 147,0 147,-19"/>
<text text-anchor="middle" x="73.5" y="-7" font-family="Vera Sans, DejaVu Sans, Liberation Sans, Arial, Helvetica, sans" font-size="10.00">pyVHDLModel.ModelEntity</text>
</a>
</g>
</g>
<!-- pyVHDLModel.SyntaxModel.BaseExpression -->
<g id="node5" class="node">
<title>pyVHDLModel.SyntaxModel.BaseExpression</title>
<g id="a_node5"><a xlink:title="A ``BaseExpression`` is a base&#45;class for all expressions.">
<polygon fill="none" stroke="black" stroke-width="0.5" points="416,-19 183,-19 183,0 416,0 416,-19"/>
<text text-anchor="middle" x="299.5" y="-7" font-family="Vera Sans, DejaVu Sans, Liberation Sans, Arial, Helvetica, sans" font-size="10.00">pyVHDLModel.SyntaxModel.BaseExpression</text>
</a>
</g>
</g>
<!-- pyVHDLModel.ModelEntity&#45;&gt;pyVHDLModel.SyntaxModel.BaseExpression -->
<g id="edge3" class="edge">
<title>pyVHDLModel.ModelEntity&#45;&gt;pyVHDLModel.SyntaxModel.BaseExpression</title>
<path fill="none" stroke="black" stroke-width="0.5" d="M147.23,-9.5C157,-9.5 167.22,-9.5 177.55,-9.5"/>
<polygon fill="black" stroke="black" stroke-width="0.5" points="177.63,-11.25 182.63,-9.5 177.63,-7.75 177.63,-11.25"/>
</g>
<!-- pyVHDLModel.SyntaxModel.BinaryExpression -->
<g id="node6" class="node">
<title>pyVHDLModel.SyntaxModel.BinaryExpression</title>
<g id="a_node6"><a xlink:title="A ``BinaryExpression`` is a base&#45;class for all binary expressions.">
<polygon fill="none" stroke="black" stroke-width="0.5" points="692,-19 452,-19 452,0 692,0 692,-19"/>
<text text-anchor="middle" x="572" y="-7" font-family="Vera Sans, DejaVu Sans, Liberation Sans, Arial, Helvetica, sans" font-size="10.00">pyVHDLModel.SyntaxModel.BinaryExpression</text>
</a>
</g>
</g>
<!-- pyVHDLModel.SyntaxModel.BaseExpression&#45;&gt;pyVHDLModel.SyntaxModel.BinaryExpression -->
<g id="edge4" class="edge">
<title>pyVHDLModel.SyntaxModel.BaseExpression&#45;&gt;pyVHDLModel.SyntaxModel.BinaryExpression</title>
<path fill="none" stroke="black" stroke-width="0.5" d="M416,-9.5C426.03,-9.5 436.2,-9.5 446.3,-9.5"/>
<polygon fill="black" stroke="black" stroke-width="0.5" points="446.57,-11.25 451.57,-9.5 446.57,-7.75 446.57,-11.25"/>
</g>
<!-- pyVHDLModel.SyntaxModel.RelationalExpression -->
<g id="node8" class="node">
<title>pyVHDLModel.SyntaxModel.RelationalExpression</title>
<g id="a_node8"><a xlink:title="A ``RelationalExpression`` is a base&#45;class for all shifting expressions.">
<polygon fill="none" stroke="black" stroke-width="0.5" points="986,-19 728,-19 728,0 986,0 986,-19"/>
<text text-anchor="middle" x="857" y="-7" font-family="Vera Sans, DejaVu Sans, Liberation Sans, Arial, Helvetica, sans" font-size="10.00">pyVHDLModel.SyntaxModel.RelationalExpression</text>
</a>
</g>
</g>
<!-- pyVHDLModel.SyntaxModel.BinaryExpression&#45;&gt;pyVHDLModel.SyntaxModel.RelationalExpression -->
<g id="edge7" class="edge">
<title>pyVHDLModel.SyntaxModel.BinaryExpression&#45;&gt;pyVHDLModel.SyntaxModel.RelationalExpression</title>
<path fill="none" stroke="black" stroke-width="0.5" d="M692.2,-9.5C702.32,-9.5 712.6,-9.5 722.83,-9.5"/>
<polygon fill="black" stroke="black" stroke-width="0.5" points="722.84,-11.25 727.84,-9.5 722.84,-7.75 722.84,-11.25"/>
</g>
<!-- pyVHDLModel.SyntaxModel.MatchingRelationalExpression -->
<g id="node7" class="node">
<title>pyVHDLModel.SyntaxModel.MatchingRelationalExpression</title>
<polygon fill="none" stroke="black" stroke-width="0.5" points="1325,-19 1022,-19 1022,0 1325,0 1325,-19"/>
<text text-anchor="middle" x="1173.5" y="-7" font-family="Vera Sans, DejaVu Sans, Liberation Sans, Arial, Helvetica, sans" font-size="10.00">pyVHDLModel.SyntaxModel.MatchingRelationalExpression</text>
</g>
<!-- pyVHDLModel.SyntaxModel.MatchingRelationalExpression&#45;&gt;pyVHDLModel.SyntaxModel.MatchingUnequalExpression -->
<g id="edge6" class="edge">
<title>pyVHDLModel.SyntaxModel.MatchingRelationalExpression&#45;&gt;pyVHDLModel.SyntaxModel.MatchingUnequalExpression</title>
<path fill="none" stroke="black" stroke-width="0.5" d="M1325.18,-9.5C1335.28,-9.5 1345.45,-9.5 1355.55,-9.5"/>
<polygon fill="black" stroke="black" stroke-width="0.5" points="1355.83,-11.25 1360.83,-9.5 1355.83,-7.75 1355.83,-11.25"/>
</g>
<!-- pyVHDLModel.SyntaxModel.RelationalExpression&#45;&gt;pyVHDLModel.SyntaxModel.MatchingRelationalExpression -->
<g id="edge5" class="edge">
<title>pyVHDLModel.SyntaxModel.RelationalExpression&#45;&gt;pyVHDLModel.SyntaxModel.MatchingRelationalExpression</title>
<path fill="none" stroke="black" stroke-width="0.5" d="M986.37,-9.5C996.44,-9.5 1006.68,-9.5 1016.91,-9.5"/>
<polygon fill="black" stroke="black" stroke-width="0.5" points="1016.92,-11.25 1021.92,-9.5 1016.92,-7.75 1016.92,-11.25"/>
</g>
</g>
</svg>
