<?xml version="1.0" encoding="UTF-8" standalone="no"?>
<!DOCTYPE svg PUBLIC "-//W3C//DTD SVG 1.1//EN"
 "http://www.w3.org/Graphics/SVG/1.1/DTD/svg11.dtd">
<!-- Generated by graphviz version 2.43.0 (0)
 -->
<!-- Title: inheritanced5c8eaa54f Pages: 1 -->
<svg width="576pt" height="35pt"
 viewBox="0.00 0.00 576.00 35.11" xmlns="http://www.w3.org/2000/svg" xmlns:xlink="http://www.w3.org/1999/xlink">
<g id="graph0" class="graph" transform="scale(1.82 1.82) rotate(0) translate(4 60)">
<title>inheritanced5c8eaa54f</title>
<polygon fill="white" stroke="transparent" points="-4,4 -4,-60 1046,-60 1046,4 -4,4"/>
<!-- pyGHDL.dom.Concurrent.ParameterAssociationItem -->
<g id="node1" class="node">
<title>pyGHDL.dom.Concurrent.ParameterAssociationItem</title>
<g id="a_node1"><a xlink:href="../pyGHDL/pyGHDL.dom.Concurrent.html#pyGHDL.dom.Concurrent.ParameterAssociationItem" xlink:title="pyGHDL.dom.Concurrent.ParameterAssociationItem" target="_top">
<polygon fill="none" stroke="black" stroke-width="0.5" points="1042,-37 773,-37 773,-18 1042,-18 1042,-37"/>
<text text-anchor="middle" x="907.5" y="-25" font-family="Vera Sans, DejaVu Sans, Liberation Sans, Arial, Helvetica, sans" font-size="10.00">pyGHDL.dom.Concurrent.ParameterAssociationItem</text>
</a>
</g>
</g>
<!-- pyVHDLModel.SyntaxModel.ParameterAssociationItem -->
<g id="node2" class="node">
<title>pyVHDLModel.SyntaxModel.ParameterAssociationItem</title>
<polygon fill="none" stroke="black" stroke-width="0.5" points="737,-56 453,-56 453,-37 737,-37 737,-56"/>
<text text-anchor="middle" x="595" y="-44" font-family="Vera Sans, DejaVu Sans, Liberation Sans, Arial, Helvetica, sans" font-size="10.00">pyVHDLModel.SyntaxModel.ParameterAssociationItem</text>
</g>
<!-- pyVHDLModel.SyntaxModel.ParameterAssociationItem&#45;&gt;pyGHDL.dom.Concurrent.ParameterAssociationItem -->
<g id="edge1" class="edge">
<title>pyVHDLModel.SyntaxModel.ParameterAssociationItem&#45;&gt;pyGHDL.dom.Concurrent.ParameterAssociationItem</title>
<path fill="none" stroke="black" stroke-width="0.5" d="M737.17,-37.86C747.26,-37.24 757.44,-36.62 767.52,-36"/>
<polygon fill="black" stroke="black" stroke-width="0.5" points="767.9,-37.73 772.78,-35.68 767.69,-34.24 767.9,-37.73"/>
</g>
<!-- pyGHDL.dom.DOMMixin -->
<g id="node3" class="node">
<title>pyGHDL.dom.DOMMixin</title>
<g id="a_node3"><a xlink:href="../pyGHDL.dom.html#pyGHDL.dom.DOMMixin" xlink:title="pyGHDL.dom.DOMMixin" target="_top">
<polygon fill="none" stroke="black" stroke-width="0.5" points="662.5,-19 527.5,-19 527.5,0 662.5,0 662.5,-19"/>
<text text-anchor="middle" x="595" y="-7" font-family="Vera Sans, DejaVu Sans, Liberation Sans, Arial, Helvetica, sans" font-size="10.00">pyGHDL.dom.DOMMixin</text>
</a>
</g>
</g>
<!-- pyGHDL.dom.DOMMixin&#45;&gt;pyGHDL.dom.Concurrent.ParameterAssociationItem -->
<g id="edge2" class="edge">
<title>pyGHDL.dom.DOMMixin&#45;&gt;pyGHDL.dom.Concurrent.ParameterAssociationItem</title>
<path fill="none" stroke="black" stroke-width="0.5" d="M662.61,-13.36C693.35,-15.14 731.07,-17.33 767.56,-19.45"/>
<polygon fill="black" stroke="black" stroke-width="0.5" points="767.85,-21.21 772.94,-19.76 768.05,-17.72 767.85,-21.21"/>
</g>
<!-- pyVHDLModel.ModelEntity -->
<g id="node4" class="node">
<title>pyVHDLModel.ModelEntity</title>
<g id="a_node4"><a xlink:title="``ModelEntity`` is the base class for all classes in the VHDL language model,">
<polygon fill="none" stroke="black" stroke-width="0.5" points="147,-56 0,-56 0,-37 147,-37 147,-56"/>
<text text-anchor="middle" x="73.5" y="-44" font-family="Vera Sans, DejaVu Sans, Liberation Sans, Arial, Helvetica, sans" font-size="10.00">pyVHDLModel.ModelEntity</text>
</a>
</g>
</g>
<!-- pyVHDLModel.SyntaxModel.AssociationItem -->
<g id="node5" class="node">
<title>pyVHDLModel.SyntaxModel.AssociationItem</title>
<polygon fill="none" stroke="black" stroke-width="0.5" points="417,-56 183,-56 183,-37 417,-37 417,-56"/>
<text text-anchor="middle" x="300" y="-44" font-family="Vera Sans, DejaVu Sans, Liberation Sans, Arial, Helvetica, sans" font-size="10.00">pyVHDLModel.SyntaxModel.AssociationItem</text>
</g>
<!-- pyVHDLModel.ModelEntity&#45;&gt;pyVHDLModel.SyntaxModel.AssociationItem -->
<g id="edge3" class="edge">
<title>pyVHDLModel.ModelEntity&#45;&gt;pyVHDLModel.SyntaxModel.AssociationItem</title>
<path fill="none" stroke="black" stroke-width="0.5" d="M147.08,-46.5C156.88,-46.5 167.14,-46.5 177.5,-46.5"/>
<polygon fill="black" stroke="black" stroke-width="0.5" points="177.6,-48.25 182.6,-46.5 177.6,-44.75 177.6,-48.25"/>
</g>
<!-- pyVHDLModel.SyntaxModel.AssociationItem&#45;&gt;pyVHDLModel.SyntaxModel.ParameterAssociationItem -->
<g id="edge4" class="edge">
<title>pyVHDLModel.SyntaxModel.AssociationItem&#45;&gt;pyVHDLModel.SyntaxModel.ParameterAssociationItem</title>
<path fill="none" stroke="black" stroke-width="0.5" d="M417.22,-46.5C427.25,-46.5 437.47,-46.5 447.69,-46.5"/>
<polygon fill="black" stroke="black" stroke-width="0.5" points="447.7,-48.25 452.7,-46.5 447.7,-44.75 447.7,-48.25"/>
</g>
</g>
</svg>
