<?xml version="1.0" encoding="UTF-8" standalone="no"?>
<!DOCTYPE svg PUBLIC "-//W3C//DTD SVG 1.1//EN"
 "http://www.w3.org/Graphics/SVG/1.1/DTD/svg11.dtd">
<!-- Generated by graphviz version 2.43.0 (0)
 -->
<!-- Title: inheritancecb62370f5b Pages: 1 -->
<svg width="576pt" height="26pt"
 viewBox="0.00 0.00 576.00 25.51" xmlns="http://www.w3.org/2000/svg" xmlns:xlink="http://www.w3.org/1999/xlink">
<g id="graph0" class="graph" transform="scale(2.51 2.51) rotate(0) translate(4 60)">
<title>inheritancecb62370f5b</title>
<polygon fill="white" stroke="transparent" points="-4,4 -4,-60 1441,-60 1441,4 -4,4"/>
<!-- pyGHDL.dom.DOMMixin -->
<g id="node1" class="node">
<title>pyGHDL.dom.DOMMixin</title>
<g id="a_node1"><a xlink:href="../pyGHDL.dom.html#pyGHDL.dom.DOMMixin" xlink:title="pyGHDL.dom.DOMMixin" target="_top">
<polygon fill="none" stroke="black" stroke-width="0.5" points="1130,-56 995,-56 995,-37 1130,-37 1130,-56"/>
<text text-anchor="middle" x="1062.5" y="-44" font-family="Vera Sans, DejaVu Sans, Liberation Sans, Arial, Helvetica, sans" font-size="10.00">pyGHDL.dom.DOMMixin</text>
</a>
</g>
</g>
<!-- pyGHDL.dom.Literal.FloatingPointLiteral -->
<g id="node2" class="node">
<title>pyGHDL.dom.Literal.FloatingPointLiteral</title>
<g id="a_node2"><a xlink:href="../pyGHDL/pyGHDL.dom.Literal.html#pyGHDL.dom.Literal.FloatingPointLiteral" xlink:title="pyGHDL.dom.Literal.FloatingPointLiteral" target="_top">
<polygon fill="none" stroke="black" stroke-width="0.5" points="1437,-37 1224,-37 1224,-18 1437,-18 1437,-37"/>
<text text-anchor="middle" x="1330.5" y="-25" font-family="Vera Sans, DejaVu Sans, Liberation Sans, Arial, Helvetica, sans" font-size="10.00">pyGHDL.dom.Literal.FloatingPointLiteral</text>
</a>
</g>
</g>
<!-- pyGHDL.dom.DOMMixin&#45;&gt;pyGHDL.dom.Literal.FloatingPointLiteral -->
<g id="edge2" class="edge">
<title>pyGHDL.dom.DOMMixin&#45;&gt;pyGHDL.dom.Literal.FloatingPointLiteral</title>
<path fill="none" stroke="black" stroke-width="0.5" d="M1130.28,-41.73C1157.05,-39.82 1188.62,-37.56 1218.64,-35.42"/>
<polygon fill="black" stroke="black" stroke-width="0.5" points="1218.98,-37.15 1223.84,-35.05 1218.73,-33.66 1218.98,-37.15"/>
</g>
<!-- pyVHDLModel.SyntaxModel.FloatingPointLiteral -->
<g id="node3" class="node">
<title>pyVHDLModel.SyntaxModel.FloatingPointLiteral</title>
<polygon fill="none" stroke="black" stroke-width="0.5" points="1188,-19 937,-19 937,0 1188,0 1188,-19"/>
<text text-anchor="middle" x="1062.5" y="-7" font-family="Vera Sans, DejaVu Sans, Liberation Sans, Arial, Helvetica, sans" font-size="10.00">pyVHDLModel.SyntaxModel.FloatingPointLiteral</text>
</g>
<!-- pyVHDLModel.SyntaxModel.FloatingPointLiteral&#45;&gt;pyGHDL.dom.Literal.FloatingPointLiteral -->
<g id="edge1" class="edge">
<title>pyVHDLModel.SyntaxModel.FloatingPointLiteral&#45;&gt;pyGHDL.dom.Literal.FloatingPointLiteral</title>
<path fill="none" stroke="black" stroke-width="0.5" d="M1188.32,-17.95C1198.44,-18.63 1208.62,-19.32 1218.62,-20"/>
<polygon fill="black" stroke="black" stroke-width="0.5" points="1218.73,-21.76 1223.84,-20.35 1218.97,-18.27 1218.73,-21.76"/>
</g>
<!-- pyVHDLModel.ModelEntity -->
<g id="node4" class="node">
<title>pyVHDLModel.ModelEntity</title>
<g id="a_node4"><a xlink:title="``ModelEntity`` is the base class for all classes in the VHDL language model,">
<polygon fill="none" stroke="black" stroke-width="0.5" points="147,-19 0,-19 0,0 147,0 147,-19"/>
<text text-anchor="middle" x="73.5" y="-7" font-family="Vera Sans, DejaVu Sans, Liberation Sans, Arial, Helvetica, sans" font-size="10.00">pyVHDLModel.ModelEntity</text>
</a>
</g>
</g>
<!-- pyVHDLModel.SyntaxModel.BaseExpression -->
<g id="node5" class="node">
<title>pyVHDLModel.SyntaxModel.BaseExpression</title>
<g id="a_node5"><a xlink:title="A ``BaseExpression`` is a base&#45;class for all expressions.">
<polygon fill="none" stroke="black" stroke-width="0.5" points="416,-19 183,-19 183,0 416,0 416,-19"/>
<text text-anchor="middle" x="299.5" y="-7" font-family="Vera Sans, DejaVu Sans, Liberation Sans, Arial, Helvetica, sans" font-size="10.00">pyVHDLModel.SyntaxModel.BaseExpression</text>
</a>
</g>
</g>
<!-- pyVHDLModel.ModelEntity&#45;&gt;pyVHDLModel.SyntaxModel.BaseExpression -->
<g id="edge3" class="edge">
<title>pyVHDLModel.ModelEntity&#45;&gt;pyVHDLModel.SyntaxModel.BaseExpression</title>
<path fill="none" stroke="black" stroke-width="0.5" d="M147.23,-9.5C157,-9.5 167.22,-9.5 177.55,-9.5"/>
<polygon fill="black" stroke="black" stroke-width="0.5" points="177.63,-11.25 182.63,-9.5 177.63,-7.75 177.63,-11.25"/>
</g>
<!-- pyVHDLModel.SyntaxModel.Literal -->
<g id="node7" class="node">
<title>pyVHDLModel.SyntaxModel.Literal</title>
<g id="a_node7"><a xlink:title="A ``Literal`` is a base&#45;class for all literals.">
<polygon fill="none" stroke="black" stroke-width="0.5" points="638,-19 452,-19 452,0 638,0 638,-19"/>
<text text-anchor="middle" x="545" y="-7" font-family="Vera Sans, DejaVu Sans, Liberation Sans, Arial, Helvetica, sans" font-size="10.00">pyVHDLModel.SyntaxModel.Literal</text>
</a>
</g>
</g>
<!-- pyVHDLModel.SyntaxModel.BaseExpression&#45;&gt;pyVHDLModel.SyntaxModel.Literal -->
<g id="edge5" class="edge">
<title>pyVHDLModel.SyntaxModel.BaseExpression&#45;&gt;pyVHDLModel.SyntaxModel.Literal</title>
<path fill="none" stroke="black" stroke-width="0.5" d="M416.19,-9.5C426.32,-9.5 436.52,-9.5 446.48,-9.5"/>
<polygon fill="black" stroke="black" stroke-width="0.5" points="446.67,-11.25 451.67,-9.5 446.67,-7.75 446.67,-11.25"/>
</g>
<!-- pyVHDLModel.SyntaxModel.NumericLiteral -->
<g id="node6" class="node">
<title>pyVHDLModel.SyntaxModel.NumericLiteral</title>
<g id="a_node6"><a xlink:title="A ``NumericLiteral`` is a base&#45;class for all numeric literals.">
<polygon fill="none" stroke="black" stroke-width="0.5" points="901,-19 674,-19 674,0 901,0 901,-19"/>
<text text-anchor="middle" x="787.5" y="-7" font-family="Vera Sans, DejaVu Sans, Liberation Sans, Arial, Helvetica, sans" font-size="10.00">pyVHDLModel.SyntaxModel.NumericLiteral</text>
</a>
</g>
</g>
<!-- pyVHDLModel.SyntaxModel.NumericLiteral&#45;&gt;pyVHDLModel.SyntaxModel.FloatingPointLiteral -->
<g id="edge4" class="edge">
<title>pyVHDLModel.SyntaxModel.NumericLiteral&#45;&gt;pyVHDLModel.SyntaxModel.FloatingPointLiteral</title>
<path fill="none" stroke="black" stroke-width="0.5" d="M901.12,-9.5C911.21,-9.5 921.49,-9.5 931.72,-9.5"/>
<polygon fill="black" stroke="black" stroke-width="0.5" points="931.73,-11.25 936.73,-9.5 931.73,-7.75 931.73,-11.25"/>
</g>
<!-- pyVHDLModel.SyntaxModel.Literal&#45;&gt;pyVHDLModel.SyntaxModel.NumericLiteral -->
<g id="edge6" class="edge">
<title>pyVHDLModel.SyntaxModel.Literal&#45;&gt;pyVHDLModel.SyntaxModel.NumericLiteral</title>
<path fill="none" stroke="black" stroke-width="0.5" d="M638.3,-9.5C648.31,-9.5 658.61,-9.5 668.87,-9.5"/>
<polygon fill="black" stroke="black" stroke-width="0.5" points="668.91,-11.25 673.91,-9.5 668.91,-7.75 668.91,-11.25"/>
</g>
</g>
</svg>
