<?xml version="1.0" encoding="UTF-8" standalone="no"?>
<!DOCTYPE svg PUBLIC "-//W3C//DTD SVG 1.1//EN"
 "http://www.w3.org/Graphics/SVG/1.1/DTD/svg11.dtd">
<!-- Generated by graphviz version 2.43.0 (0)
 -->
<!-- Title: inheritance3bfc190d20 Pages: 1 -->
<svg width="576pt" height="25pt"
 viewBox="0.00 0.00 576.00 24.77" xmlns="http://www.w3.org/2000/svg" xmlns:xlink="http://www.w3.org/1999/xlink">
<g id="graph0" class="graph" transform="scale(2.58 2.58) rotate(0) translate(4 60)">
<title>inheritance3bfc190d20</title>
<polygon fill="white" stroke="transparent" points="-4,4 -4,-60 1484,-60 1484,4 -4,4"/>
<!-- pyGHDL.dom.DOMMixin -->
<g id="node1" class="node">
<title>pyGHDL.dom.DOMMixin</title>
<g id="a_node1"><a xlink:href="../pyGHDL.dom.html#pyGHDL.dom.DOMMixin" xlink:title="pyGHDL.dom.DOMMixin" target="_top">
<polygon fill="none" stroke="black" stroke-width="0.5" points="1187.5,-56 1052.5,-56 1052.5,-37 1187.5,-37 1187.5,-56"/>
<text text-anchor="middle" x="1120" y="-44" font-family="Vera Sans, DejaVu Sans, Liberation Sans, Arial, Helvetica, sans" font-size="10.00">pyGHDL.dom.DOMMixin</text>
</a>
</g>
</g>
<!-- pyGHDL.dom.Expression.NorExpression -->
<g id="node2" class="node">
<title>pyGHDL.dom.Expression.NorExpression</title>
<g id="a_node2"><a xlink:href="../pyGHDL/pyGHDL.dom.Expression.html#pyGHDL.dom.Expression.NorExpression" xlink:title="pyGHDL.dom.Expression.NorExpression" target="_top">
<polygon fill="none" stroke="black" stroke-width="0.5" points="1480,-37 1269,-37 1269,-18 1480,-18 1480,-37"/>
<text text-anchor="middle" x="1374.5" y="-25" font-family="Vera Sans, DejaVu Sans, Liberation Sans, Arial, Helvetica, sans" font-size="10.00">pyGHDL.dom.Expression.NorExpression</text>
</a>
</g>
</g>
<!-- pyGHDL.dom.DOMMixin&#45;&gt;pyGHDL.dom.Expression.NorExpression -->
<g id="edge2" class="edge">
<title>pyGHDL.dom.DOMMixin&#45;&gt;pyGHDL.dom.Expression.NorExpression</title>
<path fill="none" stroke="black" stroke-width="0.5" d="M1187.67,-41.48C1210.96,-39.73 1237.75,-37.71 1263.62,-35.77"/>
<polygon fill="black" stroke="black" stroke-width="0.5" points="1263.92,-37.5 1268.77,-35.38 1263.66,-34.01 1263.92,-37.5"/>
</g>
<!-- pyVHDLModel.SyntaxModel.NorExpression -->
<g id="node3" class="node">
<title>pyVHDLModel.SyntaxModel.NorExpression</title>
<polygon fill="none" stroke="black" stroke-width="0.5" points="1233,-19 1007,-19 1007,0 1233,0 1233,-19"/>
<text text-anchor="middle" x="1120" y="-7" font-family="Vera Sans, DejaVu Sans, Liberation Sans, Arial, Helvetica, sans" font-size="10.00">pyVHDLModel.SyntaxModel.NorExpression</text>
</g>
<!-- pyVHDLModel.SyntaxModel.NorExpression&#45;&gt;pyGHDL.dom.Expression.NorExpression -->
<g id="edge1" class="edge">
<title>pyVHDLModel.SyntaxModel.NorExpression&#45;&gt;pyGHDL.dom.Expression.NorExpression</title>
<path fill="none" stroke="black" stroke-width="0.5" d="M1233.22,-17.5C1243.32,-18.22 1253.53,-18.95 1263.61,-19.67"/>
<polygon fill="black" stroke="black" stroke-width="0.5" points="1263.75,-21.43 1268.86,-20.04 1264,-17.94 1263.75,-21.43"/>
</g>
<!-- pyVHDLModel.ModelEntity -->
<g id="node4" class="node">
<title>pyVHDLModel.ModelEntity</title>
<g id="a_node4"><a xlink:title="``ModelEntity`` is the base class for all classes in the VHDL language model,">
<polygon fill="none" stroke="black" stroke-width="0.5" points="147,-19 0,-19 0,0 147,0 147,-19"/>
<text text-anchor="middle" x="73.5" y="-7" font-family="Vera Sans, DejaVu Sans, Liberation Sans, Arial, Helvetica, sans" font-size="10.00">pyVHDLModel.ModelEntity</text>
</a>
</g>
</g>
<!-- pyVHDLModel.SyntaxModel.BaseExpression -->
<g id="node5" class="node">
<title>pyVHDLModel.SyntaxModel.BaseExpression</title>
<g id="a_node5"><a xlink:title="A ``BaseExpression`` is a base&#45;class for all expressions.">
<polygon fill="none" stroke="black" stroke-width="0.5" points="416,-19 183,-19 183,0 416,0 416,-19"/>
<text text-anchor="middle" x="299.5" y="-7" font-family="Vera Sans, DejaVu Sans, Liberation Sans, Arial, Helvetica, sans" font-size="10.00">pyVHDLModel.SyntaxModel.BaseExpression</text>
</a>
</g>
</g>
<!-- pyVHDLModel.ModelEntity&#45;&gt;pyVHDLModel.SyntaxModel.BaseExpression -->
<g id="edge3" class="edge">
<title>pyVHDLModel.ModelEntity&#45;&gt;pyVHDLModel.SyntaxModel.BaseExpression</title>
<path fill="none" stroke="black" stroke-width="0.5" d="M147.23,-9.5C157,-9.5 167.22,-9.5 177.55,-9.5"/>
<polygon fill="black" stroke="black" stroke-width="0.5" points="177.63,-11.25 182.63,-9.5 177.63,-7.75 177.63,-11.25"/>
</g>
<!-- pyVHDLModel.SyntaxModel.BinaryExpression -->
<g id="node6" class="node">
<title>pyVHDLModel.SyntaxModel.BinaryExpression</title>
<g id="a_node6"><a xlink:title="A ``BinaryExpression`` is a base&#45;class for all binary expressions.">
<polygon fill="none" stroke="black" stroke-width="0.5" points="692,-19 452,-19 452,0 692,0 692,-19"/>
<text text-anchor="middle" x="572" y="-7" font-family="Vera Sans, DejaVu Sans, Liberation Sans, Arial, Helvetica, sans" font-size="10.00">pyVHDLModel.SyntaxModel.BinaryExpression</text>
</a>
</g>
</g>
<!-- pyVHDLModel.SyntaxModel.BaseExpression&#45;&gt;pyVHDLModel.SyntaxModel.BinaryExpression -->
<g id="edge4" class="edge">
<title>pyVHDLModel.SyntaxModel.BaseExpression&#45;&gt;pyVHDLModel.SyntaxModel.BinaryExpression</title>
<path fill="none" stroke="black" stroke-width="0.5" d="M416,-9.5C426.03,-9.5 436.2,-9.5 446.3,-9.5"/>
<polygon fill="black" stroke="black" stroke-width="0.5" points="446.57,-11.25 451.57,-9.5 446.57,-7.75 446.57,-11.25"/>
</g>
<!-- pyVHDLModel.SyntaxModel.LogicalExpression -->
<g id="node7" class="node">
<title>pyVHDLModel.SyntaxModel.LogicalExpression</title>
<g id="a_node7"><a xlink:title="A ``LogicalExpression`` is a base&#45;class for all logical expressions.">
<polygon fill="none" stroke="black" stroke-width="0.5" points="971,-19 728,-19 728,0 971,0 971,-19"/>
<text text-anchor="middle" x="849.5" y="-7" font-family="Vera Sans, DejaVu Sans, Liberation Sans, Arial, Helvetica, sans" font-size="10.00">pyVHDLModel.SyntaxModel.LogicalExpression</text>
</a>
</g>
</g>
<!-- pyVHDLModel.SyntaxModel.BinaryExpression&#45;&gt;pyVHDLModel.SyntaxModel.LogicalExpression -->
<g id="edge5" class="edge">
<title>pyVHDLModel.SyntaxModel.BinaryExpression&#45;&gt;pyVHDLModel.SyntaxModel.LogicalExpression</title>
<path fill="none" stroke="black" stroke-width="0.5" d="M692.24,-9.5C702.27,-9.5 712.43,-9.5 722.51,-9.5"/>
<polygon fill="black" stroke="black" stroke-width="0.5" points="722.77,-11.25 727.77,-9.5 722.77,-7.75 722.77,-11.25"/>
</g>
<!-- pyVHDLModel.SyntaxModel.LogicalExpression&#45;&gt;pyVHDLModel.SyntaxModel.NorExpression -->
<g id="edge6" class="edge">
<title>pyVHDLModel.SyntaxModel.LogicalExpression&#45;&gt;pyVHDLModel.SyntaxModel.NorExpression</title>
<path fill="none" stroke="black" stroke-width="0.5" d="M971.01,-9.5C981.1,-9.5 991.29,-9.5 1001.36,-9.5"/>
<polygon fill="black" stroke="black" stroke-width="0.5" points="1001.61,-11.25 1006.61,-9.5 1001.61,-7.75 1001.61,-11.25"/>
</g>
</g>
</svg>
