<?xml version="1.0" encoding="UTF-8" standalone="no"?>
<!DOCTYPE svg PUBLIC "-//W3C//DTD SVG 1.1//EN"
 "http://www.w3.org/Graphics/SVG/1.1/DTD/svg11.dtd">
<!-- Generated by graphviz version 2.43.0 (0)
 -->
<!-- Title: inheritance94298e98bb Pages: 1 -->
<svg width="576pt" height="37pt"
 viewBox="0.00 0.00 576.00 36.90" xmlns="http://www.w3.org/2000/svg" xmlns:xlink="http://www.w3.org/1999/xlink">
<g id="graph0" class="graph" transform="scale(2.22 2.22) rotate(0) translate(4 78)">
<title>inheritance94298e98bb</title>
<polygon fill="white" stroke="transparent" points="-4,4 -4,-78 1276,-78 1276,4 -4,4"/>
<!-- pyGHDL.dom.DOMMixin -->
<g id="node1" class="node">
<title>pyGHDL.dom.DOMMixin</title>
<g id="a_node1"><a xlink:href="../pyGHDL.dom.html#pyGHDL.dom.DOMMixin" xlink:title="pyGHDL.dom.DOMMixin" target="_top">
<polygon fill="none" stroke="black" stroke-width="0.5" points="986,-74 851,-74 851,-55 986,-55 986,-74"/>
<text text-anchor="middle" x="918.5" y="-62" font-family="Vera Sans, DejaVu Sans, Liberation Sans, Arial, Helvetica, sans" font-size="10.00">pyGHDL.dom.DOMMixin</text>
</a>
</g>
</g>
<!-- pyGHDL.dom.PSL.VerificationProperty -->
<g id="node2" class="node">
<title>pyGHDL.dom.PSL.VerificationProperty</title>
<g id="a_node2"><a xlink:href="../pyGHDL/pyGHDL.dom.PSL.html#pyGHDL.dom.PSL.VerificationProperty" xlink:title="pyGHDL.dom.PSL.VerificationProperty" target="_top">
<polygon fill="none" stroke="black" stroke-width="0.5" points="1272,-55 1072,-55 1072,-36 1272,-36 1272,-55"/>
<text text-anchor="middle" x="1172" y="-43" font-family="Vera Sans, DejaVu Sans, Liberation Sans, Arial, Helvetica, sans" font-size="10.00">pyGHDL.dom.PSL.VerificationProperty</text>
</a>
</g>
</g>
<!-- pyGHDL.dom.DOMMixin&#45;&gt;pyGHDL.dom.PSL.VerificationProperty -->
<g id="edge2" class="edge">
<title>pyGHDL.dom.DOMMixin&#45;&gt;pyGHDL.dom.PSL.VerificationProperty</title>
<path fill="none" stroke="black" stroke-width="0.5" d="M986.24,-59.46C1010.9,-57.6 1039.47,-55.44 1066.67,-53.38"/>
<polygon fill="black" stroke="black" stroke-width="0.5" points="1066.88,-55.12 1071.73,-53 1066.61,-51.63 1066.88,-55.12"/>
</g>
<!-- pyVHDLModel.PSLModel.VerificationProperty -->
<g id="node3" class="node">
<title>pyVHDLModel.PSLModel.VerificationProperty</title>
<polygon fill="none" stroke="black" stroke-width="0.5" points="1036,-37 801,-37 801,-18 1036,-18 1036,-37"/>
<text text-anchor="middle" x="918.5" y="-25" font-family="Vera Sans, DejaVu Sans, Liberation Sans, Arial, Helvetica, sans" font-size="10.00">pyVHDLModel.PSLModel.VerificationProperty</text>
</g>
<!-- pyVHDLModel.PSLModel.VerificationProperty&#45;&gt;pyGHDL.dom.PSL.VerificationProperty -->
<g id="edge1" class="edge">
<title>pyVHDLModel.PSLModel.VerificationProperty&#45;&gt;pyGHDL.dom.PSL.VerificationProperty</title>
<path fill="none" stroke="black" stroke-width="0.5" d="M1036.05,-35.84C1046.22,-36.57 1056.48,-37.3 1066.55,-38.02"/>
<polygon fill="black" stroke="black" stroke-width="0.5" points="1066.68,-39.79 1071.8,-38.4 1066.93,-36.3 1066.68,-39.79"/>
</g>
<!-- pyVHDLModel.DesignUnit -->
<g id="node4" class="node">
<title>pyVHDLModel.DesignUnit</title>
<g id="a_node4"><a xlink:title="A ``DesignUnit`` is a base&#45;class for all design units.">
<polygon fill="none" stroke="black" stroke-width="0.5" points="331,-37 188,-37 188,-18 331,-18 331,-37"/>
<text text-anchor="middle" x="259.5" y="-25" font-family="Vera Sans, DejaVu Sans, Liberation Sans, Arial, Helvetica, sans" font-size="10.00">pyVHDLModel.DesignUnit</text>
</a>
</g>
</g>
<!-- pyVHDLModel.PrimaryUnit -->
<g id="node8" class="node">
<title>pyVHDLModel.PrimaryUnit</title>
<g id="a_node8"><a xlink:title="A ``PrimaryUnit`` is a base&#45;class for all primary units.">
<polygon fill="none" stroke="black" stroke-width="0.5" points="514,-37 367,-37 367,-18 514,-18 514,-37"/>
<text text-anchor="middle" x="440.5" y="-25" font-family="Vera Sans, DejaVu Sans, Liberation Sans, Arial, Helvetica, sans" font-size="10.00">pyVHDLModel.PrimaryUnit</text>
</a>
</g>
</g>
<!-- pyVHDLModel.DesignUnit&#45;&gt;pyVHDLModel.PrimaryUnit -->
<g id="edge7" class="edge">
<title>pyVHDLModel.DesignUnit&#45;&gt;pyVHDLModel.PrimaryUnit</title>
<path fill="none" stroke="black" stroke-width="0.5" d="M331.25,-27.5C341.23,-27.5 351.54,-27.5 361.65,-27.5"/>
<polygon fill="black" stroke="black" stroke-width="0.5" points="361.92,-29.25 366.92,-27.5 361.92,-25.75 361.92,-29.25"/>
</g>
<!-- pyVHDLModel.ModelEntity -->
<g id="node5" class="node">
<title>pyVHDLModel.ModelEntity</title>
<g id="a_node5"><a xlink:title="``ModelEntity`` is the base class for all classes in the VHDL language model,">
<polygon fill="none" stroke="black" stroke-width="0.5" points="149.5,-56 2.5,-56 2.5,-37 149.5,-37 149.5,-56"/>
<text text-anchor="middle" x="76" y="-44" font-family="Vera Sans, DejaVu Sans, Liberation Sans, Arial, Helvetica, sans" font-size="10.00">pyVHDLModel.ModelEntity</text>
</a>
</g>
</g>
<!-- pyVHDLModel.ModelEntity&#45;&gt;pyVHDLModel.DesignUnit -->
<g id="edge3" class="edge">
<title>pyVHDLModel.ModelEntity&#45;&gt;pyVHDLModel.DesignUnit</title>
<path fill="none" stroke="black" stroke-width="0.5" d="M149.52,-38.91C160.48,-37.76 171.81,-36.58 182.83,-35.42"/>
<polygon fill="black" stroke="black" stroke-width="0.5" points="183.08,-37.15 187.87,-34.89 182.72,-33.67 183.08,-37.15"/>
</g>
<!-- pyVHDLModel.NamedEntity -->
<g id="node6" class="node">
<title>pyVHDLModel.NamedEntity</title>
<g id="a_node6"><a xlink:title="A ``NamedEntity`` is a mixin class for all VHDL entities that have identifiers.">
<polygon fill="none" stroke="black" stroke-width="0.5" points="152,-19 0,-19 0,0 152,0 152,-19"/>
<text text-anchor="middle" x="76" y="-7" font-family="Vera Sans, DejaVu Sans, Liberation Sans, Arial, Helvetica, sans" font-size="10.00">pyVHDLModel.NamedEntity</text>
</a>
</g>
</g>
<!-- pyVHDLModel.NamedEntity&#45;&gt;pyVHDLModel.DesignUnit -->
<g id="edge4" class="edge">
<title>pyVHDLModel.NamedEntity&#45;&gt;pyVHDLModel.DesignUnit</title>
<path fill="none" stroke="black" stroke-width="0.5" d="M152.13,-16.95C162.18,-17.95 172.49,-18.97 182.56,-19.97"/>
<polygon fill="black" stroke="black" stroke-width="0.5" points="182.64,-21.74 187.79,-20.49 182.99,-18.25 182.64,-21.74"/>
</g>
<!-- pyVHDLModel.PSLModel.PSLPrimaryUnit -->
<g id="node7" class="node">
<title>pyVHDLModel.PSLModel.PSLPrimaryUnit</title>
<polygon fill="none" stroke="black" stroke-width="0.5" points="765,-37 550,-37 550,-18 765,-18 765,-37"/>
<text text-anchor="middle" x="657.5" y="-25" font-family="Vera Sans, DejaVu Sans, Liberation Sans, Arial, Helvetica, sans" font-size="10.00">pyVHDLModel.PSLModel.PSLPrimaryUnit</text>
</g>
<!-- pyVHDLModel.PSLModel.PSLPrimaryUnit&#45;&gt;pyVHDLModel.PSLModel.VerificationProperty -->
<g id="edge6" class="edge">
<title>pyVHDLModel.PSLModel.PSLPrimaryUnit&#45;&gt;pyVHDLModel.PSLModel.VerificationProperty</title>
<path fill="none" stroke="black" stroke-width="0.5" d="M765.34,-27.5C775.31,-27.5 785.46,-27.5 795.55,-27.5"/>
<polygon fill="black" stroke="black" stroke-width="0.5" points="795.82,-29.25 800.82,-27.5 795.82,-25.75 795.82,-29.25"/>
</g>
<!-- pyVHDLModel.PrimaryUnit&#45;&gt;pyVHDLModel.PSLModel.PSLPrimaryUnit -->
<g id="edge5" class="edge">
<title>pyVHDLModel.PrimaryUnit&#45;&gt;pyVHDLModel.PSLModel.PSLPrimaryUnit</title>
<path fill="none" stroke="black" stroke-width="0.5" d="M514.29,-27.5C524.13,-27.5 534.41,-27.5 544.73,-27.5"/>
<polygon fill="black" stroke="black" stroke-width="0.5" points="544.81,-29.25 549.81,-27.5 544.81,-25.75 544.81,-29.25"/>
</g>
</g>
</svg>
