<?xml version="1.0" encoding="UTF-8" standalone="no"?>
<!DOCTYPE svg PUBLIC "-//W3C//DTD SVG 1.1//EN"
 "http://www.w3.org/Graphics/SVG/1.1/DTD/svg11.dtd">
<!-- Generated by graphviz version 2.43.0 (0)
 -->
<!-- Title: inheritance1ee7c824f5 Pages: 1 -->
<svg width="576pt" height="24pt"
 viewBox="0.00 0.00 576.00 23.75" xmlns="http://www.w3.org/2000/svg" xmlns:xlink="http://www.w3.org/1999/xlink">
<g id="graph0" class="graph" transform="scale(2.69 2.69) rotate(0) translate(4 60)">
<title>inheritance1ee7c824f5</title>
<polygon fill="white" stroke="transparent" points="-4,4 -4,-60 1548,-60 1548,4 -4,4"/>
<!-- pyGHDL.dom.DOMMixin -->
<g id="node1" class="node">
<title>pyGHDL.dom.DOMMixin</title>
<g id="a_node1"><a xlink:href="../pyGHDL.dom.html#pyGHDL.dom.DOMMixin" xlink:title="pyGHDL.dom.DOMMixin" target="_top">
<polygon fill="none" stroke="black" stroke-width="0.5" points="1218.5,-56 1083.5,-56 1083.5,-37 1218.5,-37 1218.5,-56"/>
<text text-anchor="middle" x="1151" y="-44" font-family="Vera Sans, DejaVu Sans, Liberation Sans, Arial, Helvetica, sans" font-size="10.00">pyGHDL.dom.DOMMixin</text>
</a>
</g>
</g>
<!-- pyGHDL.dom.Expression.DivisionExpression -->
<g id="node2" class="node">
<title>pyGHDL.dom.Expression.DivisionExpression</title>
<g id="a_node2"><a xlink:href="../pyGHDL/pyGHDL.dom.Expression.html#pyGHDL.dom.Expression.DivisionExpression" xlink:title="pyGHDL.dom.Expression.DivisionExpression" target="_top">
<polygon fill="none" stroke="black" stroke-width="0.5" points="1544,-37 1311,-37 1311,-18 1544,-18 1544,-37"/>
<text text-anchor="middle" x="1427.5" y="-25" font-family="Vera Sans, DejaVu Sans, Liberation Sans, Arial, Helvetica, sans" font-size="10.00">pyGHDL.dom.Expression.DivisionExpression</text>
</a>
</g>
</g>
<!-- pyGHDL.dom.DOMMixin&#45;&gt;pyGHDL.dom.Expression.DivisionExpression -->
<g id="edge2" class="edge">
<title>pyGHDL.dom.DOMMixin&#45;&gt;pyGHDL.dom.Expression.DivisionExpression</title>
<path fill="none" stroke="black" stroke-width="0.5" d="M1218.8,-41.88C1244.98,-40.06 1275.85,-37.93 1305.67,-35.86"/>
<polygon fill="black" stroke="black" stroke-width="0.5" points="1305.96,-37.6 1310.83,-35.51 1305.72,-34.11 1305.96,-37.6"/>
</g>
<!-- pyVHDLModel.SyntaxModel.DivisionExpression -->
<g id="node3" class="node">
<title>pyVHDLModel.SyntaxModel.DivisionExpression</title>
<polygon fill="none" stroke="black" stroke-width="0.5" points="1275,-19 1027,-19 1027,0 1275,0 1275,-19"/>
<text text-anchor="middle" x="1151" y="-7" font-family="Vera Sans, DejaVu Sans, Liberation Sans, Arial, Helvetica, sans" font-size="10.00">pyVHDLModel.SyntaxModel.DivisionExpression</text>
</g>
<!-- pyVHDLModel.SyntaxModel.DivisionExpression&#45;&gt;pyGHDL.dom.Expression.DivisionExpression -->
<g id="edge1" class="edge">
<title>pyVHDLModel.SyntaxModel.DivisionExpression&#45;&gt;pyGHDL.dom.Expression.DivisionExpression</title>
<path fill="none" stroke="black" stroke-width="0.5" d="M1275.2,-17.58C1285.27,-18.24 1295.45,-18.91 1305.51,-19.57"/>
<polygon fill="black" stroke="black" stroke-width="0.5" points="1305.65,-21.33 1310.75,-19.91 1305.88,-17.84 1305.65,-21.33"/>
</g>
<!-- pyVHDLModel.ModelEntity -->
<g id="node4" class="node">
<title>pyVHDLModel.ModelEntity</title>
<g id="a_node4"><a xlink:title="``ModelEntity`` is the base class for all classes in the VHDL language model,">
<polygon fill="none" stroke="black" stroke-width="0.5" points="147,-19 0,-19 0,0 147,0 147,-19"/>
<text text-anchor="middle" x="73.5" y="-7" font-family="Vera Sans, DejaVu Sans, Liberation Sans, Arial, Helvetica, sans" font-size="10.00">pyVHDLModel.ModelEntity</text>
</a>
</g>
</g>
<!-- pyVHDLModel.SyntaxModel.BaseExpression -->
<g id="node5" class="node">
<title>pyVHDLModel.SyntaxModel.BaseExpression</title>
<g id="a_node5"><a xlink:title="A ``BaseExpression`` is a base&#45;class for all expressions.">
<polygon fill="none" stroke="black" stroke-width="0.5" points="416,-19 183,-19 183,0 416,0 416,-19"/>
<text text-anchor="middle" x="299.5" y="-7" font-family="Vera Sans, DejaVu Sans, Liberation Sans, Arial, Helvetica, sans" font-size="10.00">pyVHDLModel.SyntaxModel.BaseExpression</text>
</a>
</g>
</g>
<!-- pyVHDLModel.ModelEntity&#45;&gt;pyVHDLModel.SyntaxModel.BaseExpression -->
<g id="edge3" class="edge">
<title>pyVHDLModel.ModelEntity&#45;&gt;pyVHDLModel.SyntaxModel.BaseExpression</title>
<path fill="none" stroke="black" stroke-width="0.5" d="M147.23,-9.5C157,-9.5 167.22,-9.5 177.55,-9.5"/>
<polygon fill="black" stroke="black" stroke-width="0.5" points="177.63,-11.25 182.63,-9.5 177.63,-7.75 177.63,-11.25"/>
</g>
<!-- pyVHDLModel.SyntaxModel.BinaryExpression -->
<g id="node6" class="node">
<title>pyVHDLModel.SyntaxModel.BinaryExpression</title>
<g id="a_node6"><a xlink:title="A ``BinaryExpression`` is a base&#45;class for all binary expressions.">
<polygon fill="none" stroke="black" stroke-width="0.5" points="692,-19 452,-19 452,0 692,0 692,-19"/>
<text text-anchor="middle" x="572" y="-7" font-family="Vera Sans, DejaVu Sans, Liberation Sans, Arial, Helvetica, sans" font-size="10.00">pyVHDLModel.SyntaxModel.BinaryExpression</text>
</a>
</g>
</g>
<!-- pyVHDLModel.SyntaxModel.BaseExpression&#45;&gt;pyVHDLModel.SyntaxModel.BinaryExpression -->
<g id="edge4" class="edge">
<title>pyVHDLModel.SyntaxModel.BaseExpression&#45;&gt;pyVHDLModel.SyntaxModel.BinaryExpression</title>
<path fill="none" stroke="black" stroke-width="0.5" d="M416,-9.5C426.03,-9.5 436.2,-9.5 446.3,-9.5"/>
<polygon fill="black" stroke="black" stroke-width="0.5" points="446.57,-11.25 451.57,-9.5 446.57,-7.75 446.57,-11.25"/>
</g>
<!-- pyVHDLModel.SyntaxModel.MultiplyingExpression -->
<g id="node7" class="node">
<title>pyVHDLModel.SyntaxModel.MultiplyingExpression</title>
<g id="a_node7"><a xlink:title="A ``MultiplyingExpression`` is a base&#45;class for all multiplying expressions.">
<polygon fill="none" stroke="black" stroke-width="0.5" points="991,-19 728,-19 728,0 991,0 991,-19"/>
<text text-anchor="middle" x="859.5" y="-7" font-family="Vera Sans, DejaVu Sans, Liberation Sans, Arial, Helvetica, sans" font-size="10.00">pyVHDLModel.SyntaxModel.MultiplyingExpression</text>
</a>
</g>
</g>
<!-- pyVHDLModel.SyntaxModel.BinaryExpression&#45;&gt;pyVHDLModel.SyntaxModel.MultiplyingExpression -->
<g id="edge6" class="edge">
<title>pyVHDLModel.SyntaxModel.BinaryExpression&#45;&gt;pyVHDLModel.SyntaxModel.MultiplyingExpression</title>
<path fill="none" stroke="black" stroke-width="0.5" d="M692.01,-9.5C702.13,-9.5 712.42,-9.5 722.66,-9.5"/>
<polygon fill="black" stroke="black" stroke-width="0.5" points="722.69,-11.25 727.69,-9.5 722.69,-7.75 722.69,-11.25"/>
</g>
<!-- pyVHDLModel.SyntaxModel.MultiplyingExpression&#45;&gt;pyVHDLModel.SyntaxModel.DivisionExpression -->
<g id="edge5" class="edge">
<title>pyVHDLModel.SyntaxModel.MultiplyingExpression&#45;&gt;pyVHDLModel.SyntaxModel.DivisionExpression</title>
<path fill="none" stroke="black" stroke-width="0.5" d="M991.27,-9.5C1001.36,-9.5 1011.53,-9.5 1021.59,-9.5"/>
<polygon fill="black" stroke="black" stroke-width="0.5" points="1021.84,-11.25 1026.84,-9.5 1021.84,-7.75 1021.84,-11.25"/>
</g>
</g>
</svg>
