<?xml version="1.0" encoding="UTF-8" standalone="no"?>
<!DOCTYPE svg PUBLIC "-//W3C//DTD SVG 1.1//EN"
 "http://www.w3.org/Graphics/SVG/1.1/DTD/svg11.dtd">
<!-- Generated by graphviz version 2.43.0 (0)
 -->
<!-- Title: inheritancec218379cf0 Pages: 1 -->
<svg width="576pt" height="27pt"
 viewBox="0.00 0.00 576.00 27.31" xmlns="http://www.w3.org/2000/svg" xmlns:xlink="http://www.w3.org/1999/xlink">
<g id="graph0" class="graph" transform="scale(2.34 2.34) rotate(0) translate(4 60)">
<title>inheritancec218379cf0</title>
<polygon fill="white" stroke="transparent" points="-4,4 -4,-60 1346,-60 1346,4 -4,4"/>
<!-- pyGHDL.dom.DOMMixin -->
<g id="node1" class="node">
<title>pyGHDL.dom.DOMMixin</title>
<g id="a_node1"><a xlink:href="../pyGHDL.dom.html#pyGHDL.dom.DOMMixin" xlink:title="pyGHDL.dom.DOMMixin" target="_top">
<polygon fill="none" stroke="black" stroke-width="0.5" points="905,-56 770,-56 770,-37 905,-37 905,-56"/>
<text text-anchor="middle" x="837.5" y="-44" font-family="Vera Sans, DejaVu Sans, Liberation Sans, Arial, Helvetica, sans" font-size="10.00">pyGHDL.dom.DOMMixin</text>
</a>
</g>
</g>
<!-- pyGHDL.dom.Symbol.IndexedObjectOrFunctionCallSymbol -->
<g id="node2" class="node">
<title>pyGHDL.dom.Symbol.IndexedObjectOrFunctionCallSymbol</title>
<g id="a_node2"><a xlink:href="../pyGHDL/pyGHDL.dom.Symbol.html#pyGHDL.dom.Symbol.IndexedObjectOrFunctionCallSymbol" xlink:title="pyGHDL.dom.Symbol.IndexedObjectOrFunctionCallSymbol" target="_top">
<polygon fill="none" stroke="black" stroke-width="0.5" points="1342,-37 1040,-37 1040,-18 1342,-18 1342,-37"/>
<text text-anchor="middle" x="1191" y="-25" font-family="Vera Sans, DejaVu Sans, Liberation Sans, Arial, Helvetica, sans" font-size="10.00">pyGHDL.dom.Symbol.IndexedObjectOrFunctionCallSymbol</text>
</a>
</g>
</g>
<!-- pyGHDL.dom.DOMMixin&#45;&gt;pyGHDL.dom.Symbol.IndexedObjectOrFunctionCallSymbol -->
<g id="edge2" class="edge">
<title>pyGHDL.dom.DOMMixin&#45;&gt;pyGHDL.dom.Symbol.IndexedObjectOrFunctionCallSymbol</title>
<path fill="none" stroke="black" stroke-width="0.5" d="M905.03,-42.9C941.82,-40.91 989.2,-38.35 1034.72,-35.89"/>
<polygon fill="black" stroke="black" stroke-width="0.5" points="1035.08,-37.63 1039.98,-35.61 1034.89,-34.13 1035.08,-37.63"/>
</g>
<!-- pyVHDLModel.SyntaxModel.IndexedObjectOrFunctionCallSymbol -->
<g id="node3" class="node">
<title>pyVHDLModel.SyntaxModel.IndexedObjectOrFunctionCallSymbol</title>
<polygon fill="none" stroke="black" stroke-width="0.5" points="1004,-19 671,-19 671,0 1004,0 1004,-19"/>
<text text-anchor="middle" x="837.5" y="-7" font-family="Vera Sans, DejaVu Sans, Liberation Sans, Arial, Helvetica, sans" font-size="10.00">pyVHDLModel.SyntaxModel.IndexedObjectOrFunctionCallSymbol</text>
</g>
<!-- pyVHDLModel.SyntaxModel.IndexedObjectOrFunctionCallSymbol&#45;&gt;pyGHDL.dom.Symbol.IndexedObjectOrFunctionCallSymbol -->
<g id="edge1" class="edge">
<title>pyVHDLModel.SyntaxModel.IndexedObjectOrFunctionCallSymbol&#45;&gt;pyGHDL.dom.Symbol.IndexedObjectOrFunctionCallSymbol</title>
<path fill="none" stroke="black" stroke-width="0.5" d="M1004.21,-17.99C1014.46,-18.51 1024.75,-19.04 1034.94,-19.56"/>
<polygon fill="black" stroke="black" stroke-width="0.5" points="1034.86,-21.31 1039.94,-19.82 1035.04,-17.81 1034.86,-21.31"/>
</g>
<!-- pyVHDLModel.ModelEntity -->
<g id="node4" class="node">
<title>pyVHDLModel.ModelEntity</title>
<g id="a_node4"><a xlink:title="``ModelEntity`` is the base class for all classes in the VHDL language model,">
<polygon fill="none" stroke="black" stroke-width="0.5" points="147,-19 0,-19 0,0 147,0 147,-19"/>
<text text-anchor="middle" x="73.5" y="-7" font-family="Vera Sans, DejaVu Sans, Liberation Sans, Arial, Helvetica, sans" font-size="10.00">pyVHDLModel.ModelEntity</text>
</a>
</g>
</g>
<!-- pyVHDLModel.SyntaxModel.Symbol -->
<g id="node6" class="node">
<title>pyVHDLModel.SyntaxModel.Symbol</title>
<polygon fill="none" stroke="black" stroke-width="0.5" points="375,-19 183,-19 183,0 375,0 375,-19"/>
<text text-anchor="middle" x="279" y="-7" font-family="Vera Sans, DejaVu Sans, Liberation Sans, Arial, Helvetica, sans" font-size="10.00">pyVHDLModel.SyntaxModel.Symbol</text>
</g>
<!-- pyVHDLModel.ModelEntity&#45;&gt;pyVHDLModel.SyntaxModel.Symbol -->
<g id="edge5" class="edge">
<title>pyVHDLModel.ModelEntity&#45;&gt;pyVHDLModel.SyntaxModel.Symbol</title>
<path fill="none" stroke="black" stroke-width="0.5" d="M147.11,-9.5C157.01,-9.5 167.32,-9.5 177.62,-9.5"/>
<polygon fill="black" stroke="black" stroke-width="0.5" points="177.66,-11.25 182.66,-9.5 177.66,-7.75 177.66,-11.25"/>
</g>
<!-- pyVHDLModel.SyntaxModel.ObjectSymbol -->
<g id="node5" class="node">
<title>pyVHDLModel.SyntaxModel.ObjectSymbol</title>
<polygon fill="none" stroke="black" stroke-width="0.5" points="635,-19 411,-19 411,0 635,0 635,-19"/>
<text text-anchor="middle" x="523" y="-7" font-family="Vera Sans, DejaVu Sans, Liberation Sans, Arial, Helvetica, sans" font-size="10.00">pyVHDLModel.SyntaxModel.ObjectSymbol</text>
</g>
<!-- pyVHDLModel.SyntaxModel.ObjectSymbol&#45;&gt;pyVHDLModel.SyntaxModel.IndexedObjectOrFunctionCallSymbol -->
<g id="edge3" class="edge">
<title>pyVHDLModel.SyntaxModel.ObjectSymbol&#45;&gt;pyVHDLModel.SyntaxModel.IndexedObjectOrFunctionCallSymbol</title>
<path fill="none" stroke="black" stroke-width="0.5" d="M635.06,-9.5C645.08,-9.5 655.38,-9.5 665.76,-9.5"/>
<polygon fill="black" stroke="black" stroke-width="0.5" points="665.87,-11.25 670.87,-9.5 665.87,-7.75 665.87,-11.25"/>
</g>
<!-- pyVHDLModel.SyntaxModel.Symbol&#45;&gt;pyVHDLModel.SyntaxModel.ObjectSymbol -->
<g id="edge4" class="edge">
<title>pyVHDLModel.SyntaxModel.Symbol&#45;&gt;pyVHDLModel.SyntaxModel.ObjectSymbol</title>
<path fill="none" stroke="black" stroke-width="0.5" d="M375.3,-9.5C385.3,-9.5 395.55,-9.5 405.75,-9.5"/>
<polygon fill="black" stroke="black" stroke-width="0.5" points="405.76,-11.25 410.76,-9.5 405.76,-7.75 405.76,-11.25"/>
</g>
</g>
</svg>
