<?xml version="1.0" encoding="UTF-8" standalone="no"?>
<!DOCTYPE svg PUBLIC "-//W3C//DTD SVG 1.1//EN"
 "http://www.w3.org/Graphics/SVG/1.1/DTD/svg11.dtd">
<!-- Generated by graphviz version 2.43.0 (0)
 -->
<!-- Title: inheritance2514071e65 Pages: 1 -->
<svg width="576pt" height="53pt"
 viewBox="0.00 0.00 576.00 52.61" xmlns="http://www.w3.org/2000/svg" xmlns:xlink="http://www.w3.org/1999/xlink">
<g id="graph0" class="graph" transform="scale(2.62 2.62) rotate(0) translate(4 134)">
<title>inheritance2514071e65</title>
<polygon fill="white" stroke="transparent" points="-4,4 -4,-134 1507,-134 1507,4 -4,4"/>
<!-- pyGHDL.dom.DOMMixin -->
<g id="node1" class="node">
<title>pyGHDL.dom.DOMMixin</title>
<g id="a_node1"><a xlink:href="../pyGHDL.dom.html#pyGHDL.dom.DOMMixin" xlink:title="pyGHDL.dom.DOMMixin" target="_top">
<polygon fill="none" stroke="black" stroke-width="0.5" points="1084.5,-130 949.5,-130 949.5,-111 1084.5,-111 1084.5,-130"/>
<text text-anchor="middle" x="1017" y="-118" font-family="Vera Sans, DejaVu Sans, Liberation Sans, Arial, Helvetica, sans" font-size="10.00">pyGHDL.dom.DOMMixin</text>
</a>
</g>
</g>
<!-- pyGHDL.dom.InterfaceItem.ParameterSignalInterfaceItem -->
<g id="node2" class="node">
<title>pyGHDL.dom.InterfaceItem.ParameterSignalInterfaceItem</title>
<g id="a_node2"><a xlink:href="../pyGHDL/pyGHDL.dom.InterfaceItem.html#pyGHDL.dom.InterfaceItem.ParameterSignalInterfaceItem" xlink:title="pyGHDL.dom.InterfaceItem.ParameterSignalInterfaceItem" target="_top">
<polygon fill="none" stroke="black" stroke-width="0.5" points="1503,-111 1204,-111 1204,-92 1503,-92 1503,-111"/>
<text text-anchor="middle" x="1353.5" y="-99" font-family="Vera Sans, DejaVu Sans, Liberation Sans, Arial, Helvetica, sans" font-size="10.00">pyGHDL.dom.InterfaceItem.ParameterSignalInterfaceItem</text>
</a>
</g>
</g>
<!-- pyGHDL.dom.DOMMixin&#45;&gt;pyGHDL.dom.InterfaceItem.ParameterSignalInterfaceItem -->
<g id="edge2" class="edge">
<title>pyGHDL.dom.DOMMixin&#45;&gt;pyGHDL.dom.InterfaceItem.ParameterSignalInterfaceItem</title>
<path fill="none" stroke="black" stroke-width="0.5" d="M1084.89,-116.7C1117.64,-114.84 1158.54,-112.52 1198.43,-110.25"/>
<polygon fill="black" stroke="black" stroke-width="0.5" points="1198.91,-111.98 1203.8,-109.95 1198.71,-108.48 1198.91,-111.98"/>
</g>
<!-- pyVHDLModel.SyntaxModel.ParameterSignalInterfaceItem -->
<g id="node3" class="node">
<title>pyVHDLModel.SyntaxModel.ParameterSignalInterfaceItem</title>
<polygon fill="none" stroke="black" stroke-width="0.5" points="1168,-93 866,-93 866,-74 1168,-74 1168,-93"/>
<text text-anchor="middle" x="1017" y="-81" font-family="Vera Sans, DejaVu Sans, Liberation Sans, Arial, Helvetica, sans" font-size="10.00">pyVHDLModel.SyntaxModel.ParameterSignalInterfaceItem</text>
</g>
<!-- pyVHDLModel.SyntaxModel.ParameterSignalInterfaceItem&#45;&gt;pyGHDL.dom.InterfaceItem.ParameterSignalInterfaceItem -->
<g id="edge1" class="edge">
<title>pyVHDLModel.SyntaxModel.ParameterSignalInterfaceItem&#45;&gt;pyGHDL.dom.InterfaceItem.ParameterSignalInterfaceItem</title>
<path fill="none" stroke="black" stroke-width="0.5" d="M1168.13,-91.58C1178.35,-92.13 1188.66,-92.68 1198.9,-93.23"/>
<polygon fill="black" stroke="black" stroke-width="0.5" points="1198.84,-94.98 1203.92,-93.5 1199.03,-91.49 1198.84,-94.98"/>
</g>
<!-- pyVHDLModel.ModelEntity -->
<g id="node4" class="node">
<title>pyVHDLModel.ModelEntity</title>
<g id="a_node4"><a xlink:title="``ModelEntity`` is the base class for all classes in the VHDL language model,">
<polygon fill="none" stroke="black" stroke-width="0.5" points="169.5,-74 22.5,-74 22.5,-55 169.5,-55 169.5,-74"/>
<text text-anchor="middle" x="96" y="-62" font-family="Vera Sans, DejaVu Sans, Liberation Sans, Arial, Helvetica, sans" font-size="10.00">pyVHDLModel.ModelEntity</text>
</a>
</g>
</g>
<!-- pyVHDLModel.SyntaxModel.Obj -->
<g id="node8" class="node">
<title>pyVHDLModel.SyntaxModel.Obj</title>
<polygon fill="none" stroke="black" stroke-width="0.5" points="461,-56 289,-56 289,-37 461,-37 461,-56"/>
<text text-anchor="middle" x="375" y="-44" font-family="Vera Sans, DejaVu Sans, Liberation Sans, Arial, Helvetica, sans" font-size="10.00">pyVHDLModel.SyntaxModel.Obj</text>
</g>
<!-- pyVHDLModel.ModelEntity&#45;&gt;pyVHDLModel.SyntaxModel.Obj -->
<g id="edge3" class="edge">
<title>pyVHDLModel.ModelEntity&#45;&gt;pyVHDLModel.SyntaxModel.Obj</title>
<path fill="none" stroke="black" stroke-width="0.5" d="M169.78,-59.77C204.61,-57.51 246.67,-54.77 283.54,-52.38"/>
<polygon fill="black" stroke="black" stroke-width="0.5" points="284.06,-54.1 288.94,-52.03 283.83,-50.61 284.06,-54.1"/>
</g>
<!-- pyVHDLModel.MultipleNamedEntity -->
<g id="node5" class="node">
<title>pyVHDLModel.MultipleNamedEntity</title>
<g id="a_node5"><a xlink:title="A ``MultipleNamedEntity`` is a mixin class for all VHDL entities that declare">
<polygon fill="none" stroke="black" stroke-width="0.5" points="192,-37 0,-37 0,-18 192,-18 192,-37"/>
<text text-anchor="middle" x="96" y="-25" font-family="Vera Sans, DejaVu Sans, Liberation Sans, Arial, Helvetica, sans" font-size="10.00">pyVHDLModel.MultipleNamedEntity</text>
</a>
</g>
</g>
<!-- pyVHDLModel.MultipleNamedEntity&#45;&gt;pyVHDLModel.SyntaxModel.Obj -->
<g id="edge4" class="edge">
<title>pyVHDLModel.MultipleNamedEntity&#45;&gt;pyVHDLModel.SyntaxModel.Obj</title>
<path fill="none" stroke="black" stroke-width="0.5" d="M192.33,-34.04C221.92,-36.07 254.42,-38.3 283.66,-40.3"/>
<polygon fill="black" stroke="black" stroke-width="0.5" points="283.59,-42.05 288.7,-40.65 283.83,-38.56 283.59,-42.05"/>
</g>
<!-- pyVHDLModel.SyntaxModel.InterfaceItem -->
<g id="node6" class="node">
<title>pyVHDLModel.SyntaxModel.InterfaceItem</title>
<g id="a_node6"><a xlink:title="An ``InterfaceItem`` is a base&#45;class for all mixin&#45;classes for all interface">
<polygon fill="none" stroke="black" stroke-width="0.5" points="485.5,-93 264.5,-93 264.5,-74 485.5,-74 485.5,-93"/>
<text text-anchor="middle" x="375" y="-81" font-family="Vera Sans, DejaVu Sans, Liberation Sans, Arial, Helvetica, sans" font-size="10.00">pyVHDLModel.SyntaxModel.InterfaceItem</text>
</a>
</g>
</g>
<!-- pyVHDLModel.SyntaxModel.ParameterInterfaceItem -->
<g id="node9" class="node">
<title>pyVHDLModel.SyntaxModel.ParameterInterfaceItem</title>
<g id="a_node9"><a xlink:title="A ``ParameterInterfaceItem`` is a mixin class for all parameter interface items.">
<polygon fill="none" stroke="black" stroke-width="0.5" points="830,-93 558,-93 558,-74 830,-74 830,-93"/>
<text text-anchor="middle" x="694" y="-81" font-family="Vera Sans, DejaVu Sans, Liberation Sans, Arial, Helvetica, sans" font-size="10.00">pyVHDLModel.SyntaxModel.ParameterInterfaceItem</text>
</a>
</g>
</g>
<!-- pyVHDLModel.SyntaxModel.InterfaceItem&#45;&gt;pyVHDLModel.SyntaxModel.ParameterInterfaceItem -->
<g id="edge5" class="edge">
<title>pyVHDLModel.SyntaxModel.InterfaceItem&#45;&gt;pyVHDLModel.SyntaxModel.ParameterInterfaceItem</title>
<path fill="none" stroke="black" stroke-width="0.5" d="M485.54,-83.5C507.25,-83.5 530.32,-83.5 552.89,-83.5"/>
<polygon fill="black" stroke="black" stroke-width="0.5" points="553,-85.25 558,-83.5 553,-81.75 553,-85.25"/>
</g>
<!-- pyVHDLModel.SyntaxModel.InterfaceItemWithMode -->
<g id="node7" class="node">
<title>pyVHDLModel.SyntaxModel.InterfaceItemWithMode</title>
<g id="a_node7"><a xlink:title="An ``InterfaceItemWithMode`` is a mixin&#45;class to provide a ``Mode`` to">
<polygon fill="none" stroke="black" stroke-width="0.5" points="829.5,-130 558.5,-130 558.5,-111 829.5,-111 829.5,-130"/>
<text text-anchor="middle" x="694" y="-118" font-family="Vera Sans, DejaVu Sans, Liberation Sans, Arial, Helvetica, sans" font-size="10.00">pyVHDLModel.SyntaxModel.InterfaceItemWithMode</text>
</a>
</g>
</g>
<!-- pyVHDLModel.SyntaxModel.InterfaceItemWithMode&#45;&gt;pyVHDLModel.SyntaxModel.ParameterSignalInterfaceItem -->
<g id="edge8" class="edge">
<title>pyVHDLModel.SyntaxModel.InterfaceItemWithMode&#45;&gt;pyVHDLModel.SyntaxModel.ParameterSignalInterfaceItem</title>
<path fill="none" stroke="black" stroke-width="0.5" d="M777.67,-110.97C823.82,-105.65 881.3,-99.03 928.25,-93.61"/>
<polygon fill="black" stroke="black" stroke-width="0.5" points="928.57,-95.34 933.34,-93.03 928.17,-91.86 928.57,-95.34"/>
</g>
<!-- pyVHDLModel.SyntaxModel.Signal -->
<g id="node10" class="node">
<title>pyVHDLModel.SyntaxModel.Signal</title>
<polygon fill="none" stroke="black" stroke-width="0.5" points="786.5,-56 601.5,-56 601.5,-37 786.5,-37 786.5,-56"/>
<text text-anchor="middle" x="694" y="-44" font-family="Vera Sans, DejaVu Sans, Liberation Sans, Arial, Helvetica, sans" font-size="10.00">pyVHDLModel.SyntaxModel.Signal</text>
</g>
<!-- pyVHDLModel.SyntaxModel.Obj&#45;&gt;pyVHDLModel.SyntaxModel.Signal -->
<g id="edge9" class="edge">
<title>pyVHDLModel.SyntaxModel.Obj&#45;&gt;pyVHDLModel.SyntaxModel.Signal</title>
<path fill="none" stroke="black" stroke-width="0.5" d="M461.37,-46.5C502.95,-46.5 553.14,-46.5 596.16,-46.5"/>
<polygon fill="black" stroke="black" stroke-width="0.5" points="596.37,-48.25 601.37,-46.5 596.37,-44.75 596.37,-48.25"/>
</g>
<!-- pyVHDLModel.SyntaxModel.ParameterInterfaceItem&#45;&gt;pyVHDLModel.SyntaxModel.ParameterSignalInterfaceItem -->
<g id="edge7" class="edge">
<title>pyVHDLModel.SyntaxModel.ParameterInterfaceItem&#45;&gt;pyVHDLModel.SyntaxModel.ParameterSignalInterfaceItem</title>
<path fill="none" stroke="black" stroke-width="0.5" d="M830.2,-83.5C840.36,-83.5 850.66,-83.5 860.93,-83.5"/>
<polygon fill="black" stroke="black" stroke-width="0.5" points="860.97,-85.25 865.97,-83.5 860.97,-81.75 860.97,-85.25"/>
</g>
<!-- pyVHDLModel.SyntaxModel.Signal&#45;&gt;pyVHDLModel.SyntaxModel.ParameterSignalInterfaceItem -->
<g id="edge6" class="edge">
<title>pyVHDLModel.SyntaxModel.Signal&#45;&gt;pyVHDLModel.SyntaxModel.ParameterSignalInterfaceItem</title>
<path fill="none" stroke="black" stroke-width="0.5" d="M777.67,-56.03C823.82,-61.35 881.3,-67.97 928.25,-73.39"/>
<polygon fill="black" stroke="black" stroke-width="0.5" points="928.17,-75.14 933.34,-73.97 928.57,-71.66 928.17,-75.14"/>
</g>
<!-- pyVHDLModel.SyntaxModel.WithDefaultExpressionMixin -->
<g id="node11" class="node">
<title>pyVHDLModel.SyntaxModel.WithDefaultExpressionMixin</title>
<g id="a_node11"><a xlink:title="A ``WithDefaultExpression`` is a mixin class for all objects declarations">
<polygon fill="none" stroke="black" stroke-width="0.5" points="522,-19 228,-19 228,0 522,0 522,-19"/>
<text text-anchor="middle" x="375" y="-7" font-family="Vera Sans, DejaVu Sans, Liberation Sans, Arial, Helvetica, sans" font-size="10.00">pyVHDLModel.SyntaxModel.WithDefaultExpressionMixin</text>
</a>
</g>
</g>
<!-- pyVHDLModel.SyntaxModel.WithDefaultExpressionMixin&#45;&gt;pyVHDLModel.SyntaxModel.Signal -->
<g id="edge10" class="edge">
<title>pyVHDLModel.SyntaxModel.WithDefaultExpressionMixin&#45;&gt;pyVHDLModel.SyntaxModel.Signal</title>
<path fill="none" stroke="black" stroke-width="0.5" d="M457.64,-19.03C503.21,-24.35 559.98,-30.97 606.34,-36.39"/>
<polygon fill="black" stroke="black" stroke-width="0.5" points="606.2,-38.13 611.37,-36.97 606.6,-34.65 606.2,-38.13"/>
</g>
</g>
</svg>
