<?xml version="1.0" encoding="UTF-8" standalone="no"?>
<!DOCTYPE svg PUBLIC "-//W3C//DTD SVG 1.1//EN"
 "http://www.w3.org/Graphics/SVG/1.1/DTD/svg11.dtd">
<!-- Generated by graphviz version 2.43.0 (0)
 -->
<!-- Title: inheritance72bd48b9e8 Pages: 1 -->
<svg width="576pt" height="52pt"
 viewBox="0.00 0.00 576.00 52.42" xmlns="http://www.w3.org/2000/svg" xmlns:xlink="http://www.w3.org/1999/xlink">
<g id="graph0" class="graph" transform="scale(1.56 1.56) rotate(0) translate(4 78)">
<title>inheritance72bd48b9e8</title>
<polygon fill="white" stroke="transparent" points="-4,4 -4,-78 897,-78 897,4 -4,4"/>
<!-- pyGHDL.dom.DOMMixin -->
<g id="node1" class="node">
<title>pyGHDL.dom.DOMMixin</title>
<g id="a_node1"><a xlink:href="../pyGHDL.dom.html#pyGHDL.dom.DOMMixin" xlink:title="pyGHDL.dom.DOMMixin" target="_top">
<polygon fill="none" stroke="black" stroke-width="0.5" points="618,-74 483,-74 483,-55 618,-55 618,-74"/>
<text text-anchor="middle" x="550.5" y="-62" font-family="Vera Sans, DejaVu Sans, Liberation Sans, Arial, Helvetica, sans" font-size="10.00">pyGHDL.dom.DOMMixin</text>
</a>
</g>
</g>
<!-- pyGHDL.dom.Object.SharedVariable -->
<g id="node2" class="node">
<title>pyGHDL.dom.Object.SharedVariable</title>
<g id="a_node2"><a xlink:href="../pyGHDL/pyGHDL.dom.Object.html#pyGHDL.dom.Object.SharedVariable" xlink:title="pyGHDL.dom.Object.SharedVariable" target="_top">
<polygon fill="none" stroke="black" stroke-width="0.5" points="893,-55 701,-55 701,-36 893,-36 893,-55"/>
<text text-anchor="middle" x="797" y="-43" font-family="Vera Sans, DejaVu Sans, Liberation Sans, Arial, Helvetica, sans" font-size="10.00">pyGHDL.dom.Object.SharedVariable</text>
</a>
</g>
</g>
<!-- pyGHDL.dom.DOMMixin&#45;&gt;pyGHDL.dom.Object.SharedVariable -->
<g id="edge2" class="edge">
<title>pyGHDL.dom.DOMMixin&#45;&gt;pyGHDL.dom.Object.SharedVariable</title>
<path fill="none" stroke="black" stroke-width="0.5" d="M618.31,-59.31C642.17,-57.45 669.6,-55.32 695.67,-53.3"/>
<polygon fill="black" stroke="black" stroke-width="0.5" points="696.01,-55.03 700.86,-52.89 695.74,-51.54 696.01,-55.03"/>
</g>
<!-- pyVHDLModel.SyntaxModel.SharedVariable -->
<g id="node3" class="node">
<title>pyVHDLModel.SyntaxModel.SharedVariable</title>
<polygon fill="none" stroke="black" stroke-width="0.5" points="665,-37 436,-37 436,-18 665,-18 665,-37"/>
<text text-anchor="middle" x="550.5" y="-25" font-family="Vera Sans, DejaVu Sans, Liberation Sans, Arial, Helvetica, sans" font-size="10.00">pyVHDLModel.SyntaxModel.SharedVariable</text>
</g>
<!-- pyVHDLModel.SyntaxModel.SharedVariable&#45;&gt;pyGHDL.dom.Object.SharedVariable -->
<g id="edge1" class="edge">
<title>pyVHDLModel.SyntaxModel.SharedVariable&#45;&gt;pyGHDL.dom.Object.SharedVariable</title>
<path fill="none" stroke="black" stroke-width="0.5" d="M665.16,-35.87C675.36,-36.62 685.63,-37.37 695.7,-38.12"/>
<polygon fill="black" stroke="black" stroke-width="0.5" points="695.83,-39.88 700.94,-38.5 696.09,-36.39 695.83,-39.88"/>
</g>
<!-- pyVHDLModel.ModelEntity -->
<g id="node4" class="node">
<title>pyVHDLModel.ModelEntity</title>
<g id="a_node4"><a xlink:title="``ModelEntity`` is the base class for all classes in the VHDL language model,">
<polygon fill="none" stroke="black" stroke-width="0.5" points="169.5,-56 22.5,-56 22.5,-37 169.5,-37 169.5,-56"/>
<text text-anchor="middle" x="96" y="-44" font-family="Vera Sans, DejaVu Sans, Liberation Sans, Arial, Helvetica, sans" font-size="10.00">pyVHDLModel.ModelEntity</text>
</a>
</g>
</g>
<!-- pyVHDLModel.SyntaxModel.Obj -->
<g id="node6" class="node">
<title>pyVHDLModel.SyntaxModel.Obj</title>
<polygon fill="none" stroke="black" stroke-width="0.5" points="400,-37 228,-37 228,-18 400,-18 400,-37"/>
<text text-anchor="middle" x="314" y="-25" font-family="Vera Sans, DejaVu Sans, Liberation Sans, Arial, Helvetica, sans" font-size="10.00">pyVHDLModel.SyntaxModel.Obj</text>
</g>
<!-- pyVHDLModel.ModelEntity&#45;&gt;pyVHDLModel.SyntaxModel.Obj -->
<g id="edge3" class="edge">
<title>pyVHDLModel.ModelEntity&#45;&gt;pyVHDLModel.SyntaxModel.Obj</title>
<path fill="none" stroke="black" stroke-width="0.5" d="M169.53,-40.12C186.67,-38.61 205.15,-36.99 222.96,-35.42"/>
<polygon fill="black" stroke="black" stroke-width="0.5" points="223.13,-37.16 227.96,-34.98 222.83,-33.68 223.13,-37.16"/>
</g>
<!-- pyVHDLModel.MultipleNamedEntity -->
<g id="node5" class="node">
<title>pyVHDLModel.MultipleNamedEntity</title>
<g id="a_node5"><a xlink:title="A ``MultipleNamedEntity`` is a mixin class for all VHDL entities that declare">
<polygon fill="none" stroke="black" stroke-width="0.5" points="192,-19 0,-19 0,0 192,0 192,-19"/>
<text text-anchor="middle" x="96" y="-7" font-family="Vera Sans, DejaVu Sans, Liberation Sans, Arial, Helvetica, sans" font-size="10.00">pyVHDLModel.MultipleNamedEntity</text>
</a>
</g>
</g>
<!-- pyVHDLModel.MultipleNamedEntity&#45;&gt;pyVHDLModel.SyntaxModel.Obj -->
<g id="edge4" class="edge">
<title>pyVHDLModel.MultipleNamedEntity&#45;&gt;pyVHDLModel.SyntaxModel.Obj</title>
<path fill="none" stroke="black" stroke-width="0.5" d="M192.06,-17.42C202.18,-18.26 212.45,-19.12 222.51,-19.96"/>
<polygon fill="black" stroke="black" stroke-width="0.5" points="222.63,-21.73 227.76,-20.4 222.92,-18.24 222.63,-21.73"/>
</g>
<!-- pyVHDLModel.SyntaxModel.Obj&#45;&gt;pyVHDLModel.SyntaxModel.SharedVariable -->
<g id="edge5" class="edge">
<title>pyVHDLModel.SyntaxModel.Obj&#45;&gt;pyVHDLModel.SyntaxModel.SharedVariable</title>
<path fill="none" stroke="black" stroke-width="0.5" d="M400.32,-27.5C410.23,-27.5 420.46,-27.5 430.71,-27.5"/>
<polygon fill="black" stroke="black" stroke-width="0.5" points="430.74,-29.25 435.74,-27.5 430.74,-25.75 430.74,-29.25"/>
</g>
</g>
</svg>
