<?xml version="1.0" encoding="UTF-8" standalone="no"?>
<!DOCTYPE svg PUBLIC "-//W3C//DTD SVG 1.1//EN"
 "http://www.w3.org/Graphics/SVG/1.1/DTD/svg11.dtd">
<!-- Generated by graphviz version 2.43.0 (0)
 -->
<!-- Title: inheritancea7b7b84acd Pages: 1 -->
<svg width="576pt" height="88pt"
 viewBox="0.00 0.00 576.00 87.75" xmlns="http://www.w3.org/2000/svg" xmlns:xlink="http://www.w3.org/1999/xlink">
<g id="graph0" class="graph" transform="scale(1.15 1.15) rotate(0) translate(4 97)">
<title>inheritancea7b7b84acd</title>
<polygon fill="white" stroke="transparent" points="-4,4 -4,-97 659,-97 659,4 -4,4"/>
<!-- pyAttributes.ArgParseAttributes.ArgParseMixin -->
<g id="node1" class="node">
<title>pyAttributes.ArgParseAttributes.ArgParseMixin</title>
<g id="a_node1"><a xlink:title="Mixin&#45;class to implement an :mod:`argparse`&#45;base command line argument">
<polygon fill="none" stroke="black" stroke-width="0.5" points="466,-19 223,-19 223,0 466,0 466,-19"/>
<text text-anchor="middle" x="344.5" y="-7" font-family="Vera Sans, DejaVu Sans, Liberation Sans, Arial, Helvetica, sans" font-size="10.00">pyAttributes.ArgParseAttributes.ArgParseMixin</text>
</a>
</g>
</g>
<!-- pyGHDL.cli.dom.Application -->
<g id="node3" class="node">
<title>pyGHDL.cli.dom.Application</title>
<g id="a_node3"><a xlink:href="../pyGHDL/pyGHDL.cli.dom.html#pyGHDL.cli.dom.Application" xlink:title="pyGHDL.cli.dom.Application" target="_top">
<polygon fill="none" stroke="black" stroke-width="0.5" points="655,-37 502,-37 502,-18 655,-18 655,-37"/>
<text text-anchor="middle" x="578.5" y="-25" font-family="Vera Sans, DejaVu Sans, Liberation Sans, Arial, Helvetica, sans" font-size="10.00">pyGHDL.cli.dom.Application</text>
</a>
</g>
</g>
<!-- pyAttributes.ArgParseAttributes.ArgParseMixin&#45;&gt;pyGHDL.cli.dom.Application -->
<g id="edge3" class="edge">
<title>pyAttributes.ArgParseAttributes.ArgParseMixin&#45;&gt;pyGHDL.cli.dom.Application</title>
<path fill="none" stroke="black" stroke-width="0.5" d="M466.26,-18.87C476.57,-19.67 486.83,-20.47 496.72,-21.23"/>
<polygon fill="black" stroke="black" stroke-width="0.5" points="496.73,-22.99 501.85,-21.63 497,-19.5 496.73,-22.99"/>
</g>
<!-- pyAttributes.AttributeHelperMixin -->
<g id="node2" class="node">
<title>pyAttributes.AttributeHelperMixin</title>
<g id="a_node2"><a xlink:title="A mixin class to ease finding methods with attached pyAttributes.">
<polygon fill="none" stroke="black" stroke-width="0.5" points="184.5,-19 2.5,-19 2.5,0 184.5,0 184.5,-19"/>
<text text-anchor="middle" x="93.5" y="-7" font-family="Vera Sans, DejaVu Sans, Liberation Sans, Arial, Helvetica, sans" font-size="10.00">pyAttributes.AttributeHelperMixin</text>
</a>
</g>
</g>
<!-- pyAttributes.AttributeHelperMixin&#45;&gt;pyAttributes.ArgParseAttributes.ArgParseMixin -->
<g id="edge1" class="edge">
<title>pyAttributes.AttributeHelperMixin&#45;&gt;pyAttributes.ArgParseAttributes.ArgParseMixin</title>
<path fill="none" stroke="black" stroke-width="0.5" d="M184.75,-9.5C195.49,-9.5 206.6,-9.5 217.72,-9.5"/>
<polygon fill="black" stroke="black" stroke-width="0.5" points="217.83,-11.25 222.83,-9.5 217.83,-7.75 217.83,-11.25"/>
</g>
<!-- pyTooling.TerminalUI.LineTerminal -->
<g id="node4" class="node">
<title>pyTooling.TerminalUI.LineTerminal</title>
<polygon fill="none" stroke="black" stroke-width="0.5" points="436.5,-56 252.5,-56 252.5,-37 436.5,-37 436.5,-56"/>
<text text-anchor="middle" x="344.5" y="-44" font-family="Vera Sans, DejaVu Sans, Liberation Sans, Arial, Helvetica, sans" font-size="10.00">pyTooling.TerminalUI.LineTerminal</text>
</g>
<!-- pyTooling.TerminalUI.LineTerminal&#45;&gt;pyGHDL.cli.dom.Application -->
<g id="edge2" class="edge">
<title>pyTooling.TerminalUI.LineTerminal&#45;&gt;pyGHDL.cli.dom.Application</title>
<path fill="none" stroke="black" stroke-width="0.5" d="M436.53,-39.05C456.25,-37.43 476.99,-35.73 496.31,-34.15"/>
<polygon fill="black" stroke="black" stroke-width="0.5" points="496.88,-35.86 501.72,-33.71 496.59,-32.37 496.88,-35.86"/>
</g>
<!-- pyTooling.TerminalUI.ILineTerminal -->
<g id="node5" class="node">
<title>pyTooling.TerminalUI.ILineTerminal</title>
<g id="a_node5"><a xlink:title="A mixin class (interface) to provide class&#45;local terminal writing methods.">
<polygon fill="none" stroke="black" stroke-width="0.5" points="187,-93 0,-93 0,-74 187,-74 187,-93"/>
<text text-anchor="middle" x="93.5" y="-81" font-family="Vera Sans, DejaVu Sans, Liberation Sans, Arial, Helvetica, sans" font-size="10.00">pyTooling.TerminalUI.ILineTerminal</text>
</a>
</g>
</g>
<!-- pyTooling.TerminalUI.ILineTerminal&#45;&gt;pyTooling.TerminalUI.LineTerminal -->
<g id="edge5" class="edge">
<title>pyTooling.TerminalUI.ILineTerminal&#45;&gt;pyTooling.TerminalUI.LineTerminal</title>
<path fill="none" stroke="black" stroke-width="0.5" d="M158.62,-73.97C193.92,-68.73 237.76,-62.21 273.89,-56.84"/>
<polygon fill="black" stroke="black" stroke-width="0.5" points="274.47,-58.53 279.16,-56.06 273.96,-55.06 274.47,-58.53"/>
</g>
<!-- pyTooling.TerminalUI.Terminal -->
<g id="node6" class="node">
<title>pyTooling.TerminalUI.Terminal</title>
<polygon fill="none" stroke="black" stroke-width="0.5" points="175.5,-56 11.5,-56 11.5,-37 175.5,-37 175.5,-56"/>
<text text-anchor="middle" x="93.5" y="-44" font-family="Vera Sans, DejaVu Sans, Liberation Sans, Arial, Helvetica, sans" font-size="10.00">pyTooling.TerminalUI.Terminal</text>
</g>
<!-- pyTooling.TerminalUI.Terminal&#45;&gt;pyTooling.TerminalUI.LineTerminal -->
<g id="edge4" class="edge">
<title>pyTooling.TerminalUI.Terminal&#45;&gt;pyTooling.TerminalUI.LineTerminal</title>
<path fill="none" stroke="black" stroke-width="0.5" d="M175.69,-46.5C198.48,-46.5 223.48,-46.5 247.06,-46.5"/>
<polygon fill="black" stroke="black" stroke-width="0.5" points="247.07,-48.25 252.07,-46.5 247.07,-44.75 247.07,-48.25"/>
</g>
</g>
</svg>
