<?xml version="1.0" encoding="UTF-8" standalone="no"?>
<!DOCTYPE svg PUBLIC "-//W3C//DTD SVG 1.1//EN"
 "http://www.w3.org/Graphics/SVG/1.1/DTD/svg11.dtd">
<!-- Generated by graphviz version 2.43.0 (0)
 -->
<!-- Title: inheritancee0e2a0e144 Pages: 1 -->
<svg width="576pt" height="24pt"
 viewBox="0.00 0.00 576.00 23.65" xmlns="http://www.w3.org/2000/svg" xmlns:xlink="http://www.w3.org/1999/xlink">
<g id="graph0" class="graph" transform="scale(2.71 2.71) rotate(0) translate(4 60)">
<title>inheritancee0e2a0e144</title>
<polygon fill="white" stroke="transparent" points="-4,4 -4,-60 1555,-60 1555,4 -4,4"/>
<!-- pyGHDL.dom.DOMMixin -->
<g id="node1" class="node">
<title>pyGHDL.dom.DOMMixin</title>
<g id="a_node1"><a xlink:href="../pyGHDL.dom.html#pyGHDL.dom.DOMMixin" xlink:title="pyGHDL.dom.DOMMixin" target="_top">
<polygon fill="none" stroke="black" stroke-width="0.5" points="1216.5,-56 1081.5,-56 1081.5,-37 1216.5,-37 1216.5,-56"/>
<text text-anchor="middle" x="1149" y="-44" font-family="Vera Sans, DejaVu Sans, Liberation Sans, Arial, Helvetica, sans" font-size="10.00">pyGHDL.dom.DOMMixin</text>
</a>
</g>
</g>
<!-- pyGHDL.dom.Expression.LessThanExpression -->
<g id="node2" class="node">
<title>pyGHDL.dom.Expression.LessThanExpression</title>
<g id="a_node2"><a xlink:href="../pyGHDL/pyGHDL.dom.Expression.html#pyGHDL.dom.Expression.LessThanExpression" xlink:title="pyGHDL.dom.Expression.LessThanExpression" target="_top">
<polygon fill="none" stroke="black" stroke-width="0.5" points="1551,-37 1312,-37 1312,-18 1551,-18 1551,-37"/>
<text text-anchor="middle" x="1431.5" y="-25" font-family="Vera Sans, DejaVu Sans, Liberation Sans, Arial, Helvetica, sans" font-size="10.00">pyGHDL.dom.Expression.LessThanExpression</text>
</a>
</g>
</g>
<!-- pyGHDL.dom.DOMMixin&#45;&gt;pyGHDL.dom.Expression.LessThanExpression -->
<g id="edge2" class="edge">
<title>pyGHDL.dom.DOMMixin&#45;&gt;pyGHDL.dom.Expression.LessThanExpression</title>
<path fill="none" stroke="black" stroke-width="0.5" d="M1216.83,-41.97C1243.71,-40.15 1275.61,-37.99 1306.45,-35.9"/>
<polygon fill="black" stroke="black" stroke-width="0.5" points="1306.92,-37.63 1311.79,-35.54 1306.68,-34.13 1306.92,-37.63"/>
</g>
<!-- pyVHDLModel.SyntaxModel.LessThanExpression -->
<g id="node3" class="node">
<title>pyVHDLModel.SyntaxModel.LessThanExpression</title>
<polygon fill="none" stroke="black" stroke-width="0.5" points="1276,-19 1022,-19 1022,0 1276,0 1276,-19"/>
<text text-anchor="middle" x="1149" y="-7" font-family="Vera Sans, DejaVu Sans, Liberation Sans, Arial, Helvetica, sans" font-size="10.00">pyVHDLModel.SyntaxModel.LessThanExpression</text>
</g>
<!-- pyVHDLModel.SyntaxModel.LessThanExpression&#45;&gt;pyGHDL.dom.Expression.LessThanExpression -->
<g id="edge1" class="edge">
<title>pyVHDLModel.SyntaxModel.LessThanExpression&#45;&gt;pyGHDL.dom.Expression.LessThanExpression</title>
<path fill="none" stroke="black" stroke-width="0.5" d="M1276.3,-17.6C1286.33,-18.25 1296.46,-18.9 1306.47,-19.54"/>
<polygon fill="black" stroke="black" stroke-width="0.5" points="1306.59,-21.3 1311.7,-19.88 1306.82,-17.81 1306.59,-21.3"/>
</g>
<!-- pyVHDLModel.ModelEntity -->
<g id="node4" class="node">
<title>pyVHDLModel.ModelEntity</title>
<g id="a_node4"><a xlink:title="``ModelEntity`` is the base class for all classes in the VHDL language model,">
<polygon fill="none" stroke="black" stroke-width="0.5" points="147,-19 0,-19 0,0 147,0 147,-19"/>
<text text-anchor="middle" x="73.5" y="-7" font-family="Vera Sans, DejaVu Sans, Liberation Sans, Arial, Helvetica, sans" font-size="10.00">pyVHDLModel.ModelEntity</text>
</a>
</g>
</g>
<!-- pyVHDLModel.SyntaxModel.BaseExpression -->
<g id="node5" class="node">
<title>pyVHDLModel.SyntaxModel.BaseExpression</title>
<g id="a_node5"><a xlink:title="A ``BaseExpression`` is a base&#45;class for all expressions.">
<polygon fill="none" stroke="black" stroke-width="0.5" points="416,-19 183,-19 183,0 416,0 416,-19"/>
<text text-anchor="middle" x="299.5" y="-7" font-family="Vera Sans, DejaVu Sans, Liberation Sans, Arial, Helvetica, sans" font-size="10.00">pyVHDLModel.SyntaxModel.BaseExpression</text>
</a>
</g>
</g>
<!-- pyVHDLModel.ModelEntity&#45;&gt;pyVHDLModel.SyntaxModel.BaseExpression -->
<g id="edge3" class="edge">
<title>pyVHDLModel.ModelEntity&#45;&gt;pyVHDLModel.SyntaxModel.BaseExpression</title>
<path fill="none" stroke="black" stroke-width="0.5" d="M147.23,-9.5C157,-9.5 167.22,-9.5 177.55,-9.5"/>
<polygon fill="black" stroke="black" stroke-width="0.5" points="177.63,-11.25 182.63,-9.5 177.63,-7.75 177.63,-11.25"/>
</g>
<!-- pyVHDLModel.SyntaxModel.BinaryExpression -->
<g id="node6" class="node">
<title>pyVHDLModel.SyntaxModel.BinaryExpression</title>
<g id="a_node6"><a xlink:title="A ``BinaryExpression`` is a base&#45;class for all binary expressions.">
<polygon fill="none" stroke="black" stroke-width="0.5" points="692,-19 452,-19 452,0 692,0 692,-19"/>
<text text-anchor="middle" x="572" y="-7" font-family="Vera Sans, DejaVu Sans, Liberation Sans, Arial, Helvetica, sans" font-size="10.00">pyVHDLModel.SyntaxModel.BinaryExpression</text>
</a>
</g>
</g>
<!-- pyVHDLModel.SyntaxModel.BaseExpression&#45;&gt;pyVHDLModel.SyntaxModel.BinaryExpression -->
<g id="edge4" class="edge">
<title>pyVHDLModel.SyntaxModel.BaseExpression&#45;&gt;pyVHDLModel.SyntaxModel.BinaryExpression</title>
<path fill="none" stroke="black" stroke-width="0.5" d="M416,-9.5C426.03,-9.5 436.2,-9.5 446.3,-9.5"/>
<polygon fill="black" stroke="black" stroke-width="0.5" points="446.57,-11.25 451.57,-9.5 446.57,-7.75 446.57,-11.25"/>
</g>
<!-- pyVHDLModel.SyntaxModel.RelationalExpression -->
<g id="node7" class="node">
<title>pyVHDLModel.SyntaxModel.RelationalExpression</title>
<g id="a_node7"><a xlink:title="A ``RelationalExpression`` is a base&#45;class for all shifting expressions.">
<polygon fill="none" stroke="black" stroke-width="0.5" points="986,-19 728,-19 728,0 986,0 986,-19"/>
<text text-anchor="middle" x="857" y="-7" font-family="Vera Sans, DejaVu Sans, Liberation Sans, Arial, Helvetica, sans" font-size="10.00">pyVHDLModel.SyntaxModel.RelationalExpression</text>
</a>
</g>
</g>
<!-- pyVHDLModel.SyntaxModel.BinaryExpression&#45;&gt;pyVHDLModel.SyntaxModel.RelationalExpression -->
<g id="edge6" class="edge">
<title>pyVHDLModel.SyntaxModel.BinaryExpression&#45;&gt;pyVHDLModel.SyntaxModel.RelationalExpression</title>
<path fill="none" stroke="black" stroke-width="0.5" d="M692.2,-9.5C702.32,-9.5 712.6,-9.5 722.83,-9.5"/>
<polygon fill="black" stroke="black" stroke-width="0.5" points="722.84,-11.25 727.84,-9.5 722.84,-7.75 722.84,-11.25"/>
</g>
<!-- pyVHDLModel.SyntaxModel.RelationalExpression&#45;&gt;pyVHDLModel.SyntaxModel.LessThanExpression -->
<g id="edge5" class="edge">
<title>pyVHDLModel.SyntaxModel.RelationalExpression&#45;&gt;pyVHDLModel.SyntaxModel.LessThanExpression</title>
<path fill="none" stroke="black" stroke-width="0.5" d="M986.04,-9.5C996.12,-9.5 1006.31,-9.5 1016.41,-9.5"/>
<polygon fill="black" stroke="black" stroke-width="0.5" points="1016.68,-11.25 1021.68,-9.5 1016.68,-7.75 1016.68,-11.25"/>
</g>
</g>
</svg>
