<?xml version="1.0" encoding="UTF-8" standalone="no"?>
<!DOCTYPE svg PUBLIC "-//W3C//DTD SVG 1.1//EN"
 "http://www.w3.org/Graphics/SVG/1.1/DTD/svg11.dtd">
<!-- Generated by graphviz version 2.43.0 (0)
 -->
<!-- Title: inheritance78c203a763 Pages: 1 -->
<svg width="576pt" height="41pt"
 viewBox="0.00 0.00 576.00 41.14" xmlns="http://www.w3.org/2000/svg" xmlns:xlink="http://www.w3.org/1999/xlink">
<g id="graph0" class="graph" transform="scale(2.43 2.43) rotate(0) translate(4 96)">
<title>inheritance78c203a763</title>
<polygon fill="white" stroke="transparent" points="-4,4 -4,-96 1396,-96 1396,4 -4,4"/>
<!-- pyGHDL.dom.DOMMixin -->
<g id="node1" class="node">
<title>pyGHDL.dom.DOMMixin</title>
<g id="a_node1"><a xlink:href="../pyGHDL.dom.html#pyGHDL.dom.DOMMixin" xlink:title="pyGHDL.dom.DOMMixin" target="_top">
<polygon fill="none" stroke="black" stroke-width="0.5" points="964.5,-92 829.5,-92 829.5,-73 964.5,-73 964.5,-92"/>
<text text-anchor="middle" x="897" y="-80" font-family="Vera Sans, DejaVu Sans, Liberation Sans, Arial, Helvetica, sans" font-size="10.00">pyGHDL.dom.DOMMixin</text>
</a>
</g>
</g>
<!-- pyGHDL.dom.InterfaceItem.GenericProcedureInterfaceItem -->
<g id="node2" class="node">
<title>pyGHDL.dom.InterfaceItem.GenericProcedureInterfaceItem</title>
<g id="a_node2"><a xlink:href="../pyGHDL/pyGHDL.dom.InterfaceItem.html#pyGHDL.dom.InterfaceItem.GenericProcedureInterfaceItem" xlink:title="pyGHDL.dom.InterfaceItem.GenericProcedureInterfaceItem" target="_top">
<polygon fill="none" stroke="black" stroke-width="0.5" points="1392,-73 1087,-73 1087,-54 1392,-54 1392,-73"/>
<text text-anchor="middle" x="1239.5" y="-61" font-family="Vera Sans, DejaVu Sans, Liberation Sans, Arial, Helvetica, sans" font-size="10.00">pyGHDL.dom.InterfaceItem.GenericProcedureInterfaceItem</text>
</a>
</g>
</g>
<!-- pyGHDL.dom.DOMMixin&#45;&gt;pyGHDL.dom.InterfaceItem.GenericProcedureInterfaceItem -->
<g id="edge2" class="edge">
<title>pyGHDL.dom.DOMMixin&#45;&gt;pyGHDL.dom.InterfaceItem.GenericProcedureInterfaceItem</title>
<path fill="none" stroke="black" stroke-width="0.5" d="M964.87,-78.77C998.46,-76.89 1040.69,-74.54 1081.86,-72.24"/>
<polygon fill="black" stroke="black" stroke-width="0.5" points="1081.98,-73.99 1086.88,-71.96 1081.79,-70.49 1081.98,-73.99"/>
</g>
<!-- pyVHDLModel.SyntaxModel.GenericProcedureInterfaceItem -->
<g id="node3" class="node">
<title>pyVHDLModel.SyntaxModel.GenericProcedureInterfaceItem</title>
<polygon fill="none" stroke="black" stroke-width="0.5" points="1051,-55 743,-55 743,-36 1051,-36 1051,-55"/>
<text text-anchor="middle" x="897" y="-43" font-family="Vera Sans, DejaVu Sans, Liberation Sans, Arial, Helvetica, sans" font-size="10.00">pyVHDLModel.SyntaxModel.GenericProcedureInterfaceItem</text>
</g>
<!-- pyVHDLModel.SyntaxModel.GenericProcedureInterfaceItem&#45;&gt;pyGHDL.dom.InterfaceItem.GenericProcedureInterfaceItem -->
<g id="edge1" class="edge">
<title>pyVHDLModel.SyntaxModel.GenericProcedureInterfaceItem&#45;&gt;pyGHDL.dom.InterfaceItem.GenericProcedureInterfaceItem</title>
<path fill="none" stroke="black" stroke-width="0.5" d="M1051.32,-53.6C1061.39,-54.14 1071.54,-54.67 1081.63,-55.21"/>
<polygon fill="black" stroke="black" stroke-width="0.5" points="1081.81,-56.97 1086.9,-55.49 1081.99,-53.47 1081.81,-56.97"/>
</g>
<!-- pyVHDLModel.ModelEntity -->
<g id="node4" class="node">
<title>pyVHDLModel.ModelEntity</title>
<g id="a_node4"><a xlink:title="``ModelEntity`` is the base class for all classes in the VHDL language model,">
<polygon fill="none" stroke="black" stroke-width="0.5" points="149.5,-56 2.5,-56 2.5,-37 149.5,-37 149.5,-56"/>
<text text-anchor="middle" x="76" y="-44" font-family="Vera Sans, DejaVu Sans, Liberation Sans, Arial, Helvetica, sans" font-size="10.00">pyVHDLModel.ModelEntity</text>
</a>
</g>
</g>
<!-- pyVHDLModel.SyntaxModel.SubProgramm -->
<g id="node9" class="node">
<title>pyVHDLModel.SyntaxModel.SubProgramm</title>
<polygon fill="none" stroke="black" stroke-width="0.5" points="412,-37 188,-37 188,-18 412,-18 412,-37"/>
<text text-anchor="middle" x="300" y="-25" font-family="Vera Sans, DejaVu Sans, Liberation Sans, Arial, Helvetica, sans" font-size="10.00">pyVHDLModel.SyntaxModel.SubProgramm</text>
</g>
<!-- pyVHDLModel.ModelEntity&#45;&gt;pyVHDLModel.SyntaxModel.SubProgramm -->
<g id="edge7" class="edge">
<title>pyVHDLModel.ModelEntity&#45;&gt;pyVHDLModel.SyntaxModel.SubProgramm</title>
<path fill="none" stroke="black" stroke-width="0.5" d="M149.69,-40.28C160.33,-39.37 171.5,-38.41 182.74,-37.45"/>
<polygon fill="black" stroke="black" stroke-width="0.5" points="183.08,-39.18 187.91,-37.01 182.78,-35.69 183.08,-39.18"/>
</g>
<!-- pyVHDLModel.NamedEntity -->
<g id="node5" class="node">
<title>pyVHDLModel.NamedEntity</title>
<g id="a_node5"><a xlink:title="A ``NamedEntity`` is a mixin class for all VHDL entities that have identifiers.">
<polygon fill="none" stroke="black" stroke-width="0.5" points="152,-19 0,-19 0,0 152,0 152,-19"/>
<text text-anchor="middle" x="76" y="-7" font-family="Vera Sans, DejaVu Sans, Liberation Sans, Arial, Helvetica, sans" font-size="10.00">pyVHDLModel.NamedEntity</text>
</a>
</g>
</g>
<!-- pyVHDLModel.NamedEntity&#45;&gt;pyVHDLModel.SyntaxModel.SubProgramm -->
<g id="edge8" class="edge">
<title>pyVHDLModel.NamedEntity&#45;&gt;pyVHDLModel.SyntaxModel.SubProgramm</title>
<path fill="none" stroke="black" stroke-width="0.5" d="M152.16,-15.59C162,-16.39 172.25,-17.22 182.57,-18.06"/>
<polygon fill="black" stroke="black" stroke-width="0.5" points="182.52,-19.81 187.64,-18.47 182.8,-16.32 182.52,-19.81"/>
</g>
<!-- pyVHDLModel.SyntaxModel.GenericInterfaceItem -->
<g id="node6" class="node">
<title>pyVHDLModel.SyntaxModel.GenericInterfaceItem</title>
<g id="a_node6"><a xlink:title="A ``GenericInterfaceItem`` is a mixin class for all generic interface items.">
<polygon fill="none" stroke="black" stroke-width="0.5" points="707,-74 448,-74 448,-55 707,-55 707,-74"/>
<text text-anchor="middle" x="577.5" y="-62" font-family="Vera Sans, DejaVu Sans, Liberation Sans, Arial, Helvetica, sans" font-size="10.00">pyVHDLModel.SyntaxModel.GenericInterfaceItem</text>
</a>
</g>
</g>
<!-- pyVHDLModel.SyntaxModel.GenericInterfaceItem&#45;&gt;pyVHDLModel.SyntaxModel.GenericProcedureInterfaceItem -->
<g id="edge5" class="edge">
<title>pyVHDLModel.SyntaxModel.GenericInterfaceItem&#45;&gt;pyVHDLModel.SyntaxModel.GenericProcedureInterfaceItem</title>
<path fill="none" stroke="black" stroke-width="0.5" d="M707.18,-56.8C717.3,-56.19 727.59,-55.58 737.87,-54.96"/>
<polygon fill="black" stroke="black" stroke-width="0.5" points="738.03,-56.71 742.92,-54.66 737.83,-53.21 738.03,-56.71"/>
</g>
<!-- pyVHDLModel.SyntaxModel.InterfaceItem -->
<g id="node7" class="node">
<title>pyVHDLModel.SyntaxModel.InterfaceItem</title>
<g id="a_node7"><a xlink:title="An ``InterfaceItem`` is a base&#45;class for all mixin&#45;classes for all interface">
<polygon fill="none" stroke="black" stroke-width="0.5" points="410.5,-74 189.5,-74 189.5,-55 410.5,-55 410.5,-74"/>
<text text-anchor="middle" x="300" y="-62" font-family="Vera Sans, DejaVu Sans, Liberation Sans, Arial, Helvetica, sans" font-size="10.00">pyVHDLModel.SyntaxModel.InterfaceItem</text>
</a>
</g>
</g>
<!-- pyVHDLModel.SyntaxModel.InterfaceItem&#45;&gt;pyVHDLModel.SyntaxModel.GenericInterfaceItem -->
<g id="edge3" class="edge">
<title>pyVHDLModel.SyntaxModel.InterfaceItem&#45;&gt;pyVHDLModel.SyntaxModel.GenericInterfaceItem</title>
<path fill="none" stroke="black" stroke-width="0.5" d="M410.68,-64.5C421.12,-64.5 431.79,-64.5 442.43,-64.5"/>
<polygon fill="black" stroke="black" stroke-width="0.5" points="442.65,-66.25 447.65,-64.5 442.65,-62.75 442.65,-66.25"/>
</g>
<!-- pyVHDLModel.SyntaxModel.Procedure -->
<g id="node8" class="node">
<title>pyVHDLModel.SyntaxModel.Procedure</title>
<polygon fill="none" stroke="black" stroke-width="0.5" points="679.5,-37 475.5,-37 475.5,-18 679.5,-18 679.5,-37"/>
<text text-anchor="middle" x="577.5" y="-25" font-family="Vera Sans, DejaVu Sans, Liberation Sans, Arial, Helvetica, sans" font-size="10.00">pyVHDLModel.SyntaxModel.Procedure</text>
</g>
<!-- pyVHDLModel.SyntaxModel.Procedure&#45;&gt;pyVHDLModel.SyntaxModel.GenericProcedureInterfaceItem -->
<g id="edge4" class="edge">
<title>pyVHDLModel.SyntaxModel.Procedure&#45;&gt;pyVHDLModel.SyntaxModel.GenericProcedureInterfaceItem</title>
<path fill="none" stroke="black" stroke-width="0.5" d="M679.83,-33.24C698.4,-34.3 718.18,-35.42 737.95,-36.54"/>
<polygon fill="black" stroke="black" stroke-width="0.5" points="737.89,-38.29 742.98,-36.82 738.08,-34.79 737.89,-38.29"/>
</g>
<!-- pyVHDLModel.SyntaxModel.SubProgramm&#45;&gt;pyVHDLModel.SyntaxModel.Procedure -->
<g id="edge6" class="edge">
<title>pyVHDLModel.SyntaxModel.SubProgramm&#45;&gt;pyVHDLModel.SyntaxModel.Procedure</title>
<path fill="none" stroke="black" stroke-width="0.5" d="M412.26,-27.5C431.37,-27.5 451.19,-27.5 470.17,-27.5"/>
<polygon fill="black" stroke="black" stroke-width="0.5" points="470.5,-29.25 475.5,-27.5 470.5,-25.75 470.5,-29.25"/>
</g>
</g>
</svg>
