<?xml version="1.0" encoding="UTF-8" standalone="no"?>
<!DOCTYPE svg PUBLIC "-//W3C//DTD SVG 1.1//EN"
 "http://www.w3.org/Graphics/SVG/1.1/DTD/svg11.dtd">
<!-- Generated by graphviz version 2.43.0 (0)
 -->
<!-- Title: inheritancebaebe042c2 Pages: 1 -->
<svg width="576pt" height="55pt"
 viewBox="0.00 0.00 576.00 55.19" xmlns="http://www.w3.org/2000/svg" xmlns:xlink="http://www.w3.org/1999/xlink">
<g id="graph0" class="graph" transform="scale(1.16 1.16) rotate(0) translate(4 60)">
<title>inheritancebaebe042c2</title>
<polygon fill="white" stroke="transparent" points="-4,4 -4,-60 664,-60 664,4 -4,4"/>
<!-- pyGHDL.dom.DOMMixin -->
<g id="node1" class="node">
<title>pyGHDL.dom.DOMMixin</title>
<g id="a_node1"><a xlink:href="../pyGHDL.dom.html#pyGHDL.dom.DOMMixin" xlink:title="pyGHDL.dom.DOMMixin" target="_top">
<polygon fill="none" stroke="black" stroke-width="0.5" points="397.5,-56 262.5,-56 262.5,-37 397.5,-37 397.5,-56"/>
<text text-anchor="middle" x="330" y="-44" font-family="Vera Sans, DejaVu Sans, Liberation Sans, Arial, Helvetica, sans" font-size="10.00">pyGHDL.dom.DOMMixin</text>
</a>
</g>
</g>
<!-- pyGHDL.dom.Names.SimpleName -->
<g id="node2" class="node">
<title>pyGHDL.dom.Names.SimpleName</title>
<g id="a_node2"><a xlink:href="../pyGHDL/pyGHDL.dom.Names.html#pyGHDL.dom.Names.SimpleName" xlink:title="pyGHDL.dom.Names.SimpleName" target="_top">
<polygon fill="none" stroke="black" stroke-width="0.5" points="660,-37 475,-37 475,-18 660,-18 660,-37"/>
<text text-anchor="middle" x="567.5" y="-25" font-family="Vera Sans, DejaVu Sans, Liberation Sans, Arial, Helvetica, sans" font-size="10.00">pyGHDL.dom.Names.SimpleName</text>
</a>
</g>
</g>
<!-- pyGHDL.dom.DOMMixin&#45;&gt;pyGHDL.dom.Names.SimpleName -->
<g id="edge2" class="edge">
<title>pyGHDL.dom.DOMMixin&#45;&gt;pyGHDL.dom.Names.SimpleName</title>
<path fill="none" stroke="black" stroke-width="0.5" d="M397.54,-41.13C419.89,-39.33 445.3,-37.28 469.49,-35.33"/>
<polygon fill="black" stroke="black" stroke-width="0.5" points="469.8,-37.06 474.64,-34.91 469.51,-33.57 469.8,-37.06"/>
</g>
<!-- pyVHDLModel.SyntaxModel.SimpleName -->
<g id="node3" class="node">
<title>pyVHDLModel.SyntaxModel.SimpleName</title>
<polygon fill="none" stroke="black" stroke-width="0.5" points="439,-19 221,-19 221,0 439,0 439,-19"/>
<text text-anchor="middle" x="330" y="-7" font-family="Vera Sans, DejaVu Sans, Liberation Sans, Arial, Helvetica, sans" font-size="10.00">pyVHDLModel.SyntaxModel.SimpleName</text>
</g>
<!-- pyVHDLModel.SyntaxModel.SimpleName&#45;&gt;pyGHDL.dom.Names.SimpleName -->
<g id="edge1" class="edge">
<title>pyVHDLModel.SyntaxModel.SimpleName&#45;&gt;pyGHDL.dom.Names.SimpleName</title>
<path fill="none" stroke="black" stroke-width="0.5" d="M439.1,-17.76C449.29,-18.54 459.59,-19.33 469.66,-20.1"/>
<polygon fill="black" stroke="black" stroke-width="0.5" points="469.8,-21.86 474.91,-20.5 470.06,-18.37 469.8,-21.86"/>
</g>
<!-- pyVHDLModel.SyntaxModel.Name -->
<g id="node4" class="node">
<title>pyVHDLModel.SyntaxModel.Name</title>
<g id="a_node4"><a xlink:title="``Name`` is the base class for all *names* in the VHDL language model.">
<polygon fill="none" stroke="black" stroke-width="0.5" points="185,-19 0,-19 0,0 185,0 185,-19"/>
<text text-anchor="middle" x="92.5" y="-7" font-family="Vera Sans, DejaVu Sans, Liberation Sans, Arial, Helvetica, sans" font-size="10.00">pyVHDLModel.SyntaxModel.Name</text>
</a>
</g>
</g>
<!-- pyVHDLModel.SyntaxModel.Name&#45;&gt;pyVHDLModel.SyntaxModel.SimpleName -->
<g id="edge3" class="edge">
<title>pyVHDLModel.SyntaxModel.Name&#45;&gt;pyVHDLModel.SyntaxModel.SimpleName</title>
<path fill="none" stroke="black" stroke-width="0.5" d="M185.22,-9.5C195.21,-9.5 205.47,-9.5 215.67,-9.5"/>
<polygon fill="black" stroke="black" stroke-width="0.5" points="215.68,-11.25 220.68,-9.5 215.68,-7.75 215.68,-11.25"/>
</g>
</g>
</svg>
