<?xml version="1.0" encoding="UTF-8" standalone="no"?>
<!DOCTYPE svg PUBLIC "-//W3C//DTD SVG 1.1//EN"
 "http://www.w3.org/Graphics/SVG/1.1/DTD/svg11.dtd">
<!-- Generated by graphviz version 2.43.0 (0)
 -->
<!-- Title: inheritance4c2c8101e8 Pages: 1 -->
<svg width="576pt" height="52pt"
 viewBox="0.00 0.00 576.00 52.36" xmlns="http://www.w3.org/2000/svg" xmlns:xlink="http://www.w3.org/1999/xlink">
<g id="graph0" class="graph" transform="scale(1.22 1.22) rotate(0) translate(4 60)">
<title>inheritance4c2c8101e8</title>
<polygon fill="white" stroke="transparent" points="-4,4 -4,-60 700,-60 700,4 -4,4"/>
<!-- pyGHDL.dom.Concurrent.WaveformElement -->
<g id="node1" class="node">
<title>pyGHDL.dom.Concurrent.WaveformElement</title>
<g id="a_node1"><a xlink:href="../pyGHDL/pyGHDL.dom.Concurrent.html#pyGHDL.dom.Concurrent.WaveformElement" xlink:title="pyGHDL.dom.Concurrent.WaveformElement" target="_top">
<polygon fill="none" stroke="black" stroke-width="0.5" points="696,-37 465,-37 465,-18 696,-18 696,-37"/>
<text text-anchor="middle" x="580.5" y="-25" font-family="Vera Sans, DejaVu Sans, Liberation Sans, Arial, Helvetica, sans" font-size="10.00">pyGHDL.dom.Concurrent.WaveformElement</text>
</a>
</g>
</g>
<!-- pyVHDLModel.SyntaxModel.WaveformElement -->
<g id="node2" class="node">
<title>pyVHDLModel.SyntaxModel.WaveformElement</title>
<polygon fill="none" stroke="black" stroke-width="0.5" points="429,-56 183,-56 183,-37 429,-37 429,-56"/>
<text text-anchor="middle" x="306" y="-44" font-family="Vera Sans, DejaVu Sans, Liberation Sans, Arial, Helvetica, sans" font-size="10.00">pyVHDLModel.SyntaxModel.WaveformElement</text>
</g>
<!-- pyVHDLModel.SyntaxModel.WaveformElement&#45;&gt;pyGHDL.dom.Concurrent.WaveformElement -->
<g id="edge1" class="edge">
<title>pyVHDLModel.SyntaxModel.WaveformElement&#45;&gt;pyGHDL.dom.Concurrent.WaveformElement</title>
<path fill="none" stroke="black" stroke-width="0.5" d="M429.3,-37.97C439.3,-37.28 449.4,-36.57 459.39,-35.87"/>
<polygon fill="black" stroke="black" stroke-width="0.5" points="459.73,-37.61 464.6,-35.51 459.49,-34.11 459.73,-37.61"/>
</g>
<!-- pyGHDL.dom.DOMMixin -->
<g id="node3" class="node">
<title>pyGHDL.dom.DOMMixin</title>
<g id="a_node3"><a xlink:href="../pyGHDL.dom.html#pyGHDL.dom.DOMMixin" xlink:title="pyGHDL.dom.DOMMixin" target="_top">
<polygon fill="none" stroke="black" stroke-width="0.5" points="373.5,-19 238.5,-19 238.5,0 373.5,0 373.5,-19"/>
<text text-anchor="middle" x="306" y="-7" font-family="Vera Sans, DejaVu Sans, Liberation Sans, Arial, Helvetica, sans" font-size="10.00">pyGHDL.dom.DOMMixin</text>
</a>
</g>
</g>
<!-- pyGHDL.dom.DOMMixin&#45;&gt;pyGHDL.dom.Concurrent.WaveformElement -->
<g id="edge2" class="edge">
<title>pyGHDL.dom.DOMMixin&#45;&gt;pyGHDL.dom.Concurrent.WaveformElement</title>
<path fill="none" stroke="black" stroke-width="0.5" d="M373.66,-13.9C399.65,-15.62 430.26,-17.64 459.82,-19.59"/>
<polygon fill="black" stroke="black" stroke-width="0.5" points="459.83,-21.35 464.93,-19.93 460.06,-17.86 459.83,-21.35"/>
</g>
<!-- pyVHDLModel.ModelEntity -->
<g id="node4" class="node">
<title>pyVHDLModel.ModelEntity</title>
<g id="a_node4"><a xlink:title="``ModelEntity`` is the base class for all classes in the VHDL language model,">
<polygon fill="none" stroke="black" stroke-width="0.5" points="147,-56 0,-56 0,-37 147,-37 147,-56"/>
<text text-anchor="middle" x="73.5" y="-44" font-family="Vera Sans, DejaVu Sans, Liberation Sans, Arial, Helvetica, sans" font-size="10.00">pyVHDLModel.ModelEntity</text>
</a>
</g>
</g>
<!-- pyVHDLModel.ModelEntity&#45;&gt;pyVHDLModel.SyntaxModel.WaveformElement -->
<g id="edge3" class="edge">
<title>pyVHDLModel.ModelEntity&#45;&gt;pyVHDLModel.SyntaxModel.WaveformElement</title>
<path fill="none" stroke="black" stroke-width="0.5" d="M147.12,-46.5C156.98,-46.5 167.33,-46.5 177.82,-46.5"/>
<polygon fill="black" stroke="black" stroke-width="0.5" points="177.97,-48.25 182.97,-46.5 177.97,-44.75 177.97,-48.25"/>
</g>
</g>
</svg>
