<?xml version="1.0" encoding="UTF-8" standalone="no"?>
<!DOCTYPE svg PUBLIC "-//W3C//DTD SVG 1.1//EN"
 "http://www.w3.org/Graphics/SVG/1.1/DTD/svg11.dtd">
<!-- Generated by graphviz version 2.43.0 (0)
 -->
<!-- Title: inheritance9f6dc6c1f8 Pages: 1 -->
<svg width="576pt" height="31pt"
 viewBox="0.00 0.00 576.00 31.28" xmlns="http://www.w3.org/2000/svg" xmlns:xlink="http://www.w3.org/1999/xlink">
<g id="graph0" class="graph" transform="scale(2.62 2.62) rotate(0) translate(4 78)">
<title>inheritance9f6dc6c1f8</title>
<polygon fill="white" stroke="transparent" points="-4,4 -4,-78 1506,-78 1506,4 -4,4"/>
<!-- pyGHDL.dom.DOMMixin -->
<g id="node1" class="node">
<title>pyGHDL.dom.DOMMixin</title>
<g id="a_node1"><a xlink:href="../pyGHDL.dom.html#pyGHDL.dom.DOMMixin" xlink:title="pyGHDL.dom.DOMMixin" target="_top">
<polygon fill="none" stroke="black" stroke-width="0.5" points="1204.5,-74 1069.5,-74 1069.5,-55 1204.5,-55 1204.5,-74"/>
<text text-anchor="middle" x="1137" y="-62" font-family="Vera Sans, DejaVu Sans, Liberation Sans, Arial, Helvetica, sans" font-size="10.00">pyGHDL.dom.DOMMixin</text>
</a>
</g>
</g>
<!-- pyGHDL.dom.Sequential.CaseStatement -->
<g id="node2" class="node">
<title>pyGHDL.dom.Sequential.CaseStatement</title>
<g id="a_node2"><a xlink:href="../pyGHDL/pyGHDL.dom.Sequential.html#pyGHDL.dom.Sequential.CaseStatement" xlink:title="pyGHDL.dom.Sequential.CaseStatement" target="_top">
<polygon fill="none" stroke="black" stroke-width="0.5" points="1502,-55 1288,-55 1288,-36 1502,-36 1502,-55"/>
<text text-anchor="middle" x="1395" y="-43" font-family="Vera Sans, DejaVu Sans, Liberation Sans, Arial, Helvetica, sans" font-size="10.00">pyGHDL.dom.Sequential.CaseStatement</text>
</a>
</g>
</g>
<!-- pyGHDL.dom.DOMMixin&#45;&gt;pyGHDL.dom.Sequential.CaseStatement -->
<g id="edge2" class="edge">
<title>pyGHDL.dom.DOMMixin&#45;&gt;pyGHDL.dom.Sequential.CaseStatement</title>
<path fill="none" stroke="black" stroke-width="0.5" d="M1204.59,-59.56C1228.34,-57.79 1255.79,-55.76 1282.29,-53.79"/>
<polygon fill="black" stroke="black" stroke-width="0.5" points="1282.72,-55.51 1287.57,-53.4 1282.46,-52.02 1282.72,-55.51"/>
</g>
<!-- pyVHDLModel.SyntaxModel.CaseStatement -->
<g id="node3" class="node">
<title>pyVHDLModel.SyntaxModel.CaseStatement</title>
<polygon fill="none" stroke="black" stroke-width="0.5" points="1252,-37 1022,-37 1022,-18 1252,-18 1252,-37"/>
<text text-anchor="middle" x="1137" y="-25" font-family="Vera Sans, DejaVu Sans, Liberation Sans, Arial, Helvetica, sans" font-size="10.00">pyVHDLModel.SyntaxModel.CaseStatement</text>
</g>
<!-- pyVHDLModel.SyntaxModel.CaseStatement&#45;&gt;pyGHDL.dom.Sequential.CaseStatement -->
<g id="edge1" class="edge">
<title>pyVHDLModel.SyntaxModel.CaseStatement&#45;&gt;pyGHDL.dom.Sequential.CaseStatement</title>
<path fill="none" stroke="black" stroke-width="0.5" d="M1252.15,-35.53C1262.25,-36.24 1272.48,-36.96 1282.56,-37.66"/>
<polygon fill="black" stroke="black" stroke-width="0.5" points="1282.71,-39.43 1287.82,-38.03 1282.95,-35.94 1282.71,-39.43"/>
</g>
<!-- pyVHDLModel.LabeledEntity -->
<g id="node4" class="node">
<title>pyVHDLModel.LabeledEntity</title>
<g id="a_node4"><a xlink:title="A ``LabeledEntity`` is a mixin class for all VHDL entities that can have">
<polygon fill="none" stroke="black" stroke-width="0.5" points="155,-56 0,-56 0,-37 155,-37 155,-56"/>
<text text-anchor="middle" x="77.5" y="-44" font-family="Vera Sans, DejaVu Sans, Liberation Sans, Arial, Helvetica, sans" font-size="10.00">pyVHDLModel.LabeledEntity</text>
</a>
</g>
</g>
<!-- pyVHDLModel.SyntaxModel.Statement -->
<g id="node8" class="node">
<title>pyVHDLModel.SyntaxModel.Statement</title>
<polygon fill="none" stroke="black" stroke-width="0.5" points="397,-37 191,-37 191,-18 397,-18 397,-37"/>
<text text-anchor="middle" x="294" y="-25" font-family="Vera Sans, DejaVu Sans, Liberation Sans, Arial, Helvetica, sans" font-size="10.00">pyVHDLModel.SyntaxModel.Statement</text>
</g>
<!-- pyVHDLModel.LabeledEntity&#45;&gt;pyVHDLModel.SyntaxModel.Statement -->
<g id="edge7" class="edge">
<title>pyVHDLModel.LabeledEntity&#45;&gt;pyVHDLModel.SyntaxModel.Statement</title>
<path fill="none" stroke="black" stroke-width="0.5" d="M155.03,-39.72C164.96,-38.84 175.27,-37.93 185.58,-37.02"/>
<polygon fill="black" stroke="black" stroke-width="0.5" points="185.81,-38.75 190.64,-36.57 185.5,-35.27 185.81,-38.75"/>
</g>
<!-- pyVHDLModel.ModelEntity -->
<g id="node5" class="node">
<title>pyVHDLModel.ModelEntity</title>
<g id="a_node5"><a xlink:title="``ModelEntity`` is the base class for all classes in the VHDL language model,">
<polygon fill="none" stroke="black" stroke-width="0.5" points="151,-19 4,-19 4,0 151,0 151,-19"/>
<text text-anchor="middle" x="77.5" y="-7" font-family="Vera Sans, DejaVu Sans, Liberation Sans, Arial, Helvetica, sans" font-size="10.00">pyVHDLModel.ModelEntity</text>
</a>
</g>
</g>
<!-- pyVHDLModel.ModelEntity&#45;&gt;pyVHDLModel.SyntaxModel.Statement -->
<g id="edge6" class="edge">
<title>pyVHDLModel.ModelEntity&#45;&gt;pyVHDLModel.SyntaxModel.Statement</title>
<path fill="none" stroke="black" stroke-width="0.5" d="M151.12,-15.59C162.29,-16.53 174.01,-17.52 185.74,-18.5"/>
<polygon fill="black" stroke="black" stroke-width="0.5" points="185.64,-20.25 190.77,-18.92 185.93,-16.76 185.64,-20.25"/>
</g>
<!-- pyVHDLModel.SyntaxModel.CompoundStatement -->
<g id="node6" class="node">
<title>pyVHDLModel.SyntaxModel.CompoundStatement</title>
<g id="a_node6"><a xlink:title="A ``CompoundStatement`` is a base&#45;class for all compound statements.">
<polygon fill="none" stroke="black" stroke-width="0.5" points="986,-37 727,-37 727,-18 986,-18 986,-37"/>
<text text-anchor="middle" x="856.5" y="-25" font-family="Vera Sans, DejaVu Sans, Liberation Sans, Arial, Helvetica, sans" font-size="10.00">pyVHDLModel.SyntaxModel.CompoundStatement</text>
</a>
</g>
</g>
<!-- pyVHDLModel.SyntaxModel.CompoundStatement&#45;&gt;pyVHDLModel.SyntaxModel.CaseStatement -->
<g id="edge3" class="edge">
<title>pyVHDLModel.SyntaxModel.CompoundStatement&#45;&gt;pyVHDLModel.SyntaxModel.CaseStatement</title>
<path fill="none" stroke="black" stroke-width="0.5" d="M986.15,-27.5C996.23,-27.5 1006.37,-27.5 1016.38,-27.5"/>
<polygon fill="black" stroke="black" stroke-width="0.5" points="1016.6,-29.25 1021.6,-27.5 1016.6,-25.75 1016.6,-29.25"/>
</g>
<!-- pyVHDLModel.SyntaxModel.SequentialStatement -->
<g id="node7" class="node">
<title>pyVHDLModel.SyntaxModel.SequentialStatement</title>
<g id="a_node7"><a xlink:title="A ``SequentialStatement`` is a base&#45;class for all sequential statements.">
<polygon fill="none" stroke="black" stroke-width="0.5" points="691,-37 433,-37 433,-18 691,-18 691,-37"/>
<text text-anchor="middle" x="562" y="-25" font-family="Vera Sans, DejaVu Sans, Liberation Sans, Arial, Helvetica, sans" font-size="10.00">pyVHDLModel.SyntaxModel.SequentialStatement</text>
</a>
</g>
</g>
<!-- pyVHDLModel.SyntaxModel.SequentialStatement&#45;&gt;pyVHDLModel.SyntaxModel.CompoundStatement -->
<g id="edge4" class="edge">
<title>pyVHDLModel.SyntaxModel.SequentialStatement&#45;&gt;pyVHDLModel.SyntaxModel.CompoundStatement</title>
<path fill="none" stroke="black" stroke-width="0.5" d="M691.29,-27.5C701.36,-27.5 711.54,-27.5 721.64,-27.5"/>
<polygon fill="black" stroke="black" stroke-width="0.5" points="721.91,-29.25 726.91,-27.5 721.91,-25.75 721.91,-29.25"/>
</g>
<!-- pyVHDLModel.SyntaxModel.Statement&#45;&gt;pyVHDLModel.SyntaxModel.SequentialStatement -->
<g id="edge5" class="edge">
<title>pyVHDLModel.SyntaxModel.Statement&#45;&gt;pyVHDLModel.SyntaxModel.SequentialStatement</title>
<path fill="none" stroke="black" stroke-width="0.5" d="M397.08,-27.5C407.15,-27.5 417.48,-27.5 427.8,-27.5"/>
<polygon fill="black" stroke="black" stroke-width="0.5" points="427.87,-29.25 432.87,-27.5 427.87,-25.75 427.87,-29.25"/>
</g>
</g>
</svg>
