<?xml version="1.0" encoding="UTF-8" standalone="no"?>
<!DOCTYPE svg PUBLIC "-//W3C//DTD SVG 1.1//EN"
 "http://www.w3.org/Graphics/SVG/1.1/DTD/svg11.dtd">
<!-- Generated by graphviz version 2.43.0 (0)
 -->
<!-- Title: inheritance5912f8c52e Pages: 1 -->
<svg width="576pt" height="39pt"
 viewBox="0.00 0.00 576.00 39.22" xmlns="http://www.w3.org/2000/svg" xmlns:xlink="http://www.w3.org/1999/xlink">
<g id="graph0" class="graph" transform="scale(1.63 1.63) rotate(0) translate(4 60)">
<title>inheritance5912f8c52e</title>
<polygon fill="white" stroke="transparent" points="-4,4 -4,-60 936,-60 936,4 -4,4"/>
<!-- pyGHDL.dom.DOMMixin -->
<g id="node1" class="node">
<title>pyGHDL.dom.DOMMixin</title>
<g id="a_node1"><a xlink:href="../pyGHDL.dom.html#pyGHDL.dom.DOMMixin" xlink:title="pyGHDL.dom.DOMMixin" target="_top">
<polygon fill="none" stroke="black" stroke-width="0.5" points="613,-56 478,-56 478,-37 613,-37 613,-56"/>
<text text-anchor="middle" x="545.5" y="-44" font-family="Vera Sans, DejaVu Sans, Liberation Sans, Arial, Helvetica, sans" font-size="10.00">pyGHDL.dom.DOMMixin</text>
</a>
</g>
</g>
<!-- pyGHDL.dom.DesignUnit.ContextReference -->
<g id="node2" class="node">
<title>pyGHDL.dom.DesignUnit.ContextReference</title>
<g id="a_node2"><a xlink:href="../pyGHDL/pyGHDL.dom.DesignUnit.html#pyGHDL.dom.DesignUnit.ContextReference" xlink:title="pyGHDL.dom.DesignUnit.ContextReference" target="_top">
<polygon fill="none" stroke="black" stroke-width="0.5" points="932,-37 703,-37 703,-18 932,-18 932,-37"/>
<text text-anchor="middle" x="817.5" y="-25" font-family="Vera Sans, DejaVu Sans, Liberation Sans, Arial, Helvetica, sans" font-size="10.00">pyGHDL.dom.DesignUnit.ContextReference</text>
</a>
</g>
</g>
<!-- pyGHDL.dom.DOMMixin&#45;&gt;pyGHDL.dom.DesignUnit.ContextReference -->
<g id="edge2" class="edge">
<title>pyGHDL.dom.DOMMixin&#45;&gt;pyGHDL.dom.DesignUnit.ContextReference</title>
<path fill="none" stroke="black" stroke-width="0.5" d="M613.24,-41.8C638.85,-40 668.91,-37.89 697.95,-35.84"/>
<polygon fill="black" stroke="black" stroke-width="0.5" points="698.11,-37.59 702.97,-35.49 697.86,-34.09 698.11,-37.59"/>
</g>
<!-- pyVHDLModel.SyntaxModel.ContextReference -->
<g id="node3" class="node">
<title>pyVHDLModel.SyntaxModel.ContextReference</title>
<polygon fill="none" stroke="black" stroke-width="0.5" points="667,-19 424,-19 424,0 667,0 667,-19"/>
<text text-anchor="middle" x="545.5" y="-7" font-family="Vera Sans, DejaVu Sans, Liberation Sans, Arial, Helvetica, sans" font-size="10.00">pyVHDLModel.SyntaxModel.ContextReference</text>
</g>
<!-- pyVHDLModel.SyntaxModel.ContextReference&#45;&gt;pyGHDL.dom.DesignUnit.ContextReference -->
<g id="edge1" class="edge">
<title>pyVHDLModel.SyntaxModel.ContextReference&#45;&gt;pyGHDL.dom.DesignUnit.ContextReference</title>
<path fill="none" stroke="black" stroke-width="0.5" d="M667.29,-17.55C677.33,-18.22 687.48,-18.9 697.51,-19.57"/>
<polygon fill="black" stroke="black" stroke-width="0.5" points="697.64,-21.33 702.74,-19.92 697.87,-17.84 697.64,-21.33"/>
</g>
<!-- pyVHDLModel.ModelEntity -->
<g id="node4" class="node">
<title>pyVHDLModel.ModelEntity</title>
<g id="a_node4"><a xlink:title="``ModelEntity`` is the base class for all classes in the VHDL language model,">
<polygon fill="none" stroke="black" stroke-width="0.5" points="147,-19 0,-19 0,0 147,0 147,-19"/>
<text text-anchor="middle" x="73.5" y="-7" font-family="Vera Sans, DejaVu Sans, Liberation Sans, Arial, Helvetica, sans" font-size="10.00">pyVHDLModel.ModelEntity</text>
</a>
</g>
</g>
<!-- pyVHDLModel.SyntaxModel.Reference -->
<g id="node5" class="node">
<title>pyVHDLModel.SyntaxModel.Reference</title>
<polygon fill="none" stroke="black" stroke-width="0.5" points="388,-19 183,-19 183,0 388,0 388,-19"/>
<text text-anchor="middle" x="285.5" y="-7" font-family="Vera Sans, DejaVu Sans, Liberation Sans, Arial, Helvetica, sans" font-size="10.00">pyVHDLModel.SyntaxModel.Reference</text>
</g>
<!-- pyVHDLModel.ModelEntity&#45;&gt;pyVHDLModel.SyntaxModel.Reference -->
<g id="edge4" class="edge">
<title>pyVHDLModel.ModelEntity&#45;&gt;pyVHDLModel.SyntaxModel.Reference</title>
<path fill="none" stroke="black" stroke-width="0.5" d="M147.06,-9.5C156.95,-9.5 167.25,-9.5 177.59,-9.5"/>
<polygon fill="black" stroke="black" stroke-width="0.5" points="177.66,-11.25 182.66,-9.5 177.66,-7.75 177.66,-11.25"/>
</g>
<!-- pyVHDLModel.SyntaxModel.Reference&#45;&gt;pyVHDLModel.SyntaxModel.ContextReference -->
<g id="edge3" class="edge">
<title>pyVHDLModel.SyntaxModel.Reference&#45;&gt;pyVHDLModel.SyntaxModel.ContextReference</title>
<path fill="none" stroke="black" stroke-width="0.5" d="M388.1,-9.5C398.16,-9.5 408.45,-9.5 418.71,-9.5"/>
<polygon fill="black" stroke="black" stroke-width="0.5" points="418.75,-11.25 423.75,-9.5 418.75,-7.75 418.75,-11.25"/>
</g>
</g>
</svg>
