<?xml version="1.0" encoding="UTF-8" standalone="no"?>
<!DOCTYPE svg PUBLIC "-//W3C//DTD SVG 1.1//EN"
 "http://www.w3.org/Graphics/SVG/1.1/DTD/svg11.dtd">
<!-- Generated by graphviz version 2.43.0 (0)
 -->
<!-- Title: inheritance5944f6e491 Pages: 1 -->
<svg width="576pt" height="64pt"
 viewBox="0.00 0.00 576.00 64.36" xmlns="http://www.w3.org/2000/svg" xmlns:xlink="http://www.w3.org/1999/xlink">
<g id="graph0" class="graph" transform="scale(2.14 2.14) rotate(0) translate(4 134)">
<title>inheritance5944f6e491</title>
<polygon fill="white" stroke="transparent" points="-4,4 -4,-134 1231,-134 1231,4 -4,4"/>
<!-- pyGHDL.dom.Concurrent.GenerateCase -->
<g id="node1" class="node">
<title>pyGHDL.dom.Concurrent.GenerateCase</title>
<g id="a_node1"><a xlink:href="../pyGHDL/pyGHDL.dom.Concurrent.html#pyGHDL.dom.Concurrent.GenerateCase" xlink:title="pyGHDL.dom.Concurrent.GenerateCase" target="_top">
<polygon fill="none" stroke="black" stroke-width="0.5" points="1227,-55 1018,-55 1018,-36 1227,-36 1227,-55"/>
<text text-anchor="middle" x="1122.5" y="-43" font-family="Vera Sans, DejaVu Sans, Liberation Sans, Arial, Helvetica, sans" font-size="10.00">pyGHDL.dom.Concurrent.GenerateCase</text>
</a>
</g>
</g>
<!-- pyVHDLModel.SyntaxModel.GenerateCase -->
<g id="node2" class="node">
<title>pyVHDLModel.SyntaxModel.GenerateCase</title>
<polygon fill="none" stroke="black" stroke-width="0.5" points="982,-74 758,-74 758,-55 982,-55 982,-74"/>
<text text-anchor="middle" x="870" y="-62" font-family="Vera Sans, DejaVu Sans, Liberation Sans, Arial, Helvetica, sans" font-size="10.00">pyVHDLModel.SyntaxModel.GenerateCase</text>
</g>
<!-- pyVHDLModel.SyntaxModel.GenerateCase&#45;&gt;pyGHDL.dom.Concurrent.GenerateCase -->
<g id="edge1" class="edge">
<title>pyVHDLModel.SyntaxModel.GenerateCase&#45;&gt;pyGHDL.dom.Concurrent.GenerateCase</title>
<path fill="none" stroke="black" stroke-width="0.5" d="M982.33,-56.06C992.35,-55.3 1002.48,-54.53 1012.48,-53.77"/>
<polygon fill="black" stroke="black" stroke-width="0.5" points="1012.83,-55.5 1017.69,-53.37 1012.57,-52.01 1012.83,-55.5"/>
</g>
<!-- pyGHDL.dom.DOMMixin -->
<g id="node3" class="node">
<title>pyGHDL.dom.DOMMixin</title>
<g id="a_node3"><a xlink:href="../pyGHDL.dom.html#pyGHDL.dom.DOMMixin" xlink:title="pyGHDL.dom.DOMMixin" target="_top">
<polygon fill="none" stroke="black" stroke-width="0.5" points="937.5,-37 802.5,-37 802.5,-18 937.5,-18 937.5,-37"/>
<text text-anchor="middle" x="870" y="-25" font-family="Vera Sans, DejaVu Sans, Liberation Sans, Arial, Helvetica, sans" font-size="10.00">pyGHDL.dom.DOMMixin</text>
</a>
</g>
</g>
<!-- pyGHDL.dom.DOMMixin&#45;&gt;pyGHDL.dom.Concurrent.GenerateCase -->
<g id="edge2" class="edge">
<title>pyGHDL.dom.DOMMixin&#45;&gt;pyGHDL.dom.Concurrent.GenerateCase</title>
<path fill="none" stroke="black" stroke-width="0.5" d="M937.8,-32.3C960.76,-33.95 987.11,-35.84 1012.54,-37.67"/>
<polygon fill="black" stroke="black" stroke-width="0.5" points="1012.5,-39.42 1017.61,-38.03 1012.75,-35.93 1012.5,-39.42"/>
</g>
<!-- pyVHDLModel.LabeledEntity -->
<g id="node4" class="node">
<title>pyVHDLModel.LabeledEntity</title>
<g id="a_node4"><a xlink:title="A ``LabeledEntity`` is a mixin class for all VHDL entities that can have">
<polygon fill="none" stroke="black" stroke-width="0.5" points="395.5,-130 240.5,-130 240.5,-111 395.5,-111 395.5,-130"/>
<text text-anchor="middle" x="318" y="-118" font-family="Vera Sans, DejaVu Sans, Liberation Sans, Arial, Helvetica, sans" font-size="10.00">pyVHDLModel.LabeledEntity</text>
</a>
</g>
</g>
<!-- pyVHDLModel.SyntaxModel.ConcurrentCase -->
<g id="node7" class="node">
<title>pyVHDLModel.SyntaxModel.ConcurrentCase</title>
<polygon fill="none" stroke="black" stroke-width="0.5" points="722,-74 489,-74 489,-55 722,-55 722,-74"/>
<text text-anchor="middle" x="605.5" y="-62" font-family="Vera Sans, DejaVu Sans, Liberation Sans, Arial, Helvetica, sans" font-size="10.00">pyVHDLModel.SyntaxModel.ConcurrentCase</text>
</g>
<!-- pyVHDLModel.LabeledEntity&#45;&gt;pyVHDLModel.SyntaxModel.ConcurrentCase -->
<g id="edge5" class="edge">
<title>pyVHDLModel.LabeledEntity&#45;&gt;pyVHDLModel.SyntaxModel.ConcurrentCase</title>
<path fill="none" stroke="black" stroke-width="0.5" d="M395.77,-111.69C414.56,-109.13 434.56,-106.04 453,-102.5 491.77,-95.06 535.44,-83.79 565.89,-75.46"/>
<polygon fill="black" stroke="black" stroke-width="0.5" points="566.69,-77.05 571.04,-74.04 565.76,-73.68 566.69,-77.05"/>
</g>
<!-- pyVHDLModel.ModelEntity -->
<g id="node5" class="node">
<title>pyVHDLModel.ModelEntity</title>
<g id="a_node5"><a xlink:title="``ModelEntity`` is the base class for all classes in the VHDL language model,">
<polygon fill="none" stroke="black" stroke-width="0.5" points="147,-93 0,-93 0,-74 147,-74 147,-93"/>
<text text-anchor="middle" x="73.5" y="-81" font-family="Vera Sans, DejaVu Sans, Liberation Sans, Arial, Helvetica, sans" font-size="10.00">pyVHDLModel.ModelEntity</text>
</a>
</g>
</g>
<!-- pyVHDLModel.SyntaxModel.BaseCase -->
<g id="node6" class="node">
<title>pyVHDLModel.SyntaxModel.BaseCase</title>
<g id="a_node6"><a xlink:title="A ``Case`` is a base&#45;class for all cases.">
<polygon fill="none" stroke="black" stroke-width="0.5" points="419.5,-93 216.5,-93 216.5,-74 419.5,-74 419.5,-93"/>
<text text-anchor="middle" x="318" y="-81" font-family="Vera Sans, DejaVu Sans, Liberation Sans, Arial, Helvetica, sans" font-size="10.00">pyVHDLModel.SyntaxModel.BaseCase</text>
</a>
</g>
</g>
<!-- pyVHDLModel.ModelEntity&#45;&gt;pyVHDLModel.SyntaxModel.BaseCase -->
<g id="edge3" class="edge">
<title>pyVHDLModel.ModelEntity&#45;&gt;pyVHDLModel.SyntaxModel.BaseCase</title>
<path fill="none" stroke="black" stroke-width="0.5" d="M147.26,-83.5C167.41,-83.5 189.69,-83.5 211.31,-83.5"/>
<polygon fill="black" stroke="black" stroke-width="0.5" points="211.5,-85.25 216.49,-83.5 211.49,-81.75 211.5,-85.25"/>
</g>
<!-- pyVHDLModel.SyntaxModel.BaseCase&#45;&gt;pyVHDLModel.SyntaxModel.ConcurrentCase -->
<g id="edge4" class="edge">
<title>pyVHDLModel.SyntaxModel.BaseCase&#45;&gt;pyVHDLModel.SyntaxModel.ConcurrentCase</title>
<path fill="none" stroke="black" stroke-width="0.5" d="M419.66,-76.8C440.32,-75.43 462.27,-73.97 483.55,-72.55"/>
<polygon fill="black" stroke="black" stroke-width="0.5" points="483.79,-74.29 488.66,-72.21 483.56,-70.8 483.79,-74.29"/>
</g>
<!-- pyVHDLModel.SyntaxModel.ConcurrentCase&#45;&gt;pyVHDLModel.SyntaxModel.GenerateCase -->
<g id="edge8" class="edge">
<title>pyVHDLModel.SyntaxModel.ConcurrentCase&#45;&gt;pyVHDLModel.SyntaxModel.GenerateCase</title>
<path fill="none" stroke="black" stroke-width="0.5" d="M722.02,-64.5C732.09,-64.5 742.29,-64.5 752.37,-64.5"/>
<polygon fill="black" stroke="black" stroke-width="0.5" points="752.63,-66.25 757.63,-64.5 752.63,-62.75 752.63,-66.25"/>
</g>
<!-- pyVHDLModel.SyntaxModel.ConcurrentDeclarations -->
<g id="node8" class="node">
<title>pyVHDLModel.SyntaxModel.ConcurrentDeclarations</title>
<polygon fill="none" stroke="black" stroke-width="0.5" points="453,-56 183,-56 183,-37 453,-37 453,-56"/>
<text text-anchor="middle" x="318" y="-44" font-family="Vera Sans, DejaVu Sans, Liberation Sans, Arial, Helvetica, sans" font-size="10.00">pyVHDLModel.SyntaxModel.ConcurrentDeclarations</text>
</g>
<!-- pyVHDLModel.SyntaxModel.ConcurrentDeclarations&#45;&gt;pyVHDLModel.SyntaxModel.ConcurrentCase -->
<g id="edge6" class="edge">
<title>pyVHDLModel.SyntaxModel.ConcurrentDeclarations&#45;&gt;pyVHDLModel.SyntaxModel.ConcurrentCase</title>
<path fill="none" stroke="black" stroke-width="0.5" d="M453.39,-54.97C463.49,-55.61 473.64,-56.25 483.65,-56.88"/>
<polygon fill="black" stroke="black" stroke-width="0.5" points="483.77,-58.64 488.87,-57.21 483.99,-55.15 483.77,-58.64"/>
</g>
<!-- pyVHDLModel.SyntaxModel.ConcurrentStatements -->
<g id="node9" class="node">
<title>pyVHDLModel.SyntaxModel.ConcurrentStatements</title>
<polygon fill="none" stroke="black" stroke-width="0.5" points="450.5,-19 185.5,-19 185.5,0 450.5,0 450.5,-19"/>
<text text-anchor="middle" x="318" y="-7" font-family="Vera Sans, DejaVu Sans, Liberation Sans, Arial, Helvetica, sans" font-size="10.00">pyVHDLModel.SyntaxModel.ConcurrentStatements</text>
</g>
<!-- pyVHDLModel.SyntaxModel.ConcurrentStatements&#45;&gt;pyVHDLModel.SyntaxModel.ConcurrentCase -->
<g id="edge7" class="edge">
<title>pyVHDLModel.SyntaxModel.ConcurrentStatements&#45;&gt;pyVHDLModel.SyntaxModel.ConcurrentCase</title>
<path fill="none" stroke="black" stroke-width="0.5" d="M400.36,-19.02C417.78,-21.45 436.05,-24.3 453,-27.5 491.23,-34.71 534.27,-45.49 564.68,-53.55"/>
<polygon fill="black" stroke="black" stroke-width="0.5" points="564.55,-55.33 569.83,-54.92 565.45,-51.94 564.55,-55.33"/>
</g>
</g>
</svg>
