<?xml version="1.0" encoding="UTF-8" standalone="no"?>
<!DOCTYPE svg PUBLIC "-//W3C//DTD SVG 1.1//EN"
 "http://www.w3.org/Graphics/SVG/1.1/DTD/svg11.dtd">
<!-- Generated by graphviz version 2.43.0 (0)
 -->
<!-- Title: inheritance221adf89f0 Pages: 1 -->
<svg width="576pt" height="38pt"
 viewBox="0.00 0.00 576.00 37.73" xmlns="http://www.w3.org/2000/svg" xmlns:xlink="http://www.w3.org/1999/xlink">
<g id="graph0" class="graph" transform="scale(2.17 2.17) rotate(0) translate(4 78)">
<title>inheritance221adf89f0</title>
<polygon fill="white" stroke="transparent" points="-4,4 -4,-78 1248,-78 1248,4 -4,4"/>
<!-- pyGHDL.dom.DOMMixin -->
<g id="node1" class="node">
<title>pyGHDL.dom.DOMMixin</title>
<g id="a_node1"><a xlink:href="../pyGHDL.dom.html#pyGHDL.dom.DOMMixin" xlink:title="pyGHDL.dom.DOMMixin" target="_top">
<polygon fill="none" stroke="black" stroke-width="0.5" points="979,-74 844,-74 844,-55 979,-55 979,-74"/>
<text text-anchor="middle" x="911.5" y="-62" font-family="Vera Sans, DejaVu Sans, Liberation Sans, Arial, Helvetica, sans" font-size="10.00">pyGHDL.dom.DOMMixin</text>
</a>
</g>
</g>
<!-- pyGHDL.dom.PSL.VerificationMode -->
<g id="node2" class="node">
<title>pyGHDL.dom.PSL.VerificationMode</title>
<g id="a_node2"><a xlink:href="../pyGHDL/pyGHDL.dom.PSL.html#pyGHDL.dom.PSL.VerificationMode" xlink:title="pyGHDL.dom.PSL.VerificationMode" target="_top">
<polygon fill="none" stroke="black" stroke-width="0.5" points="1244,-55 1058,-55 1058,-36 1244,-36 1244,-55"/>
<text text-anchor="middle" x="1151" y="-43" font-family="Vera Sans, DejaVu Sans, Liberation Sans, Arial, Helvetica, sans" font-size="10.00">pyGHDL.dom.PSL.VerificationMode</text>
</a>
</g>
</g>
<!-- pyGHDL.dom.DOMMixin&#45;&gt;pyGHDL.dom.PSL.VerificationMode -->
<g id="edge2" class="edge">
<title>pyGHDL.dom.DOMMixin&#45;&gt;pyGHDL.dom.PSL.VerificationMode</title>
<path fill="none" stroke="black" stroke-width="0.5" d="M979.29,-59.16C1001.96,-57.34 1027.78,-55.28 1052.35,-53.31"/>
<polygon fill="black" stroke="black" stroke-width="0.5" points="1052.73,-55.04 1057.58,-52.89 1052.45,-51.55 1052.73,-55.04"/>
</g>
<!-- pyVHDLModel.PSLModel.VerificationMode -->
<g id="node3" class="node">
<title>pyVHDLModel.PSLModel.VerificationMode</title>
<polygon fill="none" stroke="black" stroke-width="0.5" points="1022,-37 801,-37 801,-18 1022,-18 1022,-37"/>
<text text-anchor="middle" x="911.5" y="-25" font-family="Vera Sans, DejaVu Sans, Liberation Sans, Arial, Helvetica, sans" font-size="10.00">pyVHDLModel.PSLModel.VerificationMode</text>
</g>
<!-- pyVHDLModel.PSLModel.VerificationMode&#45;&gt;pyGHDL.dom.PSL.VerificationMode -->
<g id="edge1" class="edge">
<title>pyVHDLModel.PSLModel.VerificationMode&#45;&gt;pyGHDL.dom.PSL.VerificationMode</title>
<path fill="none" stroke="black" stroke-width="0.5" d="M1022.21,-35.82C1032.36,-36.58 1042.59,-37.36 1052.61,-38.12"/>
<polygon fill="black" stroke="black" stroke-width="0.5" points="1052.71,-39.88 1057.83,-38.51 1052.97,-36.39 1052.71,-39.88"/>
</g>
<!-- pyVHDLModel.DesignUnit -->
<g id="node4" class="node">
<title>pyVHDLModel.DesignUnit</title>
<g id="a_node4"><a xlink:title="A ``DesignUnit`` is a base&#45;class for all design units.">
<polygon fill="none" stroke="black" stroke-width="0.5" points="331,-37 188,-37 188,-18 331,-18 331,-37"/>
<text text-anchor="middle" x="259.5" y="-25" font-family="Vera Sans, DejaVu Sans, Liberation Sans, Arial, Helvetica, sans" font-size="10.00">pyVHDLModel.DesignUnit</text>
</a>
</g>
</g>
<!-- pyVHDLModel.PrimaryUnit -->
<g id="node8" class="node">
<title>pyVHDLModel.PrimaryUnit</title>
<g id="a_node8"><a xlink:title="A ``PrimaryUnit`` is a base&#45;class for all primary units.">
<polygon fill="none" stroke="black" stroke-width="0.5" points="514,-37 367,-37 367,-18 514,-18 514,-37"/>
<text text-anchor="middle" x="440.5" y="-25" font-family="Vera Sans, DejaVu Sans, Liberation Sans, Arial, Helvetica, sans" font-size="10.00">pyVHDLModel.PrimaryUnit</text>
</a>
</g>
</g>
<!-- pyVHDLModel.DesignUnit&#45;&gt;pyVHDLModel.PrimaryUnit -->
<g id="edge7" class="edge">
<title>pyVHDLModel.DesignUnit&#45;&gt;pyVHDLModel.PrimaryUnit</title>
<path fill="none" stroke="black" stroke-width="0.5" d="M331.25,-27.5C341.23,-27.5 351.54,-27.5 361.65,-27.5"/>
<polygon fill="black" stroke="black" stroke-width="0.5" points="361.92,-29.25 366.92,-27.5 361.92,-25.75 361.92,-29.25"/>
</g>
<!-- pyVHDLModel.ModelEntity -->
<g id="node5" class="node">
<title>pyVHDLModel.ModelEntity</title>
<g id="a_node5"><a xlink:title="``ModelEntity`` is the base class for all classes in the VHDL language model,">
<polygon fill="none" stroke="black" stroke-width="0.5" points="149.5,-56 2.5,-56 2.5,-37 149.5,-37 149.5,-56"/>
<text text-anchor="middle" x="76" y="-44" font-family="Vera Sans, DejaVu Sans, Liberation Sans, Arial, Helvetica, sans" font-size="10.00">pyVHDLModel.ModelEntity</text>
</a>
</g>
</g>
<!-- pyVHDLModel.ModelEntity&#45;&gt;pyVHDLModel.DesignUnit -->
<g id="edge3" class="edge">
<title>pyVHDLModel.ModelEntity&#45;&gt;pyVHDLModel.DesignUnit</title>
<path fill="none" stroke="black" stroke-width="0.5" d="M149.52,-38.91C160.48,-37.76 171.81,-36.58 182.83,-35.42"/>
<polygon fill="black" stroke="black" stroke-width="0.5" points="183.08,-37.15 187.87,-34.89 182.72,-33.67 183.08,-37.15"/>
</g>
<!-- pyVHDLModel.NamedEntity -->
<g id="node6" class="node">
<title>pyVHDLModel.NamedEntity</title>
<g id="a_node6"><a xlink:title="A ``NamedEntity`` is a mixin class for all VHDL entities that have identifiers.">
<polygon fill="none" stroke="black" stroke-width="0.5" points="152,-19 0,-19 0,0 152,0 152,-19"/>
<text text-anchor="middle" x="76" y="-7" font-family="Vera Sans, DejaVu Sans, Liberation Sans, Arial, Helvetica, sans" font-size="10.00">pyVHDLModel.NamedEntity</text>
</a>
</g>
</g>
<!-- pyVHDLModel.NamedEntity&#45;&gt;pyVHDLModel.DesignUnit -->
<g id="edge4" class="edge">
<title>pyVHDLModel.NamedEntity&#45;&gt;pyVHDLModel.DesignUnit</title>
<path fill="none" stroke="black" stroke-width="0.5" d="M152.13,-16.95C162.18,-17.95 172.49,-18.97 182.56,-19.97"/>
<polygon fill="black" stroke="black" stroke-width="0.5" points="182.64,-21.74 187.79,-20.49 182.99,-18.25 182.64,-21.74"/>
</g>
<!-- pyVHDLModel.PSLModel.PSLPrimaryUnit -->
<g id="node7" class="node">
<title>pyVHDLModel.PSLModel.PSLPrimaryUnit</title>
<polygon fill="none" stroke="black" stroke-width="0.5" points="765,-37 550,-37 550,-18 765,-18 765,-37"/>
<text text-anchor="middle" x="657.5" y="-25" font-family="Vera Sans, DejaVu Sans, Liberation Sans, Arial, Helvetica, sans" font-size="10.00">pyVHDLModel.PSLModel.PSLPrimaryUnit</text>
</g>
<!-- pyVHDLModel.PSLModel.PSLPrimaryUnit&#45;&gt;pyVHDLModel.PSLModel.VerificationMode -->
<g id="edge6" class="edge">
<title>pyVHDLModel.PSLModel.PSLPrimaryUnit&#45;&gt;pyVHDLModel.PSLModel.VerificationMode</title>
<path fill="none" stroke="black" stroke-width="0.5" d="M765.01,-27.5C775.16,-27.5 785.5,-27.5 795.73,-27.5"/>
<polygon fill="black" stroke="black" stroke-width="0.5" points="795.74,-29.25 800.74,-27.5 795.74,-25.75 795.74,-29.25"/>
</g>
<!-- pyVHDLModel.PrimaryUnit&#45;&gt;pyVHDLModel.PSLModel.PSLPrimaryUnit -->
<g id="edge5" class="edge">
<title>pyVHDLModel.PrimaryUnit&#45;&gt;pyVHDLModel.PSLModel.PSLPrimaryUnit</title>
<path fill="none" stroke="black" stroke-width="0.5" d="M514.29,-27.5C524.13,-27.5 534.41,-27.5 544.73,-27.5"/>
<polygon fill="black" stroke="black" stroke-width="0.5" points="544.81,-29.25 549.81,-27.5 544.81,-25.75 544.81,-29.25"/>
</g>
</g>
</svg>
