<?xml version="1.0" encoding="UTF-8" standalone="no"?>
<!DOCTYPE svg PUBLIC "-//W3C//DTD SVG 1.1//EN"
 "http://www.w3.org/Graphics/SVG/1.1/DTD/svg11.dtd">
<!-- Generated by graphviz version 2.43.0 (0)
 -->
<!-- Title: inheritance43034e364b Pages: 1 -->
<svg width="576pt" height="33pt"
 viewBox="0.00 0.00 576.00 33.43" xmlns="http://www.w3.org/2000/svg" xmlns:xlink="http://www.w3.org/1999/xlink">
<g id="graph0" class="graph" transform="scale(2.45 2.45) rotate(0) translate(4 78)">
<title>inheritance43034e364b</title>
<polygon fill="white" stroke="transparent" points="-4,4 -4,-78 1409,-78 1409,4 -4,4"/>
<!-- pyGHDL.dom.DOMMixin -->
<g id="node1" class="node">
<title>pyGHDL.dom.DOMMixin</title>
<g id="a_node1"><a xlink:href="../pyGHDL.dom.html#pyGHDL.dom.DOMMixin" xlink:title="pyGHDL.dom.DOMMixin" target="_top">
<polygon fill="none" stroke="black" stroke-width="0.5" points="1005,-74 870,-74 870,-55 1005,-55 1005,-74"/>
<text text-anchor="middle" x="937.5" y="-62" font-family="Vera Sans, DejaVu Sans, Liberation Sans, Arial, Helvetica, sans" font-size="10.00">pyGHDL.dom.DOMMixin</text>
</a>
</g>
</g>
<!-- pyGHDL.dom.InterfaceItem.ParameterFileInterfaceItem -->
<g id="node2" class="node">
<title>pyGHDL.dom.InterfaceItem.ParameterFileInterfaceItem</title>
<g id="a_node2"><a xlink:href="../pyGHDL/pyGHDL.dom.InterfaceItem.html#pyGHDL.dom.InterfaceItem.ParameterFileInterfaceItem" xlink:title="pyGHDL.dom.InterfaceItem.ParameterFileInterfaceItem" target="_top">
<polygon fill="none" stroke="black" stroke-width="0.5" points="1405,-55 1118,-55 1118,-36 1405,-36 1405,-55"/>
<text text-anchor="middle" x="1261.5" y="-43" font-family="Vera Sans, DejaVu Sans, Liberation Sans, Arial, Helvetica, sans" font-size="10.00">pyGHDL.dom.InterfaceItem.ParameterFileInterfaceItem</text>
</a>
</g>
</g>
<!-- pyGHDL.dom.DOMMixin&#45;&gt;pyGHDL.dom.InterfaceItem.ParameterFileInterfaceItem -->
<g id="edge2" class="edge">
<title>pyGHDL.dom.DOMMixin&#45;&gt;pyGHDL.dom.InterfaceItem.ParameterFileInterfaceItem</title>
<path fill="none" stroke="black" stroke-width="0.5" d="M1005.22,-60.56C1036.51,-58.72 1075.14,-56.44 1112.79,-54.22"/>
<polygon fill="black" stroke="black" stroke-width="0.5" points="1112.97,-55.96 1117.86,-53.92 1112.76,-52.46 1112.97,-55.96"/>
</g>
<!-- pyVHDLModel.SyntaxModel.ParameterFileInterfaceItem -->
<g id="node3" class="node">
<title>pyVHDLModel.SyntaxModel.ParameterFileInterfaceItem</title>
<polygon fill="none" stroke="black" stroke-width="0.5" points="1082,-37 793,-37 793,-18 1082,-18 1082,-37"/>
<text text-anchor="middle" x="937.5" y="-25" font-family="Vera Sans, DejaVu Sans, Liberation Sans, Arial, Helvetica, sans" font-size="10.00">pyVHDLModel.SyntaxModel.ParameterFileInterfaceItem</text>
</g>
<!-- pyVHDLModel.SyntaxModel.ParameterFileInterfaceItem&#45;&gt;pyGHDL.dom.InterfaceItem.ParameterFileInterfaceItem -->
<g id="edge1" class="edge">
<title>pyVHDLModel.SyntaxModel.ParameterFileInterfaceItem&#45;&gt;pyGHDL.dom.InterfaceItem.ParameterFileInterfaceItem</title>
<path fill="none" stroke="black" stroke-width="0.5" d="M1082.08,-35.53C1092.31,-36.1 1102.64,-36.68 1112.89,-37.25"/>
<polygon fill="black" stroke="black" stroke-width="0.5" points="1112.83,-39 1117.92,-37.53 1113.03,-35.5 1112.83,-39"/>
</g>
<!-- pyVHDLModel.ModelEntity -->
<g id="node4" class="node">
<title>pyVHDLModel.ModelEntity</title>
<g id="a_node4"><a xlink:title="``ModelEntity`` is the base class for all classes in the VHDL language model,">
<polygon fill="none" stroke="black" stroke-width="0.5" points="169.5,-74 22.5,-74 22.5,-55 169.5,-55 169.5,-74"/>
<text text-anchor="middle" x="96" y="-62" font-family="Vera Sans, DejaVu Sans, Liberation Sans, Arial, Helvetica, sans" font-size="10.00">pyVHDLModel.ModelEntity</text>
</a>
</g>
</g>
<!-- pyVHDLModel.SyntaxModel.Obj -->
<g id="node7" class="node">
<title>pyVHDLModel.SyntaxModel.Obj</title>
<polygon fill="none" stroke="black" stroke-width="0.5" points="424.5,-56 252.5,-56 252.5,-37 424.5,-37 424.5,-56"/>
<text text-anchor="middle" x="338.5" y="-44" font-family="Vera Sans, DejaVu Sans, Liberation Sans, Arial, Helvetica, sans" font-size="10.00">pyVHDLModel.SyntaxModel.Obj</text>
</g>
<!-- pyVHDLModel.ModelEntity&#45;&gt;pyVHDLModel.SyntaxModel.Obj -->
<g id="edge4" class="edge">
<title>pyVHDLModel.ModelEntity&#45;&gt;pyVHDLModel.SyntaxModel.Obj</title>
<path fill="none" stroke="black" stroke-width="0.5" d="M169.81,-59.05C194.18,-57.23 221.64,-55.17 247.18,-53.26"/>
<polygon fill="black" stroke="black" stroke-width="0.5" points="247.4,-55 252.26,-52.88 247.14,-51.51 247.4,-55"/>
</g>
<!-- pyVHDLModel.MultipleNamedEntity -->
<g id="node5" class="node">
<title>pyVHDLModel.MultipleNamedEntity</title>
<g id="a_node5"><a xlink:title="A ``MultipleNamedEntity`` is a mixin class for all VHDL entities that declare">
<polygon fill="none" stroke="black" stroke-width="0.5" points="192,-37 0,-37 0,-18 192,-18 192,-37"/>
<text text-anchor="middle" x="96" y="-25" font-family="Vera Sans, DejaVu Sans, Liberation Sans, Arial, Helvetica, sans" font-size="10.00">pyVHDLModel.MultipleNamedEntity</text>
</a>
</g>
</g>
<!-- pyVHDLModel.MultipleNamedEntity&#45;&gt;pyVHDLModel.SyntaxModel.Obj -->
<g id="edge5" class="edge">
<title>pyVHDLModel.MultipleNamedEntity&#45;&gt;pyVHDLModel.SyntaxModel.Obj</title>
<path fill="none" stroke="black" stroke-width="0.5" d="M192.05,-35.01C210.29,-36.45 229.35,-37.96 247.43,-39.38"/>
<polygon fill="black" stroke="black" stroke-width="0.5" points="247.37,-41.14 252.5,-39.78 247.65,-37.65 247.37,-41.14"/>
</g>
<!-- pyVHDLModel.SyntaxModel.File -->
<g id="node6" class="node">
<title>pyVHDLModel.SyntaxModel.File</title>
<polygon fill="none" stroke="black" stroke-width="0.5" points="707.5,-56 534.5,-56 534.5,-37 707.5,-37 707.5,-56"/>
<text text-anchor="middle" x="621" y="-44" font-family="Vera Sans, DejaVu Sans, Liberation Sans, Arial, Helvetica, sans" font-size="10.00">pyVHDLModel.SyntaxModel.File</text>
</g>
<!-- pyVHDLModel.SyntaxModel.File&#45;&gt;pyVHDLModel.SyntaxModel.ParameterFileInterfaceItem -->
<g id="edge6" class="edge">
<title>pyVHDLModel.SyntaxModel.File&#45;&gt;pyVHDLModel.SyntaxModel.ParameterFileInterfaceItem</title>
<path fill="none" stroke="black" stroke-width="0.5" d="M707.52,-41.33C732.35,-39.83 760.22,-38.15 787.74,-36.49"/>
<polygon fill="black" stroke="black" stroke-width="0.5" points="787.98,-38.23 792.87,-36.18 787.77,-34.73 787.98,-38.23"/>
</g>
<!-- pyVHDLModel.SyntaxModel.Obj&#45;&gt;pyVHDLModel.SyntaxModel.File -->
<g id="edge3" class="edge">
<title>pyVHDLModel.SyntaxModel.Obj&#45;&gt;pyVHDLModel.SyntaxModel.File</title>
<path fill="none" stroke="black" stroke-width="0.5" d="M424.8,-46.5C457.7,-46.5 495.38,-46.5 528.81,-46.5"/>
<polygon fill="black" stroke="black" stroke-width="0.5" points="529.14,-48.25 534.14,-46.5 529.14,-44.75 529.14,-48.25"/>
</g>
<!-- pyVHDLModel.SyntaxModel.InterfaceItem -->
<g id="node8" class="node">
<title>pyVHDLModel.SyntaxModel.InterfaceItem</title>
<g id="a_node8"><a xlink:title="An ``InterfaceItem`` is a base&#45;class for all mixin&#45;classes for all interface">
<polygon fill="none" stroke="black" stroke-width="0.5" points="449,-19 228,-19 228,0 449,0 449,-19"/>
<text text-anchor="middle" x="338.5" y="-7" font-family="Vera Sans, DejaVu Sans, Liberation Sans, Arial, Helvetica, sans" font-size="10.00">pyVHDLModel.SyntaxModel.InterfaceItem</text>
</a>
</g>
</g>
<!-- pyVHDLModel.SyntaxModel.ParameterInterfaceItem -->
<g id="node9" class="node">
<title>pyVHDLModel.SyntaxModel.ParameterInterfaceItem</title>
<g id="a_node9"><a xlink:title="A ``ParameterInterfaceItem`` is a mixin class for all parameter interface items.">
<polygon fill="none" stroke="black" stroke-width="0.5" points="757,-19 485,-19 485,0 757,0 757,-19"/>
<text text-anchor="middle" x="621" y="-7" font-family="Vera Sans, DejaVu Sans, Liberation Sans, Arial, Helvetica, sans" font-size="10.00">pyVHDLModel.SyntaxModel.ParameterInterfaceItem</text>
</a>
</g>
</g>
<!-- pyVHDLModel.SyntaxModel.InterfaceItem&#45;&gt;pyVHDLModel.SyntaxModel.ParameterInterfaceItem -->
<g id="edge8" class="edge">
<title>pyVHDLModel.SyntaxModel.InterfaceItem&#45;&gt;pyVHDLModel.SyntaxModel.ParameterInterfaceItem</title>
<path fill="none" stroke="black" stroke-width="0.5" d="M449.15,-9.5C459.19,-9.5 469.44,-9.5 479.7,-9.5"/>
<polygon fill="black" stroke="black" stroke-width="0.5" points="479.73,-11.25 484.73,-9.5 479.73,-7.75 479.73,-11.25"/>
</g>
<!-- pyVHDLModel.SyntaxModel.ParameterInterfaceItem&#45;&gt;pyVHDLModel.SyntaxModel.ParameterFileInterfaceItem -->
<g id="edge7" class="edge">
<title>pyVHDLModel.SyntaxModel.ParameterInterfaceItem&#45;&gt;pyVHDLModel.SyntaxModel.ParameterFileInterfaceItem</title>
<path fill="none" stroke="black" stroke-width="0.5" d="M757.2,-17.24C767.36,-17.82 777.64,-18.41 787.88,-18.99"/>
<polygon fill="black" stroke="black" stroke-width="0.5" points="787.81,-20.74 792.9,-19.28 788.01,-17.25 787.81,-20.74"/>
</g>
</g>
</svg>
