<?xml version="1.0" encoding="UTF-8" standalone="no"?>
<!DOCTYPE svg PUBLIC "-//W3C//DTD SVG 1.1//EN"
 "http://www.w3.org/Graphics/SVG/1.1/DTD/svg11.dtd">
<!-- Generated by graphviz version 2.43.0 (0)
 -->
<!-- Title: inheritancee08022425f Pages: 1 -->
<svg width="576pt" height="29pt"
 viewBox="0.00 0.00 576.00 29.23" xmlns="http://www.w3.org/2000/svg" xmlns:xlink="http://www.w3.org/1999/xlink">
<g id="graph0" class="graph" transform="scale(2.19 2.19) rotate(0) translate(4 60)">
<title>inheritancee08022425f</title>
<polygon fill="white" stroke="transparent" points="-4,4 -4,-60 1257,-60 1257,4 -4,4"/>
<!-- pyGHDL.dom.DOMMixin -->
<g id="node1" class="node">
<title>pyGHDL.dom.DOMMixin</title>
<g id="a_node1"><a xlink:href="../pyGHDL.dom.html#pyGHDL.dom.DOMMixin" xlink:title="pyGHDL.dom.DOMMixin" target="_top">
<polygon fill="none" stroke="black" stroke-width="0.5" points="920,-56 785,-56 785,-37 920,-37 920,-56"/>
<text text-anchor="middle" x="852.5" y="-44" font-family="Vera Sans, DejaVu Sans, Liberation Sans, Arial, Helvetica, sans" font-size="10.00">pyGHDL.dom.DOMMixin</text>
</a>
</g>
</g>
<!-- pyGHDL.dom.Expression.NegationExpression -->
<g id="node2" class="node">
<title>pyGHDL.dom.Expression.NegationExpression</title>
<g id="a_node2"><a xlink:href="../pyGHDL/pyGHDL.dom.Expression.html#pyGHDL.dom.Expression.NegationExpression" xlink:title="pyGHDL.dom.Expression.NegationExpression" target="_top">
<polygon fill="none" stroke="black" stroke-width="0.5" points="1253,-37 1015,-37 1015,-18 1253,-18 1253,-37"/>
<text text-anchor="middle" x="1134" y="-25" font-family="Vera Sans, DejaVu Sans, Liberation Sans, Arial, Helvetica, sans" font-size="10.00">pyGHDL.dom.Expression.NegationExpression</text>
</a>
</g>
</g>
<!-- pyGHDL.dom.DOMMixin&#45;&gt;pyGHDL.dom.Expression.NegationExpression -->
<g id="edge2" class="edge">
<title>pyGHDL.dom.DOMMixin&#45;&gt;pyGHDL.dom.Expression.NegationExpression</title>
<path fill="none" stroke="black" stroke-width="0.5" d="M920.09,-41.97C946.96,-40.15 978.84,-37.98 1009.65,-35.89"/>
<polygon fill="black" stroke="black" stroke-width="0.5" points="1010.12,-37.61 1014.99,-35.52 1009.88,-34.12 1010.12,-37.61"/>
</g>
<!-- pyVHDLModel.SyntaxModel.NegationExpression -->
<g id="node3" class="node">
<title>pyVHDLModel.SyntaxModel.NegationExpression</title>
<polygon fill="none" stroke="black" stroke-width="0.5" points="979,-19 726,-19 726,0 979,0 979,-19"/>
<text text-anchor="middle" x="852.5" y="-7" font-family="Vera Sans, DejaVu Sans, Liberation Sans, Arial, Helvetica, sans" font-size="10.00">pyVHDLModel.SyntaxModel.NegationExpression</text>
</g>
<!-- pyVHDLModel.SyntaxModel.NegationExpression&#45;&gt;pyGHDL.dom.Expression.NegationExpression -->
<g id="edge1" class="edge">
<title>pyVHDLModel.SyntaxModel.NegationExpression&#45;&gt;pyGHDL.dom.Expression.NegationExpression</title>
<path fill="none" stroke="black" stroke-width="0.5" d="M979.35,-17.6C989.34,-18.25 999.43,-18.9 1009.41,-19.54"/>
<polygon fill="black" stroke="black" stroke-width="0.5" points="1009.52,-21.3 1014.62,-19.88 1009.74,-17.81 1009.52,-21.3"/>
</g>
<!-- pyVHDLModel.ModelEntity -->
<g id="node4" class="node">
<title>pyVHDLModel.ModelEntity</title>
<g id="a_node4"><a xlink:title="``ModelEntity`` is the base class for all classes in the VHDL language model,">
<polygon fill="none" stroke="black" stroke-width="0.5" points="147,-19 0,-19 0,0 147,0 147,-19"/>
<text text-anchor="middle" x="73.5" y="-7" font-family="Vera Sans, DejaVu Sans, Liberation Sans, Arial, Helvetica, sans" font-size="10.00">pyVHDLModel.ModelEntity</text>
</a>
</g>
</g>
<!-- pyVHDLModel.SyntaxModel.BaseExpression -->
<g id="node5" class="node">
<title>pyVHDLModel.SyntaxModel.BaseExpression</title>
<g id="a_node5"><a xlink:title="A ``BaseExpression`` is a base&#45;class for all expressions.">
<polygon fill="none" stroke="black" stroke-width="0.5" points="416,-19 183,-19 183,0 416,0 416,-19"/>
<text text-anchor="middle" x="299.5" y="-7" font-family="Vera Sans, DejaVu Sans, Liberation Sans, Arial, Helvetica, sans" font-size="10.00">pyVHDLModel.SyntaxModel.BaseExpression</text>
</a>
</g>
</g>
<!-- pyVHDLModel.ModelEntity&#45;&gt;pyVHDLModel.SyntaxModel.BaseExpression -->
<g id="edge3" class="edge">
<title>pyVHDLModel.ModelEntity&#45;&gt;pyVHDLModel.SyntaxModel.BaseExpression</title>
<path fill="none" stroke="black" stroke-width="0.5" d="M147.23,-9.5C157,-9.5 167.22,-9.5 177.55,-9.5"/>
<polygon fill="black" stroke="black" stroke-width="0.5" points="177.63,-11.25 182.63,-9.5 177.63,-7.75 177.63,-11.25"/>
</g>
<!-- pyVHDLModel.SyntaxModel.UnaryExpression -->
<g id="node6" class="node">
<title>pyVHDLModel.SyntaxModel.UnaryExpression</title>
<g id="a_node6"><a xlink:title="A ``UnaryExpression`` is a base&#45;class for all unary expressions.">
<polygon fill="none" stroke="black" stroke-width="0.5" points="690,-19 452,-19 452,0 690,0 690,-19"/>
<text text-anchor="middle" x="571" y="-7" font-family="Vera Sans, DejaVu Sans, Liberation Sans, Arial, Helvetica, sans" font-size="10.00">pyVHDLModel.SyntaxModel.UnaryExpression</text>
</a>
</g>
</g>
<!-- pyVHDLModel.SyntaxModel.BaseExpression&#45;&gt;pyVHDLModel.SyntaxModel.UnaryExpression -->
<g id="edge5" class="edge">
<title>pyVHDLModel.SyntaxModel.BaseExpression&#45;&gt;pyVHDLModel.SyntaxModel.UnaryExpression</title>
<path fill="none" stroke="black" stroke-width="0.5" d="M416.36,-9.5C426.32,-9.5 436.42,-9.5 446.44,-9.5"/>
<polygon fill="black" stroke="black" stroke-width="0.5" points="446.67,-11.25 451.67,-9.5 446.67,-7.75 446.67,-11.25"/>
</g>
<!-- pyVHDLModel.SyntaxModel.UnaryExpression&#45;&gt;pyVHDLModel.SyntaxModel.NegationExpression -->
<g id="edge4" class="edge">
<title>pyVHDLModel.SyntaxModel.UnaryExpression&#45;&gt;pyVHDLModel.SyntaxModel.NegationExpression</title>
<path fill="none" stroke="black" stroke-width="0.5" d="M690.13,-9.5C700.24,-9.5 710.51,-9.5 720.72,-9.5"/>
<polygon fill="black" stroke="black" stroke-width="0.5" points="720.72,-11.25 725.72,-9.5 720.72,-7.75 720.72,-11.25"/>
</g>
</g>
</svg>
