<?xml version="1.0" encoding="UTF-8" standalone="no"?>
<!DOCTYPE svg PUBLIC "-//W3C//DTD SVG 1.1//EN"
 "http://www.w3.org/Graphics/SVG/1.1/DTD/svg11.dtd">
<!-- Generated by graphviz version 2.43.0 (0)
 -->
<!-- Title: inheritancebb201c612c Pages: 1 -->
<svg width="576pt" height="20pt"
 viewBox="0.00 0.00 576.00 19.79" xmlns="http://www.w3.org/2000/svg" xmlns:xlink="http://www.w3.org/1999/xlink">
<g id="graph0" class="graph" transform="scale(3.23 3.23) rotate(0) translate(4 60)">
<title>inheritancebb201c612c</title>
<polygon fill="white" stroke="transparent" points="-4,4 -4,-60 1859,-60 1859,4 -4,4"/>
<!-- pyGHDL.dom.DOMMixin -->
<g id="node1" class="node">
<title>pyGHDL.dom.DOMMixin</title>
<g id="a_node1"><a xlink:href="../pyGHDL.dom.html#pyGHDL.dom.DOMMixin" xlink:title="pyGHDL.dom.DOMMixin" target="_top">
<polygon fill="none" stroke="black" stroke-width="0.5" points="1490.5,-56 1355.5,-56 1355.5,-37 1490.5,-37 1490.5,-56"/>
<text text-anchor="middle" x="1423" y="-44" font-family="Vera Sans, DejaVu Sans, Liberation Sans, Arial, Helvetica, sans" font-size="10.00">pyGHDL.dom.DOMMixin</text>
</a>
</g>
</g>
<!-- pyGHDL.dom.Expression.ShiftLeftLogicExpression -->
<g id="node2" class="node">
<title>pyGHDL.dom.Expression.ShiftLeftLogicExpression</title>
<g id="a_node2"><a xlink:href="../pyGHDL/pyGHDL.dom.Expression.html#pyGHDL.dom.Expression.ShiftLeftLogicExpression" xlink:title="pyGHDL.dom.Expression.ShiftLeftLogicExpression" target="_top">
<polygon fill="none" stroke="black" stroke-width="0.5" points="1855,-37 1596,-37 1596,-18 1855,-18 1855,-37"/>
<text text-anchor="middle" x="1725.5" y="-25" font-family="Vera Sans, DejaVu Sans, Liberation Sans, Arial, Helvetica, sans" font-size="10.00">pyGHDL.dom.Expression.ShiftLeftLogicExpression</text>
</a>
</g>
</g>
<!-- pyGHDL.dom.DOMMixin&#45;&gt;pyGHDL.dom.Expression.ShiftLeftLogicExpression -->
<g id="edge2" class="edge">
<title>pyGHDL.dom.DOMMixin&#45;&gt;pyGHDL.dom.Expression.ShiftLeftLogicExpression</title>
<path fill="none" stroke="black" stroke-width="0.5" d="M1490.69,-42.28C1520.19,-40.42 1555.99,-38.15 1590.62,-35.96"/>
<polygon fill="black" stroke="black" stroke-width="0.5" points="1590.84,-37.7 1595.72,-35.64 1590.62,-34.21 1590.84,-37.7"/>
</g>
<!-- pyVHDLModel.SyntaxModel.ShiftLeftLogicExpression -->
<g id="node3" class="node">
<title>pyVHDLModel.SyntaxModel.ShiftLeftLogicExpression</title>
<polygon fill="none" stroke="black" stroke-width="0.5" points="1560,-19 1286,-19 1286,0 1560,0 1560,-19"/>
<text text-anchor="middle" x="1423" y="-7" font-family="Vera Sans, DejaVu Sans, Liberation Sans, Arial, Helvetica, sans" font-size="10.00">pyVHDLModel.SyntaxModel.ShiftLeftLogicExpression</text>
</g>
<!-- pyVHDLModel.SyntaxModel.ShiftLeftLogicExpression&#45;&gt;pyGHDL.dom.Expression.ShiftLeftLogicExpression -->
<g id="edge1" class="edge">
<title>pyVHDLModel.SyntaxModel.ShiftLeftLogicExpression&#45;&gt;pyGHDL.dom.Expression.ShiftLeftLogicExpression</title>
<path fill="none" stroke="black" stroke-width="0.5" d="M1560.18,-17.66C1570.23,-18.26 1580.37,-18.87 1590.41,-19.47"/>
<polygon fill="black" stroke="black" stroke-width="0.5" points="1590.55,-21.23 1595.64,-19.78 1590.76,-17.74 1590.55,-21.23"/>
</g>
<!-- pyVHDLModel.ModelEntity -->
<g id="node4" class="node">
<title>pyVHDLModel.ModelEntity</title>
<g id="a_node4"><a xlink:title="``ModelEntity`` is the base class for all classes in the VHDL language model,">
<polygon fill="none" stroke="black" stroke-width="0.5" points="147,-19 0,-19 0,0 147,0 147,-19"/>
<text text-anchor="middle" x="73.5" y="-7" font-family="Vera Sans, DejaVu Sans, Liberation Sans, Arial, Helvetica, sans" font-size="10.00">pyVHDLModel.ModelEntity</text>
</a>
</g>
</g>
<!-- pyVHDLModel.SyntaxModel.BaseExpression -->
<g id="node5" class="node">
<title>pyVHDLModel.SyntaxModel.BaseExpression</title>
<g id="a_node5"><a xlink:title="A ``BaseExpression`` is a base&#45;class for all expressions.">
<polygon fill="none" stroke="black" stroke-width="0.5" points="416,-19 183,-19 183,0 416,0 416,-19"/>
<text text-anchor="middle" x="299.5" y="-7" font-family="Vera Sans, DejaVu Sans, Liberation Sans, Arial, Helvetica, sans" font-size="10.00">pyVHDLModel.SyntaxModel.BaseExpression</text>
</a>
</g>
</g>
<!-- pyVHDLModel.ModelEntity&#45;&gt;pyVHDLModel.SyntaxModel.BaseExpression -->
<g id="edge3" class="edge">
<title>pyVHDLModel.ModelEntity&#45;&gt;pyVHDLModel.SyntaxModel.BaseExpression</title>
<path fill="none" stroke="black" stroke-width="0.5" d="M147.23,-9.5C157,-9.5 167.22,-9.5 177.55,-9.5"/>
<polygon fill="black" stroke="black" stroke-width="0.5" points="177.63,-11.25 182.63,-9.5 177.63,-7.75 177.63,-11.25"/>
</g>
<!-- pyVHDLModel.SyntaxModel.BinaryExpression -->
<g id="node6" class="node">
<title>pyVHDLModel.SyntaxModel.BinaryExpression</title>
<g id="a_node6"><a xlink:title="A ``BinaryExpression`` is a base&#45;class for all binary expressions.">
<polygon fill="none" stroke="black" stroke-width="0.5" points="692,-19 452,-19 452,0 692,0 692,-19"/>
<text text-anchor="middle" x="572" y="-7" font-family="Vera Sans, DejaVu Sans, Liberation Sans, Arial, Helvetica, sans" font-size="10.00">pyVHDLModel.SyntaxModel.BinaryExpression</text>
</a>
</g>
</g>
<!-- pyVHDLModel.SyntaxModel.BaseExpression&#45;&gt;pyVHDLModel.SyntaxModel.BinaryExpression -->
<g id="edge4" class="edge">
<title>pyVHDLModel.SyntaxModel.BaseExpression&#45;&gt;pyVHDLModel.SyntaxModel.BinaryExpression</title>
<path fill="none" stroke="black" stroke-width="0.5" d="M416,-9.5C426.03,-9.5 436.2,-9.5 446.3,-9.5"/>
<polygon fill="black" stroke="black" stroke-width="0.5" points="446.57,-11.25 451.57,-9.5 446.57,-7.75 446.57,-11.25"/>
</g>
<!-- pyVHDLModel.SyntaxModel.ShiftExpression -->
<g id="node7" class="node">
<title>pyVHDLModel.SyntaxModel.ShiftExpression</title>
<g id="a_node7"><a xlink:title="A ``ShiftExpression`` is a base&#45;class for all shifting expressions.">
<polygon fill="none" stroke="black" stroke-width="0.5" points="958,-19 728,-19 728,0 958,0 958,-19"/>
<text text-anchor="middle" x="843" y="-7" font-family="Vera Sans, DejaVu Sans, Liberation Sans, Arial, Helvetica, sans" font-size="10.00">pyVHDLModel.SyntaxModel.ShiftExpression</text>
</a>
</g>
</g>
<!-- pyVHDLModel.SyntaxModel.BinaryExpression&#45;&gt;pyVHDLModel.SyntaxModel.ShiftExpression -->
<g id="edge5" class="edge">
<title>pyVHDLModel.SyntaxModel.BinaryExpression&#45;&gt;pyVHDLModel.SyntaxModel.ShiftExpression</title>
<path fill="none" stroke="black" stroke-width="0.5" d="M692.16,-9.5C702.21,-9.5 712.38,-9.5 722.44,-9.5"/>
<polygon fill="black" stroke="black" stroke-width="0.5" points="722.69,-11.25 727.69,-9.5 722.69,-7.75 722.69,-11.25"/>
</g>
<!-- pyVHDLModel.SyntaxModel.ShiftLogicExpression -->
<g id="node8" class="node">
<title>pyVHDLModel.SyntaxModel.ShiftLogicExpression</title>
<polygon fill="none" stroke="black" stroke-width="0.5" points="1250,-19 994,-19 994,0 1250,0 1250,-19"/>
<text text-anchor="middle" x="1122" y="-7" font-family="Vera Sans, DejaVu Sans, Liberation Sans, Arial, Helvetica, sans" font-size="10.00">pyVHDLModel.SyntaxModel.ShiftLogicExpression</text>
</g>
<!-- pyVHDLModel.SyntaxModel.ShiftExpression&#45;&gt;pyVHDLModel.SyntaxModel.ShiftLogicExpression -->
<g id="edge7" class="edge">
<title>pyVHDLModel.SyntaxModel.ShiftExpression&#45;&gt;pyVHDLModel.SyntaxModel.ShiftLogicExpression</title>
<path fill="none" stroke="black" stroke-width="0.5" d="M958.27,-9.5C968.38,-9.5 978.68,-9.5 988.93,-9.5"/>
<polygon fill="black" stroke="black" stroke-width="0.5" points="988.95,-11.25 993.95,-9.5 988.95,-7.75 988.95,-11.25"/>
</g>
<!-- pyVHDLModel.SyntaxModel.ShiftLogicExpression&#45;&gt;pyVHDLModel.SyntaxModel.ShiftLeftLogicExpression -->
<g id="edge6" class="edge">
<title>pyVHDLModel.SyntaxModel.ShiftLogicExpression&#45;&gt;pyVHDLModel.SyntaxModel.ShiftLeftLogicExpression</title>
<path fill="none" stroke="black" stroke-width="0.5" d="M1250.24,-9.5C1260.25,-9.5 1270.4,-9.5 1280.51,-9.5"/>
<polygon fill="black" stroke="black" stroke-width="0.5" points="1280.79,-11.25 1285.79,-9.5 1280.79,-7.75 1280.79,-11.25"/>
</g>
</g>
</svg>
