<?xml version="1.0" encoding="UTF-8" standalone="no"?>
<!DOCTYPE svg PUBLIC "-//W3C//DTD SVG 1.1//EN"
 "http://www.w3.org/Graphics/SVG/1.1/DTD/svg11.dtd">
<!-- Generated by graphviz version 2.43.0 (0)
 -->
<!-- Title: inheritance6b2bdc7358 Pages: 1 -->
<svg width="576pt" height="44pt"
 viewBox="0.00 0.00 576.00 44.41" xmlns="http://www.w3.org/2000/svg" xmlns:xlink="http://www.w3.org/1999/xlink">
<g id="graph0" class="graph" transform="scale(2.27 2.27) rotate(0) translate(4 97)">
<title>inheritance6b2bdc7358</title>
<polygon fill="white" stroke="transparent" points="-4,4 -4,-97 1306,-97 1306,4 -4,4"/>
<!-- pyGHDL.dom.Concurrent.ConcurrentProcedureCall -->
<g id="node1" class="node">
<title>pyGHDL.dom.Concurrent.ConcurrentProcedureCall</title>
<g id="a_node1"><a xlink:href="../pyGHDL/pyGHDL.dom.Concurrent.html#pyGHDL.dom.Concurrent.ConcurrentProcedureCall" xlink:title="pyGHDL.dom.Concurrent.ConcurrentProcedureCall" target="_top">
<polygon fill="none" stroke="black" stroke-width="0.5" points="1302,-37 1041,-37 1041,-18 1302,-18 1302,-37"/>
<text text-anchor="middle" x="1171.5" y="-25" font-family="Vera Sans, DejaVu Sans, Liberation Sans, Arial, Helvetica, sans" font-size="10.00">pyGHDL.dom.Concurrent.ConcurrentProcedureCall</text>
</a>
</g>
</g>
<!-- pyVHDLModel.SyntaxModel.ConcurrentProcedureCall -->
<g id="node2" class="node">
<title>pyVHDLModel.SyntaxModel.ConcurrentProcedureCall</title>
<polygon fill="none" stroke="black" stroke-width="0.5" points="1005,-56 729,-56 729,-37 1005,-37 1005,-56"/>
<text text-anchor="middle" x="867" y="-44" font-family="Vera Sans, DejaVu Sans, Liberation Sans, Arial, Helvetica, sans" font-size="10.00">pyVHDLModel.SyntaxModel.ConcurrentProcedureCall</text>
</g>
<!-- pyVHDLModel.SyntaxModel.ConcurrentProcedureCall&#45;&gt;pyGHDL.dom.Concurrent.ConcurrentProcedureCall -->
<g id="edge1" class="edge">
<title>pyVHDLModel.SyntaxModel.ConcurrentProcedureCall&#45;&gt;pyGHDL.dom.Concurrent.ConcurrentProcedureCall</title>
<path fill="none" stroke="black" stroke-width="0.5" d="M1005.09,-37.89C1015.3,-37.25 1025.6,-36.6 1035.79,-35.96"/>
<polygon fill="black" stroke="black" stroke-width="0.5" points="1035.91,-37.71 1040.79,-35.65 1035.69,-34.21 1035.91,-37.71"/>
</g>
<!-- pyGHDL.dom.DOMMixin -->
<g id="node3" class="node">
<title>pyGHDL.dom.DOMMixin</title>
<g id="a_node3"><a xlink:href="../pyGHDL.dom.html#pyGHDL.dom.DOMMixin" xlink:title="pyGHDL.dom.DOMMixin" target="_top">
<polygon fill="none" stroke="black" stroke-width="0.5" points="934.5,-19 799.5,-19 799.5,0 934.5,0 934.5,-19"/>
<text text-anchor="middle" x="867" y="-7" font-family="Vera Sans, DejaVu Sans, Liberation Sans, Arial, Helvetica, sans" font-size="10.00">pyGHDL.dom.DOMMixin</text>
</a>
</g>
</g>
<!-- pyGHDL.dom.DOMMixin&#45;&gt;pyGHDL.dom.Concurrent.ConcurrentProcedureCall -->
<g id="edge2" class="edge">
<title>pyGHDL.dom.DOMMixin&#45;&gt;pyGHDL.dom.Concurrent.ConcurrentProcedureCall</title>
<path fill="none" stroke="black" stroke-width="0.5" d="M934.76,-13.47C964.53,-15.24 1000.72,-17.4 1035.73,-19.48"/>
<polygon fill="black" stroke="black" stroke-width="0.5" points="1035.79,-21.24 1040.88,-19.79 1036,-17.74 1035.79,-21.24"/>
</g>
<!-- pyVHDLModel.LabeledEntity -->
<g id="node4" class="node">
<title>pyVHDLModel.LabeledEntity</title>
<g id="a_node4"><a xlink:title="A ``LabeledEntity`` is a mixin class for all VHDL entities that can have">
<polygon fill="none" stroke="black" stroke-width="0.5" points="155,-93 0,-93 0,-74 155,-74 155,-93"/>
<text text-anchor="middle" x="77.5" y="-81" font-family="Vera Sans, DejaVu Sans, Liberation Sans, Arial, Helvetica, sans" font-size="10.00">pyVHDLModel.LabeledEntity</text>
</a>
</g>
</g>
<!-- pyVHDLModel.SyntaxModel.Statement -->
<g id="node8" class="node">
<title>pyVHDLModel.SyntaxModel.Statement</title>
<polygon fill="none" stroke="black" stroke-width="0.5" points="397,-74 191,-74 191,-55 397,-55 397,-74"/>
<text text-anchor="middle" x="294" y="-62" font-family="Vera Sans, DejaVu Sans, Liberation Sans, Arial, Helvetica, sans" font-size="10.00">pyVHDLModel.SyntaxModel.Statement</text>
</g>
<!-- pyVHDLModel.LabeledEntity&#45;&gt;pyVHDLModel.SyntaxModel.Statement -->
<g id="edge7" class="edge">
<title>pyVHDLModel.LabeledEntity&#45;&gt;pyVHDLModel.SyntaxModel.Statement</title>
<path fill="none" stroke="black" stroke-width="0.5" d="M155.03,-76.72C164.96,-75.84 175.27,-74.93 185.58,-74.02"/>
<polygon fill="black" stroke="black" stroke-width="0.5" points="185.81,-75.75 190.64,-73.57 185.5,-72.27 185.81,-75.75"/>
</g>
<!-- pyVHDLModel.ModelEntity -->
<g id="node5" class="node">
<title>pyVHDLModel.ModelEntity</title>
<g id="a_node5"><a xlink:title="``ModelEntity`` is the base class for all classes in the VHDL language model,">
<polygon fill="none" stroke="black" stroke-width="0.5" points="151,-56 4,-56 4,-37 151,-37 151,-56"/>
<text text-anchor="middle" x="77.5" y="-44" font-family="Vera Sans, DejaVu Sans, Liberation Sans, Arial, Helvetica, sans" font-size="10.00">pyVHDLModel.ModelEntity</text>
</a>
</g>
</g>
<!-- pyVHDLModel.ModelEntity&#45;&gt;pyVHDLModel.SyntaxModel.Statement -->
<g id="edge6" class="edge">
<title>pyVHDLModel.ModelEntity&#45;&gt;pyVHDLModel.SyntaxModel.Statement</title>
<path fill="none" stroke="black" stroke-width="0.5" d="M151.12,-52.59C162.29,-53.53 174.01,-54.52 185.74,-55.5"/>
<polygon fill="black" stroke="black" stroke-width="0.5" points="185.64,-57.25 190.77,-55.92 185.93,-53.76 185.64,-57.25"/>
</g>
<!-- pyVHDLModel.SyntaxModel.ConcurrentStatement -->
<g id="node6" class="node">
<title>pyVHDLModel.SyntaxModel.ConcurrentStatement</title>
<g id="a_node6"><a xlink:title="A ``ConcurrentStatement`` is a base&#45;class for all concurrent statements.">
<polygon fill="none" stroke="black" stroke-width="0.5" points="693,-74 433,-74 433,-55 693,-55 693,-74"/>
<text text-anchor="middle" x="563" y="-62" font-family="Vera Sans, DejaVu Sans, Liberation Sans, Arial, Helvetica, sans" font-size="10.00">pyVHDLModel.SyntaxModel.ConcurrentStatement</text>
</a>
</g>
</g>
<!-- pyVHDLModel.SyntaxModel.ConcurrentStatement&#45;&gt;pyVHDLModel.SyntaxModel.ConcurrentProcedureCall -->
<g id="edge3" class="edge">
<title>pyVHDLModel.SyntaxModel.ConcurrentStatement&#45;&gt;pyVHDLModel.SyntaxModel.ConcurrentProcedureCall</title>
<path fill="none" stroke="black" stroke-width="0.5" d="M693.39,-56.79C703.34,-56.19 713.42,-55.59 723.45,-55"/>
<polygon fill="black" stroke="black" stroke-width="0.5" points="723.8,-56.73 728.69,-54.68 723.6,-53.23 723.8,-56.73"/>
</g>
<!-- pyVHDLModel.SyntaxModel.ProcedureCall -->
<g id="node7" class="node">
<title>pyVHDLModel.SyntaxModel.ProcedureCall</title>
<polygon fill="none" stroke="black" stroke-width="0.5" points="674.5,-37 451.5,-37 451.5,-18 674.5,-18 674.5,-37"/>
<text text-anchor="middle" x="563" y="-25" font-family="Vera Sans, DejaVu Sans, Liberation Sans, Arial, Helvetica, sans" font-size="10.00">pyVHDLModel.SyntaxModel.ProcedureCall</text>
</g>
<!-- pyVHDLModel.SyntaxModel.ProcedureCall&#45;&gt;pyVHDLModel.SyntaxModel.ConcurrentProcedureCall -->
<g id="edge4" class="edge">
<title>pyVHDLModel.SyntaxModel.ProcedureCall&#45;&gt;pyVHDLModel.SyntaxModel.ConcurrentProcedureCall</title>
<path fill="none" stroke="black" stroke-width="0.5" d="M674.74,-34.47C690.68,-35.47 707.27,-36.51 723.72,-37.55"/>
<polygon fill="black" stroke="black" stroke-width="0.5" points="723.72,-39.3 728.82,-37.87 723.94,-35.81 723.72,-39.3"/>
</g>
<!-- pyVHDLModel.SyntaxModel.Statement&#45;&gt;pyVHDLModel.SyntaxModel.ConcurrentStatement -->
<g id="edge5" class="edge">
<title>pyVHDLModel.SyntaxModel.Statement&#45;&gt;pyVHDLModel.SyntaxModel.ConcurrentStatement</title>
<path fill="none" stroke="black" stroke-width="0.5" d="M397.08,-64.5C407.08,-64.5 417.32,-64.5 427.57,-64.5"/>
<polygon fill="black" stroke="black" stroke-width="0.5" points="427.61,-66.25 432.61,-64.5 427.61,-62.75 427.61,-66.25"/>
</g>
</g>
</svg>
