<?xml version="1.0" encoding="UTF-8" standalone="no"?>
<!DOCTYPE svg PUBLIC "-//W3C//DTD SVG 1.1//EN"
 "http://www.w3.org/Graphics/SVG/1.1/DTD/svg11.dtd">
<!-- Generated by graphviz version 2.43.0 (0)
 -->
<!-- Title: inheritancec4822c4574 Pages: 1 -->
<svg width="576pt" height="54pt"
 viewBox="0.00 0.00 576.00 54.45" xmlns="http://www.w3.org/2000/svg" xmlns:xlink="http://www.w3.org/1999/xlink">
<g id="graph0" class="graph" transform="scale(1.18 1.18) rotate(0) translate(4 60)">
<title>inheritancec4822c4574</title>
<polygon fill="white" stroke="transparent" points="-4,4 -4,-60 673,-60 673,4 -4,4"/>
<!-- pyGHDL.dom.DOMMixin -->
<g id="node1" class="node">
<title>pyGHDL.dom.DOMMixin</title>
<g id="a_node1"><a xlink:href="../pyGHDL.dom.html#pyGHDL.dom.DOMMixin" xlink:title="pyGHDL.dom.DOMMixin" target="_top">
<polygon fill="none" stroke="black" stroke-width="0.5" points="400,-56 265,-56 265,-37 400,-37 400,-56"/>
<text text-anchor="middle" x="332.5" y="-44" font-family="Vera Sans, DejaVu Sans, Liberation Sans, Arial, Helvetica, sans" font-size="10.00">pyGHDL.dom.DOMMixin</text>
</a>
</g>
</g>
<!-- pyGHDL.dom.Names.IndexedName -->
<g id="node2" class="node">
<title>pyGHDL.dom.Names.IndexedName</title>
<g id="a_node2"><a xlink:href="../pyGHDL/pyGHDL.dom.Names.html#pyGHDL.dom.Names.IndexedName" xlink:title="pyGHDL.dom.Names.IndexedName" target="_top">
<polygon fill="none" stroke="black" stroke-width="0.5" points="669,-37 480,-37 480,-18 669,-18 669,-37"/>
<text text-anchor="middle" x="574.5" y="-25" font-family="Vera Sans, DejaVu Sans, Liberation Sans, Arial, Helvetica, sans" font-size="10.00">pyGHDL.dom.Names.IndexedName</text>
</a>
</g>
</g>
<!-- pyGHDL.dom.DOMMixin&#45;&gt;pyGHDL.dom.Names.IndexedName -->
<g id="edge2" class="edge">
<title>pyGHDL.dom.DOMMixin&#45;&gt;pyGHDL.dom.Names.IndexedName</title>
<path fill="none" stroke="black" stroke-width="0.5" d="M400.03,-41.23C423.18,-39.4 449.67,-37.3 474.86,-35.31"/>
<polygon fill="black" stroke="black" stroke-width="0.5" points="475.03,-37.05 479.88,-34.91 474.76,-33.56 475.03,-37.05"/>
</g>
<!-- pyVHDLModel.SyntaxModel.IndexedName -->
<g id="node3" class="node">
<title>pyVHDLModel.SyntaxModel.IndexedName</title>
<polygon fill="none" stroke="black" stroke-width="0.5" points="444,-19 221,-19 221,0 444,0 444,-19"/>
<text text-anchor="middle" x="332.5" y="-7" font-family="Vera Sans, DejaVu Sans, Liberation Sans, Arial, Helvetica, sans" font-size="10.00">pyVHDLModel.SyntaxModel.IndexedName</text>
</g>
<!-- pyVHDLModel.SyntaxModel.IndexedName&#45;&gt;pyGHDL.dom.Names.IndexedName -->
<g id="edge1" class="edge">
<title>pyVHDLModel.SyntaxModel.IndexedName&#45;&gt;pyGHDL.dom.Names.IndexedName</title>
<path fill="none" stroke="black" stroke-width="0.5" d="M444.02,-17.79C454.18,-18.55 464.43,-19.32 474.48,-20.07"/>
<polygon fill="black" stroke="black" stroke-width="0.5" points="474.6,-21.84 479.72,-20.47 474.86,-18.35 474.6,-21.84"/>
</g>
<!-- pyVHDLModel.SyntaxModel.Name -->
<g id="node4" class="node">
<title>pyVHDLModel.SyntaxModel.Name</title>
<g id="a_node4"><a xlink:title="``Name`` is the base class for all *names* in the VHDL language model.">
<polygon fill="none" stroke="black" stroke-width="0.5" points="185,-19 0,-19 0,0 185,0 185,-19"/>
<text text-anchor="middle" x="92.5" y="-7" font-family="Vera Sans, DejaVu Sans, Liberation Sans, Arial, Helvetica, sans" font-size="10.00">pyVHDLModel.SyntaxModel.Name</text>
</a>
</g>
</g>
<!-- pyVHDLModel.SyntaxModel.Name&#45;&gt;pyVHDLModel.SyntaxModel.IndexedName -->
<g id="edge3" class="edge">
<title>pyVHDLModel.SyntaxModel.Name&#45;&gt;pyVHDLModel.SyntaxModel.IndexedName</title>
<path fill="none" stroke="black" stroke-width="0.5" d="M185.18,-9.5C195.19,-9.5 205.48,-9.5 215.74,-9.5"/>
<polygon fill="black" stroke="black" stroke-width="0.5" points="215.77,-11.25 220.77,-9.5 215.77,-7.75 215.77,-11.25"/>
</g>
</g>
</svg>
