<?xml version="1.0" encoding="UTF-8" standalone="no"?>
<!DOCTYPE svg PUBLIC "-//W3C//DTD SVG 1.1//EN"
 "http://www.w3.org/Graphics/SVG/1.1/DTD/svg11.dtd">
<!-- Generated by graphviz version 2.43.0 (0)
 -->
<!-- Title: inheritance11bcd72a94 Pages: 1 -->
<svg width="576pt" height="30pt"
 viewBox="0.00 0.00 576.00 30.19" xmlns="http://www.w3.org/2000/svg" xmlns:xlink="http://www.w3.org/1999/xlink">
<g id="graph0" class="graph" transform="scale(2.12 2.12) rotate(0) translate(4 60)">
<title>inheritance11bcd72a94</title>
<polygon fill="white" stroke="transparent" points="-4,4 -4,-60 1217,-60 1217,4 -4,4"/>
<!-- pyGHDL.dom.DOMMixin -->
<g id="node1" class="node">
<title>pyGHDL.dom.DOMMixin</title>
<g id="a_node1"><a xlink:href="../pyGHDL.dom.html#pyGHDL.dom.DOMMixin" xlink:title="pyGHDL.dom.DOMMixin" target="_top">
<polygon fill="none" stroke="black" stroke-width="0.5" points="910,-56 775,-56 775,-37 910,-37 910,-56"/>
<text text-anchor="middle" x="842.5" y="-44" font-family="Vera Sans, DejaVu Sans, Liberation Sans, Arial, Helvetica, sans" font-size="10.00">pyGHDL.dom.DOMMixin</text>
</a>
</g>
</g>
<!-- pyGHDL.dom.Expression.TypeConversion -->
<g id="node2" class="node">
<title>pyGHDL.dom.Expression.TypeConversion</title>
<g id="a_node2"><a xlink:href="../pyGHDL/pyGHDL.dom.Expression.html#pyGHDL.dom.Expression.TypeConversion" xlink:title="pyGHDL.dom.Expression.TypeConversion" target="_top">
<polygon fill="none" stroke="black" stroke-width="0.5" points="1213,-37 995,-37 995,-18 1213,-18 1213,-37"/>
<text text-anchor="middle" x="1104" y="-25" font-family="Vera Sans, DejaVu Sans, Liberation Sans, Arial, Helvetica, sans" font-size="10.00">pyGHDL.dom.Expression.TypeConversion</text>
</a>
</g>
</g>
<!-- pyGHDL.dom.DOMMixin&#45;&gt;pyGHDL.dom.Expression.TypeConversion -->
<g id="edge2" class="edge">
<title>pyGHDL.dom.DOMMixin&#45;&gt;pyGHDL.dom.Expression.TypeConversion</title>
<path fill="none" stroke="black" stroke-width="0.5" d="M910.33,-41.61C934.57,-39.83 962.69,-37.77 989.82,-35.79"/>
<polygon fill="black" stroke="black" stroke-width="0.5" points="990.01,-37.53 994.87,-35.42 989.76,-34.04 990.01,-37.53"/>
</g>
<!-- pyVHDLModel.SyntaxModel.TypeConversion -->
<g id="node3" class="node">
<title>pyVHDLModel.SyntaxModel.TypeConversion</title>
<polygon fill="none" stroke="black" stroke-width="0.5" points="959,-19 726,-19 726,0 959,0 959,-19"/>
<text text-anchor="middle" x="842.5" y="-7" font-family="Vera Sans, DejaVu Sans, Liberation Sans, Arial, Helvetica, sans" font-size="10.00">pyVHDLModel.SyntaxModel.TypeConversion</text>
</g>
<!-- pyVHDLModel.SyntaxModel.TypeConversion&#45;&gt;pyGHDL.dom.Expression.TypeConversion -->
<g id="edge1" class="edge">
<title>pyVHDLModel.SyntaxModel.TypeConversion&#45;&gt;pyGHDL.dom.Expression.TypeConversion</title>
<path fill="none" stroke="black" stroke-width="0.5" d="M959.21,-17.53C969.43,-18.24 979.77,-18.95 989.97,-19.66"/>
<polygon fill="black" stroke="black" stroke-width="0.5" points="989.85,-21.41 994.96,-20.01 990.1,-17.91 989.85,-21.41"/>
</g>
<!-- pyVHDLModel.ModelEntity -->
<g id="node4" class="node">
<title>pyVHDLModel.ModelEntity</title>
<g id="a_node4"><a xlink:title="``ModelEntity`` is the base class for all classes in the VHDL language model,">
<polygon fill="none" stroke="black" stroke-width="0.5" points="147,-19 0,-19 0,0 147,0 147,-19"/>
<text text-anchor="middle" x="73.5" y="-7" font-family="Vera Sans, DejaVu Sans, Liberation Sans, Arial, Helvetica, sans" font-size="10.00">pyVHDLModel.ModelEntity</text>
</a>
</g>
</g>
<!-- pyVHDLModel.SyntaxModel.BaseExpression -->
<g id="node5" class="node">
<title>pyVHDLModel.SyntaxModel.BaseExpression</title>
<g id="a_node5"><a xlink:title="A ``BaseExpression`` is a base&#45;class for all expressions.">
<polygon fill="none" stroke="black" stroke-width="0.5" points="416,-19 183,-19 183,0 416,0 416,-19"/>
<text text-anchor="middle" x="299.5" y="-7" font-family="Vera Sans, DejaVu Sans, Liberation Sans, Arial, Helvetica, sans" font-size="10.00">pyVHDLModel.SyntaxModel.BaseExpression</text>
</a>
</g>
</g>
<!-- pyVHDLModel.ModelEntity&#45;&gt;pyVHDLModel.SyntaxModel.BaseExpression -->
<g id="edge3" class="edge">
<title>pyVHDLModel.ModelEntity&#45;&gt;pyVHDLModel.SyntaxModel.BaseExpression</title>
<path fill="none" stroke="black" stroke-width="0.5" d="M147.23,-9.5C157,-9.5 167.22,-9.5 177.55,-9.5"/>
<polygon fill="black" stroke="black" stroke-width="0.5" points="177.63,-11.25 182.63,-9.5 177.63,-7.75 177.63,-11.25"/>
</g>
<!-- pyVHDLModel.SyntaxModel.UnaryExpression -->
<g id="node6" class="node">
<title>pyVHDLModel.SyntaxModel.UnaryExpression</title>
<g id="a_node6"><a xlink:title="A ``UnaryExpression`` is a base&#45;class for all unary expressions.">
<polygon fill="none" stroke="black" stroke-width="0.5" points="690,-19 452,-19 452,0 690,0 690,-19"/>
<text text-anchor="middle" x="571" y="-7" font-family="Vera Sans, DejaVu Sans, Liberation Sans, Arial, Helvetica, sans" font-size="10.00">pyVHDLModel.SyntaxModel.UnaryExpression</text>
</a>
</g>
</g>
<!-- pyVHDLModel.SyntaxModel.BaseExpression&#45;&gt;pyVHDLModel.SyntaxModel.UnaryExpression -->
<g id="edge5" class="edge">
<title>pyVHDLModel.SyntaxModel.BaseExpression&#45;&gt;pyVHDLModel.SyntaxModel.UnaryExpression</title>
<path fill="none" stroke="black" stroke-width="0.5" d="M416.36,-9.5C426.32,-9.5 436.42,-9.5 446.44,-9.5"/>
<polygon fill="black" stroke="black" stroke-width="0.5" points="446.67,-11.25 451.67,-9.5 446.67,-7.75 446.67,-11.25"/>
</g>
<!-- pyVHDLModel.SyntaxModel.UnaryExpression&#45;&gt;pyVHDLModel.SyntaxModel.TypeConversion -->
<g id="edge4" class="edge">
<title>pyVHDLModel.SyntaxModel.UnaryExpression&#45;&gt;pyVHDLModel.SyntaxModel.TypeConversion</title>
<path fill="none" stroke="black" stroke-width="0.5" d="M690.21,-9.5C700.42,-9.5 710.75,-9.5 720.98,-9.5"/>
<polygon fill="black" stroke="black" stroke-width="0.5" points="720.99,-11.25 725.99,-9.5 720.99,-7.75 720.99,-11.25"/>
</g>
</g>
</svg>
