<?xml version="1.0" encoding="UTF-8" standalone="no"?>
<!DOCTYPE svg PUBLIC "-//W3C//DTD SVG 1.1//EN"
 "http://www.w3.org/Graphics/SVG/1.1/DTD/svg11.dtd">
<!-- Generated by graphviz version 2.43.0 (0)
 -->
<!-- Title: inheritance576d7b636b Pages: 1 -->
<svg width="576pt" height="26pt"
 viewBox="0.00 0.00 576.00 26.43" xmlns="http://www.w3.org/2000/svg" xmlns:xlink="http://www.w3.org/1999/xlink">
<g id="graph0" class="graph" transform="scale(3.14 3.14) rotate(0) translate(4 79)">
<title>inheritance576d7b636b</title>
<polygon fill="white" stroke="transparent" points="-4,4 -4,-79 1805,-79 1805,4 -4,4"/>
<!-- pyGHDL.dom.DOMMixin -->
<g id="node1" class="node">
<title>pyGHDL.dom.DOMMixin</title>
<g id="a_node1"><a xlink:href="../pyGHDL.dom.html#pyGHDL.dom.DOMMixin" xlink:title="pyGHDL.dom.DOMMixin" target="_top">
<polygon fill="none" stroke="black" stroke-width="0.5" points="1482,-74 1347,-74 1347,-55 1482,-55 1482,-74"/>
<text text-anchor="middle" x="1414.5" y="-62" font-family="Vera Sans, DejaVu Sans, Liberation Sans, Arial, Helvetica, sans" font-size="10.00">pyGHDL.dom.DOMMixin</text>
</a>
</g>
</g>
<!-- pyGHDL.dom.Sequential.ForLoopStatement -->
<g id="node2" class="node">
<title>pyGHDL.dom.Sequential.ForLoopStatement</title>
<g id="a_node2"><a xlink:href="../pyGHDL/pyGHDL.dom.Sequential.html#pyGHDL.dom.Sequential.ForLoopStatement" xlink:title="pyGHDL.dom.Sequential.ForLoopStatement" target="_top">
<polygon fill="none" stroke="black" stroke-width="0.5" points="1801,-55 1573,-55 1573,-36 1801,-36 1801,-55"/>
<text text-anchor="middle" x="1687" y="-43" font-family="Vera Sans, DejaVu Sans, Liberation Sans, Arial, Helvetica, sans" font-size="10.00">pyGHDL.dom.Sequential.ForLoopStatement</text>
</a>
</g>
</g>
<!-- pyGHDL.dom.DOMMixin&#45;&gt;pyGHDL.dom.Sequential.ForLoopStatement -->
<g id="edge2" class="edge">
<title>pyGHDL.dom.DOMMixin&#45;&gt;pyGHDL.dom.Sequential.ForLoopStatement</title>
<path fill="none" stroke="black" stroke-width="0.5" d="M1482.02,-59.83C1507.9,-58.01 1538.35,-55.87 1567.71,-53.81"/>
<polygon fill="black" stroke="black" stroke-width="0.5" points="1567.93,-55.55 1572.8,-53.45 1567.69,-52.06 1567.93,-55.55"/>
</g>
<!-- pyVHDLModel.SyntaxModel.ForLoopStatement -->
<g id="node3" class="node">
<title>pyVHDLModel.SyntaxModel.ForLoopStatement</title>
<polygon fill="none" stroke="black" stroke-width="0.5" points="1537,-37 1292,-37 1292,-18 1537,-18 1537,-37"/>
<text text-anchor="middle" x="1414.5" y="-25" font-family="Vera Sans, DejaVu Sans, Liberation Sans, Arial, Helvetica, sans" font-size="10.00">pyVHDLModel.SyntaxModel.ForLoopStatement</text>
</g>
<!-- pyVHDLModel.SyntaxModel.ForLoopStatement&#45;&gt;pyGHDL.dom.Sequential.ForLoopStatement -->
<g id="edge1" class="edge">
<title>pyVHDLModel.SyntaxModel.ForLoopStatement&#45;&gt;pyGHDL.dom.Sequential.ForLoopStatement</title>
<path fill="none" stroke="black" stroke-width="0.5" d="M1537.3,-35.6C1547.33,-36.27 1557.46,-36.95 1567.47,-37.61"/>
<polygon fill="black" stroke="black" stroke-width="0.5" points="1567.58,-39.37 1572.69,-37.96 1567.81,-35.88 1567.58,-39.37"/>
</g>
<!-- pyVHDLModel.LabeledEntity -->
<g id="node4" class="node">
<title>pyVHDLModel.LabeledEntity</title>
<g id="a_node4"><a xlink:title="A ``LabeledEntity`` is a mixin class for all VHDL entities that can have">
<polygon fill="none" stroke="black" stroke-width="0.5" points="155,-75 0,-75 0,-56 155,-56 155,-75"/>
<text text-anchor="middle" x="77.5" y="-63" font-family="Vera Sans, DejaVu Sans, Liberation Sans, Arial, Helvetica, sans" font-size="10.00">pyVHDLModel.LabeledEntity</text>
</a>
</g>
</g>
<!-- pyVHDLModel.SyntaxModel.Statement -->
<g id="node10" class="node">
<title>pyVHDLModel.SyntaxModel.Statement</title>
<polygon fill="none" stroke="black" stroke-width="0.5" points="397,-56 191,-56 191,-37 397,-37 397,-56"/>
<text text-anchor="middle" x="294" y="-44" font-family="Vera Sans, DejaVu Sans, Liberation Sans, Arial, Helvetica, sans" font-size="10.00">pyVHDLModel.SyntaxModel.Statement</text>
</g>
<!-- pyVHDLModel.LabeledEntity&#45;&gt;pyVHDLModel.SyntaxModel.Statement -->
<g id="edge9" class="edge">
<title>pyVHDLModel.LabeledEntity&#45;&gt;pyVHDLModel.SyntaxModel.Statement</title>
<path fill="none" stroke="black" stroke-width="0.5" d="M155.03,-58.72C164.96,-57.84 175.27,-56.93 185.58,-56.02"/>
<polygon fill="black" stroke="black" stroke-width="0.5" points="185.81,-57.75 190.64,-55.57 185.5,-54.27 185.81,-57.75"/>
</g>
<!-- pyVHDLModel.ModelEntity -->
<g id="node5" class="node">
<title>pyVHDLModel.ModelEntity</title>
<g id="a_node5"><a xlink:title="``ModelEntity`` is the base class for all classes in the VHDL language model,">
<polygon fill="none" stroke="black" stroke-width="0.5" points="151,-38 4,-38 4,-19 151,-19 151,-38"/>
<text text-anchor="middle" x="77.5" y="-26" font-family="Vera Sans, DejaVu Sans, Liberation Sans, Arial, Helvetica, sans" font-size="10.00">pyVHDLModel.ModelEntity</text>
</a>
</g>
</g>
<!-- pyVHDLModel.ModelEntity&#45;&gt;pyVHDLModel.SyntaxModel.Statement -->
<g id="edge8" class="edge">
<title>pyVHDLModel.ModelEntity&#45;&gt;pyVHDLModel.SyntaxModel.Statement</title>
<path fill="none" stroke="black" stroke-width="0.5" d="M151.12,-34.59C162.29,-35.53 174.01,-36.52 185.74,-37.5"/>
<polygon fill="black" stroke="black" stroke-width="0.5" points="185.64,-39.25 190.77,-37.92 185.93,-35.76 185.64,-39.25"/>
</g>
<!-- pyVHDLModel.SyntaxModel.CompoundStatement -->
<g id="node6" class="node">
<title>pyVHDLModel.SyntaxModel.CompoundStatement</title>
<g id="a_node6"><a xlink:title="A ``CompoundStatement`` is a base&#45;class for all compound statements.">
<polygon fill="none" stroke="black" stroke-width="0.5" points="988,-56 729,-56 729,-37 988,-37 988,-56"/>
<text text-anchor="middle" x="858.5" y="-44" font-family="Vera Sans, DejaVu Sans, Liberation Sans, Arial, Helvetica, sans" font-size="10.00">pyVHDLModel.SyntaxModel.CompoundStatement</text>
</a>
</g>
</g>
<!-- pyVHDLModel.SyntaxModel.LoopStatement -->
<g id="node8" class="node">
<title>pyVHDLModel.SyntaxModel.LoopStatement</title>
<g id="a_node8"><a xlink:title="A ``LoopStatement`` is a base&#45;class for all loop statements.">
<polygon fill="none" stroke="black" stroke-width="0.5" points="1256,-37 1026,-37 1026,-18 1256,-18 1256,-37"/>
<text text-anchor="middle" x="1141" y="-25" font-family="Vera Sans, DejaVu Sans, Liberation Sans, Arial, Helvetica, sans" font-size="10.00">pyVHDLModel.SyntaxModel.LoopStatement</text>
</a>
</g>
</g>
<!-- pyVHDLModel.SyntaxModel.CompoundStatement&#45;&gt;pyVHDLModel.SyntaxModel.LoopStatement -->
<g id="edge5" class="edge">
<title>pyVHDLModel.SyntaxModel.CompoundStatement&#45;&gt;pyVHDLModel.SyntaxModel.LoopStatement</title>
<path fill="none" stroke="black" stroke-width="0.5" d="M988.26,-37.78C999.02,-37.05 1009.88,-36.31 1020.58,-35.59"/>
<polygon fill="black" stroke="black" stroke-width="0.5" points="1020.94,-37.32 1025.81,-35.23 1020.71,-33.83 1020.94,-37.32"/>
</g>
<!-- pyVHDLModel.SyntaxModel.SequentialStatement -->
<g id="node7" class="node">
<title>pyVHDLModel.SyntaxModel.SequentialStatement</title>
<g id="a_node7"><a xlink:title="A ``SequentialStatement`` is a base&#45;class for all sequential statements.">
<polygon fill="none" stroke="black" stroke-width="0.5" points="691,-56 433,-56 433,-37 691,-37 691,-56"/>
<text text-anchor="middle" x="562" y="-44" font-family="Vera Sans, DejaVu Sans, Liberation Sans, Arial, Helvetica, sans" font-size="10.00">pyVHDLModel.SyntaxModel.SequentialStatement</text>
</a>
</g>
</g>
<!-- pyVHDLModel.SyntaxModel.SequentialStatement&#45;&gt;pyVHDLModel.SyntaxModel.CompoundStatement -->
<g id="edge3" class="edge">
<title>pyVHDLModel.SyntaxModel.SequentialStatement&#45;&gt;pyVHDLModel.SyntaxModel.CompoundStatement</title>
<path fill="none" stroke="black" stroke-width="0.5" d="M691.32,-46.5C701.97,-46.5 712.76,-46.5 723.46,-46.5"/>
<polygon fill="black" stroke="black" stroke-width="0.5" points="723.7,-48.25 728.7,-46.5 723.7,-44.75 723.7,-48.25"/>
</g>
<!-- pyVHDLModel.SyntaxModel.LoopStatement&#45;&gt;pyVHDLModel.SyntaxModel.ForLoopStatement -->
<g id="edge4" class="edge">
<title>pyVHDLModel.SyntaxModel.LoopStatement&#45;&gt;pyVHDLModel.SyntaxModel.ForLoopStatement</title>
<path fill="none" stroke="black" stroke-width="0.5" d="M1256.35,-27.5C1266.35,-27.5 1276.5,-27.5 1286.59,-27.5"/>
<polygon fill="black" stroke="black" stroke-width="0.5" points="1286.86,-29.25 1291.86,-27.5 1286.86,-25.75 1286.86,-29.25"/>
</g>
<!-- pyVHDLModel.SyntaxModel.SequentialStatements -->
<g id="node9" class="node">
<title>pyVHDLModel.SyntaxModel.SequentialStatements</title>
<polygon fill="none" stroke="black" stroke-width="0.5" points="990,-19 727,-19 727,0 990,0 990,-19"/>
<text text-anchor="middle" x="858.5" y="-7" font-family="Vera Sans, DejaVu Sans, Liberation Sans, Arial, Helvetica, sans" font-size="10.00">pyVHDLModel.SyntaxModel.SequentialStatements</text>
</g>
<!-- pyVHDLModel.SyntaxModel.SequentialStatements&#45;&gt;pyVHDLModel.SyntaxModel.LoopStatement -->
<g id="edge6" class="edge">
<title>pyVHDLModel.SyntaxModel.SequentialStatements&#45;&gt;pyVHDLModel.SyntaxModel.LoopStatement</title>
<path fill="none" stroke="black" stroke-width="0.5" d="M990.31,-17.89C1000.4,-18.54 1010.56,-19.19 1020.58,-19.84"/>
<polygon fill="black" stroke="black" stroke-width="0.5" points="1020.7,-21.6 1025.8,-20.17 1020.92,-18.1 1020.7,-21.6"/>
</g>
<!-- pyVHDLModel.SyntaxModel.Statement&#45;&gt;pyVHDLModel.SyntaxModel.SequentialStatement -->
<g id="edge7" class="edge">
<title>pyVHDLModel.SyntaxModel.Statement&#45;&gt;pyVHDLModel.SyntaxModel.SequentialStatement</title>
<path fill="none" stroke="black" stroke-width="0.5" d="M397.08,-46.5C407.15,-46.5 417.48,-46.5 427.8,-46.5"/>
<polygon fill="black" stroke="black" stroke-width="0.5" points="427.87,-48.25 432.87,-46.5 427.87,-44.75 427.87,-48.25"/>
</g>
</g>
</svg>
