<?xml version="1.0" encoding="UTF-8" standalone="no"?>
<!DOCTYPE svg PUBLIC "-//W3C//DTD SVG 1.1//EN"
 "http://www.w3.org/Graphics/SVG/1.1/DTD/svg11.dtd">
<!-- Generated by graphviz version 2.43.0 (0)
 -->
<!-- Title: inheritance9aabb2511b Pages: 1 -->
<svg width="576pt" height="66pt"
 viewBox="0.00 0.00 576.00 65.93" xmlns="http://www.w3.org/2000/svg" xmlns:xlink="http://www.w3.org/1999/xlink">
<g id="graph0" class="graph" transform="scale(2.37 2.37) rotate(0) translate(4 152)">
<title>inheritance9aabb2511b</title>
<polygon fill="white" stroke="transparent" points="-4,4 -4,-152 1359,-152 1359,4 -4,4"/>
<!-- pyGHDL.dom.Concurrent.IfGenerateBranch -->
<g id="node1" class="node">
<title>pyGHDL.dom.Concurrent.IfGenerateBranch</title>
<g id="a_node1"><a xlink:href="../pyGHDL/pyGHDL.dom.Concurrent.html#pyGHDL.dom.Concurrent.IfGenerateBranch" xlink:title="pyGHDL.dom.Concurrent.IfGenerateBranch" target="_top">
<polygon fill="none" stroke="black" stroke-width="0.5" points="1355,-73 1129,-73 1129,-54 1355,-54 1355,-73"/>
<text text-anchor="middle" x="1242" y="-61" font-family="Vera Sans, DejaVu Sans, Liberation Sans, Arial, Helvetica, sans" font-size="10.00">pyGHDL.dom.Concurrent.IfGenerateBranch</text>
</a>
</g>
</g>
<!-- pyVHDLModel.SyntaxModel.IfGenerateBranch -->
<g id="node2" class="node">
<title>pyVHDLModel.SyntaxModel.IfGenerateBranch</title>
<polygon fill="none" stroke="black" stroke-width="0.5" points="1093,-73 852,-73 852,-54 1093,-54 1093,-73"/>
<text text-anchor="middle" x="972.5" y="-61" font-family="Vera Sans, DejaVu Sans, Liberation Sans, Arial, Helvetica, sans" font-size="10.00">pyVHDLModel.SyntaxModel.IfGenerateBranch</text>
</g>
<!-- pyVHDLModel.SyntaxModel.IfGenerateBranch&#45;&gt;pyGHDL.dom.Concurrent.IfGenerateBranch -->
<g id="edge1" class="edge">
<title>pyVHDLModel.SyntaxModel.IfGenerateBranch&#45;&gt;pyGHDL.dom.Concurrent.IfGenerateBranch</title>
<path fill="none" stroke="black" stroke-width="0.5" d="M1093.17,-63.5C1103.24,-63.5 1113.41,-63.5 1123.47,-63.5"/>
<polygon fill="black" stroke="black" stroke-width="0.5" points="1123.71,-65.25 1128.71,-63.5 1123.71,-61.75 1123.71,-65.25"/>
</g>
<!-- pyVHDLModel.ModelEntity -->
<g id="node3" class="node">
<title>pyVHDLModel.ModelEntity</title>
<g id="a_node3"><a xlink:title="``ModelEntity`` is the base class for all classes in the VHDL language model,">
<polygon fill="none" stroke="black" stroke-width="0.5" points="483.5,-148 336.5,-148 336.5,-129 483.5,-129 483.5,-148"/>
<text text-anchor="middle" x="410" y="-136" font-family="Vera Sans, DejaVu Sans, Liberation Sans, Arial, Helvetica, sans" font-size="10.00">pyVHDLModel.ModelEntity</text>
</a>
</g>
</g>
<!-- pyVHDLModel.SyntaxModel.GenerateBranch -->
<g id="node6" class="node">
<title>pyVHDLModel.SyntaxModel.GenerateBranch</title>
<g id="a_node6"><a xlink:title="A ``GenerateBranch`` is a base&#45;class for all branches in a generate statements.">
<polygon fill="none" stroke="black" stroke-width="0.5" points="816,-101 582,-101 582,-82 816,-82 816,-101"/>
<text text-anchor="middle" x="699" y="-89" font-family="Vera Sans, DejaVu Sans, Liberation Sans, Arial, Helvetica, sans" font-size="10.00">pyVHDLModel.SyntaxModel.GenerateBranch</text>
</a>
</g>
</g>
<!-- pyVHDLModel.ModelEntity&#45;&gt;pyVHDLModel.SyntaxModel.GenerateBranch -->
<g id="edge2" class="edge">
<title>pyVHDLModel.ModelEntity&#45;&gt;pyVHDLModel.SyntaxModel.GenerateBranch</title>
<path fill="none" stroke="black" stroke-width="0.5" d="M483.62,-129.58C503.85,-126.88 525.81,-123.77 546,-120.5 579.59,-115.06 617.16,-107.9 646.54,-102.06"/>
<polygon fill="black" stroke="black" stroke-width="0.5" points="646.99,-103.75 651.55,-101.06 646.31,-100.32 646.99,-103.75"/>
</g>
<!-- pyVHDLModel.SyntaxModel.ConcurrentDeclarations -->
<g id="node4" class="node">
<title>pyVHDLModel.SyntaxModel.ConcurrentDeclarations</title>
<polygon fill="none" stroke="black" stroke-width="0.5" points="545,-111 275,-111 275,-92 545,-92 545,-111"/>
<text text-anchor="middle" x="410" y="-99" font-family="Vera Sans, DejaVu Sans, Liberation Sans, Arial, Helvetica, sans" font-size="10.00">pyVHDLModel.SyntaxModel.ConcurrentDeclarations</text>
</g>
<!-- pyVHDLModel.SyntaxModel.ConcurrentDeclarations&#45;&gt;pyVHDLModel.SyntaxModel.GenerateBranch -->
<g id="edge3" class="edge">
<title>pyVHDLModel.SyntaxModel.ConcurrentDeclarations&#45;&gt;pyVHDLModel.SyntaxModel.GenerateBranch</title>
<path fill="none" stroke="black" stroke-width="0.5" d="M545.26,-96.82C555.79,-96.46 566.39,-96.09 576.82,-95.72"/>
<polygon fill="black" stroke="black" stroke-width="0.5" points="577,-97.47 581.93,-95.54 576.87,-93.97 577,-97.47"/>
</g>
<!-- pyVHDLModel.SyntaxModel.ConcurrentStatements -->
<g id="node5" class="node">
<title>pyVHDLModel.SyntaxModel.ConcurrentStatements</title>
<polygon fill="none" stroke="black" stroke-width="0.5" points="542.5,-74 277.5,-74 277.5,-55 542.5,-55 542.5,-74"/>
<text text-anchor="middle" x="410" y="-62" font-family="Vera Sans, DejaVu Sans, Liberation Sans, Arial, Helvetica, sans" font-size="10.00">pyVHDLModel.SyntaxModel.ConcurrentStatements</text>
</g>
<!-- pyVHDLModel.SyntaxModel.ConcurrentStatements&#45;&gt;pyVHDLModel.SyntaxModel.GenerateBranch -->
<g id="edge4" class="edge">
<title>pyVHDLModel.SyntaxModel.ConcurrentStatements&#45;&gt;pyVHDLModel.SyntaxModel.GenerateBranch</title>
<path fill="none" stroke="black" stroke-width="0.5" d="M512.19,-74.02C537.91,-76.44 565.62,-79.05 591.59,-81.49"/>
<polygon fill="black" stroke="black" stroke-width="0.5" points="591.62,-83.25 596.76,-81.98 591.95,-79.77 591.62,-83.25"/>
</g>
<!-- pyVHDLModel.SyntaxModel.GenerateBranch&#45;&gt;pyVHDLModel.SyntaxModel.IfGenerateBranch -->
<g id="edge5" class="edge">
<title>pyVHDLModel.SyntaxModel.GenerateBranch&#45;&gt;pyVHDLModel.SyntaxModel.IfGenerateBranch</title>
<path fill="none" stroke="black" stroke-width="0.5" d="M792.3,-81.98C818.53,-79.28 847.18,-76.32 873.72,-73.58"/>
<polygon fill="black" stroke="black" stroke-width="0.5" points="874.2,-75.29 879,-73.04 873.84,-71.81 874.2,-75.29"/>
</g>
<!-- pyVHDLModel.SyntaxModel.MixinIfBranch -->
<g id="node7" class="node">
<title>pyVHDLModel.SyntaxModel.MixinIfBranch</title>
<g id="a_node7"><a xlink:title="A ``BaseIfBranch`` is a mixin&#45;class for all if&#45;branches.">
<polygon fill="none" stroke="black" stroke-width="0.5" points="810.5,-55 587.5,-55 587.5,-36 810.5,-36 810.5,-55"/>
<text text-anchor="middle" x="699" y="-43" font-family="Vera Sans, DejaVu Sans, Liberation Sans, Arial, Helvetica, sans" font-size="10.00">pyVHDLModel.SyntaxModel.MixinIfBranch</text>
</a>
</g>
</g>
<!-- pyVHDLModel.SyntaxModel.MixinIfBranch&#45;&gt;pyVHDLModel.SyntaxModel.IfGenerateBranch -->
<g id="edge6" class="edge">
<title>pyVHDLModel.SyntaxModel.MixinIfBranch&#45;&gt;pyVHDLModel.SyntaxModel.IfGenerateBranch</title>
<path fill="none" stroke="black" stroke-width="0.5" d="M810.82,-52.85C822.62,-53.63 834.69,-54.43 846.64,-55.22"/>
<polygon fill="black" stroke="black" stroke-width="0.5" points="846.65,-56.98 851.75,-55.56 846.88,-53.48 846.65,-56.98"/>
</g>
<!-- pyVHDLModel.SyntaxModel.MixinBranch -->
<g id="node8" class="node">
<title>pyVHDLModel.SyntaxModel.MixinBranch</title>
<g id="a_node8"><a xlink:title="A ``BaseBranch`` is a mixin&#45;class for all statements with branches.">
<polygon fill="none" stroke="black" stroke-width="0.5" points="227,-56 11,-56 11,-37 227,-37 227,-56"/>
<text text-anchor="middle" x="119" y="-44" font-family="Vera Sans, DejaVu Sans, Liberation Sans, Arial, Helvetica, sans" font-size="10.00">pyVHDLModel.SyntaxModel.MixinBranch</text>
</a>
</g>
</g>
<!-- pyVHDLModel.SyntaxModel.MixinConditionalBranch -->
<g id="node10" class="node">
<title>pyVHDLModel.SyntaxModel.MixinConditionalBranch</title>
<g id="a_node10"><a xlink:title="A ``BaseBranch`` is a mixin&#45;class for all branch statements with a condition.">
<polygon fill="none" stroke="black" stroke-width="0.5" points="546,-37 274,-37 274,-18 546,-18 546,-37"/>
<text text-anchor="middle" x="410" y="-25" font-family="Vera Sans, DejaVu Sans, Liberation Sans, Arial, Helvetica, sans" font-size="10.00">pyVHDLModel.SyntaxModel.MixinConditionalBranch</text>
</a>
</g>
</g>
<!-- pyVHDLModel.SyntaxModel.MixinBranch&#45;&gt;pyVHDLModel.SyntaxModel.MixinConditionalBranch -->
<g id="edge7" class="edge">
<title>pyVHDLModel.SyntaxModel.MixinBranch&#45;&gt;pyVHDLModel.SyntaxModel.MixinConditionalBranch</title>
<path fill="none" stroke="black" stroke-width="0.5" d="M227.2,-39.45C240.65,-38.57 254.56,-37.65 268.42,-36.74"/>
<polygon fill="black" stroke="black" stroke-width="0.5" points="268.65,-38.48 273.53,-36.41 268.42,-34.99 268.65,-38.48"/>
</g>
<!-- pyVHDLModel.SyntaxModel.MixinConditional -->
<g id="node9" class="node">
<title>pyVHDLModel.SyntaxModel.MixinConditional</title>
<g id="a_node9"><a xlink:title="A ``BaseConditional`` is a mixin&#45;class for all statements with a condition.">
<polygon fill="none" stroke="black" stroke-width="0.5" points="238,-19 0,-19 0,0 238,0 238,-19"/>
<text text-anchor="middle" x="119" y="-7" font-family="Vera Sans, DejaVu Sans, Liberation Sans, Arial, Helvetica, sans" font-size="10.00">pyVHDLModel.SyntaxModel.MixinConditional</text>
</a>
</g>
</g>
<!-- pyVHDLModel.SyntaxModel.MixinConditional&#45;&gt;pyVHDLModel.SyntaxModel.MixinConditionalBranch -->
<g id="edge8" class="edge">
<title>pyVHDLModel.SyntaxModel.MixinConditional&#45;&gt;pyVHDLModel.SyntaxModel.MixinConditionalBranch</title>
<path fill="none" stroke="black" stroke-width="0.5" d="M238.38,-16.87C248.43,-17.5 258.65,-18.14 268.84,-18.77"/>
<polygon fill="black" stroke="black" stroke-width="0.5" points="268.74,-20.52 273.84,-19.08 268.96,-17.02 268.74,-20.52"/>
</g>
<!-- pyVHDLModel.SyntaxModel.MixinConditionalBranch&#45;&gt;pyVHDLModel.SyntaxModel.MixinIfBranch -->
<g id="edge9" class="edge">
<title>pyVHDLModel.SyntaxModel.MixinConditionalBranch&#45;&gt;pyVHDLModel.SyntaxModel.MixinIfBranch</title>
<path fill="none" stroke="black" stroke-width="0.5" d="M546.1,-35.97C558.18,-36.73 570.35,-37.49 582.25,-38.24"/>
<polygon fill="black" stroke="black" stroke-width="0.5" points="582.23,-39.99 587.33,-38.56 582.45,-36.5 582.23,-39.99"/>
</g>
</g>
</svg>
