<?xml version="1.0" encoding="UTF-8" standalone="no"?>
<!DOCTYPE svg PUBLIC "-//W3C//DTD SVG 1.1//EN"
 "http://www.w3.org/Graphics/SVG/1.1/DTD/svg11.dtd">
<!-- Generated by graphviz version 2.43.0 (0)
 -->
<!-- Title: inheritance55fef14a52 Pages: 1 -->
<svg width="576pt" height="35pt"
 viewBox="0.00 0.00 576.00 35.12" xmlns="http://www.w3.org/2000/svg" xmlns:xlink="http://www.w3.org/1999/xlink">
<g id="graph0" class="graph" transform="scale(2.34 2.34) rotate(0) translate(4 78)">
<title>inheritance55fef14a52</title>
<polygon fill="white" stroke="transparent" points="-4,4 -4,-78 1341,-78 1341,4 -4,4"/>
<!-- pyGHDL.dom.DOMMixin -->
<g id="node1" class="node">
<title>pyGHDL.dom.DOMMixin</title>
<g id="a_node1"><a xlink:href="../pyGHDL.dom.html#pyGHDL.dom.DOMMixin" xlink:title="pyGHDL.dom.DOMMixin" target="_top">
<polygon fill="none" stroke="black" stroke-width="0.5" points="1096.5,-74 961.5,-74 961.5,-55 1096.5,-55 1096.5,-74"/>
<text text-anchor="middle" x="1029" y="-62" font-family="Vera Sans, DejaVu Sans, Liberation Sans, Arial, Helvetica, sans" font-size="10.00">pyGHDL.dom.DOMMixin</text>
</a>
</g>
</g>
<!-- pyGHDL.dom.Type.RecordType -->
<g id="node2" class="node">
<title>pyGHDL.dom.Type.RecordType</title>
<g id="a_node2"><a xlink:href="../pyGHDL/pyGHDL.dom.Type.html#pyGHDL.dom.Type.RecordType" xlink:title="pyGHDL.dom.Type.RecordType" target="_top">
<polygon fill="none" stroke="black" stroke-width="0.5" points="1337,-55 1171,-55 1171,-36 1337,-36 1337,-55"/>
<text text-anchor="middle" x="1254" y="-43" font-family="Vera Sans, DejaVu Sans, Liberation Sans, Arial, Helvetica, sans" font-size="10.00">pyGHDL.dom.Type.RecordType</text>
</a>
</g>
</g>
<!-- pyGHDL.dom.DOMMixin&#45;&gt;pyGHDL.dom.Type.RecordType -->
<g id="edge2" class="edge">
<title>pyGHDL.dom.DOMMixin&#45;&gt;pyGHDL.dom.Type.RecordType</title>
<path fill="none" stroke="black" stroke-width="0.5" d="M1096.61,-58.83C1118.32,-56.97 1142.76,-54.89 1165.76,-52.93"/>
<polygon fill="black" stroke="black" stroke-width="0.5" points="1166.12,-54.66 1170.95,-52.49 1165.82,-51.17 1166.12,-54.66"/>
</g>
<!-- pyVHDLModel.SyntaxModel.RecordType -->
<g id="node3" class="node">
<title>pyVHDLModel.SyntaxModel.RecordType</title>
<polygon fill="none" stroke="black" stroke-width="0.5" points="1135,-37 923,-37 923,-18 1135,-18 1135,-37"/>
<text text-anchor="middle" x="1029" y="-25" font-family="Vera Sans, DejaVu Sans, Liberation Sans, Arial, Helvetica, sans" font-size="10.00">pyVHDLModel.SyntaxModel.RecordType</text>
</g>
<!-- pyVHDLModel.SyntaxModel.RecordType&#45;&gt;pyGHDL.dom.Type.RecordType -->
<g id="edge1" class="edge">
<title>pyVHDLModel.SyntaxModel.RecordType&#45;&gt;pyGHDL.dom.Type.RecordType</title>
<path fill="none" stroke="black" stroke-width="0.5" d="M1135.3,-36C1145.48,-36.82 1155.72,-37.65 1165.7,-38.45"/>
<polygon fill="black" stroke="black" stroke-width="0.5" points="1165.77,-40.21 1170.89,-38.87 1166.05,-36.73 1165.77,-40.21"/>
</g>
<!-- pyVHDLModel.ModelEntity -->
<g id="node4" class="node">
<title>pyVHDLModel.ModelEntity</title>
<g id="a_node4"><a xlink:title="``ModelEntity`` is the base class for all classes in the VHDL language model,">
<polygon fill="none" stroke="black" stroke-width="0.5" points="149.5,-56 2.5,-56 2.5,-37 149.5,-37 149.5,-56"/>
<text text-anchor="middle" x="76" y="-44" font-family="Vera Sans, DejaVu Sans, Liberation Sans, Arial, Helvetica, sans" font-size="10.00">pyVHDLModel.ModelEntity</text>
</a>
</g>
</g>
<!-- pyVHDLModel.SyntaxModel.BaseType -->
<g id="node6" class="node">
<title>pyVHDLModel.SyntaxModel.BaseType</title>
<g id="a_node6"><a xlink:title="``BaseType`` is the base class of all type entities in this model.">
<polygon fill="none" stroke="black" stroke-width="0.5" points="390,-37 188,-37 188,-18 390,-18 390,-37"/>
<text text-anchor="middle" x="289" y="-25" font-family="Vera Sans, DejaVu Sans, Liberation Sans, Arial, Helvetica, sans" font-size="10.00">pyVHDLModel.SyntaxModel.BaseType</text>
</a>
</g>
</g>
<!-- pyVHDLModel.ModelEntity&#45;&gt;pyVHDLModel.SyntaxModel.BaseType -->
<g id="edge3" class="edge">
<title>pyVHDLModel.ModelEntity&#45;&gt;pyVHDLModel.SyntaxModel.BaseType</title>
<path fill="none" stroke="black" stroke-width="0.5" d="M149.61,-39.96C160.26,-39 171.41,-38 182.55,-37"/>
<polygon fill="black" stroke="black" stroke-width="0.5" points="182.85,-38.73 187.67,-36.53 182.53,-35.24 182.85,-38.73"/>
</g>
<!-- pyVHDLModel.NamedEntity -->
<g id="node5" class="node">
<title>pyVHDLModel.NamedEntity</title>
<g id="a_node5"><a xlink:title="A ``NamedEntity`` is a mixin class for all VHDL entities that have identifiers.">
<polygon fill="none" stroke="black" stroke-width="0.5" points="152,-19 0,-19 0,0 152,0 152,-19"/>
<text text-anchor="middle" x="76" y="-7" font-family="Vera Sans, DejaVu Sans, Liberation Sans, Arial, Helvetica, sans" font-size="10.00">pyVHDLModel.NamedEntity</text>
</a>
</g>
</g>
<!-- pyVHDLModel.NamedEntity&#45;&gt;pyVHDLModel.SyntaxModel.BaseType -->
<g id="edge4" class="edge">
<title>pyVHDLModel.NamedEntity&#45;&gt;pyVHDLModel.SyntaxModel.BaseType</title>
<path fill="none" stroke="black" stroke-width="0.5" d="M152.28,-15.92C162.15,-16.76 172.4,-17.64 182.65,-18.51"/>
<polygon fill="black" stroke="black" stroke-width="0.5" points="182.55,-20.26 187.68,-18.94 182.84,-16.77 182.55,-20.26"/>
</g>
<!-- pyVHDLModel.SyntaxModel.FullType -->
<g id="node8" class="node">
<title>pyVHDLModel.SyntaxModel.FullType</title>
<polygon fill="none" stroke="black" stroke-width="0.5" points="621,-37 426,-37 426,-18 621,-18 621,-37"/>
<text text-anchor="middle" x="523.5" y="-25" font-family="Vera Sans, DejaVu Sans, Liberation Sans, Arial, Helvetica, sans" font-size="10.00">pyVHDLModel.SyntaxModel.FullType</text>
</g>
<!-- pyVHDLModel.SyntaxModel.BaseType&#45;&gt;pyVHDLModel.SyntaxModel.FullType -->
<g id="edge6" class="edge">
<title>pyVHDLModel.SyntaxModel.BaseType&#45;&gt;pyVHDLModel.SyntaxModel.FullType</title>
<path fill="none" stroke="black" stroke-width="0.5" d="M390.29,-27.5C400.34,-27.5 410.54,-27.5 420.61,-27.5"/>
<polygon fill="black" stroke="black" stroke-width="0.5" points="420.86,-29.25 425.86,-27.5 420.86,-25.75 420.86,-29.25"/>
</g>
<!-- pyVHDLModel.SyntaxModel.CompositeType -->
<g id="node7" class="node">
<title>pyVHDLModel.SyntaxModel.CompositeType</title>
<g id="a_node7"><a xlink:title="A ``CompositeType`` is a base&#45;class for all composite types.">
<polygon fill="none" stroke="black" stroke-width="0.5" points="887,-37 657,-37 657,-18 887,-18 887,-37"/>
<text text-anchor="middle" x="772" y="-25" font-family="Vera Sans, DejaVu Sans, Liberation Sans, Arial, Helvetica, sans" font-size="10.00">pyVHDLModel.SyntaxModel.CompositeType</text>
</a>
</g>
</g>
<!-- pyVHDLModel.SyntaxModel.CompositeType&#45;&gt;pyVHDLModel.SyntaxModel.RecordType -->
<g id="edge7" class="edge">
<title>pyVHDLModel.SyntaxModel.CompositeType&#45;&gt;pyVHDLModel.SyntaxModel.RecordType</title>
<path fill="none" stroke="black" stroke-width="0.5" d="M887.07,-27.5C897.33,-27.5 907.7,-27.5 917.93,-27.5"/>
<polygon fill="black" stroke="black" stroke-width="0.5" points="917.93,-29.25 922.93,-27.5 917.93,-25.75 917.93,-29.25"/>
</g>
<!-- pyVHDLModel.SyntaxModel.FullType&#45;&gt;pyVHDLModel.SyntaxModel.CompositeType -->
<g id="edge5" class="edge">
<title>pyVHDLModel.SyntaxModel.FullType&#45;&gt;pyVHDLModel.SyntaxModel.CompositeType</title>
<path fill="none" stroke="black" stroke-width="0.5" d="M621.22,-27.5C631.3,-27.5 641.63,-27.5 651.93,-27.5"/>
<polygon fill="black" stroke="black" stroke-width="0.5" points="651.98,-29.25 656.98,-27.5 651.98,-25.75 651.98,-29.25"/>
</g>
</g>
</svg>
