<?xml version="1.0" encoding="UTF-8" standalone="no"?>
<!DOCTYPE svg PUBLIC "-//W3C//DTD SVG 1.1//EN"
 "http://www.w3.org/Graphics/SVG/1.1/DTD/svg11.dtd">
<!-- Generated by graphviz version 2.43.0 (0)
 -->
<!-- Title: inheritanceb3f6728f9c Pages: 1 -->
<svg width="576pt" height="55pt"
 viewBox="0.00 0.00 576.00 54.70" xmlns="http://www.w3.org/2000/svg" xmlns:xlink="http://www.w3.org/1999/xlink">
<g id="graph0" class="graph" transform="scale(1.83 1.83) rotate(0) translate(4 96)">
<title>inheritanceb3f6728f9c</title>
<polygon fill="white" stroke="transparent" points="-4,4 -4,-96 1049,-96 1049,4 -4,4"/>
<!-- pyGHDL.dom.DOMMixin -->
<g id="node1" class="node">
<title>pyGHDL.dom.DOMMixin</title>
<g id="a_node1"><a xlink:href="../pyGHDL.dom.html#pyGHDL.dom.DOMMixin" xlink:title="pyGHDL.dom.DOMMixin" target="_top">
<polygon fill="none" stroke="black" stroke-width="0.5" points="798,-92 663,-92 663,-73 798,-73 798,-92"/>
<text text-anchor="middle" x="730.5" y="-80" font-family="Vera Sans, DejaVu Sans, Liberation Sans, Arial, Helvetica, sans" font-size="10.00">pyGHDL.dom.DOMMixin</text>
</a>
</g>
</g>
<!-- pyGHDL.dom.DesignUnit.Package -->
<g id="node2" class="node">
<title>pyGHDL.dom.DesignUnit.Package</title>
<g id="a_node2"><a xlink:href="../pyGHDL/pyGHDL.dom.DesignUnit.html#pyGHDL.dom.DesignUnit.Package" xlink:title="pyGHDL.dom.DesignUnit.Package" target="_top">
<polygon fill="none" stroke="black" stroke-width="0.5" points="1045,-73 864,-73 864,-54 1045,-54 1045,-73"/>
<text text-anchor="middle" x="954.5" y="-61" font-family="Vera Sans, DejaVu Sans, Liberation Sans, Arial, Helvetica, sans" font-size="10.00">pyGHDL.dom.DesignUnit.Package</text>
</a>
</g>
</g>
<!-- pyGHDL.dom.DOMMixin&#45;&gt;pyGHDL.dom.DesignUnit.Package -->
<g id="edge2" class="edge">
<title>pyGHDL.dom.DOMMixin&#45;&gt;pyGHDL.dom.DesignUnit.Package</title>
<path fill="none" stroke="black" stroke-width="0.5" d="M798.11,-76.8C817.18,-75.17 838.35,-73.36 858.77,-71.61"/>
<polygon fill="black" stroke="black" stroke-width="0.5" points="859.11,-73.34 863.94,-71.17 858.81,-69.85 859.11,-73.34"/>
</g>
<!-- pyVHDLModel.SyntaxModel.Package -->
<g id="node3" class="node">
<title>pyVHDLModel.SyntaxModel.Package</title>
<polygon fill="none" stroke="black" stroke-width="0.5" points="828,-55 633,-55 633,-36 828,-36 828,-55"/>
<text text-anchor="middle" x="730.5" y="-43" font-family="Vera Sans, DejaVu Sans, Liberation Sans, Arial, Helvetica, sans" font-size="10.00">pyVHDLModel.SyntaxModel.Package</text>
</g>
<!-- pyVHDLModel.SyntaxModel.Package&#45;&gt;pyGHDL.dom.DesignUnit.Package -->
<g id="edge1" class="edge">
<title>pyVHDLModel.SyntaxModel.Package&#45;&gt;pyGHDL.dom.DesignUnit.Package</title>
<path fill="none" stroke="black" stroke-width="0.5" d="M828.23,-53.34C838.28,-54.16 848.48,-54.99 858.51,-55.8"/>
<polygon fill="black" stroke="black" stroke-width="0.5" points="858.62,-57.56 863.74,-56.22 858.9,-54.07 858.62,-57.56"/>
</g>
<!-- pyVHDLModel.DesignUnit -->
<g id="node4" class="node">
<title>pyVHDLModel.DesignUnit</title>
<g id="a_node4"><a xlink:title="A ``DesignUnit`` is a base&#45;class for all design units.">
<polygon fill="none" stroke="black" stroke-width="0.5" points="331,-37 188,-37 188,-18 331,-18 331,-37"/>
<text text-anchor="middle" x="259.5" y="-25" font-family="Vera Sans, DejaVu Sans, Liberation Sans, Arial, Helvetica, sans" font-size="10.00">pyVHDLModel.DesignUnit</text>
</a>
</g>
</g>
<!-- pyVHDLModel.PrimaryUnit -->
<g id="node8" class="node">
<title>pyVHDLModel.PrimaryUnit</title>
<g id="a_node8"><a xlink:title="A ``PrimaryUnit`` is a base&#45;class for all primary units.">
<polygon fill="none" stroke="black" stroke-width="0.5" points="555.5,-37 408.5,-37 408.5,-18 555.5,-18 555.5,-37"/>
<text text-anchor="middle" x="482" y="-25" font-family="Vera Sans, DejaVu Sans, Liberation Sans, Arial, Helvetica, sans" font-size="10.00">pyVHDLModel.PrimaryUnit</text>
</a>
</g>
</g>
<!-- pyVHDLModel.DesignUnit&#45;&gt;pyVHDLModel.PrimaryUnit -->
<g id="edge5" class="edge">
<title>pyVHDLModel.DesignUnit&#45;&gt;pyVHDLModel.PrimaryUnit</title>
<path fill="none" stroke="black" stroke-width="0.5" d="M331.18,-27.5C354.13,-27.5 379.72,-27.5 403.17,-27.5"/>
<polygon fill="black" stroke="black" stroke-width="0.5" points="403.45,-29.25 408.45,-27.5 403.45,-25.75 403.45,-29.25"/>
</g>
<!-- pyVHDLModel.ModelEntity -->
<g id="node5" class="node">
<title>pyVHDLModel.ModelEntity</title>
<g id="a_node5"><a xlink:title="``ModelEntity`` is the base class for all classes in the VHDL language model,">
<polygon fill="none" stroke="black" stroke-width="0.5" points="149.5,-56 2.5,-56 2.5,-37 149.5,-37 149.5,-56"/>
<text text-anchor="middle" x="76" y="-44" font-family="Vera Sans, DejaVu Sans, Liberation Sans, Arial, Helvetica, sans" font-size="10.00">pyVHDLModel.ModelEntity</text>
</a>
</g>
</g>
<!-- pyVHDLModel.ModelEntity&#45;&gt;pyVHDLModel.DesignUnit -->
<g id="edge3" class="edge">
<title>pyVHDLModel.ModelEntity&#45;&gt;pyVHDLModel.DesignUnit</title>
<path fill="none" stroke="black" stroke-width="0.5" d="M149.52,-38.91C160.48,-37.76 171.81,-36.58 182.83,-35.42"/>
<polygon fill="black" stroke="black" stroke-width="0.5" points="183.08,-37.15 187.87,-34.89 182.72,-33.67 183.08,-37.15"/>
</g>
<!-- pyVHDLModel.NamedEntity -->
<g id="node6" class="node">
<title>pyVHDLModel.NamedEntity</title>
<g id="a_node6"><a xlink:title="A ``NamedEntity`` is a mixin class for all VHDL entities that have identifiers.">
<polygon fill="none" stroke="black" stroke-width="0.5" points="152,-19 0,-19 0,0 152,0 152,-19"/>
<text text-anchor="middle" x="76" y="-7" font-family="Vera Sans, DejaVu Sans, Liberation Sans, Arial, Helvetica, sans" font-size="10.00">pyVHDLModel.NamedEntity</text>
</a>
</g>
</g>
<!-- pyVHDLModel.NamedEntity&#45;&gt;pyVHDLModel.DesignUnit -->
<g id="edge4" class="edge">
<title>pyVHDLModel.NamedEntity&#45;&gt;pyVHDLModel.DesignUnit</title>
<path fill="none" stroke="black" stroke-width="0.5" d="M152.13,-16.95C162.18,-17.95 172.49,-18.97 182.56,-19.97"/>
<polygon fill="black" stroke="black" stroke-width="0.5" points="182.64,-21.74 187.79,-20.49 182.99,-18.25 182.64,-21.74"/>
</g>
<!-- pyVHDLModel.MixinDesignUnitWithContext -->
<g id="node7" class="node">
<title>pyVHDLModel.MixinDesignUnitWithContext</title>
<polygon fill="none" stroke="black" stroke-width="0.5" points="597,-74 367,-74 367,-55 597,-55 597,-74"/>
<text text-anchor="middle" x="482" y="-62" font-family="Vera Sans, DejaVu Sans, Liberation Sans, Arial, Helvetica, sans" font-size="10.00">pyVHDLModel.MixinDesignUnitWithContext</text>
</g>
<!-- pyVHDLModel.MixinDesignUnitWithContext&#45;&gt;pyVHDLModel.SyntaxModel.Package -->
<g id="edge7" class="edge">
<title>pyVHDLModel.MixinDesignUnitWithContext&#45;&gt;pyVHDLModel.SyntaxModel.Package</title>
<path fill="none" stroke="black" stroke-width="0.5" d="M597.23,-55.7C607.31,-54.92 617.47,-54.13 627.44,-53.37"/>
<polygon fill="black" stroke="black" stroke-width="0.5" points="627.79,-55.1 632.64,-52.97 627.52,-51.61 627.79,-55.1"/>
</g>
<!-- pyVHDLModel.PrimaryUnit&#45;&gt;pyVHDLModel.SyntaxModel.Package -->
<g id="edge6" class="edge">
<title>pyVHDLModel.PrimaryUnit&#45;&gt;pyVHDLModel.SyntaxModel.Package</title>
<path fill="none" stroke="black" stroke-width="0.5" d="M555.62,-32.8C578.16,-34.45 603.44,-36.29 627.58,-38.06"/>
<polygon fill="black" stroke="black" stroke-width="0.5" points="627.6,-39.81 632.72,-38.43 627.86,-36.32 627.6,-39.81"/>
</g>
</g>
</svg>
