<?xml version="1.0" encoding="UTF-8" standalone="no"?>
<!DOCTYPE svg PUBLIC "-//W3C//DTD SVG 1.1//EN"
 "http://www.w3.org/Graphics/SVG/1.1/DTD/svg11.dtd">
<!-- Generated by graphviz version 2.43.0 (0)
 -->
<!-- Title: inheritance1e2dbad43f Pages: 1 -->
<svg width="576pt" height="32pt"
 viewBox="0.00 0.00 576.00 32.00" xmlns="http://www.w3.org/2000/svg" xmlns:xlink="http://www.w3.org/1999/xlink">
<g id="graph0" class="graph" transform="scale(2.56 2.56) rotate(0) translate(4 78)">
<title>inheritance1e2dbad43f</title>
<polygon fill="white" stroke="transparent" points="-4,4 -4,-78 1472,-78 1472,4 -4,4"/>
<!-- pyGHDL.dom.DOMMixin -->
<g id="node1" class="node">
<title>pyGHDL.dom.DOMMixin</title>
<g id="a_node1"><a xlink:href="../pyGHDL.dom.html#pyGHDL.dom.DOMMixin" xlink:title="pyGHDL.dom.DOMMixin" target="_top">
<polygon fill="none" stroke="black" stroke-width="0.5" points="1196,-74 1061,-74 1061,-55 1196,-55 1196,-74"/>
<text text-anchor="middle" x="1128.5" y="-62" font-family="Vera Sans, DejaVu Sans, Liberation Sans, Arial, Helvetica, sans" font-size="10.00">pyGHDL.dom.DOMMixin</text>
</a>
</g>
</g>
<!-- pyGHDL.dom.Sequential.IfStatement -->
<g id="node2" class="node">
<title>pyGHDL.dom.Sequential.IfStatement</title>
<g id="a_node2"><a xlink:href="../pyGHDL/pyGHDL.dom.Sequential.html#pyGHDL.dom.Sequential.IfStatement" xlink:title="pyGHDL.dom.Sequential.IfStatement" target="_top">
<polygon fill="none" stroke="black" stroke-width="0.5" points="1468,-55 1271,-55 1271,-36 1468,-36 1468,-55"/>
<text text-anchor="middle" x="1369.5" y="-43" font-family="Vera Sans, DejaVu Sans, Liberation Sans, Arial, Helvetica, sans" font-size="10.00">pyGHDL.dom.Sequential.IfStatement</text>
</a>
</g>
</g>
<!-- pyGHDL.dom.DOMMixin&#45;&gt;pyGHDL.dom.Sequential.IfStatement -->
<g id="edge2" class="edge">
<title>pyGHDL.dom.DOMMixin&#45;&gt;pyGHDL.dom.Sequential.IfStatement</title>
<path fill="none" stroke="black" stroke-width="0.5" d="M1196.07,-59.21C1217.61,-57.5 1242.02,-55.56 1265.55,-53.68"/>
<polygon fill="black" stroke="black" stroke-width="0.5" points="1265.71,-55.43 1270.56,-53.29 1265.44,-51.94 1265.71,-55.43"/>
</g>
<!-- pyVHDLModel.SyntaxModel.IfStatement -->
<g id="node3" class="node">
<title>pyVHDLModel.SyntaxModel.IfStatement</title>
<polygon fill="none" stroke="black" stroke-width="0.5" points="1235,-37 1022,-37 1022,-18 1235,-18 1235,-37"/>
<text text-anchor="middle" x="1128.5" y="-25" font-family="Vera Sans, DejaVu Sans, Liberation Sans, Arial, Helvetica, sans" font-size="10.00">pyVHDLModel.SyntaxModel.IfStatement</text>
</g>
<!-- pyVHDLModel.SyntaxModel.IfStatement&#45;&gt;pyGHDL.dom.Sequential.IfStatement -->
<g id="edge1" class="edge">
<title>pyVHDLModel.SyntaxModel.IfStatement&#45;&gt;pyGHDL.dom.Sequential.IfStatement</title>
<path fill="none" stroke="black" stroke-width="0.5" d="M1235.02,-35.45C1245.14,-36.21 1255.39,-36.98 1265.48,-37.74"/>
<polygon fill="black" stroke="black" stroke-width="0.5" points="1265.63,-39.51 1270.75,-38.14 1265.89,-36.02 1265.63,-39.51"/>
</g>
<!-- pyVHDLModel.LabeledEntity -->
<g id="node4" class="node">
<title>pyVHDLModel.LabeledEntity</title>
<g id="a_node4"><a xlink:title="A ``LabeledEntity`` is a mixin class for all VHDL entities that can have">
<polygon fill="none" stroke="black" stroke-width="0.5" points="155,-56 0,-56 0,-37 155,-37 155,-56"/>
<text text-anchor="middle" x="77.5" y="-44" font-family="Vera Sans, DejaVu Sans, Liberation Sans, Arial, Helvetica, sans" font-size="10.00">pyVHDLModel.LabeledEntity</text>
</a>
</g>
</g>
<!-- pyVHDLModel.SyntaxModel.Statement -->
<g id="node8" class="node">
<title>pyVHDLModel.SyntaxModel.Statement</title>
<polygon fill="none" stroke="black" stroke-width="0.5" points="397,-37 191,-37 191,-18 397,-18 397,-37"/>
<text text-anchor="middle" x="294" y="-25" font-family="Vera Sans, DejaVu Sans, Liberation Sans, Arial, Helvetica, sans" font-size="10.00">pyVHDLModel.SyntaxModel.Statement</text>
</g>
<!-- pyVHDLModel.LabeledEntity&#45;&gt;pyVHDLModel.SyntaxModel.Statement -->
<g id="edge7" class="edge">
<title>pyVHDLModel.LabeledEntity&#45;&gt;pyVHDLModel.SyntaxModel.Statement</title>
<path fill="none" stroke="black" stroke-width="0.5" d="M155.03,-39.72C164.96,-38.84 175.27,-37.93 185.58,-37.02"/>
<polygon fill="black" stroke="black" stroke-width="0.5" points="185.81,-38.75 190.64,-36.57 185.5,-35.27 185.81,-38.75"/>
</g>
<!-- pyVHDLModel.ModelEntity -->
<g id="node5" class="node">
<title>pyVHDLModel.ModelEntity</title>
<g id="a_node5"><a xlink:title="``ModelEntity`` is the base class for all classes in the VHDL language model,">
<polygon fill="none" stroke="black" stroke-width="0.5" points="151,-19 4,-19 4,0 151,0 151,-19"/>
<text text-anchor="middle" x="77.5" y="-7" font-family="Vera Sans, DejaVu Sans, Liberation Sans, Arial, Helvetica, sans" font-size="10.00">pyVHDLModel.ModelEntity</text>
</a>
</g>
</g>
<!-- pyVHDLModel.ModelEntity&#45;&gt;pyVHDLModel.SyntaxModel.Statement -->
<g id="edge6" class="edge">
<title>pyVHDLModel.ModelEntity&#45;&gt;pyVHDLModel.SyntaxModel.Statement</title>
<path fill="none" stroke="black" stroke-width="0.5" d="M151.12,-15.59C162.29,-16.53 174.01,-17.52 185.74,-18.5"/>
<polygon fill="black" stroke="black" stroke-width="0.5" points="185.64,-20.25 190.77,-18.92 185.93,-16.76 185.64,-20.25"/>
</g>
<!-- pyVHDLModel.SyntaxModel.CompoundStatement -->
<g id="node6" class="node">
<title>pyVHDLModel.SyntaxModel.CompoundStatement</title>
<g id="a_node6"><a xlink:title="A ``CompoundStatement`` is a base&#45;class for all compound statements.">
<polygon fill="none" stroke="black" stroke-width="0.5" points="986,-37 727,-37 727,-18 986,-18 986,-37"/>
<text text-anchor="middle" x="856.5" y="-25" font-family="Vera Sans, DejaVu Sans, Liberation Sans, Arial, Helvetica, sans" font-size="10.00">pyVHDLModel.SyntaxModel.CompoundStatement</text>
</a>
</g>
</g>
<!-- pyVHDLModel.SyntaxModel.CompoundStatement&#45;&gt;pyVHDLModel.SyntaxModel.IfStatement -->
<g id="edge4" class="edge">
<title>pyVHDLModel.SyntaxModel.CompoundStatement&#45;&gt;pyVHDLModel.SyntaxModel.IfStatement</title>
<path fill="none" stroke="black" stroke-width="0.5" d="M986.17,-27.5C996.35,-27.5 1006.58,-27.5 1016.62,-27.5"/>
<polygon fill="black" stroke="black" stroke-width="0.5" points="1016.85,-29.25 1021.85,-27.5 1016.85,-25.75 1016.85,-29.25"/>
</g>
<!-- pyVHDLModel.SyntaxModel.SequentialStatement -->
<g id="node7" class="node">
<title>pyVHDLModel.SyntaxModel.SequentialStatement</title>
<g id="a_node7"><a xlink:title="A ``SequentialStatement`` is a base&#45;class for all sequential statements.">
<polygon fill="none" stroke="black" stroke-width="0.5" points="691,-37 433,-37 433,-18 691,-18 691,-37"/>
<text text-anchor="middle" x="562" y="-25" font-family="Vera Sans, DejaVu Sans, Liberation Sans, Arial, Helvetica, sans" font-size="10.00">pyVHDLModel.SyntaxModel.SequentialStatement</text>
</a>
</g>
</g>
<!-- pyVHDLModel.SyntaxModel.SequentialStatement&#45;&gt;pyVHDLModel.SyntaxModel.CompoundStatement -->
<g id="edge3" class="edge">
<title>pyVHDLModel.SyntaxModel.SequentialStatement&#45;&gt;pyVHDLModel.SyntaxModel.CompoundStatement</title>
<path fill="none" stroke="black" stroke-width="0.5" d="M691.29,-27.5C701.36,-27.5 711.54,-27.5 721.64,-27.5"/>
<polygon fill="black" stroke="black" stroke-width="0.5" points="721.91,-29.25 726.91,-27.5 721.91,-25.75 721.91,-29.25"/>
</g>
<!-- pyVHDLModel.SyntaxModel.Statement&#45;&gt;pyVHDLModel.SyntaxModel.SequentialStatement -->
<g id="edge5" class="edge">
<title>pyVHDLModel.SyntaxModel.Statement&#45;&gt;pyVHDLModel.SyntaxModel.SequentialStatement</title>
<path fill="none" stroke="black" stroke-width="0.5" d="M397.08,-27.5C407.15,-27.5 417.48,-27.5 427.8,-27.5"/>
<polygon fill="black" stroke="black" stroke-width="0.5" points="427.87,-29.25 432.87,-27.5 427.87,-25.75 427.87,-29.25"/>
</g>
</g>
</svg>
