<?xml version="1.0" encoding="UTF-8" standalone="no"?>
<!DOCTYPE svg PUBLIC "-//W3C//DTD SVG 1.1//EN"
 "http://www.w3.org/Graphics/SVG/1.1/DTD/svg11.dtd">
<!-- Generated by graphviz version 2.43.0 (0)
 -->
<!-- Title: inheritance0bb86eb3ac Pages: 1 -->
<svg width="576pt" height="65pt"
 viewBox="0.00 0.00 576.00 64.70" xmlns="http://www.w3.org/2000/svg" xmlns:xlink="http://www.w3.org/1999/xlink">
<g id="graph0" class="graph" transform="scale(1.27 1.27) rotate(0) translate(4 78)">
<title>inheritance0bb86eb3ac</title>
<polygon fill="white" stroke="transparent" points="-4,4 -4,-78 726,-78 726,4 -4,4"/>
<!-- pyGHDL.dom.DOMMixin -->
<g id="node1" class="node">
<title>pyGHDL.dom.DOMMixin</title>
<g id="a_node1"><a xlink:href="../pyGHDL.dom.html#pyGHDL.dom.DOMMixin" xlink:title="pyGHDL.dom.DOMMixin" target="_top">
<polygon fill="none" stroke="black" stroke-width="0.5" points="421.5,-74 286.5,-74 286.5,-55 421.5,-55 421.5,-74"/>
<text text-anchor="middle" x="354" y="-62" font-family="Vera Sans, DejaVu Sans, Liberation Sans, Arial, Helvetica, sans" font-size="10.00">pyGHDL.dom.DOMMixin</text>
</a>
</g>
</g>
<!-- pyGHDL.dom.Type.RecordTypeElement -->
<g id="node2" class="node">
<title>pyGHDL.dom.Type.RecordTypeElement</title>
<g id="a_node2"><a xlink:href="../pyGHDL/pyGHDL.dom.Type.html#pyGHDL.dom.Type.RecordTypeElement" xlink:title="pyGHDL.dom.Type.RecordTypeElement" target="_top">
<polygon fill="none" stroke="black" stroke-width="0.5" points="722,-55 516,-55 516,-36 722,-36 722,-55"/>
<text text-anchor="middle" x="619" y="-43" font-family="Vera Sans, DejaVu Sans, Liberation Sans, Arial, Helvetica, sans" font-size="10.00">pyGHDL.dom.Type.RecordTypeElement</text>
</a>
</g>
</g>
<!-- pyGHDL.dom.DOMMixin&#45;&gt;pyGHDL.dom.Type.RecordTypeElement -->
<g id="edge2" class="edge">
<title>pyGHDL.dom.DOMMixin&#45;&gt;pyGHDL.dom.Type.RecordTypeElement</title>
<path fill="none" stroke="black" stroke-width="0.5" d="M421.71,-59.68C448.68,-57.73 480.5,-55.43 510.58,-53.26"/>
<polygon fill="black" stroke="black" stroke-width="0.5" points="510.92,-54.99 515.79,-52.88 510.67,-51.5 510.92,-54.99"/>
</g>
<!-- pyVHDLModel.SyntaxModel.RecordTypeElement -->
<g id="node3" class="node">
<title>pyVHDLModel.SyntaxModel.RecordTypeElement</title>
<polygon fill="none" stroke="black" stroke-width="0.5" points="480,-37 228,-37 228,-18 480,-18 480,-37"/>
<text text-anchor="middle" x="354" y="-25" font-family="Vera Sans, DejaVu Sans, Liberation Sans, Arial, Helvetica, sans" font-size="10.00">pyVHDLModel.SyntaxModel.RecordTypeElement</text>
</g>
<!-- pyVHDLModel.SyntaxModel.RecordTypeElement&#45;&gt;pyGHDL.dom.Type.RecordTypeElement -->
<g id="edge1" class="edge">
<title>pyVHDLModel.SyntaxModel.RecordTypeElement&#45;&gt;pyGHDL.dom.Type.RecordTypeElement</title>
<path fill="none" stroke="black" stroke-width="0.5" d="M480.34,-36.08C490.48,-36.77 500.67,-37.47 510.66,-38.15"/>
<polygon fill="black" stroke="black" stroke-width="0.5" points="510.76,-39.91 515.87,-38.51 511,-36.42 510.76,-39.91"/>
</g>
<!-- pyVHDLModel.ModelEntity -->
<g id="node4" class="node">
<title>pyVHDLModel.ModelEntity</title>
<g id="a_node4"><a xlink:title="``ModelEntity`` is the base class for all classes in the VHDL language model,">
<polygon fill="none" stroke="black" stroke-width="0.5" points="169.5,-56 22.5,-56 22.5,-37 169.5,-37 169.5,-56"/>
<text text-anchor="middle" x="96" y="-44" font-family="Vera Sans, DejaVu Sans, Liberation Sans, Arial, Helvetica, sans" font-size="10.00">pyVHDLModel.ModelEntity</text>
</a>
</g>
</g>
<!-- pyVHDLModel.ModelEntity&#45;&gt;pyVHDLModel.SyntaxModel.RecordTypeElement -->
<g id="edge3" class="edge">
<title>pyVHDLModel.ModelEntity&#45;&gt;pyVHDLModel.SyntaxModel.RecordTypeElement</title>
<path fill="none" stroke="black" stroke-width="0.5" d="M169.67,-41.11C186.29,-39.87 204.45,-38.52 222.68,-37.17"/>
<polygon fill="black" stroke="black" stroke-width="0.5" points="222.96,-38.91 227.82,-36.79 222.7,-35.42 222.96,-38.91"/>
</g>
<!-- pyVHDLModel.MultipleNamedEntity -->
<g id="node5" class="node">
<title>pyVHDLModel.MultipleNamedEntity</title>
<g id="a_node5"><a xlink:title="A ``MultipleNamedEntity`` is a mixin class for all VHDL entities that declare">
<polygon fill="none" stroke="black" stroke-width="0.5" points="192,-19 0,-19 0,0 192,0 192,-19"/>
<text text-anchor="middle" x="96" y="-7" font-family="Vera Sans, DejaVu Sans, Liberation Sans, Arial, Helvetica, sans" font-size="10.00">pyVHDLModel.MultipleNamedEntity</text>
</a>
</g>
</g>
<!-- pyVHDLModel.MultipleNamedEntity&#45;&gt;pyVHDLModel.SyntaxModel.RecordTypeElement -->
<g id="edge4" class="edge">
<title>pyVHDLModel.MultipleNamedEntity&#45;&gt;pyVHDLModel.SyntaxModel.RecordTypeElement</title>
<path fill="none" stroke="black" stroke-width="0.5" d="M192.32,-16.2C202.22,-16.9 212.4,-17.61 222.59,-18.33"/>
<polygon fill="black" stroke="black" stroke-width="0.5" points="222.49,-20.08 227.6,-18.68 222.73,-16.59 222.49,-20.08"/>
</g>
</g>
</svg>
