<?xml version="1.0" encoding="UTF-8" standalone="no"?>
<!DOCTYPE svg PUBLIC "-//W3C//DTD SVG 1.1//EN"
 "http://www.w3.org/Graphics/SVG/1.1/DTD/svg11.dtd">
<!-- Generated by graphviz version 2.43.0 (0)
 -->
<!-- Title: inheritancefa0791d00c Pages: 1 -->
<svg width="576pt" height="28pt"
 viewBox="0.00 0.00 576.00 27.86" xmlns="http://www.w3.org/2000/svg" xmlns:xlink="http://www.w3.org/1999/xlink">
<g id="graph0" class="graph" transform="scale(2.3 2.3) rotate(0) translate(4 60)">
<title>inheritancefa0791d00c</title>
<polygon fill="white" stroke="transparent" points="-4,4 -4,-60 1319,-60 1319,4 -4,4"/>
<!-- pyGHDL.dom.DOMMixin -->
<g id="node1" class="node">
<title>pyGHDL.dom.DOMMixin</title>
<g id="a_node1"><a xlink:href="../pyGHDL.dom.html#pyGHDL.dom.DOMMixin" xlink:title="pyGHDL.dom.DOMMixin" target="_top">
<polygon fill="none" stroke="black" stroke-width="0.5" points="910,-56 775,-56 775,-37 910,-37 910,-56"/>
<text text-anchor="middle" x="842.5" y="-44" font-family="Vera Sans, DejaVu Sans, Liberation Sans, Arial, Helvetica, sans" font-size="10.00">pyGHDL.dom.DOMMixin</text>
</a>
</g>
</g>
<!-- pyGHDL.dom.Expression.QualifiedExpressionAllocation -->
<g id="node2" class="node">
<title>pyGHDL.dom.Expression.QualifiedExpressionAllocation</title>
<g id="a_node2"><a xlink:href="../pyGHDL/pyGHDL.dom.Expression.html#pyGHDL.dom.Expression.QualifiedExpressionAllocation" xlink:title="pyGHDL.dom.Expression.QualifiedExpressionAllocation" target="_top">
<polygon fill="none" stroke="black" stroke-width="0.5" points="1315,-37 1029,-37 1029,-18 1315,-18 1315,-37"/>
<text text-anchor="middle" x="1172" y="-25" font-family="Vera Sans, DejaVu Sans, Liberation Sans, Arial, Helvetica, sans" font-size="10.00">pyGHDL.dom.Expression.QualifiedExpressionAllocation</text>
</a>
</g>
</g>
<!-- pyGHDL.dom.DOMMixin&#45;&gt;pyGHDL.dom.Expression.QualifiedExpressionAllocation -->
<g id="edge2" class="edge">
<title>pyGHDL.dom.DOMMixin&#45;&gt;pyGHDL.dom.Expression.QualifiedExpressionAllocation</title>
<path fill="none" stroke="black" stroke-width="0.5" d="M910.17,-42.63C942.92,-40.73 983.79,-38.36 1023.38,-36.06"/>
<polygon fill="black" stroke="black" stroke-width="0.5" points="1023.82,-37.79 1028.71,-35.76 1023.62,-34.3 1023.82,-37.79"/>
</g>
<!-- pyVHDLModel.SyntaxModel.QualifiedExpressionAllocation -->
<g id="node3" class="node">
<title>pyVHDLModel.SyntaxModel.QualifiedExpressionAllocation</title>
<polygon fill="none" stroke="black" stroke-width="0.5" points="993,-19 692,-19 692,0 993,0 993,-19"/>
<text text-anchor="middle" x="842.5" y="-7" font-family="Vera Sans, DejaVu Sans, Liberation Sans, Arial, Helvetica, sans" font-size="10.00">pyVHDLModel.SyntaxModel.QualifiedExpressionAllocation</text>
</g>
<!-- pyVHDLModel.SyntaxModel.QualifiedExpressionAllocation&#45;&gt;pyGHDL.dom.Expression.QualifiedExpressionAllocation -->
<g id="edge1" class="edge">
<title>pyVHDLModel.SyntaxModel.QualifiedExpressionAllocation&#45;&gt;pyGHDL.dom.Expression.QualifiedExpressionAllocation</title>
<path fill="none" stroke="black" stroke-width="0.5" d="M993.35,-17.74C1003.39,-18.29 1013.5,-18.84 1023.53,-19.39"/>
<polygon fill="black" stroke="black" stroke-width="0.5" points="1023.68,-21.16 1028.77,-19.68 1023.87,-17.66 1023.68,-21.16"/>
</g>
<!-- pyVHDLModel.ModelEntity -->
<g id="node4" class="node">
<title>pyVHDLModel.ModelEntity</title>
<g id="a_node4"><a xlink:title="``ModelEntity`` is the base class for all classes in the VHDL language model,">
<polygon fill="none" stroke="black" stroke-width="0.5" points="147,-19 0,-19 0,0 147,0 147,-19"/>
<text text-anchor="middle" x="73.5" y="-7" font-family="Vera Sans, DejaVu Sans, Liberation Sans, Arial, Helvetica, sans" font-size="10.00">pyVHDLModel.ModelEntity</text>
</a>
</g>
</g>
<!-- pyVHDLModel.SyntaxModel.BaseExpression -->
<g id="node6" class="node">
<title>pyVHDLModel.SyntaxModel.BaseExpression</title>
<g id="a_node6"><a xlink:title="A ``BaseExpression`` is a base&#45;class for all expressions.">
<polygon fill="none" stroke="black" stroke-width="0.5" points="416,-19 183,-19 183,0 416,0 416,-19"/>
<text text-anchor="middle" x="299.5" y="-7" font-family="Vera Sans, DejaVu Sans, Liberation Sans, Arial, Helvetica, sans" font-size="10.00">pyVHDLModel.SyntaxModel.BaseExpression</text>
</a>
</g>
</g>
<!-- pyVHDLModel.ModelEntity&#45;&gt;pyVHDLModel.SyntaxModel.BaseExpression -->
<g id="edge4" class="edge">
<title>pyVHDLModel.ModelEntity&#45;&gt;pyVHDLModel.SyntaxModel.BaseExpression</title>
<path fill="none" stroke="black" stroke-width="0.5" d="M147.23,-9.5C157,-9.5 167.22,-9.5 177.55,-9.5"/>
<polygon fill="black" stroke="black" stroke-width="0.5" points="177.63,-11.25 182.63,-9.5 177.63,-7.75 177.63,-11.25"/>
</g>
<!-- pyVHDLModel.SyntaxModel.Allocation -->
<g id="node5" class="node">
<title>pyVHDLModel.SyntaxModel.Allocation</title>
<polygon fill="none" stroke="black" stroke-width="0.5" points="656,-19 452,-19 452,0 656,0 656,-19"/>
<text text-anchor="middle" x="554" y="-7" font-family="Vera Sans, DejaVu Sans, Liberation Sans, Arial, Helvetica, sans" font-size="10.00">pyVHDLModel.SyntaxModel.Allocation</text>
</g>
<!-- pyVHDLModel.SyntaxModel.Allocation&#45;&gt;pyVHDLModel.SyntaxModel.QualifiedExpressionAllocation -->
<g id="edge5" class="edge">
<title>pyVHDLModel.SyntaxModel.Allocation&#45;&gt;pyVHDLModel.SyntaxModel.QualifiedExpressionAllocation</title>
<path fill="none" stroke="black" stroke-width="0.5" d="M656.01,-9.5C666.05,-9.5 676.39,-9.5 686.81,-9.5"/>
<polygon fill="black" stroke="black" stroke-width="0.5" points="686.93,-11.25 691.93,-9.5 686.93,-7.75 686.93,-11.25"/>
</g>
<!-- pyVHDLModel.SyntaxModel.BaseExpression&#45;&gt;pyVHDLModel.SyntaxModel.Allocation -->
<g id="edge3" class="edge">
<title>pyVHDLModel.SyntaxModel.BaseExpression&#45;&gt;pyVHDLModel.SyntaxModel.Allocation</title>
<path fill="none" stroke="black" stroke-width="0.5" d="M416.04,-9.5C426.21,-9.5 436.48,-9.5 446.57,-9.5"/>
<polygon fill="black" stroke="black" stroke-width="0.5" points="446.83,-11.25 451.83,-9.5 446.83,-7.75 446.83,-11.25"/>
</g>
</g>
</svg>
