<?xml version="1.0" encoding="UTF-8" standalone="no"?>
<!DOCTYPE svg PUBLIC "-//W3C//DTD SVG 1.1//EN"
 "http://www.w3.org/Graphics/SVG/1.1/DTD/svg11.dtd">
<!-- Generated by graphviz version 2.43.0 (0)
 -->
<!-- Title: inheritance94e9d1640a Pages: 1 -->
<svg width="576pt" height="53pt"
 viewBox="0.00 0.00 576.00 52.75" xmlns="http://www.w3.org/2000/svg" xmlns:xlink="http://www.w3.org/1999/xlink">
<g id="graph0" class="graph" transform="scale(1.9 1.9) rotate(0) translate(4 96)">
<title>inheritance94e9d1640a</title>
<polygon fill="white" stroke="transparent" points="-4,4 -4,-96 1088,-96 1088,4 -4,4"/>
<!-- pyGHDL.dom.DOMMixin -->
<g id="node1" class="node">
<title>pyGHDL.dom.DOMMixin</title>
<g id="a_node1"><a xlink:href="../pyGHDL.dom.html#pyGHDL.dom.DOMMixin" xlink:title="pyGHDL.dom.DOMMixin" target="_top">
<polygon fill="none" stroke="black" stroke-width="0.5" points="808,-92 673,-92 673,-73 808,-73 808,-92"/>
<text text-anchor="middle" x="740.5" y="-80" font-family="Vera Sans, DejaVu Sans, Liberation Sans, Arial, Helvetica, sans" font-size="10.00">pyGHDL.dom.DOMMixin</text>
</a>
</g>
</g>
<!-- pyGHDL.dom.DesignUnit.Architecture -->
<g id="node2" class="node">
<title>pyGHDL.dom.DesignUnit.Architecture</title>
<g id="a_node2"><a xlink:href="../pyGHDL/pyGHDL.dom.DesignUnit.html#pyGHDL.dom.DesignUnit.Architecture" xlink:title="pyGHDL.dom.DesignUnit.Architecture" target="_top">
<polygon fill="none" stroke="black" stroke-width="0.5" points="1084,-73 884,-73 884,-54 1084,-54 1084,-73"/>
<text text-anchor="middle" x="984" y="-61" font-family="Vera Sans, DejaVu Sans, Liberation Sans, Arial, Helvetica, sans" font-size="10.00">pyGHDL.dom.DesignUnit.Architecture</text>
</a>
</g>
</g>
<!-- pyGHDL.dom.DOMMixin&#45;&gt;pyGHDL.dom.DesignUnit.Architecture -->
<g id="edge2" class="edge">
<title>pyGHDL.dom.DOMMixin&#45;&gt;pyGHDL.dom.DesignUnit.Architecture</title>
<path fill="none" stroke="black" stroke-width="0.5" d="M808.13,-77.26C829.9,-75.55 854.62,-73.6 878.49,-71.72"/>
<polygon fill="black" stroke="black" stroke-width="0.5" points="878.72,-73.46 883.57,-71.32 878.44,-69.97 878.72,-73.46"/>
</g>
<!-- pyVHDLModel.SyntaxModel.Architecture -->
<g id="node3" class="node">
<title>pyVHDLModel.SyntaxModel.Architecture</title>
<polygon fill="none" stroke="black" stroke-width="0.5" points="848,-55 633,-55 633,-36 848,-36 848,-55"/>
<text text-anchor="middle" x="740.5" y="-43" font-family="Vera Sans, DejaVu Sans, Liberation Sans, Arial, Helvetica, sans" font-size="10.00">pyVHDLModel.SyntaxModel.Architecture</text>
</g>
<!-- pyVHDLModel.SyntaxModel.Architecture&#45;&gt;pyGHDL.dom.DesignUnit.Architecture -->
<g id="edge1" class="edge">
<title>pyVHDLModel.SyntaxModel.Architecture&#45;&gt;pyGHDL.dom.DesignUnit.Architecture</title>
<path fill="none" stroke="black" stroke-width="0.5" d="M848.13,-53.45C858.24,-54.2 868.49,-54.97 878.58,-55.72"/>
<polygon fill="black" stroke="black" stroke-width="0.5" points="878.73,-57.48 883.85,-56.11 878.99,-53.99 878.73,-57.48"/>
</g>
<!-- pyVHDLModel.DesignUnit -->
<g id="node4" class="node">
<title>pyVHDLModel.DesignUnit</title>
<g id="a_node4"><a xlink:title="A ``DesignUnit`` is a base&#45;class for all design units.">
<polygon fill="none" stroke="black" stroke-width="0.5" points="331,-37 188,-37 188,-18 331,-18 331,-37"/>
<text text-anchor="middle" x="259.5" y="-25" font-family="Vera Sans, DejaVu Sans, Liberation Sans, Arial, Helvetica, sans" font-size="10.00">pyVHDLModel.DesignUnit</text>
</a>
</g>
</g>
<!-- pyVHDLModel.SecondaryUnit -->
<g id="node8" class="node">
<title>pyVHDLModel.SecondaryUnit</title>
<g id="a_node8"><a xlink:title="A ``SecondaryUnit`` is a base&#45;class for all secondary units.">
<polygon fill="none" stroke="black" stroke-width="0.5" points="562,-37 402,-37 402,-18 562,-18 562,-37"/>
<text text-anchor="middle" x="482" y="-25" font-family="Vera Sans, DejaVu Sans, Liberation Sans, Arial, Helvetica, sans" font-size="10.00">pyVHDLModel.SecondaryUnit</text>
</a>
</g>
</g>
<!-- pyVHDLModel.DesignUnit&#45;&gt;pyVHDLModel.SecondaryUnit -->
<g id="edge5" class="edge">
<title>pyVHDLModel.DesignUnit&#45;&gt;pyVHDLModel.SecondaryUnit</title>
<path fill="none" stroke="black" stroke-width="0.5" d="M331.18,-27.5C352.05,-27.5 375.11,-27.5 396.75,-27.5"/>
<polygon fill="black" stroke="black" stroke-width="0.5" points="396.92,-29.25 401.92,-27.5 396.92,-25.75 396.92,-29.25"/>
</g>
<!-- pyVHDLModel.ModelEntity -->
<g id="node5" class="node">
<title>pyVHDLModel.ModelEntity</title>
<g id="a_node5"><a xlink:title="``ModelEntity`` is the base class for all classes in the VHDL language model,">
<polygon fill="none" stroke="black" stroke-width="0.5" points="149.5,-56 2.5,-56 2.5,-37 149.5,-37 149.5,-56"/>
<text text-anchor="middle" x="76" y="-44" font-family="Vera Sans, DejaVu Sans, Liberation Sans, Arial, Helvetica, sans" font-size="10.00">pyVHDLModel.ModelEntity</text>
</a>
</g>
</g>
<!-- pyVHDLModel.ModelEntity&#45;&gt;pyVHDLModel.DesignUnit -->
<g id="edge3" class="edge">
<title>pyVHDLModel.ModelEntity&#45;&gt;pyVHDLModel.DesignUnit</title>
<path fill="none" stroke="black" stroke-width="0.5" d="M149.52,-38.91C160.48,-37.76 171.81,-36.58 182.83,-35.42"/>
<polygon fill="black" stroke="black" stroke-width="0.5" points="183.08,-37.15 187.87,-34.89 182.72,-33.67 183.08,-37.15"/>
</g>
<!-- pyVHDLModel.NamedEntity -->
<g id="node6" class="node">
<title>pyVHDLModel.NamedEntity</title>
<g id="a_node6"><a xlink:title="A ``NamedEntity`` is a mixin class for all VHDL entities that have identifiers.">
<polygon fill="none" stroke="black" stroke-width="0.5" points="152,-19 0,-19 0,0 152,0 152,-19"/>
<text text-anchor="middle" x="76" y="-7" font-family="Vera Sans, DejaVu Sans, Liberation Sans, Arial, Helvetica, sans" font-size="10.00">pyVHDLModel.NamedEntity</text>
</a>
</g>
</g>
<!-- pyVHDLModel.NamedEntity&#45;&gt;pyVHDLModel.DesignUnit -->
<g id="edge4" class="edge">
<title>pyVHDLModel.NamedEntity&#45;&gt;pyVHDLModel.DesignUnit</title>
<path fill="none" stroke="black" stroke-width="0.5" d="M152.13,-16.95C162.18,-17.95 172.49,-18.97 182.56,-19.97"/>
<polygon fill="black" stroke="black" stroke-width="0.5" points="182.64,-21.74 187.79,-20.49 182.99,-18.25 182.64,-21.74"/>
</g>
<!-- pyVHDLModel.MixinDesignUnitWithContext -->
<g id="node7" class="node">
<title>pyVHDLModel.MixinDesignUnitWithContext</title>
<polygon fill="none" stroke="black" stroke-width="0.5" points="597,-74 367,-74 367,-55 597,-55 597,-74"/>
<text text-anchor="middle" x="482" y="-62" font-family="Vera Sans, DejaVu Sans, Liberation Sans, Arial, Helvetica, sans" font-size="10.00">pyVHDLModel.MixinDesignUnitWithContext</text>
</g>
<!-- pyVHDLModel.MixinDesignUnitWithContext&#45;&gt;pyVHDLModel.SyntaxModel.Architecture -->
<g id="edge7" class="edge">
<title>pyVHDLModel.MixinDesignUnitWithContext&#45;&gt;pyVHDLModel.SyntaxModel.Architecture</title>
<path fill="none" stroke="black" stroke-width="0.5" d="M597.37,-56.03C607.38,-55.29 617.51,-54.54 627.5,-53.8"/>
<polygon fill="black" stroke="black" stroke-width="0.5" points="627.85,-55.52 632.71,-53.41 627.6,-52.03 627.85,-55.52"/>
</g>
<!-- pyVHDLModel.SecondaryUnit&#45;&gt;pyVHDLModel.SyntaxModel.Architecture -->
<g id="edge6" class="edge">
<title>pyVHDLModel.SecondaryUnit&#45;&gt;pyVHDLModel.SyntaxModel.Architecture</title>
<path fill="none" stroke="black" stroke-width="0.5" d="M562.05,-33.05C582.85,-34.51 605.69,-36.11 627.85,-37.67"/>
<polygon fill="black" stroke="black" stroke-width="0.5" points="627.76,-39.41 632.87,-38.02 628,-35.92 627.76,-39.41"/>
</g>
</g>
</svg>
