<?xml version="1.0" encoding="UTF-8" standalone="no"?>
<!DOCTYPE svg PUBLIC "-//W3C//DTD SVG 1.1//EN"
 "http://www.w3.org/Graphics/SVG/1.1/DTD/svg11.dtd">
<!-- Generated by graphviz version 2.43.0 (0)
 -->
<!-- Title: inheritancea62abb66e0 Pages: 1 -->
<svg width="576pt" height="19pt"
 viewBox="0.00 0.00 576.00 19.02" xmlns="http://www.w3.org/2000/svg" xmlns:xlink="http://www.w3.org/1999/xlink">
<g id="graph0" class="graph" transform="scale(3.36 3.36) rotate(0) translate(4 60)">
<title>inheritancea62abb66e0</title>
<polygon fill="white" stroke="transparent" points="-4,4 -4,-60 1934,-60 1934,4 -4,4"/>
<!-- pyGHDL.dom.DOMMixin -->
<g id="node1" class="node">
<title>pyGHDL.dom.DOMMixin</title>
<g id="a_node1"><a xlink:href="../pyGHDL.dom.html#pyGHDL.dom.DOMMixin" xlink:title="pyGHDL.dom.DOMMixin" target="_top">
<polygon fill="none" stroke="black" stroke-width="0.5" points="1528,-56 1393,-56 1393,-37 1528,-37 1528,-56"/>
<text text-anchor="middle" x="1460.5" y="-44" font-family="Vera Sans, DejaVu Sans, Liberation Sans, Arial, Helvetica, sans" font-size="10.00">pyGHDL.dom.DOMMixin</text>
</a>
</g>
</g>
<!-- pyGHDL.dom.Expression.ShiftLeftArithmeticExpression -->
<g id="node2" class="node">
<title>pyGHDL.dom.Expression.ShiftLeftArithmeticExpression</title>
<g id="a_node2"><a xlink:href="../pyGHDL/pyGHDL.dom.Expression.html#pyGHDL.dom.Expression.ShiftLeftArithmeticExpression" xlink:title="pyGHDL.dom.Expression.ShiftLeftArithmeticExpression" target="_top">
<polygon fill="none" stroke="black" stroke-width="0.5" points="1930,-37 1646,-37 1646,-18 1930,-18 1930,-37"/>
<text text-anchor="middle" x="1788" y="-25" font-family="Vera Sans, DejaVu Sans, Liberation Sans, Arial, Helvetica, sans" font-size="10.00">pyGHDL.dom.Expression.ShiftLeftArithmeticExpression</text>
</a>
</g>
</g>
<!-- pyGHDL.dom.DOMMixin&#45;&gt;pyGHDL.dom.Expression.ShiftLeftArithmeticExpression -->
<g id="edge2" class="edge">
<title>pyGHDL.dom.DOMMixin&#45;&gt;pyGHDL.dom.Expression.ShiftLeftArithmeticExpression</title>
<path fill="none" stroke="black" stroke-width="0.5" d="M1528.16,-42.61C1560.73,-40.71 1601.31,-38.34 1640.6,-36.05"/>
<polygon fill="black" stroke="black" stroke-width="0.5" points="1640.99,-37.78 1645.88,-35.74 1640.79,-34.28 1640.99,-37.78"/>
</g>
<!-- pyVHDLModel.SyntaxModel.ShiftLeftArithmeticExpression -->
<g id="node3" class="node">
<title>pyVHDLModel.SyntaxModel.ShiftLeftArithmeticExpression</title>
<polygon fill="none" stroke="black" stroke-width="0.5" points="1610,-19 1311,-19 1311,0 1610,0 1610,-19"/>
<text text-anchor="middle" x="1460.5" y="-7" font-family="Vera Sans, DejaVu Sans, Liberation Sans, Arial, Helvetica, sans" font-size="10.00">pyVHDLModel.SyntaxModel.ShiftLeftArithmeticExpression</text>
</g>
<!-- pyVHDLModel.SyntaxModel.ShiftLeftArithmeticExpression&#45;&gt;pyGHDL.dom.Expression.ShiftLeftArithmeticExpression -->
<g id="edge1" class="edge">
<title>pyVHDLModel.SyntaxModel.ShiftLeftArithmeticExpression&#45;&gt;pyGHDL.dom.Expression.ShiftLeftArithmeticExpression</title>
<path fill="none" stroke="black" stroke-width="0.5" d="M1610.44,-17.74C1620.42,-18.29 1630.46,-18.84 1640.43,-19.39"/>
<polygon fill="black" stroke="black" stroke-width="0.5" points="1640.55,-21.15 1645.63,-19.68 1640.74,-17.66 1640.55,-21.15"/>
</g>
<!-- pyVHDLModel.ModelEntity -->
<g id="node4" class="node">
<title>pyVHDLModel.ModelEntity</title>
<g id="a_node4"><a xlink:title="``ModelEntity`` is the base class for all classes in the VHDL language model,">
<polygon fill="none" stroke="black" stroke-width="0.5" points="147,-19 0,-19 0,0 147,0 147,-19"/>
<text text-anchor="middle" x="73.5" y="-7" font-family="Vera Sans, DejaVu Sans, Liberation Sans, Arial, Helvetica, sans" font-size="10.00">pyVHDLModel.ModelEntity</text>
</a>
</g>
</g>
<!-- pyVHDLModel.SyntaxModel.BaseExpression -->
<g id="node5" class="node">
<title>pyVHDLModel.SyntaxModel.BaseExpression</title>
<g id="a_node5"><a xlink:title="A ``BaseExpression`` is a base&#45;class for all expressions.">
<polygon fill="none" stroke="black" stroke-width="0.5" points="416,-19 183,-19 183,0 416,0 416,-19"/>
<text text-anchor="middle" x="299.5" y="-7" font-family="Vera Sans, DejaVu Sans, Liberation Sans, Arial, Helvetica, sans" font-size="10.00">pyVHDLModel.SyntaxModel.BaseExpression</text>
</a>
</g>
</g>
<!-- pyVHDLModel.ModelEntity&#45;&gt;pyVHDLModel.SyntaxModel.BaseExpression -->
<g id="edge3" class="edge">
<title>pyVHDLModel.ModelEntity&#45;&gt;pyVHDLModel.SyntaxModel.BaseExpression</title>
<path fill="none" stroke="black" stroke-width="0.5" d="M147.23,-9.5C157,-9.5 167.22,-9.5 177.55,-9.5"/>
<polygon fill="black" stroke="black" stroke-width="0.5" points="177.63,-11.25 182.63,-9.5 177.63,-7.75 177.63,-11.25"/>
</g>
<!-- pyVHDLModel.SyntaxModel.BinaryExpression -->
<g id="node6" class="node">
<title>pyVHDLModel.SyntaxModel.BinaryExpression</title>
<g id="a_node6"><a xlink:title="A ``BinaryExpression`` is a base&#45;class for all binary expressions.">
<polygon fill="none" stroke="black" stroke-width="0.5" points="692,-19 452,-19 452,0 692,0 692,-19"/>
<text text-anchor="middle" x="572" y="-7" font-family="Vera Sans, DejaVu Sans, Liberation Sans, Arial, Helvetica, sans" font-size="10.00">pyVHDLModel.SyntaxModel.BinaryExpression</text>
</a>
</g>
</g>
<!-- pyVHDLModel.SyntaxModel.BaseExpression&#45;&gt;pyVHDLModel.SyntaxModel.BinaryExpression -->
<g id="edge4" class="edge">
<title>pyVHDLModel.SyntaxModel.BaseExpression&#45;&gt;pyVHDLModel.SyntaxModel.BinaryExpression</title>
<path fill="none" stroke="black" stroke-width="0.5" d="M416,-9.5C426.03,-9.5 436.2,-9.5 446.3,-9.5"/>
<polygon fill="black" stroke="black" stroke-width="0.5" points="446.57,-11.25 451.57,-9.5 446.57,-7.75 446.57,-11.25"/>
</g>
<!-- pyVHDLModel.SyntaxModel.ShiftExpression -->
<g id="node8" class="node">
<title>pyVHDLModel.SyntaxModel.ShiftExpression</title>
<g id="a_node8"><a xlink:title="A ``ShiftExpression`` is a base&#45;class for all shifting expressions.">
<polygon fill="none" stroke="black" stroke-width="0.5" points="958,-19 728,-19 728,0 958,0 958,-19"/>
<text text-anchor="middle" x="843" y="-7" font-family="Vera Sans, DejaVu Sans, Liberation Sans, Arial, Helvetica, sans" font-size="10.00">pyVHDLModel.SyntaxModel.ShiftExpression</text>
</a>
</g>
</g>
<!-- pyVHDLModel.SyntaxModel.BinaryExpression&#45;&gt;pyVHDLModel.SyntaxModel.ShiftExpression -->
<g id="edge6" class="edge">
<title>pyVHDLModel.SyntaxModel.BinaryExpression&#45;&gt;pyVHDLModel.SyntaxModel.ShiftExpression</title>
<path fill="none" stroke="black" stroke-width="0.5" d="M692.16,-9.5C702.21,-9.5 712.38,-9.5 722.44,-9.5"/>
<polygon fill="black" stroke="black" stroke-width="0.5" points="722.69,-11.25 727.69,-9.5 722.69,-7.75 722.69,-11.25"/>
</g>
<!-- pyVHDLModel.SyntaxModel.ShiftArithmeticExpression -->
<g id="node7" class="node">
<title>pyVHDLModel.SyntaxModel.ShiftArithmeticExpression</title>
<polygon fill="none" stroke="black" stroke-width="0.5" points="1275,-19 994,-19 994,0 1275,0 1275,-19"/>
<text text-anchor="middle" x="1134.5" y="-7" font-family="Vera Sans, DejaVu Sans, Liberation Sans, Arial, Helvetica, sans" font-size="10.00">pyVHDLModel.SyntaxModel.ShiftArithmeticExpression</text>
</g>
<!-- pyVHDLModel.SyntaxModel.ShiftArithmeticExpression&#45;&gt;pyVHDLModel.SyntaxModel.ShiftLeftArithmeticExpression -->
<g id="edge7" class="edge">
<title>pyVHDLModel.SyntaxModel.ShiftArithmeticExpression&#45;&gt;pyVHDLModel.SyntaxModel.ShiftLeftArithmeticExpression</title>
<path fill="none" stroke="black" stroke-width="0.5" d="M1275.26,-9.5C1285.41,-9.5 1295.69,-9.5 1305.92,-9.5"/>
<polygon fill="black" stroke="black" stroke-width="0.5" points="1305.93,-11.25 1310.93,-9.5 1305.93,-7.75 1305.93,-11.25"/>
</g>
<!-- pyVHDLModel.SyntaxModel.ShiftExpression&#45;&gt;pyVHDLModel.SyntaxModel.ShiftArithmeticExpression -->
<g id="edge5" class="edge">
<title>pyVHDLModel.SyntaxModel.ShiftExpression&#45;&gt;pyVHDLModel.SyntaxModel.ShiftArithmeticExpression</title>
<path fill="none" stroke="black" stroke-width="0.5" d="M958,-9.5C968.06,-9.5 978.34,-9.5 988.61,-9.5"/>
<polygon fill="black" stroke="black" stroke-width="0.5" points="988.65,-11.25 993.65,-9.5 988.65,-7.75 988.65,-11.25"/>
</g>
</g>
</svg>
