<?xml version="1.0" encoding="UTF-8" standalone="no"?>
<!DOCTYPE svg PUBLIC "-//W3C//DTD SVG 1.1//EN"
 "http://www.w3.org/Graphics/SVG/1.1/DTD/svg11.dtd">
<!-- Generated by graphviz version 2.43.0 (0)
 -->
<!-- Title: inheritance2d884852a7 Pages: 1 -->
<svg width="576pt" height="20pt"
 viewBox="0.00 0.00 576.00 20.28" xmlns="http://www.w3.org/2000/svg" xmlns:xlink="http://www.w3.org/1999/xlink">
<g id="graph0" class="graph" transform="scale(3.16 3.16) rotate(0) translate(4 60)">
<title>inheritance2d884852a7</title>
<polygon fill="white" stroke="transparent" points="-4,4 -4,-60 1814,-60 1814,4 -4,4"/>
<!-- pyGHDL.dom.DOMMixin -->
<g id="node1" class="node">
<title>pyGHDL.dom.DOMMixin</title>
<g id="a_node1"><a xlink:href="../pyGHDL.dom.html#pyGHDL.dom.DOMMixin" xlink:title="pyGHDL.dom.DOMMixin" target="_top">
<polygon fill="none" stroke="black" stroke-width="0.5" points="1468,-56 1333,-56 1333,-37 1468,-37 1468,-56"/>
<text text-anchor="middle" x="1400.5" y="-44" font-family="Vera Sans, DejaVu Sans, Liberation Sans, Arial, Helvetica, sans" font-size="10.00">pyGHDL.dom.DOMMixin</text>
</a>
</g>
</g>
<!-- pyGHDL.dom.Expression.RotateLeftExpression -->
<g id="node2" class="node">
<title>pyGHDL.dom.Expression.RotateLeftExpression</title>
<g id="a_node2"><a xlink:href="../pyGHDL/pyGHDL.dom.Expression.html#pyGHDL.dom.Expression.RotateLeftExpression" xlink:title="pyGHDL.dom.Expression.RotateLeftExpression" target="_top">
<polygon fill="none" stroke="black" stroke-width="0.5" points="1810,-37 1566,-37 1566,-18 1810,-18 1810,-37"/>
<text text-anchor="middle" x="1688" y="-25" font-family="Vera Sans, DejaVu Sans, Liberation Sans, Arial, Helvetica, sans" font-size="10.00">pyGHDL.dom.Expression.RotateLeftExpression</text>
</a>
</g>
</g>
<!-- pyGHDL.dom.DOMMixin&#45;&gt;pyGHDL.dom.Expression.RotateLeftExpression -->
<g id="edge2" class="edge">
<title>pyGHDL.dom.DOMMixin&#45;&gt;pyGHDL.dom.Expression.RotateLeftExpression</title>
<path fill="none" stroke="black" stroke-width="0.5" d="M1468.08,-42.07C1495.76,-40.23 1528.85,-38.02 1560.81,-35.9"/>
<polygon fill="black" stroke="black" stroke-width="0.5" points="1561.06,-37.64 1565.93,-35.56 1560.83,-34.14 1561.06,-37.64"/>
</g>
<!-- pyVHDLModel.SyntaxModel.RotateLeftExpression -->
<g id="node3" class="node">
<title>pyVHDLModel.SyntaxModel.RotateLeftExpression</title>
<polygon fill="none" stroke="black" stroke-width="0.5" points="1530,-19 1271,-19 1271,0 1530,0 1530,-19"/>
<text text-anchor="middle" x="1400.5" y="-7" font-family="Vera Sans, DejaVu Sans, Liberation Sans, Arial, Helvetica, sans" font-size="10.00">pyVHDLModel.SyntaxModel.RotateLeftExpression</text>
</g>
<!-- pyVHDLModel.SyntaxModel.RotateLeftExpression&#45;&gt;pyGHDL.dom.Expression.RotateLeftExpression -->
<g id="edge1" class="edge">
<title>pyVHDLModel.SyntaxModel.RotateLeftExpression&#45;&gt;pyGHDL.dom.Expression.RotateLeftExpression</title>
<path fill="none" stroke="black" stroke-width="0.5" d="M1530.05,-17.6C1540.13,-18.24 1550.31,-18.88 1560.38,-19.52"/>
<polygon fill="black" stroke="black" stroke-width="0.5" points="1560.54,-21.28 1565.64,-19.85 1560.76,-17.79 1560.54,-21.28"/>
</g>
<!-- pyVHDLModel.ModelEntity -->
<g id="node4" class="node">
<title>pyVHDLModel.ModelEntity</title>
<g id="a_node4"><a xlink:title="``ModelEntity`` is the base class for all classes in the VHDL language model,">
<polygon fill="none" stroke="black" stroke-width="0.5" points="147,-19 0,-19 0,0 147,0 147,-19"/>
<text text-anchor="middle" x="73.5" y="-7" font-family="Vera Sans, DejaVu Sans, Liberation Sans, Arial, Helvetica, sans" font-size="10.00">pyVHDLModel.ModelEntity</text>
</a>
</g>
</g>
<!-- pyVHDLModel.SyntaxModel.BaseExpression -->
<g id="node5" class="node">
<title>pyVHDLModel.SyntaxModel.BaseExpression</title>
<g id="a_node5"><a xlink:title="A ``BaseExpression`` is a base&#45;class for all expressions.">
<polygon fill="none" stroke="black" stroke-width="0.5" points="416,-19 183,-19 183,0 416,0 416,-19"/>
<text text-anchor="middle" x="299.5" y="-7" font-family="Vera Sans, DejaVu Sans, Liberation Sans, Arial, Helvetica, sans" font-size="10.00">pyVHDLModel.SyntaxModel.BaseExpression</text>
</a>
</g>
</g>
<!-- pyVHDLModel.ModelEntity&#45;&gt;pyVHDLModel.SyntaxModel.BaseExpression -->
<g id="edge3" class="edge">
<title>pyVHDLModel.ModelEntity&#45;&gt;pyVHDLModel.SyntaxModel.BaseExpression</title>
<path fill="none" stroke="black" stroke-width="0.5" d="M147.23,-9.5C157,-9.5 167.22,-9.5 177.55,-9.5"/>
<polygon fill="black" stroke="black" stroke-width="0.5" points="177.63,-11.25 182.63,-9.5 177.63,-7.75 177.63,-11.25"/>
</g>
<!-- pyVHDLModel.SyntaxModel.BinaryExpression -->
<g id="node6" class="node">
<title>pyVHDLModel.SyntaxModel.BinaryExpression</title>
<g id="a_node6"><a xlink:title="A ``BinaryExpression`` is a base&#45;class for all binary expressions.">
<polygon fill="none" stroke="black" stroke-width="0.5" points="692,-19 452,-19 452,0 692,0 692,-19"/>
<text text-anchor="middle" x="572" y="-7" font-family="Vera Sans, DejaVu Sans, Liberation Sans, Arial, Helvetica, sans" font-size="10.00">pyVHDLModel.SyntaxModel.BinaryExpression</text>
</a>
</g>
</g>
<!-- pyVHDLModel.SyntaxModel.BaseExpression&#45;&gt;pyVHDLModel.SyntaxModel.BinaryExpression -->
<g id="edge4" class="edge">
<title>pyVHDLModel.SyntaxModel.BaseExpression&#45;&gt;pyVHDLModel.SyntaxModel.BinaryExpression</title>
<path fill="none" stroke="black" stroke-width="0.5" d="M416,-9.5C426.03,-9.5 436.2,-9.5 446.3,-9.5"/>
<polygon fill="black" stroke="black" stroke-width="0.5" points="446.57,-11.25 451.57,-9.5 446.57,-7.75 446.57,-11.25"/>
</g>
<!-- pyVHDLModel.SyntaxModel.ShiftExpression -->
<g id="node8" class="node">
<title>pyVHDLModel.SyntaxModel.ShiftExpression</title>
<g id="a_node8"><a xlink:title="A ``ShiftExpression`` is a base&#45;class for all shifting expressions.">
<polygon fill="none" stroke="black" stroke-width="0.5" points="958,-19 728,-19 728,0 958,0 958,-19"/>
<text text-anchor="middle" x="843" y="-7" font-family="Vera Sans, DejaVu Sans, Liberation Sans, Arial, Helvetica, sans" font-size="10.00">pyVHDLModel.SyntaxModel.ShiftExpression</text>
</a>
</g>
</g>
<!-- pyVHDLModel.SyntaxModel.BinaryExpression&#45;&gt;pyVHDLModel.SyntaxModel.ShiftExpression -->
<g id="edge7" class="edge">
<title>pyVHDLModel.SyntaxModel.BinaryExpression&#45;&gt;pyVHDLModel.SyntaxModel.ShiftExpression</title>
<path fill="none" stroke="black" stroke-width="0.5" d="M692.16,-9.5C702.21,-9.5 712.38,-9.5 722.44,-9.5"/>
<polygon fill="black" stroke="black" stroke-width="0.5" points="722.69,-11.25 727.69,-9.5 722.69,-7.75 722.69,-11.25"/>
</g>
<!-- pyVHDLModel.SyntaxModel.RotateExpression -->
<g id="node7" class="node">
<title>pyVHDLModel.SyntaxModel.RotateExpression</title>
<polygon fill="none" stroke="black" stroke-width="0.5" points="1235,-19 994,-19 994,0 1235,0 1235,-19"/>
<text text-anchor="middle" x="1114.5" y="-7" font-family="Vera Sans, DejaVu Sans, Liberation Sans, Arial, Helvetica, sans" font-size="10.00">pyVHDLModel.SyntaxModel.RotateExpression</text>
</g>
<!-- pyVHDLModel.SyntaxModel.RotateExpression&#45;&gt;pyVHDLModel.SyntaxModel.RotateLeftExpression -->
<g id="edge6" class="edge">
<title>pyVHDLModel.SyntaxModel.RotateExpression&#45;&gt;pyVHDLModel.SyntaxModel.RotateLeftExpression</title>
<path fill="none" stroke="black" stroke-width="0.5" d="M1235.12,-9.5C1245.28,-9.5 1255.6,-9.5 1265.86,-9.5"/>
<polygon fill="black" stroke="black" stroke-width="0.5" points="1265.89,-11.25 1270.89,-9.5 1265.89,-7.75 1265.89,-11.25"/>
</g>
<!-- pyVHDLModel.SyntaxModel.ShiftExpression&#45;&gt;pyVHDLModel.SyntaxModel.RotateExpression -->
<g id="edge5" class="edge">
<title>pyVHDLModel.SyntaxModel.ShiftExpression&#45;&gt;pyVHDLModel.SyntaxModel.RotateExpression</title>
<path fill="none" stroke="black" stroke-width="0.5" d="M958.29,-9.5C968.31,-9.5 978.48,-9.5 988.58,-9.5"/>
<polygon fill="black" stroke="black" stroke-width="0.5" points="988.85,-11.25 993.85,-9.5 988.85,-7.75 988.85,-11.25"/>
</g>
</g>
</svg>
