<?xml version="1.0" encoding="UTF-8" standalone="no"?>
<!DOCTYPE svg PUBLIC "-//W3C//DTD SVG 1.1//EN"
 "http://www.w3.org/Graphics/SVG/1.1/DTD/svg11.dtd">
<!-- Generated by graphviz version 2.43.0 (0)
 -->
<!-- Title: inheritance7cf5364aca Pages: 1 -->
<svg width="576pt" height="31pt"
 viewBox="0.00 0.00 576.00 30.95" xmlns="http://www.w3.org/2000/svg" xmlns:xlink="http://www.w3.org/1999/xlink">
<g id="graph0" class="graph" transform="scale(2.07 2.07) rotate(0) translate(4 60)">
<title>inheritance7cf5364aca</title>
<polygon fill="white" stroke="transparent" points="-4,4 -4,-60 1187,-60 1187,4 -4,4"/>
<!-- pyGHDL.dom.DOMMixin -->
<g id="node1" class="node">
<title>pyGHDL.dom.DOMMixin</title>
<g id="a_node1"><a xlink:href="../pyGHDL.dom.html#pyGHDL.dom.DOMMixin" xlink:title="pyGHDL.dom.DOMMixin" target="_top">
<polygon fill="none" stroke="black" stroke-width="0.5" points="769,-56 634,-56 634,-37 769,-37 769,-56"/>
<text text-anchor="middle" x="701.5" y="-44" font-family="Vera Sans, DejaVu Sans, Liberation Sans, Arial, Helvetica, sans" font-size="10.00">pyGHDL.dom.DOMMixin</text>
</a>
</g>
</g>
<!-- pyGHDL.dom.InterfaceItem.GenericPackageInterfaceItem -->
<g id="node2" class="node">
<title>pyGHDL.dom.InterfaceItem.GenericPackageInterfaceItem</title>
<g id="a_node2"><a xlink:href="../pyGHDL/pyGHDL.dom.InterfaceItem.html#pyGHDL.dom.InterfaceItem.GenericPackageInterfaceItem" xlink:title="pyGHDL.dom.InterfaceItem.GenericPackageInterfaceItem" target="_top">
<polygon fill="none" stroke="black" stroke-width="0.5" points="1183,-37 887,-37 887,-18 1183,-18 1183,-37"/>
<text text-anchor="middle" x="1035" y="-25" font-family="Vera Sans, DejaVu Sans, Liberation Sans, Arial, Helvetica, sans" font-size="10.00">pyGHDL.dom.InterfaceItem.GenericPackageInterfaceItem</text>
</a>
</g>
</g>
<!-- pyGHDL.dom.DOMMixin&#45;&gt;pyGHDL.dom.InterfaceItem.GenericPackageInterfaceItem -->
<g id="edge2" class="edge">
<title>pyGHDL.dom.DOMMixin&#45;&gt;pyGHDL.dom.InterfaceItem.GenericPackageInterfaceItem</title>
<path fill="none" stroke="black" stroke-width="0.5" d="M769.19,-42.68C801.66,-40.82 842.16,-38.5 881.64,-36.23"/>
<polygon fill="black" stroke="black" stroke-width="0.5" points="882.06,-37.96 886.95,-35.93 881.86,-34.47 882.06,-37.96"/>
</g>
<!-- pyVHDLModel.SyntaxModel.GenericPackageInterfaceItem -->
<g id="node3" class="node">
<title>pyVHDLModel.SyntaxModel.GenericPackageInterfaceItem</title>
<polygon fill="none" stroke="black" stroke-width="0.5" points="851,-19 552,-19 552,0 851,0 851,-19"/>
<text text-anchor="middle" x="701.5" y="-7" font-family="Vera Sans, DejaVu Sans, Liberation Sans, Arial, Helvetica, sans" font-size="10.00">pyVHDLModel.SyntaxModel.GenericPackageInterfaceItem</text>
</g>
<!-- pyVHDLModel.SyntaxModel.GenericPackageInterfaceItem&#45;&gt;pyGHDL.dom.InterfaceItem.GenericPackageInterfaceItem -->
<g id="edge1" class="edge">
<title>pyVHDLModel.SyntaxModel.GenericPackageInterfaceItem&#45;&gt;pyGHDL.dom.InterfaceItem.GenericPackageInterfaceItem</title>
<path fill="none" stroke="black" stroke-width="0.5" d="M851.28,-17.58C861.32,-18.12 871.45,-18.67 881.5,-19.22"/>
<polygon fill="black" stroke="black" stroke-width="0.5" points="881.67,-20.98 886.76,-19.5 881.86,-17.49 881.67,-20.98"/>
</g>
<!-- pyVHDLModel.SyntaxModel.GenericInterfaceItem -->
<g id="node4" class="node">
<title>pyVHDLModel.SyntaxModel.GenericInterfaceItem</title>
<g id="a_node4"><a xlink:title="A ``GenericInterfaceItem`` is a mixin class for all generic interface items.">
<polygon fill="none" stroke="black" stroke-width="0.5" points="516,-19 257,-19 257,0 516,0 516,-19"/>
<text text-anchor="middle" x="386.5" y="-7" font-family="Vera Sans, DejaVu Sans, Liberation Sans, Arial, Helvetica, sans" font-size="10.00">pyVHDLModel.SyntaxModel.GenericInterfaceItem</text>
</a>
</g>
</g>
<!-- pyVHDLModel.SyntaxModel.GenericInterfaceItem&#45;&gt;pyVHDLModel.SyntaxModel.GenericPackageInterfaceItem -->
<g id="edge4" class="edge">
<title>pyVHDLModel.SyntaxModel.GenericInterfaceItem&#45;&gt;pyVHDLModel.SyntaxModel.GenericPackageInterfaceItem</title>
<path fill="none" stroke="black" stroke-width="0.5" d="M516.16,-9.5C526.31,-9.5 536.61,-9.5 546.9,-9.5"/>
<polygon fill="black" stroke="black" stroke-width="0.5" points="546.95,-11.25 551.95,-9.5 546.95,-7.75 546.95,-11.25"/>
</g>
<!-- pyVHDLModel.SyntaxModel.InterfaceItem -->
<g id="node5" class="node">
<title>pyVHDLModel.SyntaxModel.InterfaceItem</title>
<g id="a_node5"><a xlink:title="An ``InterfaceItem`` is a base&#45;class for all mixin&#45;classes for all interface">
<polygon fill="none" stroke="black" stroke-width="0.5" points="221,-19 0,-19 0,0 221,0 221,-19"/>
<text text-anchor="middle" x="110.5" y="-7" font-family="Vera Sans, DejaVu Sans, Liberation Sans, Arial, Helvetica, sans" font-size="10.00">pyVHDLModel.SyntaxModel.InterfaceItem</text>
</a>
</g>
</g>
<!-- pyVHDLModel.SyntaxModel.InterfaceItem&#45;&gt;pyVHDLModel.SyntaxModel.GenericInterfaceItem -->
<g id="edge3" class="edge">
<title>pyVHDLModel.SyntaxModel.InterfaceItem&#45;&gt;pyVHDLModel.SyntaxModel.GenericInterfaceItem</title>
<path fill="none" stroke="black" stroke-width="0.5" d="M221.37,-9.5C231.26,-9.5 241.34,-9.5 251.41,-9.5"/>
<polygon fill="black" stroke="black" stroke-width="0.5" points="251.67,-11.25 256.67,-9.5 251.67,-7.75 251.67,-11.25"/>
</g>
</g>
</svg>
