<?xml version="1.0" encoding="UTF-8" standalone="no"?>
<!DOCTYPE svg PUBLIC "-//W3C//DTD SVG 1.1//EN"
 "http://www.w3.org/Graphics/SVG/1.1/DTD/svg11.dtd">
<!-- Generated by graphviz version 2.43.0 (0)
 -->
<!-- Title: inheritancef531311e2d Pages: 1 -->
<svg width="576pt" height="31pt"
 viewBox="0.00 0.00 576.00 30.71" xmlns="http://www.w3.org/2000/svg" xmlns:xlink="http://www.w3.org/1999/xlink">
<g id="graph0" class="graph" transform="scale(2.7 2.7) rotate(0) translate(4 79)">
<title>inheritancef531311e2d</title>
<polygon fill="white" stroke="transparent" points="-4,4 -4,-79 1553,-79 1553,4 -4,4"/>
<!-- pyGHDL.dom.Concurrent.ComponentInstantiation -->
<g id="node1" class="node">
<title>pyGHDL.dom.Concurrent.ComponentInstantiation</title>
<g id="a_node1"><a xlink:href="../pyGHDL/pyGHDL.dom.Concurrent.html#pyGHDL.dom.Concurrent.ComponentInstantiation" xlink:title="pyGHDL.dom.Concurrent.ComponentInstantiation" target="_top">
<polygon fill="none" stroke="black" stroke-width="0.5" points="1549,-37 1291,-37 1291,-18 1549,-18 1549,-37"/>
<text text-anchor="middle" x="1420" y="-25" font-family="Vera Sans, DejaVu Sans, Liberation Sans, Arial, Helvetica, sans" font-size="10.00">pyGHDL.dom.Concurrent.ComponentInstantiation</text>
</a>
</g>
</g>
<!-- pyVHDLModel.SyntaxModel.ComponentInstantiation -->
<g id="node2" class="node">
<title>pyVHDLModel.SyntaxModel.ComponentInstantiation</title>
<polygon fill="none" stroke="black" stroke-width="0.5" points="1255,-56 982,-56 982,-37 1255,-37 1255,-56"/>
<text text-anchor="middle" x="1118.5" y="-44" font-family="Vera Sans, DejaVu Sans, Liberation Sans, Arial, Helvetica, sans" font-size="10.00">pyVHDLModel.SyntaxModel.ComponentInstantiation</text>
</g>
<!-- pyVHDLModel.SyntaxModel.ComponentInstantiation&#45;&gt;pyGHDL.dom.Concurrent.ComponentInstantiation -->
<g id="edge1" class="edge">
<title>pyVHDLModel.SyntaxModel.ComponentInstantiation&#45;&gt;pyGHDL.dom.Concurrent.ComponentInstantiation</title>
<path fill="none" stroke="black" stroke-width="0.5" d="M1255.23,-37.89C1265.25,-37.25 1275.35,-36.61 1285.35,-35.98"/>
<polygon fill="black" stroke="black" stroke-width="0.5" points="1285.69,-37.71 1290.57,-35.65 1285.47,-34.22 1285.69,-37.71"/>
</g>
<!-- pyGHDL.dom.DOMMixin -->
<g id="node3" class="node">
<title>pyGHDL.dom.DOMMixin</title>
<g id="a_node3"><a xlink:href="../pyGHDL.dom.html#pyGHDL.dom.DOMMixin" xlink:title="pyGHDL.dom.DOMMixin" target="_top">
<polygon fill="none" stroke="black" stroke-width="0.5" points="1186,-19 1051,-19 1051,0 1186,0 1186,-19"/>
<text text-anchor="middle" x="1118.5" y="-7" font-family="Vera Sans, DejaVu Sans, Liberation Sans, Arial, Helvetica, sans" font-size="10.00">pyGHDL.dom.DOMMixin</text>
</a>
</g>
</g>
<!-- pyGHDL.dom.DOMMixin&#45;&gt;pyGHDL.dom.Concurrent.ComponentInstantiation -->
<g id="edge2" class="edge">
<title>pyGHDL.dom.DOMMixin&#45;&gt;pyGHDL.dom.Concurrent.ComponentInstantiation</title>
<path fill="none" stroke="black" stroke-width="0.5" d="M1186.34,-13.52C1215.75,-15.28 1251.4,-17.43 1285.86,-19.5"/>
<polygon fill="black" stroke="black" stroke-width="0.5" points="1285.83,-21.25 1290.93,-19.8 1286.04,-17.76 1285.83,-21.25"/>
</g>
<!-- pyVHDLModel.LabeledEntity -->
<g id="node4" class="node">
<title>pyVHDLModel.LabeledEntity</title>
<g id="a_node4"><a xlink:title="A ``LabeledEntity`` is a mixin class for all VHDL entities that can have">
<polygon fill="none" stroke="black" stroke-width="0.5" points="155,-75 0,-75 0,-56 155,-56 155,-75"/>
<text text-anchor="middle" x="77.5" y="-63" font-family="Vera Sans, DejaVu Sans, Liberation Sans, Arial, Helvetica, sans" font-size="10.00">pyVHDLModel.LabeledEntity</text>
</a>
</g>
</g>
<!-- pyVHDLModel.SyntaxModel.Statement -->
<g id="node8" class="node">
<title>pyVHDLModel.SyntaxModel.Statement</title>
<polygon fill="none" stroke="black" stroke-width="0.5" points="397,-56 191,-56 191,-37 397,-37 397,-56"/>
<text text-anchor="middle" x="294" y="-44" font-family="Vera Sans, DejaVu Sans, Liberation Sans, Arial, Helvetica, sans" font-size="10.00">pyVHDLModel.SyntaxModel.Statement</text>
</g>
<!-- pyVHDLModel.LabeledEntity&#45;&gt;pyVHDLModel.SyntaxModel.Statement -->
<g id="edge7" class="edge">
<title>pyVHDLModel.LabeledEntity&#45;&gt;pyVHDLModel.SyntaxModel.Statement</title>
<path fill="none" stroke="black" stroke-width="0.5" d="M155.03,-58.72C164.96,-57.84 175.27,-56.93 185.58,-56.02"/>
<polygon fill="black" stroke="black" stroke-width="0.5" points="185.81,-57.75 190.64,-55.57 185.5,-54.27 185.81,-57.75"/>
</g>
<!-- pyVHDLModel.ModelEntity -->
<g id="node5" class="node">
<title>pyVHDLModel.ModelEntity</title>
<g id="a_node5"><a xlink:title="``ModelEntity`` is the base class for all classes in the VHDL language model,">
<polygon fill="none" stroke="black" stroke-width="0.5" points="151,-38 4,-38 4,-19 151,-19 151,-38"/>
<text text-anchor="middle" x="77.5" y="-26" font-family="Vera Sans, DejaVu Sans, Liberation Sans, Arial, Helvetica, sans" font-size="10.00">pyVHDLModel.ModelEntity</text>
</a>
</g>
</g>
<!-- pyVHDLModel.ModelEntity&#45;&gt;pyVHDLModel.SyntaxModel.Statement -->
<g id="edge6" class="edge">
<title>pyVHDLModel.ModelEntity&#45;&gt;pyVHDLModel.SyntaxModel.Statement</title>
<path fill="none" stroke="black" stroke-width="0.5" d="M151.12,-34.59C162.29,-35.53 174.01,-36.52 185.74,-37.5"/>
<polygon fill="black" stroke="black" stroke-width="0.5" points="185.64,-39.25 190.77,-37.92 185.93,-35.76 185.64,-39.25"/>
</g>
<!-- pyVHDLModel.SyntaxModel.Instantiation -->
<g id="node6" class="node">
<title>pyVHDLModel.SyntaxModel.Instantiation</title>
<polygon fill="none" stroke="black" stroke-width="0.5" points="946,-56 729,-56 729,-37 946,-37 946,-56"/>
<text text-anchor="middle" x="837.5" y="-44" font-family="Vera Sans, DejaVu Sans, Liberation Sans, Arial, Helvetica, sans" font-size="10.00">pyVHDLModel.SyntaxModel.Instantiation</text>
</g>
<!-- pyVHDLModel.SyntaxModel.Instantiation&#45;&gt;pyVHDLModel.SyntaxModel.ComponentInstantiation -->
<g id="edge3" class="edge">
<title>pyVHDLModel.SyntaxModel.Instantiation&#45;&gt;pyVHDLModel.SyntaxModel.ComponentInstantiation</title>
<path fill="none" stroke="black" stroke-width="0.5" d="M946.37,-46.5C956.38,-46.5 966.63,-46.5 976.88,-46.5"/>
<polygon fill="black" stroke="black" stroke-width="0.5" points="976.91,-48.25 981.91,-46.5 976.91,-44.75 976.91,-48.25"/>
</g>
<!-- pyVHDLModel.SyntaxModel.ConcurrentStatement -->
<g id="node7" class="node">
<title>pyVHDLModel.SyntaxModel.ConcurrentStatement</title>
<g id="a_node7"><a xlink:title="A ``ConcurrentStatement`` is a base&#45;class for all concurrent statements.">
<polygon fill="none" stroke="black" stroke-width="0.5" points="693,-56 433,-56 433,-37 693,-37 693,-56"/>
<text text-anchor="middle" x="563" y="-44" font-family="Vera Sans, DejaVu Sans, Liberation Sans, Arial, Helvetica, sans" font-size="10.00">pyVHDLModel.SyntaxModel.ConcurrentStatement</text>
</a>
</g>
</g>
<!-- pyVHDLModel.SyntaxModel.ConcurrentStatement&#45;&gt;pyVHDLModel.SyntaxModel.Instantiation -->
<g id="edge5" class="edge">
<title>pyVHDLModel.SyntaxModel.ConcurrentStatement&#45;&gt;pyVHDLModel.SyntaxModel.Instantiation</title>
<path fill="none" stroke="black" stroke-width="0.5" d="M693.07,-46.5C703.26,-46.5 713.5,-46.5 723.57,-46.5"/>
<polygon fill="black" stroke="black" stroke-width="0.5" points="723.82,-48.25 728.82,-46.5 723.82,-44.75 723.82,-48.25"/>
</g>
<!-- pyVHDLModel.SyntaxModel.Statement&#45;&gt;pyVHDLModel.SyntaxModel.ConcurrentStatement -->
<g id="edge4" class="edge">
<title>pyVHDLModel.SyntaxModel.Statement&#45;&gt;pyVHDLModel.SyntaxModel.ConcurrentStatement</title>
<path fill="none" stroke="black" stroke-width="0.5" d="M397.08,-46.5C407.08,-46.5 417.32,-46.5 427.57,-46.5"/>
<polygon fill="black" stroke="black" stroke-width="0.5" points="427.61,-48.25 432.61,-46.5 427.61,-44.75 427.61,-48.25"/>
</g>
</g>
</svg>
