<?xml version="1.0" encoding="UTF-8" standalone="no"?>
<!DOCTYPE svg PUBLIC "-//W3C//DTD SVG 1.1//EN"
 "http://www.w3.org/Graphics/SVG/1.1/DTD/svg11.dtd">
<!-- Generated by graphviz version 2.43.0 (0)
 -->
<!-- Title: inheritance99df5465c2 Pages: 1 -->
<svg width="545pt" height="82pt"
 viewBox="0.00 0.00 545.00 82.00" xmlns="http://www.w3.org/2000/svg" xmlns:xlink="http://www.w3.org/1999/xlink">
<g id="graph0" class="graph" transform="scale(1 1) rotate(0) translate(4 78)">
<title>inheritance99df5465c2</title>
<polygon fill="white" stroke="transparent" points="-4,4 -4,-78 541,-78 541,4 -4,4"/>
<!-- pyGHDL.dom.DOMMixin -->
<g id="node1" class="node">
<title>pyGHDL.dom.DOMMixin</title>
<g id="a_node1"><a xlink:href="../pyGHDL.dom.html#pyGHDL.dom.DOMMixin" xlink:title="pyGHDL.dom.DOMMixin" target="_top">
<polygon fill="none" stroke="black" stroke-width="0.5" points="345,-74 210,-74 210,-55 345,-55 345,-74"/>
<text text-anchor="middle" x="277.5" y="-62" font-family="Vera Sans, DejaVu Sans, Liberation Sans, Arial, Helvetica, sans" font-size="10.00">pyGHDL.dom.DOMMixin</text>
</a>
</g>
</g>
<!-- pyGHDL.dom.Misc.Alias -->
<g id="node2" class="node">
<title>pyGHDL.dom.Misc.Alias</title>
<g id="a_node2"><a xlink:href="../pyGHDL/pyGHDL.dom.Misc.html#pyGHDL.dom.Misc.Alias" xlink:title="pyGHDL.dom.Misc.Alias" target="_top">
<polygon fill="none" stroke="black" stroke-width="0.5" points="537,-55 403,-55 403,-36 537,-36 537,-55"/>
<text text-anchor="middle" x="470" y="-43" font-family="Vera Sans, DejaVu Sans, Liberation Sans, Arial, Helvetica, sans" font-size="10.00">pyGHDL.dom.Misc.Alias</text>
</a>
</g>
</g>
<!-- pyGHDL.dom.DOMMixin&#45;&gt;pyGHDL.dom.Misc.Alias -->
<g id="edge2" class="edge">
<title>pyGHDL.dom.DOMMixin&#45;&gt;pyGHDL.dom.Misc.Alias</title>
<path fill="none" stroke="black" stroke-width="0.5" d="M345.13,-57.85C362.05,-56.17 380.29,-54.35 397.45,-52.64"/>
<polygon fill="black" stroke="black" stroke-width="0.5" points="397.93,-54.35 402.73,-52.11 397.58,-50.86 397.93,-54.35"/>
</g>
<!-- pyVHDLModel.SyntaxModel.Alias -->
<g id="node3" class="node">
<title>pyVHDLModel.SyntaxModel.Alias</title>
<polygon fill="none" stroke="black" stroke-width="0.5" points="367,-37 188,-37 188,-18 367,-18 367,-37"/>
<text text-anchor="middle" x="277.5" y="-25" font-family="Vera Sans, DejaVu Sans, Liberation Sans, Arial, Helvetica, sans" font-size="10.00">pyVHDLModel.SyntaxModel.Alias</text>
</g>
<!-- pyVHDLModel.SyntaxModel.Alias&#45;&gt;pyGHDL.dom.Misc.Alias -->
<g id="edge1" class="edge">
<title>pyVHDLModel.SyntaxModel.Alias&#45;&gt;pyGHDL.dom.Misc.Alias</title>
<path fill="none" stroke="black" stroke-width="0.5" d="M367.06,-35.87C377.32,-36.84 387.68,-37.82 397.67,-38.76"/>
<polygon fill="black" stroke="black" stroke-width="0.5" points="397.71,-40.52 402.86,-39.25 398.04,-37.04 397.71,-40.52"/>
</g>
<!-- pyVHDLModel.ModelEntity -->
<g id="node4" class="node">
<title>pyVHDLModel.ModelEntity</title>
<g id="a_node4"><a xlink:title="``ModelEntity`` is the base class for all classes in the VHDL language model,">
<polygon fill="none" stroke="black" stroke-width="0.5" points="149.5,-56 2.5,-56 2.5,-37 149.5,-37 149.5,-56"/>
<text text-anchor="middle" x="76" y="-44" font-family="Vera Sans, DejaVu Sans, Liberation Sans, Arial, Helvetica, sans" font-size="10.00">pyVHDLModel.ModelEntity</text>
</a>
</g>
</g>
<!-- pyVHDLModel.ModelEntity&#45;&gt;pyVHDLModel.SyntaxModel.Alias -->
<g id="edge3" class="edge">
<title>pyVHDLModel.ModelEntity&#45;&gt;pyVHDLModel.SyntaxModel.Alias</title>
<path fill="none" stroke="black" stroke-width="0.5" d="M149.59,-39.59C160.41,-38.56 171.69,-37.48 182.87,-36.42"/>
<polygon fill="black" stroke="black" stroke-width="0.5" points="183.19,-38.15 188,-35.93 182.85,-34.66 183.19,-38.15"/>
</g>
<!-- pyVHDLModel.NamedEntity -->
<g id="node5" class="node">
<title>pyVHDLModel.NamedEntity</title>
<g id="a_node5"><a xlink:title="A ``NamedEntity`` is a mixin class for all VHDL entities that have identifiers.">
<polygon fill="none" stroke="black" stroke-width="0.5" points="152,-19 0,-19 0,0 152,0 152,-19"/>
<text text-anchor="middle" x="76" y="-7" font-family="Vera Sans, DejaVu Sans, Liberation Sans, Arial, Helvetica, sans" font-size="10.00">pyVHDLModel.NamedEntity</text>
</a>
</g>
</g>
<!-- pyVHDLModel.NamedEntity&#45;&gt;pyVHDLModel.SyntaxModel.Alias -->
<g id="edge4" class="edge">
<title>pyVHDLModel.NamedEntity&#45;&gt;pyVHDLModel.SyntaxModel.Alias</title>
<path fill="none" stroke="black" stroke-width="0.5" d="M152.14,-16.28C162.1,-17.18 172.42,-18.11 182.65,-19.03"/>
<polygon fill="black" stroke="black" stroke-width="0.5" points="182.53,-20.78 187.67,-19.49 182.85,-17.29 182.53,-20.78"/>
</g>
</g>
</svg>
