<?xml version="1.0" encoding="UTF-8" standalone="no"?>
<!DOCTYPE svg PUBLIC "-//W3C//DTD SVG 1.1//EN"
 "http://www.w3.org/Graphics/SVG/1.1/DTD/svg11.dtd">
<!-- Generated by graphviz version 2.43.0 (0)
 -->
<!-- Title: inheritance6f2f200687 Pages: 1 -->
<svg width="576pt" height="43pt"
 viewBox="0.00 0.00 576.00 42.86" xmlns="http://www.w3.org/2000/svg" xmlns:xlink="http://www.w3.org/1999/xlink">
<g id="graph0" class="graph" transform="scale(2.33 2.33) rotate(0) translate(4 96)">
<title>inheritance6f2f200687</title>
<polygon fill="white" stroke="transparent" points="-4,4 -4,-96 1340,-96 1340,4 -4,4"/>
<!-- pyGHDL.dom.DOMMixin -->
<g id="node1" class="node">
<title>pyGHDL.dom.DOMMixin</title>
<g id="a_node1"><a xlink:href="../pyGHDL.dom.html#pyGHDL.dom.DOMMixin" xlink:title="pyGHDL.dom.DOMMixin" target="_top">
<polygon fill="none" stroke="black" stroke-width="0.5" points="948,-92 813,-92 813,-73 948,-73 948,-92"/>
<text text-anchor="middle" x="880.5" y="-80" font-family="Vera Sans, DejaVu Sans, Liberation Sans, Arial, Helvetica, sans" font-size="10.00">pyGHDL.dom.DOMMixin</text>
</a>
</g>
</g>
<!-- pyGHDL.dom.InterfaceItem.GenericTypeInterfaceItem -->
<g id="node2" class="node">
<title>pyGHDL.dom.InterfaceItem.GenericTypeInterfaceItem</title>
<g id="a_node2"><a xlink:href="../pyGHDL/pyGHDL.dom.InterfaceItem.html#pyGHDL.dom.InterfaceItem.GenericTypeInterfaceItem" xlink:title="pyGHDL.dom.InterfaceItem.GenericTypeInterfaceItem" target="_top">
<polygon fill="none" stroke="black" stroke-width="0.5" points="1336,-73 1057,-73 1057,-54 1336,-54 1336,-73"/>
<text text-anchor="middle" x="1196.5" y="-61" font-family="Vera Sans, DejaVu Sans, Liberation Sans, Arial, Helvetica, sans" font-size="10.00">pyGHDL.dom.InterfaceItem.GenericTypeInterfaceItem</text>
</a>
</g>
</g>
<!-- pyGHDL.dom.DOMMixin&#45;&gt;pyGHDL.dom.InterfaceItem.GenericTypeInterfaceItem -->
<g id="edge2" class="edge">
<title>pyGHDL.dom.DOMMixin&#45;&gt;pyGHDL.dom.InterfaceItem.GenericTypeInterfaceItem</title>
<path fill="none" stroke="black" stroke-width="0.5" d="M948.09,-78.47C978.38,-76.64 1015.47,-74.39 1051.63,-72.21"/>
<polygon fill="black" stroke="black" stroke-width="0.5" points="1052.07,-73.93 1056.95,-71.88 1051.86,-70.44 1052.07,-73.93"/>
</g>
<!-- pyVHDLModel.SyntaxModel.GenericTypeInterfaceItem -->
<g id="node3" class="node">
<title>pyVHDLModel.SyntaxModel.GenericTypeInterfaceItem</title>
<polygon fill="none" stroke="black" stroke-width="0.5" points="1021,-55 740,-55 740,-36 1021,-36 1021,-55"/>
<text text-anchor="middle" x="880.5" y="-43" font-family="Vera Sans, DejaVu Sans, Liberation Sans, Arial, Helvetica, sans" font-size="10.00">pyVHDLModel.SyntaxModel.GenericTypeInterfaceItem</text>
</g>
<!-- pyVHDLModel.SyntaxModel.GenericTypeInterfaceItem&#45;&gt;pyGHDL.dom.InterfaceItem.GenericTypeInterfaceItem -->
<g id="edge1" class="edge">
<title>pyVHDLModel.SyntaxModel.GenericTypeInterfaceItem&#45;&gt;pyGHDL.dom.InterfaceItem.GenericTypeInterfaceItem</title>
<path fill="none" stroke="black" stroke-width="0.5" d="M1021.05,-53.5C1031.1,-54.08 1041.24,-54.66 1051.3,-55.23"/>
<polygon fill="black" stroke="black" stroke-width="0.5" points="1051.47,-57 1056.56,-55.54 1051.67,-53.5 1051.47,-57"/>
</g>
<!-- pyVHDLModel.ModelEntity -->
<g id="node4" class="node">
<title>pyVHDLModel.ModelEntity</title>
<g id="a_node4"><a xlink:title="``ModelEntity`` is the base class for all classes in the VHDL language model,">
<polygon fill="none" stroke="black" stroke-width="0.5" points="149.5,-56 2.5,-56 2.5,-37 149.5,-37 149.5,-56"/>
<text text-anchor="middle" x="76" y="-44" font-family="Vera Sans, DejaVu Sans, Liberation Sans, Arial, Helvetica, sans" font-size="10.00">pyVHDLModel.ModelEntity</text>
</a>
</g>
</g>
<!-- pyVHDLModel.SyntaxModel.BaseType -->
<g id="node6" class="node">
<title>pyVHDLModel.SyntaxModel.BaseType</title>
<g id="a_node6"><a xlink:title="``BaseType`` is the base class of all type entities in this model.">
<polygon fill="none" stroke="black" stroke-width="0.5" points="399.5,-37 197.5,-37 197.5,-18 399.5,-18 399.5,-37"/>
<text text-anchor="middle" x="298.5" y="-25" font-family="Vera Sans, DejaVu Sans, Liberation Sans, Arial, Helvetica, sans" font-size="10.00">pyVHDLModel.SyntaxModel.BaseType</text>
</a>
</g>
</g>
<!-- pyVHDLModel.ModelEntity&#45;&gt;pyVHDLModel.SyntaxModel.BaseType -->
<g id="edge3" class="edge">
<title>pyVHDLModel.ModelEntity&#45;&gt;pyVHDLModel.SyntaxModel.BaseType</title>
<path fill="none" stroke="black" stroke-width="0.5" d="M149.51,-40.25C163.14,-39.08 177.66,-37.83 192.06,-36.59"/>
<polygon fill="black" stroke="black" stroke-width="0.5" points="192.53,-38.3 197.37,-36.13 192.23,-34.81 192.53,-38.3"/>
</g>
<!-- pyVHDLModel.NamedEntity -->
<g id="node5" class="node">
<title>pyVHDLModel.NamedEntity</title>
<g id="a_node5"><a xlink:title="A ``NamedEntity`` is a mixin class for all VHDL entities that have identifiers.">
<polygon fill="none" stroke="black" stroke-width="0.5" points="152,-19 0,-19 0,0 152,0 152,-19"/>
<text text-anchor="middle" x="76" y="-7" font-family="Vera Sans, DejaVu Sans, Liberation Sans, Arial, Helvetica, sans" font-size="10.00">pyVHDLModel.NamedEntity</text>
</a>
</g>
</g>
<!-- pyVHDLModel.NamedEntity&#45;&gt;pyVHDLModel.SyntaxModel.BaseType -->
<g id="edge4" class="edge">
<title>pyVHDLModel.NamedEntity&#45;&gt;pyVHDLModel.SyntaxModel.BaseType</title>
<path fill="none" stroke="black" stroke-width="0.5" d="M152.27,-15.64C165.04,-16.69 178.52,-17.79 191.9,-18.88"/>
<polygon fill="black" stroke="black" stroke-width="0.5" points="192.1,-20.65 197.23,-19.31 192.38,-17.16 192.1,-20.65"/>
</g>
<!-- pyVHDLModel.SyntaxModel.Type -->
<g id="node9" class="node">
<title>pyVHDLModel.SyntaxModel.Type</title>
<polygon fill="none" stroke="black" stroke-width="0.5" points="663.5,-37 485.5,-37 485.5,-18 663.5,-18 663.5,-37"/>
<text text-anchor="middle" x="574.5" y="-25" font-family="Vera Sans, DejaVu Sans, Liberation Sans, Arial, Helvetica, sans" font-size="10.00">pyVHDLModel.SyntaxModel.Type</text>
</g>
<!-- pyVHDLModel.SyntaxModel.BaseType&#45;&gt;pyVHDLModel.SyntaxModel.Type -->
<g id="edge8" class="edge">
<title>pyVHDLModel.SyntaxModel.BaseType&#45;&gt;pyVHDLModel.SyntaxModel.Type</title>
<path fill="none" stroke="black" stroke-width="0.5" d="M399.58,-27.5C425.95,-27.5 454.3,-27.5 480.29,-27.5"/>
<polygon fill="black" stroke="black" stroke-width="0.5" points="480.46,-29.25 485.46,-27.5 480.46,-25.75 480.46,-29.25"/>
</g>
<!-- pyVHDLModel.SyntaxModel.GenericInterfaceItem -->
<g id="node7" class="node">
<title>pyVHDLModel.SyntaxModel.GenericInterfaceItem</title>
<g id="a_node7"><a xlink:title="A ``GenericInterfaceItem`` is a mixin class for all generic interface items.">
<polygon fill="none" stroke="black" stroke-width="0.5" points="704,-74 445,-74 445,-55 704,-55 704,-74"/>
<text text-anchor="middle" x="574.5" y="-62" font-family="Vera Sans, DejaVu Sans, Liberation Sans, Arial, Helvetica, sans" font-size="10.00">pyVHDLModel.SyntaxModel.GenericInterfaceItem</text>
</a>
</g>
</g>
<!-- pyVHDLModel.SyntaxModel.GenericInterfaceItem&#45;&gt;pyVHDLModel.SyntaxModel.GenericTypeInterfaceItem -->
<g id="edge7" class="edge">
<title>pyVHDLModel.SyntaxModel.GenericInterfaceItem&#45;&gt;pyVHDLModel.SyntaxModel.GenericTypeInterfaceItem</title>
<path fill="none" stroke="black" stroke-width="0.5" d="M704.42,-56.44C714.35,-55.82 724.4,-55.19 734.42,-54.57"/>
<polygon fill="black" stroke="black" stroke-width="0.5" points="734.77,-56.3 739.65,-54.24 734.55,-52.81 734.77,-56.3"/>
</g>
<!-- pyVHDLModel.SyntaxModel.InterfaceItem -->
<g id="node8" class="node">
<title>pyVHDLModel.SyntaxModel.InterfaceItem</title>
<g id="a_node8"><a xlink:title="An ``InterfaceItem`` is a base&#45;class for all mixin&#45;classes for all interface">
<polygon fill="none" stroke="black" stroke-width="0.5" points="409,-74 188,-74 188,-55 409,-55 409,-74"/>
<text text-anchor="middle" x="298.5" y="-62" font-family="Vera Sans, DejaVu Sans, Liberation Sans, Arial, Helvetica, sans" font-size="10.00">pyVHDLModel.SyntaxModel.InterfaceItem</text>
</a>
</g>
</g>
<!-- pyVHDLModel.SyntaxModel.InterfaceItem&#45;&gt;pyVHDLModel.SyntaxModel.GenericInterfaceItem -->
<g id="edge5" class="edge">
<title>pyVHDLModel.SyntaxModel.InterfaceItem&#45;&gt;pyVHDLModel.SyntaxModel.GenericInterfaceItem</title>
<path fill="none" stroke="black" stroke-width="0.5" d="M409.37,-64.5C419.26,-64.5 429.34,-64.5 439.41,-64.5"/>
<polygon fill="black" stroke="black" stroke-width="0.5" points="439.67,-66.25 444.67,-64.5 439.67,-62.75 439.67,-66.25"/>
</g>
<!-- pyVHDLModel.SyntaxModel.Type&#45;&gt;pyVHDLModel.SyntaxModel.GenericTypeInterfaceItem -->
<g id="edge6" class="edge">
<title>pyVHDLModel.SyntaxModel.Type&#45;&gt;pyVHDLModel.SyntaxModel.GenericTypeInterfaceItem</title>
<path fill="none" stroke="black" stroke-width="0.5" d="M663.84,-32.73C686.1,-34.05 710.58,-35.5 734.81,-36.93"/>
<polygon fill="black" stroke="black" stroke-width="0.5" points="734.88,-38.69 739.98,-37.24 735.09,-35.2 734.88,-38.69"/>
</g>
</g>
</svg>
