<?xml version="1.0" encoding="UTF-8" standalone="no"?>
<!DOCTYPE svg PUBLIC "-//W3C//DTD SVG 1.1//EN"
 "http://www.w3.org/Graphics/SVG/1.1/DTD/svg11.dtd">
<!-- Generated by graphviz version 2.43.0 (0)
 -->
<!-- Title: inheritancef5407852c5 Pages: 1 -->
<svg width="576pt" height="30pt"
 viewBox="0.00 0.00 576.00 29.61" xmlns="http://www.w3.org/2000/svg" xmlns:xlink="http://www.w3.org/1999/xlink">
<g id="graph0" class="graph" transform="scale(2.16 2.16) rotate(0) translate(4 60)">
<title>inheritancef5407852c5</title>
<polygon fill="white" stroke="transparent" points="-4,4 -4,-60 1241,-60 1241,4 -4,4"/>
<!-- pyGHDL.dom.DOMMixin -->
<g id="node1" class="node">
<title>pyGHDL.dom.DOMMixin</title>
<g id="a_node1"><a xlink:href="../pyGHDL.dom.html#pyGHDL.dom.DOMMixin" xlink:title="pyGHDL.dom.DOMMixin" target="_top">
<polygon fill="none" stroke="black" stroke-width="0.5" points="916,-56 781,-56 781,-37 916,-37 916,-56"/>
<text text-anchor="middle" x="848.5" y="-44" font-family="Vera Sans, DejaVu Sans, Liberation Sans, Arial, Helvetica, sans" font-size="10.00">pyGHDL.dom.DOMMixin</text>
</a>
</g>
</g>
<!-- pyGHDL.dom.Expression.InverseExpression -->
<g id="node2" class="node">
<title>pyGHDL.dom.Expression.InverseExpression</title>
<g id="a_node2"><a xlink:href="../pyGHDL/pyGHDL.dom.Expression.html#pyGHDL.dom.Expression.InverseExpression" xlink:title="pyGHDL.dom.Expression.InverseExpression" target="_top">
<polygon fill="none" stroke="black" stroke-width="0.5" points="1237,-37 1007,-37 1007,-18 1237,-18 1237,-37"/>
<text text-anchor="middle" x="1122" y="-25" font-family="Vera Sans, DejaVu Sans, Liberation Sans, Arial, Helvetica, sans" font-size="10.00">pyGHDL.dom.Expression.InverseExpression</text>
</a>
</g>
</g>
<!-- pyGHDL.dom.DOMMixin&#45;&gt;pyGHDL.dom.Expression.InverseExpression -->
<g id="edge2" class="edge">
<title>pyGHDL.dom.DOMMixin&#45;&gt;pyGHDL.dom.Expression.InverseExpression</title>
<path fill="none" stroke="black" stroke-width="0.5" d="M916.26,-41.83C942.09,-40.02 972.45,-37.9 1001.77,-35.84"/>
<polygon fill="black" stroke="black" stroke-width="0.5" points="1001.98,-37.58 1006.85,-35.49 1001.74,-34.09 1001.98,-37.58"/>
</g>
<!-- pyVHDLModel.SyntaxModel.InverseExpression -->
<g id="node3" class="node">
<title>pyVHDLModel.SyntaxModel.InverseExpression</title>
<polygon fill="none" stroke="black" stroke-width="0.5" points="971,-19 726,-19 726,0 971,0 971,-19"/>
<text text-anchor="middle" x="848.5" y="-7" font-family="Vera Sans, DejaVu Sans, Liberation Sans, Arial, Helvetica, sans" font-size="10.00">pyVHDLModel.SyntaxModel.InverseExpression</text>
</g>
<!-- pyVHDLModel.SyntaxModel.InverseExpression&#45;&gt;pyGHDL.dom.Expression.InverseExpression -->
<g id="edge1" class="edge">
<title>pyVHDLModel.SyntaxModel.InverseExpression&#45;&gt;pyGHDL.dom.Expression.InverseExpression</title>
<path fill="none" stroke="black" stroke-width="0.5" d="M971.35,-17.58C981.44,-18.25 991.62,-18.92 1001.69,-19.59"/>
<polygon fill="black" stroke="black" stroke-width="0.5" points="1001.83,-21.35 1006.94,-19.94 1002.07,-17.86 1001.83,-21.35"/>
</g>
<!-- pyVHDLModel.ModelEntity -->
<g id="node4" class="node">
<title>pyVHDLModel.ModelEntity</title>
<g id="a_node4"><a xlink:title="``ModelEntity`` is the base class for all classes in the VHDL language model,">
<polygon fill="none" stroke="black" stroke-width="0.5" points="147,-19 0,-19 0,0 147,0 147,-19"/>
<text text-anchor="middle" x="73.5" y="-7" font-family="Vera Sans, DejaVu Sans, Liberation Sans, Arial, Helvetica, sans" font-size="10.00">pyVHDLModel.ModelEntity</text>
</a>
</g>
</g>
<!-- pyVHDLModel.SyntaxModel.BaseExpression -->
<g id="node5" class="node">
<title>pyVHDLModel.SyntaxModel.BaseExpression</title>
<g id="a_node5"><a xlink:title="A ``BaseExpression`` is a base&#45;class for all expressions.">
<polygon fill="none" stroke="black" stroke-width="0.5" points="416,-19 183,-19 183,0 416,0 416,-19"/>
<text text-anchor="middle" x="299.5" y="-7" font-family="Vera Sans, DejaVu Sans, Liberation Sans, Arial, Helvetica, sans" font-size="10.00">pyVHDLModel.SyntaxModel.BaseExpression</text>
</a>
</g>
</g>
<!-- pyVHDLModel.ModelEntity&#45;&gt;pyVHDLModel.SyntaxModel.BaseExpression -->
<g id="edge3" class="edge">
<title>pyVHDLModel.ModelEntity&#45;&gt;pyVHDLModel.SyntaxModel.BaseExpression</title>
<path fill="none" stroke="black" stroke-width="0.5" d="M147.23,-9.5C157,-9.5 167.22,-9.5 177.55,-9.5"/>
<polygon fill="black" stroke="black" stroke-width="0.5" points="177.63,-11.25 182.63,-9.5 177.63,-7.75 177.63,-11.25"/>
</g>
<!-- pyVHDLModel.SyntaxModel.UnaryExpression -->
<g id="node6" class="node">
<title>pyVHDLModel.SyntaxModel.UnaryExpression</title>
<g id="a_node6"><a xlink:title="A ``UnaryExpression`` is a base&#45;class for all unary expressions.">
<polygon fill="none" stroke="black" stroke-width="0.5" points="690,-19 452,-19 452,0 690,0 690,-19"/>
<text text-anchor="middle" x="571" y="-7" font-family="Vera Sans, DejaVu Sans, Liberation Sans, Arial, Helvetica, sans" font-size="10.00">pyVHDLModel.SyntaxModel.UnaryExpression</text>
</a>
</g>
</g>
<!-- pyVHDLModel.SyntaxModel.BaseExpression&#45;&gt;pyVHDLModel.SyntaxModel.UnaryExpression -->
<g id="edge5" class="edge">
<title>pyVHDLModel.SyntaxModel.BaseExpression&#45;&gt;pyVHDLModel.SyntaxModel.UnaryExpression</title>
<path fill="none" stroke="black" stroke-width="0.5" d="M416.36,-9.5C426.32,-9.5 436.42,-9.5 446.44,-9.5"/>
<polygon fill="black" stroke="black" stroke-width="0.5" points="446.67,-11.25 451.67,-9.5 446.67,-7.75 446.67,-11.25"/>
</g>
<!-- pyVHDLModel.SyntaxModel.UnaryExpression&#45;&gt;pyVHDLModel.SyntaxModel.InverseExpression -->
<g id="edge4" class="edge">
<title>pyVHDLModel.SyntaxModel.UnaryExpression&#45;&gt;pyVHDLModel.SyntaxModel.InverseExpression</title>
<path fill="none" stroke="black" stroke-width="0.5" d="M690.04,-9.5C700.2,-9.5 710.51,-9.5 720.75,-9.5"/>
<polygon fill="black" stroke="black" stroke-width="0.5" points="720.76,-11.25 725.76,-9.5 720.76,-7.75 720.76,-11.25"/>
</g>
</g>
</svg>
