<?xml version="1.0" encoding="UTF-8" standalone="no"?>
<!DOCTYPE svg PUBLIC "-//W3C//DTD SVG 1.1//EN"
 "http://www.w3.org/Graphics/SVG/1.1/DTD/svg11.dtd">
<!-- Generated by graphviz version 2.43.0 (0)
 -->
<!-- Title: inheritancee639b6659b Pages: 1 -->
<svg width="576pt" height="23pt"
 viewBox="0.00 0.00 576.00 22.70" xmlns="http://www.w3.org/2000/svg" xmlns:xlink="http://www.w3.org/1999/xlink">
<g id="graph0" class="graph" transform="scale(2.82 2.82) rotate(0) translate(4 60)">
<title>inheritancee639b6659b</title>
<polygon fill="white" stroke="transparent" points="-4,4 -4,-60 1620,-60 1620,4 -4,4"/>
<!-- pyGHDL.dom.DOMMixin -->
<g id="node1" class="node">
<title>pyGHDL.dom.DOMMixin</title>
<g id="a_node1"><a xlink:href="../pyGHDL.dom.html#pyGHDL.dom.DOMMixin" xlink:title="pyGHDL.dom.DOMMixin" target="_top">
<polygon fill="none" stroke="black" stroke-width="0.5" points="1218.5,-56 1083.5,-56 1083.5,-37 1218.5,-37 1218.5,-56"/>
<text text-anchor="middle" x="1151" y="-44" font-family="Vera Sans, DejaVu Sans, Liberation Sans, Arial, Helvetica, sans" font-size="10.00">pyGHDL.dom.DOMMixin</text>
</a>
</g>
</g>
<!-- pyGHDL.dom.Expression.DescendingRangeExpression -->
<g id="node2" class="node">
<title>pyGHDL.dom.Expression.DescendingRangeExpression</title>
<g id="a_node2"><a xlink:href="../pyGHDL/pyGHDL.dom.Expression.html#pyGHDL.dom.Expression.DescendingRangeExpression" xlink:title="pyGHDL.dom.Expression.DescendingRangeExpression" target="_top">
<polygon fill="none" stroke="black" stroke-width="0.5" points="1616,-37 1335,-37 1335,-18 1616,-18 1616,-37"/>
<text text-anchor="middle" x="1475.5" y="-25" font-family="Vera Sans, DejaVu Sans, Liberation Sans, Arial, Helvetica, sans" font-size="10.00">pyGHDL.dom.Expression.DescendingRangeExpression</text>
</a>
</g>
</g>
<!-- pyGHDL.dom.DOMMixin&#45;&gt;pyGHDL.dom.Expression.DescendingRangeExpression -->
<g id="edge2" class="edge">
<title>pyGHDL.dom.DOMMixin&#45;&gt;pyGHDL.dom.Expression.DescendingRangeExpression</title>
<path fill="none" stroke="black" stroke-width="0.5" d="M1218.82,-42.56C1251.05,-40.66 1291.04,-38.31 1329.75,-36.03"/>
<polygon fill="black" stroke="black" stroke-width="0.5" points="1330.07,-37.76 1334.95,-35.72 1329.86,-34.27 1330.07,-37.76"/>
</g>
<!-- pyVHDLModel.SyntaxModel.DescendingRangeExpression -->
<g id="node3" class="node">
<title>pyVHDLModel.SyntaxModel.DescendingRangeExpression</title>
<polygon fill="none" stroke="black" stroke-width="0.5" points="1299,-19 1003,-19 1003,0 1299,0 1299,-19"/>
<text text-anchor="middle" x="1151" y="-7" font-family="Vera Sans, DejaVu Sans, Liberation Sans, Arial, Helvetica, sans" font-size="10.00">pyVHDLModel.SyntaxModel.DescendingRangeExpression</text>
</g>
<!-- pyVHDLModel.SyntaxModel.DescendingRangeExpression&#45;&gt;pyGHDL.dom.Expression.DescendingRangeExpression -->
<g id="edge1" class="edge">
<title>pyVHDLModel.SyntaxModel.DescendingRangeExpression&#45;&gt;pyGHDL.dom.Expression.DescendingRangeExpression</title>
<path fill="none" stroke="black" stroke-width="0.5" d="M1299.09,-17.71C1309.14,-18.27 1319.26,-18.84 1329.29,-19.4"/>
<polygon fill="black" stroke="black" stroke-width="0.5" points="1329.44,-21.16 1334.53,-19.69 1329.63,-17.66 1329.44,-21.16"/>
</g>
<!-- pyVHDLModel.ModelEntity -->
<g id="node4" class="node">
<title>pyVHDLModel.ModelEntity</title>
<g id="a_node4"><a xlink:title="``ModelEntity`` is the base class for all classes in the VHDL language model,">
<polygon fill="none" stroke="black" stroke-width="0.5" points="147,-19 0,-19 0,0 147,0 147,-19"/>
<text text-anchor="middle" x="73.5" y="-7" font-family="Vera Sans, DejaVu Sans, Liberation Sans, Arial, Helvetica, sans" font-size="10.00">pyVHDLModel.ModelEntity</text>
</a>
</g>
</g>
<!-- pyVHDLModel.SyntaxModel.BaseExpression -->
<g id="node5" class="node">
<title>pyVHDLModel.SyntaxModel.BaseExpression</title>
<g id="a_node5"><a xlink:title="A ``BaseExpression`` is a base&#45;class for all expressions.">
<polygon fill="none" stroke="black" stroke-width="0.5" points="416,-19 183,-19 183,0 416,0 416,-19"/>
<text text-anchor="middle" x="299.5" y="-7" font-family="Vera Sans, DejaVu Sans, Liberation Sans, Arial, Helvetica, sans" font-size="10.00">pyVHDLModel.SyntaxModel.BaseExpression</text>
</a>
</g>
</g>
<!-- pyVHDLModel.ModelEntity&#45;&gt;pyVHDLModel.SyntaxModel.BaseExpression -->
<g id="edge3" class="edge">
<title>pyVHDLModel.ModelEntity&#45;&gt;pyVHDLModel.SyntaxModel.BaseExpression</title>
<path fill="none" stroke="black" stroke-width="0.5" d="M147.23,-9.5C157,-9.5 167.22,-9.5 177.55,-9.5"/>
<polygon fill="black" stroke="black" stroke-width="0.5" points="177.63,-11.25 182.63,-9.5 177.63,-7.75 177.63,-11.25"/>
</g>
<!-- pyVHDLModel.SyntaxModel.BinaryExpression -->
<g id="node6" class="node">
<title>pyVHDLModel.SyntaxModel.BinaryExpression</title>
<g id="a_node6"><a xlink:title="A ``BinaryExpression`` is a base&#45;class for all binary expressions.">
<polygon fill="none" stroke="black" stroke-width="0.5" points="692,-19 452,-19 452,0 692,0 692,-19"/>
<text text-anchor="middle" x="572" y="-7" font-family="Vera Sans, DejaVu Sans, Liberation Sans, Arial, Helvetica, sans" font-size="10.00">pyVHDLModel.SyntaxModel.BinaryExpression</text>
</a>
</g>
</g>
<!-- pyVHDLModel.SyntaxModel.BaseExpression&#45;&gt;pyVHDLModel.SyntaxModel.BinaryExpression -->
<g id="edge4" class="edge">
<title>pyVHDLModel.SyntaxModel.BaseExpression&#45;&gt;pyVHDLModel.SyntaxModel.BinaryExpression</title>
<path fill="none" stroke="black" stroke-width="0.5" d="M416,-9.5C426.03,-9.5 436.2,-9.5 446.3,-9.5"/>
<polygon fill="black" stroke="black" stroke-width="0.5" points="446.57,-11.25 451.57,-9.5 446.57,-7.75 446.57,-11.25"/>
</g>
<!-- pyVHDLModel.SyntaxModel.RangeExpression -->
<g id="node7" class="node">
<title>pyVHDLModel.SyntaxModel.RangeExpression</title>
<polygon fill="none" stroke="black" stroke-width="0.5" points="967,-19 728,-19 728,0 967,0 967,-19"/>
<text text-anchor="middle" x="847.5" y="-7" font-family="Vera Sans, DejaVu Sans, Liberation Sans, Arial, Helvetica, sans" font-size="10.00">pyVHDLModel.SyntaxModel.RangeExpression</text>
</g>
<!-- pyVHDLModel.SyntaxModel.BinaryExpression&#45;&gt;pyVHDLModel.SyntaxModel.RangeExpression -->
<g id="edge6" class="edge">
<title>pyVHDLModel.SyntaxModel.BinaryExpression&#45;&gt;pyVHDLModel.SyntaxModel.RangeExpression</title>
<path fill="none" stroke="black" stroke-width="0.5" d="M692.17,-9.5C702.22,-9.5 712.4,-9.5 722.49,-9.5"/>
<polygon fill="black" stroke="black" stroke-width="0.5" points="722.75,-11.25 727.75,-9.5 722.75,-7.75 722.75,-11.25"/>
</g>
<!-- pyVHDLModel.SyntaxModel.RangeExpression&#45;&gt;pyVHDLModel.SyntaxModel.DescendingRangeExpression -->
<g id="edge5" class="edge">
<title>pyVHDLModel.SyntaxModel.RangeExpression&#45;&gt;pyVHDLModel.SyntaxModel.DescendingRangeExpression</title>
<path fill="none" stroke="black" stroke-width="0.5" d="M967.23,-9.5C977.28,-9.5 987.54,-9.5 997.8,-9.5"/>
<polygon fill="black" stroke="black" stroke-width="0.5" points="997.84,-11.25 1002.84,-9.5 997.84,-7.75 997.84,-11.25"/>
</g>
</g>
</svg>
