<?xml version="1.0" encoding="UTF-8" standalone="no"?>
<!DOCTYPE svg PUBLIC "-//W3C//DTD SVG 1.1//EN"
 "http://www.w3.org/Graphics/SVG/1.1/DTD/svg11.dtd">
<!-- Generated by graphviz version 2.43.0 (0)
 -->
<!-- Title: inheritance9feaec56e1 Pages: 1 -->
<svg width="576pt" height="33pt"
 viewBox="0.00 0.00 576.00 33.21" xmlns="http://www.w3.org/2000/svg" xmlns:xlink="http://www.w3.org/1999/xlink">
<g id="graph0" class="graph" transform="scale(1.93 1.93) rotate(0) translate(4 60)">
<title>inheritance9feaec56e1</title>
<polygon fill="white" stroke="transparent" points="-4,4 -4,-60 1106,-60 1106,4 -4,4"/>
<!-- pyGHDL.dom.DOMMixin -->
<g id="node1" class="node">
<title>pyGHDL.dom.DOMMixin</title>
<g id="a_node1"><a xlink:href="../pyGHDL.dom.html#pyGHDL.dom.DOMMixin" xlink:title="pyGHDL.dom.DOMMixin" target="_top">
<polygon fill="none" stroke="black" stroke-width="0.5" points="849,-56 714,-56 714,-37 849,-37 849,-56"/>
<text text-anchor="middle" x="781.5" y="-44" font-family="Vera Sans, DejaVu Sans, Liberation Sans, Arial, Helvetica, sans" font-size="10.00">pyGHDL.dom.DOMMixin</text>
</a>
</g>
</g>
<!-- pyGHDL.dom.Literal.StringLiteral -->
<g id="node2" class="node">
<title>pyGHDL.dom.Literal.StringLiteral</title>
<g id="a_node2"><a xlink:href="../pyGHDL/pyGHDL.dom.Literal.html#pyGHDL.dom.Literal.StringLiteral" xlink:title="pyGHDL.dom.Literal.StringLiteral" target="_top">
<polygon fill="none" stroke="black" stroke-width="0.5" points="1102,-37 925,-37 925,-18 1102,-18 1102,-37"/>
<text text-anchor="middle" x="1013.5" y="-25" font-family="Vera Sans, DejaVu Sans, Liberation Sans, Arial, Helvetica, sans" font-size="10.00">pyGHDL.dom.Literal.StringLiteral</text>
</a>
</g>
</g>
<!-- pyGHDL.dom.DOMMixin&#45;&gt;pyGHDL.dom.Literal.StringLiteral -->
<g id="edge2" class="edge">
<title>pyGHDL.dom.DOMMixin&#45;&gt;pyGHDL.dom.Literal.StringLiteral</title>
<path fill="none" stroke="black" stroke-width="0.5" d="M849.03,-41C871.07,-39.18 896.03,-37.12 919.68,-35.17"/>
<polygon fill="black" stroke="black" stroke-width="0.5" points="919.87,-36.91 924.71,-34.75 919.58,-33.42 919.87,-36.91"/>
</g>
<!-- pyVHDLModel.SyntaxModel.StringLiteral -->
<g id="node3" class="node">
<title>pyVHDLModel.SyntaxModel.StringLiteral</title>
<polygon fill="none" stroke="black" stroke-width="0.5" points="889,-19 674,-19 674,0 889,0 889,-19"/>
<text text-anchor="middle" x="781.5" y="-7" font-family="Vera Sans, DejaVu Sans, Liberation Sans, Arial, Helvetica, sans" font-size="10.00">pyVHDLModel.SyntaxModel.StringLiteral</text>
</g>
<!-- pyVHDLModel.SyntaxModel.StringLiteral&#45;&gt;pyGHDL.dom.Literal.StringLiteral -->
<g id="edge1" class="edge">
<title>pyVHDLModel.SyntaxModel.StringLiteral&#45;&gt;pyGHDL.dom.Literal.StringLiteral</title>
<path fill="none" stroke="black" stroke-width="0.5" d="M889.08,-17.84C899.29,-18.64 909.59,-19.45 919.65,-20.23"/>
<polygon fill="black" stroke="black" stroke-width="0.5" points="919.76,-22 924.88,-20.64 920.04,-18.51 919.76,-22"/>
</g>
<!-- pyVHDLModel.ModelEntity -->
<g id="node4" class="node">
<title>pyVHDLModel.ModelEntity</title>
<g id="a_node4"><a xlink:title="``ModelEntity`` is the base class for all classes in the VHDL language model,">
<polygon fill="none" stroke="black" stroke-width="0.5" points="147,-19 0,-19 0,0 147,0 147,-19"/>
<text text-anchor="middle" x="73.5" y="-7" font-family="Vera Sans, DejaVu Sans, Liberation Sans, Arial, Helvetica, sans" font-size="10.00">pyVHDLModel.ModelEntity</text>
</a>
</g>
</g>
<!-- pyVHDLModel.SyntaxModel.BaseExpression -->
<g id="node5" class="node">
<title>pyVHDLModel.SyntaxModel.BaseExpression</title>
<g id="a_node5"><a xlink:title="A ``BaseExpression`` is a base&#45;class for all expressions.">
<polygon fill="none" stroke="black" stroke-width="0.5" points="416,-19 183,-19 183,0 416,0 416,-19"/>
<text text-anchor="middle" x="299.5" y="-7" font-family="Vera Sans, DejaVu Sans, Liberation Sans, Arial, Helvetica, sans" font-size="10.00">pyVHDLModel.SyntaxModel.BaseExpression</text>
</a>
</g>
</g>
<!-- pyVHDLModel.ModelEntity&#45;&gt;pyVHDLModel.SyntaxModel.BaseExpression -->
<g id="edge3" class="edge">
<title>pyVHDLModel.ModelEntity&#45;&gt;pyVHDLModel.SyntaxModel.BaseExpression</title>
<path fill="none" stroke="black" stroke-width="0.5" d="M147.23,-9.5C157,-9.5 167.22,-9.5 177.55,-9.5"/>
<polygon fill="black" stroke="black" stroke-width="0.5" points="177.63,-11.25 182.63,-9.5 177.63,-7.75 177.63,-11.25"/>
</g>
<!-- pyVHDLModel.SyntaxModel.Literal -->
<g id="node6" class="node">
<title>pyVHDLModel.SyntaxModel.Literal</title>
<g id="a_node6"><a xlink:title="A ``Literal`` is a base&#45;class for all literals.">
<polygon fill="none" stroke="black" stroke-width="0.5" points="638,-19 452,-19 452,0 638,0 638,-19"/>
<text text-anchor="middle" x="545" y="-7" font-family="Vera Sans, DejaVu Sans, Liberation Sans, Arial, Helvetica, sans" font-size="10.00">pyVHDLModel.SyntaxModel.Literal</text>
</a>
</g>
</g>
<!-- pyVHDLModel.SyntaxModel.BaseExpression&#45;&gt;pyVHDLModel.SyntaxModel.Literal -->
<g id="edge4" class="edge">
<title>pyVHDLModel.SyntaxModel.BaseExpression&#45;&gt;pyVHDLModel.SyntaxModel.Literal</title>
<path fill="none" stroke="black" stroke-width="0.5" d="M416.19,-9.5C426.32,-9.5 436.52,-9.5 446.48,-9.5"/>
<polygon fill="black" stroke="black" stroke-width="0.5" points="446.67,-11.25 451.67,-9.5 446.67,-7.75 446.67,-11.25"/>
</g>
<!-- pyVHDLModel.SyntaxModel.Literal&#45;&gt;pyVHDLModel.SyntaxModel.StringLiteral -->
<g id="edge5" class="edge">
<title>pyVHDLModel.SyntaxModel.Literal&#45;&gt;pyVHDLModel.SyntaxModel.StringLiteral</title>
<path fill="none" stroke="black" stroke-width="0.5" d="M638.01,-9.5C648.15,-9.5 658.56,-9.5 668.91,-9.5"/>
<polygon fill="black" stroke="black" stroke-width="0.5" points="668.99,-11.25 673.99,-9.5 668.99,-7.75 668.99,-11.25"/>
</g>
</g>
</svg>
