<?xml version="1.0" encoding="UTF-8" standalone="no"?>
<!DOCTYPE svg PUBLIC "-//W3C//DTD SVG 1.1//EN"
 "http://www.w3.org/Graphics/SVG/1.1/DTD/svg11.dtd">
<!-- Generated by graphviz version 2.43.0 (0)
 -->
<!-- Title: inheritanceea6b871de0 Pages: 1 -->
<svg width="576pt" height="52pt"
 viewBox="0.00 0.00 576.00 51.70" xmlns="http://www.w3.org/2000/svg" xmlns:xlink="http://www.w3.org/1999/xlink">
<g id="graph0" class="graph" transform="scale(1.24 1.24) rotate(0) translate(4 60)">
<title>inheritanceea6b871de0</title>
<polygon fill="white" stroke="transparent" points="-4,4 -4,-60 709,-60 709,4 -4,4"/>
<!-- pyGHDL.dom.DOMMixin -->
<g id="node1" class="node">
<title>pyGHDL.dom.DOMMixin</title>
<g id="a_node1"><a xlink:href="../pyGHDL.dom.html#pyGHDL.dom.DOMMixin" xlink:title="pyGHDL.dom.DOMMixin" target="_top">
<polygon fill="none" stroke="black" stroke-width="0.5" points="409,-56 274,-56 274,-37 409,-37 409,-56"/>
<text text-anchor="middle" x="341.5" y="-44" font-family="Vera Sans, DejaVu Sans, Liberation Sans, Arial, Helvetica, sans" font-size="10.00">pyGHDL.dom.DOMMixin</text>
</a>
</g>
</g>
<!-- pyGHDL.dom.Names.ParenthesisName -->
<g id="node2" class="node">
<title>pyGHDL.dom.Names.ParenthesisName</title>
<g id="a_node2"><a xlink:href="../pyGHDL/pyGHDL.dom.Names.html#pyGHDL.dom.Names.ParenthesisName" xlink:title="pyGHDL.dom.Names.ParenthesisName" target="_top">
<polygon fill="none" stroke="black" stroke-width="0.5" points="705,-37 498,-37 498,-18 705,-18 705,-37"/>
<text text-anchor="middle" x="601.5" y="-25" font-family="Vera Sans, DejaVu Sans, Liberation Sans, Arial, Helvetica, sans" font-size="10.00">pyGHDL.dom.Names.ParenthesisName</text>
</a>
</g>
</g>
<!-- pyGHDL.dom.DOMMixin&#45;&gt;pyGHDL.dom.Names.ParenthesisName -->
<g id="edge2" class="edge">
<title>pyGHDL.dom.DOMMixin&#45;&gt;pyGHDL.dom.Names.ParenthesisName</title>
<path fill="none" stroke="black" stroke-width="0.5" d="M409.28,-41.58C434.72,-39.71 464.4,-37.52 492.69,-35.44"/>
<polygon fill="black" stroke="black" stroke-width="0.5" points="493.1,-37.16 497.96,-35.05 492.84,-33.67 493.1,-37.16"/>
</g>
<!-- pyVHDLModel.SyntaxModel.ParenthesisName -->
<g id="node3" class="node">
<title>pyVHDLModel.SyntaxModel.ParenthesisName</title>
<polygon fill="none" stroke="black" stroke-width="0.5" points="462,-19 221,-19 221,0 462,0 462,-19"/>
<text text-anchor="middle" x="341.5" y="-7" font-family="Vera Sans, DejaVu Sans, Liberation Sans, Arial, Helvetica, sans" font-size="10.00">pyVHDLModel.SyntaxModel.ParenthesisName</text>
</g>
<!-- pyVHDLModel.SyntaxModel.ParenthesisName&#45;&gt;pyGHDL.dom.Names.ParenthesisName -->
<g id="edge1" class="edge">
<title>pyVHDLModel.SyntaxModel.ParenthesisName&#45;&gt;pyGHDL.dom.Names.ParenthesisName</title>
<path fill="none" stroke="black" stroke-width="0.5" d="M462.06,-17.84C472.37,-18.56 482.76,-19.29 492.96,-20"/>
<polygon fill="black" stroke="black" stroke-width="0.5" points="492.84,-21.74 497.95,-20.35 493.09,-18.25 492.84,-21.74"/>
</g>
<!-- pyVHDLModel.SyntaxModel.Name -->
<g id="node4" class="node">
<title>pyVHDLModel.SyntaxModel.Name</title>
<g id="a_node4"><a xlink:title="``Name`` is the base class for all *names* in the VHDL language model.">
<polygon fill="none" stroke="black" stroke-width="0.5" points="185,-19 0,-19 0,0 185,0 185,-19"/>
<text text-anchor="middle" x="92.5" y="-7" font-family="Vera Sans, DejaVu Sans, Liberation Sans, Arial, Helvetica, sans" font-size="10.00">pyVHDLModel.SyntaxModel.Name</text>
</a>
</g>
</g>
<!-- pyVHDLModel.SyntaxModel.Name&#45;&gt;pyVHDLModel.SyntaxModel.ParenthesisName -->
<g id="edge3" class="edge">
<title>pyVHDLModel.SyntaxModel.Name&#45;&gt;pyVHDLModel.SyntaxModel.ParenthesisName</title>
<path fill="none" stroke="black" stroke-width="0.5" d="M185.12,-9.5C195.15,-9.5 205.48,-9.5 215.82,-9.5"/>
<polygon fill="black" stroke="black" stroke-width="0.5" points="215.9,-11.25 220.9,-9.5 215.9,-7.75 215.9,-11.25"/>
</g>
</g>
</svg>
