<?xml version="1.0" encoding="UTF-8" standalone="no"?>
<!DOCTYPE svg PUBLIC "-//W3C//DTD SVG 1.1//EN"
 "http://www.w3.org/Graphics/SVG/1.1/DTD/svg11.dtd">
<!-- Generated by graphviz version 2.43.0 (0)
 -->
<!-- Title: inheritanced17c57cb45 Pages: 1 -->
<svg width="576pt" height="41pt"
 viewBox="0.00 0.00 576.00 41.28" xmlns="http://www.w3.org/2000/svg" xmlns:xlink="http://www.w3.org/1999/xlink">
<g id="graph0" class="graph" transform="scale(1.55 1.55) rotate(0) translate(4 60)">
<title>inheritanced17c57cb45</title>
<polygon fill="white" stroke="transparent" points="-4,4 -4,-60 889,-60 889,4 -4,4"/>
<!-- pyGHDL.dom.DOMMixin -->
<g id="node1" class="node">
<title>pyGHDL.dom.DOMMixin</title>
<g id="a_node1"><a xlink:href="../pyGHDL.dom.html#pyGHDL.dom.DOMMixin" xlink:title="pyGHDL.dom.DOMMixin" target="_top">
<polygon fill="none" stroke="black" stroke-width="0.5" points="622.5,-56 487.5,-56 487.5,-37 622.5,-37 622.5,-56"/>
<text text-anchor="middle" x="555" y="-44" font-family="Vera Sans, DejaVu Sans, Liberation Sans, Arial, Helvetica, sans" font-size="10.00">pyGHDL.dom.DOMMixin</text>
</a>
</g>
</g>
<!-- pyGHDL.dom.Expression.Aggregate -->
<g id="node2" class="node">
<title>pyGHDL.dom.Expression.Aggregate</title>
<g id="a_node2"><a xlink:href="../pyGHDL/pyGHDL.dom.Expression.html#pyGHDL.dom.Expression.Aggregate" xlink:title="pyGHDL.dom.Expression.Aggregate" target="_top">
<polygon fill="none" stroke="black" stroke-width="0.5" points="885,-37 694,-37 694,-18 885,-18 885,-37"/>
<text text-anchor="middle" x="789.5" y="-25" font-family="Vera Sans, DejaVu Sans, Liberation Sans, Arial, Helvetica, sans" font-size="10.00">pyGHDL.dom.Expression.Aggregate</text>
</a>
</g>
</g>
<!-- pyGHDL.dom.DOMMixin&#45;&gt;pyGHDL.dom.Expression.Aggregate -->
<g id="edge2" class="edge">
<title>pyGHDL.dom.DOMMixin&#45;&gt;pyGHDL.dom.Expression.Aggregate</title>
<path fill="none" stroke="black" stroke-width="0.5" d="M622.63,-41.06C643.21,-39.37 666.35,-37.48 688.66,-35.66"/>
<polygon fill="black" stroke="black" stroke-width="0.5" points="688.87,-37.4 693.71,-35.25 688.59,-33.91 688.87,-37.4"/>
</g>
<!-- pyVHDLModel.SyntaxModel.Aggregate -->
<g id="node3" class="node">
<title>pyVHDLModel.SyntaxModel.Aggregate</title>
<polygon fill="none" stroke="black" stroke-width="0.5" points="658,-19 452,-19 452,0 658,0 658,-19"/>
<text text-anchor="middle" x="555" y="-7" font-family="Vera Sans, DejaVu Sans, Liberation Sans, Arial, Helvetica, sans" font-size="10.00">pyVHDLModel.SyntaxModel.Aggregate</text>
</g>
<!-- pyVHDLModel.SyntaxModel.Aggregate&#45;&gt;pyGHDL.dom.Expression.Aggregate -->
<g id="edge1" class="edge">
<title>pyVHDLModel.SyntaxModel.Aggregate&#45;&gt;pyGHDL.dom.Expression.Aggregate</title>
<path fill="none" stroke="black" stroke-width="0.5" d="M658.32,-17.42C668.38,-18.2 678.58,-18.99 688.62,-19.77"/>
<polygon fill="black" stroke="black" stroke-width="0.5" points="688.74,-21.53 693.86,-20.17 689.01,-18.04 688.74,-21.53"/>
</g>
<!-- pyVHDLModel.ModelEntity -->
<g id="node4" class="node">
<title>pyVHDLModel.ModelEntity</title>
<g id="a_node4"><a xlink:title="``ModelEntity`` is the base class for all classes in the VHDL language model,">
<polygon fill="none" stroke="black" stroke-width="0.5" points="147,-19 0,-19 0,0 147,0 147,-19"/>
<text text-anchor="middle" x="73.5" y="-7" font-family="Vera Sans, DejaVu Sans, Liberation Sans, Arial, Helvetica, sans" font-size="10.00">pyVHDLModel.ModelEntity</text>
</a>
</g>
</g>
<!-- pyVHDLModel.SyntaxModel.BaseExpression -->
<g id="node5" class="node">
<title>pyVHDLModel.SyntaxModel.BaseExpression</title>
<g id="a_node5"><a xlink:title="A ``BaseExpression`` is a base&#45;class for all expressions.">
<polygon fill="none" stroke="black" stroke-width="0.5" points="416,-19 183,-19 183,0 416,0 416,-19"/>
<text text-anchor="middle" x="299.5" y="-7" font-family="Vera Sans, DejaVu Sans, Liberation Sans, Arial, Helvetica, sans" font-size="10.00">pyVHDLModel.SyntaxModel.BaseExpression</text>
</a>
</g>
</g>
<!-- pyVHDLModel.ModelEntity&#45;&gt;pyVHDLModel.SyntaxModel.BaseExpression -->
<g id="edge4" class="edge">
<title>pyVHDLModel.ModelEntity&#45;&gt;pyVHDLModel.SyntaxModel.BaseExpression</title>
<path fill="none" stroke="black" stroke-width="0.5" d="M147.23,-9.5C157,-9.5 167.22,-9.5 177.55,-9.5"/>
<polygon fill="black" stroke="black" stroke-width="0.5" points="177.63,-11.25 182.63,-9.5 177.63,-7.75 177.63,-11.25"/>
</g>
<!-- pyVHDLModel.SyntaxModel.BaseExpression&#45;&gt;pyVHDLModel.SyntaxModel.Aggregate -->
<g id="edge3" class="edge">
<title>pyVHDLModel.SyntaxModel.BaseExpression&#45;&gt;pyVHDLModel.SyntaxModel.Aggregate</title>
<path fill="none" stroke="black" stroke-width="0.5" d="M416.12,-9.5C426.24,-9.5 436.46,-9.5 446.51,-9.5"/>
<polygon fill="black" stroke="black" stroke-width="0.5" points="446.74,-11.25 451.74,-9.5 446.74,-7.75 446.74,-11.25"/>
</g>
</g>
</svg>
