<?xml version="1.0" encoding="UTF-8" standalone="no"?>
<!DOCTYPE svg PUBLIC "-//W3C//DTD SVG 1.1//EN"
 "http://www.w3.org/Graphics/SVG/1.1/DTD/svg11.dtd">
<!-- Generated by graphviz version 2.43.0 (0)
 -->
<!-- Title: inheritancefefad20e1c Pages: 1 -->
<svg width="576pt" height="40pt"
 viewBox="0.00 0.00 576.00 40.47" xmlns="http://www.w3.org/2000/svg" xmlns:xlink="http://www.w3.org/1999/xlink">
<g id="graph0" class="graph" transform="scale(1.58 1.58) rotate(0) translate(4 60)">
<title>inheritancefefad20e1c</title>
<polygon fill="white" stroke="transparent" points="-4,4 -4,-60 907,-60 907,4 -4,4"/>
<!-- pyGHDL.dom.DOMMixin -->
<g id="node1" class="node">
<title>pyGHDL.dom.DOMMixin</title>
<g id="a_node1"><a xlink:href="../pyGHDL.dom.html#pyGHDL.dom.DOMMixin" xlink:title="pyGHDL.dom.DOMMixin" target="_top">
<polygon fill="none" stroke="black" stroke-width="0.5" points="627,-56 492,-56 492,-37 627,-37 627,-56"/>
<text text-anchor="middle" x="559.5" y="-44" font-family="Vera Sans, DejaVu Sans, Liberation Sans, Arial, Helvetica, sans" font-size="10.00">pyGHDL.dom.DOMMixin</text>
</a>
</g>
</g>
<!-- pyGHDL.dom.Expression.FunctionCall -->
<g id="node2" class="node">
<title>pyGHDL.dom.Expression.FunctionCall</title>
<g id="a_node2"><a xlink:href="../pyGHDL/pyGHDL.dom.Expression.html#pyGHDL.dom.Expression.FunctionCall" xlink:title="pyGHDL.dom.Expression.FunctionCall" target="_top">
<polygon fill="none" stroke="black" stroke-width="0.5" points="903,-37 703,-37 703,-18 903,-18 903,-37"/>
<text text-anchor="middle" x="803" y="-25" font-family="Vera Sans, DejaVu Sans, Liberation Sans, Arial, Helvetica, sans" font-size="10.00">pyGHDL.dom.Expression.FunctionCall</text>
</a>
</g>
</g>
<!-- pyGHDL.dom.DOMMixin&#45;&gt;pyGHDL.dom.Expression.FunctionCall -->
<g id="edge2" class="edge">
<title>pyGHDL.dom.DOMMixin&#45;&gt;pyGHDL.dom.Expression.FunctionCall</title>
<path fill="none" stroke="black" stroke-width="0.5" d="M627.13,-41.26C648.9,-39.55 673.62,-37.6 697.49,-35.72"/>
<polygon fill="black" stroke="black" stroke-width="0.5" points="697.72,-37.46 702.57,-35.32 697.44,-33.97 697.72,-37.46"/>
</g>
<!-- pyVHDLModel.SyntaxModel.FunctionCall -->
<g id="node3" class="node">
<title>pyVHDLModel.SyntaxModel.FunctionCall</title>
<polygon fill="none" stroke="black" stroke-width="0.5" points="667,-19 452,-19 452,0 667,0 667,-19"/>
<text text-anchor="middle" x="559.5" y="-7" font-family="Vera Sans, DejaVu Sans, Liberation Sans, Arial, Helvetica, sans" font-size="10.00">pyVHDLModel.SyntaxModel.FunctionCall</text>
</g>
<!-- pyVHDLModel.SyntaxModel.FunctionCall&#45;&gt;pyGHDL.dom.Expression.FunctionCall -->
<g id="edge1" class="edge">
<title>pyVHDLModel.SyntaxModel.FunctionCall&#45;&gt;pyGHDL.dom.Expression.FunctionCall</title>
<path fill="none" stroke="black" stroke-width="0.5" d="M667.13,-17.45C677.24,-18.2 687.49,-18.97 697.58,-19.72"/>
<polygon fill="black" stroke="black" stroke-width="0.5" points="697.73,-21.48 702.85,-20.11 697.99,-17.99 697.73,-21.48"/>
</g>
<!-- pyVHDLModel.ModelEntity -->
<g id="node4" class="node">
<title>pyVHDLModel.ModelEntity</title>
<g id="a_node4"><a xlink:title="``ModelEntity`` is the base class for all classes in the VHDL language model,">
<polygon fill="none" stroke="black" stroke-width="0.5" points="147,-19 0,-19 0,0 147,0 147,-19"/>
<text text-anchor="middle" x="73.5" y="-7" font-family="Vera Sans, DejaVu Sans, Liberation Sans, Arial, Helvetica, sans" font-size="10.00">pyVHDLModel.ModelEntity</text>
</a>
</g>
</g>
<!-- pyVHDLModel.SyntaxModel.BaseExpression -->
<g id="node5" class="node">
<title>pyVHDLModel.SyntaxModel.BaseExpression</title>
<g id="a_node5"><a xlink:title="A ``BaseExpression`` is a base&#45;class for all expressions.">
<polygon fill="none" stroke="black" stroke-width="0.5" points="416,-19 183,-19 183,0 416,0 416,-19"/>
<text text-anchor="middle" x="299.5" y="-7" font-family="Vera Sans, DejaVu Sans, Liberation Sans, Arial, Helvetica, sans" font-size="10.00">pyVHDLModel.SyntaxModel.BaseExpression</text>
</a>
</g>
</g>
<!-- pyVHDLModel.ModelEntity&#45;&gt;pyVHDLModel.SyntaxModel.BaseExpression -->
<g id="edge3" class="edge">
<title>pyVHDLModel.ModelEntity&#45;&gt;pyVHDLModel.SyntaxModel.BaseExpression</title>
<path fill="none" stroke="black" stroke-width="0.5" d="M147.23,-9.5C157,-9.5 167.22,-9.5 177.55,-9.5"/>
<polygon fill="black" stroke="black" stroke-width="0.5" points="177.63,-11.25 182.63,-9.5 177.63,-7.75 177.63,-11.25"/>
</g>
<!-- pyVHDLModel.SyntaxModel.BaseExpression&#45;&gt;pyVHDLModel.SyntaxModel.FunctionCall -->
<g id="edge4" class="edge">
<title>pyVHDLModel.SyntaxModel.BaseExpression&#45;&gt;pyVHDLModel.SyntaxModel.FunctionCall</title>
<path fill="none" stroke="black" stroke-width="0.5" d="M416.29,-9.5C426.33,-9.5 436.48,-9.5 446.49,-9.5"/>
<polygon fill="black" stroke="black" stroke-width="0.5" points="446.71,-11.25 451.7,-9.5 446.7,-7.75 446.71,-11.25"/>
</g>
</g>
</svg>
