<?xml version="1.0" encoding="UTF-8" standalone="no"?>
<!DOCTYPE svg PUBLIC "-//W3C//DTD SVG 1.1//EN"
 "http://www.w3.org/Graphics/SVG/1.1/DTD/svg11.dtd">
<!-- Generated by graphviz version 2.43.0 (0)
 -->
<!-- Title: inheritancec3a765d4f1 Pages: 1 -->
<svg width="576pt" height="41pt"
 viewBox="0.00 0.00 576.00 41.20" xmlns="http://www.w3.org/2000/svg" xmlns:xlink="http://www.w3.org/1999/xlink">
<g id="graph0" class="graph" transform="scale(2.43 2.43) rotate(0) translate(4 96)">
<title>inheritancec3a765d4f1</title>
<polygon fill="white" stroke="transparent" points="-4,4 -4,-96 1394,-96 1394,4 -4,4"/>
<!-- pyGHDL.dom.DOMMixin -->
<g id="node1" class="node">
<title>pyGHDL.dom.DOMMixin</title>
<g id="a_node1"><a xlink:href="../pyGHDL.dom.html#pyGHDL.dom.DOMMixin" xlink:title="pyGHDL.dom.DOMMixin" target="_top">
<polygon fill="none" stroke="black" stroke-width="0.5" points="1005,-92 870,-92 870,-73 1005,-73 1005,-92"/>
<text text-anchor="middle" x="937.5" y="-80" font-family="Vera Sans, DejaVu Sans, Liberation Sans, Arial, Helvetica, sans" font-size="10.00">pyGHDL.dom.DOMMixin</text>
</a>
</g>
</g>
<!-- pyGHDL.dom.Sequential.SequentialAssertStatement -->
<g id="node2" class="node">
<title>pyGHDL.dom.Sequential.SequentialAssertStatement</title>
<g id="a_node2"><a xlink:href="../pyGHDL/pyGHDL.dom.Sequential.html#pyGHDL.dom.Sequential.SequentialAssertStatement" xlink:title="pyGHDL.dom.Sequential.SequentialAssertStatement" target="_top">
<polygon fill="none" stroke="black" stroke-width="0.5" points="1390,-73 1118,-73 1118,-54 1390,-54 1390,-73"/>
<text text-anchor="middle" x="1254" y="-61" font-family="Vera Sans, DejaVu Sans, Liberation Sans, Arial, Helvetica, sans" font-size="10.00">pyGHDL.dom.Sequential.SequentialAssertStatement</text>
</a>
</g>
</g>
<!-- pyGHDL.dom.DOMMixin&#45;&gt;pyGHDL.dom.Sequential.SequentialAssertStatement -->
<g id="edge2" class="edge">
<title>pyGHDL.dom.DOMMixin&#45;&gt;pyGHDL.dom.Sequential.SequentialAssertStatement</title>
<path fill="none" stroke="black" stroke-width="0.5" d="M1005.2,-78.47C1036.6,-76.57 1075.32,-74.23 1112.74,-71.97"/>
<polygon fill="black" stroke="black" stroke-width="0.5" points="1112.88,-73.72 1117.77,-71.67 1112.67,-70.22 1112.88,-73.72"/>
</g>
<!-- pyVHDLModel.SyntaxModel.SequentialAssertStatement -->
<g id="node3" class="node">
<title>pyVHDLModel.SyntaxModel.SequentialAssertStatement</title>
<polygon fill="none" stroke="black" stroke-width="0.5" points="1082,-55 793,-55 793,-36 1082,-36 1082,-55"/>
<text text-anchor="middle" x="937.5" y="-43" font-family="Vera Sans, DejaVu Sans, Liberation Sans, Arial, Helvetica, sans" font-size="10.00">pyVHDLModel.SyntaxModel.SequentialAssertStatement</text>
</g>
<!-- pyVHDLModel.SyntaxModel.SequentialAssertStatement&#45;&gt;pyGHDL.dom.Sequential.SequentialAssertStatement -->
<g id="edge1" class="edge">
<title>pyVHDLModel.SyntaxModel.SequentialAssertStatement&#45;&gt;pyGHDL.dom.Sequential.SequentialAssertStatement</title>
<path fill="none" stroke="black" stroke-width="0.5" d="M1082.4,-53.74C1092.46,-54.31 1102.59,-54.89 1112.62,-55.47"/>
<polygon fill="black" stroke="black" stroke-width="0.5" points="1112.77,-57.23 1117.86,-55.77 1112.97,-53.73 1112.77,-57.23"/>
</g>
<!-- pyVHDLModel.LabeledEntity -->
<g id="node4" class="node">
<title>pyVHDLModel.LabeledEntity</title>
<g id="a_node4"><a xlink:title="A ``LabeledEntity`` is a mixin class for all VHDL entities that can have">
<polygon fill="none" stroke="black" stroke-width="0.5" points="155,-56 0,-56 0,-37 155,-37 155,-56"/>
<text text-anchor="middle" x="77.5" y="-44" font-family="Vera Sans, DejaVu Sans, Liberation Sans, Arial, Helvetica, sans" font-size="10.00">pyVHDLModel.LabeledEntity</text>
</a>
</g>
</g>
<!-- pyVHDLModel.SyntaxModel.Statement -->
<g id="node9" class="node">
<title>pyVHDLModel.SyntaxModel.Statement</title>
<polygon fill="none" stroke="black" stroke-width="0.5" points="427,-37 221,-37 221,-18 427,-18 427,-37"/>
<text text-anchor="middle" x="324" y="-25" font-family="Vera Sans, DejaVu Sans, Liberation Sans, Arial, Helvetica, sans" font-size="10.00">pyVHDLModel.SyntaxModel.Statement</text>
</g>
<!-- pyVHDLModel.LabeledEntity&#45;&gt;pyVHDLModel.SyntaxModel.Statement -->
<g id="edge8" class="edge">
<title>pyVHDLModel.LabeledEntity&#45;&gt;pyVHDLModel.SyntaxModel.Statement</title>
<path fill="none" stroke="black" stroke-width="0.5" d="M155.19,-40.54C174.3,-39.06 195.14,-37.44 215.43,-35.86"/>
<polygon fill="black" stroke="black" stroke-width="0.5" points="215.73,-37.59 220.58,-35.46 215.46,-34.1 215.73,-37.59"/>
</g>
<!-- pyVHDLModel.ModelEntity -->
<g id="node5" class="node">
<title>pyVHDLModel.ModelEntity</title>
<g id="a_node5"><a xlink:title="``ModelEntity`` is the base class for all classes in the VHDL language model,">
<polygon fill="none" stroke="black" stroke-width="0.5" points="151,-19 4,-19 4,0 151,0 151,-19"/>
<text text-anchor="middle" x="77.5" y="-7" font-family="Vera Sans, DejaVu Sans, Liberation Sans, Arial, Helvetica, sans" font-size="10.00">pyVHDLModel.ModelEntity</text>
</a>
</g>
</g>
<!-- pyVHDLModel.ModelEntity&#45;&gt;pyVHDLModel.SyntaxModel.Statement -->
<g id="edge7" class="edge">
<title>pyVHDLModel.ModelEntity&#45;&gt;pyVHDLModel.SyntaxModel.Statement</title>
<path fill="none" stroke="black" stroke-width="0.5" d="M151.2,-14.85C171.4,-16.34 193.77,-17.99 215.51,-19.59"/>
<polygon fill="black" stroke="black" stroke-width="0.5" points="215.61,-21.35 220.72,-19.97 215.86,-17.86 215.61,-21.35"/>
</g>
<!-- pyVHDLModel.SyntaxModel.MixinAssertStatement -->
<g id="node6" class="node">
<title>pyVHDLModel.SyntaxModel.MixinAssertStatement</title>
<g id="a_node6"><a xlink:title="A ``MixinAssertStatement`` is a mixin&#45;class for all assert statements.">
<polygon fill="none" stroke="black" stroke-width="0.5" points="757,-74 493,-74 493,-55 757,-55 757,-74"/>
<text text-anchor="middle" x="625" y="-62" font-family="Vera Sans, DejaVu Sans, Liberation Sans, Arial, Helvetica, sans" font-size="10.00">pyVHDLModel.SyntaxModel.MixinAssertStatement</text>
</a>
</g>
</g>
<!-- pyVHDLModel.SyntaxModel.MixinAssertStatement&#45;&gt;pyVHDLModel.SyntaxModel.SequentialAssertStatement -->
<g id="edge5" class="edge">
<title>pyVHDLModel.SyntaxModel.MixinAssertStatement&#45;&gt;pyVHDLModel.SyntaxModel.SequentialAssertStatement</title>
<path fill="none" stroke="black" stroke-width="0.5" d="M757.23,-56.47C767.33,-55.85 777.57,-55.23 787.77,-54.6"/>
<polygon fill="black" stroke="black" stroke-width="0.5" points="787.89,-56.35 792.77,-54.3 787.67,-52.85 787.89,-56.35"/>
</g>
<!-- pyVHDLModel.SyntaxModel.MixinReportStatement -->
<g id="node7" class="node">
<title>pyVHDLModel.SyntaxModel.MixinReportStatement</title>
<g id="a_node7"><a xlink:title="A ``MixinReportStatement`` is a mixin&#45;class for all report and assert statements.">
<polygon fill="none" stroke="black" stroke-width="0.5" points="457,-74 191,-74 191,-55 457,-55 457,-74"/>
<text text-anchor="middle" x="324" y="-62" font-family="Vera Sans, DejaVu Sans, Liberation Sans, Arial, Helvetica, sans" font-size="10.00">pyVHDLModel.SyntaxModel.MixinReportStatement</text>
</a>
</g>
</g>
<!-- pyVHDLModel.SyntaxModel.MixinReportStatement&#45;&gt;pyVHDLModel.SyntaxModel.MixinAssertStatement -->
<g id="edge3" class="edge">
<title>pyVHDLModel.SyntaxModel.MixinReportStatement&#45;&gt;pyVHDLModel.SyntaxModel.MixinAssertStatement</title>
<path fill="none" stroke="black" stroke-width="0.5" d="M457.02,-64.5C467.23,-64.5 477.56,-64.5 487.81,-64.5"/>
<polygon fill="black" stroke="black" stroke-width="0.5" points="487.83,-66.25 492.83,-64.5 487.83,-62.75 487.83,-66.25"/>
</g>
<!-- pyVHDLModel.SyntaxModel.SequentialStatement -->
<g id="node8" class="node">
<title>pyVHDLModel.SyntaxModel.SequentialStatement</title>
<g id="a_node8"><a xlink:title="A ``SequentialStatement`` is a base&#45;class for all sequential statements.">
<polygon fill="none" stroke="black" stroke-width="0.5" points="754,-37 496,-37 496,-18 754,-18 754,-37"/>
<text text-anchor="middle" x="625" y="-25" font-family="Vera Sans, DejaVu Sans, Liberation Sans, Arial, Helvetica, sans" font-size="10.00">pyVHDLModel.SyntaxModel.SequentialStatement</text>
</a>
</g>
</g>
<!-- pyVHDLModel.SyntaxModel.SequentialStatement&#45;&gt;pyVHDLModel.SyntaxModel.SequentialAssertStatement -->
<g id="edge4" class="edge">
<title>pyVHDLModel.SyntaxModel.SequentialStatement&#45;&gt;pyVHDLModel.SyntaxModel.SequentialAssertStatement</title>
<path fill="none" stroke="black" stroke-width="0.5" d="M754.08,-34.93C765.17,-35.57 776.44,-36.22 787.67,-36.87"/>
<polygon fill="black" stroke="black" stroke-width="0.5" points="787.73,-38.63 792.82,-37.17 787.93,-35.13 787.73,-38.63"/>
</g>
<!-- pyVHDLModel.SyntaxModel.Statement&#45;&gt;pyVHDLModel.SyntaxModel.SequentialStatement -->
<g id="edge6" class="edge">
<title>pyVHDLModel.SyntaxModel.Statement&#45;&gt;pyVHDLModel.SyntaxModel.SequentialStatement</title>
<path fill="none" stroke="black" stroke-width="0.5" d="M427.06,-27.5C447.58,-27.5 469.43,-27.5 490.82,-27.5"/>
<polygon fill="black" stroke="black" stroke-width="0.5" points="490.96,-29.25 495.96,-27.5 490.96,-25.75 490.96,-29.25"/>
</g>
</g>
</svg>
