<?xml version="1.0" encoding="UTF-8" standalone="no"?>
<!DOCTYPE svg PUBLIC "-//W3C//DTD SVG 1.1//EN"
 "http://www.w3.org/Graphics/SVG/1.1/DTD/svg11.dtd">
<!-- Generated by graphviz version 2.43.0 (0)
 -->
<!-- Title: inheritance76d868bf9a Pages: 1 -->
<svg width="576pt" height="21pt"
 viewBox="0.00 0.00 576.00 21.32" xmlns="http://www.w3.org/2000/svg" xmlns:xlink="http://www.w3.org/1999/xlink">
<g id="graph0" class="graph" transform="scale(3 3) rotate(0) translate(4 60)">
<title>inheritance76d868bf9a</title>
<polygon fill="white" stroke="transparent" points="-4,4 -4,-60 1725,-60 1725,4 -4,4"/>
<!-- pyGHDL.dom.DOMMixin -->
<g id="node1" class="node">
<title>pyGHDL.dom.DOMMixin</title>
<g id="a_node1"><a xlink:href="../pyGHDL.dom.html#pyGHDL.dom.DOMMixin" xlink:title="pyGHDL.dom.DOMMixin" target="_top">
<polygon fill="none" stroke="black" stroke-width="0.5" points="1398,-56 1263,-56 1263,-37 1398,-37 1398,-56"/>
<text text-anchor="middle" x="1330.5" y="-44" font-family="Vera Sans, DejaVu Sans, Liberation Sans, Arial, Helvetica, sans" font-size="10.00">pyGHDL.dom.DOMMixin</text>
</a>
</g>
</g>
<!-- pyGHDL.dom.Literal.PhysicalIntegerLiteral -->
<g id="node2" class="node">
<title>pyGHDL.dom.Literal.PhysicalIntegerLiteral</title>
<g id="a_node2"><a xlink:href="../pyGHDL/pyGHDL.dom.Literal.html#pyGHDL.dom.Literal.PhysicalIntegerLiteral" xlink:title="pyGHDL.dom.Literal.PhysicalIntegerLiteral" target="_top">
<polygon fill="none" stroke="black" stroke-width="0.5" points="1721,-37 1497,-37 1497,-18 1721,-18 1721,-37"/>
<text text-anchor="middle" x="1609" y="-25" font-family="Vera Sans, DejaVu Sans, Liberation Sans, Arial, Helvetica, sans" font-size="10.00">pyGHDL.dom.Literal.PhysicalIntegerLiteral</text>
</a>
</g>
</g>
<!-- pyGHDL.dom.DOMMixin&#45;&gt;pyGHDL.dom.Literal.PhysicalIntegerLiteral -->
<g id="edge2" class="edge">
<title>pyGHDL.dom.DOMMixin&#45;&gt;pyGHDL.dom.Literal.PhysicalIntegerLiteral</title>
<path fill="none" stroke="black" stroke-width="0.5" d="M1398.08,-41.92C1426.22,-39.99 1459.83,-37.68 1491.82,-35.48"/>
<polygon fill="black" stroke="black" stroke-width="0.5" points="1492.07,-37.22 1496.94,-35.13 1491.83,-33.73 1492.07,-37.22"/>
</g>
<!-- pyVHDLModel.SyntaxModel.PhysicalIntegerLiteral -->
<g id="node3" class="node">
<title>pyVHDLModel.SyntaxModel.PhysicalIntegerLiteral</title>
<polygon fill="none" stroke="black" stroke-width="0.5" points="1461,-19 1200,-19 1200,0 1461,0 1461,-19"/>
<text text-anchor="middle" x="1330.5" y="-7" font-family="Vera Sans, DejaVu Sans, Liberation Sans, Arial, Helvetica, sans" font-size="10.00">pyVHDLModel.SyntaxModel.PhysicalIntegerLiteral</text>
</g>
<!-- pyVHDLModel.SyntaxModel.PhysicalIntegerLiteral&#45;&gt;pyGHDL.dom.Literal.PhysicalIntegerLiteral -->
<g id="edge1" class="edge">
<title>pyVHDLModel.SyntaxModel.PhysicalIntegerLiteral&#45;&gt;pyGHDL.dom.Literal.PhysicalIntegerLiteral</title>
<path fill="none" stroke="black" stroke-width="0.5" d="M1461.25,-17.95C1471.41,-18.61 1481.62,-19.27 1491.68,-19.93"/>
<polygon fill="black" stroke="black" stroke-width="0.5" points="1491.82,-21.69 1496.93,-20.27 1492.05,-18.2 1491.82,-21.69"/>
</g>
<!-- pyVHDLModel.ModelEntity -->
<g id="node4" class="node">
<title>pyVHDLModel.ModelEntity</title>
<g id="a_node4"><a xlink:title="``ModelEntity`` is the base class for all classes in the VHDL language model,">
<polygon fill="none" stroke="black" stroke-width="0.5" points="147,-19 0,-19 0,0 147,0 147,-19"/>
<text text-anchor="middle" x="73.5" y="-7" font-family="Vera Sans, DejaVu Sans, Liberation Sans, Arial, Helvetica, sans" font-size="10.00">pyVHDLModel.ModelEntity</text>
</a>
</g>
</g>
<!-- pyVHDLModel.SyntaxModel.BaseExpression -->
<g id="node5" class="node">
<title>pyVHDLModel.SyntaxModel.BaseExpression</title>
<g id="a_node5"><a xlink:title="A ``BaseExpression`` is a base&#45;class for all expressions.">
<polygon fill="none" stroke="black" stroke-width="0.5" points="416,-19 183,-19 183,0 416,0 416,-19"/>
<text text-anchor="middle" x="299.5" y="-7" font-family="Vera Sans, DejaVu Sans, Liberation Sans, Arial, Helvetica, sans" font-size="10.00">pyVHDLModel.SyntaxModel.BaseExpression</text>
</a>
</g>
</g>
<!-- pyVHDLModel.ModelEntity&#45;&gt;pyVHDLModel.SyntaxModel.BaseExpression -->
<g id="edge3" class="edge">
<title>pyVHDLModel.ModelEntity&#45;&gt;pyVHDLModel.SyntaxModel.BaseExpression</title>
<path fill="none" stroke="black" stroke-width="0.5" d="M147.23,-9.5C157,-9.5 167.22,-9.5 177.55,-9.5"/>
<polygon fill="black" stroke="black" stroke-width="0.5" points="177.63,-11.25 182.63,-9.5 177.63,-7.75 177.63,-11.25"/>
</g>
<!-- pyVHDLModel.SyntaxModel.Literal -->
<g id="node6" class="node">
<title>pyVHDLModel.SyntaxModel.Literal</title>
<g id="a_node6"><a xlink:title="A ``Literal`` is a base&#45;class for all literals.">
<polygon fill="none" stroke="black" stroke-width="0.5" points="638,-19 452,-19 452,0 638,0 638,-19"/>
<text text-anchor="middle" x="545" y="-7" font-family="Vera Sans, DejaVu Sans, Liberation Sans, Arial, Helvetica, sans" font-size="10.00">pyVHDLModel.SyntaxModel.Literal</text>
</a>
</g>
</g>
<!-- pyVHDLModel.SyntaxModel.BaseExpression&#45;&gt;pyVHDLModel.SyntaxModel.Literal -->
<g id="edge4" class="edge">
<title>pyVHDLModel.SyntaxModel.BaseExpression&#45;&gt;pyVHDLModel.SyntaxModel.Literal</title>
<path fill="none" stroke="black" stroke-width="0.5" d="M416.19,-9.5C426.32,-9.5 436.52,-9.5 446.48,-9.5"/>
<polygon fill="black" stroke="black" stroke-width="0.5" points="446.67,-11.25 451.67,-9.5 446.67,-7.75 446.67,-11.25"/>
</g>
<!-- pyVHDLModel.SyntaxModel.NumericLiteral -->
<g id="node7" class="node">
<title>pyVHDLModel.SyntaxModel.NumericLiteral</title>
<g id="a_node7"><a xlink:title="A ``NumericLiteral`` is a base&#45;class for all numeric literals.">
<polygon fill="none" stroke="black" stroke-width="0.5" points="901,-19 674,-19 674,0 901,0 901,-19"/>
<text text-anchor="middle" x="787.5" y="-7" font-family="Vera Sans, DejaVu Sans, Liberation Sans, Arial, Helvetica, sans" font-size="10.00">pyVHDLModel.SyntaxModel.NumericLiteral</text>
</a>
</g>
</g>
<!-- pyVHDLModel.SyntaxModel.Literal&#45;&gt;pyVHDLModel.SyntaxModel.NumericLiteral -->
<g id="edge5" class="edge">
<title>pyVHDLModel.SyntaxModel.Literal&#45;&gt;pyVHDLModel.SyntaxModel.NumericLiteral</title>
<path fill="none" stroke="black" stroke-width="0.5" d="M638.3,-9.5C648.31,-9.5 658.61,-9.5 668.87,-9.5"/>
<polygon fill="black" stroke="black" stroke-width="0.5" points="668.91,-11.25 673.91,-9.5 668.91,-7.75 668.91,-11.25"/>
</g>
<!-- pyVHDLModel.SyntaxModel.PhysicalLiteral -->
<g id="node8" class="node">
<title>pyVHDLModel.SyntaxModel.PhysicalLiteral</title>
<polygon fill="none" stroke="black" stroke-width="0.5" points="1164,-19 937,-19 937,0 1164,0 1164,-19"/>
<text text-anchor="middle" x="1050.5" y="-7" font-family="Vera Sans, DejaVu Sans, Liberation Sans, Arial, Helvetica, sans" font-size="10.00">pyVHDLModel.SyntaxModel.PhysicalLiteral</text>
</g>
<!-- pyVHDLModel.SyntaxModel.NumericLiteral&#45;&gt;pyVHDLModel.SyntaxModel.PhysicalLiteral -->
<g id="edge7" class="edge">
<title>pyVHDLModel.SyntaxModel.NumericLiteral&#45;&gt;pyVHDLModel.SyntaxModel.PhysicalLiteral</title>
<path fill="none" stroke="black" stroke-width="0.5" d="M901.08,-9.5C911.28,-9.5 921.62,-9.5 931.86,-9.5"/>
<polygon fill="black" stroke="black" stroke-width="0.5" points="931.88,-11.25 936.88,-9.5 931.88,-7.75 931.88,-11.25"/>
</g>
<!-- pyVHDLModel.SyntaxModel.PhysicalLiteral&#45;&gt;pyVHDLModel.SyntaxModel.PhysicalIntegerLiteral -->
<g id="edge6" class="edge">
<title>pyVHDLModel.SyntaxModel.PhysicalLiteral&#45;&gt;pyVHDLModel.SyntaxModel.PhysicalIntegerLiteral</title>
<path fill="none" stroke="black" stroke-width="0.5" d="M1164.17,-9.5C1174.26,-9.5 1184.54,-9.5 1194.79,-9.5"/>
<polygon fill="black" stroke="black" stroke-width="0.5" points="1194.82,-11.25 1199.82,-9.5 1194.82,-7.75 1194.82,-11.25"/>
</g>
</g>
</svg>
