<?xml version="1.0" encoding="UTF-8" standalone="no"?>
<!DOCTYPE svg PUBLIC "-//W3C//DTD SVG 1.1//EN"
 "http://www.w3.org/Graphics/SVG/1.1/DTD/svg11.dtd">
<!-- Generated by graphviz version 2.43.0 (0)
 -->
<!-- Title: inheritance25568787b9 Pages: 1 -->
<svg width="576pt" height="59pt"
 viewBox="0.00 0.00 576.00 58.89" xmlns="http://www.w3.org/2000/svg" xmlns:xlink="http://www.w3.org/1999/xlink">
<g id="graph0" class="graph" transform="scale(1.09 1.09) rotate(0) translate(4 60)">
<title>inheritance25568787b9</title>
<polygon fill="white" stroke="transparent" points="-4,4 -4,-60 622,-60 622,4 -4,4"/>
<!-- pyGHDL.dom.DOMMixin -->
<g id="node1" class="node">
<title>pyGHDL.dom.DOMMixin</title>
<g id="a_node1"><a xlink:href="../pyGHDL.dom.html#pyGHDL.dom.DOMMixin" xlink:title="pyGHDL.dom.DOMMixin" target="_top">
<polygon fill="none" stroke="black" stroke-width="0.5" points="387,-56 252,-56 252,-37 387,-37 387,-56"/>
<text text-anchor="middle" x="319.5" y="-44" font-family="Vera Sans, DejaVu Sans, Liberation Sans, Arial, Helvetica, sans" font-size="10.00">pyGHDL.dom.DOMMixin</text>
</a>
</g>
</g>
<!-- pyGHDL.dom.Names.AllName -->
<g id="node2" class="node">
<title>pyGHDL.dom.Names.AllName</title>
<g id="a_node2"><a xlink:href="../pyGHDL/pyGHDL.dom.Names.html#pyGHDL.dom.Names.AllName" xlink:title="pyGHDL.dom.Names.AllName" target="_top">
<polygon fill="none" stroke="black" stroke-width="0.5" points="618,-37 454,-37 454,-18 618,-18 618,-37"/>
<text text-anchor="middle" x="536" y="-25" font-family="Vera Sans, DejaVu Sans, Liberation Sans, Arial, Helvetica, sans" font-size="10.00">pyGHDL.dom.Names.AllName</text>
</a>
</g>
</g>
<!-- pyGHDL.dom.DOMMixin&#45;&gt;pyGHDL.dom.Names.AllName -->
<g id="edge2" class="edge">
<title>pyGHDL.dom.DOMMixin&#45;&gt;pyGHDL.dom.Names.AllName</title>
<path fill="none" stroke="black" stroke-width="0.5" d="M387.19,-40.59C406.58,-38.88 428.04,-36.97 448.46,-35.17"/>
<polygon fill="black" stroke="black" stroke-width="0.5" points="448.8,-36.89 453.63,-34.71 448.49,-33.41 448.8,-36.89"/>
</g>
<!-- pyVHDLModel.SyntaxModel.AllName -->
<g id="node3" class="node">
<title>pyVHDLModel.SyntaxModel.AllName</title>
<polygon fill="none" stroke="black" stroke-width="0.5" points="418,-19 221,-19 221,0 418,0 418,-19"/>
<text text-anchor="middle" x="319.5" y="-7" font-family="Vera Sans, DejaVu Sans, Liberation Sans, Arial, Helvetica, sans" font-size="10.00">pyVHDLModel.SyntaxModel.AllName</text>
</g>
<!-- pyVHDLModel.SyntaxModel.AllName&#45;&gt;pyGHDL.dom.Names.AllName -->
<g id="edge1" class="edge">
<title>pyVHDLModel.SyntaxModel.AllName&#45;&gt;pyGHDL.dom.Names.AllName</title>
<path fill="none" stroke="black" stroke-width="0.5" d="M418.02,-17.68C428.2,-18.54 438.5,-19.4 448.54,-20.24"/>
<polygon fill="black" stroke="black" stroke-width="0.5" points="448.64,-22.01 453.77,-20.68 448.93,-18.52 448.64,-22.01"/>
</g>
<!-- pyVHDLModel.SyntaxModel.Name -->
<g id="node4" class="node">
<title>pyVHDLModel.SyntaxModel.Name</title>
<g id="a_node4"><a xlink:title="``Name`` is the base class for all *names* in the VHDL language model.">
<polygon fill="none" stroke="black" stroke-width="0.5" points="185,-19 0,-19 0,0 185,0 185,-19"/>
<text text-anchor="middle" x="92.5" y="-7" font-family="Vera Sans, DejaVu Sans, Liberation Sans, Arial, Helvetica, sans" font-size="10.00">pyVHDLModel.SyntaxModel.Name</text>
</a>
</g>
</g>
<!-- pyVHDLModel.SyntaxModel.Name&#45;&gt;pyVHDLModel.SyntaxModel.AllName -->
<g id="edge3" class="edge">
<title>pyVHDLModel.SyntaxModel.Name&#45;&gt;pyVHDLModel.SyntaxModel.AllName</title>
<path fill="none" stroke="black" stroke-width="0.5" d="M185.02,-9.5C195.16,-9.5 205.54,-9.5 215.8,-9.5"/>
<polygon fill="black" stroke="black" stroke-width="0.5" points="215.83,-11.25 220.83,-9.5 215.83,-7.75 215.83,-11.25"/>
</g>
</g>
</svg>
