<?xml version="1.0" encoding="UTF-8" standalone="no"?>
<!DOCTYPE svg PUBLIC "-//W3C//DTD SVG 1.1//EN"
 "http://www.w3.org/Graphics/SVG/1.1/DTD/svg11.dtd">
<!-- Generated by graphviz version 2.43.0 (0)
 -->
<!-- Title: inheritance7957d3aa8f Pages: 1 -->
<svg width="576pt" height="26pt"
 viewBox="0.00 0.00 576.00 25.92" xmlns="http://www.w3.org/2000/svg" xmlns:xlink="http://www.w3.org/1999/xlink">
<g id="graph0" class="graph" transform="scale(1.04 1.04) rotate(0) translate(4 23)">
<title>inheritance7957d3aa8f</title>
<polygon fill="white" stroke="transparent" points="-4,4 -4,-23 596,-23 596,4 -4,4"/>
<!-- pyGHDL.dom.NonStandard.Design -->
<g id="node1" class="node">
<title>pyGHDL.dom.NonStandard.Design</title>
<g id="a_node1"><a xlink:href="../pyGHDL/pyGHDL.dom.NonStandard.html#pyGHDL.dom.NonStandard.Design" xlink:title="pyGHDL.dom.NonStandard.Design" target="_top">
<polygon fill="none" stroke="black" stroke-width="0.5" points="592,-19 408,-19 408,0 592,0 592,-19"/>
<text text-anchor="middle" x="500" y="-7" font-family="Vera Sans, DejaVu Sans, Liberation Sans, Arial, Helvetica, sans" font-size="10.00">pyGHDL.dom.NonStandard.Design</text>
</a>
</g>
</g>
<!-- pyVHDLModel.SyntaxModel.Design -->
<g id="node2" class="node">
<title>pyVHDLModel.SyntaxModel.Design</title>
<g id="a_node2"><a xlink:title="A ``Design`` represents all loaded files (see :class:`~pyVHDLModel.VHDLModel.Document`)">
<polygon fill="none" stroke="black" stroke-width="0.5" points="372,-19 183,-19 183,0 372,0 372,-19"/>
<text text-anchor="middle" x="277.5" y="-7" font-family="Vera Sans, DejaVu Sans, Liberation Sans, Arial, Helvetica, sans" font-size="10.00">pyVHDLModel.SyntaxModel.Design</text>
</a>
</g>
</g>
<!-- pyVHDLModel.SyntaxModel.Design&#45;&gt;pyGHDL.dom.NonStandard.Design -->
<g id="edge1" class="edge">
<title>pyVHDLModel.SyntaxModel.Design&#45;&gt;pyGHDL.dom.NonStandard.Design</title>
<path fill="none" stroke="black" stroke-width="0.5" d="M372.01,-9.5C382.2,-9.5 392.58,-9.5 402.8,-9.5"/>
<polygon fill="black" stroke="black" stroke-width="0.5" points="402.8,-11.25 407.8,-9.5 402.8,-7.75 402.8,-11.25"/>
</g>
<!-- pyVHDLModel.ModelEntity -->
<g id="node3" class="node">
<title>pyVHDLModel.ModelEntity</title>
<g id="a_node3"><a xlink:title="``ModelEntity`` is the base class for all classes in the VHDL language model,">
<polygon fill="none" stroke="black" stroke-width="0.5" points="147,-19 0,-19 0,0 147,0 147,-19"/>
<text text-anchor="middle" x="73.5" y="-7" font-family="Vera Sans, DejaVu Sans, Liberation Sans, Arial, Helvetica, sans" font-size="10.00">pyVHDLModel.ModelEntity</text>
</a>
</g>
</g>
<!-- pyVHDLModel.ModelEntity&#45;&gt;pyVHDLModel.SyntaxModel.Design -->
<g id="edge2" class="edge">
<title>pyVHDLModel.ModelEntity&#45;&gt;pyVHDLModel.SyntaxModel.Design</title>
<path fill="none" stroke="black" stroke-width="0.5" d="M147.14,-9.5C157.06,-9.5 167.37,-9.5 177.65,-9.5"/>
<polygon fill="black" stroke="black" stroke-width="0.5" points="177.69,-11.25 182.69,-9.5 177.69,-7.75 177.69,-11.25"/>
</g>
</g>
</svg>
