<?xml version="1.0" encoding="UTF-8" standalone="no"?>
<!DOCTYPE svg PUBLIC "-//W3C//DTD SVG 1.1//EN"
 "http://www.w3.org/Graphics/SVG/1.1/DTD/svg11.dtd">
<!-- Generated by graphviz version 2.43.0 (0)
 -->
<!-- Title: inheritance56d7938ba6 Pages: 1 -->
<svg width="576pt" height="30pt"
 viewBox="0.00 0.00 576.00 29.56" xmlns="http://www.w3.org/2000/svg" xmlns:xlink="http://www.w3.org/1999/xlink">
<g id="graph0" class="graph" transform="scale(2.16 2.16) rotate(0) translate(4 60)">
<title>inheritance56d7938ba6</title>
<polygon fill="white" stroke="transparent" points="-4,4 -4,-60 1243,-60 1243,4 -4,4"/>
<!-- pyGHDL.dom.DOMMixin -->
<g id="node1" class="node">
<title>pyGHDL.dom.DOMMixin</title>
<g id="a_node1"><a xlink:href="../pyGHDL.dom.html#pyGHDL.dom.DOMMixin" xlink:title="pyGHDL.dom.DOMMixin" target="_top">
<polygon fill="none" stroke="black" stroke-width="0.5" points="916.5,-56 781.5,-56 781.5,-37 916.5,-37 916.5,-56"/>
<text text-anchor="middle" x="849" y="-44" font-family="Vera Sans, DejaVu Sans, Liberation Sans, Arial, Helvetica, sans" font-size="10.00">pyGHDL.dom.DOMMixin</text>
</a>
</g>
</g>
<!-- pyGHDL.dom.Expression.IdentityExpression -->
<g id="node2" class="node">
<title>pyGHDL.dom.Expression.IdentityExpression</title>
<g id="a_node2"><a xlink:href="../pyGHDL/pyGHDL.dom.Expression.html#pyGHDL.dom.Expression.IdentityExpression" xlink:title="pyGHDL.dom.Expression.IdentityExpression" target="_top">
<polygon fill="none" stroke="black" stroke-width="0.5" points="1239,-37 1008,-37 1008,-18 1239,-18 1239,-37"/>
<text text-anchor="middle" x="1123.5" y="-25" font-family="Vera Sans, DejaVu Sans, Liberation Sans, Arial, Helvetica, sans" font-size="10.00">pyGHDL.dom.Expression.IdentityExpression</text>
</a>
</g>
</g>
<!-- pyGHDL.dom.DOMMixin&#45;&gt;pyGHDL.dom.Expression.IdentityExpression -->
<g id="edge2" class="edge">
<title>pyGHDL.dom.DOMMixin&#45;&gt;pyGHDL.dom.Expression.IdentityExpression</title>
<path fill="none" stroke="black" stroke-width="0.5" d="M916.66,-41.85C942.65,-40.04 973.26,-37.91 1002.82,-35.84"/>
<polygon fill="black" stroke="black" stroke-width="0.5" points="1003.07,-37.58 1007.93,-35.49 1002.82,-34.09 1003.07,-37.58"/>
</g>
<!-- pyVHDLModel.SyntaxModel.IdentityExpression -->
<g id="node3" class="node">
<title>pyVHDLModel.SyntaxModel.IdentityExpression</title>
<polygon fill="none" stroke="black" stroke-width="0.5" points="972,-19 726,-19 726,0 972,0 972,-19"/>
<text text-anchor="middle" x="849" y="-7" font-family="Vera Sans, DejaVu Sans, Liberation Sans, Arial, Helvetica, sans" font-size="10.00">pyVHDLModel.SyntaxModel.IdentityExpression</text>
</g>
<!-- pyVHDLModel.SyntaxModel.IdentityExpression&#45;&gt;pyGHDL.dom.Expression.IdentityExpression -->
<g id="edge1" class="edge">
<title>pyVHDLModel.SyntaxModel.IdentityExpression&#45;&gt;pyGHDL.dom.Expression.IdentityExpression</title>
<path fill="none" stroke="black" stroke-width="0.5" d="M972.3,-17.58C982.3,-18.24 992.4,-18.91 1002.39,-19.57"/>
<polygon fill="black" stroke="black" stroke-width="0.5" points="1002.49,-21.33 1007.6,-19.91 1002.72,-17.83 1002.49,-21.33"/>
</g>
<!-- pyVHDLModel.ModelEntity -->
<g id="node4" class="node">
<title>pyVHDLModel.ModelEntity</title>
<g id="a_node4"><a xlink:title="``ModelEntity`` is the base class for all classes in the VHDL language model,">
<polygon fill="none" stroke="black" stroke-width="0.5" points="147,-19 0,-19 0,0 147,0 147,-19"/>
<text text-anchor="middle" x="73.5" y="-7" font-family="Vera Sans, DejaVu Sans, Liberation Sans, Arial, Helvetica, sans" font-size="10.00">pyVHDLModel.ModelEntity</text>
</a>
</g>
</g>
<!-- pyVHDLModel.SyntaxModel.BaseExpression -->
<g id="node5" class="node">
<title>pyVHDLModel.SyntaxModel.BaseExpression</title>
<g id="a_node5"><a xlink:title="A ``BaseExpression`` is a base&#45;class for all expressions.">
<polygon fill="none" stroke="black" stroke-width="0.5" points="416,-19 183,-19 183,0 416,0 416,-19"/>
<text text-anchor="middle" x="299.5" y="-7" font-family="Vera Sans, DejaVu Sans, Liberation Sans, Arial, Helvetica, sans" font-size="10.00">pyVHDLModel.SyntaxModel.BaseExpression</text>
</a>
</g>
</g>
<!-- pyVHDLModel.ModelEntity&#45;&gt;pyVHDLModel.SyntaxModel.BaseExpression -->
<g id="edge3" class="edge">
<title>pyVHDLModel.ModelEntity&#45;&gt;pyVHDLModel.SyntaxModel.BaseExpression</title>
<path fill="none" stroke="black" stroke-width="0.5" d="M147.23,-9.5C157,-9.5 167.22,-9.5 177.55,-9.5"/>
<polygon fill="black" stroke="black" stroke-width="0.5" points="177.63,-11.25 182.63,-9.5 177.63,-7.75 177.63,-11.25"/>
</g>
<!-- pyVHDLModel.SyntaxModel.UnaryExpression -->
<g id="node6" class="node">
<title>pyVHDLModel.SyntaxModel.UnaryExpression</title>
<g id="a_node6"><a xlink:title="A ``UnaryExpression`` is a base&#45;class for all unary expressions.">
<polygon fill="none" stroke="black" stroke-width="0.5" points="690,-19 452,-19 452,0 690,0 690,-19"/>
<text text-anchor="middle" x="571" y="-7" font-family="Vera Sans, DejaVu Sans, Liberation Sans, Arial, Helvetica, sans" font-size="10.00">pyVHDLModel.SyntaxModel.UnaryExpression</text>
</a>
</g>
</g>
<!-- pyVHDLModel.SyntaxModel.BaseExpression&#45;&gt;pyVHDLModel.SyntaxModel.UnaryExpression -->
<g id="edge5" class="edge">
<title>pyVHDLModel.SyntaxModel.BaseExpression&#45;&gt;pyVHDLModel.SyntaxModel.UnaryExpression</title>
<path fill="none" stroke="black" stroke-width="0.5" d="M416.36,-9.5C426.32,-9.5 436.42,-9.5 446.44,-9.5"/>
<polygon fill="black" stroke="black" stroke-width="0.5" points="446.67,-11.25 451.67,-9.5 446.67,-7.75 446.67,-11.25"/>
</g>
<!-- pyVHDLModel.SyntaxModel.UnaryExpression&#45;&gt;pyVHDLModel.SyntaxModel.IdentityExpression -->
<g id="edge4" class="edge">
<title>pyVHDLModel.SyntaxModel.UnaryExpression&#45;&gt;pyVHDLModel.SyntaxModel.IdentityExpression</title>
<path fill="none" stroke="black" stroke-width="0.5" d="M690.25,-9.5C700.22,-9.5 710.33,-9.5 720.36,-9.5"/>
<polygon fill="black" stroke="black" stroke-width="0.5" points="720.6,-11.25 725.6,-9.5 720.6,-7.75 720.6,-11.25"/>
</g>
</g>
</svg>
