<?xml version="1.0" encoding="UTF-8" standalone="no"?>
<!DOCTYPE svg PUBLIC "-//W3C//DTD SVG 1.1//EN"
 "http://www.w3.org/Graphics/SVG/1.1/DTD/svg11.dtd">
<!-- Generated by graphviz version 2.43.0 (0)
 -->
<!-- Title: inheritance4604c22496 Pages: 1 -->
<svg width="576pt" height="49pt"
 viewBox="0.00 0.00 576.00 48.84" xmlns="http://www.w3.org/2000/svg" xmlns:xlink="http://www.w3.org/1999/xlink">
<g id="graph0" class="graph" transform="scale(1.68 1.68) rotate(0) translate(4 78)">
<title>inheritance4604c22496</title>
<polygon fill="white" stroke="transparent" points="-4,4 -4,-78 963,-78 963,4 -4,4"/>
<!-- pyGHDL.dom.DOMMixin -->
<g id="node1" class="node">
<title>pyGHDL.dom.DOMMixin</title>
<g id="a_node1"><a xlink:href="../pyGHDL.dom.html#pyGHDL.dom.DOMMixin" xlink:title="pyGHDL.dom.DOMMixin" target="_top">
<polygon fill="none" stroke="black" stroke-width="0.5" points="714.5,-74 579.5,-74 579.5,-55 714.5,-55 714.5,-74"/>
<text text-anchor="middle" x="647" y="-62" font-family="Vera Sans, DejaVu Sans, Liberation Sans, Arial, Helvetica, sans" font-size="10.00">pyGHDL.dom.DOMMixin</text>
</a>
</g>
</g>
<!-- pyGHDL.dom.DesignUnit.Context -->
<g id="node2" class="node">
<title>pyGHDL.dom.DesignUnit.Context</title>
<g id="a_node2"><a xlink:href="../pyGHDL/pyGHDL.dom.DesignUnit.html#pyGHDL.dom.DesignUnit.Context" xlink:title="pyGHDL.dom.DesignUnit.Context" target="_top">
<polygon fill="none" stroke="black" stroke-width="0.5" points="959,-55 780,-55 780,-36 959,-36 959,-55"/>
<text text-anchor="middle" x="869.5" y="-43" font-family="Vera Sans, DejaVu Sans, Liberation Sans, Arial, Helvetica, sans" font-size="10.00">pyGHDL.dom.DesignUnit.Context</text>
</a>
</g>
</g>
<!-- pyGHDL.dom.DOMMixin&#45;&gt;pyGHDL.dom.DesignUnit.Context -->
<g id="edge2" class="edge">
<title>pyGHDL.dom.DOMMixin&#45;&gt;pyGHDL.dom.DesignUnit.Context</title>
<path fill="none" stroke="black" stroke-width="0.5" d="M714.76,-58.75C733.69,-57.12 754.65,-55.31 774.86,-53.57"/>
<polygon fill="black" stroke="black" stroke-width="0.5" points="775.15,-55.3 779.98,-53.13 774.85,-51.81 775.15,-55.3"/>
</g>
<!-- pyVHDLModel.SyntaxModel.Context -->
<g id="node3" class="node">
<title>pyVHDLModel.SyntaxModel.Context</title>
<polygon fill="none" stroke="black" stroke-width="0.5" points="744,-37 550,-37 550,-18 744,-18 744,-37"/>
<text text-anchor="middle" x="647" y="-25" font-family="Vera Sans, DejaVu Sans, Liberation Sans, Arial, Helvetica, sans" font-size="10.00">pyVHDLModel.SyntaxModel.Context</text>
</g>
<!-- pyVHDLModel.SyntaxModel.Context&#45;&gt;pyGHDL.dom.DesignUnit.Context -->
<g id="edge1" class="edge">
<title>pyVHDLModel.SyntaxModel.Context&#45;&gt;pyGHDL.dom.DesignUnit.Context</title>
<path fill="none" stroke="black" stroke-width="0.5" d="M744.07,-35.34C754.15,-36.17 764.39,-37 774.45,-37.82"/>
<polygon fill="black" stroke="black" stroke-width="0.5" points="774.57,-39.59 779.69,-38.25 774.85,-36.1 774.57,-39.59"/>
</g>
<!-- pyVHDLModel.DesignUnit -->
<g id="node4" class="node">
<title>pyVHDLModel.DesignUnit</title>
<g id="a_node4"><a xlink:title="A ``DesignUnit`` is a base&#45;class for all design units.">
<polygon fill="none" stroke="black" stroke-width="0.5" points="331,-37 188,-37 188,-18 331,-18 331,-37"/>
<text text-anchor="middle" x="259.5" y="-25" font-family="Vera Sans, DejaVu Sans, Liberation Sans, Arial, Helvetica, sans" font-size="10.00">pyVHDLModel.DesignUnit</text>
</a>
</g>
</g>
<!-- pyVHDLModel.PrimaryUnit -->
<g id="node7" class="node">
<title>pyVHDLModel.PrimaryUnit</title>
<g id="a_node7"><a xlink:title="A ``PrimaryUnit`` is a base&#45;class for all primary units.">
<polygon fill="none" stroke="black" stroke-width="0.5" points="514,-37 367,-37 367,-18 514,-18 514,-37"/>
<text text-anchor="middle" x="440.5" y="-25" font-family="Vera Sans, DejaVu Sans, Liberation Sans, Arial, Helvetica, sans" font-size="10.00">pyVHDLModel.PrimaryUnit</text>
</a>
</g>
</g>
<!-- pyVHDLModel.DesignUnit&#45;&gt;pyVHDLModel.PrimaryUnit -->
<g id="edge5" class="edge">
<title>pyVHDLModel.DesignUnit&#45;&gt;pyVHDLModel.PrimaryUnit</title>
<path fill="none" stroke="black" stroke-width="0.5" d="M331.25,-27.5C341.23,-27.5 351.54,-27.5 361.65,-27.5"/>
<polygon fill="black" stroke="black" stroke-width="0.5" points="361.92,-29.25 366.92,-27.5 361.92,-25.75 361.92,-29.25"/>
</g>
<!-- pyVHDLModel.ModelEntity -->
<g id="node5" class="node">
<title>pyVHDLModel.ModelEntity</title>
<g id="a_node5"><a xlink:title="``ModelEntity`` is the base class for all classes in the VHDL language model,">
<polygon fill="none" stroke="black" stroke-width="0.5" points="149.5,-56 2.5,-56 2.5,-37 149.5,-37 149.5,-56"/>
<text text-anchor="middle" x="76" y="-44" font-family="Vera Sans, DejaVu Sans, Liberation Sans, Arial, Helvetica, sans" font-size="10.00">pyVHDLModel.ModelEntity</text>
</a>
</g>
</g>
<!-- pyVHDLModel.ModelEntity&#45;&gt;pyVHDLModel.DesignUnit -->
<g id="edge3" class="edge">
<title>pyVHDLModel.ModelEntity&#45;&gt;pyVHDLModel.DesignUnit</title>
<path fill="none" stroke="black" stroke-width="0.5" d="M149.52,-38.91C160.48,-37.76 171.81,-36.58 182.83,-35.42"/>
<polygon fill="black" stroke="black" stroke-width="0.5" points="183.08,-37.15 187.87,-34.89 182.72,-33.67 183.08,-37.15"/>
</g>
<!-- pyVHDLModel.NamedEntity -->
<g id="node6" class="node">
<title>pyVHDLModel.NamedEntity</title>
<g id="a_node6"><a xlink:title="A ``NamedEntity`` is a mixin class for all VHDL entities that have identifiers.">
<polygon fill="none" stroke="black" stroke-width="0.5" points="152,-19 0,-19 0,0 152,0 152,-19"/>
<text text-anchor="middle" x="76" y="-7" font-family="Vera Sans, DejaVu Sans, Liberation Sans, Arial, Helvetica, sans" font-size="10.00">pyVHDLModel.NamedEntity</text>
</a>
</g>
</g>
<!-- pyVHDLModel.NamedEntity&#45;&gt;pyVHDLModel.DesignUnit -->
<g id="edge4" class="edge">
<title>pyVHDLModel.NamedEntity&#45;&gt;pyVHDLModel.DesignUnit</title>
<path fill="none" stroke="black" stroke-width="0.5" d="M152.13,-16.95C162.18,-17.95 172.49,-18.97 182.56,-19.97"/>
<polygon fill="black" stroke="black" stroke-width="0.5" points="182.64,-21.74 187.79,-20.49 182.99,-18.25 182.64,-21.74"/>
</g>
<!-- pyVHDLModel.PrimaryUnit&#45;&gt;pyVHDLModel.SyntaxModel.Context -->
<g id="edge6" class="edge">
<title>pyVHDLModel.PrimaryUnit&#45;&gt;pyVHDLModel.SyntaxModel.Context</title>
<path fill="none" stroke="black" stroke-width="0.5" d="M514.17,-27.5C524.14,-27.5 534.51,-27.5 544.87,-27.5"/>
<polygon fill="black" stroke="black" stroke-width="0.5" points="544.96,-29.25 549.96,-27.5 544.96,-25.75 544.96,-29.25"/>
</g>
</g>
</svg>
