<?xml version="1.0" encoding="UTF-8" standalone="no"?>
<!DOCTYPE svg PUBLIC "-//W3C//DTD SVG 1.1//EN"
 "http://www.w3.org/Graphics/SVG/1.1/DTD/svg11.dtd">
<!-- Generated by graphviz version 2.43.0 (0)
 -->
<!-- Title: inheritance9a35ab62d1 Pages: 1 -->
<svg width="576pt" height="35pt"
 viewBox="0.00 0.00 576.00 34.61" xmlns="http://www.w3.org/2000/svg" xmlns:xlink="http://www.w3.org/1999/xlink">
<g id="graph0" class="graph" transform="scale(1.85 1.85) rotate(0) translate(4 60)">
<title>inheritance9a35ab62d1</title>
<polygon fill="white" stroke="transparent" points="-4,4 -4,-60 1061,-60 1061,4 -4,4"/>
<!-- pyGHDL.dom.Aggregates.IndexedAggregateElement -->
<g id="node1" class="node">
<title>pyGHDL.dom.Aggregates.IndexedAggregateElement</title>
<g id="a_node1"><a xlink:href="../pyGHDL/pyGHDL.dom.Aggregates.html#pyGHDL.dom.Aggregates.IndexedAggregateElement" xlink:title="pyGHDL.dom.Aggregates.IndexedAggregateElement" target="_top">
<polygon fill="none" stroke="black" stroke-width="0.5" points="1057,-37 785,-37 785,-18 1057,-18 1057,-37"/>
<text text-anchor="middle" x="921" y="-25" font-family="Vera Sans, DejaVu Sans, Liberation Sans, Arial, Helvetica, sans" font-size="10.00">pyGHDL.dom.Aggregates.IndexedAggregateElement</text>
</a>
</g>
</g>
<!-- pyVHDLModel.SyntaxModel.IndexedAggregateElement -->
<g id="node2" class="node">
<title>pyVHDLModel.SyntaxModel.IndexedAggregateElement</title>
<polygon fill="none" stroke="black" stroke-width="0.5" points="749,-56 465,-56 465,-37 749,-37 749,-56"/>
<text text-anchor="middle" x="607" y="-44" font-family="Vera Sans, DejaVu Sans, Liberation Sans, Arial, Helvetica, sans" font-size="10.00">pyVHDLModel.SyntaxModel.IndexedAggregateElement</text>
</g>
<!-- pyVHDLModel.SyntaxModel.IndexedAggregateElement&#45;&gt;pyGHDL.dom.Aggregates.IndexedAggregateElement -->
<g id="edge1" class="edge">
<title>pyVHDLModel.SyntaxModel.IndexedAggregateElement&#45;&gt;pyGHDL.dom.Aggregates.IndexedAggregateElement</title>
<path fill="none" stroke="black" stroke-width="0.5" d="M749.39,-37.89C759.42,-37.28 769.52,-36.66 779.54,-36.05"/>
<polygon fill="black" stroke="black" stroke-width="0.5" points="779.88,-37.79 784.77,-35.74 779.67,-34.29 779.88,-37.79"/>
</g>
<!-- pyGHDL.dom.DOMMixin -->
<g id="node3" class="node">
<title>pyGHDL.dom.DOMMixin</title>
<g id="a_node3"><a xlink:href="../pyGHDL.dom.html#pyGHDL.dom.DOMMixin" xlink:title="pyGHDL.dom.DOMMixin" target="_top">
<polygon fill="none" stroke="black" stroke-width="0.5" points="674.5,-19 539.5,-19 539.5,0 674.5,0 674.5,-19"/>
<text text-anchor="middle" x="607" y="-7" font-family="Vera Sans, DejaVu Sans, Liberation Sans, Arial, Helvetica, sans" font-size="10.00">pyGHDL.dom.DOMMixin</text>
</a>
</g>
</g>
<!-- pyGHDL.dom.DOMMixin&#45;&gt;pyGHDL.dom.Aggregates.IndexedAggregateElement -->
<g id="edge2" class="edge">
<title>pyGHDL.dom.DOMMixin&#45;&gt;pyGHDL.dom.Aggregates.IndexedAggregateElement</title>
<path fill="none" stroke="black" stroke-width="0.5" d="M674.55,-13.34C705.25,-15.11 742.94,-17.28 779.48,-19.39"/>
<polygon fill="black" stroke="black" stroke-width="0.5" points="779.77,-21.16 784.86,-19.7 779.97,-17.67 779.77,-21.16"/>
</g>
<!-- pyVHDLModel.ModelEntity -->
<g id="node4" class="node">
<title>pyVHDLModel.ModelEntity</title>
<g id="a_node4"><a xlink:title="``ModelEntity`` is the base class for all classes in the VHDL language model,">
<polygon fill="none" stroke="black" stroke-width="0.5" points="147,-56 0,-56 0,-37 147,-37 147,-56"/>
<text text-anchor="middle" x="73.5" y="-44" font-family="Vera Sans, DejaVu Sans, Liberation Sans, Arial, Helvetica, sans" font-size="10.00">pyVHDLModel.ModelEntity</text>
</a>
</g>
</g>
<!-- pyVHDLModel.SyntaxModel.AggregateElement -->
<g id="node5" class="node">
<title>pyVHDLModel.SyntaxModel.AggregateElement</title>
<g id="a_node5"><a xlink:title="A ``AggregateElement`` is a base&#45;class for all aggregate elements.">
<polygon fill="none" stroke="black" stroke-width="0.5" points="429,-56 183,-56 183,-37 429,-37 429,-56"/>
<text text-anchor="middle" x="306" y="-44" font-family="Vera Sans, DejaVu Sans, Liberation Sans, Arial, Helvetica, sans" font-size="10.00">pyVHDLModel.SyntaxModel.AggregateElement</text>
</a>
</g>
</g>
<!-- pyVHDLModel.ModelEntity&#45;&gt;pyVHDLModel.SyntaxModel.AggregateElement -->
<g id="edge3" class="edge">
<title>pyVHDLModel.ModelEntity&#45;&gt;pyVHDLModel.SyntaxModel.AggregateElement</title>
<path fill="none" stroke="black" stroke-width="0.5" d="M147.12,-46.5C156.98,-46.5 167.33,-46.5 177.82,-46.5"/>
<polygon fill="black" stroke="black" stroke-width="0.5" points="177.97,-48.25 182.97,-46.5 177.97,-44.75 177.97,-48.25"/>
</g>
<!-- pyVHDLModel.SyntaxModel.AggregateElement&#45;&gt;pyVHDLModel.SyntaxModel.IndexedAggregateElement -->
<g id="edge4" class="edge">
<title>pyVHDLModel.SyntaxModel.AggregateElement&#45;&gt;pyVHDLModel.SyntaxModel.IndexedAggregateElement</title>
<path fill="none" stroke="black" stroke-width="0.5" d="M429.05,-46.5C439.18,-46.5 449.48,-46.5 459.76,-46.5"/>
<polygon fill="black" stroke="black" stroke-width="0.5" points="459.81,-48.25 464.81,-46.5 459.81,-44.75 459.81,-48.25"/>
</g>
</g>
</svg>
