<?xml version="1.0" encoding="UTF-8" standalone="no"?>
<!DOCTYPE svg PUBLIC "-//W3C//DTD SVG 1.1//EN"
 "http://www.w3.org/Graphics/SVG/1.1/DTD/svg11.dtd">
<!-- Generated by graphviz version 2.43.0 (0)
 -->
<!-- Title: inheritance05d01d594d Pages: 1 -->
<svg width="576pt" height="34pt"
 viewBox="0.00 0.00 576.00 34.10" xmlns="http://www.w3.org/2000/svg" xmlns:xlink="http://www.w3.org/1999/xlink">
<g id="graph0" class="graph" transform="scale(2.4 2.4) rotate(0) translate(4 78)">
<title>inheritance05d01d594d</title>
<polygon fill="white" stroke="transparent" points="-4,4 -4,-78 1381,-78 1381,4 -4,4"/>
<!-- pyGHDL.dom.DOMMixin -->
<g id="node1" class="node">
<title>pyGHDL.dom.DOMMixin</title>
<g id="a_node1"><a xlink:href="../pyGHDL.dom.html#pyGHDL.dom.DOMMixin" xlink:title="pyGHDL.dom.DOMMixin" target="_top">
<polygon fill="none" stroke="black" stroke-width="0.5" points="960.5,-74 825.5,-74 825.5,-55 960.5,-55 960.5,-74"/>
<text text-anchor="middle" x="893" y="-62" font-family="Vera Sans, DejaVu Sans, Liberation Sans, Arial, Helvetica, sans" font-size="10.00">pyGHDL.dom.DOMMixin</text>
</a>
</g>
</g>
<!-- pyGHDL.dom.InterfaceItem.GenericFunctionInterfaceItem -->
<g id="node2" class="node">
<title>pyGHDL.dom.InterfaceItem.GenericFunctionInterfaceItem</title>
<g id="a_node2"><a xlink:href="../pyGHDL/pyGHDL.dom.InterfaceItem.html#pyGHDL.dom.InterfaceItem.GenericFunctionInterfaceItem" xlink:title="pyGHDL.dom.InterfaceItem.GenericFunctionInterfaceItem" target="_top">
<polygon fill="none" stroke="black" stroke-width="0.5" points="1377,-55 1079,-55 1079,-36 1377,-36 1377,-55"/>
<text text-anchor="middle" x="1228" y="-43" font-family="Vera Sans, DejaVu Sans, Liberation Sans, Arial, Helvetica, sans" font-size="10.00">pyGHDL.dom.InterfaceItem.GenericFunctionInterfaceItem</text>
</a>
</g>
</g>
<!-- pyGHDL.dom.DOMMixin&#45;&gt;pyGHDL.dom.InterfaceItem.GenericFunctionInterfaceItem -->
<g id="edge2" class="edge">
<title>pyGHDL.dom.DOMMixin&#45;&gt;pyGHDL.dom.InterfaceItem.GenericFunctionInterfaceItem</title>
<path fill="none" stroke="black" stroke-width="0.5" d="M960.59,-60.7C993.19,-58.84 1033.91,-56.52 1073.62,-54.25"/>
<polygon fill="black" stroke="black" stroke-width="0.5" points="1074.07,-55.98 1078.97,-53.95 1073.88,-52.48 1074.07,-55.98"/>
</g>
<!-- pyVHDLModel.SyntaxModel.GenericFunctionInterfaceItem -->
<g id="node3" class="node">
<title>pyVHDLModel.SyntaxModel.GenericFunctionInterfaceItem</title>
<polygon fill="none" stroke="black" stroke-width="0.5" points="1043,-37 743,-37 743,-18 1043,-18 1043,-37"/>
<text text-anchor="middle" x="893" y="-25" font-family="Vera Sans, DejaVu Sans, Liberation Sans, Arial, Helvetica, sans" font-size="10.00">pyVHDLModel.SyntaxModel.GenericFunctionInterfaceItem</text>
</g>
<!-- pyVHDLModel.SyntaxModel.GenericFunctionInterfaceItem&#45;&gt;pyGHDL.dom.InterfaceItem.GenericFunctionInterfaceItem -->
<g id="edge1" class="edge">
<title>pyVHDLModel.SyntaxModel.GenericFunctionInterfaceItem&#45;&gt;pyGHDL.dom.InterfaceItem.GenericFunctionInterfaceItem</title>
<path fill="none" stroke="black" stroke-width="0.5" d="M1043.45,-35.58C1053.47,-36.12 1063.56,-36.67 1073.59,-37.21"/>
<polygon fill="black" stroke="black" stroke-width="0.5" points="1073.74,-38.97 1078.83,-37.49 1073.93,-35.47 1073.74,-38.97"/>
</g>
<!-- pyVHDLModel.ModelEntity -->
<g id="node4" class="node">
<title>pyVHDLModel.ModelEntity</title>
<g id="a_node4"><a xlink:title="``ModelEntity`` is the base class for all classes in the VHDL language model,">
<polygon fill="none" stroke="black" stroke-width="0.5" points="149.5,-74 2.5,-74 2.5,-55 149.5,-55 149.5,-74"/>
<text text-anchor="middle" x="76" y="-62" font-family="Vera Sans, DejaVu Sans, Liberation Sans, Arial, Helvetica, sans" font-size="10.00">pyVHDLModel.ModelEntity</text>
</a>
</g>
</g>
<!-- pyVHDLModel.SyntaxModel.SubProgramm -->
<g id="node7" class="node">
<title>pyVHDLModel.SyntaxModel.SubProgramm</title>
<polygon fill="none" stroke="black" stroke-width="0.5" points="412,-56 188,-56 188,-37 412,-37 412,-56"/>
<text text-anchor="middle" x="300" y="-44" font-family="Vera Sans, DejaVu Sans, Liberation Sans, Arial, Helvetica, sans" font-size="10.00">pyVHDLModel.SyntaxModel.SubProgramm</text>
</g>
<!-- pyVHDLModel.ModelEntity&#45;&gt;pyVHDLModel.SyntaxModel.SubProgramm -->
<g id="edge7" class="edge">
<title>pyVHDLModel.ModelEntity&#45;&gt;pyVHDLModel.SyntaxModel.SubProgramm</title>
<path fill="none" stroke="black" stroke-width="0.5" d="M149.69,-58.61C160.33,-57.74 171.5,-56.84 182.74,-55.93"/>
<polygon fill="black" stroke="black" stroke-width="0.5" points="183.07,-57.66 187.91,-55.51 182.79,-54.17 183.07,-57.66"/>
</g>
<!-- pyVHDLModel.NamedEntity -->
<g id="node5" class="node">
<title>pyVHDLModel.NamedEntity</title>
<g id="a_node5"><a xlink:title="A ``NamedEntity`` is a mixin class for all VHDL entities that have identifiers.">
<polygon fill="none" stroke="black" stroke-width="0.5" points="152,-37 0,-37 0,-18 152,-18 152,-37"/>
<text text-anchor="middle" x="76" y="-25" font-family="Vera Sans, DejaVu Sans, Liberation Sans, Arial, Helvetica, sans" font-size="10.00">pyVHDLModel.NamedEntity</text>
</a>
</g>
</g>
<!-- pyVHDLModel.NamedEntity&#45;&gt;pyVHDLModel.SyntaxModel.SubProgramm -->
<g id="edge8" class="edge">
<title>pyVHDLModel.NamedEntity&#45;&gt;pyVHDLModel.SyntaxModel.SubProgramm</title>
<path fill="none" stroke="black" stroke-width="0.5" d="M152.16,-33.93C162,-34.77 172.25,-35.65 182.57,-36.54"/>
<polygon fill="black" stroke="black" stroke-width="0.5" points="182.51,-38.29 187.64,-36.97 182.81,-34.8 182.51,-38.29"/>
</g>
<!-- pyVHDLModel.SyntaxModel.Function -->
<g id="node6" class="node">
<title>pyVHDLModel.SyntaxModel.Function</title>
<polygon fill="none" stroke="black" stroke-width="0.5" points="676,-56 479,-56 479,-37 676,-37 676,-56"/>
<text text-anchor="middle" x="577.5" y="-44" font-family="Vera Sans, DejaVu Sans, Liberation Sans, Arial, Helvetica, sans" font-size="10.00">pyVHDLModel.SyntaxModel.Function</text>
</g>
<!-- pyVHDLModel.SyntaxModel.Function&#45;&gt;pyVHDLModel.SyntaxModel.GenericFunctionInterfaceItem -->
<g id="edge4" class="edge">
<title>pyVHDLModel.SyntaxModel.Function&#45;&gt;pyVHDLModel.SyntaxModel.GenericFunctionInterfaceItem</title>
<path fill="none" stroke="black" stroke-width="0.5" d="M676.4,-40.57C695.95,-39.38 716.92,-38.11 737.83,-36.84"/>
<polygon fill="black" stroke="black" stroke-width="0.5" points="737.97,-38.59 742.85,-36.54 737.76,-35.09 737.97,-38.59"/>
</g>
<!-- pyVHDLModel.SyntaxModel.SubProgramm&#45;&gt;pyVHDLModel.SyntaxModel.Function -->
<g id="edge3" class="edge">
<title>pyVHDLModel.SyntaxModel.SubProgramm&#45;&gt;pyVHDLModel.SyntaxModel.Function</title>
<path fill="none" stroke="black" stroke-width="0.5" d="M412.26,-46.5C432.5,-46.5 453.53,-46.5 473.52,-46.5"/>
<polygon fill="black" stroke="black" stroke-width="0.5" points="473.57,-48.25 478.57,-46.5 473.57,-44.75 473.57,-48.25"/>
</g>
<!-- pyVHDLModel.SyntaxModel.GenericInterfaceItem -->
<g id="node8" class="node">
<title>pyVHDLModel.SyntaxModel.GenericInterfaceItem</title>
<g id="a_node8"><a xlink:title="A ``GenericInterfaceItem`` is a mixin class for all generic interface items.">
<polygon fill="none" stroke="black" stroke-width="0.5" points="707,-19 448,-19 448,0 707,0 707,-19"/>
<text text-anchor="middle" x="577.5" y="-7" font-family="Vera Sans, DejaVu Sans, Liberation Sans, Arial, Helvetica, sans" font-size="10.00">pyVHDLModel.SyntaxModel.GenericInterfaceItem</text>
</a>
</g>
</g>
<!-- pyVHDLModel.SyntaxModel.GenericInterfaceItem&#45;&gt;pyVHDLModel.SyntaxModel.GenericFunctionInterfaceItem -->
<g id="edge5" class="edge">
<title>pyVHDLModel.SyntaxModel.GenericInterfaceItem&#45;&gt;pyVHDLModel.SyntaxModel.GenericFunctionInterfaceItem</title>
<path fill="none" stroke="black" stroke-width="0.5" d="M707.37,-16.9C717.46,-17.48 727.7,-18.07 737.93,-18.65"/>
<polygon fill="black" stroke="black" stroke-width="0.5" points="737.86,-20.4 742.95,-18.94 738.06,-16.91 737.86,-20.4"/>
</g>
<!-- pyVHDLModel.SyntaxModel.InterfaceItem -->
<g id="node9" class="node">
<title>pyVHDLModel.SyntaxModel.InterfaceItem</title>
<g id="a_node9"><a xlink:title="An ``InterfaceItem`` is a base&#45;class for all mixin&#45;classes for all interface">
<polygon fill="none" stroke="black" stroke-width="0.5" points="410.5,-19 189.5,-19 189.5,0 410.5,0 410.5,-19"/>
<text text-anchor="middle" x="300" y="-7" font-family="Vera Sans, DejaVu Sans, Liberation Sans, Arial, Helvetica, sans" font-size="10.00">pyVHDLModel.SyntaxModel.InterfaceItem</text>
</a>
</g>
</g>
<!-- pyVHDLModel.SyntaxModel.InterfaceItem&#45;&gt;pyVHDLModel.SyntaxModel.GenericInterfaceItem -->
<g id="edge6" class="edge">
<title>pyVHDLModel.SyntaxModel.InterfaceItem&#45;&gt;pyVHDLModel.SyntaxModel.GenericInterfaceItem</title>
<path fill="none" stroke="black" stroke-width="0.5" d="M410.68,-9.5C421.12,-9.5 431.79,-9.5 442.43,-9.5"/>
<polygon fill="black" stroke="black" stroke-width="0.5" points="442.65,-11.25 447.65,-9.5 442.65,-7.75 442.65,-11.25"/>
</g>
</g>
</svg>
