<?xml version="1.0" encoding="UTF-8" standalone="no"?>
<!DOCTYPE svg PUBLIC "-//W3C//DTD SVG 1.1//EN"
 "http://www.w3.org/Graphics/SVG/1.1/DTD/svg11.dtd">
<!-- Generated by graphviz version 2.43.0 (0)
 -->
<!-- Title: inheritance9965419403 Pages: 1 -->
<svg width="576pt" height="54pt"
 viewBox="0.00 0.00 576.00 53.74" xmlns="http://www.w3.org/2000/svg" xmlns:xlink="http://www.w3.org/1999/xlink">
<g id="graph0" class="graph" transform="scale(1.19 1.19) rotate(0) translate(4 60)">
<title>inheritance9965419403</title>
<polygon fill="white" stroke="transparent" points="-4,4 -4,-60 682,-60 682,4 -4,4"/>
<!-- pyGHDL.dom.DOMMixin -->
<g id="node1" class="node">
<title>pyGHDL.dom.DOMMixin</title>
<g id="a_node1"><a xlink:href="../pyGHDL.dom.html#pyGHDL.dom.DOMMixin" xlink:title="pyGHDL.dom.DOMMixin" target="_top">
<polygon fill="none" stroke="black" stroke-width="0.5" points="402,-56 267,-56 267,-37 402,-37 402,-56"/>
<text text-anchor="middle" x="334.5" y="-44" font-family="Vera Sans, DejaVu Sans, Liberation Sans, Arial, Helvetica, sans" font-size="10.00">pyGHDL.dom.DOMMixin</text>
</a>
</g>
</g>
<!-- pyGHDL.dom.Names.AttributeName -->
<g id="node2" class="node">
<title>pyGHDL.dom.Names.AttributeName</title>
<g id="a_node2"><a xlink:href="../pyGHDL/pyGHDL.dom.Names.html#pyGHDL.dom.Names.AttributeName" xlink:title="pyGHDL.dom.Names.AttributeName" target="_top">
<polygon fill="none" stroke="black" stroke-width="0.5" points="678,-37 484,-37 484,-18 678,-18 678,-37"/>
<text text-anchor="middle" x="581" y="-25" font-family="Vera Sans, DejaVu Sans, Liberation Sans, Arial, Helvetica, sans" font-size="10.00">pyGHDL.dom.Names.AttributeName</text>
</a>
</g>
</g>
<!-- pyGHDL.dom.DOMMixin&#45;&gt;pyGHDL.dom.Names.AttributeName -->
<g id="edge2" class="edge">
<title>pyGHDL.dom.DOMMixin&#45;&gt;pyGHDL.dom.Names.AttributeName</title>
<path fill="none" stroke="black" stroke-width="0.5" d="M402.31,-41.31C425.91,-39.47 453,-37.37 478.8,-35.36"/>
<polygon fill="black" stroke="black" stroke-width="0.5" points="479.09,-37.1 483.94,-34.96 478.82,-33.61 479.09,-37.1"/>
</g>
<!-- pyVHDLModel.SyntaxModel.AttributeName -->
<g id="node3" class="node">
<title>pyVHDLModel.SyntaxModel.AttributeName</title>
<polygon fill="none" stroke="black" stroke-width="0.5" points="448,-19 221,-19 221,0 448,0 448,-19"/>
<text text-anchor="middle" x="334.5" y="-7" font-family="Vera Sans, DejaVu Sans, Liberation Sans, Arial, Helvetica, sans" font-size="10.00">pyVHDLModel.SyntaxModel.AttributeName</text>
</g>
<!-- pyVHDLModel.SyntaxModel.AttributeName&#45;&gt;pyGHDL.dom.Names.AttributeName -->
<g id="edge1" class="edge">
<title>pyVHDLModel.SyntaxModel.AttributeName&#45;&gt;pyGHDL.dom.Names.AttributeName</title>
<path fill="none" stroke="black" stroke-width="0.5" d="M448.09,-17.79C458.23,-18.54 468.46,-19.29 478.49,-20.03"/>
<polygon fill="black" stroke="black" stroke-width="0.5" points="478.61,-21.79 483.72,-20.41 478.86,-18.3 478.61,-21.79"/>
</g>
<!-- pyVHDLModel.SyntaxModel.Name -->
<g id="node4" class="node">
<title>pyVHDLModel.SyntaxModel.Name</title>
<g id="a_node4"><a xlink:title="``Name`` is the base class for all *names* in the VHDL language model.">
<polygon fill="none" stroke="black" stroke-width="0.5" points="185,-19 0,-19 0,0 185,0 185,-19"/>
<text text-anchor="middle" x="92.5" y="-7" font-family="Vera Sans, DejaVu Sans, Liberation Sans, Arial, Helvetica, sans" font-size="10.00">pyVHDLModel.SyntaxModel.Name</text>
</a>
</g>
</g>
<!-- pyVHDLModel.SyntaxModel.Name&#45;&gt;pyVHDLModel.SyntaxModel.AttributeName -->
<g id="edge3" class="edge">
<title>pyVHDLModel.SyntaxModel.Name&#45;&gt;pyVHDLModel.SyntaxModel.AttributeName</title>
<path fill="none" stroke="black" stroke-width="0.5" d="M185.26,-9.5C195.27,-9.5 205.55,-9.5 215.82,-9.5"/>
<polygon fill="black" stroke="black" stroke-width="0.5" points="215.85,-11.25 220.85,-9.5 215.85,-7.75 215.85,-11.25"/>
</g>
</g>
</svg>
