<?xml version="1.0" encoding="UTF-8" standalone="no"?>
<!DOCTYPE svg PUBLIC "-//W3C//DTD SVG 1.1//EN"
 "http://www.w3.org/Graphics/SVG/1.1/DTD/svg11.dtd">
<!-- Generated by graphviz version 2.43.0 (0)
 -->
<!-- Title: inheritance48c7bbe1d0 Pages: 1 -->
<svg width="576pt" height="30pt"
 viewBox="0.00 0.00 576.00 30.14" xmlns="http://www.w3.org/2000/svg" xmlns:xlink="http://www.w3.org/1999/xlink">
<g id="graph0" class="graph" transform="scale(2.12 2.12) rotate(0) translate(4 60)">
<title>inheritance48c7bbe1d0</title>
<polygon fill="white" stroke="transparent" points="-4,4 -4,-60 1219,-60 1219,4 -4,4"/>
<!-- pyGHDL.dom.DOMMixin -->
<g id="node1" class="node">
<title>pyGHDL.dom.DOMMixin</title>
<g id="a_node1"><a xlink:href="../pyGHDL.dom.html#pyGHDL.dom.DOMMixin" xlink:title="pyGHDL.dom.DOMMixin" target="_top">
<polygon fill="none" stroke="black" stroke-width="0.5" points="879.5,-56 744.5,-56 744.5,-37 879.5,-37 879.5,-56"/>
<text text-anchor="middle" x="812" y="-44" font-family="Vera Sans, DejaVu Sans, Liberation Sans, Arial, Helvetica, sans" font-size="10.00">pyGHDL.dom.DOMMixin</text>
</a>
</g>
</g>
<!-- pyGHDL.dom.Symbol.SimpleSubtypeSymbol -->
<g id="node2" class="node">
<title>pyGHDL.dom.Symbol.SimpleSubtypeSymbol</title>
<g id="a_node2"><a xlink:href="../pyGHDL/pyGHDL.dom.Symbol.html#pyGHDL.dom.Symbol.SimpleSubtypeSymbol" xlink:title="pyGHDL.dom.Symbol.SimpleSubtypeSymbol" target="_top">
<polygon fill="none" stroke="black" stroke-width="0.5" points="1215,-37 981,-37 981,-18 1215,-18 1215,-37"/>
<text text-anchor="middle" x="1098" y="-25" font-family="Vera Sans, DejaVu Sans, Liberation Sans, Arial, Helvetica, sans" font-size="10.00">pyGHDL.dom.Symbol.SimpleSubtypeSymbol</text>
</a>
</g>
</g>
<!-- pyGHDL.dom.DOMMixin&#45;&gt;pyGHDL.dom.Symbol.SimpleSubtypeSymbol -->
<g id="edge2" class="edge">
<title>pyGHDL.dom.DOMMixin&#45;&gt;pyGHDL.dom.Symbol.SimpleSubtypeSymbol</title>
<path fill="none" stroke="black" stroke-width="0.5" d="M879.59,-42.05C908.22,-40.13 942.62,-37.83 975.52,-35.63"/>
<polygon fill="black" stroke="black" stroke-width="0.5" points="975.91,-37.36 980.78,-35.28 975.68,-33.86 975.91,-37.36"/>
</g>
<!-- pyVHDLModel.SyntaxModel.SimpleSubtypeSymbol -->
<g id="node3" class="node">
<title>pyVHDLModel.SyntaxModel.SimpleSubtypeSymbol</title>
<polygon fill="none" stroke="black" stroke-width="0.5" points="945,-19 679,-19 679,0 945,0 945,-19"/>
<text text-anchor="middle" x="812" y="-7" font-family="Vera Sans, DejaVu Sans, Liberation Sans, Arial, Helvetica, sans" font-size="10.00">pyVHDLModel.SyntaxModel.SimpleSubtypeSymbol</text>
</g>
<!-- pyVHDLModel.SyntaxModel.SimpleSubtypeSymbol&#45;&gt;pyGHDL.dom.Symbol.SimpleSubtypeSymbol -->
<g id="edge1" class="edge">
<title>pyVHDLModel.SyntaxModel.SimpleSubtypeSymbol&#45;&gt;pyGHDL.dom.Symbol.SimpleSubtypeSymbol</title>
<path fill="none" stroke="black" stroke-width="0.5" d="M945.02,-17.87C955.14,-18.51 965.32,-19.15 975.36,-19.79"/>
<polygon fill="black" stroke="black" stroke-width="0.5" points="975.5,-21.55 980.6,-20.12 975.72,-18.06 975.5,-21.55"/>
</g>
<!-- pyVHDLModel.ModelEntity -->
<g id="node4" class="node">
<title>pyVHDLModel.ModelEntity</title>
<g id="a_node4"><a xlink:title="``ModelEntity`` is the base class for all classes in the VHDL language model,">
<polygon fill="none" stroke="black" stroke-width="0.5" points="147,-19 0,-19 0,0 147,0 147,-19"/>
<text text-anchor="middle" x="73.5" y="-7" font-family="Vera Sans, DejaVu Sans, Liberation Sans, Arial, Helvetica, sans" font-size="10.00">pyVHDLModel.ModelEntity</text>
</a>
</g>
</g>
<!-- pyVHDLModel.SyntaxModel.Symbol -->
<g id="node6" class="node">
<title>pyVHDLModel.SyntaxModel.Symbol</title>
<polygon fill="none" stroke="black" stroke-width="0.5" points="375,-19 183,-19 183,0 375,0 375,-19"/>
<text text-anchor="middle" x="279" y="-7" font-family="Vera Sans, DejaVu Sans, Liberation Sans, Arial, Helvetica, sans" font-size="10.00">pyVHDLModel.SyntaxModel.Symbol</text>
</g>
<!-- pyVHDLModel.ModelEntity&#45;&gt;pyVHDLModel.SyntaxModel.Symbol -->
<g id="edge5" class="edge">
<title>pyVHDLModel.ModelEntity&#45;&gt;pyVHDLModel.SyntaxModel.Symbol</title>
<path fill="none" stroke="black" stroke-width="0.5" d="M147.11,-9.5C157.01,-9.5 167.32,-9.5 177.62,-9.5"/>
<polygon fill="black" stroke="black" stroke-width="0.5" points="177.66,-11.25 182.66,-9.5 177.66,-7.75 177.66,-11.25"/>
</g>
<!-- pyVHDLModel.SyntaxModel.SubtypeSymbol -->
<g id="node5" class="node">
<title>pyVHDLModel.SyntaxModel.SubtypeSymbol</title>
<polygon fill="none" stroke="black" stroke-width="0.5" points="643,-19 411,-19 411,0 643,0 643,-19"/>
<text text-anchor="middle" x="527" y="-7" font-family="Vera Sans, DejaVu Sans, Liberation Sans, Arial, Helvetica, sans" font-size="10.00">pyVHDLModel.SyntaxModel.SubtypeSymbol</text>
</g>
<!-- pyVHDLModel.SyntaxModel.SubtypeSymbol&#45;&gt;pyVHDLModel.SyntaxModel.SimpleSubtypeSymbol -->
<g id="edge3" class="edge">
<title>pyVHDLModel.SyntaxModel.SubtypeSymbol&#45;&gt;pyVHDLModel.SyntaxModel.SimpleSubtypeSymbol</title>
<path fill="none" stroke="black" stroke-width="0.5" d="M643.11,-9.5C653.23,-9.5 663.55,-9.5 673.83,-9.5"/>
<polygon fill="black" stroke="black" stroke-width="0.5" points="673.87,-11.25 678.87,-9.5 673.87,-7.75 673.87,-11.25"/>
</g>
<!-- pyVHDLModel.SyntaxModel.Symbol&#45;&gt;pyVHDLModel.SyntaxModel.SubtypeSymbol -->
<g id="edge4" class="edge">
<title>pyVHDLModel.SyntaxModel.Symbol&#45;&gt;pyVHDLModel.SyntaxModel.SubtypeSymbol</title>
<path fill="none" stroke="black" stroke-width="0.5" d="M375.11,-9.5C385.1,-9.5 395.35,-9.5 405.58,-9.5"/>
<polygon fill="black" stroke="black" stroke-width="0.5" points="405.6,-11.25 410.6,-9.5 405.6,-7.75 405.6,-11.25"/>
</g>
</g>
</svg>
