<?xml version="1.0" encoding="UTF-8" standalone="no"?>
<!DOCTYPE svg PUBLIC "-//W3C//DTD SVG 1.1//EN"
 "http://www.w3.org/Graphics/SVG/1.1/DTD/svg11.dtd">
<!-- Generated by graphviz version 2.43.0 (0)
 -->
<!-- Title: inheritance083d3926f6 Pages: 1 -->
<svg width="576pt" height="75pt"
 viewBox="0.00 0.00 576.00 75.11" xmlns="http://www.w3.org/2000/svg" xmlns:xlink="http://www.w3.org/1999/xlink">
<g id="graph0" class="graph" transform="scale(2.33 2.33) rotate(0) translate(4 171)">
<title>inheritance083d3926f6</title>
<polygon fill="white" stroke="transparent" points="-4,4 -4,-171 1338,-171 1338,4 -4,4"/>
<!-- pyGHDL.dom.Concurrent.ConcurrentBlockStatement -->
<g id="node1" class="node">
<title>pyGHDL.dom.Concurrent.ConcurrentBlockStatement</title>
<g id="a_node1"><a xlink:href="../pyGHDL/pyGHDL.dom.Concurrent.html#pyGHDL.dom.Concurrent.ConcurrentBlockStatement" xlink:title="pyGHDL.dom.Concurrent.ConcurrentBlockStatement" target="_top">
<polygon fill="none" stroke="black" stroke-width="0.5" points="1334,-74 1062,-74 1062,-55 1334,-55 1334,-74"/>
<text text-anchor="middle" x="1198" y="-62" font-family="Vera Sans, DejaVu Sans, Liberation Sans, Arial, Helvetica, sans" font-size="10.00">pyGHDL.dom.Concurrent.ConcurrentBlockStatement</text>
</a>
</g>
</g>
<!-- pyVHDLModel.SyntaxModel.ConcurrentBlockStatement -->
<g id="node2" class="node">
<title>pyVHDLModel.SyntaxModel.ConcurrentBlockStatement</title>
<polygon fill="none" stroke="black" stroke-width="0.5" points="1026,-93 739,-93 739,-74 1026,-74 1026,-93"/>
<text text-anchor="middle" x="882.5" y="-81" font-family="Vera Sans, DejaVu Sans, Liberation Sans, Arial, Helvetica, sans" font-size="10.00">pyVHDLModel.SyntaxModel.ConcurrentBlockStatement</text>
</g>
<!-- pyVHDLModel.SyntaxModel.ConcurrentBlockStatement&#45;&gt;pyGHDL.dom.Concurrent.ConcurrentBlockStatement -->
<g id="edge1" class="edge">
<title>pyVHDLModel.SyntaxModel.ConcurrentBlockStatement&#45;&gt;pyGHDL.dom.Concurrent.ConcurrentBlockStatement</title>
<path fill="none" stroke="black" stroke-width="0.5" d="M1026.03,-74.86C1036.32,-74.24 1046.69,-73.61 1056.96,-72.99"/>
<polygon fill="black" stroke="black" stroke-width="0.5" points="1057.11,-74.73 1061.99,-72.68 1056.9,-71.24 1057.11,-74.73"/>
</g>
<!-- pyGHDL.dom.DOMMixin -->
<g id="node3" class="node">
<title>pyGHDL.dom.DOMMixin</title>
<g id="a_node3"><a xlink:href="../pyGHDL.dom.html#pyGHDL.dom.DOMMixin" xlink:title="pyGHDL.dom.DOMMixin" target="_top">
<polygon fill="none" stroke="black" stroke-width="0.5" points="950,-56 815,-56 815,-37 950,-37 950,-56"/>
<text text-anchor="middle" x="882.5" y="-44" font-family="Vera Sans, DejaVu Sans, Liberation Sans, Arial, Helvetica, sans" font-size="10.00">pyGHDL.dom.DOMMixin</text>
</a>
</g>
</g>
<!-- pyGHDL.dom.DOMMixin&#45;&gt;pyGHDL.dom.Concurrent.ConcurrentBlockStatement -->
<g id="edge2" class="edge">
<title>pyGHDL.dom.DOMMixin&#45;&gt;pyGHDL.dom.Concurrent.ConcurrentBlockStatement</title>
<path fill="none" stroke="black" stroke-width="0.5" d="M950.37,-50.34C981.39,-52.12 1019.51,-54.31 1056.42,-56.43"/>
<polygon fill="black" stroke="black" stroke-width="0.5" points="1056.76,-58.2 1061.85,-56.74 1056.96,-54.71 1056.76,-58.2"/>
</g>
<!-- pyVHDLModel.LabeledEntity -->
<g id="node4" class="node">
<title>pyVHDLModel.LabeledEntity</title>
<g id="a_node4"><a xlink:title="A ``LabeledEntity`` is a mixin class for all VHDL entities that can have">
<polygon fill="none" stroke="black" stroke-width="0.5" points="155,-167 0,-167 0,-148 155,-148 155,-167"/>
<text text-anchor="middle" x="77.5" y="-155" font-family="Vera Sans, DejaVu Sans, Liberation Sans, Arial, Helvetica, sans" font-size="10.00">pyVHDLModel.LabeledEntity</text>
</a>
</g>
</g>
<!-- pyVHDLModel.LabeledEntity&#45;&gt;pyVHDLModel.SyntaxModel.ConcurrentBlockStatement -->
<g id="edge5" class="edge">
<title>pyVHDLModel.LabeledEntity&#45;&gt;pyVHDLModel.SyntaxModel.ConcurrentBlockStatement</title>
<path fill="none" stroke="black" stroke-width="0.5" d="M155.1,-162.01C273.53,-167.48 507.79,-172.29 703,-139.5 757.65,-130.32 818.74,-108.5 853.41,-94.97"/>
<polygon fill="black" stroke="black" stroke-width="0.5" points="854.32,-96.5 858.33,-93.04 853.04,-93.24 854.32,-96.5"/>
</g>
<!-- pyVHDLModel.SyntaxModel.Statement -->
<g id="node10" class="node">
<title>pyVHDLModel.SyntaxModel.Statement</title>
<polygon fill="none" stroke="black" stroke-width="0.5" points="397,-130 191,-130 191,-111 397,-111 397,-130"/>
<text text-anchor="middle" x="294" y="-118" font-family="Vera Sans, DejaVu Sans, Liberation Sans, Arial, Helvetica, sans" font-size="10.00">pyVHDLModel.SyntaxModel.Statement</text>
</g>
<!-- pyVHDLModel.LabeledEntity&#45;&gt;pyVHDLModel.SyntaxModel.Statement -->
<g id="edge10" class="edge">
<title>pyVHDLModel.LabeledEntity&#45;&gt;pyVHDLModel.SyntaxModel.Statement</title>
<path fill="none" stroke="black" stroke-width="0.5" d="M133.74,-147.97C163.9,-142.77 201.29,-136.32 232.27,-130.98"/>
<polygon fill="black" stroke="black" stroke-width="0.5" points="232.95,-132.63 237.58,-130.06 232.35,-129.19 232.95,-132.63"/>
</g>
<!-- pyVHDLModel.ModelEntity -->
<g id="node5" class="node">
<title>pyVHDLModel.ModelEntity</title>
<g id="a_node5"><a xlink:title="``ModelEntity`` is the base class for all classes in the VHDL language model,">
<polygon fill="none" stroke="black" stroke-width="0.5" points="151,-130 4,-130 4,-111 151,-111 151,-130"/>
<text text-anchor="middle" x="77.5" y="-118" font-family="Vera Sans, DejaVu Sans, Liberation Sans, Arial, Helvetica, sans" font-size="10.00">pyVHDLModel.ModelEntity</text>
</a>
</g>
</g>
<!-- pyVHDLModel.ModelEntity&#45;&gt;pyVHDLModel.SyntaxModel.Statement -->
<g id="edge9" class="edge">
<title>pyVHDLModel.ModelEntity&#45;&gt;pyVHDLModel.SyntaxModel.Statement</title>
<path fill="none" stroke="black" stroke-width="0.5" d="M151.12,-120.5C162.29,-120.5 174.01,-120.5 185.74,-120.5"/>
<polygon fill="black" stroke="black" stroke-width="0.5" points="185.77,-122.25 190.77,-120.5 185.77,-118.75 185.77,-122.25"/>
</g>
<!-- pyVHDLModel.SyntaxModel.BlockStatement -->
<g id="node6" class="node">
<title>pyVHDLModel.SyntaxModel.BlockStatement</title>
<g id="a_node6"><a xlink:title="A ``BlockStatement`` is a mixin&#45;class for all block statements.">
<polygon fill="none" stroke="black" stroke-width="0.5" points="684.5,-93 451.5,-93 451.5,-74 684.5,-74 684.5,-93"/>
<text text-anchor="middle" x="568" y="-81" font-family="Vera Sans, DejaVu Sans, Liberation Sans, Arial, Helvetica, sans" font-size="10.00">pyVHDLModel.SyntaxModel.BlockStatement</text>
</a>
</g>
</g>
<!-- pyVHDLModel.SyntaxModel.BlockStatement&#45;&gt;pyVHDLModel.SyntaxModel.ConcurrentBlockStatement -->
<g id="edge4" class="edge">
<title>pyVHDLModel.SyntaxModel.BlockStatement&#45;&gt;pyVHDLModel.SyntaxModel.ConcurrentBlockStatement</title>
<path fill="none" stroke="black" stroke-width="0.5" d="M684.92,-83.5C700.82,-83.5 717.32,-83.5 733.69,-83.5"/>
<polygon fill="black" stroke="black" stroke-width="0.5" points="733.76,-85.25 738.76,-83.5 733.76,-81.75 733.76,-85.25"/>
</g>
<!-- pyVHDLModel.SyntaxModel.ConcurrentStatement -->
<g id="node7" class="node">
<title>pyVHDLModel.SyntaxModel.ConcurrentStatement</title>
<g id="a_node7"><a xlink:title="A ``ConcurrentStatement`` is a base&#45;class for all concurrent statements.">
<polygon fill="none" stroke="black" stroke-width="0.5" points="698,-130 438,-130 438,-111 698,-111 698,-130"/>
<text text-anchor="middle" x="568" y="-118" font-family="Vera Sans, DejaVu Sans, Liberation Sans, Arial, Helvetica, sans" font-size="10.00">pyVHDLModel.SyntaxModel.ConcurrentStatement</text>
</a>
</g>
</g>
<!-- pyVHDLModel.SyntaxModel.ConcurrentStatement&#45;&gt;pyVHDLModel.SyntaxModel.ConcurrentBlockStatement -->
<g id="edge3" class="edge">
<title>pyVHDLModel.SyntaxModel.ConcurrentStatement&#45;&gt;pyVHDLModel.SyntaxModel.ConcurrentBlockStatement</title>
<path fill="none" stroke="black" stroke-width="0.5" d="M649.48,-110.97C694.32,-105.66 750.14,-99.05 795.79,-93.65"/>
<polygon fill="black" stroke="black" stroke-width="0.5" points="796.27,-95.35 801.03,-93.03 795.85,-91.88 796.27,-95.35"/>
</g>
<!-- pyVHDLModel.SyntaxModel.ConcurrentDeclarations -->
<g id="node8" class="node">
<title>pyVHDLModel.SyntaxModel.ConcurrentDeclarations</title>
<polygon fill="none" stroke="black" stroke-width="0.5" points="703,-56 433,-56 433,-37 703,-37 703,-56"/>
<text text-anchor="middle" x="568" y="-44" font-family="Vera Sans, DejaVu Sans, Liberation Sans, Arial, Helvetica, sans" font-size="10.00">pyVHDLModel.SyntaxModel.ConcurrentDeclarations</text>
</g>
<!-- pyVHDLModel.SyntaxModel.ConcurrentDeclarations&#45;&gt;pyVHDLModel.SyntaxModel.ConcurrentBlockStatement -->
<g id="edge6" class="edge">
<title>pyVHDLModel.SyntaxModel.ConcurrentDeclarations&#45;&gt;pyVHDLModel.SyntaxModel.ConcurrentBlockStatement</title>
<path fill="none" stroke="black" stroke-width="0.5" d="M649.48,-56.03C694.32,-61.34 750.14,-67.95 795.79,-73.35"/>
<polygon fill="black" stroke="black" stroke-width="0.5" points="795.85,-75.12 801.03,-73.97 796.27,-71.65 795.85,-75.12"/>
</g>
<!-- pyVHDLModel.SyntaxModel.ConcurrentStatements -->
<g id="node9" class="node">
<title>pyVHDLModel.SyntaxModel.ConcurrentStatements</title>
<polygon fill="none" stroke="black" stroke-width="0.5" points="700.5,-19 435.5,-19 435.5,0 700.5,0 700.5,-19"/>
<text text-anchor="middle" x="568" y="-7" font-family="Vera Sans, DejaVu Sans, Liberation Sans, Arial, Helvetica, sans" font-size="10.00">pyVHDLModel.SyntaxModel.ConcurrentStatements</text>
</g>
<!-- pyVHDLModel.SyntaxModel.ConcurrentStatements&#45;&gt;pyVHDLModel.SyntaxModel.ConcurrentBlockStatement -->
<g id="edge7" class="edge">
<title>pyVHDLModel.SyntaxModel.ConcurrentStatements&#45;&gt;pyVHDLModel.SyntaxModel.ConcurrentBlockStatement</title>
<path fill="none" stroke="black" stroke-width="0.5" d="M682.57,-19.09C689.65,-21.41 696.52,-24.19 703,-27.5 723.71,-38.1 718.25,-54.98 739,-65.5 744.02,-68.05 749.27,-70.28 754.66,-72.24"/>
<polygon fill="black" stroke="black" stroke-width="0.5" points="754.35,-73.99 759.65,-73.97 755.5,-70.68 754.35,-73.99"/>
</g>
<!-- pyVHDLModel.SyntaxModel.Statement&#45;&gt;pyVHDLModel.SyntaxModel.ConcurrentStatement -->
<g id="edge8" class="edge">
<title>pyVHDLModel.SyntaxModel.Statement&#45;&gt;pyVHDLModel.SyntaxModel.ConcurrentStatement</title>
<path fill="none" stroke="black" stroke-width="0.5" d="M397.06,-120.5C408.66,-120.5 420.62,-120.5 432.57,-120.5"/>
<polygon fill="black" stroke="black" stroke-width="0.5" points="432.68,-122.25 437.68,-120.5 432.68,-118.75 432.68,-122.25"/>
</g>
</g>
</svg>
