<?xml version="1.0" encoding="UTF-8" standalone="no"?>
<!DOCTYPE svg PUBLIC "-//W3C//DTD SVG 1.1//EN"
 "http://www.w3.org/Graphics/SVG/1.1/DTD/svg11.dtd">
<!-- Generated by graphviz version 2.43.0 (0)
 -->
<!-- Title: inheritancebac45984bc Pages: 1 -->
<svg width="576pt" height="23pt"
 viewBox="0.00 0.00 576.00 23.14" xmlns="http://www.w3.org/2000/svg" xmlns:xlink="http://www.w3.org/1999/xlink">
<g id="graph0" class="graph" transform="scale(2.77 2.77) rotate(0) translate(4 60)">
<title>inheritancebac45984bc</title>
<polygon fill="white" stroke="transparent" points="-4,4 -4,-60 1589,-60 1589,4 -4,4"/>
<!-- pyGHDL.dom.DOMMixin -->
<g id="node1" class="node">
<title>pyGHDL.dom.DOMMixin</title>
<g id="a_node1"><a xlink:href="../pyGHDL.dom.html#pyGHDL.dom.DOMMixin" xlink:title="pyGHDL.dom.DOMMixin" target="_top">
<polygon fill="none" stroke="black" stroke-width="0.5" points="1213,-56 1078,-56 1078,-37 1213,-37 1213,-56"/>
<text text-anchor="middle" x="1145.5" y="-44" font-family="Vera Sans, DejaVu Sans, Liberation Sans, Arial, Helvetica, sans" font-size="10.00">pyGHDL.dom.DOMMixin</text>
</a>
</g>
</g>
<!-- pyGHDL.dom.Expression.ConcatenationExpression -->
<g id="node2" class="node">
<title>pyGHDL.dom.Expression.ConcatenationExpression</title>
<g id="a_node2"><a xlink:href="../pyGHDL/pyGHDL.dom.Expression.html#pyGHDL.dom.Expression.ConcatenationExpression" xlink:title="pyGHDL.dom.Expression.ConcatenationExpression" target="_top">
<polygon fill="none" stroke="black" stroke-width="0.5" points="1585,-37 1321,-37 1321,-18 1585,-18 1585,-37"/>
<text text-anchor="middle" x="1453" y="-25" font-family="Vera Sans, DejaVu Sans, Liberation Sans, Arial, Helvetica, sans" font-size="10.00">pyGHDL.dom.Expression.ConcatenationExpression</text>
</a>
</g>
</g>
<!-- pyGHDL.dom.DOMMixin&#45;&gt;pyGHDL.dom.Expression.ConcatenationExpression -->
<g id="edge2" class="edge">
<title>pyGHDL.dom.DOMMixin&#45;&gt;pyGHDL.dom.Expression.ConcatenationExpression</title>
<path fill="none" stroke="black" stroke-width="0.5" d="M1213.17,-42.35C1243.29,-40.48 1280.04,-38.19 1315.59,-35.98"/>
<polygon fill="black" stroke="black" stroke-width="0.5" points="1315.95,-37.71 1320.83,-35.66 1315.73,-34.22 1315.95,-37.71"/>
</g>
<!-- pyVHDLModel.SyntaxModel.ConcatenationExpression -->
<g id="node3" class="node">
<title>pyVHDLModel.SyntaxModel.ConcatenationExpression</title>
<polygon fill="none" stroke="black" stroke-width="0.5" points="1285,-19 1006,-19 1006,0 1285,0 1285,-19"/>
<text text-anchor="middle" x="1145.5" y="-7" font-family="Vera Sans, DejaVu Sans, Liberation Sans, Arial, Helvetica, sans" font-size="10.00">pyVHDLModel.SyntaxModel.ConcatenationExpression</text>
</g>
<!-- pyVHDLModel.SyntaxModel.ConcatenationExpression&#45;&gt;pyGHDL.dom.Expression.ConcatenationExpression -->
<g id="edge1" class="edge">
<title>pyVHDLModel.SyntaxModel.ConcatenationExpression&#45;&gt;pyGHDL.dom.Expression.ConcatenationExpression</title>
<path fill="none" stroke="black" stroke-width="0.5" d="M1285.39,-17.68C1295.46,-18.28 1305.61,-18.87 1315.66,-19.47"/>
<polygon fill="black" stroke="black" stroke-width="0.5" points="1315.81,-21.23 1320.91,-19.78 1316.02,-17.73 1315.81,-21.23"/>
</g>
<!-- pyVHDLModel.ModelEntity -->
<g id="node4" class="node">
<title>pyVHDLModel.ModelEntity</title>
<g id="a_node4"><a xlink:title="``ModelEntity`` is the base class for all classes in the VHDL language model,">
<polygon fill="none" stroke="black" stroke-width="0.5" points="147,-19 0,-19 0,0 147,0 147,-19"/>
<text text-anchor="middle" x="73.5" y="-7" font-family="Vera Sans, DejaVu Sans, Liberation Sans, Arial, Helvetica, sans" font-size="10.00">pyVHDLModel.ModelEntity</text>
</a>
</g>
</g>
<!-- pyVHDLModel.SyntaxModel.BaseExpression -->
<g id="node7" class="node">
<title>pyVHDLModel.SyntaxModel.BaseExpression</title>
<g id="a_node7"><a xlink:title="A ``BaseExpression`` is a base&#45;class for all expressions.">
<polygon fill="none" stroke="black" stroke-width="0.5" points="416,-19 183,-19 183,0 416,0 416,-19"/>
<text text-anchor="middle" x="299.5" y="-7" font-family="Vera Sans, DejaVu Sans, Liberation Sans, Arial, Helvetica, sans" font-size="10.00">pyVHDLModel.SyntaxModel.BaseExpression</text>
</a>
</g>
</g>
<!-- pyVHDLModel.ModelEntity&#45;&gt;pyVHDLModel.SyntaxModel.BaseExpression -->
<g id="edge4" class="edge">
<title>pyVHDLModel.ModelEntity&#45;&gt;pyVHDLModel.SyntaxModel.BaseExpression</title>
<path fill="none" stroke="black" stroke-width="0.5" d="M147.23,-9.5C157,-9.5 167.22,-9.5 177.55,-9.5"/>
<polygon fill="black" stroke="black" stroke-width="0.5" points="177.63,-11.25 182.63,-9.5 177.63,-7.75 177.63,-11.25"/>
</g>
<!-- pyVHDLModel.SyntaxModel.AddingExpression -->
<g id="node5" class="node">
<title>pyVHDLModel.SyntaxModel.AddingExpression</title>
<g id="a_node5"><a xlink:title="A ``AddingExpression`` is a base&#45;class for all adding expressions.">
<polygon fill="none" stroke="black" stroke-width="0.5" points="970,-19 728,-19 728,0 970,0 970,-19"/>
<text text-anchor="middle" x="849" y="-7" font-family="Vera Sans, DejaVu Sans, Liberation Sans, Arial, Helvetica, sans" font-size="10.00">pyVHDLModel.SyntaxModel.AddingExpression</text>
</a>
</g>
</g>
<!-- pyVHDLModel.SyntaxModel.AddingExpression&#45;&gt;pyVHDLModel.SyntaxModel.ConcatenationExpression -->
<g id="edge6" class="edge">
<title>pyVHDLModel.SyntaxModel.AddingExpression&#45;&gt;pyVHDLModel.SyntaxModel.ConcatenationExpression</title>
<path fill="none" stroke="black" stroke-width="0.5" d="M970.21,-9.5C980.32,-9.5 990.61,-9.5 1000.88,-9.5"/>
<polygon fill="black" stroke="black" stroke-width="0.5" points="1000.92,-11.25 1005.92,-9.5 1000.92,-7.75 1000.92,-11.25"/>
</g>
<!-- pyVHDLModel.SyntaxModel.BinaryExpression -->
<g id="node6" class="node">
<title>pyVHDLModel.SyntaxModel.BinaryExpression</title>
<g id="a_node6"><a xlink:title="A ``BinaryExpression`` is a base&#45;class for all binary expressions.">
<polygon fill="none" stroke="black" stroke-width="0.5" points="692,-19 452,-19 452,0 692,0 692,-19"/>
<text text-anchor="middle" x="572" y="-7" font-family="Vera Sans, DejaVu Sans, Liberation Sans, Arial, Helvetica, sans" font-size="10.00">pyVHDLModel.SyntaxModel.BinaryExpression</text>
</a>
</g>
</g>
<!-- pyVHDLModel.SyntaxModel.BinaryExpression&#45;&gt;pyVHDLModel.SyntaxModel.AddingExpression -->
<g id="edge3" class="edge">
<title>pyVHDLModel.SyntaxModel.BinaryExpression&#45;&gt;pyVHDLModel.SyntaxModel.AddingExpression</title>
<path fill="none" stroke="black" stroke-width="0.5" d="M692.02,-9.5C702.25,-9.5 712.62,-9.5 722.89,-9.5"/>
<polygon fill="black" stroke="black" stroke-width="0.5" points="722.93,-11.25 727.93,-9.5 722.93,-7.75 722.93,-11.25"/>
</g>
<!-- pyVHDLModel.SyntaxModel.BaseExpression&#45;&gt;pyVHDLModel.SyntaxModel.BinaryExpression -->
<g id="edge5" class="edge">
<title>pyVHDLModel.SyntaxModel.BaseExpression&#45;&gt;pyVHDLModel.SyntaxModel.BinaryExpression</title>
<path fill="none" stroke="black" stroke-width="0.5" d="M416,-9.5C426.03,-9.5 436.2,-9.5 446.3,-9.5"/>
<polygon fill="black" stroke="black" stroke-width="0.5" points="446.57,-11.25 451.57,-9.5 446.57,-7.75 446.57,-11.25"/>
</g>
</g>
</svg>
