<?xml version="1.0" encoding="UTF-8" standalone="no"?>
<!DOCTYPE svg PUBLIC "-//W3C//DTD SVG 1.1//EN"
 "http://www.w3.org/Graphics/SVG/1.1/DTD/svg11.dtd">
<!-- Generated by graphviz version 2.43.0 (0)
 -->
<!-- Title: inheritance41faf8be4b Pages: 1 -->
<svg width="576pt" height="35pt"
 viewBox="0.00 0.00 576.00 35.01" xmlns="http://www.w3.org/2000/svg" xmlns:xlink="http://www.w3.org/1999/xlink">
<g id="graph0" class="graph" transform="scale(1.83 1.83) rotate(0) translate(4 60)">
<title>inheritance41faf8be4b</title>
<polygon fill="white" stroke="transparent" points="-4,4 -4,-60 1049,-60 1049,4 -4,4"/>
<!-- pyGHDL.dom.Aggregates.OthersAggregateElement -->
<g id="node1" class="node">
<title>pyGHDL.dom.Aggregates.OthersAggregateElement</title>
<g id="a_node1"><a xlink:href="../pyGHDL/pyGHDL.dom.Aggregates.html#pyGHDL.dom.Aggregates.OthersAggregateElement" xlink:title="pyGHDL.dom.Aggregates.OthersAggregateElement" target="_top">
<polygon fill="none" stroke="black" stroke-width="0.5" points="1045,-37 779,-37 779,-18 1045,-18 1045,-37"/>
<text text-anchor="middle" x="912" y="-25" font-family="Vera Sans, DejaVu Sans, Liberation Sans, Arial, Helvetica, sans" font-size="10.00">pyGHDL.dom.Aggregates.OthersAggregateElement</text>
</a>
</g>
</g>
<!-- pyVHDLModel.SyntaxModel.OthersAggregateElement -->
<g id="node2" class="node">
<title>pyVHDLModel.SyntaxModel.OthersAggregateElement</title>
<polygon fill="none" stroke="black" stroke-width="0.5" points="743,-56 465,-56 465,-37 743,-37 743,-56"/>
<text text-anchor="middle" x="604" y="-44" font-family="Vera Sans, DejaVu Sans, Liberation Sans, Arial, Helvetica, sans" font-size="10.00">pyVHDLModel.SyntaxModel.OthersAggregateElement</text>
</g>
<!-- pyVHDLModel.SyntaxModel.OthersAggregateElement&#45;&gt;pyGHDL.dom.Aggregates.OthersAggregateElement -->
<g id="edge1" class="edge">
<title>pyVHDLModel.SyntaxModel.OthersAggregateElement&#45;&gt;pyGHDL.dom.Aggregates.OthersAggregateElement</title>
<path fill="none" stroke="black" stroke-width="0.5" d="M743.23,-37.92C753.44,-37.28 763.73,-36.64 773.93,-36.01"/>
<polygon fill="black" stroke="black" stroke-width="0.5" points="774.05,-37.76 778.93,-35.7 773.84,-34.26 774.05,-37.76"/>
</g>
<!-- pyGHDL.dom.DOMMixin -->
<g id="node3" class="node">
<title>pyGHDL.dom.DOMMixin</title>
<g id="a_node3"><a xlink:href="../pyGHDL.dom.html#pyGHDL.dom.DOMMixin" xlink:title="pyGHDL.dom.DOMMixin" target="_top">
<polygon fill="none" stroke="black" stroke-width="0.5" points="671.5,-19 536.5,-19 536.5,0 671.5,0 671.5,-19"/>
<text text-anchor="middle" x="604" y="-7" font-family="Vera Sans, DejaVu Sans, Liberation Sans, Arial, Helvetica, sans" font-size="10.00">pyGHDL.dom.DOMMixin</text>
</a>
</g>
</g>
<!-- pyGHDL.dom.DOMMixin&#45;&gt;pyGHDL.dom.Aggregates.OthersAggregateElement -->
<g id="edge2" class="edge">
<title>pyGHDL.dom.DOMMixin&#45;&gt;pyGHDL.dom.Aggregates.OthersAggregateElement</title>
<path fill="none" stroke="black" stroke-width="0.5" d="M671.77,-13.43C701.78,-15.19 738.35,-17.34 773.78,-19.43"/>
<polygon fill="black" stroke="black" stroke-width="0.5" points="773.9,-21.19 779,-19.74 774.11,-17.69 773.9,-21.19"/>
</g>
<!-- pyVHDLModel.ModelEntity -->
<g id="node4" class="node">
<title>pyVHDLModel.ModelEntity</title>
<g id="a_node4"><a xlink:title="``ModelEntity`` is the base class for all classes in the VHDL language model,">
<polygon fill="none" stroke="black" stroke-width="0.5" points="147,-56 0,-56 0,-37 147,-37 147,-56"/>
<text text-anchor="middle" x="73.5" y="-44" font-family="Vera Sans, DejaVu Sans, Liberation Sans, Arial, Helvetica, sans" font-size="10.00">pyVHDLModel.ModelEntity</text>
</a>
</g>
</g>
<!-- pyVHDLModel.SyntaxModel.AggregateElement -->
<g id="node5" class="node">
<title>pyVHDLModel.SyntaxModel.AggregateElement</title>
<g id="a_node5"><a xlink:title="A ``AggregateElement`` is a base&#45;class for all aggregate elements.">
<polygon fill="none" stroke="black" stroke-width="0.5" points="429,-56 183,-56 183,-37 429,-37 429,-56"/>
<text text-anchor="middle" x="306" y="-44" font-family="Vera Sans, DejaVu Sans, Liberation Sans, Arial, Helvetica, sans" font-size="10.00">pyVHDLModel.SyntaxModel.AggregateElement</text>
</a>
</g>
</g>
<!-- pyVHDLModel.ModelEntity&#45;&gt;pyVHDLModel.SyntaxModel.AggregateElement -->
<g id="edge3" class="edge">
<title>pyVHDLModel.ModelEntity&#45;&gt;pyVHDLModel.SyntaxModel.AggregateElement</title>
<path fill="none" stroke="black" stroke-width="0.5" d="M147.12,-46.5C156.98,-46.5 167.33,-46.5 177.82,-46.5"/>
<polygon fill="black" stroke="black" stroke-width="0.5" points="177.97,-48.25 182.97,-46.5 177.97,-44.75 177.97,-48.25"/>
</g>
<!-- pyVHDLModel.SyntaxModel.AggregateElement&#45;&gt;pyVHDLModel.SyntaxModel.OthersAggregateElement -->
<g id="edge4" class="edge">
<title>pyVHDLModel.SyntaxModel.AggregateElement&#45;&gt;pyVHDLModel.SyntaxModel.OthersAggregateElement</title>
<path fill="none" stroke="black" stroke-width="0.5" d="M429.1,-46.5C439.23,-46.5 449.53,-46.5 459.79,-46.5"/>
<polygon fill="black" stroke="black" stroke-width="0.5" points="459.82,-48.25 464.82,-46.5 459.82,-44.75 459.82,-48.25"/>
</g>
</g>
</svg>
