<?xml version="1.0" encoding="UTF-8" standalone="no"?>
<!DOCTYPE svg PUBLIC "-//W3C//DTD SVG 1.1//EN"
 "http://www.w3.org/Graphics/SVG/1.1/DTD/svg11.dtd">
<!-- Generated by graphviz version 2.43.0 (0)
 -->
<!-- Title: inheritance740215f14c Pages: 1 -->
<svg width="576pt" height="30pt"
 viewBox="0.00 0.00 576.00 30.49" xmlns="http://www.w3.org/2000/svg" xmlns:xlink="http://www.w3.org/1999/xlink">
<g id="graph0" class="graph" transform="scale(2.1 2.1) rotate(0) translate(4 60)">
<title>inheritance740215f14c</title>
<polygon fill="white" stroke="transparent" points="-4,4 -4,-60 1205,-60 1205,4 -4,4"/>
<!-- pyGHDL.dom.DOMMixin -->
<g id="node1" class="node">
<title>pyGHDL.dom.DOMMixin</title>
<g id="a_node1"><a xlink:href="../pyGHDL.dom.html#pyGHDL.dom.DOMMixin" xlink:title="pyGHDL.dom.DOMMixin" target="_top">
<polygon fill="none" stroke="black" stroke-width="0.5" points="881.5,-56 746.5,-56 746.5,-37 881.5,-37 881.5,-56"/>
<text text-anchor="middle" x="814" y="-44" font-family="Vera Sans, DejaVu Sans, Liberation Sans, Arial, Helvetica, sans" font-size="10.00">pyGHDL.dom.DOMMixin</text>
</a>
</g>
</g>
<!-- pyGHDL.dom.Expression.SubtypeAllocation -->
<g id="node2" class="node">
<title>pyGHDL.dom.Expression.SubtypeAllocation</title>
<g id="a_node2"><a xlink:href="../pyGHDL/pyGHDL.dom.Expression.html#pyGHDL.dom.Expression.SubtypeAllocation" xlink:title="pyGHDL.dom.Expression.SubtypeAllocation" target="_top">
<polygon fill="none" stroke="black" stroke-width="0.5" points="1201,-37 972,-37 972,-18 1201,-18 1201,-37"/>
<text text-anchor="middle" x="1086.5" y="-25" font-family="Vera Sans, DejaVu Sans, Liberation Sans, Arial, Helvetica, sans" font-size="10.00">pyGHDL.dom.Expression.SubtypeAllocation</text>
</a>
</g>
</g>
<!-- pyGHDL.dom.DOMMixin&#45;&gt;pyGHDL.dom.Expression.SubtypeAllocation -->
<g id="edge2" class="edge">
<title>pyGHDL.dom.DOMMixin&#45;&gt;pyGHDL.dom.Expression.SubtypeAllocation</title>
<path fill="none" stroke="black" stroke-width="0.5" d="M881.52,-41.83C907.25,-40.02 937.5,-37.9 966.71,-35.84"/>
<polygon fill="black" stroke="black" stroke-width="0.5" points="966.9,-37.58 971.77,-35.49 966.66,-34.09 966.9,-37.58"/>
</g>
<!-- pyVHDLModel.SyntaxModel.SubtypeAllocation -->
<g id="node3" class="node">
<title>pyVHDLModel.SyntaxModel.SubtypeAllocation</title>
<polygon fill="none" stroke="black" stroke-width="0.5" points="936,-19 692,-19 692,0 936,0 936,-19"/>
<text text-anchor="middle" x="814" y="-7" font-family="Vera Sans, DejaVu Sans, Liberation Sans, Arial, Helvetica, sans" font-size="10.00">pyVHDLModel.SyntaxModel.SubtypeAllocation</text>
</g>
<!-- pyVHDLModel.SyntaxModel.SubtypeAllocation&#45;&gt;pyGHDL.dom.Expression.SubtypeAllocation -->
<g id="edge1" class="edge">
<title>pyVHDLModel.SyntaxModel.SubtypeAllocation&#45;&gt;pyGHDL.dom.Expression.SubtypeAllocation</title>
<path fill="none" stroke="black" stroke-width="0.5" d="M936.01,-17.55C946.28,-18.24 956.67,-18.93 966.93,-19.61"/>
<polygon fill="black" stroke="black" stroke-width="0.5" points="966.85,-21.36 971.95,-19.94 967.08,-17.87 966.85,-21.36"/>
</g>
<!-- pyVHDLModel.ModelEntity -->
<g id="node4" class="node">
<title>pyVHDLModel.ModelEntity</title>
<g id="a_node4"><a xlink:title="``ModelEntity`` is the base class for all classes in the VHDL language model,">
<polygon fill="none" stroke="black" stroke-width="0.5" points="147,-19 0,-19 0,0 147,0 147,-19"/>
<text text-anchor="middle" x="73.5" y="-7" font-family="Vera Sans, DejaVu Sans, Liberation Sans, Arial, Helvetica, sans" font-size="10.00">pyVHDLModel.ModelEntity</text>
</a>
</g>
</g>
<!-- pyVHDLModel.SyntaxModel.BaseExpression -->
<g id="node6" class="node">
<title>pyVHDLModel.SyntaxModel.BaseExpression</title>
<g id="a_node6"><a xlink:title="A ``BaseExpression`` is a base&#45;class for all expressions.">
<polygon fill="none" stroke="black" stroke-width="0.5" points="416,-19 183,-19 183,0 416,0 416,-19"/>
<text text-anchor="middle" x="299.5" y="-7" font-family="Vera Sans, DejaVu Sans, Liberation Sans, Arial, Helvetica, sans" font-size="10.00">pyVHDLModel.SyntaxModel.BaseExpression</text>
</a>
</g>
</g>
<!-- pyVHDLModel.ModelEntity&#45;&gt;pyVHDLModel.SyntaxModel.BaseExpression -->
<g id="edge4" class="edge">
<title>pyVHDLModel.ModelEntity&#45;&gt;pyVHDLModel.SyntaxModel.BaseExpression</title>
<path fill="none" stroke="black" stroke-width="0.5" d="M147.23,-9.5C157,-9.5 167.22,-9.5 177.55,-9.5"/>
<polygon fill="black" stroke="black" stroke-width="0.5" points="177.63,-11.25 182.63,-9.5 177.63,-7.75 177.63,-11.25"/>
</g>
<!-- pyVHDLModel.SyntaxModel.Allocation -->
<g id="node5" class="node">
<title>pyVHDLModel.SyntaxModel.Allocation</title>
<polygon fill="none" stroke="black" stroke-width="0.5" points="656,-19 452,-19 452,0 656,0 656,-19"/>
<text text-anchor="middle" x="554" y="-7" font-family="Vera Sans, DejaVu Sans, Liberation Sans, Arial, Helvetica, sans" font-size="10.00">pyVHDLModel.SyntaxModel.Allocation</text>
</g>
<!-- pyVHDLModel.SyntaxModel.Allocation&#45;&gt;pyVHDLModel.SyntaxModel.SubtypeAllocation -->
<g id="edge5" class="edge">
<title>pyVHDLModel.SyntaxModel.Allocation&#45;&gt;pyVHDLModel.SyntaxModel.SubtypeAllocation</title>
<path fill="none" stroke="black" stroke-width="0.5" d="M656.23,-9.5C666.3,-9.5 676.6,-9.5 686.89,-9.5"/>
<polygon fill="black" stroke="black" stroke-width="0.5" points="686.93,-11.25 691.93,-9.5 686.93,-7.75 686.93,-11.25"/>
</g>
<!-- pyVHDLModel.SyntaxModel.BaseExpression&#45;&gt;pyVHDLModel.SyntaxModel.Allocation -->
<g id="edge3" class="edge">
<title>pyVHDLModel.SyntaxModel.BaseExpression&#45;&gt;pyVHDLModel.SyntaxModel.Allocation</title>
<path fill="none" stroke="black" stroke-width="0.5" d="M416.04,-9.5C426.21,-9.5 436.48,-9.5 446.57,-9.5"/>
<polygon fill="black" stroke="black" stroke-width="0.5" points="446.83,-11.25 451.83,-9.5 446.83,-7.75 446.83,-11.25"/>
</g>
</g>
</svg>
