<?xml version="1.0" encoding="UTF-8" standalone="no"?>
<!DOCTYPE svg PUBLIC "-//W3C//DTD SVG 1.1//EN"
 "http://www.w3.org/Graphics/SVG/1.1/DTD/svg11.dtd">
<!-- Generated by graphviz version 2.43.0 (0)
 -->
<!-- Title: inheritance968846f823 Pages: 1 -->
<svg width="576pt" height="56pt"
 viewBox="0.00 0.00 576.00 55.94" xmlns="http://www.w3.org/2000/svg" xmlns:xlink="http://www.w3.org/1999/xlink">
<g id="graph0" class="graph" transform="scale(1.14 1.14) rotate(0) translate(4 60)">
<title>inheritance968846f823</title>
<polygon fill="white" stroke="transparent" points="-4,4 -4,-60 655,-60 655,4 -4,4"/>
<!-- pyGHDL.dom.DOMMixin -->
<g id="node1" class="node">
<title>pyGHDL.dom.DOMMixin</title>
<g id="a_node1"><a xlink:href="../pyGHDL.dom.html#pyGHDL.dom.DOMMixin" xlink:title="pyGHDL.dom.DOMMixin" target="_top">
<polygon fill="none" stroke="black" stroke-width="0.5" points="395.5,-56 260.5,-56 260.5,-37 395.5,-37 395.5,-56"/>
<text text-anchor="middle" x="328" y="-44" font-family="Vera Sans, DejaVu Sans, Liberation Sans, Arial, Helvetica, sans" font-size="10.00">pyGHDL.dom.DOMMixin</text>
</a>
</g>
</g>
<!-- pyGHDL.dom.Names.SlicedName -->
<g id="node2" class="node">
<title>pyGHDL.dom.Names.SlicedName</title>
<g id="a_node2"><a xlink:href="../pyGHDL/pyGHDL.dom.Names.html#pyGHDL.dom.Names.SlicedName" xlink:title="pyGHDL.dom.Names.SlicedName" target="_top">
<polygon fill="none" stroke="black" stroke-width="0.5" points="651,-37 471,-37 471,-18 651,-18 651,-37"/>
<text text-anchor="middle" x="561" y="-25" font-family="Vera Sans, DejaVu Sans, Liberation Sans, Arial, Helvetica, sans" font-size="10.00">pyGHDL.dom.Names.SlicedName</text>
</a>
</g>
</g>
<!-- pyGHDL.dom.DOMMixin&#45;&gt;pyGHDL.dom.Names.SlicedName -->
<g id="edge2" class="edge">
<title>pyGHDL.dom.DOMMixin&#45;&gt;pyGHDL.dom.Names.SlicedName</title>
<path fill="none" stroke="black" stroke-width="0.5" d="M395.5,-41.03C417.41,-39.23 442.19,-37.19 465.75,-35.25"/>
<polygon fill="black" stroke="black" stroke-width="0.5" points="465.92,-36.99 470.76,-34.84 465.64,-33.51 465.92,-36.99"/>
</g>
<!-- pyVHDLModel.SyntaxModel.SlicedName -->
<g id="node3" class="node">
<title>pyVHDLModel.SyntaxModel.SlicedName</title>
<polygon fill="none" stroke="black" stroke-width="0.5" points="435,-19 221,-19 221,0 435,0 435,-19"/>
<text text-anchor="middle" x="328" y="-7" font-family="Vera Sans, DejaVu Sans, Liberation Sans, Arial, Helvetica, sans" font-size="10.00">pyVHDLModel.SyntaxModel.SlicedName</text>
</g>
<!-- pyVHDLModel.SyntaxModel.SlicedName&#45;&gt;pyGHDL.dom.Names.SlicedName -->
<g id="edge1" class="edge">
<title>pyVHDLModel.SyntaxModel.SlicedName&#45;&gt;pyGHDL.dom.Names.SlicedName</title>
<path fill="none" stroke="black" stroke-width="0.5" d="M435.03,-17.76C445.24,-18.56 455.54,-19.36 465.61,-20.15"/>
<polygon fill="black" stroke="black" stroke-width="0.5" points="465.74,-21.91 470.86,-20.55 466.01,-18.42 465.74,-21.91"/>
</g>
<!-- pyVHDLModel.SyntaxModel.Name -->
<g id="node4" class="node">
<title>pyVHDLModel.SyntaxModel.Name</title>
<g id="a_node4"><a xlink:title="``Name`` is the base class for all *names* in the VHDL language model.">
<polygon fill="none" stroke="black" stroke-width="0.5" points="185,-19 0,-19 0,0 185,0 185,-19"/>
<text text-anchor="middle" x="92.5" y="-7" font-family="Vera Sans, DejaVu Sans, Liberation Sans, Arial, Helvetica, sans" font-size="10.00">pyVHDLModel.SyntaxModel.Name</text>
</a>
</g>
</g>
<!-- pyVHDLModel.SyntaxModel.Name&#45;&gt;pyVHDLModel.SyntaxModel.SlicedName -->
<g id="edge3" class="edge">
<title>pyVHDLModel.SyntaxModel.Name&#45;&gt;pyVHDLModel.SyntaxModel.SlicedName</title>
<path fill="none" stroke="black" stroke-width="0.5" d="M185.12,-9.5C195.22,-9.5 205.58,-9.5 215.89,-9.5"/>
<polygon fill="black" stroke="black" stroke-width="0.5" points="215.94,-11.25 220.94,-9.5 215.94,-7.75 215.94,-11.25"/>
</g>
</g>
</svg>
