<?xml version="1.0" encoding="UTF-8" standalone="no"?>
<!DOCTYPE svg PUBLIC "-//W3C//DTD SVG 1.1//EN"
 "http://www.w3.org/Graphics/SVG/1.1/DTD/svg11.dtd">
<!-- Generated by graphviz version 2.43.0 (0)
 -->
<!-- Title: inheritancefd9dafd4c2 Pages: 1 -->
<svg width="461pt" height="27pt"
 viewBox="0.00 0.00 461.00 27.00" xmlns="http://www.w3.org/2000/svg" xmlns:xlink="http://www.w3.org/1999/xlink">
<g id="graph0" class="graph" transform="scale(1 1) rotate(0) translate(4 23)">
<title>inheritancefd9dafd4c2</title>
<polygon fill="white" stroke="transparent" points="-4,4 -4,-23 457,-23 457,4 -4,4"/>
<!-- enum.Enum -->
<g id="node1" class="node">
<title>enum.Enum</title>
<g id="a_node1"><a xlink:title="Generic enumeration.">
<polygon fill="none" stroke="black" stroke-width="0.5" points="75,-19 0,-19 0,0 75,0 75,-19"/>
<text text-anchor="middle" x="37.5" y="-7" font-family="Vera Sans, DejaVu Sans, Liberation Sans, Arial, Helvetica, sans" font-size="10.00">enum.Enum</text>
</a>
</g>
</g>
<!-- enum.IntEnum -->
<g id="node2" class="node">
<title>enum.IntEnum</title>
<g id="a_node2"><a xlink:title="Enum where members are also (and must be) ints">
<polygon fill="none" stroke="black" stroke-width="0.5" points="199,-19 111,-19 111,0 199,0 199,-19"/>
<text text-anchor="middle" x="155" y="-7" font-family="Vera Sans, DejaVu Sans, Liberation Sans, Arial, Helvetica, sans" font-size="10.00">enum.IntEnum</text>
</a>
</g>
</g>
<!-- enum.Enum&#45;&gt;enum.IntEnum -->
<g id="edge1" class="edge">
<title>enum.Enum&#45;&gt;enum.IntEnum</title>
<path fill="none" stroke="black" stroke-width="0.5" d="M75.04,-9.5C84.81,-9.5 95.52,-9.5 105.81,-9.5"/>
<polygon fill="black" stroke="black" stroke-width="0.5" points="105.83,-11.25 110.83,-9.5 105.83,-7.75 105.83,-11.25"/>
</g>
<!-- pyGHDL.libghdl.vhdl.nodes.Iir_Predefined -->
<g id="node3" class="node">
<title>pyGHDL.libghdl.vhdl.nodes.Iir_Predefined</title>
<g id="a_node3"><a xlink:href="../pyGHDL/pyGHDL.libghdl.vhdl.nodes.html#pyGHDL.libghdl.vhdl.nodes.Iir_Predefined" xlink:title="An enumeration." target="_top">
<polygon fill="none" stroke="black" stroke-width="0.5" points="453,-19 235,-19 235,0 453,0 453,-19"/>
<text text-anchor="middle" x="344" y="-7" font-family="Vera Sans, DejaVu Sans, Liberation Sans, Arial, Helvetica, sans" font-size="10.00">pyGHDL.libghdl.vhdl.nodes.Iir_Predefined</text>
</a>
</g>
</g>
<!-- enum.IntEnum&#45;&gt;pyGHDL.libghdl.vhdl.nodes.Iir_Predefined -->
<g id="edge2" class="edge">
<title>enum.IntEnum&#45;&gt;pyGHDL.libghdl.vhdl.nodes.Iir_Predefined</title>
<path fill="none" stroke="black" stroke-width="0.5" d="M199.37,-9.5C208.74,-9.5 219.05,-9.5 229.73,-9.5"/>
<polygon fill="black" stroke="black" stroke-width="0.5" points="230,-11.25 235,-9.5 230,-7.75 230,-11.25"/>
</g>
</g>
</svg>
