<?xml version="1.0" encoding="UTF-8" standalone="no"?>
<!DOCTYPE svg PUBLIC "-//W3C//DTD SVG 1.1//EN"
 "http://www.w3.org/Graphics/SVG/1.1/DTD/svg11.dtd">
<!-- Generated by graphviz version 2.43.0 (0)
 -->
<!-- Title: inheritance3fc22781b4 Pages: 1 -->
<svg width="562pt" height="27pt"
 viewBox="0.00 0.00 562.00 27.00" xmlns="http://www.w3.org/2000/svg" xmlns:xlink="http://www.w3.org/1999/xlink">
<g id="graph0" class="graph" transform="scale(1 1) rotate(0) translate(4 23)">
<title>inheritance3fc22781b4</title>
<polygon fill="white" stroke="transparent" points="-4,4 -4,-23 558,-23 558,4 -4,4"/>
<!-- pyGHDL.dom.Range.Range -->
<g id="node1" class="node">
<title>pyGHDL.dom.Range.Range</title>
<g id="a_node1"><a xlink:href="../pyGHDL/pyGHDL.dom.Range.html#pyGHDL.dom.Range.Range" xlink:title="pyGHDL.dom.Range.Range" target="_top">
<polygon fill="none" stroke="black" stroke-width="0.5" points="554,-19 405,-19 405,0 554,0 554,-19"/>
<text text-anchor="middle" x="479.5" y="-7" font-family="Vera Sans, DejaVu Sans, Liberation Sans, Arial, Helvetica, sans" font-size="10.00">pyGHDL.dom.Range.Range</text>
</a>
</g>
</g>
<!-- pyVHDLModel.SyntaxModel.Range -->
<g id="node2" class="node">
<title>pyVHDLModel.SyntaxModel.Range</title>
<polygon fill="none" stroke="black" stroke-width="0.5" points="369,-19 183,-19 183,0 369,0 369,-19"/>
<text text-anchor="middle" x="276" y="-7" font-family="Vera Sans, DejaVu Sans, Liberation Sans, Arial, Helvetica, sans" font-size="10.00">pyVHDLModel.SyntaxModel.Range</text>
</g>
<!-- pyVHDLModel.SyntaxModel.Range&#45;&gt;pyGHDL.dom.Range.Range -->
<g id="edge1" class="edge">
<title>pyVHDLModel.SyntaxModel.Range&#45;&gt;pyGHDL.dom.Range.Range</title>
<path fill="none" stroke="black" stroke-width="0.5" d="M369.2,-9.5C379.35,-9.5 389.61,-9.5 399.58,-9.5"/>
<polygon fill="black" stroke="black" stroke-width="0.5" points="399.76,-11.25 404.76,-9.5 399.76,-7.75 399.76,-11.25"/>
</g>
<!-- pyVHDLModel.ModelEntity -->
<g id="node3" class="node">
<title>pyVHDLModel.ModelEntity</title>
<g id="a_node3"><a xlink:title="``ModelEntity`` is the base class for all classes in the VHDL language model,">
<polygon fill="none" stroke="black" stroke-width="0.5" points="147,-19 0,-19 0,0 147,0 147,-19"/>
<text text-anchor="middle" x="73.5" y="-7" font-family="Vera Sans, DejaVu Sans, Liberation Sans, Arial, Helvetica, sans" font-size="10.00">pyVHDLModel.ModelEntity</text>
</a>
</g>
</g>
<!-- pyVHDLModel.ModelEntity&#45;&gt;pyVHDLModel.SyntaxModel.Range -->
<g id="edge2" class="edge">
<title>pyVHDLModel.ModelEntity&#45;&gt;pyVHDLModel.SyntaxModel.Range</title>
<path fill="none" stroke="black" stroke-width="0.5" d="M147.17,-9.5C157.09,-9.5 167.4,-9.5 177.67,-9.5"/>
<polygon fill="black" stroke="black" stroke-width="0.5" points="177.71,-11.25 182.71,-9.5 177.71,-7.75 177.71,-11.25"/>
</g>
</g>
</svg>
