<?xml version="1.0" encoding="UTF-8" standalone="no"?>
<!DOCTYPE svg PUBLIC "-//W3C//DTD SVG 1.1//EN"
 "http://www.w3.org/Graphics/SVG/1.1/DTD/svg11.dtd">
<!-- Generated by graphviz version 2.43.0 (0)
 -->
<!-- Title: inheritance72f8a9a983 Pages: 1 -->
<svg width="576pt" height="41pt"
 viewBox="0.00 0.00 576.00 41.05" xmlns="http://www.w3.org/2000/svg" xmlns:xlink="http://www.w3.org/1999/xlink">
<g id="graph0" class="graph" transform="scale(1.56 1.56) rotate(0) translate(4 60)">
<title>inheritance72f8a9a983</title>
<polygon fill="white" stroke="transparent" points="-4,4 -4,-60 894,-60 894,4 -4,4"/>
<!-- pyGHDL.dom.DOMMixin -->
<g id="node1" class="node">
<title>pyGHDL.dom.DOMMixin</title>
<g id="a_node1"><a xlink:href="../pyGHDL.dom.html#pyGHDL.dom.DOMMixin" xlink:title="pyGHDL.dom.DOMMixin" target="_top">
<polygon fill="none" stroke="black" stroke-width="0.5" points="602.5,-56 467.5,-56 467.5,-37 602.5,-37 602.5,-56"/>
<text text-anchor="middle" x="535" y="-44" font-family="Vera Sans, DejaVu Sans, Liberation Sans, Arial, Helvetica, sans" font-size="10.00">pyGHDL.dom.DOMMixin</text>
</a>
</g>
</g>
<!-- pyGHDL.dom.DesignUnit.LibraryClause -->
<g id="node2" class="node">
<title>pyGHDL.dom.DesignUnit.LibraryClause</title>
<g id="a_node2"><a xlink:href="../pyGHDL/pyGHDL.dom.DesignUnit.html#pyGHDL.dom.DesignUnit.LibraryClause" xlink:title="pyGHDL.dom.DesignUnit.LibraryClause" target="_top">
<polygon fill="none" stroke="black" stroke-width="0.5" points="890,-37 682,-37 682,-18 890,-18 890,-37"/>
<text text-anchor="middle" x="786" y="-25" font-family="Vera Sans, DejaVu Sans, Liberation Sans, Arial, Helvetica, sans" font-size="10.00">pyGHDL.dom.DesignUnit.LibraryClause</text>
</a>
</g>
</g>
<!-- pyGHDL.dom.DOMMixin&#45;&gt;pyGHDL.dom.DesignUnit.LibraryClause -->
<g id="edge2" class="edge">
<title>pyGHDL.dom.DOMMixin&#45;&gt;pyGHDL.dom.DesignUnit.LibraryClause</title>
<path fill="none" stroke="black" stroke-width="0.5" d="M602.73,-41.41C625.55,-39.67 651.7,-37.67 676.94,-35.75"/>
<polygon fill="black" stroke="black" stroke-width="0.5" points="677.12,-37.49 681.97,-35.36 676.85,-34 677.12,-37.49"/>
</g>
<!-- pyVHDLModel.SyntaxModel.LibraryClause -->
<g id="node3" class="node">
<title>pyVHDLModel.SyntaxModel.LibraryClause</title>
<polygon fill="none" stroke="black" stroke-width="0.5" points="646,-19 424,-19 424,0 646,0 646,-19"/>
<text text-anchor="middle" x="535" y="-7" font-family="Vera Sans, DejaVu Sans, Liberation Sans, Arial, Helvetica, sans" font-size="10.00">pyVHDLModel.SyntaxModel.LibraryClause</text>
</g>
<!-- pyVHDLModel.SyntaxModel.LibraryClause&#45;&gt;pyGHDL.dom.DesignUnit.LibraryClause -->
<g id="edge1" class="edge">
<title>pyVHDLModel.SyntaxModel.LibraryClause&#45;&gt;pyGHDL.dom.DesignUnit.LibraryClause</title>
<path fill="none" stroke="black" stroke-width="0.5" d="M646.3,-17.47C656.38,-18.2 666.59,-18.94 676.65,-19.67"/>
<polygon fill="black" stroke="black" stroke-width="0.5" points="676.79,-21.43 681.9,-20.05 677.04,-17.94 676.79,-21.43"/>
</g>
<!-- pyVHDLModel.ModelEntity -->
<g id="node4" class="node">
<title>pyVHDLModel.ModelEntity</title>
<g id="a_node4"><a xlink:title="``ModelEntity`` is the base class for all classes in the VHDL language model,">
<polygon fill="none" stroke="black" stroke-width="0.5" points="147,-19 0,-19 0,0 147,0 147,-19"/>
<text text-anchor="middle" x="73.5" y="-7" font-family="Vera Sans, DejaVu Sans, Liberation Sans, Arial, Helvetica, sans" font-size="10.00">pyVHDLModel.ModelEntity</text>
</a>
</g>
</g>
<!-- pyVHDLModel.SyntaxModel.Reference -->
<g id="node5" class="node">
<title>pyVHDLModel.SyntaxModel.Reference</title>
<polygon fill="none" stroke="black" stroke-width="0.5" points="388,-19 183,-19 183,0 388,0 388,-19"/>
<text text-anchor="middle" x="285.5" y="-7" font-family="Vera Sans, DejaVu Sans, Liberation Sans, Arial, Helvetica, sans" font-size="10.00">pyVHDLModel.SyntaxModel.Reference</text>
</g>
<!-- pyVHDLModel.ModelEntity&#45;&gt;pyVHDLModel.SyntaxModel.Reference -->
<g id="edge4" class="edge">
<title>pyVHDLModel.ModelEntity&#45;&gt;pyVHDLModel.SyntaxModel.Reference</title>
<path fill="none" stroke="black" stroke-width="0.5" d="M147.06,-9.5C156.95,-9.5 167.25,-9.5 177.59,-9.5"/>
<polygon fill="black" stroke="black" stroke-width="0.5" points="177.66,-11.25 182.66,-9.5 177.66,-7.75 177.66,-11.25"/>
</g>
<!-- pyVHDLModel.SyntaxModel.Reference&#45;&gt;pyVHDLModel.SyntaxModel.LibraryClause -->
<g id="edge3" class="edge">
<title>pyVHDLModel.SyntaxModel.Reference&#45;&gt;pyVHDLModel.SyntaxModel.LibraryClause</title>
<path fill="none" stroke="black" stroke-width="0.5" d="M388.24,-9.5C398.32,-9.5 408.61,-9.5 418.81,-9.5"/>
<polygon fill="black" stroke="black" stroke-width="0.5" points="418.82,-11.25 423.82,-9.5 418.82,-7.75 418.82,-11.25"/>
</g>
</g>
</svg>
