<?xml version="1.0" encoding="UTF-8" standalone="no"?>
<!DOCTYPE svg PUBLIC "-//W3C//DTD SVG 1.1//EN"
 "http://www.w3.org/Graphics/SVG/1.1/DTD/svg11.dtd">
<!-- Generated by graphviz version 2.43.0 (0)
 -->
<!-- Title: inheritance964e28d290 Pages: 1 -->
<svg width="576pt" height="45pt"
 viewBox="0.00 0.00 576.00 45.20" xmlns="http://www.w3.org/2000/svg" xmlns:xlink="http://www.w3.org/1999/xlink">
<g id="graph0" class="graph" transform="scale(1.81 1.81) rotate(0) translate(4 78)">
<title>inheritance964e28d290</title>
<polygon fill="white" stroke="transparent" points="-4,4 -4,-78 1041,-78 1041,4 -4,4"/>
<!-- pyGHDL.dom.DOMMixin -->
<g id="node1" class="node">
<title>pyGHDL.dom.DOMMixin</title>
<g id="a_node1"><a xlink:href="../pyGHDL.dom.html#pyGHDL.dom.DOMMixin" xlink:title="pyGHDL.dom.DOMMixin" target="_top">
<polygon fill="none" stroke="black" stroke-width="0.5" points="822,-74 687,-74 687,-55 822,-55 822,-74"/>
<text text-anchor="middle" x="754.5" y="-62" font-family="Vera Sans, DejaVu Sans, Liberation Sans, Arial, Helvetica, sans" font-size="10.00">pyGHDL.dom.DOMMixin</text>
</a>
</g>
</g>
<!-- pyGHDL.dom.Type.FileType -->
<g id="node2" class="node">
<title>pyGHDL.dom.Type.FileType</title>
<g id="a_node2"><a xlink:href="../pyGHDL/pyGHDL.dom.Type.html#pyGHDL.dom.Type.FileType" xlink:title="pyGHDL.dom.Type.FileType" target="_top">
<polygon fill="none" stroke="black" stroke-width="0.5" points="1037,-55 888,-55 888,-36 1037,-36 1037,-55"/>
<text text-anchor="middle" x="962.5" y="-43" font-family="Vera Sans, DejaVu Sans, Liberation Sans, Arial, Helvetica, sans" font-size="10.00">pyGHDL.dom.Type.FileType</text>
</a>
</g>
</g>
<!-- pyGHDL.dom.DOMMixin&#45;&gt;pyGHDL.dom.Type.FileType -->
<g id="edge2" class="edge">
<title>pyGHDL.dom.DOMMixin&#45;&gt;pyGHDL.dom.Type.FileType</title>
<path fill="none" stroke="black" stroke-width="0.5" d="M822.1,-58.36C841.39,-56.58 862.63,-54.62 882.6,-52.78"/>
<polygon fill="black" stroke="black" stroke-width="0.5" points="882.82,-54.51 887.64,-52.31 882.5,-51.03 882.82,-54.51"/>
</g>
<!-- pyVHDLModel.SyntaxModel.FileType -->
<g id="node3" class="node">
<title>pyVHDLModel.SyntaxModel.FileType</title>
<polygon fill="none" stroke="black" stroke-width="0.5" points="852,-37 657,-37 657,-18 852,-18 852,-37"/>
<text text-anchor="middle" x="754.5" y="-25" font-family="Vera Sans, DejaVu Sans, Liberation Sans, Arial, Helvetica, sans" font-size="10.00">pyVHDLModel.SyntaxModel.FileType</text>
</g>
<!-- pyVHDLModel.SyntaxModel.FileType&#45;&gt;pyGHDL.dom.Type.FileType -->
<g id="edge1" class="edge">
<title>pyVHDLModel.SyntaxModel.FileType&#45;&gt;pyGHDL.dom.Type.FileType</title>
<path fill="none" stroke="black" stroke-width="0.5" d="M852.17,-35.95C862.4,-36.84 872.72,-37.74 882.72,-38.62"/>
<polygon fill="black" stroke="black" stroke-width="0.5" points="882.79,-40.38 887.92,-39.07 883.09,-36.89 882.79,-40.38"/>
</g>
<!-- pyVHDLModel.ModelEntity -->
<g id="node4" class="node">
<title>pyVHDLModel.ModelEntity</title>
<g id="a_node4"><a xlink:title="``ModelEntity`` is the base class for all classes in the VHDL language model,">
<polygon fill="none" stroke="black" stroke-width="0.5" points="149.5,-56 2.5,-56 2.5,-37 149.5,-37 149.5,-56"/>
<text text-anchor="middle" x="76" y="-44" font-family="Vera Sans, DejaVu Sans, Liberation Sans, Arial, Helvetica, sans" font-size="10.00">pyVHDLModel.ModelEntity</text>
</a>
</g>
</g>
<!-- pyVHDLModel.SyntaxModel.BaseType -->
<g id="node6" class="node">
<title>pyVHDLModel.SyntaxModel.BaseType</title>
<g id="a_node6"><a xlink:title="``BaseType`` is the base class of all type entities in this model.">
<polygon fill="none" stroke="black" stroke-width="0.5" points="390,-37 188,-37 188,-18 390,-18 390,-37"/>
<text text-anchor="middle" x="289" y="-25" font-family="Vera Sans, DejaVu Sans, Liberation Sans, Arial, Helvetica, sans" font-size="10.00">pyVHDLModel.SyntaxModel.BaseType</text>
</a>
</g>
</g>
<!-- pyVHDLModel.ModelEntity&#45;&gt;pyVHDLModel.SyntaxModel.BaseType -->
<g id="edge3" class="edge">
<title>pyVHDLModel.ModelEntity&#45;&gt;pyVHDLModel.SyntaxModel.BaseType</title>
<path fill="none" stroke="black" stroke-width="0.5" d="M149.61,-39.96C160.26,-39 171.41,-38 182.55,-37"/>
<polygon fill="black" stroke="black" stroke-width="0.5" points="182.85,-38.73 187.67,-36.53 182.53,-35.24 182.85,-38.73"/>
</g>
<!-- pyVHDLModel.NamedEntity -->
<g id="node5" class="node">
<title>pyVHDLModel.NamedEntity</title>
<g id="a_node5"><a xlink:title="A ``NamedEntity`` is a mixin class for all VHDL entities that have identifiers.">
<polygon fill="none" stroke="black" stroke-width="0.5" points="152,-19 0,-19 0,0 152,0 152,-19"/>
<text text-anchor="middle" x="76" y="-7" font-family="Vera Sans, DejaVu Sans, Liberation Sans, Arial, Helvetica, sans" font-size="10.00">pyVHDLModel.NamedEntity</text>
</a>
</g>
</g>
<!-- pyVHDLModel.NamedEntity&#45;&gt;pyVHDLModel.SyntaxModel.BaseType -->
<g id="edge4" class="edge">
<title>pyVHDLModel.NamedEntity&#45;&gt;pyVHDLModel.SyntaxModel.BaseType</title>
<path fill="none" stroke="black" stroke-width="0.5" d="M152.28,-15.92C162.15,-16.76 172.4,-17.64 182.65,-18.51"/>
<polygon fill="black" stroke="black" stroke-width="0.5" points="182.55,-20.26 187.68,-18.94 182.84,-16.77 182.55,-20.26"/>
</g>
<!-- pyVHDLModel.SyntaxModel.FullType -->
<g id="node7" class="node">
<title>pyVHDLModel.SyntaxModel.FullType</title>
<polygon fill="none" stroke="black" stroke-width="0.5" points="621,-37 426,-37 426,-18 621,-18 621,-37"/>
<text text-anchor="middle" x="523.5" y="-25" font-family="Vera Sans, DejaVu Sans, Liberation Sans, Arial, Helvetica, sans" font-size="10.00">pyVHDLModel.SyntaxModel.FullType</text>
</g>
<!-- pyVHDLModel.SyntaxModel.BaseType&#45;&gt;pyVHDLModel.SyntaxModel.FullType -->
<g id="edge6" class="edge">
<title>pyVHDLModel.SyntaxModel.BaseType&#45;&gt;pyVHDLModel.SyntaxModel.FullType</title>
<path fill="none" stroke="black" stroke-width="0.5" d="M390.29,-27.5C400.34,-27.5 410.54,-27.5 420.61,-27.5"/>
<polygon fill="black" stroke="black" stroke-width="0.5" points="420.86,-29.25 425.86,-27.5 420.86,-25.75 420.86,-29.25"/>
</g>
<!-- pyVHDLModel.SyntaxModel.FullType&#45;&gt;pyVHDLModel.SyntaxModel.FileType -->
<g id="edge5" class="edge">
<title>pyVHDLModel.SyntaxModel.FullType&#45;&gt;pyVHDLModel.SyntaxModel.FileType</title>
<path fill="none" stroke="black" stroke-width="0.5" d="M621.28,-27.5C631.26,-27.5 641.43,-27.5 651.46,-27.5"/>
<polygon fill="black" stroke="black" stroke-width="0.5" points="651.69,-29.25 656.69,-27.5 651.69,-25.75 651.69,-29.25"/>
</g>
</g>
</svg>
