<?xml version="1.0" encoding="UTF-8" standalone="no"?>
<!DOCTYPE svg PUBLIC "-//W3C//DTD SVG 1.1//EN"
 "http://www.w3.org/Graphics/SVG/1.1/DTD/svg11.dtd">
<!-- Generated by graphviz version 2.43.0 (0)
 -->
<!-- Title: inheritance31648faccf Pages: 1 -->
<svg width="576pt" height="42pt"
 viewBox="0.00 0.00 576.00 41.61" xmlns="http://www.w3.org/2000/svg" xmlns:xlink="http://www.w3.org/1999/xlink">
<g id="graph0" class="graph" transform="scale(1.97 1.97) rotate(0) translate(4 78)">
<title>inheritance31648faccf</title>
<polygon fill="white" stroke="transparent" points="-4,4 -4,-78 1131,-78 1131,4 -4,4"/>
<!-- pyGHDL.dom.DOMMixin -->
<g id="node1" class="node">
<title>pyGHDL.dom.DOMMixin</title>
<g id="a_node1"><a xlink:href="../pyGHDL.dom.html#pyGHDL.dom.DOMMixin" xlink:title="pyGHDL.dom.DOMMixin" target="_top">
<polygon fill="none" stroke="black" stroke-width="0.5" points="906,-74 771,-74 771,-55 906,-55 906,-74"/>
<text text-anchor="middle" x="838.5" y="-62" font-family="Vera Sans, DejaVu Sans, Liberation Sans, Arial, Helvetica, sans" font-size="10.00">pyGHDL.dom.DOMMixin</text>
</a>
</g>
</g>
<!-- pyGHDL.dom.Sequential.Case -->
<g id="node2" class="node">
<title>pyGHDL.dom.Sequential.Case</title>
<g id="a_node2"><a xlink:href="../pyGHDL/pyGHDL.dom.Sequential.html#pyGHDL.dom.Sequential.Case" xlink:title="pyGHDL.dom.Sequential.Case" target="_top">
<polygon fill="none" stroke="black" stroke-width="0.5" points="1127,-55 964,-55 964,-36 1127,-36 1127,-55"/>
<text text-anchor="middle" x="1045.5" y="-43" font-family="Vera Sans, DejaVu Sans, Liberation Sans, Arial, Helvetica, sans" font-size="10.00">pyGHDL.dom.Sequential.Case</text>
</a>
</g>
</g>
<!-- pyGHDL.dom.DOMMixin&#45;&gt;pyGHDL.dom.Sequential.Case -->
<g id="edge2" class="edge">
<title>pyGHDL.dom.DOMMixin&#45;&gt;pyGHDL.dom.Sequential.Case</title>
<path fill="none" stroke="black" stroke-width="0.5" d="M906.06,-58.33C922.8,-56.78 941,-55.09 958.54,-53.47"/>
<polygon fill="black" stroke="black" stroke-width="0.5" points="959.15,-55.17 963.96,-52.96 958.82,-51.68 959.15,-55.17"/>
</g>
<!-- pyVHDLModel.SyntaxModel.Case -->
<g id="node3" class="node">
<title>pyVHDLModel.SyntaxModel.Case</title>
<polygon fill="none" stroke="black" stroke-width="0.5" points="928,-37 749,-37 749,-18 928,-18 928,-37"/>
<text text-anchor="middle" x="838.5" y="-25" font-family="Vera Sans, DejaVu Sans, Liberation Sans, Arial, Helvetica, sans" font-size="10.00">pyVHDLModel.SyntaxModel.Case</text>
</g>
<!-- pyVHDLModel.SyntaxModel.Case&#45;&gt;pyGHDL.dom.Sequential.Case -->
<g id="edge1" class="edge">
<title>pyVHDLModel.SyntaxModel.Case&#45;&gt;pyGHDL.dom.Sequential.Case</title>
<path fill="none" stroke="black" stroke-width="0.5" d="M928.22,-35.29C938.27,-36.17 948.49,-37.07 958.5,-37.95"/>
<polygon fill="black" stroke="black" stroke-width="0.5" points="958.58,-39.71 963.71,-38.41 958.88,-36.23 958.58,-39.71"/>
</g>
<!-- pyVHDLModel.ModelEntity -->
<g id="node4" class="node">
<title>pyVHDLModel.ModelEntity</title>
<g id="a_node4"><a xlink:title="``ModelEntity`` is the base class for all classes in the VHDL language model,">
<polygon fill="none" stroke="black" stroke-width="0.5" points="147,-56 0,-56 0,-37 147,-37 147,-56"/>
<text text-anchor="middle" x="73.5" y="-44" font-family="Vera Sans, DejaVu Sans, Liberation Sans, Arial, Helvetica, sans" font-size="10.00">pyVHDLModel.ModelEntity</text>
</a>
</g>
</g>
<!-- pyVHDLModel.SyntaxModel.BaseCase -->
<g id="node5" class="node">
<title>pyVHDLModel.SyntaxModel.BaseCase</title>
<g id="a_node5"><a xlink:title="A ``Case`` is a base&#45;class for all cases.">
<polygon fill="none" stroke="black" stroke-width="0.5" points="416,-56 213,-56 213,-37 416,-37 416,-56"/>
<text text-anchor="middle" x="314.5" y="-44" font-family="Vera Sans, DejaVu Sans, Liberation Sans, Arial, Helvetica, sans" font-size="10.00">pyVHDLModel.SyntaxModel.BaseCase</text>
</a>
</g>
</g>
<!-- pyVHDLModel.ModelEntity&#45;&gt;pyVHDLModel.SyntaxModel.BaseCase -->
<g id="edge3" class="edge">
<title>pyVHDLModel.ModelEntity&#45;&gt;pyVHDLModel.SyntaxModel.BaseCase</title>
<path fill="none" stroke="black" stroke-width="0.5" d="M147.18,-46.5C166.3,-46.5 187.31,-46.5 207.78,-46.5"/>
<polygon fill="black" stroke="black" stroke-width="0.5" points="207.98,-48.25 212.98,-46.5 207.98,-44.75 207.98,-48.25"/>
</g>
<!-- pyVHDLModel.SyntaxModel.SequentialCase -->
<g id="node6" class="node">
<title>pyVHDLModel.SyntaxModel.SequentialCase</title>
<polygon fill="none" stroke="black" stroke-width="0.5" points="713,-37 482,-37 482,-18 713,-18 713,-37"/>
<text text-anchor="middle" x="597.5" y="-25" font-family="Vera Sans, DejaVu Sans, Liberation Sans, Arial, Helvetica, sans" font-size="10.00">pyVHDLModel.SyntaxModel.SequentialCase</text>
</g>
<!-- pyVHDLModel.SyntaxModel.BaseCase&#45;&gt;pyVHDLModel.SyntaxModel.SequentialCase -->
<g id="edge5" class="edge">
<title>pyVHDLModel.SyntaxModel.BaseCase&#45;&gt;pyVHDLModel.SyntaxModel.SequentialCase</title>
<path fill="none" stroke="black" stroke-width="0.5" d="M416.15,-39.69C435.75,-38.37 456.48,-36.97 476.63,-35.61"/>
<polygon fill="black" stroke="black" stroke-width="0.5" points="476.87,-37.34 481.74,-35.26 476.63,-33.85 476.87,-37.34"/>
</g>
<!-- pyVHDLModel.SyntaxModel.SequentialCase&#45;&gt;pyVHDLModel.SyntaxModel.Case -->
<g id="edge4" class="edge">
<title>pyVHDLModel.SyntaxModel.SequentialCase&#45;&gt;pyVHDLModel.SyntaxModel.Case</title>
<path fill="none" stroke="black" stroke-width="0.5" d="M713.1,-27.5C723.3,-27.5 733.55,-27.5 743.55,-27.5"/>
<polygon fill="black" stroke="black" stroke-width="0.5" points="743.75,-29.25 748.75,-27.5 743.75,-25.75 743.75,-29.25"/>
</g>
<!-- pyVHDLModel.SyntaxModel.SequentialStatements -->
<g id="node7" class="node">
<title>pyVHDLModel.SyntaxModel.SequentialStatements</title>
<polygon fill="none" stroke="black" stroke-width="0.5" points="446,-19 183,-19 183,0 446,0 446,-19"/>
<text text-anchor="middle" x="314.5" y="-7" font-family="Vera Sans, DejaVu Sans, Liberation Sans, Arial, Helvetica, sans" font-size="10.00">pyVHDLModel.SyntaxModel.SequentialStatements</text>
</g>
<!-- pyVHDLModel.SyntaxModel.SequentialStatements&#45;&gt;pyVHDLModel.SyntaxModel.SequentialCase -->
<g id="edge6" class="edge">
<title>pyVHDLModel.SyntaxModel.SequentialStatements&#45;&gt;pyVHDLModel.SyntaxModel.SequentialCase</title>
<path fill="none" stroke="black" stroke-width="0.5" d="M446.13,-17.87C456.26,-18.52 466.46,-19.17 476.51,-19.81"/>
<polygon fill="black" stroke="black" stroke-width="0.5" points="476.66,-21.58 481.76,-20.15 476.88,-18.08 476.66,-21.58"/>
</g>
</g>
</svg>
