<?xml version="1.0" encoding="UTF-8" standalone="no"?>
<!DOCTYPE svg PUBLIC "-//W3C//DTD SVG 1.1//EN"
 "http://www.w3.org/Graphics/SVG/1.1/DTD/svg11.dtd">
<!-- Generated by graphviz version 2.43.0 (0)
 -->
<!-- Title: inheritancee5a61e2e0d Pages: 1 -->
<svg width="576pt" height="23pt"
 viewBox="0.00 0.00 576.00 22.87" xmlns="http://www.w3.org/2000/svg" xmlns:xlink="http://www.w3.org/1999/xlink">
<g id="graph0" class="graph" transform="scale(2.8 2.8) rotate(0) translate(4 60)">
<title>inheritancee5a61e2e0d</title>
<polygon fill="white" stroke="transparent" points="-4,4 -4,-60 1608,-60 1608,4 -4,4"/>
<!-- pyGHDL.dom.DOMMixin -->
<g id="node1" class="node">
<title>pyGHDL.dom.DOMMixin</title>
<g id="a_node1"><a xlink:href="../pyGHDL.dom.html#pyGHDL.dom.DOMMixin" xlink:title="pyGHDL.dom.DOMMixin" target="_top">
<polygon fill="none" stroke="black" stroke-width="0.5" points="1215.5,-56 1080.5,-56 1080.5,-37 1215.5,-37 1215.5,-56"/>
<text text-anchor="middle" x="1148" y="-44" font-family="Vera Sans, DejaVu Sans, Liberation Sans, Arial, Helvetica, sans" font-size="10.00">pyGHDL.dom.DOMMixin</text>
</a>
</g>
</g>
<!-- pyGHDL.dom.Expression.AscendingRangeExpression -->
<g id="node2" class="node">
<title>pyGHDL.dom.Expression.AscendingRangeExpression</title>
<g id="a_node2"><a xlink:href="../pyGHDL/pyGHDL.dom.Expression.html#pyGHDL.dom.Expression.AscendingRangeExpression" xlink:title="pyGHDL.dom.Expression.AscendingRangeExpression" target="_top">
<polygon fill="none" stroke="black" stroke-width="0.5" points="1604,-37 1329,-37 1329,-18 1604,-18 1604,-37"/>
<text text-anchor="middle" x="1466.5" y="-25" font-family="Vera Sans, DejaVu Sans, Liberation Sans, Arial, Helvetica, sans" font-size="10.00">pyGHDL.dom.Expression.AscendingRangeExpression</text>
</a>
</g>
</g>
<!-- pyGHDL.dom.DOMMixin&#45;&gt;pyGHDL.dom.Expression.AscendingRangeExpression -->
<g id="edge2" class="edge">
<title>pyGHDL.dom.DOMMixin&#45;&gt;pyGHDL.dom.Expression.AscendingRangeExpression</title>
<path fill="none" stroke="black" stroke-width="0.5" d="M1215.73,-42.49C1247.24,-40.6 1286.11,-38.27 1323.73,-36.01"/>
<polygon fill="black" stroke="black" stroke-width="0.5" points="1323.9,-37.75 1328.79,-35.71 1323.69,-34.26 1323.9,-37.75"/>
</g>
<!-- pyVHDLModel.SyntaxModel.AscendingRangeExpression -->
<g id="node3" class="node">
<title>pyVHDLModel.SyntaxModel.AscendingRangeExpression</title>
<polygon fill="none" stroke="black" stroke-width="0.5" points="1293,-19 1003,-19 1003,0 1293,0 1293,-19"/>
<text text-anchor="middle" x="1148" y="-7" font-family="Vera Sans, DejaVu Sans, Liberation Sans, Arial, Helvetica, sans" font-size="10.00">pyVHDLModel.SyntaxModel.AscendingRangeExpression</text>
</g>
<!-- pyVHDLModel.SyntaxModel.AscendingRangeExpression&#45;&gt;pyGHDL.dom.Expression.AscendingRangeExpression -->
<g id="edge1" class="edge">
<title>pyVHDLModel.SyntaxModel.AscendingRangeExpression&#45;&gt;pyGHDL.dom.Expression.AscendingRangeExpression</title>
<path fill="none" stroke="black" stroke-width="0.5" d="M1293.36,-17.71C1303.35,-18.28 1313.42,-18.85 1323.41,-19.42"/>
<polygon fill="black" stroke="black" stroke-width="0.5" points="1323.53,-21.18 1328.62,-19.72 1323.73,-17.68 1323.53,-21.18"/>
</g>
<!-- pyVHDLModel.ModelEntity -->
<g id="node4" class="node">
<title>pyVHDLModel.ModelEntity</title>
<g id="a_node4"><a xlink:title="``ModelEntity`` is the base class for all classes in the VHDL language model,">
<polygon fill="none" stroke="black" stroke-width="0.5" points="147,-19 0,-19 0,0 147,0 147,-19"/>
<text text-anchor="middle" x="73.5" y="-7" font-family="Vera Sans, DejaVu Sans, Liberation Sans, Arial, Helvetica, sans" font-size="10.00">pyVHDLModel.ModelEntity</text>
</a>
</g>
</g>
<!-- pyVHDLModel.SyntaxModel.BaseExpression -->
<g id="node6" class="node">
<title>pyVHDLModel.SyntaxModel.BaseExpression</title>
<g id="a_node6"><a xlink:title="A ``BaseExpression`` is a base&#45;class for all expressions.">
<polygon fill="none" stroke="black" stroke-width="0.5" points="416,-19 183,-19 183,0 416,0 416,-19"/>
<text text-anchor="middle" x="299.5" y="-7" font-family="Vera Sans, DejaVu Sans, Liberation Sans, Arial, Helvetica, sans" font-size="10.00">pyVHDLModel.SyntaxModel.BaseExpression</text>
</a>
</g>
</g>
<!-- pyVHDLModel.ModelEntity&#45;&gt;pyVHDLModel.SyntaxModel.BaseExpression -->
<g id="edge4" class="edge">
<title>pyVHDLModel.ModelEntity&#45;&gt;pyVHDLModel.SyntaxModel.BaseExpression</title>
<path fill="none" stroke="black" stroke-width="0.5" d="M147.23,-9.5C157,-9.5 167.22,-9.5 177.55,-9.5"/>
<polygon fill="black" stroke="black" stroke-width="0.5" points="177.63,-11.25 182.63,-9.5 177.63,-7.75 177.63,-11.25"/>
</g>
<!-- pyVHDLModel.SyntaxModel.RangeExpression -->
<g id="node5" class="node">
<title>pyVHDLModel.SyntaxModel.RangeExpression</title>
<polygon fill="none" stroke="black" stroke-width="0.5" points="967,-19 728,-19 728,0 967,0 967,-19"/>
<text text-anchor="middle" x="847.5" y="-7" font-family="Vera Sans, DejaVu Sans, Liberation Sans, Arial, Helvetica, sans" font-size="10.00">pyVHDLModel.SyntaxModel.RangeExpression</text>
</g>
<!-- pyVHDLModel.SyntaxModel.RangeExpression&#45;&gt;pyVHDLModel.SyntaxModel.AscendingRangeExpression -->
<g id="edge3" class="edge">
<title>pyVHDLModel.SyntaxModel.RangeExpression&#45;&gt;pyVHDLModel.SyntaxModel.AscendingRangeExpression</title>
<path fill="none" stroke="black" stroke-width="0.5" d="M967.33,-9.5C977.39,-9.5 987.64,-9.5 997.9,-9.5"/>
<polygon fill="black" stroke="black" stroke-width="0.5" points="997.93,-11.25 1002.93,-9.5 997.93,-7.75 997.93,-11.25"/>
</g>
<!-- pyVHDLModel.SyntaxModel.BinaryExpression -->
<g id="node7" class="node">
<title>pyVHDLModel.SyntaxModel.BinaryExpression</title>
<g id="a_node7"><a xlink:title="A ``BinaryExpression`` is a base&#45;class for all binary expressions.">
<polygon fill="none" stroke="black" stroke-width="0.5" points="692,-19 452,-19 452,0 692,0 692,-19"/>
<text text-anchor="middle" x="572" y="-7" font-family="Vera Sans, DejaVu Sans, Liberation Sans, Arial, Helvetica, sans" font-size="10.00">pyVHDLModel.SyntaxModel.BinaryExpression</text>
</a>
</g>
</g>
<!-- pyVHDLModel.SyntaxModel.BaseExpression&#45;&gt;pyVHDLModel.SyntaxModel.BinaryExpression -->
<g id="edge5" class="edge">
<title>pyVHDLModel.SyntaxModel.BaseExpression&#45;&gt;pyVHDLModel.SyntaxModel.BinaryExpression</title>
<path fill="none" stroke="black" stroke-width="0.5" d="M416,-9.5C426.03,-9.5 436.2,-9.5 446.3,-9.5"/>
<polygon fill="black" stroke="black" stroke-width="0.5" points="446.57,-11.25 451.57,-9.5 446.57,-7.75 446.57,-11.25"/>
</g>
<!-- pyVHDLModel.SyntaxModel.BinaryExpression&#45;&gt;pyVHDLModel.SyntaxModel.RangeExpression -->
<g id="edge6" class="edge">
<title>pyVHDLModel.SyntaxModel.BinaryExpression&#45;&gt;pyVHDLModel.SyntaxModel.RangeExpression</title>
<path fill="none" stroke="black" stroke-width="0.5" d="M692.17,-9.5C702.22,-9.5 712.4,-9.5 722.49,-9.5"/>
<polygon fill="black" stroke="black" stroke-width="0.5" points="722.75,-11.25 727.75,-9.5 722.75,-7.75 722.75,-11.25"/>
</g>
</g>
</svg>
