<?xml version="1.0" encoding="UTF-8" standalone="no"?>
<!DOCTYPE svg PUBLIC "-//W3C//DTD SVG 1.1//EN"
 "http://www.w3.org/Graphics/SVG/1.1/DTD/svg11.dtd">
<!-- Generated by graphviz version 2.43.0 (0)
 -->
<!-- Title: inheritancee603800447 Pages: 1 -->
<svg width="576pt" height="43pt"
 viewBox="0.00 0.00 576.00 42.89" xmlns="http://www.w3.org/2000/svg" xmlns:xlink="http://www.w3.org/1999/xlink">
<g id="graph0" class="graph" transform="scale(2.33 2.33) rotate(0) translate(4 96)">
<title>inheritancee603800447</title>
<polygon fill="white" stroke="transparent" points="-4,4 -4,-96 1339,-96 1339,4 -4,4"/>
<!-- pyGHDL.dom.DOMMixin -->
<g id="node1" class="node">
<title>pyGHDL.dom.DOMMixin</title>
<g id="a_node1"><a xlink:href="../pyGHDL.dom.html#pyGHDL.dom.DOMMixin" xlink:title="pyGHDL.dom.DOMMixin" target="_top">
<polygon fill="none" stroke="black" stroke-width="0.5" points="947.5,-92 812.5,-92 812.5,-73 947.5,-73 947.5,-92"/>
<text text-anchor="middle" x="880" y="-80" font-family="Vera Sans, DejaVu Sans, Liberation Sans, Arial, Helvetica, sans" font-size="10.00">pyGHDL.dom.DOMMixin</text>
</a>
</g>
</g>
<!-- pyGHDL.dom.Sequential.SequentialReportStatement -->
<g id="node2" class="node">
<title>pyGHDL.dom.Sequential.SequentialReportStatement</title>
<g id="a_node2"><a xlink:href="../pyGHDL/pyGHDL.dom.Sequential.html#pyGHDL.dom.Sequential.SequentialReportStatement" xlink:title="pyGHDL.dom.Sequential.SequentialReportStatement" target="_top">
<polygon fill="none" stroke="black" stroke-width="0.5" points="1335,-73 1061,-73 1061,-54 1335,-54 1335,-73"/>
<text text-anchor="middle" x="1198" y="-61" font-family="Vera Sans, DejaVu Sans, Liberation Sans, Arial, Helvetica, sans" font-size="10.00">pyGHDL.dom.Sequential.SequentialReportStatement</text>
</a>
</g>
</g>
<!-- pyGHDL.dom.DOMMixin&#45;&gt;pyGHDL.dom.Sequential.SequentialReportStatement -->
<g id="edge2" class="edge">
<title>pyGHDL.dom.DOMMixin&#45;&gt;pyGHDL.dom.Sequential.SequentialReportStatement</title>
<path fill="none" stroke="black" stroke-width="0.5" d="M947.63,-78.49C979.17,-76.6 1018.11,-74.26 1055.77,-71.99"/>
<polygon fill="black" stroke="black" stroke-width="0.5" points="1055.94,-73.73 1060.83,-71.69 1055.73,-70.24 1055.94,-73.73"/>
</g>
<!-- pyVHDLModel.SyntaxModel.SequentialReportStatement -->
<g id="node3" class="node">
<title>pyVHDLModel.SyntaxModel.SequentialReportStatement</title>
<polygon fill="none" stroke="black" stroke-width="0.5" points="1025,-55 735,-55 735,-36 1025,-36 1025,-55"/>
<text text-anchor="middle" x="880" y="-43" font-family="Vera Sans, DejaVu Sans, Liberation Sans, Arial, Helvetica, sans" font-size="10.00">pyVHDLModel.SyntaxModel.SequentialReportStatement</text>
</g>
<!-- pyVHDLModel.SyntaxModel.SequentialReportStatement&#45;&gt;pyGHDL.dom.Sequential.SequentialReportStatement -->
<g id="edge1" class="edge">
<title>pyVHDLModel.SyntaxModel.SequentialReportStatement&#45;&gt;pyGHDL.dom.Sequential.SequentialReportStatement</title>
<path fill="none" stroke="black" stroke-width="0.5" d="M1025.13,-53.71C1035.34,-54.29 1045.63,-54.88 1055.83,-55.46"/>
<polygon fill="black" stroke="black" stroke-width="0.5" points="1055.73,-57.21 1060.82,-55.74 1055.93,-53.71 1055.73,-57.21"/>
</g>
<!-- pyVHDLModel.LabeledEntity -->
<g id="node4" class="node">
<title>pyVHDLModel.LabeledEntity</title>
<g id="a_node4"><a xlink:title="A ``LabeledEntity`` is a mixin class for all VHDL entities that can have">
<polygon fill="none" stroke="black" stroke-width="0.5" points="155,-56 0,-56 0,-37 155,-37 155,-56"/>
<text text-anchor="middle" x="77.5" y="-44" font-family="Vera Sans, DejaVu Sans, Liberation Sans, Arial, Helvetica, sans" font-size="10.00">pyVHDLModel.LabeledEntity</text>
</a>
</g>
</g>
<!-- pyVHDLModel.SyntaxModel.Statement -->
<g id="node8" class="node">
<title>pyVHDLModel.SyntaxModel.Statement</title>
<polygon fill="none" stroke="black" stroke-width="0.5" points="397,-37 191,-37 191,-18 397,-18 397,-37"/>
<text text-anchor="middle" x="294" y="-25" font-family="Vera Sans, DejaVu Sans, Liberation Sans, Arial, Helvetica, sans" font-size="10.00">pyVHDLModel.SyntaxModel.Statement</text>
</g>
<!-- pyVHDLModel.LabeledEntity&#45;&gt;pyVHDLModel.SyntaxModel.Statement -->
<g id="edge7" class="edge">
<title>pyVHDLModel.LabeledEntity&#45;&gt;pyVHDLModel.SyntaxModel.Statement</title>
<path fill="none" stroke="black" stroke-width="0.5" d="M155.03,-39.72C164.96,-38.84 175.27,-37.93 185.58,-37.02"/>
<polygon fill="black" stroke="black" stroke-width="0.5" points="185.81,-38.75 190.64,-36.57 185.5,-35.27 185.81,-38.75"/>
</g>
<!-- pyVHDLModel.ModelEntity -->
<g id="node5" class="node">
<title>pyVHDLModel.ModelEntity</title>
<g id="a_node5"><a xlink:title="``ModelEntity`` is the base class for all classes in the VHDL language model,">
<polygon fill="none" stroke="black" stroke-width="0.5" points="151,-19 4,-19 4,0 151,0 151,-19"/>
<text text-anchor="middle" x="77.5" y="-7" font-family="Vera Sans, DejaVu Sans, Liberation Sans, Arial, Helvetica, sans" font-size="10.00">pyVHDLModel.ModelEntity</text>
</a>
</g>
</g>
<!-- pyVHDLModel.ModelEntity&#45;&gt;pyVHDLModel.SyntaxModel.Statement -->
<g id="edge6" class="edge">
<title>pyVHDLModel.ModelEntity&#45;&gt;pyVHDLModel.SyntaxModel.Statement</title>
<path fill="none" stroke="black" stroke-width="0.5" d="M151.12,-15.59C162.29,-16.53 174.01,-17.52 185.74,-18.5"/>
<polygon fill="black" stroke="black" stroke-width="0.5" points="185.64,-20.25 190.77,-18.92 185.93,-16.76 185.64,-20.25"/>
</g>
<!-- pyVHDLModel.SyntaxModel.MixinReportStatement -->
<g id="node6" class="node">
<title>pyVHDLModel.SyntaxModel.MixinReportStatement</title>
<g id="a_node6"><a xlink:title="A ``MixinReportStatement`` is a mixin&#45;class for all report and assert statements.">
<polygon fill="none" stroke="black" stroke-width="0.5" points="699,-74 433,-74 433,-55 699,-55 699,-74"/>
<text text-anchor="middle" x="566" y="-62" font-family="Vera Sans, DejaVu Sans, Liberation Sans, Arial, Helvetica, sans" font-size="10.00">pyVHDLModel.SyntaxModel.MixinReportStatement</text>
</a>
</g>
</g>
<!-- pyVHDLModel.SyntaxModel.MixinReportStatement&#45;&gt;pyVHDLModel.SyntaxModel.SequentialReportStatement -->
<g id="edge4" class="edge">
<title>pyVHDLModel.SyntaxModel.MixinReportStatement&#45;&gt;pyVHDLModel.SyntaxModel.SequentialReportStatement</title>
<path fill="none" stroke="black" stroke-width="0.5" d="M699.32,-56.44C709.45,-55.83 719.72,-55.2 729.95,-54.58"/>
<polygon fill="black" stroke="black" stroke-width="0.5" points="730.08,-56.32 734.97,-54.27 729.87,-52.83 730.08,-56.32"/>
</g>
<!-- pyVHDLModel.SyntaxModel.SequentialStatement -->
<g id="node7" class="node">
<title>pyVHDLModel.SyntaxModel.SequentialStatement</title>
<g id="a_node7"><a xlink:title="A ``SequentialStatement`` is a base&#45;class for all sequential statements.">
<polygon fill="none" stroke="black" stroke-width="0.5" points="695,-37 437,-37 437,-18 695,-18 695,-37"/>
<text text-anchor="middle" x="566" y="-25" font-family="Vera Sans, DejaVu Sans, Liberation Sans, Arial, Helvetica, sans" font-size="10.00">pyVHDLModel.SyntaxModel.SequentialStatement</text>
</a>
</g>
</g>
<!-- pyVHDLModel.SyntaxModel.SequentialStatement&#45;&gt;pyVHDLModel.SyntaxModel.SequentialReportStatement -->
<g id="edge3" class="edge">
<title>pyVHDLModel.SyntaxModel.SequentialStatement&#45;&gt;pyVHDLModel.SyntaxModel.SequentialReportStatement</title>
<path fill="none" stroke="black" stroke-width="0.5" d="M695.25,-34.9C706.55,-35.55 718.05,-36.21 729.49,-36.87"/>
<polygon fill="black" stroke="black" stroke-width="0.5" points="729.66,-38.64 734.75,-37.18 729.86,-35.14 729.66,-38.64"/>
</g>
<!-- pyVHDLModel.SyntaxModel.Statement&#45;&gt;pyVHDLModel.SyntaxModel.SequentialStatement -->
<g id="edge5" class="edge">
<title>pyVHDLModel.SyntaxModel.Statement&#45;&gt;pyVHDLModel.SyntaxModel.SequentialStatement</title>
<path fill="none" stroke="black" stroke-width="0.5" d="M397.08,-27.5C408.44,-27.5 420.14,-27.5 431.82,-27.5"/>
<polygon fill="black" stroke="black" stroke-width="0.5" points="431.83,-29.25 436.83,-27.5 431.83,-25.75 431.83,-29.25"/>
</g>
</g>
</svg>
