<?xml version="1.0" encoding="UTF-8" standalone="no"?>
<!DOCTYPE svg PUBLIC "-//W3C//DTD SVG 1.1//EN"
 "http://www.w3.org/Graphics/SVG/1.1/DTD/svg11.dtd">
<!-- Generated by graphviz version 2.43.0 (0)
 -->
<!-- Title: inheritance0b798aecb0 Pages: 1 -->
<svg width="576pt" height="25pt"
 viewBox="0.00 0.00 576.00 24.81" xmlns="http://www.w3.org/2000/svg" xmlns:xlink="http://www.w3.org/1999/xlink">
<g id="graph0" class="graph" transform="scale(2.58 2.58) rotate(0) translate(4 60)">
<title>inheritance0b798aecb0</title>
<polygon fill="white" stroke="transparent" points="-4,4 -4,-60 1482,-60 1482,4 -4,4"/>
<!-- pyGHDL.dom.DOMMixin -->
<g id="node1" class="node">
<title>pyGHDL.dom.DOMMixin</title>
<g id="a_node1"><a xlink:href="../pyGHDL.dom.html#pyGHDL.dom.DOMMixin" xlink:title="pyGHDL.dom.DOMMixin" target="_top">
<polygon fill="none" stroke="black" stroke-width="0.5" points="1187,-56 1052,-56 1052,-37 1187,-37 1187,-56"/>
<text text-anchor="middle" x="1119.5" y="-44" font-family="Vera Sans, DejaVu Sans, Liberation Sans, Arial, Helvetica, sans" font-size="10.00">pyGHDL.dom.DOMMixin</text>
</a>
</g>
</g>
<!-- pyGHDL.dom.Expression.XorExpression -->
<g id="node2" class="node">
<title>pyGHDL.dom.Expression.XorExpression</title>
<g id="a_node2"><a xlink:href="../pyGHDL/pyGHDL.dom.Expression.html#pyGHDL.dom.Expression.XorExpression" xlink:title="pyGHDL.dom.Expression.XorExpression" target="_top">
<polygon fill="none" stroke="black" stroke-width="0.5" points="1478,-37 1268,-37 1268,-18 1478,-18 1478,-37"/>
<text text-anchor="middle" x="1373" y="-25" font-family="Vera Sans, DejaVu Sans, Liberation Sans, Arial, Helvetica, sans" font-size="10.00">pyGHDL.dom.Expression.XorExpression</text>
</a>
</g>
</g>
<!-- pyGHDL.dom.DOMMixin&#45;&gt;pyGHDL.dom.Expression.XorExpression -->
<g id="edge2" class="edge">
<title>pyGHDL.dom.DOMMixin&#45;&gt;pyGHDL.dom.Expression.XorExpression</title>
<path fill="none" stroke="black" stroke-width="0.5" d="M1187.24,-41.46C1210.43,-39.71 1237.09,-37.69 1262.8,-35.75"/>
<polygon fill="black" stroke="black" stroke-width="0.5" points="1263.08,-37.48 1267.93,-35.36 1262.81,-33.99 1263.08,-37.48"/>
</g>
<!-- pyVHDLModel.SyntaxModel.XorExpression -->
<g id="node3" class="node">
<title>pyVHDLModel.SyntaxModel.XorExpression</title>
<polygon fill="none" stroke="black" stroke-width="0.5" points="1232,-19 1007,-19 1007,0 1232,0 1232,-19"/>
<text text-anchor="middle" x="1119.5" y="-7" font-family="Vera Sans, DejaVu Sans, Liberation Sans, Arial, Helvetica, sans" font-size="10.00">pyVHDLModel.SyntaxModel.XorExpression</text>
</g>
<!-- pyVHDLModel.SyntaxModel.XorExpression&#45;&gt;pyGHDL.dom.Expression.XorExpression -->
<g id="edge1" class="edge">
<title>pyVHDLModel.SyntaxModel.XorExpression&#45;&gt;pyGHDL.dom.Expression.XorExpression</title>
<path fill="none" stroke="black" stroke-width="0.5" d="M1232.28,-17.5C1242.33,-18.22 1252.51,-18.95 1262.54,-19.67"/>
<polygon fill="black" stroke="black" stroke-width="0.5" points="1262.66,-21.43 1267.77,-20.04 1262.91,-17.94 1262.66,-21.43"/>
</g>
<!-- pyVHDLModel.ModelEntity -->
<g id="node4" class="node">
<title>pyVHDLModel.ModelEntity</title>
<g id="a_node4"><a xlink:title="``ModelEntity`` is the base class for all classes in the VHDL language model,">
<polygon fill="none" stroke="black" stroke-width="0.5" points="147,-19 0,-19 0,0 147,0 147,-19"/>
<text text-anchor="middle" x="73.5" y="-7" font-family="Vera Sans, DejaVu Sans, Liberation Sans, Arial, Helvetica, sans" font-size="10.00">pyVHDLModel.ModelEntity</text>
</a>
</g>
</g>
<!-- pyVHDLModel.SyntaxModel.BaseExpression -->
<g id="node5" class="node">
<title>pyVHDLModel.SyntaxModel.BaseExpression</title>
<g id="a_node5"><a xlink:title="A ``BaseExpression`` is a base&#45;class for all expressions.">
<polygon fill="none" stroke="black" stroke-width="0.5" points="416,-19 183,-19 183,0 416,0 416,-19"/>
<text text-anchor="middle" x="299.5" y="-7" font-family="Vera Sans, DejaVu Sans, Liberation Sans, Arial, Helvetica, sans" font-size="10.00">pyVHDLModel.SyntaxModel.BaseExpression</text>
</a>
</g>
</g>
<!-- pyVHDLModel.ModelEntity&#45;&gt;pyVHDLModel.SyntaxModel.BaseExpression -->
<g id="edge3" class="edge">
<title>pyVHDLModel.ModelEntity&#45;&gt;pyVHDLModel.SyntaxModel.BaseExpression</title>
<path fill="none" stroke="black" stroke-width="0.5" d="M147.23,-9.5C157,-9.5 167.22,-9.5 177.55,-9.5"/>
<polygon fill="black" stroke="black" stroke-width="0.5" points="177.63,-11.25 182.63,-9.5 177.63,-7.75 177.63,-11.25"/>
</g>
<!-- pyVHDLModel.SyntaxModel.BinaryExpression -->
<g id="node6" class="node">
<title>pyVHDLModel.SyntaxModel.BinaryExpression</title>
<g id="a_node6"><a xlink:title="A ``BinaryExpression`` is a base&#45;class for all binary expressions.">
<polygon fill="none" stroke="black" stroke-width="0.5" points="692,-19 452,-19 452,0 692,0 692,-19"/>
<text text-anchor="middle" x="572" y="-7" font-family="Vera Sans, DejaVu Sans, Liberation Sans, Arial, Helvetica, sans" font-size="10.00">pyVHDLModel.SyntaxModel.BinaryExpression</text>
</a>
</g>
</g>
<!-- pyVHDLModel.SyntaxModel.BaseExpression&#45;&gt;pyVHDLModel.SyntaxModel.BinaryExpression -->
<g id="edge4" class="edge">
<title>pyVHDLModel.SyntaxModel.BaseExpression&#45;&gt;pyVHDLModel.SyntaxModel.BinaryExpression</title>
<path fill="none" stroke="black" stroke-width="0.5" d="M416,-9.5C426.03,-9.5 436.2,-9.5 446.3,-9.5"/>
<polygon fill="black" stroke="black" stroke-width="0.5" points="446.57,-11.25 451.57,-9.5 446.57,-7.75 446.57,-11.25"/>
</g>
<!-- pyVHDLModel.SyntaxModel.LogicalExpression -->
<g id="node7" class="node">
<title>pyVHDLModel.SyntaxModel.LogicalExpression</title>
<g id="a_node7"><a xlink:title="A ``LogicalExpression`` is a base&#45;class for all logical expressions.">
<polygon fill="none" stroke="black" stroke-width="0.5" points="971,-19 728,-19 728,0 971,0 971,-19"/>
<text text-anchor="middle" x="849.5" y="-7" font-family="Vera Sans, DejaVu Sans, Liberation Sans, Arial, Helvetica, sans" font-size="10.00">pyVHDLModel.SyntaxModel.LogicalExpression</text>
</a>
</g>
</g>
<!-- pyVHDLModel.SyntaxModel.BinaryExpression&#45;&gt;pyVHDLModel.SyntaxModel.LogicalExpression -->
<g id="edge5" class="edge">
<title>pyVHDLModel.SyntaxModel.BinaryExpression&#45;&gt;pyVHDLModel.SyntaxModel.LogicalExpression</title>
<path fill="none" stroke="black" stroke-width="0.5" d="M692.24,-9.5C702.27,-9.5 712.43,-9.5 722.51,-9.5"/>
<polygon fill="black" stroke="black" stroke-width="0.5" points="722.77,-11.25 727.77,-9.5 722.77,-7.75 722.77,-11.25"/>
</g>
<!-- pyVHDLModel.SyntaxModel.LogicalExpression&#45;&gt;pyVHDLModel.SyntaxModel.XorExpression -->
<g id="edge6" class="edge">
<title>pyVHDLModel.SyntaxModel.LogicalExpression&#45;&gt;pyVHDLModel.SyntaxModel.XorExpression</title>
<path fill="none" stroke="black" stroke-width="0.5" d="M971.17,-9.5C981.23,-9.5 991.39,-9.5 1001.42,-9.5"/>
<polygon fill="black" stroke="black" stroke-width="0.5" points="1001.65,-11.25 1006.65,-9.5 1001.65,-7.75 1001.65,-11.25"/>
</g>
</g>
</svg>
