<?xml version="1.0" encoding="UTF-8" standalone="no"?>
<!DOCTYPE svg PUBLIC "-//W3C//DTD SVG 1.1//EN"
 "http://www.w3.org/Graphics/SVG/1.1/DTD/svg11.dtd">
<!-- Generated by graphviz version 2.43.0 (0)
 -->
<!-- Title: inheritance7ffb5da4b9 Pages: 1 -->
<svg width="576pt" height="53pt"
 viewBox="0.00 0.00 576.00 52.60" xmlns="http://www.w3.org/2000/svg" xmlns:xlink="http://www.w3.org/1999/xlink">
<g id="graph0" class="graph" transform="scale(2.26 2.26) rotate(0) translate(4 115)">
<title>inheritance7ffb5da4b9</title>
<polygon fill="white" stroke="transparent" points="-4,4 -4,-115 1299,-115 1299,4 -4,4"/>
<!-- pyGHDL.dom.Sequential.ElsifBranch -->
<g id="node1" class="node">
<title>pyGHDL.dom.Sequential.ElsifBranch</title>
<g id="a_node1"><a xlink:href="../pyGHDL/pyGHDL.dom.Sequential.html#pyGHDL.dom.Sequential.ElsifBranch" xlink:title="pyGHDL.dom.Sequential.ElsifBranch" target="_top">
<polygon fill="none" stroke="black" stroke-width="0.5" points="1295,-55 1101,-55 1101,-36 1295,-36 1295,-55"/>
<text text-anchor="middle" x="1198" y="-43" font-family="Vera Sans, DejaVu Sans, Liberation Sans, Arial, Helvetica, sans" font-size="10.00">pyGHDL.dom.Sequential.ElsifBranch</text>
</a>
</g>
</g>
<!-- pyVHDLModel.SyntaxModel.ElsifBranch -->
<g id="node2" class="node">
<title>pyVHDLModel.SyntaxModel.ElsifBranch</title>
<polygon fill="none" stroke="black" stroke-width="0.5" points="1065,-55 855,-55 855,-36 1065,-36 1065,-55"/>
<text text-anchor="middle" x="960" y="-43" font-family="Vera Sans, DejaVu Sans, Liberation Sans, Arial, Helvetica, sans" font-size="10.00">pyVHDLModel.SyntaxModel.ElsifBranch</text>
</g>
<!-- pyVHDLModel.SyntaxModel.ElsifBranch&#45;&gt;pyGHDL.dom.Sequential.ElsifBranch -->
<g id="edge1" class="edge">
<title>pyVHDLModel.SyntaxModel.ElsifBranch&#45;&gt;pyGHDL.dom.Sequential.ElsifBranch</title>
<path fill="none" stroke="black" stroke-width="0.5" d="M1065.2,-45.5C1075.29,-45.5 1085.53,-45.5 1095.59,-45.5"/>
<polygon fill="black" stroke="black" stroke-width="0.5" points="1095.84,-47.25 1100.84,-45.5 1095.84,-43.75 1095.84,-47.25"/>
</g>
<!-- pyVHDLModel.ModelEntity -->
<g id="node3" class="node">
<title>pyVHDLModel.ModelEntity</title>
<g id="a_node3"><a xlink:title="``ModelEntity`` is the base class for all classes in the VHDL language model,">
<polygon fill="none" stroke="black" stroke-width="0.5" points="483.5,-111 336.5,-111 336.5,-92 483.5,-92 483.5,-111"/>
<text text-anchor="middle" x="410" y="-99" font-family="Vera Sans, DejaVu Sans, Liberation Sans, Arial, Helvetica, sans" font-size="10.00">pyVHDLModel.ModelEntity</text>
</a>
</g>
</g>
<!-- pyVHDLModel.SyntaxModel.Branch -->
<g id="node4" class="node">
<title>pyVHDLModel.SyntaxModel.Branch</title>
<g id="a_node4"><a xlink:title="A ``Branch`` is a base&#45;class for all branches in a if statement.">
<polygon fill="none" stroke="black" stroke-width="0.5" points="795,-74 606,-74 606,-55 795,-55 795,-74"/>
<text text-anchor="middle" x="700.5" y="-62" font-family="Vera Sans, DejaVu Sans, Liberation Sans, Arial, Helvetica, sans" font-size="10.00">pyVHDLModel.SyntaxModel.Branch</text>
</a>
</g>
</g>
<!-- pyVHDLModel.ModelEntity&#45;&gt;pyVHDLModel.SyntaxModel.Branch -->
<g id="edge2" class="edge">
<title>pyVHDLModel.ModelEntity&#45;&gt;pyVHDLModel.SyntaxModel.Branch</title>
<path fill="none" stroke="black" stroke-width="0.5" d="M483.8,-92.16C525.35,-86.84 577.47,-80.15 620.07,-74.69"/>
<polygon fill="black" stroke="black" stroke-width="0.5" points="620.48,-76.4 625.22,-74.03 620.03,-72.93 620.48,-76.4"/>
</g>
<!-- pyVHDLModel.SyntaxModel.Branch&#45;&gt;pyVHDLModel.SyntaxModel.ElsifBranch -->
<g id="edge4" class="edge">
<title>pyVHDLModel.SyntaxModel.Branch&#45;&gt;pyVHDLModel.SyntaxModel.ElsifBranch</title>
<path fill="none" stroke="black" stroke-width="0.5" d="M795.19,-57.59C812.94,-56.28 831.64,-54.9 849.82,-53.56"/>
<polygon fill="black" stroke="black" stroke-width="0.5" points="850.07,-55.29 854.93,-53.18 849.81,-51.8 850.07,-55.29"/>
</g>
<!-- pyVHDLModel.SyntaxModel.SequentialStatements -->
<g id="node5" class="node">
<title>pyVHDLModel.SyntaxModel.SequentialStatements</title>
<polygon fill="none" stroke="black" stroke-width="0.5" points="541.5,-74 278.5,-74 278.5,-55 541.5,-55 541.5,-74"/>
<text text-anchor="middle" x="410" y="-62" font-family="Vera Sans, DejaVu Sans, Liberation Sans, Arial, Helvetica, sans" font-size="10.00">pyVHDLModel.SyntaxModel.SequentialStatements</text>
</g>
<!-- pyVHDLModel.SyntaxModel.SequentialStatements&#45;&gt;pyVHDLModel.SyntaxModel.Branch -->
<g id="edge3" class="edge">
<title>pyVHDLModel.SyntaxModel.SequentialStatements&#45;&gt;pyVHDLModel.SyntaxModel.Branch</title>
<path fill="none" stroke="black" stroke-width="0.5" d="M541.74,-64.5C561.5,-64.5 581.61,-64.5 600.55,-64.5"/>
<polygon fill="black" stroke="black" stroke-width="0.5" points="600.86,-66.25 605.86,-64.5 600.86,-62.75 600.86,-66.25"/>
</g>
<!-- pyVHDLModel.SyntaxModel.MixinElsifBranch -->
<g id="node6" class="node">
<title>pyVHDLModel.SyntaxModel.MixinElsifBranch</title>
<g id="a_node6"><a xlink:title="A ``BaseElsifBranch`` is a mixin&#45;class for all elsif&#45;branches.">
<polygon fill="none" stroke="black" stroke-width="0.5" points="819,-37 582,-37 582,-18 819,-18 819,-37"/>
<text text-anchor="middle" x="700.5" y="-25" font-family="Vera Sans, DejaVu Sans, Liberation Sans, Arial, Helvetica, sans" font-size="10.00">pyVHDLModel.SyntaxModel.MixinElsifBranch</text>
</a>
</g>
</g>
<!-- pyVHDLModel.SyntaxModel.MixinElsifBranch&#45;&gt;pyVHDLModel.SyntaxModel.ElsifBranch -->
<g id="edge5" class="edge">
<title>pyVHDLModel.SyntaxModel.MixinElsifBranch&#45;&gt;pyVHDLModel.SyntaxModel.ElsifBranch</title>
<path fill="none" stroke="black" stroke-width="0.5" d="M819.32,-35.74C829.36,-36.44 839.49,-37.15 849.45,-37.84"/>
<polygon fill="black" stroke="black" stroke-width="0.5" points="849.54,-39.6 854.65,-38.21 849.79,-36.11 849.54,-39.6"/>
</g>
<!-- pyVHDLModel.SyntaxModel.MixinBranch -->
<g id="node7" class="node">
<title>pyVHDLModel.SyntaxModel.MixinBranch</title>
<g id="a_node7"><a xlink:title="A ``BaseBranch`` is a mixin&#45;class for all statements with branches.">
<polygon fill="none" stroke="black" stroke-width="0.5" points="227,-56 11,-56 11,-37 227,-37 227,-56"/>
<text text-anchor="middle" x="119" y="-44" font-family="Vera Sans, DejaVu Sans, Liberation Sans, Arial, Helvetica, sans" font-size="10.00">pyVHDLModel.SyntaxModel.MixinBranch</text>
</a>
</g>
</g>
<!-- pyVHDLModel.SyntaxModel.MixinConditionalBranch -->
<g id="node9" class="node">
<title>pyVHDLModel.SyntaxModel.MixinConditionalBranch</title>
<g id="a_node9"><a xlink:title="A ``BaseBranch`` is a mixin&#45;class for all branch statements with a condition.">
<polygon fill="none" stroke="black" stroke-width="0.5" points="546,-37 274,-37 274,-18 546,-18 546,-37"/>
<text text-anchor="middle" x="410" y="-25" font-family="Vera Sans, DejaVu Sans, Liberation Sans, Arial, Helvetica, sans" font-size="10.00">pyVHDLModel.SyntaxModel.MixinConditionalBranch</text>
</a>
</g>
</g>
<!-- pyVHDLModel.SyntaxModel.MixinBranch&#45;&gt;pyVHDLModel.SyntaxModel.MixinConditionalBranch -->
<g id="edge6" class="edge">
<title>pyVHDLModel.SyntaxModel.MixinBranch&#45;&gt;pyVHDLModel.SyntaxModel.MixinConditionalBranch</title>
<path fill="none" stroke="black" stroke-width="0.5" d="M227.2,-39.45C240.65,-38.57 254.56,-37.65 268.42,-36.74"/>
<polygon fill="black" stroke="black" stroke-width="0.5" points="268.65,-38.48 273.53,-36.41 268.42,-34.99 268.65,-38.48"/>
</g>
<!-- pyVHDLModel.SyntaxModel.MixinConditional -->
<g id="node8" class="node">
<title>pyVHDLModel.SyntaxModel.MixinConditional</title>
<g id="a_node8"><a xlink:title="A ``BaseConditional`` is a mixin&#45;class for all statements with a condition.">
<polygon fill="none" stroke="black" stroke-width="0.5" points="238,-19 0,-19 0,0 238,0 238,-19"/>
<text text-anchor="middle" x="119" y="-7" font-family="Vera Sans, DejaVu Sans, Liberation Sans, Arial, Helvetica, sans" font-size="10.00">pyVHDLModel.SyntaxModel.MixinConditional</text>
</a>
</g>
</g>
<!-- pyVHDLModel.SyntaxModel.MixinConditional&#45;&gt;pyVHDLModel.SyntaxModel.MixinConditionalBranch -->
<g id="edge7" class="edge">
<title>pyVHDLModel.SyntaxModel.MixinConditional&#45;&gt;pyVHDLModel.SyntaxModel.MixinConditionalBranch</title>
<path fill="none" stroke="black" stroke-width="0.5" d="M238.38,-16.87C248.43,-17.5 258.65,-18.14 268.84,-18.77"/>
<polygon fill="black" stroke="black" stroke-width="0.5" points="268.74,-20.52 273.84,-19.08 268.96,-17.02 268.74,-20.52"/>
</g>
<!-- pyVHDLModel.SyntaxModel.MixinConditionalBranch&#45;&gt;pyVHDLModel.SyntaxModel.MixinElsifBranch -->
<g id="edge8" class="edge">
<title>pyVHDLModel.SyntaxModel.MixinConditionalBranch&#45;&gt;pyVHDLModel.SyntaxModel.MixinElsifBranch</title>
<path fill="none" stroke="black" stroke-width="0.5" d="M546.38,-27.5C556.48,-27.5 566.63,-27.5 576.65,-27.5"/>
<polygon fill="black" stroke="black" stroke-width="0.5" points="576.87,-29.25 581.87,-27.5 576.87,-25.75 576.87,-29.25"/>
</g>
</g>
</svg>
